<svg id="Layer_1" data-name="Layer 1" xmlns="http://www.w3.org/2000/svg" viewBox="0 0 132.14 132.37"><defs><style>.cls-1{fill:#ddd;}</style></defs><circle class="cls-1" cx="66.26" cy="66.37" r="64.5"/><path d="M130.64,79.34c-.24,1.07-.5,2.13-.76,3.17a29.73,29.73,0,0,1-1.06,3,19.41,19.41,0,0,1-1,2.87c-.33.55-.73,1-1.09,1.62a5.46,5.46,0,0,0-.81,2.6,2.87,2.87,0,0,1-.51,1.79A12.3,12.3,0,0,0,124,97.15c-.31.92-.83,1.87-1.24,2.82-.89,1.89-2.5,3.14-3.46,5.2a21.3,21.3,0,0,1-3.4,4.48c-.69.83-1.45,1.62-2.21,2.4s-1.55,1.53-2.35,2.27a8.67,8.67,0,0,1-1.23.91,12.94,12.94,0,0,0-2.35,2c-.72.71-1.45,1.43-2.2,2.13l-2.35,2c-.7.56-1.06.66-1.21.35s-.75,0-1.44.54c-1,.78-2,1.54-2.92,2.29a12.44,12.44,0,0,1-2.33,1.44,16.46,16.46,0,0,1-2.53.89l-2.21.65a2.6,2.6,0,0,0-1,.67,2.7,2.7,0,0,1-1.81.76,25.93,25.93,0,0,0-5.16,1l-2.76.69c-.91.23-1.82.43-2.67.71a4.7,4.7,0,0,1-2.18.25c-1.08-.12-2.12-.24-3.18-.44a3.9,3.9,0,0,0-1.51.09c-.94.24-1.94.34-2.89.53a3.47,3.47,0,0,1-2.49-.33,1.26,1.26,0,0,0-1.1.09,4.33,4.33,0,0,1-1.2.57,9.74,9.74,0,0,1-4.5-.14,19.89,19.89,0,0,1-2-.64,16.86,16.86,0,0,0-3.6-1.07,68,68,0,0,1-8.6-2.36,24.33,24.33,0,0,1-5.06-2.32c-.81-.49-1.58-1-2.38-1.36s-1.61-.71-2.45-1c-.66-.25-1.35-.5-2-.78s-1.31-.54-1.94-.76c-1.73-.58-1.77-.72-3.13-2.35a1.83,1.83,0,0,0-1-.74,4.51,4.51,0,0,1-1-.39c-1.49-1.6-3.58-3.34-4.61-5.08a3.22,3.22,0,0,0-1.89-1.55,2.23,2.23,0,0,1-1-1,4,4,0,0,0-1-1.12,13.74,13.74,0,0,1-1.27-1.17c-.39-.44-.79-.9-1.18-1.37-.82-.93-1.53-1.93-2.33-2.74-.72-1.12-1.28-2.33-2-3.46C9,99.83,8.48,98.89,8,97.94A24.39,24.39,0,0,1,6.78,95a9.73,9.73,0,0,0-1.07-2c-.65-.93-.64-2-1.19-2.9a6,6,0,0,1-.71-2.77,7,7,0,0,0-.59-2.17,19.56,19.56,0,0,1-1.16-3.8c-.38-1.34-.28-2.69-.68-3.88a14.09,14.09,0,0,1-.61-2.69C.6,73.85.43,72.93.21,72.12a4.52,4.52,0,0,1,0-2.79A11.81,11.81,0,0,0,.63,65a22.25,22.25,0,0,1,.18-5.5,16.29,16.29,0,0,0,.1-2.3,15.75,15.75,0,0,1,.25-2.36c.26-1.63,1-2.9,1.27-4.57.15-.77.29-1.52.43-2.28a23.26,23.26,0,0,1,.5-2.28,26.25,26.25,0,0,1,1-3.1c.44-1.15.87-2.31,1.41-3.4.27-.54.54-1.07.83-1.58a13.42,13.42,0,0,1,1-1.4A23.27,23.27,0,0,0,9,33.41a8.29,8.29,0,0,1,1.87-3.29,3.65,3.65,0,0,0,.48-.61,13.24,13.24,0,0,1,2.73-3.83c.39-.54.77-1.08,1.2-1.57s.89-1,1.37-1.44a35.19,35.19,0,0,1,2.6-3,13,13,0,0,0,2.22-2.22,14.42,14.42,0,0,1,2.39-2.13,16.86,16.86,0,0,0,1.91-1.41A33.13,33.13,0,0,1,36,7.44a33,33,0,0,0,4.37-2.1,4.1,4.1,0,0,1,2.47-.69,1.73,1.73,0,0,0,1.06-.53A3.92,3.92,0,0,1,46.75,3a3.67,3.67,0,0,0,2-.26A13.25,13.25,0,0,1,50.94,2a11.69,11.69,0,0,1,2.39-.38,10.18,10.18,0,0,0,2.29-.34A13.34,13.34,0,0,1,59.45.7,26.33,26.33,0,0,0,64.94.23,19.83,19.83,0,0,1,69.73.06c1.07.08,2.12.25,3.17.37a18.76,18.76,0,0,0,3.2.31,2.8,2.8,0,0,1,.79.14,59.68,59.68,0,0,0,8.53,1.91,8.64,8.64,0,0,1,2.28.73C88.81,4,89.87,4.54,91,5s2.19.87,3.36,1.2a4.9,4.9,0,0,1,1.45.67c3.12,2.05,6.51,3.86,9.59,6.09a46,46,0,0,1,6.8,5.87c.57.58,1.06,1.14,1.67,1.67a16.31,16.31,0,0,1,2.29,2.26,18.43,18.43,0,0,1,1.9,2.58A17.49,17.49,0,0,0,119.18,27a17,17,0,0,0,1.24,1.54,18.43,18.43,0,0,1,3.38,5.38c.41.91.84,2,1.33,2.89a39.36,39.36,0,0,1,1.65,3.7c.48,1.27,1,2.51,1.5,3.75a26.59,26.59,0,0,1,1.25,3.85l.5,1.95c.14.66.29,1.31.47,2s.46,1.51.65,2.28a11.31,11.31,0,0,1,.41,2.36c0,1.64.36,3.15.51,4.75a12.72,12.72,0,0,1-.24,3.77c-.17,1.29-1.16,1.61-1.52.59a3,3,0,0,1,.05-.61,4.21,4.21,0,0,1,.18-.47c.18-.45.17-1.08,0-1.13-.83-.24-1.15-1.91-1.36-4.28-.16-1.3-.34-2.6-.41-3.84a7.82,7.82,0,0,0-.61-2.92,15.67,15.67,0,0,1-.61-1.79,16,16,0,0,1-.48-1.87,46,46,0,0,0-4.32-11.7c-.55-1.18-1.21-2.31-1.82-3.46a11.66,11.66,0,0,0-.72-1.32C117.09,28.22,113.91,24,110,20.49a33.5,33.5,0,0,0-3.57-2.8,53.38,53.38,0,0,1-6.1-4.55c-.35-.3-.74-.62-1.13-.93L98,11.33a7.78,7.78,0,0,0-2-1.14A85.26,85.26,0,0,0,85.83,6.34c-1.32-.4-2.57-.7-3.68-1.14A18.89,18.89,0,0,1,79,3.87a1.4,1.4,0,0,0-1.18-.05,4.62,4.62,0,0,1-2.48.08c-1.28-.16-2.55-.44-3.82-.57-1-.13-2-.34-3-.4a11.15,11.15,0,0,0-3.74.23A10.58,10.58,0,0,1,63,3.42a10.81,10.81,0,0,1-1.89,0,17.42,17.42,0,0,0-6.71.88A44.32,44.32,0,0,1,47.76,6a19.51,19.51,0,0,0-2.93.8,17.17,17.17,0,0,0-2.72,1.34,18.79,18.79,0,0,1-2,1c-.7.29-1.42.57-2.14.85a10.68,10.68,0,0,0-2,.86c-1.07.81-1.85,1.45-2.42,1-.13-.09-.53,0-.81,0a6.63,6.63,0,0,0-.34.72c-.09.22,0,.39-.21.65a4.37,4.37,0,0,1-1,.88c-1,.71-2.19,1.26-3.16,2.05a35.41,35.41,0,0,0-2.76,2.59c-.36.34-.77.72-1.18,1.07a8.94,8.94,0,0,1-1.11.92,8.48,8.48,0,0,0-2,1.81c-.55.67-1.12,1.32-1.73,2s-1.06,1.09-1.59,1.67-1,1.22-1.46,1.82a21.51,21.51,0,0,0-1.55,2.21,13,13,0,0,0-1.17,2.29,9.06,9.06,0,0,1-.69,1.29c-.26.45-.55.91-.83,1.34-.63,1-1.12,1.52-1.55,1.6s-.53,0-.82,0a.73.73,0,0,0-.35.26c-.22.27-.31.62-.17.81s.49.45.71.72a2.77,2.77,0,0,1-.42,1.71c-.34.51-.67,1-1,1.59s-.53,1.14-.77,1.73A34.81,34.81,0,0,0,6.4,47.32c-.34,1.23-.5,2.47-.81,3.69-.2,1-.59,1.91-.82,2.9-.13.67,0,1.52-.32,2a3.73,3.73,0,0,0-.58,2.46,26.25,26.25,0,0,1-.09,4.38c-.16,1.15,0,2.39-.12,3.72a20.86,20.86,0,0,0,.1,4.6,47.7,47.7,0,0,0,.46,5.25c.44,1.61.47,3,.76,4.48A30,30,0,0,0,6,85a24.31,24.31,0,0,0,1.66,3.84,80.39,80.39,0,0,1,3.58,7.55c.41.93.85,1.84,1.35,2.73s1.07,1.74,1.68,2.6c1.66,2.31,3.52,4.5,5.11,6.79a10,10,0,0,0,1.57,1.61c2.84,2.65,5.79,5,8.66,7.64a15.9,15.9,0,0,0,1.5,1.15l1.69,1c1.09.68,2.27,1.15,3.4,1.71,2.22,1.57,5.06,2.65,7.46,3.9A4.08,4.08,0,0,0,45,126a14.74,14.74,0,0,1,2.14.5c3.46,1.15,7.1,1.59,10.59,2.46.76.05,1.51.12,2.27.14l2.27.07c1.3.07,2.61,0,3.91.08s2.6-.08,3.86-.24c1.55-.2,3-.3,4.48-.5a57.28,57.28,0,0,0,12.11-2.82A63.4,63.4,0,0,0,98,120.55c1.13-.6,2.22-1.29,3.34-1.89a14.72,14.72,0,0,0,2.5-1.78c.7-.71,1.44-1.39,2.22-2l2.31-2.06a69.5,69.5,0,0,0,6.11-6.5,68.27,68.27,0,0,0,5.1-7.31c.52-.88,1-1.73,1.59-2.57a29.17,29.17,0,0,0,1.46-2.72c.66-1.56,1.41-3.27,2.23-4.77a61.36,61.36,0,0,0,3.61-14.3c.22-1.53.33-3.09.46-4.63a5.76,5.76,0,0,1,.39-2,9.45,9.45,0,0,1,.88-1.57c.12-.17.36,0,.43.26a27.92,27.92,0,0,1,.57,3.34,34.45,34.45,0,0,1,.16,3.72c0,.88-.11,1.81-.22,2.76S130.79,78.41,130.64,79.34Z"/></svg>