<svg id="Layer_1" data-name="Layer 1" xmlns="http://www.w3.org/2000/svg" viewBox="0 0 131.73 130.93"><defs><style>.cls-1{fill:red;}</style></defs><circle class="cls-1" cx="65.42" cy="65.2" r="64.5"/><path d="M130.1,64.76a8.47,8.47,0,0,0,.11-1.14c0-.9.11-1.79.2-2.66a9.58,9.58,0,0,0-.53-3c0-.26-.1-.51-.13-.77-.12-.89-.19-1.78-.36-2.67a13.42,13.42,0,0,1-.2-2.28c0-.91-.67-1.62-.76-2.54a6.31,6.31,0,0,0-.19-1.51c-.18-.6-.52-1.15-.7-1.75-.62-1.83-1.25-3.66-2-5.45a70.88,70.88,0,0,0-4.21-8.68,13.73,13.73,0,0,0-2-3.23,5.7,5.7,0,0,1-.79-1.3,3.79,3.79,0,0,0-.61-1c-.53-.55-1.06-1.11-1.54-1.71s-.94-1.24-1.45-1.81a65.53,65.53,0,0,0-7.67-7.6A62.27,62.27,0,0,0,96.11,8.12L93.88,7a19.24,19.24,0,0,1-2.17-1.23,2.15,2.15,0,0,0-.66-.33,19.46,19.46,0,0,1-4-1.38,6.56,6.56,0,0,0-2.21-.43,1.17,1.17,0,0,1-.66-.25,3.46,3.46,0,0,0-1-.51c-1.35-.42-2.75-.67-4.13-1-.81-.21-1.65-.3-2.46-.48A19.2,19.2,0,0,1,74.26.7C73,.63,71.76.14,70.46.17c-1,0-1.93-.13-2.9-.15a8.14,8.14,0,0,0-2.87.24,1.54,1.54,0,0,1-.74,0,5.82,5.82,0,0,0-2.66,0c-.85.16-1.77-.12-2.63.24a2.6,2.6,0,0,1-.75,0c-.9.08-1.8.11-2.7.24s-2,.37-3.05.59-2,.5-3,.82-2,.27-3,.67l-1.42.6a4.17,4.17,0,0,1-.68.32A14.19,14.19,0,0,0,42,4.35c-.7.24-1.4.5-2.09.79-1.36.62-2.72,1.22-4,1.9a6.81,6.81,0,0,0-2,1.21,1.51,1.51,0,0,1-.65.37,10.25,10.25,0,0,0-1.76.78c-.56.33-1.1.69-1.64,1-.72.44-1.41.93-2.09,1.43s-1.37,1-2,1.51a66,66,0,0,0-12.84,13c-.31.43-.58.87-.9,1.28A4.78,4.78,0,0,0,11,30a1.05,1.05,0,0,0-1.3.63c-.56,1-1.43,1.87-1.61,3A12,12,0,0,1,6.26,37a1.71,1.71,0,0,0-.32.68,4,4,0,0,1-.83,1.7,3.79,3.79,0,0,0-.71,1.78,22.38,22.38,0,0,1-1,3.72A65,65,0,0,0,1,54.32c-.15.77-.23,1.55-.35,2.31S.37,58.16.19,58.91c-.09.34,0,.78,0,1.14a10.33,10.33,0,0,0-.07,3c.08.76,0,1.54,0,2.32a7.16,7.16,0,0,0,.34,2.26.73.73,0,0,1,0,.36c-.51,2,.2,4.12,0,6.13a2.26,2.26,0,0,0,.22.72A2.76,2.76,0,0,1,1,76a13.26,13.26,0,0,0,.41,3.41c.11.74.5,1.48.59,2.22a9.51,9.51,0,0,0,1,2.88,17.38,17.38,0,0,0,.93,1.62,1.06,1.06,0,0,1,.15,1,1.62,1.62,0,0,0,0,1.35c.36.91.67,1.84,1.06,2.74s.78,1.8,1.19,2.69a4,4,0,0,0,.41.66,1.45,1.45,0,0,0,.78.55c.42.12.48.23.36.7a1.18,1.18,0,0,0,.06,1,60.24,60.24,0,0,0,3.88,6.33,1.45,1.45,0,0,0,1.14.62.39.39,0,0,1,.36.48,2,2,0,0,0,.52,1.59A48.82,48.82,0,0,0,17,109.72c.64.65,1.23,1.34,1.86,2A12.91,12.91,0,0,0,21,113.44a22.36,22.36,0,0,0,3.72,3.41,9.44,9.44,0,0,0,1.64,1,1.67,1.67,0,0,1,.56.46c.5.64,1.32.75,1.89,1.31A20.21,20.21,0,0,0,30.71,121a57.71,57.71,0,0,0,7.6,4.06,20.81,20.81,0,0,0,4.39,1.65,7.74,7.74,0,0,1,1,.44c.85.3,1.68.7,2.55,1a9.31,9.31,0,0,0,2.66.48c.7.39,1.55.22,2.21.48a12.56,12.56,0,0,0,2.4.75,9.07,9.07,0,0,0,2.5.21,5.71,5.71,0,0,0,2.29.23,4.68,4.68,0,0,1,1.51.12,13.67,13.67,0,0,0,2.66.28,21.84,21.84,0,0,0,3.12.23,70.44,70.44,0,0,0,7.82-.48c.72-.09,1.44-.14,2.14-.27a11.15,11.15,0,0,0,2.05-.58c1.14,0,2.12-.69,3.35-.65a7.26,7.26,0,0,0,3.32-.95,3.13,3.13,0,0,1,1.05-.38c.92,0,1.66-.75,2.56-.68A9.29,9.29,0,0,1,90.4,126a2.92,2.92,0,0,0,1.32-.75,2.3,2.3,0,0,1,1.37-.57,3.55,3.55,0,0,0,1.45-.45c.93-.49,1.88-.94,2.78-1.47a15.61,15.61,0,0,1,2.1-1,11.5,11.5,0,0,0,4.19-2.79,3,3,0,0,1,1.25-.83,4.23,4.23,0,0,0,1-.53c.57-.44,1.17-.86,1.73-1.31a9.92,9.92,0,0,0,1.47-1.57,3.68,3.68,0,0,1,1.11-1c.54-.32.81-1,1.43-1.25.41-.19.64-.73,1.07-1.07a11.87,11.87,0,0,0,1.43-1.33c.89-1,1.75-2,2.6-3s1.66-2,2.4-3.14a25.32,25.32,0,0,0,3.27-5.35,7.3,7.3,0,0,1,1-1.63,8,8,0,0,0,.86-1.73c.26-.58.76-1.06,1-1.65a68.51,68.51,0,0,0,3.22-8.07c.28-.76.11-1.56.48-2.26a9.2,9.2,0,0,0,.77-2.21c.29-1.22.62-2.43.83-3.67s.46-2.47.61-3.71c.13-.92.22-1.83.44-2.73a4,4,0,0,0,.1-1.15,9.56,9.56,0,0,0-.78-3.63,2.66,2.66,0,0,0-.75-.87c-.26-.24-.76.13-.77.56a67.25,67.25,0,0,1-.55,7.23c-.21,1.77-.53,3.52-.87,5.27a62.44,62.44,0,0,1-2,7.35c-.42,1.34-1,2.63-1.48,3.93-.8,1.87-1.68,3.7-2.62,5.5a21.12,21.12,0,0,0-1,2.06c-.31.92-1,1.39-1.51,2.13-.6,1-1.24,1.93-1.93,2.84s-1.35,1.84-2,2.75a60.39,60.39,0,0,1-8.16,8.53,7.7,7.7,0,0,1-2.17,1.49,4.07,4.07,0,0,0-1.73,1.38,2.82,2.82,0,0,1-1.17.87,4,4,0,0,0-1.52,1,5.45,5.45,0,0,1-1.11,1,28.27,28.27,0,0,1-6,3.18c-.76.28-1.54.75-2.35,1.07-.37.14-.13.72-.91.82a7.31,7.31,0,0,0-1.45.36l-3.37,1.23a13.54,13.54,0,0,1-3.49.82.74.74,0,0,0-.32.16,4.18,4.18,0,0,1-2.14.61,8.22,8.22,0,0,0-3.26.66,1.47,1.47,0,0,1-.74.13,4,4,0,0,0-2.15.29,4.85,4.85,0,0,1-2.61.23,4.75,4.75,0,0,0-2.54.18,10.78,10.78,0,0,0-2.6.05,5.32,5.32,0,0,0-2.91-.08c-.48.08-.94-.29-1.46-.17a2.69,2.69,0,0,1-1.79-.16c-.85.13-1.69-.43-2.54-.19a11.34,11.34,0,0,0-1.45-.3,5,5,0,0,1-1.82-.29,2.36,2.36,0,0,0-.72-.14c-.49,0-1-.06-1.47-.1a11.39,11.39,0,0,0-1.48-.17c-.73,0-1.13-.49-1.71-.61a21,21,0,0,1-2.19-.63,9.9,9.9,0,0,0-2.19-.55,1.08,1.08,0,0,1-.65-.29A17.18,17.18,0,0,0,41.12,124c-.57-.24-1.21-.22-1.73-.66a1.67,1.67,0,0,0-.94-.51c-.55,0-.84-.52-1.3-.7a2.3,2.3,0,0,0-.66-.14,2.89,2.89,0,0,0-.6.09l-.28-.55a1.67,1.67,0,0,0-.8-.67,7.6,7.6,0,0,1-1.73-.61c-.73-.49-1.38-1.07-2-1.62a6,6,0,0,1-2.29-1.23c-.29-.24-.5-.57-.79-.77a19.31,19.31,0,0,1-2.31-1.8,8.45,8.45,0,0,0-1.25-.77l-.62-.43c-.31-.2-.66-.34-.95-.57s-.19-.55-.29-.84a25.24,25.24,0,0,1-2.2-2.44,4.55,4.55,0,0,0-.88-.63c-.25-.14-.4-.3-.39-.54a.75.75,0,0,0-.36-.82c-.68-.51-1.33-1.08-2-1.62-.29-.66-1-1-1.3-1.72a4.3,4.3,0,0,0-.78-1.26,6.08,6.08,0,0,0-1-1,3.36,3.36,0,0,1-1.2-1.83,2.4,2.4,0,0,0-.77-1.24,3.87,3.87,0,0,1-1.33-2.17A5.66,5.66,0,0,0,9,94.64a4.16,4.16,0,0,1-1.17-2.26,1.79,1.79,0,0,0-.53-.95,2.75,2.75,0,0,1-.66-1.32A4.31,4.31,0,0,0,6,88a.58.58,0,0,1,0-.62,1.42,1.42,0,0,0-.09-1.32,21.45,21.45,0,0,1-1.15-2.3c-.22-.72-.75-1.3-.78-2.06a9.37,9.37,0,0,0-.84-2.44,3.93,3.93,0,0,1-.26-1.84,4.52,4.52,0,0,0-.24-2.56,7.69,7.69,0,0,1-.3-2.15C2.13,70.33,2,67.93,2,65.53a6.48,6.48,0,0,0-.09-1.48,8,8,0,0,1-.28-2.2,9,9,0,0,1,.44-2.19,11.39,11.39,0,0,0,.42-3,4.68,4.68,0,0,1,.19-1.8c.19-.52.08-1.23.24-1.8a2.71,2.71,0,0,0,0-1.39,1.35,1.35,0,0,1,.08-1c.38-.76.71-1.56,1.12-2.32s.62-1.89,1.16-2.75c.37-.62.18-1.39.28-2.11a19.29,19.29,0,0,1,.57-2.17,1.72,1.72,0,0,1,1.08-1.24.65.65,0,0,0,.47-.77,2,2,0,0,1,.41-1.64,5.48,5.48,0,0,0,1-2c.16-.45.17-.94.61-1.29s.3-.91.72-1.23a.5.5,0,0,0,.2-.62c-.06-.17-.21-.37-.15-.52.19-.42.46-.29.7-.33a2.91,2.91,0,0,0,.58-.21c.23-.09.44-.27.41-.42s-.17-.28-.27-.39a.6.6,0,0,0-.23-.1,9.83,9.83,0,0,1,1-1.13,2.84,2.84,0,0,0,.82-1.16c.3-.66,1.06-1,1.32-1.76,0-.14.36-.29.54-.46s.46-.36.5-.52c.29-1.19,1.44-2.05,1.87-3.18a.75.75,0,0,1,.51-.47,8.19,8.19,0,0,0,.94-.35,2.65,2.65,0,0,0,1.31-1.25A3.51,3.51,0,0,1,22,18.75c.46-.26.62-1,1.28-1.25a8.28,8.28,0,0,0,2.69-2c.52-.53,1.11-1,1.59-1.5a4.22,4.22,0,0,1,1.8-1.26,8.18,8.18,0,0,0,2.28-1.24c.69-.49,1.16-1.28,2.11-1.39.36-.33.72-.67,1.09-1a.8.8,0,0,1,.88-.07c.35.36.48.37.91.05.28-.2.44-.52.88-.58a5.19,5.19,0,0,0,2.65-1.17,3.56,3.56,0,0,1,2.33-1,4.94,4.94,0,0,1,2-.62,2.71,2.71,0,0,0,1-.41c.61-.39,1.15-.84,1.79-1.19a9.29,9.29,0,0,1,1.36-.59,1.62,1.62,0,0,1,1.63.12c.22.19.4.16.52-.1s.22-.55.68-.52a11.06,11.06,0,0,0,2.21-.23l1.86-.34a8.37,8.37,0,0,1,1.87-.07c.67.07.86-.17,1-.51a.53.53,0,0,1,.28-.18,1.71,1.71,0,0,1,.72-.08c.56.16,1,.4,1.59.57a1.17,1.17,0,0,0,1-.13,1.59,1.59,0,0,1,1-.08c.44,0,.5-.29.75-.44a.59.59,0,0,1,.31-.07c.7.17,1.38.37,2.07.58a1.49,1.49,0,0,0,1.06,0l.9-.42c.49-.24,1,.18,1.44.07a2.23,2.23,0,0,1,1.44.06c.43.19.91.31,1.34.52a2.14,2.14,0,0,0,1.41.14,5.4,5.4,0,0,1,1.79-.17,14.74,14.74,0,0,1,1.72.61,7.91,7.91,0,0,0,3.29.4,1,1,0,0,1,.9.42l.16.25a1.71,1.71,0,0,0,1.14.71,1.44,1.44,0,0,0,1-.1c.37-.14.41-.14.9.42a1.09,1.09,0,0,0,.59.37c.46.12,1,0,1.4.34.67.48,1,0,1.62.1a.6.6,0,0,1,.54.35c.1.24,0,.53.6.58A13.73,13.73,0,0,1,90.89,7a1,1,0,0,1,.78.57c.44.71.51.72,1.33.62.57-.06.81.07,1,.54a3,3,0,0,1,.15.55.56.56,0,0,0,.42.43,7.16,7.16,0,0,1,2,.85,8.32,8.32,0,0,1,1.73,1.35c.1.09.42.07.63.08a.45.45,0,0,0,.27-.07c.64-.44.65-.44,1.37.16.22.19.15.3,0,.43a.57.57,0,0,0,.07.93,6.42,6.42,0,0,1,1.41,1.09,1.84,1.84,0,0,0,1.79.75.56.56,0,0,1,.55.35l.31.59c.25.44.39.5.7.35.7-.36.73-.36,1.15.26A2.85,2.85,0,0,0,107.93,18a1.25,1.25,0,0,1,.87,1,2.61,2.61,0,0,0,.42.92,11.38,11.38,0,0,0,2.64,2.59,9.89,9.89,0,0,1,1.21.65c.43.4.72,1.06,1.15,1.39a3.84,3.84,0,0,1,1.36,1.67A17,17,0,0,1,117,28.77a1.33,1.33,0,0,0,.45.54,2.39,2.39,0,0,1,.78,1.23.56.56,0,0,0,.47.41,2.6,2.6,0,0,1,.56.18.78.78,0,0,1,.23.27c.17.27.14.4,0,.49-.61.4-.58.73,0,1.42.15.19.33.36.47.57.47.71,1,1,1.53.86.37-.07.48.11.4.54a5.35,5.35,0,0,0,.37,2.7,20.69,20.69,0,0,0,1.18,2.75,1.89,1.89,0,0,0,.9,1,1.24,1.24,0,0,1,.75,1.07,18.55,18.55,0,0,1,.35,3.58,3.62,3.62,0,0,0,.87,2.68c.34.47.69.87,1,1.33a2.07,2.07,0,0,1,.29.66c.15.6,0,1.17.23,1.82.1.34-.26.46-.45.61a2,2,0,0,0-.28.39l.22.21a6.9,6.9,0,0,1,.89.83,2.42,2.42,0,0,1,.38,1.41,1,1,0,0,1-.33.87c-.21.18-.2.34,0,.54s.38.32.38.45c0,1.16.49,2.15.52,3.31,0,1,.06,2,.11,3,0,.44.23.72.47.68S130.06,65.06,130.1,64.76Z"/></svg>