<svg xmlns="http://www.w3.org/2000/svg" viewBox="0 0 134.23 135.54"><g id="Layer_2" data-name="Layer 2"><g id="Layer_1-2" data-name="Layer 1"><polygon points="126.27 51.03 126.27 51.03 126.26 51.03 126.27 51.03"/><polygon points="31.55 13.28 31.55 13.28 31.55 13.29 31.55 13.28"/><polygon points="131.18 66.05 131.18 66.05 131.18 66.06 131.18 66.05"/><polygon points="15.67 27.22 15.66 27.21 15.66 27.22 15.67 27.22"/><path d="M131.41,66l-.23,0-.08-.31c0-.15-.08-.18-.21-.08s-.29.06-.29-.16-.1-.18-.22-.16-.33.06-.27-.26c0-.12.09-.35-.08-.48s0-.08,0-.08c.34-.34-.13-.32-.2-.46s-.25-.35-.23-.6c0-.08,0-.28-.22-.23s-.3-.17-.26-.36.07-.31-.14-.42-.07-.27,0-.39c.08-.27-.16-.49-.09-.76,0,0,0,0-.09,0-.25.07-.32,0-.35-.24,0-.09,0-.16-.1-.2s-.14-.1-.1-.24a.88.88,0,0,0,0-.48c0-.13,0-.26-.18-.22,0,0,0-.09,0-.13s0-.23,0-.24c-.34-.31-.27-.79-.44-1.17-.07-.14,0-.35-.19-.48v0c.31-.17,0-.45.1-.65s0-.18-.06-.25-.17-.21,0-.37-.12-.28-.06-.44c-.38,0-.16-.36-.2-.51-.12-.44-.27-.87-.41-1.31-.09-.29.08-.55.07-.84,0-.09.16-.3-.14-.22-.1,0-.17-.11-.13-.2s.12-.58.4-.74c0,0,.09-.11,0-.11-.33,0-.11-.2-.08-.31s-.09-.13-.13-.18-.08,0-.1.08,0,.15-.11.15-.14-.16-.21-.24a.12.12,0,0,1,0-.19,1.93,1.93,0,0,0,.17-.21.26.26,0,0,0,0-.34c-.11-.12-.16.1-.26.08l0-.08c.28-.14.15-.38.13-.59a.37.37,0,0,0-.31-.29c-.09,0-.19,0-.24-.11s-.13-.14,0-.22.15,0,.19.08.08.15.19.13.22,0,.1-.18a8.92,8.92,0,0,0-.49-.85l0-.07c0-.29-.09-.26-.18-.55s-.48-.73-.5-1.23a2.39,2.39,0,0,0-.27-.89,2.16,2.16,0,0,1-.21-.5c0-.29-.14-.46-.23-.69s-.12-.19,0-.34-.26-.42-.08-.66c-.39,0-.31-.29-.28-.51s-.24-.12-.28-.33c-.09-.37-.26-.73-.38-1.1a4.86,4.86,0,0,0-.46-1.14c-.13-.21-.06-.47-.19-.68,0,0,0-.08-.06-.12a1.89,1.89,0,0,1-.58-.81c-.17-.33-.45-.72-.38-1s-.14-.34-.23-.5a6.66,6.66,0,0,1-.69-1.42,2.3,2.3,0,0,0-.37-.57c-.2-.24-.22-.58-.47-.8,0,0,0,0,0,0,.1-.48-.31-.68-.53-1-.08-.11-.31-.25,0-.39,0,0,0,0,0-.06h-.09c-.2,0-.26-.09-.32-.26a9.31,9.31,0,0,0-.81-1.76,5.31,5.31,0,0,0-.54-.69s0-.05,0-.07c0-.47-.4-.69-.68-1,0-.05-.14-.13-.13-.16.14-.41-.31-.52-.39-.77s-.23,0-.26-.17-.12,0-.09-.09.09-.06.15-.07c.24,0,.13-.23.11-.32s-.17-.11-.28-.07-.06.06-.09.11.11.26-.06.21-.27-.26-.2-.41c.16-.32-.13-.48-.23-.7,0-.06-.11-.09-.08-.17s-.08-.19-.19-.25-.44,0-.42-.34c0-.05,0-.09-.07-.07-.35.16-.43-.29-.69-.34.08-.4-.36-.48-.46-.7s-.09-.25-.3-.17-.11-.05-.07-.12,0-.19,0-.18c-.25.07-.34-.18-.52-.25s-.25-.31-.45-.41c0,0-.11-.14-.2-.16a.64.64,0,0,1-.43-.44c-.06-.41-.48-.45-.64-.74-.27-.46-.81-.64-1.09-1.14a2,2,0,0,0-.83-.72c-.07,0-.08-.05,0-.1s.11-.07,0-.1a.83.83,0,0,1-.64-.69c0-.1-.24-.2-.36-.27a2.06,2.06,0,0,1-.91-1.15c0-.06,0-.15-.1-.13-.44.09-.66-.28-.9-.5s-.78-.74-1.07-.94-.74-.62-1.11-.94c.13-.3-.31-.33-.3-.6,0-.11-.24-.1-.32-.23s-.2,0-.29,0-.13.09-.2-.06a.67.67,0,0,0-.46-.45c-.36-.1-.59-.42-.88-.65s-.42-.1-.51-.35c0,0-.12,0-.09-.09s.1-.11,0-.16-.09.06-.13.1-.13.08-.19,0-.19-.16-.22-.25.07,0,.11,0,.2.07.24,0-.08-.12-.16-.16-.33-.15-.51,0a.15.15,0,0,1-.23-.1c0-.4-.4-.34-.62-.49s-.48.08-.3-.3c0-.08-.17-.12-.19-.11-.44.23-.54-.3-.82-.37s-.31-.53-.64-.62a.2.2,0,0,1-.14-.22c0-.11.06-.17-.12-.08s0-.17-.14-.2-.47-.35-.79-.14c-.08.06-.23,0-.13-.18a.17.17,0,0,0,0-.22.09.09,0,0,0-.11,0c-.1,0-.06.13,0,.2s0,.11,0,.09a1.29,1.29,0,0,1-.33-.17c-.06,0,0-.09,0-.12l0,0c.1-.13.4-.21.32-.3a1.1,1.1,0,0,0-.74-.39c-.47-.05-1,0-1.34-.4a1.44,1.44,0,0,0-.77-.32c-.15,0-.25-.11-.39-.14a11.1,11.1,0,0,1-2.65-1.08.3.3,0,0,0-.21,0c-.11,0-.18,0-.09-.1s0-.25-.06-.33-.19,0-.27.08-.13.07-.19,0,0-.13.07-.15.07,0,0-.08-.06,0-.1,0-.16,0-.24-.07-.3-.35-.39,0a1.67,1.67,0,0,1-.66-.29c0-.16,0-.26-.14,0,0,0-.32-.06-.4-.19a.24.24,0,0,0-.3-.15,4.75,4.75,0,0,1-1.29-.2c-.16,0-.29-.18-.48-.18s-.14-.06,0-.15,0-.14-.09-.13-.14.1-.16,0a.11.11,0,0,1,.11-.15c.09,0,.14-.09.11-.1a1.27,1.27,0,0,0-.39-.12s0,.08,0,.12.09.11,0,.15-.09,0-.13,0-.2-.09-.28,0-.09-.11-.17-.06a1,1,0,0,1-.75-.11s-.1-.07-.09-.1.08,0,.13,0,.24.08.28,0-.13-.16-.22-.18c-.35,0-.21-.26-.18-.43s0-.19-.17-.18a.24.24,0,0,1-.25-.06c-.06-.06-.25-.07-.26,0,0,.29-.1.33-.29.07,0-.07-.13-.06-.2,0s-.12.07-.17.06c-.31-.06-.63-.29-.95,0,0,0-.1-.05-.1-.06.11-.27-.21-.25-.29-.4a.24.24,0,0,0-.35-.09.26.26,0,0,1-.29,0s-.29-.07-.32.13a.24.24,0,0,1-.22.25c-.15,0-.38,0-.42-.18s-.1-.06-.16-.07-.4,0-.59-.21a1.33,1.33,0,0,0-.61-.26.17.17,0,0,0-.14,0c0,.08,0,.1.08.13s.19,0,.13.12-.14,0-.2,0a1.44,1.44,0,0,0-.89-.19c-.19,0-.37-.07-.56-.09a1.15,1.15,0,0,0-.34.06c-.16,0-.35.12-.35-.17a.43.43,0,0,1,0,0s0,0,0,0c0,.46-.44.12-.59.3-.19-.16-.39.05-.59,0s-.3,0-.39-.13-.14.12-.25,0-.3.12-.25-.16c0-.12-.08,0-.12,0s-.3.41-.49,0c-.17.16-.35,0-.51,0s-.5.19-.77,0a1,1,0,0,0-.92,0A.24.24,0,0,1,70,3.4c-.25.08-.49-.06-.74,0s-.33,0-.48.08-.06,0-.07,0c-.12-.18-.11-.18-.33-.07-.05,0-.14,0-.22,0s0-.11,0-.07a.65.65,0,0,1-.72,0c-.08,0-.17.19-.33.1L67,3.27c0-.09-.11-.18,0-.28s.17-.05.1-.14-.14,0-.21,0-.15.1-.2,0c-.21-.28-.28,0-.38.08a.57.57,0,0,1-.78,0c-.06-.05-.17-.19-.18,0s-.18.22-.41.25S64.47,3,64.21,3a1.71,1.71,0,0,0-.45,0c-.09,0-.25,0-.25.1s.16.11.26.12a.55.55,0,0,0,.17,0c.1,0,.19-.11.27,0a.21.21,0,0,1,0,.08c-.11,0-.25.09-.31,0-.27-.16-.45,0-.61.14s-.22,0-.32,0a.14.14,0,0,1-.09-.17c0-.11.09,0,.14,0s.11,0,.12-.06a.25.25,0,0,0,0-.17c0-.06-.08,0-.13,0-.25,0-.55,0-.61.36a.34.34,0,0,1-.22,0c-.27-.33-.49.18-.76.05,0,0-.18.11-.2-.09s-.12-.05-.2,0c-.38.07-.77.1-1.14.18a3.86,3.86,0,0,1-.75.1c-.24,0-.46.17-.72.13-.09,0-.08,0-.12.09s-.27.19-.34.1-.43,0-.25-.27c0,0,0-.07,0-.07s-.11,0-.13.1c-.12.37-.17.33-.54.2s-.51-.34-.84-.13c-.08.05-.23,0-.37,0-.38.06-.7.35-1.11.28-.07,0-.15.06-.22,0s-.32-.09-.44,0a.47.47,0,0,1-.57.15,1.35,1.35,0,0,0-.91.19c-.11,0-.21.15-.31-.06s-.15-.07-.28,0a4.16,4.16,0,0,1-.86.46,6.62,6.62,0,0,0-1,.56c-.17.14-.33,0-.5.11s-.44.3-.71.19-.06.21-.21.14-.38.17-.59,0-.14,0-.21.08-.27.15-.45.17-.51,0-.68.22-.36.08-.53.15-.57.27-.86.36c-.68.24-1.39.42-2.07.69-.25.09-.46.27-.71.34s-.47,0-.63.17-.57,0-.84.11-.7.16-1,.33-.77,0-1.05.3-.92.33-1.28.67a.27.27,0,0,1-.31.08c-.14-.07-.23-.13-.21.11,0,0,0,0,0,.07-.27-.29-.19.08-.24.15-.34.37-.9.49-1.14.95-.28-.2-.34.39-.62.17,0,0,0,0,0,.07s0,.19-.12.15-.11-.13-.08-.23a.63.63,0,0,1,.16-.34c.1-.07.17-.16.08-.27s-.19,0-.27,0c-.43.25-.85.54-1.29.78a1.72,1.72,0,0,0-.83.64c-.06.11-.12.06-.18,0a.72.72,0,0,0-.48.06.2.2,0,0,0-.16.23c.05.11.11,0,.16,0s.15.06.14.13,0,.24-.19.22-.26,0-.27,0c0,.25-.38.38-.28.67-.37-.11-.73-.16-1,.27a.26.26,0,0,1-.21.11c-.35-.09-.36.12-.31.33s-.23.21-.23.38q-.18,0-.12.18c0,.08,0,.1-.07.15a7.39,7.39,0,0,1-1.35,1.1c-.31.14-.51.6-.95.4,0,0-.13-.05-.1,0,.07.25-.13.28-.27.37s-.35.15-.27.41c0,.08-.05.15-.15.14-.34,0-.52.13-.61.48s-.39.37-.54.59c0,.05-.1.07-.14.11s-.1.1-.16.06,0-.11,0-.15.11-.1.05-.16-.14,0-.15.06c-.1.21-.46.28-.35.64,0,.1-.22.3-.27.31-.37.1-.49.43-.68.68s-.33.59-.68.71a.14.14,0,0,0-.08.09c0,.26-.18.24-.37.19s-.16,0-.17.05,0,.1.13.07a.06.06,0,0,1,.1.06.09.09,0,0,1-.14.07c-.14-.11-.21,0-.23.1-.07.36-.16.43-.54.4,0,0-.05,0-.06,0-.14.47-.65.64-.84,1.07a.51.51,0,0,1-.22.18,2.14,2.14,0,0,0-.89.77c-.06.09-.09.23-.26.14s-.13,0-.09.12-.1.28-.19.27c-.44-.07-.56.25-.7.55,0,.07,0,.18-.13.22,0-.12-.13-.22-.06-.37s.27-.11.13-.25-.15.1-.24.13c-.35.12-.35.54-.62.72a0,0,0,0,0,0,.09c.17,0,.28.14.25.2a.48.48,0,0,1-.35.22,1.09,1.09,0,0,0-1,.88c0,.21,0,.18-.2.1a.36.36,0,0,0-.48.14c-.12.15-.25.28-.22.48-.05-.05-.07-.15-.17-.05.32.14-.59.08-.05.26.07,0,.06.15,0,.15-.21,0-.05.37-.3.36h0c.25.49-.54.31-.46.7,0,.05,0,.12-.12.12h-.21c.18.08,0,.28.08.36s.05.11,0,.13c-.26.13-.23.42-.34.63a1.68,1.68,0,0,1-.92.78c0,.1.07.14.09.22a2.92,2.92,0,0,1-.27.68c-.25.29-.31.69-.6,1a5.19,5.19,0,0,0-.51.75s0,.09,0,.11a1,1,0,0,0-.48.77c0,.22-.08.35-.29.43s-.15.18-.09.26.16,0,.19-.13.09-.09.11,0-.14.32-.15.5-.15.07-.24,0-.1-.06-.13,0c-.31.63-.9,1.11-.94,1.88a.47.47,0,0,1-.22.42c.23.16,0,.33,0,.5s-.32.26-.23.56-.17.45-.24.69L8.94,40a.16.16,0,0,1-.07.09c-.23.13-.22.35-.36.54s.05.26,0,.35a1.86,1.86,0,0,1-.38.3c-.14.11-.12.17,0,.24s.05.17-.07.22l-.2.09c-.15.24-.15.57-.41.75-.1.07,0,.18,0,.26a.55.55,0,0,1-.18.59s0,0,0,0c.16.47-.36.73-.36,1.15,0,0,0,.1,0,.1-.45,0-.31.32-.36.56s0,.26-.11.36,0,.1.07.14.28,0,.2.09,0,.44-.33.34c0,0-.11,0-.1,0,.06.26-.28.5,0,.76.06.07.06.09-.26.25-.09,0-.11,0,0,.13a1,1,0,0,1-.33,1s-.11,0-.08,0c.28.16,0,.16-.07.2s.15.23,0,.29-.17,0-.09.13.07.13.17.1.12,0,.06.08a1.14,1.14,0,0,0-.26.66A11.28,11.28,0,0,1,5,51.39a1.27,1.27,0,0,0-.09.77c0,.16-.19.12-.21.25l-.08.35c0,.19-.07.36-.28.13a.21.21,0,0,0-.17,0c-.07,0,0,.1,0,.16a4.4,4.4,0,0,1-.2,1.24,4.82,4.82,0,0,0-.26,1.42c0,.14-.1.35.16.38,0,0,0,.05,0,.07l0,0c-.42-.22-.26.22-.34.33-.2.31,0,.72-.19,1.05,0,0,0,.07,0,.08s.15-.1.17,0-.07.14-.13.19-.35.2,0,.3c0,0,0,.12,0,.18a1.87,1.87,0,0,0,.1.94.19.19,0,0,1,0,.11c-.38.16-.05.49-.17.74s.14.45.09.67c-.1.42,0,.91-.34,1.26a.06.06,0,0,0,0,.06c.15.31-.14.65,0,1a1.2,1.2,0,0,1,0,.65c0,.26.07.51.07.75s.26.39,0,.61c-.06.06,0,.29,0,.39-.21.33,0,.64,0,1s.32.58-.11.77c.07.09-.27.27.07.31,0,0,.1,0,.08,0-.13.39.08.73.11,1.1,0,.13-.25.37.1.42,0,0,0,.12-.07.13-.34,0-.18.3-.12.43s-.1.49.14.66c-.22.1,0,.17,0,.27.07.25-.17.14-.23.13-.23,0-.23,0-.11.19s0,.34.29.22c.1,0,0,.2.07.29a.27.27,0,0,1-.09,0l-.1,0c-.1,0-.23,0-.19.08s.2.1.32,0l.08,0a.31.31,0,0,1-.07.09l-.13.08h.14c.06,0,.11-.09.16,0s0,.09-.08.14.1.32,0,.51a1.12,1.12,0,0,0,0,.31c0,.12-.08.3.13.35-.17.07.38.29,0,.3a1.15,1.15,0,0,0,0,.33c.09.21,0,.45.15.65s-.09.1-.16.14-.16,0-.13.16.09.11.19.08.21,0,.23.11a.58.58,0,0,1,0,.37c-.08.11-.12,0-.14-.09s-.06-.13-.12-.1,0,.1,0,.16l.11.47c-.08,0-.15-.07-.22,0s0,.06,0,.08.16.18.24,0a2.68,2.68,0,0,1,.13,1.35,1.41,1.41,0,0,0,.33,1c.11-.08.14,0,.2.09s0,.16,0,.21c-.27.25-.19.52,0,.78,0,.06,0,.11,0,.17.14,0,.24.06.19.17s.13.3,0,.47.1,0,.15,0,0,.08,0,.11-.09.15,0,.18.07.08.06.17a1.15,1.15,0,0,0,.31.92c.26.15.08.2,0,.31a.25.25,0,0,0,0,.2,2,2,0,0,1,.23,1c.3,0-.08.39.2.44-.13.16,0,.3,0,.41A4.67,4.67,0,0,1,6,85.17a4.93,4.93,0,0,1,.15.91s0,0,0,0c-.15.24,0,.45.06.68a1.53,1.53,0,0,0,.14.21.4.4,0,0,1,.19.52c-.16.26.06.25.17.33l.11.09c0,.07-.09,0-.13,0s-.08,0-.05.09.06.17.18.17.14,0,.14.09-.08,0-.12.07,0,0-.06,0l.07,0a.3.3,0,0,1,.26.43c-.09.16,0,.25.07.35a6.43,6.43,0,0,1,1.19,2.08c.11.3-.09.59.07.89a3.12,3.12,0,0,1,.27.43c.13.32-.05.68.21,1,0,0,0,.14.1.13s0-.09,0-.15-.07-.13,0-.2.07.12.13.15a.48.48,0,0,1,.24.47c0,.21.2.24.29.36A16.12,16.12,0,0,1,10.84,96a3.71,3.71,0,0,1,.5,1.11c0,.19,0,.3.26.26.1,0,.18.23.17.36a.64.64,0,0,0,.38.7c.15.07.22.14.17.3a.11.11,0,0,0,0,.15,2.51,2.51,0,0,1,.84,1.11.81.81,0,0,0,.35.54,2.55,2.55,0,0,1,.6.88c.06.11.09.25.22.32s.09.18.08.26a.73.73,0,0,0,.49.87c.15.06-.13.26.09.31,0,.12,0,.07.09.08s.27,0,.13.19c0,0,0,.06,0,.07.46.1.64.47.83.84.06.1.18.28.23.29.45.06.45.49.64.76a1.34,1.34,0,0,0,.29.34c.11.09.18.12.08.28s.16.29.23.33c.27.13,0,.26,0,.31s.2-.21.31,0a.45.45,0,0,0,.32.31c.19.06,0,.12,0,.17a.32.32,0,0,1-.12.08c.06.06.11,0,.16,0,.27-.1.37,0,.53.33a1.9,1.9,0,0,0,.67.71.93.93,0,0,1,.19.22c.14.13.11.32.27.45s0,.22-.15.26c.1.37.48.52.71.75a7.23,7.23,0,0,1,.75.72s.05,0,.08,0c.33,0,.39.24.44.48,0,0,0,.16.06.18a3.93,3.93,0,0,1,1.06.89,5.72,5.72,0,0,0,.88.75c.12.1.2.17.1.32.07,0,0,.23.19.11s.27,0,.29.17a.31.31,0,0,0,.17.24,3.66,3.66,0,0,1,1.17,1,.11.11,0,0,0,.15,0c.07,0,.2,0,.2.05-.06.26.18.16.24.15.24,0,.23.26.43.29s.33.24.39.44,0,.13.1,0,.07-.09.08,0c.06.44.48.52.75.73a3.74,3.74,0,0,0,1,.67c.33.12.38.39.58.56a14.59,14.59,0,0,0,1.5,1c.34.23.71.44,1,.69l.54.43a1.49,1.49,0,0,0,.46.28,7,7,0,0,1,1.35.74c.5.34,1.06.54,1.58.83a3.47,3.47,0,0,1,.44.31c.14.12.35.13.51.25s.19,0,.21.11c.11.31.44.21.62.35s.45.08.68.13c.05,0,.09,0,.05.07-.36.17.19.3,0,.46.14.07.13-.08.19-.13s.07-.09.12-.06,0,.06,0,.11,0,.23,0,.25,0-.12.12-.14l0,0c0,.4.22-.17.31.06s.33.07.47.21.38.14.52.31.32-.08.39.15c-.1,0-.22.1,0,.17s.22,0,.28-.13a1.83,1.83,0,0,1,.73.32,1.29,1.29,0,0,0,.46.26,5.12,5.12,0,0,1,.67.19c.09,0,.4,0,.44.25.41-.14.58.31.85.35a2.75,2.75,0,0,1,.87.17c.48.26,1,.3,1.52.51s1,.17,1.45.56c.09.09.13-.11.25,0,.32.22.81,0,1.07.42.16.24.44.21.69.25a2.18,2.18,0,0,1,.9.17,1.2,1.2,0,0,0,.6-.05c.06,0,.14-.06.17,0,.2.35.51.13.76.14s.22.05.26.16c.12.28.35.29.59.19s.25-.13.38,0,.07,0,.1,0a8,8,0,0,1,1.19.11,1.32,1.32,0,0,1,.85.18.36.36,0,0,0,.41,0c.28-.15.52.08.79.09.49,0,1,.12,1.48.15a.75.75,0,0,1,.42.1c.15.11.35.05.52.05l.6,0c.29,0,.57.06.85.06l.23,0a5.52,5.52,0,0,0,1.22,0,.93.93,0,0,1,.4.07c.31.06.61-.06.92,0,.11,0,.24,0,.29.15s0,.08.09,0c.34-.26.68-.06,1,0a1.34,1.34,0,0,0,.78-.07.5.5,0,0,1,.61,0c0,.05.28,0,.42-.06s.49-.18.66.13a1.79,1.79,0,0,1,.6-.13,2.33,2.33,0,0,1,.95,0,.26.26,0,0,0,.15,0,3.18,3.18,0,0,1,1.32-.24,5.45,5.45,0,0,1,1.12-.11c.2,0,.36-.16.41-.14.22.09.39,0,.59,0a2,2,0,0,1,.26,0,7.23,7.23,0,0,0,1.31-.17l.8-.1a3.33,3.33,0,0,0,1-.22,1.87,1.87,0,0,1,.76-.15c.18,0,.45.07.63-.1s.1,0,.15,0l.06.06c0-.31.14-.19.29-.17s.29,0,.43,0l.06,0a11.7,11.7,0,0,1,1.63-.48,8.06,8.06,0,0,0,1.31-.31c.24-.1.5,0,.75-.15s.57-.15.83-.27.58,0,.8-.29a.27.27,0,0,1,.38.1s0,.07,0,0c0-.34.29-.24.45-.27a2.11,2.11,0,0,0,1-.32l.07,0c.17.57.14-.06.25-.06a7.18,7.18,0,0,0,.93-.25c.2,0,.5,0,.62-.31,0-.1.17,0,.25,0s.19.1.25-.1.27-.08.39-.08a4.66,4.66,0,0,0,1.89-.67,7.28,7.28,0,0,0,.93-.44c.41-.26.88-.34,1.29-.59a5.67,5.67,0,0,1,.74-.37c.19-.08.37-.29.6-.4a.68.68,0,0,1,.27-.07c.24,0,.54,0,.6-.37s.17,0,.27-.08c.35-.27.86-.34,1.11-.77a.12.12,0,0,1,.07,0c.34,0,.45-.32.71-.42s.64-.58,1.13-.52h0c-.09-.44.38-.33.52-.55a.18.18,0,0,1,.24-.07c.12.07.17,0,.21-.1a.51.51,0,0,1,.46-.28s.12,0,.15,0c.27-.29.69-.37.94-.63a2.7,2.7,0,0,1,.8-.56c.12-.06.29,0,.13-.23s0-.06.08-.07a2.27,2.27,0,0,0,.66-.33c.14-.15.31-.26.45-.39a4.7,4.7,0,0,1,.63-.43c.44-.28.74-.79,1.31-.88.08-.36.43-.44.67-.62s.29-.47.63-.33c0,0,0,0,0,0-.19-.28.19-.33.23-.35.44-.19.77-.56,1.21-.76.16-.07,0-.27.21-.34s.39-.42.6-.63.09-.11.17-.06h.08c-.13-.27.3-.23.27-.45s.1-.14.19-.17a.7.7,0,0,1,.7.26s0,.06.07,0,0-.06,0-.09.18-.37-.16-.37a.29.29,0,0,1,0-.22c.07-.1.13,0,.19.06s.11.17.19,0,0-.07-.11-.11,0-.2.07-.23.33-.17.39-.43.27-.31.29-.53a.13.13,0,0,1,.07,0c.25.16.25,0,.28-.19s.23-.3.36-.44.37-.52.61-.6.13-.18.16-.27.09-.08.15-.09.18,0,.08-.14,0-.35.24-.3.13,0,.11-.12a.47.47,0,0,1,.25-.47c.13-.08.21-.26.33-.39s.16-.3.37-.3.18-.11.23-.19a9.67,9.67,0,0,1,.73-1,3.42,3.42,0,0,1,.63-.69c.1-.07,0-.34.29-.21,0,0-.15-.1,0-.19a1,1,0,0,1,.58-.38c.08,0,.09,0,0-.08s0-.23.09-.35.45-.16.35-.51a5.06,5.06,0,0,1,.34-.47c.1-.14.08-.42.37-.38-.22-.23.29-.25.15-.46,0,0,0-.1,0-.1.27,0,.2-.15.21-.32s.15-.1.25-.06.12.06.13,0-.06-.06-.06-.11a.91.91,0,0,1,.19-.81.88.88,0,0,0,.31-.59c0-.09.16-.29.23-.44s0-.33.24-.19c0,0,.08-.11.07-.15-.05-.24.06-.3.28-.29,0,0,0,0,0-.06-.26-.21,0-.31.1-.45s.18-.39.43-.45-.12-.07,0-.22.36-.27.39-.53c0-.07.12,0,.18,0s.09.11.15,0,0-.12,0-.15-.09-.11,0-.13c.23-.12.22-.34.24-.54,0,0,0-.08.08-.07.35.12,0-.06,0-.09s0-.1,0-.09c.26.07.13-.37.38-.31,0-.11.28-.14.07-.29,0,0-.06-.11,0-.13.43-.07.24-.64.6-.78-.24-.21.29-.27.1-.47.2-.19.19-.48.32-.67s0-.26.09-.29.13-.28.27-.24.17,0,.14-.15-.06-.42.25-.42c0,0,.1,0,.1-.06s-.06-.06-.11,0-.15,0-.15-.06.09-.1.15-.11.28,0,.11-.24a.1.1,0,0,1,0-.14c.25-.2.24-.57.42-.74s0-.31.15-.41.18-.24.25-.4-.18-.29,0-.39.26-.5.37-.78.09-.3.2-.26h0s.21-.55.25-.74.25-.32.33-.45,0-.09-.07-.11-.19-.22-.06-.34.07-.46.37-.47a.27.27,0,0,1,.11-.44s0,0,0-.05c-.33-.28-.16-.43.12-.61a.39.39,0,0,0,.06-.42c-.13-.16,0-.24,0-.34s.13,0,.2.07.11.06.16,0l-.12-.08c-.19-.06-.23-.16-.06-.3s0-.43.3-.44c0,0,0-.07-.05-.11-.16-.23-.07-.4.14-.52s.14,0,0-.15,0-.49,0-.67.23-.28.35-.42l.06-.09c-.29-.32.1-.59.06-.88,0-.1,0-.07.09,0s.11,0,.06-.07-.2-.29.09-.34c.07,0,0-.08,0-.09-.27-.08-.3-.13,0-.14,0,0,.07-.06.11-.09a.33.33,0,0,0-.1-.06c-.13,0,0-.11,0-.19,0-.38.26-.64.34-1,0-.08.09-.1.17-.09s.14,0,0,0-.1-.19,0-.33,0-.34.21-.26h.05c0-.06,0-.06-.07-.07a.31.31,0,0,1-.11-.49c.14-.2.06-.44.17-.64s0-.31.14-.44-.1-.12-.08-.14c.2-.21,0-.36,0-.52,0,0,0-.08.08-.11s.32-.16,0-.19c0,0,0-.07,0-.08.11-.22,0-.52.23-.71,0,0,.1,0,.09-.06a3.39,3.39,0,0,1,0-.55c0-.14-.15-.26.07-.35,0,0,0,0,0-.06-.17-.41-.16-.4.06-.83.08-.15,0-.36,0-.5s-.12-.24,0-.53.07-.44.29-.55c.06,0,0,0,0-.09-.16-.25.05-.52,0-.78,0,0,.06-.1.12-.11s.14,0,.09-.08,0-.45-.29-.46c0,0-.05,0-.07-.08l.07,0c.34-.17.34-.27.12-.54s.08-.21.13-.31.13,0,.07-.08c-.38-.21.05-.54-.13-.78-.06-.08.07-.13.14-.16s.15,0,.07-.16,0-.4,0-.44,0-.2,0-.3a.65.65,0,0,1,.25-.57c.07,0,.14-.1,0-.16-.25-.14,0-.18.05-.26s.16-.08.22,0,.44.23.35.57c0,0,0,.08,0,.08.53.14.22.61.24.89a2.17,2.17,0,0,1-.1.91c-.09.22.21.48-.09.63,0,0,0,0,0,0,.23.2,0,.47.08.71,0,.05,0,.08,0,.11s.13.05.07.14-.11.06-.17,0-.11-.15-.15,0,0,.12.12.14a.58.58,0,0,1,.16,0c0,.09-.09.06-.14.08s-.09.14,0,.22.12,0,.15.09.23.29,0,.4c0,0-.37,0,0,.14a.07.07,0,0,1,0,.12.39.39,0,0,1-.08.1c.27.12,0,.32.06.47s.11.28-.14.29,0,.14,0,.19.09.31-.15.32c0,0-.09,0-.1,0s.06,0,.09.07.17.17.25.27.09.07,0,.1-.23.18-.16.39a1.52,1.52,0,0,1-.14,1.16s-.1.07-.06.11c.42.52.13,1.08,0,1.61,0,.17.24.31,0,.48s0,.4-.15.57-.15.22,0,.31,0,.08,0,.09h-.08a.44.44,0,0,1,0,.37c.22.12.07.24,0,.38s-.15.12-.13.15c.23.38-.23.63-.19,1a1.62,1.62,0,0,1-.12.8c-.21.42,0,.93-.25,1.28s0,.58-.34.68c0,0,0,.09,0,.15s0,.09.05.14c-.36.13,0,.45-.12.55s-.11.41-.2.6a.12.12,0,0,0,0,.17s.06.1,0,.1c-.46.13-.22.6-.38.83-.3.42-.21.9-.38,1.29s-.23.86-.41,1.27a12,12,0,0,1-.48,1.43c-.21.38-.23.82-.41,1.2-.29.59-.42,1.22-.72,1.79,0,0,0,0,0,0s-.45,0-.17.32c-.17.15-.07.44-.15.53s-.17.63-.53.7c-.06,0,0,.06,0,.1a3.46,3.46,0,0,1-.44,1.25,13.57,13.57,0,0,1-.82,1.56,6.68,6.68,0,0,1-.83,1.37,4.38,4.38,0,0,0-.57.89,7.66,7.66,0,0,1-1,1.56.59.59,0,0,0-.14.32c0,.1-.1.26-.16.25-.25-.07-.07.12-.11.16s0,.17,0,.15c-.3-.11-.18.19-.25.24-.26.18,0,.59-.38.73a2.87,2.87,0,0,0-.19.47,3.92,3.92,0,0,1-.89,1.35.49.49,0,0,0-.12.2c0,.42-.38.6-.59.86s-.24.56-.57.65c0,0,0,.11,0,.17s0,.1,0,.11c-.26,0-.37.17-.43.41a1.08,1.08,0,0,1-.41.48c-.3.23-.38.61-.7.81a1.09,1.09,0,0,0-.48.73s0,.06,0,.06c-.43-.08-.29.57-.67.55.07.18-.13.23-.18.35s-.13.21-.3.09,0-.07-.09,0,0,0,0,.06c.2.31-.16.41-.28.52A9.43,9.43,0,0,0,112,112c0,.06-.05.1-.12.12a.57.57,0,0,0-.41.4.35.35,0,0,1-.19.17,1.25,1.25,0,0,0-.62.56,1.47,1.47,0,0,1-.37.42c-.27.19-.44.48-.72.68s-.22.3-.33.44-.06.07-.1.08a.84.84,0,0,0-.43.42c0,.06-.1.15-.17.12-.24-.12-.33.17-.34.21,0,.23-.12.16-.22.11s-.31.08-.41.22a1.83,1.83,0,0,1-1,.85c-.2.06-.5,0-.57.37,0,.13-.25,0-.31.16s-.25.32-.27.52-.07.09-.13.12-.31.08-.37.29-.18.12-.27,0-.22-.08-.19.12c-.2,0-.17.44-.52.27-.18-.09-.24.19-.23.3s0,.21-.17.18-.43.09-.58.3a2.31,2.31,0,0,1-.86.72c-.23.12-.36.36-.62.43s-.59.44-.9.63-.52.14-.69.39c0,.06-.12,0-.17,0s-.07-.1-.12,0,0,.08,0,.11.1.11,0,.16-.12,0-.16-.09-.07-.12-.14-.07,0,.1,0,.15.08.12,0,.13c-.3.08-.53.3-.79.39s-.39.1-.57.18a1.4,1.4,0,0,0-.65.45c-.22.27-.54.66-1,.59-.14,0-.14.13-.24.13,0,.29-.24.3-.4.37a5,5,0,0,1-1.43.56.19.19,0,0,0-.11,0c0,.34-.34.32-.5.49s-.42.19-.57.38c-.29-.24-.38.18-.62.19s-.33,0-.48.11-.14,0-.15.12-.11.22-.19.2c-.36,0-.55.25-.84.35-.11,0-.43,0-.35.3l0,0c-.28-.29-.47.07-.7.11a.64.64,0,0,1-.15,0c-.13-.22-.31-.09-.47,0s-.19.1-.13.24,0,.13-.11.15-.13,0-.21,0a.27.27,0,0,0-.41.13c0,.17-.16.15-.27.17-.4.08-.82.11-1.23.17h0c-.15.21-.37.19-.6.23a7.33,7.33,0,0,0-.81.19,3.85,3.85,0,0,0-.77.36.47.47,0,0,1-.37.06c-.26-.14-.46,0-.71,0s-.43.07-.42.39c0,.16-.26.11-.36.1a1.57,1.57,0,0,0-.4.08,3.56,3.56,0,0,1-1.3.08,2.65,2.65,0,0,0-1.09.31.31.31,0,0,1-.36.14.76.76,0,0,0-.86.21.7.7,0,0,1-.65.13.78.78,0,0,0-.4.05c-.24.15-.3,0-.36-.13s0-.1-.07-.06,0,.06,0,.1,0,.22-.16.21-.56.27-.91.14c-.12,0-.32.15-.49.18a9.07,9.07,0,0,1-1,.06c-.24,0-.56-.06-.75.21,0,.08-.14,0-.23,0s-.34-.12-.43.13a.34.34,0,0,1-.37-.15s0-.12-.1-.09,0,.07,0,.1-.07.16-.12.17a2.34,2.34,0,0,1-.83.07c-.11,0-.25-.15-.33.08s-.12-.07-.22-.06a7.3,7.3,0,0,1-.94.1c-.23,0-.52.21-.68-.12,0,0,0,0-.07,0v.08c0,.19.1.38-.32.27a1.17,1.17,0,0,0-1.09,0c-.3-.2-.49.17-.76.12a1.28,1.28,0,0,0-.75,0c-.13.06-.13-.2-.3-.18s-.42.26-.56-.07c-.37.2-.81-.09-1.2.2-.19.15-.58,0-.87,0s-.45-.33-.65,0c-.38-.23-.76,0-1.14,0,0,0-.09-.07-.14,0-.3.17-.62-.1-.92,0a.14.14,0,0,1-.19-.08c-.05-.1-.1-.19-.21,0s-.22.24-.26,0c-.15,0-.28-.3-.46,0,0,0-.39,0-.51-.07a2.27,2.27,0,0,0-.92-.14,4.25,4.25,0,0,1-.6-.12c-.18-.06-.38-.31-.57,0,0,0-.26,0-.39,0a.67.67,0,0,0-.57,0c-.1.05-.3-.07-.46-.11a5.8,5.8,0,0,0-1.24-.09c-.22,0-.4-.18-.62-.1-.06-.41-.45-.25-.69-.36a.61.61,0,0,0-.7.11c-.07.07,0,.14-.13,0s-.43-.22-.67-.28a10.17,10.17,0,0,0-1.39-.3c-.49,0-.93-.29-1.41-.3a.52.52,0,0,1-.31-.09c-.12-.09-.21-.11-.28,0s-.07.12-.15.06,0-.09,0-.14.16-.19,0-.22a.58.58,0,0,0-.45,0,.45.45,0,0,1-.62-.15.46.46,0,0,0-.57-.13c-.26.18-.51,0-.73-.12s-.19-.21-.33,0-.16,0-.21-.07c-.28-.33-.71-.28-1.07-.4s-.6,0-.66-.4c0,0-.05,0-.05,0-.25.18-.28-.13-.43-.18a.1.1,0,0,0-.15.07c0,.24-.13.09-.22,0a.45.45,0,0,1-.05-.08c-.2.07-.27-.09-.38-.19l-.06-.07c-.27.27-.44,0-.63-.14s-.67-.06-.9-.36a.79.79,0,0,0-.66-.22c-.17,0-.3-.18-.41-.32a2.49,2.49,0,0,0-.69-.64c-.15-.09-.17-.07-.12.09s0,.2-.08.23-.13-.08-.16-.16a.11.11,0,0,0-.16-.06c-.07,0-.14,0-.14,0,0-.42-.46-.27-.65-.46s-.31,0-.37-.22-.06,0-.11,0c-.29.16-1.11,0-1.14-.24,0-.42-.33-.16-.45-.26s-.52-.21-.75-.41a3,3,0,0,0-.9-.45c-.16-.07-.44-.06-.35-.37,0,0,0,0,0-.07-.25.13-.36-.15-.46-.24-.43-.36-1.08-.31-1.42-.8-.07-.11-.29.11-.39-.1s-.18-.1-.11-.22,0-.15-.09-.18-.09,0-.13.09-.08.15-.16,0a2.89,2.89,0,0,0-1-.64,5.06,5.06,0,0,1-.88-.78,1.56,1.56,0,0,0-.65-.45c-.08,0-.06-.12-.11-.18s-.32-.51-.68-.29c0,0-.14.09-.18,0a1.58,1.58,0,0,0-.8-.88c-.33-.15-.51-.52-.92-.54s-.51-.37-.77-.56-.35-.36-.54-.51a9.09,9.09,0,0,1-1.49-1.35,4.25,4.25,0,0,0-.6-.49c-.21-.16-.37-.32-.32-.61s-.13,0-.21-.08-.12-.3-.32-.32-.28-.34-.27.07c0,.06-.09,0-.11,0-.13-.28-.44-.4-.55-.68a.78.78,0,0,0-.45-.41.74.74,0,0,1-.35-.4c-.08-.23-.06-.39-.21-.42a.93.93,0,0,1-.66-.66c-.15-.39-.63-.45-.73-.85,0-.1-.11,0-.15,0s-.22,0-.16-.13-.06-.09-.11-.08-.16,0-.17-.15h0a.48.48,0,0,1-.28-.26,1.59,1.59,0,0,0-.42-.56.75.75,0,0,1-.27-.55c0-.16-.14-.06-.22-.14a10.12,10.12,0,0,1-1.5-2c-.5-.13-.31-.81-.77-1-.1,0-.3-.2-.2-.4a.51.51,0,0,1-.27-.41,4.7,4.7,0,0,0-.76-.81c-.18-.15-.41-.26-.47-.53,0-.06-.06-.11,0-.15s-.05-.19-.06-.19c-.4.13-.35-.25-.49-.43s-.19-.76-.59-1c-.15-.09-.26-.43-.35-.67s-.06-.61-.51-.59c-.1,0-.24-.32-.35-.5-.3-.45-.56-.93-.84-1.4a6.19,6.19,0,0,1-.71-1.24,8,8,0,0,0-.77-1.48,8.3,8.3,0,0,0-.71-1.35,2.48,2.48,0,0,1-.27-1,.38.38,0,0,0-.1-.21,1.78,1.78,0,0,1-.49-1.25c0-.22-.09-.29-.25-.21s-.18,0-.19-.1-.42-.49-.06-.74c-.08-.09,0-.31-.21-.3S5.06,91,5,90.86a5.13,5.13,0,0,1-.39-1c-.2-.5-.4-1-.55-1.52A2.18,2.18,0,0,0,3.91,88c-.15-.33-.11-.69-.25-1-.07-.16-.24-.28-.22-.48s-.11-.17.06-.17,0-.07,0-.1c-.43-.42-.5-.54-.46-1.33a.67.67,0,0,0-.2-.4,2.12,2.12,0,0,1-.41-1,7.08,7.08,0,0,0-.36-1.07c-.11-.23,0-.57-.12-.83-.23-.53-.19-1.12-.38-1.64s-.07-.89-.19-1.34a1.62,1.62,0,0,1,0-1c0-.08,0-.21-.09-.31-.15-.38-.08-.79-.21-1.17-.06-.16,0-.31-.2-.44s0-.41,0-.62A20.91,20.91,0,0,1,.54,71.8c0-.36-.22-.71-.19-1.11a1.63,1.63,0,0,0,0-.7A2.78,2.78,0,0,1,.2,69a3,3,0,0,0,0-1c-.12-.42.07-.88,0-1.23a3.63,3.63,0,0,1,0-1.28c0-.22.14-.41.06-.63a.43.43,0,0,1,0,0c-.59-.21-.15-.7-.19-1A12.79,12.79,0,0,1,.2,61.48a4.24,4.24,0,0,1,.29-1.69.5.5,0,0,0,0-.27c-.16-.38.09-.77.05-1.08s.29-.73,0-1.13c-.12-.21.11-.5.17-.76a4.66,4.66,0,0,0,.16-1s0-.1,0-.11c.36-.13.18-.36.12-.58s-.08-.18.05-.27a1.18,1.18,0,0,0,.38-1,4.15,4.15,0,0,1,.17-1.33A7,7,0,0,1,2,50.82a2.56,2.56,0,0,0,.14-.93,3.61,3.61,0,0,1,.39-1.16c.11-.2.06-.51.33-.61-.09-.18,0-.37,0-.54a2.56,2.56,0,0,1,.26-1.19,5.79,5.79,0,0,1,.37-1.06,2.67,2.67,0,0,0,.36-1.24,1,1,0,0,1,.2-.55c.2-.27.11-.64.38-.85a.15.15,0,0,0,0-.1,1.06,1.06,0,0,1,.32-.79A1.74,1.74,0,0,0,5,41.32c.19-.58.4-1.14.63-1.7.42-1,1-2,1.41-3.06.2-.49.46-1,.63-1.46a16.79,16.79,0,0,1,.9-1.8c.17-.32.33-.66.51-.95s.12-.43.31-.6.25-.46.41-.65c.48-.53.55-1.29,1-1.81.16-.16.19-.42.42-.5l0,0c-.35-.31.14-.31.21-.4.32-.42.59-.88.92-1.31s.7-1,1.11-1.42a7.2,7.2,0,0,0,1-1.09c.07-.14.28-.27.42-.42s.09-.08.16,0a.47.47,0,0,0,.12.07l-.08-.11c.15-.11,0-.4.27-.44s.36-.32.56-.46a.05.05,0,0,0,0-.05c0-.34.14-.43.51-.32h.08c-.21-.14.19-.19.06-.35s-.08-.41.23-.43.44-.13.54-.53a.87.87,0,0,1,.43-.48c.5-.26.76-.75,1.15-1.11s1-.76,1.39-1.2c.15-.15.28-.39.55-.4.05,0,.13-.09.13-.13,0-.57.6-.54.84-.87s.58-.42.72-.77c0-.08.05-.05.1,0a.37.37,0,0,0,.48-.33c0-.13.11-.2.26-.28a2,2,0,0,0,.51-.44c.23-.31.59-.41.84-.66s.59-.5.89-.75a1,1,0,0,1,.66-.35s.08,0,.05,0c-.17-.22.09-.24.18-.29.52-.33,1-.74,1.47-1.08a5.89,5.89,0,0,0,.69-.51c.25-.25.6-.38.77-.69,0,0,0,0,0-.05.33.16.33-.3.58-.31s.49-.26.67-.51.5-.24.74-.41a3.44,3.44,0,0,1,1.1-.7l.09,0a3.14,3.14,0,0,1,1.24-.77c.74-.28,1.33-.81,2.08-1a6.74,6.74,0,0,0,.73-.4c.42-.2.89-.29,1.29-.5s1.13-.38,1.67-.66a3.83,3.83,0,0,1,.84-.21c.11,0,.24,0,.32-.12.11,0,.19-.43.34,0,0,.08,0-.14.16-.16.36,0,.62-.32,1-.37s.81-.38,1.26-.46c.27,0,.51-.29.8-.13h.06c.12-.28.45-.16.62-.33s.18-.06.28,0l0,0c.05-.28.39-.1.42-.19.08-.32.53-.18.61-.48,0,0,.1,0,.16.07l.14,0c.12-.32.48-.15.68-.31s.65-.1.95-.21a2,2,0,0,0,.68-.26c.06-.06.12-.15.25-.06s.13,0,.14-.08,0-.12.05-.09a2.08,2.08,0,0,0,1.09-.1.23.23,0,0,1,.25,0c.13.06.22.06.3-.09s.26,0,.38-.1.64-.1.8-.43l.07,0a.42.42,0,0,0,.45.06A9.4,9.4,0,0,1,54,1.43c.68-.16,1.39-.25,2.05-.45.21-.06.5.05.65-.19,0,0,.1,0,.13.08a1,1,0,0,1,.09.18l0-.17c.3.28.59-.23.89,0,0,0,0,0,.06,0,.16-.3.49-.2.72-.28s.69.06.91-.07c.38-.2.8.07,1.13-.2a.17.17,0,0,1,.12,0c.23.26.48,0,.64,0s.44-.13.6.07,0,0,.08,0a.48.48,0,0,1,.57-.08l0,0c.17-.45.46,0,.68-.08s.56.12.83,0a.12.12,0,0,1,.12,0c.11.31.23,0,.24,0,.25-.29.58-.09.86-.08a2.23,2.23,0,0,1,1,.08.11.11,0,0,0,.06,0c0-.36.17,0,.22,0s.27-.17.46-.06A1.93,1.93,0,0,0,68.1.08c.17-.06.35-.16.49.05,0,0,0,0,0,0,.29-.24.54.19.75.1s.72.14,1-.12c0,0,.25.1.4.15s.48-.1.54.2h.08c.18-.34.43-.09.65-.06,0,0,0,.06.06,0,.31-.23.27,0,.24.17a.24.24,0,0,0,0,.1s.08,0,.08-.06c0-.28.13-.28.36-.21s.37-.08.45.17a.11.11,0,0,0,.09.06c.06,0,0,0,0-.09-.08-.23.2-.18.22-.17.25.13.54,0,.79.13.07.05.33.09.29-.17A.07.07,0,0,1,74.8.33a.1.1,0,0,1,.06,0c0,.36.31.13.43.26s.51-.19.43.25c0,0,0,0,0,0,.16-.3.4,0,.58-.05A.73.73,0,0,1,77,.9c.21.11.41,0,.62,0s.62.14.94.14a2.11,2.11,0,0,1,1,.23s.22.06.22,0c0-.26.13-.08.2,0s.43,0,.64.12a1.66,1.66,0,0,0,.6.21,1.52,1.52,0,0,1,.83.22l0,0c0-.17.15-.18.19-.11s.18.22.08.35-.07.08,0,.12L82.4,2c.09-.1.15-.26.35-.09s.18,0,.27,0,.14-.09.17.05.2.26.38.12.11,0,.16,0,.24.21.42.21.1.15.11.24,0-.25.22-.22.21.15.35.2a1.25,1.25,0,0,0,.52.19,1,1,0,0,1,.56.17,1.07,1.07,0,0,0,1,.19.29.29,0,0,1,.24.09c.06.21.34.12.42.3s.09,0,.13,0,.07-.08.1-.07,0,.2.1.2,0-.18.16-.2h.06s0,.07-.05.09-.11.09-.07.15.12,0,.17,0,.18-.08.23,0c.07,0,.2.18.25,0a.21.21,0,0,1,.11,0c.1.25.43.32.52.57s.13.07.16,0,.12-.17.3-.09.56.37.91.27c.06,0,.07,0,.1.06a.77.77,0,0,0,.69.4c.08,0,.08.11.1.14.13.21.36.11.46.12.38,0,.53.39.86.46.1,0,.28,0,.23.22,0,0,.08,0,.1-.06s0-.09.06-.07c-.09.27.31.1.33.32s.32.18.35.16.24,0,.36.08.14.13.16.13c.21,0,.4,0,.19.28l.2.11s.06,0,0,0-.09-.22.06-.19.09.17.1.27c.1-.11.21-.06.34,0s.23.33.49.22c.07,0,0,.12,0,.2s0,.12,0,.16.09,0,.13,0,.19,0,.22.09.18.27.32.37a.46.46,0,0,0,.07.07c.14.06.18-.24.32-.08s-.11.2,0,.33.08.23.18.05.1,0,.17,0a6.37,6.37,0,0,1,1.1.65,7,7,0,0,1,.91.62c.15.15.44.18.6.39,0,0,.09,0,.11.12,0,.24.32.05.41.22.17-.13.22.28.4.1,0,.27.1.2.24.15-.08.28.49.21.35.54,0,0,0,0,0,0a.28.28,0,0,1,.38,0c.18.27.49.32.71.5a.81.81,0,0,0,.34.21c.21.07.2.32.38.43s.1.09.19.09.16,0,.17.19a.25.25,0,0,0,.28.16s.07-.08.09-.07c.18.06.1.21.14.32s.17-.27.25,0,.23.25.14.43c0,0,.07.11.11.07s.18-.06.22.09a.23.23,0,0,0,.12.09c.07,0,.07-.05.07-.1s0-.12.06-.12,0,.07,0,.11.12.38.39.26.28,0,.23.18c0,0,0,.12,0,.14.4.19.67.55,1,.77.13.07.2.36.43.17a1.15,1.15,0,0,0,.15.29c.23.3.62.48.71.88,0,.06.07.05.1.05a.52.52,0,0,1,.47.33c.17.3.52.42.8.6a.38.38,0,0,1,.15.16,3.29,3.29,0,0,0,.69.8c.22.2.54.43.61.61.16.34.46.25.65.44a.9.9,0,0,1,.14.22c.07.1,0,.32.24.16s.08.06.06.09c-.21.3.12.34.24.44s.18.11.23.26.21.17.31.27.4.23.36.51c0,.06,0,.07.07,0,.23-.09.45.11.44.41,0,.12,0,.12.1.12s.38,0,.29.26c0,.06,0,.1.09.11.26,0,.36.22.51.4a12.51,12.51,0,0,0,.92,1c.06.06.12.1.13.18s0,.14.1.12.06-.16.16-.07-.1.12-.09.13a.77.77,0,0,0,.26.3c.32.14.3.55.57.73.08,0,0,.39.23.11,0,0,.07,0,.1,0s-.19.3.12.19v.09c0,.07-.28.25.08.18,0,.16.12.23.24.29s.42.1.32.4c.38,0,.33.53.65.62.07,0,0,.07,0,.12s-.11.1-.07.2l.15-.09c.06,0,.13,0,.12,0-.06.46.37.64.59.9s.07.45.34.48a.54.54,0,0,1,0,.08.4.4,0,0,1-.11,0c-.09,0-.18-.09-.26,0a.91.91,0,0,0,.25.11c.39,0,.44.39.6.63,0,.06,0,.17.12.09s.16.05.17.13.18.36.21.45c.07.31.57.45.35.84.21,0,.24.28.4.4s.31.06.13.26c0,0,0,.07.09.09.21.14.38.29.09.48a.44.44,0,0,0-.08.1s.07,0,.09,0,.18-.14.27-.09-.08.17,0,.2c.25.12.22.46.45.59h0c.21.12,0,.23,0,.34s.28,0,.18.23c0,0,0,.05,0,.08.43-.16.11.23.21.28s0,.39.19.13c0,0,.07,0,.1,0s0,.06,0,.09c-.17.21-.09.31.15.34.06,0,.13,0,.16.08s-.07.1-.11.14-.09.1-.07.12.07,0,.1,0,.13,0,.1.06c-.13.23.08.26.19.35s.18.12,0,.17c.1.1.19.21.29.3s.17-.1.2,0-.07.18-.12.27a.3.3,0,0,1-.1,0c0,.07.1,0,.13,0s.33-.13.16.16a.18.18,0,0,0,0,.16c.26.13.22.25,0,.37,0,0,0,.08,0,.11s.09,0,.12,0,.13-.07.21,0c-.09.09.16.24,0,.31l-.08.07.11,0h.06c-.07.19.35.34.08.55l-.07.06h.12a.6.6,0,0,1,.32,0c-.13.19.24.34.05.55,0,0,.09.24.14.31a6.53,6.53,0,0,1,.52,1c.14.33.11.75.49,1-.23.25.3.41.1.65s0,.11.06.1c.22,0,.25.15.24.29s0,.28.16.28c0,0,.08,0,0,0-.39.26.14.34.13.56,0,.53.39,1,.49,1.47a14.2,14.2,0,0,0,.55,1.71,11.22,11.22,0,0,0,.43,1.23,1.42,1.42,0,0,1,.22.88c-.17.48.36.69.29,1.09,0,.11.25.26,0,.38.15.09.08.26.14.36s.22.2,0,.27c.05.11.2,0,.23.21s.2.52.24.79.28.5.09.78c.3.14,0,.45.2.66a4.82,4.82,0,0,1,.21.56.43.43,0,0,0-.08.21c0,.23-.06.39.23.35,0,.2.17.36.11.55s0,.31.18.39.24,0,.25.2c-.18,0-.14.33-.36.27a.18.18,0,0,0-.11,0c0,.1.08.06.08.08,0,.33.38.47.36.79s.09.55-.24.63c0,0,0,.06-.05.08s0,.08.06.08c.44,0,.37.24.41.79h0s.26.06,0,.18c.09.07-.16.15.1.18s.09.21.1.31,0,.37.22.38c0,0,0,0,.06,0-.31,0,0,.38-.18.49,0,0,0,.23.06.23.36.1.22.47.32.7s0,.38.24.46c0,0,.1,0,.05.09-.33.25-.09.59-.12.88-.06.45.1.9.08,1.36,0,.15.08.39-.18.42.18.25-.07.39-.12.58s.27-.13.19.17c0,.11.07.25-.08.33.08.09-.18.3.09.33.06,0,.08.07,0,.08s-.08.22-.14.32-.17.1-.18.16.15,0,.16.07-.06.23-.13.24-.12.25-.12.26C131.59,65.6,131.17,65.8,131.41,66ZM128.09,80.9a.14.14,0,0,0,.17-.09.12.12,0,0,0-.07-.15c-.18-.07,0,.2-.14.17S128.06,80.9,128.09,80.9Zm-3.79,8c.09.06.14,0,.2-.07s.12-.31-.12-.34c0,.08,0,.16,0,.24S124.2,88.84,124.3,88.91ZM123.69,91a.32.32,0,0,0,.08-.07c0-.06,0-.07-.06-.07a.11.11,0,0,0-.1,0S123.58,91,123.69,91Zm-4.26,7.89s.09.06.11,0-.1-.17-.17-.25-.09-.07-.11,0S119.31,98.81,119.43,98.89Zm-1.1,1.53s.09,0,.1,0,0-.09-.05-.12l-.1,0Zm-.92,1.65c0,.05.11.07.15,0a.11.11,0,0,0,0-.16.11.11,0,0,0-.15,0C117.33,102,117.37,102,117.41,102.07Zm-1,4a.1.1,0,0,0,.13,0,.06.06,0,0,0,0-.1c-.05,0-.09-.1-.16-.06S116.39,106,116.42,106Zm-4.34,3.29s.06,0,.08,0,0-.16,0-.22a.06.06,0,0,0-.1,0C111.92,109.2,112.12,109.23,112.08,109.33ZM109.26,112l.19,0c0-.06,0-.07,0-.09s-.13-.08-.17-.07S109.22,112,109.26,112Zm-2,2.17s.08,0,.1,0a.17.17,0,0,0,0-.14s-.06,0-.1,0S107.26,114.13,107.31,114.18Zm-2.55,1.71a.61.61,0,0,0,.06-.29c0-.06-.08,0-.15,0s0,.15,0,.24S104.74,115.94,104.76,115.89Zm-5.84,3.94a.2.2,0,0,0,.2,0s0-.05,0-.09a.16.16,0,0,0-.2,0S98.91,119.81,98.92,119.83Zm-27,11.11s.07,0,.11,0,.12,0,.12-.08,0,0-.08,0S71.94,130.86,71.93,130.94Zm-6.48-1.5s0,.09,0,.09a.11.11,0,0,0,.1-.11c0-.07,0-.1-.07-.09A.1.1,0,0,0,65.45,129.44Zm-2.36.92a.11.11,0,0,0,.07.14c.05,0,.08,0,.09-.05a.13.13,0,0,0-.09-.14S63.1,130.35,63.09,130.36ZM46.53,128.3l0,.15a1.24,1.24,0,0,0,.14-.18.15.15,0,0,0,0-.1C46.53,128.18,46.56,128.26,46.53,128.3Zm-23-15.05c.07.11.17,0,.26,0s0-.21-.14-.14A.44.44,0,0,0,23.58,113.25Zm-3.87-.38a.2.2,0,0,0,.06.16s.08.06.11,0,0-.11-.06-.16A.07.07,0,0,0,19.71,112.87Zm-.21-3.79s-.05,0,0,.07.18,0,.28,0C19.69,109.1,19.61,109,19.5,109.08Zm-2.07,1.23a2,2,0,0,1-.13.18.24.24,0,0,0,.23,0c0-.06.22.09.18-.07a.42.42,0,0,0-.22-.25C17.36,110.1,17.45,110.25,17.43,110.31ZM4.08,79s0,.11,0,.15.15.12.15,0C4.18,79.09,4.17,78.93,4.08,79Zm.09-1.13c-.06,0-.19.07-.11.19s.14.06.16,0S4.2,77.91,4.17,77.84ZM1.56,60.14s-.09,0-.05,0a1,1,0,0,0,.22.2s.06,0,.05,0A.28.28,0,0,0,1.56,60.14Zm2.68-8.66c-.09,0-.11,0-.09,0,.11.28-.06.61.16.86,0,0-.07.1,0,.11s.06-.06.07-.09,0-.23,0-.36A.35.35,0,0,0,4.24,51.48ZM9.42,33.59a.22.22,0,0,0,0,.14s.09,0,.11,0,0-.09,0-.15S9.43,33.52,9.42,33.59ZM37.33,9.07,37.26,9a1.47,1.47,0,0,0,0,.21s.05,0,.06,0S37.37,9.14,37.33,9.07Zm.81-.1c-.08-.09-.16-.29-.31-.2s-.39.07-.28.26.3.09.47.06S38.22,9.06,38.14,9Zm.26-.26c0-.05-.06-.12-.14-.08s0,.11,0,.16.06.11.14.06S38.45,8.77,38.4,8.71ZM62.33,3.22c0-.07,0-.19-.14-.2s-.08.06-.06.1,0,.2.12.22S62.34,3.29,62.33,3.22Zm6-.3s0-.07-.06-.07-.1,0-.09.09a.09.09,0,0,0,0,.07A.1.1,0,0,0,68.31,2.92ZM73.16.86s0-.13,0-.16S73,.75,73,.8s0,.15.08.17S73.15.91,73.16.86Zm5.6,3c0-.1,0-.13-.1-.13s-.14-.05-.1,0,0,.14.08.16S78.73,3.89,78.76,3.87ZM84.4,5s0-.06,0-.07-.31-.24-.23-.47c0,0,0,0,0,0-.12.34-.41.16-.63.17,0,0-.14-.1-.15,0s0,.21.15.2a1.19,1.19,0,0,1,.61.22A.23.23,0,0,0,84.4,5Zm1.27,0c0-.08-.09-.06-.12-.09a1.23,1.23,0,0,0-.54-.2c-.1,0-.21-.09-.29,0s0,.1,0,.15a1.24,1.24,0,0,0,.78.24A.16.16,0,0,0,85.67,5Zm9.7,2.15c.2-.33-.16-.29-.29-.4s0,.07,0,.08.42.1.26.37C95.33,7.21,95.36,7.2,95.37,7.18Zm8.77,6.09c.11-.1.13-.17.08-.24s-.06,0-.08,0a.24.24,0,0,0,0,.2S104.14,13.27,104.14,13.27ZM117,28.46s0-.06,0-.08-.11,0-.17,0-.07,0,0,.09A.12.12,0,0,0,117,28.46ZM119.9,34c0-.09.15-.07.13-.19a.16.16,0,0,0-.1,0,.2.2,0,0,0-.12.19C119.81,34.06,119.85,34.06,119.9,34Zm7.52,19.21a.16.16,0,0,0-.08-.22s-.09,0-.09,0S127.36,53.17,127.42,53.23Zm.08.75a.15.15,0,0,0,.07-.19c-.06-.18,0-.4-.15-.55s-.27.24-.22.26c.21.07.14.22.16.36S127.41,54,127.5,54Zm1.57,2.76s.08,0,.05-.09-.06-.14-.16,0-.09,0,0,.08S129,56.73,129.07,56.74Zm1.63.34c.12,0,.15-.11.22-.18-.09,0-.2,0-.26.08S130.66,57.08,130.7,57.08Z"/><polygon points="128.55 54.86 128.55 54.86 128.54 54.86 128.55 54.86"/><polygon points="33.84 17.11 33.83 17.11 33.84 17.12 33.84 17.11"/><polygon points="133.46 69.88 133.46 69.88 133.47 69.89 133.46 69.88"/><polygon points="17.95 31.05 17.94 31.04 17.94 31.05 17.95 31.05"/><path d="M133.69,69.85l-.23,0-.08-.31c0-.15-.08-.18-.2-.08s-.3.06-.3-.16-.1-.17-.22-.16-.33.06-.27-.26c0-.12.09-.35-.08-.48,0,0,0-.07,0-.08.34-.33-.13-.32-.2-.46s-.24-.34-.23-.6c0-.08,0-.28-.22-.23s-.3-.16-.25-.36.06-.31-.15-.42-.07-.27,0-.39-.17-.49-.1-.75c0,0,0-.06-.09,0-.25.07-.32,0-.34-.24,0-.09,0-.16-.11-.19s-.14-.11-.1-.25a1,1,0,0,0,0-.48c0-.13,0-.25-.19-.22,0,0,0-.09,0-.12s0-.24,0-.24c-.35-.32-.28-.8-.45-1.18-.06-.14,0-.34-.19-.48v0c.31-.17,0-.45.09-.65s0-.18-.05-.25-.18-.21,0-.36-.12-.29,0-.45c-.39,0-.17-.36-.21-.51-.12-.44-.27-.87-.41-1.3s.08-.56.08-.85c0-.09.15-.3-.15-.21-.09,0-.17-.12-.13-.2.14-.25.13-.58.4-.75,0,0,.1-.11.05-.11-.33,0-.11-.2-.08-.31s-.09-.13-.13-.18-.08,0-.1.08,0,.15-.1.15-.15-.16-.22-.24-.06-.12,0-.19a1.2,1.2,0,0,0,.17-.21.26.26,0,0,0-.05-.34c-.1-.12-.16.1-.26.08l0-.08c.29-.14.16-.38.13-.59a.39.39,0,0,0-.31-.29c-.09,0-.19,0-.24-.11s-.13-.14,0-.22.15,0,.19.08.08.15.19.13.23,0,.1-.18-.27-.6-.48-.85c0,0-.05,0-.05-.07,0-.28-.1-.26-.19-.55s-.48-.73-.5-1.23a2.22,2.22,0,0,0-.27-.89,2.3,2.3,0,0,1-.21-.49,1.49,1.49,0,0,0-.23-.7c0-.1-.12-.18,0-.34s-.26-.42-.08-.66c-.38,0-.31-.29-.27-.51s-.25-.12-.29-.33c-.09-.37-.26-.73-.38-1.1a4.86,4.86,0,0,0-.46-1.14c-.13-.21-.06-.47-.19-.68,0,0,0-.08-.06-.11a2,2,0,0,1-.58-.82c-.16-.33-.44-.72-.38-1s-.13-.35-.23-.51a7.17,7.17,0,0,1-.69-1.42,1.87,1.87,0,0,0-.37-.56c-.19-.25-.22-.59-.47-.8a0,0,0,0,1,0,0c.11-.48-.31-.67-.53-1-.08-.11-.3-.25,0-.39,0,0,0,0,0-.06h-.09c-.19,0-.25-.09-.31-.25a9.79,9.79,0,0,0-.82-1.77,4.57,4.57,0,0,0-.54-.69s0,0,0-.07c0-.47-.4-.69-.68-1,0,0-.14-.13-.13-.16.14-.41-.3-.52-.39-.77s-.23,0-.26-.16-.12,0-.09-.1.09-.06.15-.06c.24,0,.13-.24.11-.33s-.17-.11-.28-.07-.06.06-.08.11.1.27-.06.21-.28-.25-.21-.4c.16-.32-.13-.49-.23-.71,0-.05-.11-.09-.08-.17s-.08-.19-.19-.25-.43,0-.42-.33c0-.06,0-.09-.06-.07-.36.15-.44-.3-.7-.35.08-.4-.35-.48-.46-.7s-.09-.25-.3-.17-.11-.05-.07-.12,0-.19,0-.17c-.25.06-.35-.19-.53-.25s-.25-.32-.45-.42c0,0-.11-.14-.2-.16a.69.69,0,0,1-.43-.44c-.06-.41-.48-.45-.64-.74-.27-.46-.8-.64-1.09-1.14a2,2,0,0,0-.83-.71c-.07,0-.08-.06,0-.11s.12-.07,0-.09a.87.87,0,0,1-.64-.7c0-.1-.24-.19-.36-.27a2.15,2.15,0,0,1-.91-1.15c0-.05,0-.15-.1-.13-.44.09-.66-.28-.9-.5a14.12,14.12,0,0,0-1.07-.94c-.39-.28-.74-.62-1.11-.94.13-.3-.3-.33-.3-.6,0-.1-.24-.1-.31-.23s-.2,0-.29,0-.14.08-.21-.07a.71.71,0,0,0-.46-.45c-.36-.09-.59-.42-.87-.65s-.43-.1-.52-.35c0,0-.11,0-.08-.09s.09-.11,0-.15-.09.05-.13.09-.12.09-.19,0-.19-.16-.22-.25.07,0,.11,0,.2.07.24,0-.08-.13-.16-.17a.47.47,0,0,0-.51,0,.15.15,0,0,1-.23-.09c0-.4-.4-.35-.61-.5s-.49.08-.31-.3c0-.08-.17-.12-.19-.11-.44.23-.54-.3-.82-.37s-.3-.53-.64-.62a.2.2,0,0,1-.14-.22c0-.1.06-.16-.12-.08s0-.17-.14-.2-.47-.34-.78-.13c-.09,0-.24,0-.14-.19a.17.17,0,0,0,0-.22.14.14,0,0,0-.12,0c-.1,0-.06.13,0,.21s0,.1,0,.08a1.29,1.29,0,0,1-.33-.17c-.06,0,0-.09,0-.12l0,0c.1-.12.4-.21.33-.3a1.12,1.12,0,0,0-.75-.39c-.47-.05-1,0-1.34-.4a1.49,1.49,0,0,0-.77-.32c-.14,0-.25-.11-.38-.14A11,11,0,0,1,92,11.56a.3.3,0,0,0-.21,0c-.11,0-.17,0-.09-.1s0-.25-.06-.33-.19,0-.27.08-.13.07-.19,0,0-.13.07-.14.07,0,0-.09-.06-.05-.1,0-.15,0-.23-.06-.31-.36-.39,0a1.78,1.78,0,0,1-.67-.29c0-.16,0-.26-.14,0,0,0-.31-.06-.39-.19a.26.26,0,0,0-.31-.15,4.75,4.75,0,0,1-1.29-.2c-.15,0-.29-.17-.48-.18s-.14,0,0-.15,0-.13-.09-.13-.14.1-.16,0a.12.12,0,0,1,.12-.15c.08,0,.13-.09.11-.1a1.94,1.94,0,0,0-.39-.12c-.05,0-.06.08,0,.13s.09.1,0,.14-.09,0-.13,0-.2-.09-.28,0-.09-.11-.17-.06c-.27.12-.5,0-.74-.1,0,0-.1-.08-.1-.11s.08,0,.14,0,.23.07.27,0-.13-.16-.22-.17c-.35-.05-.21-.27-.18-.44s0-.19-.17-.18A.24.24,0,0,1,85,8.21c-.06-.05-.25-.06-.26,0,0,.3-.1.33-.28.07a.18.18,0,0,0-.21,0s-.11.07-.16.06c-.32-.06-.64-.28-1,0,0,0-.1-.05-.09-.06.1-.27-.22-.25-.3-.4a.24.24,0,0,0-.34-.09.27.27,0,0,1-.3,0c-.05,0-.29-.08-.31.13a.26.26,0,0,1-.22.24c-.16,0-.38-.05-.43-.18s-.1-.06-.15-.06c-.22,0-.41,0-.59-.22a1.38,1.38,0,0,0-.62-.26.19.19,0,0,0-.14,0c0,.08,0,.1.09.13s.18,0,.13.13-.14,0-.2,0a1.41,1.41,0,0,0-.9-.18c-.18,0-.36-.08-.56-.1a1.15,1.15,0,0,0-.34.06c-.16,0-.35.13-.35-.16,0,0,0,0,0-.06s0,0,0,0c0,.46-.44.12-.59.31-.19-.17-.38,0-.58,0s-.3,0-.4-.13-.14.12-.25,0-.29.12-.25-.16c0-.12-.08,0-.12,0s-.29.41-.49,0c-.17.15-.35,0-.51,0s-.5.19-.77,0a1,1,0,0,0-.91,0,.25.25,0,0,1-.35-.17c-.25.08-.49-.06-.74,0s-.33,0-.48.09l-.07,0c-.11-.18-.11-.18-.32-.07-.06,0-.15,0-.23,0s0-.11,0-.07a.63.63,0,0,1-.71,0c-.09,0-.18.19-.34.1l-.1-.12c0-.09-.11-.18,0-.28s.17,0,.1-.14-.14,0-.21,0-.15.1-.2,0c-.21-.28-.28,0-.38.09a.57.57,0,0,1-.77,0c-.06,0-.17-.19-.19,0s-.18.22-.4.25-.43-.23-.68-.26a1.44,1.44,0,0,0-.46,0c-.08,0-.25,0-.25.1S66,7,66.05,7a.55.55,0,0,0,.17,0c.1,0,.2-.11.28,0s0,.08,0,.08-.24.09-.31.05c-.26-.17-.44,0-.61.13s-.21,0-.31,0a.14.14,0,0,1-.1-.17c0-.11.09,0,.14,0a.1.1,0,0,0,.13,0,.36.36,0,0,0,0-.18c0-.06-.09,0-.14,0-.25,0-.55,0-.61.36,0,0-.2.08-.22,0-.27-.33-.49.18-.76,0,0,0-.17.11-.2-.09s-.12,0-.2,0c-.38.06-.77.09-1.14.18a4.67,4.67,0,0,1-.74.09c-.25,0-.47.17-.73.13-.08,0-.08,0-.12.09s-.27.19-.33.1-.44,0-.25-.26c0,0,0-.08,0-.08a.13.13,0,0,0-.13.11c-.12.36-.16.32-.53.2s-.51-.35-.85-.14c-.08,0-.23,0-.37,0-.38,0-.7.34-1.1.27-.08,0-.16.07-.23,0s-.31-.1-.44,0a.46.46,0,0,1-.56.15,1.38,1.38,0,0,0-.92.19c-.1,0-.21.15-.3-.06s-.16-.07-.29,0a4.73,4.73,0,0,1-.86.47,5.78,5.78,0,0,0-1,.55c-.17.14-.33,0-.5.11s-.44.3-.71.2-.06.2-.21.14-.38.16-.59,0a.16.16,0,0,0-.2.08c-.11.14-.27.15-.46.17s-.5,0-.67.22-.37.08-.54.15-.56.27-.86.37c-.68.23-1.39.41-2.07.68-.24.09-.46.27-.71.34s-.47,0-.63.18-.57,0-.83.11-.7.15-1,.32-.77,0-1,.3-.92.33-1.28.67a.29.29,0,0,1-.31.09c-.14-.08-.23-.14-.21.1,0,0,0,.05,0,.07-.28-.29-.2.09-.25.15-.34.37-.9.49-1.14,1-.28-.21-.33.38-.61.16,0,0,0,0-.05.07s0,.19-.11.15-.12-.13-.09-.23,0-.25.16-.33.18-.17.09-.28-.2,0-.28,0c-.43.26-.85.54-1.29.78s-.66.31-.83.65c-.06.1-.12.05-.18,0a.79.79,0,0,0-.48.06c-.11,0-.18.15-.15.23s.1,0,.15,0,.15.06.15.13,0,.24-.19.23-.27-.05-.28,0c0,.24-.38.37-.28.66-.37-.11-.73-.16-1,.27a.26.26,0,0,1-.21.11c-.35-.09-.36.12-.3.34s-.24.2-.23.38c-.13,0-.17.06-.13.18s0,.1-.07.14a7.52,7.52,0,0,1-1.35,1.11c-.31.13-.51.59-.95.39,0,0-.12-.05-.1,0s-.13.27-.27.36-.35.16-.27.41c0,.08,0,.15-.15.14-.34,0-.51.14-.61.48s-.38.37-.54.59c0,.05-.09.07-.14.11s-.1.1-.15.06,0-.1,0-.15.11-.1,0-.15-.14,0-.15.05c-.1.22-.45.29-.35.64,0,.1-.22.31-.27.32-.37.09-.49.42-.68.67s-.32.59-.68.71a.13.13,0,0,0-.07.09c0,.27-.19.24-.37.19s-.16,0-.18,0,.05.1.13.07.11,0,.1.07a.09.09,0,0,1-.13.07c-.15-.12-.22,0-.24.09-.07.36-.15.43-.53.4,0,0-.06,0-.07,0-.14.47-.64.65-.84,1.07a.51.51,0,0,1-.22.18,2.2,2.2,0,0,0-.89.77c-.06.09-.09.23-.26.14s-.13,0-.09.12-.09.28-.19.27c-.43-.07-.56.25-.7.55,0,.08,0,.18-.12.22,0-.12-.13-.22-.07-.37s.27-.11.13-.25-.15.11-.24.14c-.34.11-.35.53-.62.71,0,0,0,.1,0,.09s.28.14.25.2a.48.48,0,0,1-.34.22,1.12,1.12,0,0,0-1,.88c0,.21,0,.19-.2.1a.36.36,0,0,0-.48.14c-.11.15-.25.28-.22.48,0,0-.07-.15-.17-.05.33.14-.58.08-.05.26.07,0,.06.15,0,.15-.21,0-.05.37-.3.36h0c.25.5-.54.31-.46.7,0,0-.05.12-.12.12h-.2c.17.09,0,.28.08.36s0,.11,0,.13c-.25.13-.22.42-.34.63a1.64,1.64,0,0,1-.92.78c0,.1.07.14.09.22a2.4,2.4,0,0,1-.26.68c-.26.3-.32.69-.61,1a5.19,5.19,0,0,0-.51.75s0,.09,0,.11a1,1,0,0,0-.48.77c0,.22-.07.36-.28.44a.18.18,0,0,0-.1.25c0,.05.16,0,.19-.13s.09-.09.12,0-.15.31-.16.49-.15.07-.24,0-.09-.06-.13,0c-.3.62-.9,1.11-.94,1.87a.47.47,0,0,1-.22.42c.24.17,0,.34,0,.5s-.32.26-.23.56-.16.45-.24.69l-.21.73a.13.13,0,0,1-.07.09c-.23.13-.21.36-.35.54s0,.26,0,.35a1.8,1.8,0,0,1-.37.3c-.15.11-.13.18,0,.24s.05.17-.06.22l-.2.1c-.16.24-.16.56-.42.75-.09.06,0,.17,0,.26a.55.55,0,0,1-.17.58.07.07,0,0,0,0,.05c.17.47-.35.73-.35,1.15,0,0,0,.1,0,.1-.45,0-.31.32-.36.56s0,.26-.11.37,0,.09.07.13.29,0,.21.1-.05.43-.34.33c0,0-.11,0-.1,0,.07.26-.28.5,0,.76,0,.07,0,.09-.26.25-.1,0-.11,0-.06.13a1,1,0,0,1-.33,1s-.11,0-.08,0c.28.16,0,.16-.07.2s.15.23.05.29-.17,0-.09.13.07.14.17.1.12,0,.06.08a1.25,1.25,0,0,0-.26.66,11.28,11.28,0,0,1-.28,1.52,1.28,1.28,0,0,0-.09.77c0,.17-.18.12-.21.25l-.08.36c0,.18-.07.35-.28.12a.21.21,0,0,0-.17,0c-.06,0,0,.11,0,.16a4.13,4.13,0,0,1-.2,1.25,4.75,4.75,0,0,0-.26,1.41c0,.14-.1.35.16.38,0,0,0,.05,0,.08l0,0c-.42-.22-.26.22-.33.34-.2.3,0,.71-.2,1,0,0,0,.07,0,.08s.15-.1.17,0-.06.14-.13.19-.35.2,0,.3c0,0,0,.12,0,.19a2.09,2.09,0,0,0,.1.93s0,.1,0,.11c-.38.16,0,.5-.17.74s.14.45.09.67c-.1.42,0,.91-.34,1.26,0,0,0,.05,0,.06.15.32-.13.65,0,1a1.31,1.31,0,0,1,0,.65c0,.26.08.51.08.75s.25.39,0,.61c-.07.06,0,.29,0,.39-.21.33,0,.64,0,1s.33.58-.11.77c.07.09-.26.27.07.31,0,0,.1,0,.08.06-.13.38.09.72.11,1.09,0,.13-.24.37.1.42,0,0,0,.12-.06.13-.35,0-.19.31-.13.43s-.1.49.15.66c-.23.11,0,.17,0,.28s-.16.13-.23.13c-.23,0-.23,0-.1.18s0,.34.29.23c.09,0,0,.19.07.28s-.07,0-.09,0a.21.21,0,0,1-.11,0c-.09,0-.23,0-.18.09s.2.1.32,0l.07,0a.31.31,0,0,1-.07.09l-.13.08h.15c.05,0,.11-.09.15,0s0,.09-.08.13.11.32,0,.51a1.06,1.06,0,0,0,0,.31c0,.13-.08.3.14.36-.18.06.37.28-.06.29a1.15,1.15,0,0,0,0,.33c.1.21,0,.45.15.65s-.08.11-.16.14-.16,0-.12.16.08.11.18.08.21,0,.23.11a.57.57,0,0,1,0,.37c-.07.11-.12,0-.14-.09s-.06-.13-.12-.1,0,.1,0,.16l.11.47c-.07,0-.14-.07-.22,0s0,0,0,.07.16.19.24,0a2.8,2.8,0,0,1,.12,1.35,1.45,1.45,0,0,0,.33,1c.11-.09.14,0,.2.08s0,.16,0,.21a.55.55,0,0,0,0,.78c0,.06,0,.11,0,.17.15,0,.25.06.19.17s.14.3,0,.47.1,0,.15,0,0,.08,0,.11-.08.15,0,.18.07.09.06.17a1.08,1.08,0,0,0,.31.92c.25.16.07.2,0,.31s0,.13,0,.2a1.81,1.81,0,0,1,.23,1c.3,0-.08.39.2.45-.13.15,0,.3.06.4A4.88,4.88,0,0,1,8.3,89c0,.32.2.6.16.92,0,0,0,0,0,0-.15.24,0,.46.06.68a1.91,1.91,0,0,0,.14.21.4.4,0,0,1,.19.52c-.16.27.06.25.17.33l.11.09c0,.07-.08,0-.13,0s-.07,0,0,.09.06.17.18.18.14,0,.14.08-.07.05-.12.07l-.06,0s.05,0,.08,0a.3.3,0,0,1,.25.43c-.09.16,0,.25.08.35a6.6,6.6,0,0,1,1.18,2.08c.11.3-.09.59.07.9a3.4,3.4,0,0,1,.28.42c.12.32,0,.68.2,1,0,0,0,.14.1.13s0-.09,0-.15-.07-.13,0-.2a.64.64,0,0,0,.13.15.47.47,0,0,1,.24.47c0,.21.2.24.29.36a17.3,17.3,0,0,1,1.08,1.65,3.48,3.48,0,0,1,.5,1.11c0,.19,0,.3.26.26.1,0,.18.24.18.36a.63.63,0,0,0,.37.7c.15.07.22.14.17.3a.11.11,0,0,0,.05.15,2.61,2.61,0,0,1,.85,1.11c0,.27.17.38.35.54a2.86,2.86,0,0,1,.6.88.62.62,0,0,0,.21.32c.12.06.09.18.08.26a.75.75,0,0,0,.49.88c.16,0-.13.25.09.31-.05.11,0,.06.09.07s.27,0,.13.2c0,0,0,.06,0,.06.46.11.63.47.83.84.05.1.17.29.22.29.45.07.45.49.64.76a1.63,1.63,0,0,0,.3.34c.1.09.17.12.07.28s.16.3.23.33c.27.13,0,.26,0,.31s.2-.21.31,0a.47.47,0,0,0,.32.31c.19.06,0,.13,0,.18a1.25,1.25,0,0,1-.12.08c.07.05.12,0,.16,0,.27-.09.38,0,.53.33a2.07,2.07,0,0,0,.67.71c.11.07.13.16.19.22s.11.32.27.45,0,.22-.14.26c.09.37.47.52.7.75a6.35,6.35,0,0,1,.75.72s.06,0,.08,0c.33,0,.39.23.44.48,0,0,0,.16.06.17a4.13,4.13,0,0,1,1.07.89,6.32,6.32,0,0,0,.87.76c.12.09.2.16.1.31.07,0,0,.23.19.11a.18.18,0,0,1,.29.17.32.32,0,0,0,.18.24,3.74,3.74,0,0,1,1.16,1,.12.12,0,0,0,.16.05c.07,0,.19,0,.19,0-.05.26.18.16.24.15.24,0,.24.26.43.29s.33.24.4.45,0,.13.09,0,.08-.08.09,0c.05.44.47.52.74.74a4.12,4.12,0,0,0,1,.66c.33.12.38.39.58.56a15.76,15.76,0,0,0,1.5,1c.35.23.71.44,1,.69l.53.44a2,2,0,0,0,.46.28,6.84,6.84,0,0,1,1.36.73c.5.34,1.05.54,1.57.83a2.75,2.75,0,0,1,.44.32c.14.12.36.12.52.24s.18.06.2.11c.12.31.44.21.62.35s.46.09.68.13c.05,0,.09,0,.05.07-.36.17.19.31,0,.46.14.07.14-.07.19-.13s.08-.09.13-.06,0,.06,0,.11,0,.24,0,.25,0-.11.11-.14l.06,0c0,.4.21-.17.3.06s.33.07.48.21.38.14.51.32.33-.09.39.14c-.09,0-.21.1,0,.17s.22,0,.28-.13a1.78,1.78,0,0,1,.73.32,1.33,1.33,0,0,0,.46.27,4.7,4.7,0,0,1,.67.18c.1,0,.4,0,.44.25.42-.14.59.31.85.36a2.49,2.49,0,0,1,.87.16,13.57,13.57,0,0,0,1.52.51c.48.2,1,.17,1.45.56.1.09.13-.11.26,0,.32.23.81,0,1.07.42.15.24.44.22.69.25a2.31,2.31,0,0,1,.89.17,1.2,1.2,0,0,0,.6-.05c.06,0,.14,0,.17,0,.2.35.51.14.76.14s.22,0,.26.16a.4.4,0,0,0,.59.2c.14-.06.25-.14.38,0s.07,0,.11,0a9.39,9.39,0,0,1,1.18.1,1.31,1.31,0,0,1,.85.18.36.36,0,0,0,.41,0c.28-.15.52.08.79.09.49,0,1,.12,1.48.15a.76.76,0,0,1,.42.11c.16.1.35,0,.52,0s.42,0,.6,0,.57.06.85.06l.23,0a5,5,0,0,0,1.22,0,1.37,1.37,0,0,1,.4.07,7,7,0,0,1,.92.05c.11,0,.24,0,.29.15s0,.08.09,0c.34-.25.69,0,1,0a1.44,1.44,0,0,0,.78-.08.5.5,0,0,1,.61,0s.28-.05.43-.07.48-.18.66.13a1.69,1.69,0,0,1,.59-.13,2.39,2.39,0,0,1,1,0,.22.22,0,0,0,.14,0,3.2,3.2,0,0,1,1.33-.24,5.29,5.29,0,0,1,1.11-.11c.2,0,.36-.16.42-.13s.39,0,.58-.05a2.28,2.28,0,0,1,.26,0,6.35,6.35,0,0,0,1.31-.17l.8-.1a3.26,3.26,0,0,0,1-.22,1.76,1.76,0,0,1,.77-.14c.17,0,.44.06.62-.11s.11,0,.15,0l.07.06c0-.3.13-.19.29-.17a2.94,2.94,0,0,0,.42,0l.06,0a12.11,12.11,0,0,1,1.63-.48,8,8,0,0,0,1.31-.3c.24-.11.5-.05.75-.15s.57-.15.84-.27.57-.05.79-.3a.29.29,0,0,1,.39.1s0,.08,0,0c0-.34.29-.24.45-.26a2.24,2.24,0,0,0,1-.33l.07,0c.17.57.14-.06.25-.06a8.49,8.49,0,0,0,.93-.24c.21,0,.5,0,.62-.32,0-.1.17,0,.25,0s.2.1.26-.1.26-.08.38-.08a4.66,4.66,0,0,0,1.89-.67,6.14,6.14,0,0,0,.93-.44c.41-.26.88-.34,1.29-.58a4.38,4.38,0,0,1,.75-.38c.19-.07.37-.29.59-.4a.68.68,0,0,1,.27-.07c.24,0,.54,0,.61-.37s.17,0,.27-.08c.34-.27.85-.34,1.1-.76,0,0,.05-.06.07-.06.34,0,.45-.32.71-.42s.64-.58,1.13-.52h0c-.09-.44.38-.33.52-.54a.18.18,0,0,1,.24-.08c.13.07.17,0,.21-.1a.56.56,0,0,1,.47-.28c.05,0,.12,0,.14,0,.27-.29.69-.37,1-.63a2.58,2.58,0,0,1,.8-.56c.11,0,.28,0,.12-.23s0-.05.08-.07a2.15,2.15,0,0,0,.66-.33c.15-.15.31-.26.46-.39a3.39,3.39,0,0,1,.62-.42c.44-.29.75-.79,1.31-.89.08-.35.43-.44.67-.62s.29-.47.63-.33c.06,0,0,0,0,0-.19-.27.19-.33.23-.35.44-.19.77-.56,1.21-.75.16-.08,0-.27.21-.35s.4-.42.61-.63c.06-.06.08-.11.16-.06s.06,0,.09,0c-.14-.27.29-.23.26-.45s.1-.14.19-.17a.7.7,0,0,1,.7.26s.06.06.07,0,0-.06,0-.09.18-.37-.16-.37a.28.28,0,0,1,0-.21c.08-.1.13,0,.19,0s.12.17.19,0,0-.07-.11-.11,0-.19.08-.23.32-.17.39-.43.26-.31.29-.53c0,0,.05,0,.07,0,.24.15.24,0,.27-.2s.23-.3.36-.44.37-.52.61-.6.13-.17.17-.27.08-.08.14-.08.19,0,.09-.15a.21.21,0,0,1,.24-.3c.11,0,.12,0,.1-.12a.47.47,0,0,1,.26-.47,2.15,2.15,0,0,0,.32-.39c.11-.12.17-.3.37-.3s.18-.11.23-.19a8.51,8.51,0,0,1,.74-1,2.92,2.92,0,0,1,.63-.69c.09-.07,0-.34.28-.21,0,0-.14-.09,0-.19a1,1,0,0,1,.58-.37c.08,0,.1,0,0-.09s0-.23.09-.35.45-.16.36-.51a4.53,4.53,0,0,1,.34-.47c.1-.13.07-.42.36-.38-.22-.23.29-.24.15-.46,0,0,0-.1.05-.1.26,0,.2-.15.21-.31s.14-.11.24-.06.12,0,.13,0-.06-.06-.06-.11a.91.91,0,0,1,.19-.81.84.84,0,0,0,.31-.59c0-.09.17-.28.24-.44s0-.33.23-.19c0,0,.08-.11.08-.15,0-.24.06-.3.27-.29,0,0,0,0,0-.06-.25-.21,0-.31.11-.45s.17-.39.43-.45-.13-.06,0-.22.36-.27.38-.53c0-.07.12,0,.19,0s.08.11.14,0,0-.12,0-.14-.1-.12-.05-.14c.24-.12.23-.34.24-.54,0,0,0-.08.08-.07.35.12.06-.06,0-.09s0-.1,0-.09c.26.07.14-.37.38-.31,0-.1.28-.13.07-.29,0,0,0-.11,0-.12.43-.08.24-.65.6-.79-.23-.2.29-.27.1-.47.2-.19.2-.48.32-.67s0-.26.1-.29.12-.28.26-.24.18,0,.14-.15-.06-.42.25-.42c0,0,.1,0,.1-.06s-.06-.06-.11,0-.14,0-.15-.06.09-.1.15-.11.29,0,.11-.23a.1.1,0,0,1,0-.14c.25-.2.24-.58.41-.75s0-.31.16-.41.18-.24.24-.4-.18-.29,0-.39.26-.5.37-.78.1-.3.2-.26h0s.21-.55.25-.74.25-.32.33-.45,0-.09-.06-.11-.19-.22-.07-.34.07-.46.37-.47a.26.26,0,0,1,.12-.43.21.21,0,0,0,0-.06c-.33-.27-.15-.42.13-.61a.39.39,0,0,0,0-.42c-.13-.15,0-.24,0-.34s.13,0,.2.07.11.06.16,0a.5.5,0,0,0-.12-.08c-.18-.06-.23-.15-.06-.3s0-.42.3-.44c0,0,0-.07-.05-.11-.16-.23-.07-.4.14-.52s.14,0,0-.15,0-.49,0-.67.23-.28.35-.42.07-.08.06-.09c-.29-.32.1-.58.06-.88,0-.1,0-.07.09,0s.12,0,.07-.08-.21-.29.08-.34c.07,0,0-.08,0-.09-.27-.08-.3-.12,0-.13,0,0,.08-.07.11-.1l-.09-.05c-.14,0,0-.11,0-.2,0-.37.26-.64.33-1,0-.08.1-.1.18-.09s.13,0,0,0-.1-.19-.05-.33-.05-.34.22-.26c0,0,.05,0,.05,0s-.05-.06-.08-.07c-.27-.11-.18-.36-.1-.49s0-.44.16-.64.05-.3.15-.44-.11-.12-.09-.14c.2-.21.06-.35-.05-.52,0,0,.05-.08.08-.11s.32-.16,0-.19c0,0,0-.06,0-.08.11-.22,0-.51.23-.7,0,0,.1-.06.09-.07a5.09,5.09,0,0,1,0-.55c0-.14-.14-.26.07-.35,0,0,0,0,0-.06-.17-.4-.16-.4.07-.82.07-.15,0-.36,0-.51s-.13-.24,0-.53.06-.44.29-.55c.05,0,0,0,0-.09-.17-.25,0-.52,0-.77,0,0,.06-.11.13-.12s.13-.05.08-.07,0-.46-.29-.46c0,0-.05-.06-.07-.09l.08,0c.33-.18.34-.28.11-.55s.08-.21.13-.31.14,0,.07-.08c-.38-.21.05-.54-.13-.78-.06-.08.08-.13.15-.16s.14,0,.06-.16,0-.4,0-.44,0-.2,0-.29a.64.64,0,0,1,.26-.57c.06-.05.13-.11,0-.17-.25-.14,0-.18.06-.26s.15-.08.21,0,.44.23.35.57c0,0,0,.08,0,.08.53.14.22.61.25.89a2.24,2.24,0,0,1-.11.92c-.08.21.22.47-.09.62l0,0c.23.2,0,.48.09.71,0,0,0,.08,0,.11s.13,0,.08.14-.11.06-.18,0-.11-.15-.15,0,.05.12.12.13a.7.7,0,0,1,.17,0c0,.09-.09.06-.14.08s-.1.15,0,.22.12,0,.14.1.24.29,0,.39c0,0-.36,0,0,.14.06,0,.07.07,0,.13l-.08.09c.27.12,0,.32.06.47s.11.28-.14.29,0,.15,0,.19.09.31-.15.33c0,0-.09,0-.09,0s.05,0,.08.07L132,77s.09.07,0,.1-.23.18-.17.39a1.52,1.52,0,0,1-.14,1.16s-.1.07-.06.12c.42.51.13,1.07,0,1.6,0,.17.24.31,0,.49s0,.39-.15.57-.15.21,0,.3,0,.08,0,.09-.06,0-.09,0a.44.44,0,0,1,0,.37c.22.13.07.24,0,.38s-.16.12-.14.15c.24.38-.22.63-.19,1a1.59,1.59,0,0,1-.12.79c-.21.42,0,.93-.25,1.29s0,.57-.34.67c0,0,0,.1,0,.15s0,.09.05.14c-.35.14,0,.45-.12.55s-.1.41-.2.6a.13.13,0,0,0,0,.17s.06.1,0,.11c-.47.12-.22.6-.38.82-.3.42-.22.9-.39,1.29s-.23.86-.41,1.27a12,12,0,0,1-.47,1.43c-.22.38-.24.82-.42,1.21-.28.58-.41,1.21-.72,1.78a0,0,0,0,0,0,0c0,.14-.45,0-.17.32-.17.15-.06.44-.15.53s-.16.63-.53.7c-.06,0,0,.06,0,.1a3.51,3.51,0,0,1-.44,1.26,12.67,12.67,0,0,1-.81,1.55,6.73,6.73,0,0,1-.84,1.37,4.43,4.43,0,0,0-.56.9,7.78,7.78,0,0,1-1,1.55.59.59,0,0,0-.14.32c0,.1-.09.27-.16.25-.25-.07-.06.12-.11.16s0,.17,0,.15c-.31-.11-.19.19-.25.24-.26.19,0,.6-.38.73a3.33,3.33,0,0,0-.19.47,4.39,4.39,0,0,1-.89,1.36.63.63,0,0,0-.13.19c0,.42-.37.61-.59.86s-.24.56-.57.66c0,0,0,.11,0,.16s0,.1,0,.11c-.27,0-.38.17-.44.42a1.05,1.05,0,0,1-.41.47c-.29.23-.38.61-.69.81a1.06,1.06,0,0,0-.48.73l0,.06c-.44-.08-.3.57-.68.55.08.19-.13.23-.18.35s-.12.22-.3.09,0-.07-.09,0,0,0,0,0c.2.31-.16.42-.28.52a9.43,9.43,0,0,0-1.45,1.86c0,.07-.05.1-.12.12a.59.59,0,0,0-.41.4.39.39,0,0,1-.18.18,1.18,1.18,0,0,0-.63.55,1.24,1.24,0,0,1-.37.42c-.27.19-.44.48-.71.68s-.22.3-.34.45a.23.23,0,0,1-.1.07c-.22.07-.31.25-.42.42s-.11.16-.18.12c-.24-.12-.33.17-.33.21,0,.23-.13.16-.22.11s-.32.08-.42.22a1.81,1.81,0,0,1-1,.85c-.21.06-.51,0-.58.38,0,.12-.25,0-.31.15s-.25.32-.26.52-.08.09-.14.12-.31.09-.36.29-.19.12-.28.06-.22-.08-.19.12c-.2,0-.17.44-.51.26-.19-.09-.25.19-.23.31s0,.2-.17.17a.54.54,0,0,0-.58.3,2.45,2.45,0,0,1-.87.73c-.22.11-.36.35-.62.42s-.59.44-.9.63-.52.14-.69.39c0,.06-.12,0-.17,0s-.07-.09-.12,0,0,.08,0,.11.09.11,0,.16-.12,0-.15-.08-.08-.13-.14-.08,0,.1,0,.16.08.11,0,.12c-.29.08-.52.3-.79.39s-.39.1-.57.18a1.45,1.45,0,0,0-.65.45c-.22.28-.54.66-1,.6-.15,0-.15.12-.25.12,0,.29-.24.3-.4.37a5,5,0,0,1-1.42.56.23.23,0,0,0-.12,0c0,.34-.33.33-.49.5s-.42.18-.58.37c-.28-.24-.38.18-.62.19s-.33,0-.48.11-.14,0-.15.12-.1.22-.19.21c-.35-.06-.55.24-.83.35-.12,0-.43,0-.36.29l-.05,0c-.28-.29-.46.07-.69.1-.06,0-.15,0-.16,0-.13-.22-.31-.09-.46,0s-.2.1-.14.24,0,.13-.1.15-.14.06-.21,0a.28.28,0,0,0-.42.13c0,.18-.16.15-.27.17-.4.08-.82.11-1.23.17h0c-.15.21-.37.19-.6.23a7.91,7.91,0,0,0-.81.19,3.85,3.85,0,0,0-.77.36.46.46,0,0,1-.37.06c-.26-.14-.46,0-.71.05s-.42.07-.42.38c0,.16-.25.11-.36.11a1.06,1.06,0,0,0-.4.08,3.77,3.77,0,0,1-1.3.07,2.69,2.69,0,0,0-1.09.31.3.3,0,0,1-.36.14.76.76,0,0,0-.86.22.72.72,0,0,1-.65.12.9.9,0,0,0-.4,0c-.24.16-.3.05-.36-.13,0,0,0-.09-.07-.06s0,.07,0,.1,0,.22-.17.21-.56.27-.91.14c-.11,0-.31.15-.49.18a8.94,8.94,0,0,1-1,.06c-.24,0-.56-.06-.75.21,0,.08-.14,0-.22,0s-.34-.13-.44.13c0,0-.3,0-.37-.16s0-.12-.1-.09,0,.07,0,.11-.07.15-.13.16a2.3,2.3,0,0,1-.83.07c-.11,0-.24-.15-.32.08s-.13-.07-.22-.06a7.65,7.65,0,0,1-1,.1c-.23,0-.52.21-.68-.12,0,0,0,0-.07,0v.08c0,.19.1.38-.31.27a1.17,1.17,0,0,0-1.09,0c-.31-.2-.5.17-.77.12a1.28,1.28,0,0,0-.75,0c-.12.06-.12-.2-.29-.18s-.43.27-.56-.07c-.37.21-.81-.09-1.21.21-.19.14-.57,0-.87-.06s-.44-.33-.65,0c-.37-.22-.76,0-1.14,0,0,0-.09-.07-.14,0-.3.17-.62-.1-.92,0a.14.14,0,0,1-.19-.07c0-.11-.1-.2-.21,0s-.22.24-.26,0c-.14,0-.28-.31-.46,0,0,.05-.39,0-.5-.07a2.26,2.26,0,0,0-.92-.13,5.8,5.8,0,0,1-.6-.13c-.19-.05-.39-.31-.58,0,0,.05-.26,0-.39,0a.64.64,0,0,0-.57,0c-.09,0-.3-.08-.46-.12a5.8,5.8,0,0,0-1.24-.09c-.22,0-.39-.18-.61-.1-.07-.41-.46-.24-.7-.35a.61.61,0,0,0-.7.1c-.07.07-.05.14-.13,0s-.43-.22-.67-.28a9.57,9.57,0,0,0-1.39-.3c-.49-.05-.92-.29-1.4-.3a.55.55,0,0,1-.32-.09c-.11-.09-.2-.11-.28,0s-.07.12-.14.06,0-.09,0-.14.16-.19,0-.22a.61.61,0,0,0-.46,0,.44.44,0,0,1-.62-.15.46.46,0,0,0-.57-.13c-.26.18-.51,0-.73-.11s-.18-.22-.33,0-.16,0-.2-.07c-.29-.33-.72-.28-1.08-.4s-.6,0-.66-.4c0,0,0,0,0,0-.25.18-.28-.13-.42-.18s-.15,0-.15.07c0,.24-.14.09-.23,0a.45.45,0,0,1-.05-.08c-.19.07-.27-.09-.38-.19l-.06-.06c-.26.27-.43-.06-.63-.15s-.67-.06-.9-.36-.4-.2-.66-.22-.3-.17-.41-.32a2.2,2.2,0,0,0-.69-.63c-.15-.1-.17-.08-.12.08s0,.2-.08.23-.13-.07-.16-.16a.12.12,0,0,0-.16-.06c-.07.05-.14,0-.14,0,0-.42-.45-.27-.65-.46s-.3,0-.37-.22-.05-.05-.11,0c-.29.16-1.11,0-1.13-.23,0-.43-.33-.17-.45-.27s-.53-.21-.76-.41a3,3,0,0,0-.9-.45c-.16-.07-.44-.06-.35-.37,0,0,0,0,0-.07-.25.14-.36-.15-.46-.23-.43-.36-1.08-.31-1.42-.81-.07-.11-.29.12-.39-.1s-.18-.1-.1-.22-.05-.15-.1-.18-.09,0-.13.09-.07.16-.16,0a2.84,2.84,0,0,0-1-.64,5.06,5.06,0,0,1-.88-.78,1.5,1.5,0,0,0-.65-.45c-.08,0-.06-.12-.11-.18s-.32-.5-.67-.29c0,0-.15.09-.19,0a1.53,1.53,0,0,0-.8-.87c-.32-.16-.51-.53-.92-.55s-.51-.37-.77-.56-.34-.36-.54-.51a9.09,9.09,0,0,1-1.49-1.35,5.08,5.08,0,0,0-.6-.49c-.2-.16-.37-.32-.32-.6s-.13,0-.21-.09-.11-.29-.32-.32-.28-.34-.27.07c0,.07-.09,0-.11,0-.13-.27-.44-.4-.55-.68a.78.78,0,0,0-.45-.41.74.74,0,0,1-.35-.4c-.08-.22-.06-.38-.2-.42a.94.94,0,0,1-.67-.65c-.14-.4-.63-.46-.72-.86,0-.1-.11,0-.16,0s-.21,0-.16-.13-.06-.09-.11-.08-.16,0-.17-.15h0a.47.47,0,0,1-.27-.25,1.69,1.69,0,0,0-.43-.57.79.79,0,0,1-.27-.55c0-.16-.14-.06-.22-.14a10.12,10.12,0,0,1-1.5-2c-.5-.13-.31-.81-.77-1-.09,0-.3-.19-.2-.4a.51.51,0,0,1-.27-.41,5,5,0,0,0-.75-.81c-.19-.14-.42-.26-.48-.53,0-.06-.06-.1,0-.15s0-.19,0-.18c-.4.13-.36-.26-.49-.44s-.2-.75-.6-1a1.73,1.73,0,0,1-.35-.68c-.1-.24,0-.61-.51-.59-.1,0-.23-.32-.35-.5-.3-.45-.56-.93-.83-1.4a6.24,6.24,0,0,1-.72-1.24A7.41,7.41,0,0,0,9.76,100a10.21,10.21,0,0,0-.7-1.35,2.48,2.48,0,0,1-.28-.95.32.32,0,0,0-.1-.22,1.73,1.73,0,0,1-.48-1.25c0-.22-.09-.29-.26-.21s-.17,0-.19-.1-.41-.48-.06-.74c-.08-.09,0-.31-.21-.29s-.14-.08-.2-.18a5.37,5.37,0,0,1-.4-1,14.66,14.66,0,0,1-.54-1.53c0-.13-.11-.24-.15-.34-.15-.33-.11-.69-.25-1-.07-.16-.24-.28-.22-.48,0,0-.1-.17.06-.17s0-.07,0-.1c-.43-.42-.49-.53-.46-1.33a.6.6,0,0,0-.19-.4,2,2,0,0,1-.42-1,8.35,8.35,0,0,0-.35-1.07c-.12-.23,0-.57-.13-.83C4,85,4.05,84.36,3.86,83.85a12.48,12.48,0,0,1-.18-1.35,1.54,1.54,0,0,1-.05-1c0-.07,0-.21-.08-.31-.16-.38-.09-.79-.22-1.17-.05-.15,0-.31-.19-.44s0-.41-.05-.62a19.83,19.83,0,0,1-.27-3.35c0-.36-.22-.71-.18-1.11a1.64,1.64,0,0,0,0-.7,2.78,2.78,0,0,1-.17-1,3,3,0,0,0,0-1c-.11-.42.07-.88,0-1.22a3.47,3.47,0,0,1,0-1.29c0-.22.14-.41.07-.63,0,0,0,0,0,0-.58-.21-.15-.69-.18-1a11.26,11.26,0,0,1,.08-2.32,4.24,4.24,0,0,1,.29-1.69.65.65,0,0,0,0-.27c-.16-.38.09-.77.05-1.08s.3-.73.06-1.13c-.13-.21.1-.5.16-.76a4,4,0,0,0,.16-1s0-.11,0-.12c.36-.13.18-.36.13-.58s-.08-.18,0-.27a1.18,1.18,0,0,0,.38-1,4.5,4.5,0,0,1,.17-1.33,7.18,7.18,0,0,1,.35-1.42,2.75,2.75,0,0,0,.15-.93,3.25,3.25,0,0,1,.38-1.15c.12-.21.06-.51.33-.62a1.42,1.42,0,0,1,0-.54,2.69,2.69,0,0,1,.26-1.19,6.66,6.66,0,0,1,.37-1.06,2.55,2.55,0,0,0,.36-1.24,1,1,0,0,1,.2-.55c.2-.26.12-.64.39-.85a.13.13,0,0,0,0-.09,1.06,1.06,0,0,1,.32-.8,1.93,1.93,0,0,0,.23-.48c.18-.58.39-1.14.62-1.7.42-1,1-2,1.41-3.06.21-.49.46-1,.64-1.46a20,20,0,0,1,.89-1.8c.17-.32.34-.65.52-1s.11-.43.3-.6.25-.46.42-.64c.48-.54.54-1.3,1-1.82.15-.16.18-.41.42-.5l0,0c-.35-.31.14-.31.21-.4.33-.42.59-.88.92-1.31s.71-1,1.11-1.42a6.69,6.69,0,0,0,1-1.09,2.74,2.74,0,0,1,.42-.41c.06-.06.09-.09.16,0l.12.08-.08-.12c.15-.11,0-.4.27-.44s.36-.32.57-.45a.11.11,0,0,0,0-.06c0-.34.15-.43.51-.31h.09c-.21-.14.18-.19.05-.35s-.08-.41.23-.43.44-.13.54-.52a.86.86,0,0,1,.43-.49c.5-.26.76-.75,1.15-1.11s1-.76,1.39-1.19c.15-.15.29-.4.56-.41,0,0,.12-.09.12-.13,0-.57.6-.54.84-.87s.58-.42.72-.77c0-.08.05-.05.1,0a.37.37,0,0,0,.48-.33c0-.13.11-.2.26-.28a1.66,1.66,0,0,0,.51-.44c.23-.31.59-.41.85-.66s.59-.5.88-.75a1.07,1.07,0,0,1,.67-.35s.08,0,.05,0c-.18-.22.08-.23.17-.29.52-.32,1-.74,1.48-1.08a6.88,6.88,0,0,0,.69-.51c.24-.25.59-.38.76-.68,0,0,0,0,0-.06.33.17.32-.3.57-.31s.49-.25.67-.51.5-.23.74-.4a3.24,3.24,0,0,1,1.11-.71l.08,0a3.39,3.39,0,0,1,1.24-.77c.74-.28,1.33-.81,2.09-1a6.65,6.65,0,0,0,.72-.4c.42-.2.9-.29,1.29-.5.54-.28,1.13-.38,1.67-.66a3.83,3.83,0,0,1,.84-.21c.11,0,.24,0,.32-.12.11.06.2-.43.34,0,0,.08,0-.14.17-.16.35-.05.61-.32,1-.37s.82-.38,1.26-.46c.27,0,.51-.28.81-.13h.05c.12-.28.46-.16.62-.33s.19-.06.28,0l0,0c.05-.27.39-.1.42-.19.08-.32.53-.18.62-.48,0,0,.09,0,.15.07l.14,0c.13-.32.48-.15.68-.31s.65-.1,1-.21a1.67,1.67,0,0,0,.67-.26c.06-.06.13-.14.25-.06s.13,0,.14-.08,0-.12.06-.09A2,2,0,0,0,52.86,6a.23.23,0,0,1,.25,0c.13.06.22.06.3-.09s.26,0,.38-.1.64-.09.8-.43l.08,0a.4.4,0,0,0,.44,0,9.74,9.74,0,0,1,1.18-.21C57,5.1,57.68,5,58.35,4.81c.2-.06.49.05.64-.19,0,0,.1,0,.13.08a1,1,0,0,1,.09.18l0-.17c.29.28.58-.23.88,0,0,0,0,0,.07,0,.15-.3.48-.2.71-.28s.69.06.91-.06c.38-.21.8.06,1.13-.21,0,0,.11,0,.13,0,.22.25.47,0,.63,0s.45-.13.6.07,0,0,.08,0A.48.48,0,0,1,65,4.16l.05,0c.17-.45.46,0,.69-.08s.55.12.83,0a.14.14,0,0,1,.11,0c.12.32.23,0,.24,0,.26-.29.59-.09.86-.08a2.27,2.27,0,0,1,1,.08h.05c0-.36.17-.05.22,0s.27-.16.46-.06a2,2,0,0,0,.92-.08c.16-.06.34-.16.48,0l0,0c.3-.23.54.19.75.1s.72.14,1-.12c0,0,.26.1.41.15s.47-.1.53.21l.08,0c.18-.34.43-.09.65-.06,0,0,0,.07.06,0,.31-.22.27,0,.24.17a.34.34,0,0,0,0,.11s.09,0,.08-.07c0-.28.13-.27.36-.21s.38-.08.45.17c0,0,.07.07.1.06s0,0,0-.09c-.08-.23.2-.18.23-.16.24.12.53,0,.78.13.07,0,.33.08.29-.18a.07.07,0,0,1,.07-.08s.07,0,.06,0c0,.37.31.13.43.26s.51-.19.44.25c0,0,0,0,0,0,.16-.3.4,0,.58,0a.73.73,0,0,1,.66,0c.21.11.41,0,.62,0s.62.15.94.15a2,2,0,0,1,1,.22s.22.06.23,0c0-.25.12-.08.2,0s.42,0,.63.13a1.93,1.93,0,0,0,.6.2,1.52,1.52,0,0,1,.83.22l0,0a.12.12,0,0,1,.2-.11c0,.09.17.22.07.35s-.07.08,0,.13l.07-.09c.08-.1.15-.25.34-.09s.18,0,.27,0,.14-.09.18,0,.19.26.38.12.1,0,.16,0,.23.22.41.21.1.15.11.24,0-.25.22-.22.21.15.35.21a1.39,1.39,0,0,0,.52.18,1,1,0,0,1,.56.17,1.07,1.07,0,0,0,1,.19.31.31,0,0,1,.24.09c.06.21.34.13.42.3s.09,0,.14,0,.07-.07.09-.07,0,.2.1.2,0-.18.16-.2h.06a.16.16,0,0,1-.05.09s-.11.09-.06.15.12,0,.17,0,.17-.07.22.06c.07,0,.2.18.25,0a.26.26,0,0,1,.12,0c.09.26.42.32.51.57s.13.08.16,0,.13-.17.3-.09.56.37.92.27c0,0,.07,0,.09.06a.77.77,0,0,0,.69.4c.09,0,.09.11.11.14.12.21.35.11.46.12.38,0,.53.39.86.46.09,0,.27,0,.22.23,0,0,.08,0,.11-.07s0-.08,0-.07c-.09.27.31.1.33.32s.32.18.35.16.24,0,.36.08.14.13.16.13c.21,0,.4,0,.2.28l.19.11s.06,0,.06,0-.1-.23.06-.2.08.17.09.27c.1-.11.21-.06.34,0s.23.33.49.22c.07,0,0,.13,0,.2s0,.12,0,.17.09,0,.12-.06.2,0,.22.09.18.28.32.38l.07.06c.15.06.19-.24.32-.08s-.11.2,0,.34.08.22.18,0,.1,0,.18,0a7.47,7.47,0,0,1,1.09.65,6.25,6.25,0,0,1,.92.63c.14.15.44.17.59.39,0,0,.09,0,.11.11.05.24.32.06.42.22.16-.13.22.29.39.1,0,.27.1.2.24.15-.07.28.5.21.35.54,0,0,0,0,0,0a.3.3,0,0,1,.38,0c.18.27.49.33.71.51a1.2,1.2,0,0,0,.34.21c.21.06.2.31.39.42s.09.09.18.09.16,0,.17.19a.26.26,0,0,0,.29.16s.07-.08.08-.07c.18.07.1.21.14.32s.17-.27.25,0,.23.25.14.43c0,0,.07.11.11.07s.18-.06.22.09.08.08.12.09.07-.05.07-.1,0-.12.06-.12,0,.08,0,.11.12.39.39.26.28,0,.23.18,0,.12,0,.14c.4.19.67.56,1.05.77.12.07.19.36.42.17a1.68,1.68,0,0,0,.15.3c.24.29.63.47.71.88,0,.06.07,0,.11,0a.51.51,0,0,1,.46.33c.17.31.52.42.81.6A.36.36,0,0,1,112,21a3.38,3.38,0,0,0,.7.81,2.67,2.67,0,0,1,.61.6c.15.34.46.25.64.44a.68.68,0,0,1,.14.22c.07.11,0,.33.25.16.09-.07.08.06.05.1-.21.29.12.33.24.43s.19.12.23.26.21.17.31.27.4.24.36.52c0,0,0,.07.07,0,.23-.08.46.11.44.42,0,.11,0,.11.1.11s.38,0,.29.26c0,.06,0,.1.1.11.26,0,.35.23.5.4.29.35.6.69.92,1,.06.06.12.1.13.18s0,.14.1.12.06-.16.16-.07-.1.12-.09.13.15.25.26.3c.32.15.3.55.57.73.08.05,0,.39.23.11,0,0,.07,0,.1.05s-.19.3.12.2v.08c0,.07-.28.25.08.18,0,.17.12.23.24.3s.42.09.32.39c.38,0,.33.53.65.62.07,0,0,.07,0,.13s-.11.09-.07.19l.16-.08s.12,0,.12,0c-.07.46.36.64.58.9s.07.45.34.48c0,0,0,.06,0,.09h-.11c-.09,0-.18-.09-.26,0a1.3,1.3,0,0,0,.25.1c.39,0,.44.39.6.63,0,.06,0,.18.13.09s.16.05.16.13.19.36.21.45c.08.31.57.45.36.84.21.05.24.28.39.4s.31.06.13.26c0,0,.05.07.1.1.2.13.37.28.08.47a.26.26,0,0,0-.07.1s.06,0,.08,0,.18-.14.28-.09-.09.18,0,.2c.24.13.21.46.44.59,0,0,0,0,0,0,.21.12,0,.23,0,.34.14,0,.28,0,.18.23,0,0,0,0,0,.08.43-.16.11.23.21.29s0,.38.19.12c0,0,.08,0,.11.05s0,.07,0,.1c-.17.2-.09.3.15.34.06,0,.13,0,.17.07s-.08.1-.12.15-.08.09-.07.11.07,0,.11,0,.13,0,.09.06c-.12.23.09.27.19.36s.18.11,0,.16a2.72,2.72,0,0,0,.29.3c.06.06.17-.1.19,0s-.07.18-.12.27-.06,0-.1,0,.1,0,.13,0,.34-.13.16.17a.19.19,0,0,0,0,.15c.26.14.22.25,0,.38,0,0,0,.07,0,.1s.08,0,.12,0,.13-.06.2,0c-.08.09.16.24,0,.31l-.08.07.11,0h.06c-.07.2.35.34.09.55l-.07.06h.11a.51.51,0,0,1,.32.05c-.12.18.24.33.05.54,0,0,.09.25.14.32a7.46,7.46,0,0,1,.53,1c.14.33.11.75.48,1-.23.25.3.41.1.65s0,.11.07.1c.22,0,.24.16.23.29s0,.28.16.28c0,0,.09,0,.05,0-.38.26.14.34.14.56,0,.53.38,1,.48,1.47a16.23,16.23,0,0,0,.55,1.71,12.77,12.77,0,0,0,.43,1.23,1.38,1.38,0,0,1,.22.89c-.17.48.36.68.29,1.08,0,.12.25.26,0,.38.15.09.08.27.13.36s.22.2,0,.28c.05.1.2,0,.23.2a7.92,7.92,0,0,1,.24.79c0,.26.29.51.09.78.3.14,0,.45.21.67a4.74,4.74,0,0,1,.2.55s-.08.09-.08.21-.06.39.23.35c0,.2.18.36.11.56s0,.3.18.38.24,0,.26.2c-.19,0-.14.34-.37.27a.19.19,0,0,0-.11,0c0,.1.09.06.09.09,0,.32.37.47.35.79s.09.54-.24.62c0,0,0,.07-.05.09s0,.07.06.07c.44,0,.38.24.42.79h0s.27.06,0,.18c.08.07-.16.15.09.18s.09.21.11.31,0,.37.21.38c0,0,0,0,.07,0-.32,0,0,.39-.19.49,0,0,0,.23.06.24.37.09.23.46.33.69s0,.38.23.46c0,0,.1,0,.05.09-.33.25-.08.59-.12.88-.06.45.1.9.08,1.36,0,.16.08.39-.18.42.19.25-.07.39-.12.59s.27-.14.19.17c0,.1.07.24-.08.32.08.1-.18.31.1.33,0,0,.07.07,0,.08-.21,0-.09.22-.15.32s-.17.1-.17.16.14,0,.15.08-.05.22-.13.23-.12.25-.12.26C133.87,69.44,133.46,69.63,133.69,69.85Zm-3.32,14.88a.12.12,0,0,0,.17-.09c0-.07,0-.12-.07-.15s0,.2-.13.17S130.34,84.73,130.37,84.73Zm-3.79,8c.09.06.14,0,.2-.07s.12-.31-.12-.34a2,2,0,0,1,0,.24C126.6,92.63,126.48,92.67,126.58,92.74ZM126,94.83a.32.32,0,0,0,.08-.07c0-.06,0-.07,0-.07s-.09,0-.11,0S125.86,94.78,126,94.83Zm-4.26,7.89s.09.06.11,0-.1-.18-.17-.26-.09-.07-.1,0S121.59,102.64,121.71,102.72Zm-1.1,1.53s.1,0,.11,0,0-.08-.06-.11-.07,0-.1,0Zm-.91,1.66a.09.09,0,0,0,.15,0,.11.11,0,0,0,0-.16.12.12,0,0,0-.15,0C119.61,105.82,119.65,105.87,119.7,105.91Zm-1,4a.09.09,0,0,0,.14,0,.06.06,0,0,0,0-.1s-.09-.1-.16-.06A.58.58,0,0,0,118.7,109.87Zm-4.34,3.3s.06,0,.09,0,0-.15,0-.22a.07.07,0,0,0-.11,0C114.21,113,114.4,113.06,114.36,113.17Zm-2.82,2.67a.65.65,0,0,0,.2,0c0-.06,0-.07,0-.08s-.13-.09-.17-.07S111.5,115.82,111.54,115.84Zm-2,2.17s.08,0,.11,0a.23.23,0,0,0,0-.14s-.07,0-.11,0S109.54,118,109.59,118ZM107,119.72a.61.61,0,0,0,.06-.29c0-.06-.08,0-.15,0s0,.16,0,.24S107,119.78,107,119.72Zm-5.83,3.94c0,.06.12,0,.19,0s0,0,0-.08a.15.15,0,0,0-.2-.05S101.19,123.64,101.21,123.66Zm-27,11.11s.07,0,.11,0,.11,0,.11-.08,0,0-.08,0S74.23,134.69,74.22,134.77Zm-6.49-1.49s0,.09,0,.08a.14.14,0,0,0,.11-.11c0-.07,0-.1-.08-.09S67.74,133.22,67.73,133.28Zm-2.36.92a.1.1,0,0,0,.07.13.06.06,0,0,0,.09-.05.13.13,0,0,0-.09-.14S65.38,134.18,65.37,134.2Zm-16.56-2.06,0,.15a.85.85,0,0,0,.14-.19s0-.1,0-.1S48.85,132.09,48.81,132.14ZM25.87,117.08c.07.11.16,0,.25,0s0-.22-.13-.14S25.86,117.07,25.87,117.08ZM22,116.7a.17.17,0,0,0,.05.16s.08.06.11,0,0-.11-.05-.16A.07.07,0,0,0,22,116.7Zm-.22-3.79s0,0,0,.07.18,0,.28,0C22,112.93,21.9,112.87,21.78,112.91Zm-2.07,1.23a.75.75,0,0,1-.13.18.24.24,0,0,0,.23,0c.05-.06.22.1.18-.07a.37.37,0,0,0-.22-.25C19.64,113.93,19.74,114.08,19.71,114.14ZM6.36,82.8a.11.11,0,0,0,0,.15c.07,0,.15.13.15,0C6.46,82.92,6.46,82.76,6.36,82.8Zm.09-1.13c-.06.06-.19.07-.11.19s.14.06.17,0S6.49,81.74,6.45,81.67ZM3.85,64s-.1,0-.06.05a1.3,1.3,0,0,0,.22.19s.06,0,.06,0A.29.29,0,0,0,3.85,64Zm2.67-8.67c-.08,0-.1,0-.09,0,.11.28-.06.61.16.86,0,0-.07.1,0,.11s.06-.05.08-.09,0-.23,0-.35A.37.37,0,0,0,6.52,55.31ZM11.7,37.42a.26.26,0,0,0,0,.15s.08,0,.1,0-.05-.09,0-.15S11.71,37.35,11.7,37.42ZM39.61,12.9l-.07-.07a1.47,1.47,0,0,0,0,.21s.05,0,.06,0S39.65,13,39.61,12.9Zm.81-.1c-.08-.09-.16-.29-.31-.19s-.38.07-.28.26.31.09.48.05S40.51,12.89,40.42,12.8Zm.27-.26s-.07-.12-.15-.08a.12.12,0,0,0,0,.16c0,.07.06.11.14.06S40.74,12.6,40.69,12.54ZM64.61,7.05c0-.07,0-.19-.14-.2s-.08.06,0,.1,0,.2.11.23S64.62,7.12,64.61,7.05Zm6-.29s0-.08-.07-.08-.1,0-.09.09a.08.08,0,1,0,.16,0Zm4.85-2.07c0-.05,0-.13,0-.15s-.09,0-.08.09,0,.15.07.17S75.43,4.74,75.45,4.69Zm5.6,3c0-.1,0-.12-.11-.13s-.13-.05-.09,0,0,.14.07.16S81,7.72,81.05,7.7Zm5.63,1.12s0-.06,0-.06-.32-.25-.24-.48c0,0,0,0,0,0-.12.34-.4.16-.62.17-.06,0-.15-.1-.16,0s0,.21.15.21a1.18,1.18,0,0,1,.61.21A.23.23,0,0,0,86.68,8.82Zm1.27,0c0-.09-.08-.07-.12-.1a1.18,1.18,0,0,0-.54-.2c-.1,0-.21-.09-.29,0s0,.1,0,.15a1.25,1.25,0,0,0,.79.24A.14.14,0,0,0,88,8.87ZM97.66,11c.19-.33-.16-.29-.3-.4s0,.07,0,.08.42.1.27.37Zm8.76,6.09c.11-.1.13-.16.08-.24s0,0-.08,0a.21.21,0,0,0,0,.2S106.42,17.1,106.42,17.1Zm12.83,15.19s0-.06,0-.08-.11,0-.16,0-.08,0,0,.09A.13.13,0,0,0,119.25,32.29Zm2.93,5.56c0-.09.16-.07.13-.19a.15.15,0,0,0-.1,0,.22.22,0,0,0-.12.19C122.09,37.89,122.13,37.89,122.18,37.85Zm7.52,19.21a.15.15,0,0,0-.08-.22s-.09,0-.09,0S129.64,57,129.7,57.06Zm.08.75a.13.13,0,0,0,.07-.18c-.06-.19,0-.41-.15-.56s-.26.24-.22.26c.21.07.14.22.16.36S129.7,57.85,129.78,57.81Zm1.57,2.76s.08,0,.05-.08-.06-.15-.16-.06-.09,0,0,.08A.28.28,0,0,0,131.35,60.57Zm1.63.34c.12,0,.15-.11.22-.18-.09,0-.2,0-.26.08S132.94,60.91,133,60.91Z"/></g></g></svg>