<svg id="Layer_1" data-name="Layer 1" xmlns="http://www.w3.org/2000/svg" viewBox="0 0 308.68 115.69"><polygon points="297.87 111.35 297.87 111.35 297.86 111.35 297.87 111.35"/><polygon points="296.34 76.51 296.34 76.51 296.33 76.51 296.34 76.51"/><polygon points="301.07 115.69 301.07 115.69 301.08 115.69 301.07 115.69"/><polygon points="296.48 70.27 296.49 70.27 296.49 70.27 296.48 70.27"/><path d="M301.3,115.67l-.22,0-.08-.09s-.08,0-.2,0-.3,0-.3,0-.09,0-.21,0-.33,0-.26-.07.09-.1-.07-.13a0,0,0,0,1,0,0c.35-.11-.12-.09-.18-.13s-.24-.09-.22-.17,0-.08-.21-.06-.3,0-.25-.1.08-.09-.13-.12,0-.07,0-.11-.13-.14-.05-.21,0,0-.08,0c-.25,0-.32,0-.33-.06s0,0-.09-.06-.13,0-.08-.07,0-.09,0-.14,0-.07-.16-.06c0,0,0,0,0,0s0-.07,0-.07c-.3-.09-.18-.23-.3-.35s0-.1-.13-.14,0,0,0,0c.32-.05,0-.13.17-.19s0-.05,0-.07-.15-.06,0-.11-.07-.08,0-.13c-.37,0-.11-.11-.12-.15a3.39,3.39,0,0,0-.18-.39c0-.09.17-.16.21-.25s.21-.08-.1-.06c-.1,0-.14,0-.08-.07a1.55,1.55,0,0,1,.55-.2s.11,0,.07,0c-.31,0-.07-.06,0-.1s-.06,0-.09-.05-.09,0-.11,0,0,0-.14,0-.1,0-.16-.08,0,0,0,0l.21-.06c.12,0,.09-.07,0-.1s-.18,0-.27,0v0c.31,0,.23-.1.25-.16s-.09-.08-.23-.1-.17,0-.19,0-.09,0,0-.06.15,0,.17,0,0,.05.14.05.22,0,.15-.05-.1-.19-.24-.27l0,0c0-.09,0-.08,0-.17s-.28-.24-.14-.38.06-.18,0-.28-.09-.12-.05-.15,0-.15,0-.22-.06-.06.07-.09-.1-.14.16-.2c-.36,0-.19-.1-.08-.16s-.18-.06-.15-.12a1.32,1.32,0,0,0,0-.34.63.63,0,0,0,0-.36c0-.07.13-.14.09-.21s0,0,0,0c-.2-.09-.18-.19-.2-.29s-.11-.24.07-.31,0-.1,0-.16a.61.61,0,0,1,0-.46c0-.06,0-.13-.07-.19s.1-.19,0-.27h0c.33-.12.06-.22,0-.33s-.15-.1.16-.1l0,0h-.07c-.19,0-.18,0-.15-.1a1,1,0,0,0,.25-.57.48.48,0,0,0-.09-.25s0,0,0,0c.27-.12.07-.23,0-.35s0-.05,0-.06c.34-.08,0-.17.11-.25s-.16,0-.12-.08-.08,0,0,0a.33.33,0,0,1,.17,0,.28.28,0,0,0,.27-.06c.05,0-.08-.06-.19-.06a.27.27,0,0,0-.13,0c-.07,0-.07.08-.17,0s-.08-.11.07-.14c.32,0,.19-.14.25-.21s0,0,0,0,.05-.06,0-.09-.32-.08-.13-.15c0,0,0,0,0,0-.38,0-.17-.14-.34-.19.3-.09,0-.18.08-.25s.1-.08-.11-.09-.05,0,0,0,.15,0,.1,0c-.23,0-.14-.1-.24-.15s0-.11-.07-.17,0,0-.05-.08-.11-.14,0-.17c.23-.11,0-.2,0-.29s-.14-.3,0-.46,0-.22-.09-.32,0,0,.06,0,.13,0,.08,0-.14-.18,0-.28,0-.09-.06-.13,0-.29.23-.43c0,0,.1,0,0,0-.35-.07-.22-.2-.22-.29s0-.32,0-.42a1.2,1.2,0,0,1,0-.42c.31,0,.07-.14.28-.19s-.07-.07,0-.11-.1,0-.21-.06-.15,0-.07,0,.2-.12.1-.19,0-.21,0-.32-.17-.12,0-.18-.07,0,0,0,.15,0,.14,0-.1,0-.15,0-.14,0-.14,0,0-.07.08-.1.05,0,.06,0a.22.22,0,0,0,.17,0c.13,0,.06,0,.05-.06s-.06-.11-.25-.13-.12,0-.05-.07c.32-.08.07-.15.08-.23s-.33-.09.08-.12c.09,0,0-.06,0-.06-.43-.07,0-.18-.13-.26s.3-.17.2-.26,0-.06.12-.07.17,0,0,0,.17,0,.1-.07.06-.17-.28-.21c-.09,0-.1-.06.09-.06a.24.24,0,0,0,.18,0s0,0,0,0a.34.34,0,0,0-.19,0s-.06,0-.08,0a.18.18,0,0,1,0-.1s.06,0,.11,0h0c.16,0,.38.06.42,0s.1-.16,0-.24-.46-.22-.26-.39,0-.16-.08-.24,0-.08,0-.11a1,1,0,0,1-.14-.83s0,0-.06-.06-.05,0,.06,0a.33.33,0,0,0,.28-.06c.07,0-.08,0-.18-.06s-.11,0-.07-.05a.15.15,0,0,1,.16,0,.17.17,0,0,0,.1,0s0,0,0,0,0,0,0-.07.21-.13-.18-.1c-.05,0-.05-.2,0-.21s.24,0,0,0c-.05,0-.07-.09,0-.13s.1,0,0-.1-.16-.24-.23-.36.07-.1,0-.15,0,0,.13,0,.13,0,.09,0-.14,0,0,0a.33.33,0,0,1,.18,0,.17.17,0,0,0,.13,0,.17.17,0,0,0,0-.12.31.31,0,0,0-.13,0,.13.13,0,0,1-.13,0c-.05,0,0,0,0,0s0-.06-.11-.07.08,0,0-.05-.12-.14-.11-.22l.07,0c.06,0,.07,0,.07,0s0,.07.11.07.13,0,.11-.08.2-.09.36-.09.18,0,.13-.07-.07,0,0-.07,0-.08-.11-.07c-.28,0-.33,0-.14-.07s0,0,0-.06-.11,0-.11,0,.09-.2-.23-.26l0,0c.28,0,.2-.08.31-.12s.14-.07,0-.1-.11,0-.07-.08,0-.09-.2-.08-.26,0-.29,0,0-.11.08-.13,0,0,0,0-.12-.11.07-.18a.25.25,0,0,0,.13-.19s0,0-.08,0-.09,0-.11,0,0,0-.1,0,0,0,0-.06.06-.17,0-.26,0-.11,0-.17-.07-.06-.12-.09-.18-.09.1-.11h0c-.45,0-.2-.11-.4-.14.14-.07-.1-.11-.07-.17s-.08-.08.07-.12-.14,0-.06-.07-.16-.08.12-.08c.12,0,0,0,0,0s-.45-.06-.1-.14c-.17,0-.07-.1-.05-.14s-.26-.14-.13-.22,0-.18-.11-.27-.06-.08.14-.11c-.1-.06,0-.14-.06-.21s0-.1-.12-.14l0,0c.17,0,.16,0,0-.09s0,0,0-.07.11,0,.06,0-.12-.13,0-.2-.19,0-.11-.1l.12,0a.8.8,0,0,1,.27,0c.05,0,.05,0,.14,0s0,0,0-.06-.11,0,0-.06c.27-.07,0-.08-.1-.11s-.22-.15,0-.22.19-.06,0,0-.23,0-.26-.12.24-.13.28-.2.06-.09,0-.13,0-.08-.1-.07-.1,0-.12.07,0,0,0,0,.1.06,0,.08h-.08s-.08-.06,0-.09,0-.13-.13-.17,0-.06,0-.09.11,0,.17,0,0,0,0,0,0,0,.06,0h.17c.06,0,0,0,0,0s0-.16-.34-.18c0,0-.08-.05,0-.06.33-.08-.16-.14,0-.22s-.1,0,.09-.06.06,0,.05-.06a1.46,1.46,0,0,0-.1-.34.34.34,0,0,1,0-.22c0-.07-.14-.13-.07-.21s0,0-.07,0-.16-.08-.06-.1,0-.13.29-.07c0,0,.07,0,.07,0s0,0-.08,0c-.35,0-.3,0-.14-.16s.4-.14.23-.24.05-.07,0-.11-.23-.21-.1-.33,0,0,.06-.07.15-.09,0-.13-.17-.09-.05-.17,0-.18,0-.27-.11-.07.12-.09.1,0,0-.08-.17-.18-.26-.27a1.39,1.39,0,0,0-.33-.3c-.1-.06.06-.1,0-.16s-.17-.14,0-.21-.18,0-.08-.07,0-.12.12-.18,0,0,0-.06-.07-.09,0-.14.11-.15,0-.21,0-.11,0-.16a1.29,1.29,0,0,1-.08-.28l0-.64c0-.08-.09-.15-.06-.23s.15-.14.06-.19.24-.16.19-.25.12-.21.1-.32.28-.22.15-.32.06-.29-.09-.42,0-.08.06-.1.22,0,0-.07h-.05c.39,0,0-.07,0-.09s0-.3-.34-.41c.3-.06-.2-.14.13-.19a.05.05,0,0,0,0,0s-.17,0-.07,0a.49.49,0,0,1,.24,0c.08,0,.19,0,.21.09s.07.06.21,0,.08,0,.08-.08-.05-.29,0-.44.06-.21-.15-.3,0,0,.05-.05a.34.34,0,0,0,.19-.13s0-.07-.11-.07,0,0-.05,0-.13,0-.19,0-.17,0-.08-.07.17-.07.13-.08-.12-.15-.42-.16c.29-.08.52-.17.29-.29,0,0,0-.06,0-.07.26-.08.09-.11-.12-.13s0-.09-.18-.11c.06,0,0,0-.08-.06s-.07,0-.07,0c0-.17-.24-.33-.14-.51s-.19-.22.24-.3c0,0,.12,0,0,0s-.13-.08-.12-.12.09-.12-.16-.14c-.08,0-.09,0,0-.06.23-.08.2-.15,0-.23s-.07-.15-.13-.23,0,0,0,0,0,0,.06,0,.09,0,.09,0,0,0,.09,0,.06,0,.05,0,.08-.16-.26-.19c-.1,0-.09-.11-.06-.12s0-.2-.07-.29-.24-.18-.08-.28a0,0,0,0,0,0,0c-.18,0-.06-.09.1-.12s.12,0,.09,0a.14.14,0,0,0-.14,0,.23.23,0,0,1-.12,0c-.05,0,0,0,.05,0s.15,0,.09-.07-.21-.11.07-.2c0,0,0,0,0,0-.25-.12,0-.27-.18-.39s0-.06,0-.09.18-.23.1-.35-.1-.06.08-.08.08,0,0,0-.12-.07,0-.09c.34-.09.24-.18.15-.27s-.11,0-.06-.07.24,0,.3.06-.13.08.06.08,0,0,.09-.08-.09-.18,0-.28,0,0-.07,0a.58.58,0,0,1-.32,0s0-.08.12-.11c.3-.11.37-.28.14-.39s-.1,0,.1-.06.28-.06.28-.13,0-.11-.13-.15c.07,0,.15,0,.16,0-.33,0,.41-.14-.11-.07-.07,0-.15,0-.13,0s-.19-.09,0-.14h0c-.5-.05.22-.17-.07-.24,0,0,0,0,0,0l.15,0c-.18,0-.13-.07-.27-.06s-.1,0-.08,0-.06-.14-.09-.21.05-.24.28-.35c0,0-.14,0-.2,0s-.18-.14-.15-.2-.12-.22,0-.34,0-.18,0-.27,0,0,0,0,.12-.19,0-.27-.11-.1,0-.16,0-.07-.05-.07-.11,0-.1.06,0,0-.09,0,0-.1-.11-.14.1,0,.18,0,.11,0,.11,0c-.06-.2.21-.42-.09-.61-.05,0-.12-.09,0-.14-.28,0-.15-.09-.23-.12s.16-.12,0-.18-.08-.14-.11-.21l-.12-.22s0,0,0,0,.05-.12.1-.19-.15-.06-.13-.09a1.4,1.4,0,0,1,.22-.14c.08,0,0-.06-.07-.07s-.12,0,0-.06l.14-.06c.06-.08-.06-.17.11-.25s0,0-.09-.07-.19-.11-.06-.18,0,0,0,0c-.33-.11.05-.25-.1-.36s0,0,0,0c.43,0,.19-.13.16-.2s-.09-.07,0-.11-.06,0-.11,0-.27,0-.22,0-.1-.12.2-.13c0,0,.11,0,.09,0s.1-.16-.2-.21c-.08,0-.08,0,.16-.1.07,0,.09,0,0,0s-.17-.26,0-.3l.07,0c-.32,0,0,0,0-.07s-.21,0-.13-.07.16,0,0,0a.25.25,0,0,0-.19,0c-.08,0-.11,0-.08,0s.1-.13.06-.21a.78.78,0,0,1-.12-.46c0-.08.05-.15-.09-.22s.15-.06.15-.09V62c0-.06,0-.11.24-.06h.17c.07,0,0,0,0,0s-.16-.24-.05-.37,0-.29,0-.43,0-.11-.23-.1h0l0,0c.45,0,.21-.08.27-.12s-.11-.21.05-.31,0,0-.07,0-.13,0-.17,0,.05,0,.11-.06.31-.08-.05-.09c0,0,0,0,0,0s-.08-.18-.22-.26,0,0,0,0c.35-.07,0-.15.08-.23s-.17-.12-.14-.18-.12-.27.22-.39c0,0,0,0,0,0-.17-.09.07-.2-.09-.28s-.05-.13-.05-.19-.09-.15-.1-.22-.27-.11,0-.18c.06,0-.05-.09,0-.12s0-.19,0-.28-.31-.16.12-.23c-.07,0,.27-.09-.06-.09,0,0-.1,0-.08,0s-.07-.21-.09-.32.25-.11-.09-.12a.1.1,0,0,1,.07,0c.34,0,.2-.1.14-.13s.14-.15-.09-.2c.22,0,0,0,0-.08s.17,0,.23,0c.23,0,.23,0,.12-.06s0-.1-.27-.06c-.1,0,0-.06-.05-.09h.19c.09,0,.22,0,.19,0a.62.62,0,0,0-.32,0h-.07l.07,0,.13,0h-.14c-.05,0-.11,0-.16,0s.06,0,.09,0-.08-.09,0-.15,0-.06,0-.09.12-.09-.09-.11c.19,0-.33-.08.09-.09,0,0,0-.07,0-.09s.05-.14-.07-.2.1,0,.17,0,.17,0,.15-.05-.08,0-.18,0-.2,0-.21,0a.08.08,0,0,1,.06-.11c.09,0,.12,0,.13,0s.05,0,.11,0,0,0,0,0l-.05-.15a.54.54,0,0,0,.22,0s0,0,0,0-.13-.06-.23,0c-.11-.13,0-.26.09-.4s0-.21-.15-.29a.19.19,0,0,1-.18,0c-.07,0,0,0,.06-.06.31-.06.28-.14.18-.23s0,0,.06-.05c-.15,0-.23,0-.15,0s-.07-.1.1-.14-.09,0-.13,0,0,0,.05,0,.11,0,0-.06-.05,0,0,0,.06-.24-.1-.28,0-.07,0-.1,0,0,0-.06-.09-.2.05-.31c-.27,0,.18-.11-.08-.14.17,0,.08-.09.06-.12a.39.39,0,0,1,0-.51c.08-.09,0-.19.14-.28h0c.21-.06.1-.14.15-.2l-.07-.08c-.19,0-.1-.13,0-.16s0-.07,0-.1l-.07,0c.05,0,.08,0,.12,0s.09,0,.08,0,0-.06-.1-.07-.13,0-.1,0,.09,0,.14,0h.07a.11.11,0,0,0-.06,0c-.18,0-.24-.1-.08-.15s.11-.06.06-.1a.61.61,0,0,1-.3-.69c0-.1.31-.16.29-.26s-.08-.1-.08-.15.32-.18.22-.29.05,0,0,0-.07,0-.1,0,0,0-.09,0a.08.08,0,0,0-.05,0c-.11,0-.11-.11,0-.16s-.07-.09-.1-.13a1.21,1.21,0,0,1-.21-.58c0-.12,0-.24.12-.36s.14-.08-.1-.1c-.09,0-.05-.09,0-.12s.2-.16,0-.24-.11-.07,0-.1.07,0,0-.05-.25-.33-.12-.41.05-.12,0-.19-.06-.21,0-.31.07-.08,0-.12,0-.06.09-.08c.28-.09.31-.2.09-.3s.25,0,.1-.09c.1,0,.05,0,0,0s-.21,0,0-.07c0,0,0,0,0,0-.3-.1-.22-.22-.15-.34s0-.1,0-.11c-.31-.09-.05-.2,0-.29a.22.22,0,0,0,0-.14s-.06-.06.11-.08.08-.1.05-.12.19-.06.18-.08-.29,0-.22-.05.05-.09-.05-.13.08,0,.14,0h.14s-.09,0-.14,0c-.26,0-.26-.07-.19-.17a.23.23,0,0,0,0-.29s0-.06,0-.09.14-.09.11-.15.16,0,.28,0,0-.2,0-.3-.1-.2,0-.3,0,0-.05,0c-.23-.06-.1-.13,0-.19s.1,0,.09-.06a.37.37,0,0,1-.1-.4.79.79,0,0,0,0-.34s0-.08.17-.09c0,0,.18-.05,0-.06s-.22-.05-.06-.09.08-.06.06-.09-.17-.29,0-.44,0,0-.05,0-.11,0-.09,0c.24,0,0-.07,0-.08s.05-.11,0-.15,0-.12.1-.18.09,0,0,0-.12,0-.07,0c.3-.1.11-.21.13-.31a.39.39,0,0,0-.06-.36c-.1-.1.09-.16.11-.23a3,3,0,0,0-.05-.52,1.51,1.51,0,0,1,0-.37,1.13,1.13,0,0,1,.09-.2.18.18,0,0,0,0-.16.59.59,0,0,1-.06-.45c0-.18-.05-.34,0-.52a.56.56,0,0,1,.07-.16s0-.11,0-.17-.05,0,0-.06c.22-.08,0-.15,0-.21s-.12-.13-.17-.19,0,0,0,0c.3.07.2-.09.41-.07,0-.05-.13,0-.2,0s-.11,0-.1,0,.07,0,.12,0l.21,0s-.12,0-.18,0h0c.35-.07-.24,0-.07-.09s-.08-.09,0-.15,0-.12.07-.18-.22-.07,0-.12.18,0,.16,0-.1-.06-.22-.06a.17.17,0,0,1,0-.23c0-.05.11-.13.07-.16s0-.13-.08-.2-.15-.1.07-.15c-.28-.09.1-.19,0-.27s-.18-.16-.13-.25-.07-.31,0-.47-.13-.3.13-.46c.06,0-.15,0-.1-.06s-.24-.22.1-.34.11-.14.08-.21-.13-.17,0-.27-.08-.11-.19-.16-.08,0,0-.05c.29-.08,0-.15,0-.22s0-.07.11-.09c.25-.06.23-.12.09-.18s-.19-.06-.06-.11,0,0,0,0-.05-.23-.12-.34-.14-.17,0-.26.05-.08-.05-.12,0-.15,0-.23a3.13,3.13,0,0,1,0-.43c0-.05,0-.09.06-.13s0-.1,0-.15,0-.12,0-.18,0-.16,0-.25,0,0,0-.06a.69.69,0,0,0-.09-.36s0-.09.06-.12-.08-.17,0-.27,0-.07.14-.09.08,0,0,0c-.27-.09-.08-.2-.07-.31s.08-.15-.06-.22-.17-.11,0-.18c.05,0,0-.08-.05-.12s-.17-.14.13-.2c-.1-.05-.08-.11-.11-.17s0-.19.07-.28,0,0,0,0a.36.36,0,0,1-.15-.39c0-.11-.14-.22,0-.33s-.12-.1-.09-.12,0-.12,0-.17a.22.22,0,0,1,0-.08c.08-.13,0-.26,0-.38a.65.65,0,0,1,0-.24.35.35,0,0,0-.06-.29.18.18,0,0,1,0-.23c0-.05.14-.12,0-.18s0,0,.05,0l.06,0c-.3,0-.15-.05-.1-.09a1,1,0,0,0,.09-.13,0,0,0,0,0,0,0c-.11-.17-.07-.33-.11-.5s.08-.26,0-.39.09-.15.06-.23,0-.17,0-.25.1-.17-.07-.25,0-.09.21-.1c0,0,.07,0,0,0-.32,0-.13-.1-.11-.14s.12-.21,0-.31a0,0,0,0,1,0,0c.59,0,0-.05,0-.08s0-.18.06-.28.16-.15-.07-.2c-.07,0,.05-.05.08-.07s.16-.05,0-.08,0-.08.06-.12c.24-.2.09-.39.09-.59a.57.57,0,0,0,0-.29c-.07-.14,0-.28,0-.42a.39.39,0,0,1,0-.24c0-.06-.09-.13-.09-.2s0-.05.06-.08.2-.15-.06-.21.08,0,.05-.08.11-.27-.14-.39c0,0,0,0,0,0,.19-.09-.06-.16,0-.24s-.19-.24.11-.36h0c-.42,0-.08-.15-.18-.21s0-.06.06-.07.07-.05,0-.07-.09-.11,0-.16.06,0,.05,0,0-.23,0-.33a.26.26,0,0,1,0-.29s.14-.07-.11-.06,0,0,0,0,.14-.15.1-.22,0-.12-.06-.17,0-.15,0-.22-.17-.31.1-.46c-.23-.08-.08-.18-.08-.27s-.17-.15.15-.2c0,0,0,0,0,0-.33,0-.13-.11-.11-.12s.07-.28.2-.41-.2-.05-.12-.11-.05-.17-.05-.25,0,0,.07,0l.06,0c-.29,0,0-.11-.15-.14s0-.05,0-.08a1.64,1.64,0,0,1,.66-.11H296s0,0-.07,0-.14-.11-.37,0l-.19,0s.11,0,.17,0,.2,0,.16,0-.09,0-.15,0-.13,0-.12-.05.1-.11,0-.17,0-.12-.16-.17,0,0,0,0c.28,0,.2,0,.06-.09s0-.11-.05-.17-.1-.18,0-.25,0-.06-.07-.09,0,0,.05-.05.15,0,0,0-.23-.07,0-.11.1,0,0,0-.18-.08-.12-.15,0-.09,0-.14-.07-.1.07-.14.07-.06.05-.09a.64.64,0,0,1-.09-.37.31.31,0,0,1,.06-.27s-.18-.08.09-.1c0,0-.17,0-.16,0a.31.31,0,0,1,.23-.2c.05,0,.05,0,0,0-.23,0-.15,0-.13-.1s.27-.12,0-.18c0,0,0-.11,0-.17s-.19-.1.07-.15c-.31,0,.09-.11-.14-.13,0,0,0,0,0,0,.22,0,.07-.07,0-.11s.07-.05.17-.06h.13s-.08,0-.11,0-.34-.11-.28-.22.1-.13-.06-.19,0-.1-.05-.14-.18-.08.1-.09c0,0,0,0,0,0s-.12-.08.07-.12c0,0,0,0,0,0-.33,0-.14-.08-.14-.12s-.05-.13.14-.19-.13,0-.13,0,.17-.13.06-.2.09,0,.16,0,.14,0,.14,0,0,0-.11,0-.14,0-.11,0,0-.12-.06-.17,0,0,0,0c.36,0,0,0,0,0s-.09,0-.06,0c.27,0-.05-.11.2-.14-.08,0,.18-.08-.08-.08-.05,0-.1,0-.05,0,.35-.09-.08-.2.17-.29-.3,0,.13-.11-.13-.13.09-.08-.05-.15,0-.22s-.06-.07,0-.08,0-.09.14-.1.15,0,.06-.06-.22-.1.06-.14l.06,0a.17.17,0,0,0-.12,0,.47.47,0,0,1-.16,0c-.06,0,0,0,.09-.05s.23-.06,0-.08c-.05,0-.07,0-.05,0s0-.18.07-.24-.16-.08,0-.13.07-.09.07-.14-.27-.05-.12-.11.06-.16.06-.25,0-.09.08-.09h0a1.85,1.85,0,0,0,0-.23c-.05-.07.13-.11.15-.16s0,0-.09,0-.25,0-.18-.08-.08-.13.2-.17c-.17,0-.2-.07,0-.13h0c-.39,0-.28-.1-.08-.18s0-.11-.08-.12-.06-.06-.07-.09.14,0,.21,0,.12,0,.15,0h-.14c-.19,0-.26,0-.14-.08s-.12-.11.17-.15c0,0-.05,0-.08,0-.22,0-.18-.1,0-.15s.13,0,0-.05-.13-.13-.14-.18.14-.1.21-.15l0,0c-.36-.05,0-.17-.15-.24s0,0,.08,0,.11,0,0,0-.27-.06,0-.1c.07,0,0,0,0,0-.28,0-.32,0,0,0a.24.24,0,0,0,.09,0h-.11c-.14,0-.07,0-.09-.05s.1-.2.1-.3.06,0,.14,0,.14,0,0,0-.14,0-.11-.09-.11-.09.16-.09h0s-.05,0-.08,0c-.28,0-.25-.09-.19-.13s0-.12,0-.19,0-.09.06-.13-.12,0-.11,0c.16-.07,0-.1-.14-.14l.06,0c.07,0,.28-.06,0,0,0,0-.05,0,0,0s0-.15.13-.22l.08,0c-.06,0-.05-.11-.08-.16s-.18-.06,0-.1c0,0,0,0,0,0-.22-.1-.21-.1,0-.24s-.05-.1-.09-.14-.15-.06-.08-.15,0-.13.24-.17c0,0,0,0,0,0-.18-.06,0-.15-.09-.22s.05,0,.12,0,.12,0,.07,0,0-.13-.33-.11l-.07,0h.07c.31-.07.31-.1.07-.16s.07-.07.12-.1.13,0,.07,0c-.39-.05,0-.16-.16-.23s.07,0,.14,0,.14,0,.05-.05,0-.11,0-.12,0-.06,0-.09,0-.13.23-.17.14,0,0,0,0,0,.05-.08.15,0,.21,0,.45,0,.37.15,0,0,0,0c.53,0,.24.16.27.24a.23.23,0,0,1-.07.27c-.08.06.23.12-.07.18h0c.23,0,.06.13.14.19s0,0,.05,0,.14,0,.09,0a.33.33,0,0,1-.18,0s-.12,0-.14,0,.05,0,.13,0h.16s-.08,0-.13,0-.08.05,0,.07h.16c.08,0,.25.07,0,.12,0,0-.36,0,0,0,.07,0,.08,0,.05,0l-.07,0c.28,0,0,.09.1.13s.13.07-.12.09,0,0,0,0,.12.08-.12.1c0,0-.09,0-.08,0h.09l.28.06s.1,0,0,0-.2.06-.11.12.14.22,0,.33-.1,0-.05,0c.48.11.27.28.29.44s.29.06.12.12.05.11,0,.17-.1.07.09.08,0,0,0,0h-.09c.07,0,.11.07.06.1.24,0,.11.07.08.11s-.13,0-.11,0c.29.08-.08.19,0,.29s.12.15.06.22.22.25.06.37.13.15-.15.21c0,0,0,0,0,0L297,5c-.3.07.13.12,0,.16s0,.12,0,.18,0,0,.07,0,.09,0,.06,0c-.41.09,0,.19-.13.26s.09.26,0,.38.06.25,0,.37.13.28.06.43.09.23.06.35.07.36,0,.54h0c.07,0-.39.08,0,.1-.09.07.12.12.08.15s.12.18-.19.25c0,0,0,0,0,0s.12.24.16.37a1,1,0,0,1,0,.49c0,.15.06.3-.06.45a.39.39,0,0,0,0,.3,1.08,1.08,0,0,1-.07.53s0,.06.05.09.07.08,0,.09c-.25,0,0,0,0,.05s.11,0,0,0c-.31,0,0,.08-.07.1s.29.14.08.23c0,0,.06.09.1.13a.38.38,0,0,1,.07.46s0,.06,0,.06c.22.09,0,.2,0,.29s.16.16,0,.25c0,0,0,0,.1,0s.1,0,0,0-.19.11-.08.17,0,.13,0,.18.07.19,0,.3,0,.17.12.24h0c-.37.08.16.18-.14.25.18,0,.06.07.1.1s.05.07-.16.08h-.1s0,0,0,0c.35,0,.14.11.14.15a.9.9,0,0,0,.24.66s0,0,0,0-.11.11,0,.16a0,0,0,0,1,0,.07c-.1.09-.11.16,0,.24s.08.1.05.16.05.18,0,.27.06.1.1.15,0,0,0,0,0,.11.05.16.05,0,0,.06c-.24,0-.08.11-.05.11s0,.06-.06.07-.15.09-.1.13.2.24,0,.37-.27.12,0,.19-.15.06-.07.1.1.11.25.14,0,0,0,.05-.12.09,0,.13,0,.06-.12.07-.2.05,0,.07c-.12.05.25.1-.08.16s0,.09.11.1.16,0,.05.07-.17.12-.09.18a.24.24,0,0,1,.1.31c0,.08.09.14,0,.21s.06.21.06.31-.16.15,0,.22,0,0-.11,0-.11,0-.09,0h.1c.06,0,.14,0,.15,0s-.1,0-.16,0-.14,0-.14,0,.1,0,.15,0,.14,0,.12,0,0,.17-.07.25a.88.88,0,0,0-.12.17c0,.07-.06.14.07.22s.31.21,0,.33c-.09,0,0,.05,0,.08.27,0,.16.09.15.14s0,.29-.14.43c0,0,0,0,0,0,.31,0,.13.12.21.18s0,.12.1.18c-.32.06,0,.12-.07.18s-.17.09-.09.14,0,0,0,0,.15.05.1.07,0,.17,0,.26-.17.11.14.12h0c-.37.05-.1.13-.15.2s0,0,0,0c-.24,0-.19.08-.19.12s0,.07.17.06.12,0,.1,0,0,0-.08.05-.16.11,0,.13.07.05.05.08l-.23.35h0c.15.05.06.11,0,.18a.55.55,0,0,0-.07.23.42.42,0,0,0,.1.24s0,.08,0,.1-.14.13-.15.2,0,.12.26.14,0,.07,0,.1,0,.08,0,.12a.66.66,0,0,1-.25.36c-.05.05,0,.29.06.32s.14.08.07.11c-.24.09-.12.18,0,.24s0,.14,0,.19-.05.1,0,.12,0,.08-.19.09-.1,0-.08,0h.11c.12,0,.21,0,.17.05s.18.16,0,.26.09.09.09.14-.07.2-.09.3-.12.16.13.21c.07,0,0,0,0,.06s-.17.1.08.13c0,0,0,.08-.2.1s-.12,0-.1,0a.4.4,0,0,0,.11,0c.13,0,.14,0,.14,0s.08.16,0,.24-.16.07.06.09-.08,0-.07.06a.84.84,0,0,1,0,.27c0,.06.17.14-.17.19l0,0h.07c.19,0,.39,0,.25.09s-.29.21,0,.31c-.2.09.16.13.11.21s-.08.14,0,.21-.2,0-.19.09.26.11-.07.16c.19.09-.11.23.2.33.15.05,0,.16,0,.24s-.31.14,0,.18c-.21.12,0,.22,0,.33s-.06,0,0,0c.2.07,0,.17.1.25s0,0-.06.06-.18,0,0,.05.26.05,0,.08c.06,0-.28.09,0,.13.05,0,0,.11,0,.14s0,.18-.05.26a.39.39,0,0,1,0,.18c0,.05-.25.12.09.15,0,0,0,.07,0,.11s-.06.11.07.16,0,.09-.05.13a.4.4,0,0,0,.11.35c.05.06-.11.12,0,.17-.38.05-.15.15-.22.22s0,.14.23.18.15,0,0,0-.14.13-.14.2,0,.27,0,.4-.06.27,0,.4,0,.06,0,.09-.05.07.1.07.13,0,.1,0l-.13,0c-.08,0-.23,0-.22,0s0,.09.14.12.2.13,0,.18-.1.13,0,.16.16.13.09.2-.15.07.06.09,0,0,0,.06c-.22.11,0,.22,0,.32s.18.16-.16.22c0,0,0,0,0,0,.25,0,0,.08,0,.13s.06,0,.11,0c.24,0,.14,0,.1,0l-.05,0c.13,0,0,.08,0,.12l0,0c.35,0,.11.11.1.17s.2.18,0,.27,0,.13,0,.2-.05.09-.14.14a.55.55,0,0,0-.28.26s0,0,.12,0a.49.49,0,0,1,.24,0c.07,0,0,0-.07.07s-.05,0,0,0,.09,0,0,0c-.39.06-.07.15-.16.23s.1.08,0,.12,0,0,0,0c.25,0,.5.26.3.31-.36.07,0,.1,0,.14s.06.16,0,.24,0,.19,0,.28.17.12-.14.14l-.05,0c.25,0,.06.1,0,.14s.27.3,0,.46c-.05,0,.25,0,.12.1s0,.06-.13.06-.1,0-.1.06.09,0,.14,0,.18,0,.12,0,0,.21,0,.32-.08.22-.17.33-.09.15,0,.23-.06,0-.08,0-.22.17.16.2c0,0,.16,0,.08,0-.25.11-.3.24-.24.34s-.11.21.13.29,0,.18,0,.27-.06.14-.06.21a1,1,0,0,1-.07.57c0,.06,0,.14,0,.22s0,.13-.24.18.1,0,.08.06-.15.08,0,.13-.05.12.24,0c0,0,.08,0,.06,0s0,.17-.11.25,0,.11,0,.17,0,.11,0,.15-.23.09-.16.13.14.18,0,.26.15.21-.05.32.05,0,.09,0,.18,0,0,.06,0,0,0,0,.09,0,0,.07h0c.06,0,.06.07,0,.1s-.12.13-.06.2,0,.12-.15.17.06,0,.07.07a1.06,1.06,0,0,1-.13.71c.31.11-.25.24,0,.36,0,0,.12.09-.09.13.09,0,.06.09,0,.14s.08.25.14.3.19.13.08.2,0,0-.1,0-.07,0-.06,0c.4,0,.14.11.15.18s-.28.21-.08.33,0,.15-.06.22-.27.16.12.22c.08,0,0,.11,0,.17v.46c0,.13.12.27,0,.4s0,.32,0,.48-.08.28,0,.43-.1.18-.17.28,0,0,0,.07c.18.12.1.25-.07.38s0,.08.16.08.16,0,.13,0,.18.17-.24.21c0,0-.1.08.08.1s.1,0,.12.06,0,.2,0,.3a1.83,1.83,0,0,1,0,.46s0,.07,0,.1-.11.2-.08.3.14.09.06.14.05.06-.1,0-.07,0-.05,0c.29.14.28.17,0,.39,0,0,0,.09.09.12s.11.2.13.3a.91.91,0,0,0,.06.32c.05.07-.12.16-.07.24s-.05.32,0,.47-.13.25-.08.39.07.18-.12.28,0,.06,0,.09,0,.22,0,.33-.07.09.12.13,0,.12,0,.18a2.56,2.56,0,0,1-.09.95c0,.11.17.2.11.32s-.12.12-.06.2a.34.34,0,0,1,.12.28c0,.1-.13.19-.05.28s-.09.25,0,.35-.05.25,0,.36-.14.13-.05.18a0,0,0,0,1,0,0c.58,0,.17.19.21.28a1.59,1.59,0,0,1,.06.65c0,.17.08.33-.14.49,0,0,0,.06,0,.08.2.09,0,.21.09.3s-.2.22.09.32,0,.14-.06.22-.07.18,0,.28,0,0,0,0c-.33.06-.11.11,0,.17s.11,0,0,.08c-.3.09-.24.23-.18.31a.48.48,0,0,1,.12.38c0,.14.1.27,0,.41s0,.18.07.26a.32.32,0,0,1,0,.35c0,.07.08.14-.14.2.13,0,.11.09.18.14s.11.22.1.34.07.21,0,.32-.05.24.07.36a.12.12,0,0,1,0,.17c-.09.09.13.17,0,.26,0,0,0,0,0,0s.11.11,0,.24a.17.17,0,0,0,0,.15c0,.17.09.34.12.51a6,6,0,0,0,.07.95,2.46,2.46,0,0,0,.11.45,1.58,1.58,0,0,1,.13.56,1.54,1.54,0,0,1,0,.3c0,.06.12.12.06.19s0,.14,0,.21.23.38.13.58.1.13-.05.19h0c.46,0,.07.09.06.13s0,.29,0,.44a4.34,4.34,0,0,1,0,.51c0,.13-.13.27-.06.41s0,.11-.05.17,0,0-.09,0h0c-.05,0,.29.07.08.14s-.05.14-.12.21h0c.22.07.17.12-.17.17l-.07,0c.25,0,0,.07.19.08s.32.06.12.12-.22.12,0,.22a.1.1,0,0,1,0,.18c-.18.16,0,.3-.05.45a1.57,1.57,0,0,0-.08.52c0,.06.09.13-.09.2,0,0,0,0,0,0,.41.09,0,.22.09.33s-.06.21.12.3,0,0,0,0c-.2,0-.24.1-.06.16s.08.06,0,.11a.14.14,0,0,0,0,.19c.1.1,0,.2,0,.3a1.25,1.25,0,0,1,.05.32c0,.09,0,.14-.11.22s-.06,0,0,0c.28,0,.14.06.14.09a2.19,2.19,0,0,0,0,.51c0,.08,0,.18,0,.24s0,.2.17.28h0c-.31.07.07.12-.05.19s0,.15.08.23-.06.16,0,.24.19.24.07.37,0,0,0,0a.32.32,0,0,1,.07.41c-.08.22.13.43,0,.65s0,.15,0,.23-.09.27-.07.39-.1.34-.06.51-.06.16-.1.24-.09.07,0,.1c-.09,0,.32.08-.1.09-.08,0,.12,0,.09.06s.08.19,0,.31.1.25,0,.37.11.16-.12.23c0,0,0,0,0,0,.23,0,0,.14.12.19s0,.06-.07.08h0c.24,0,0,.12.05.13.29,0,0,.16.3.2,0,0-.07,0-.1,0l-.07,0c.27.05,0,.14.11.21s-.07.18-.05.28,0,.13.09.19.12,0,0,.08,0,0,.05,0,.12,0,.07,0-.22.23-.13.3,0,0,0,.07-.11.07,0,.09,0,.07,0,.11,0,.19.26.24l0,0c-.14,0-.16.08-.13.12s0,.23,0,.34a1.39,1.39,0,0,0,.15.58c0,.06-.11.14.11.18l-.09,0-.19,0,.16,0c-.3.08.17.16-.08.24,0,0-.05,0,0,0,.27,0,.13.14.2.21s-.1.19,0,.25-.12.23.13.32c0,0,0,0,0,0-.27.07,0,.13-.06.18s.11.12-.09.17,0,0,0,0,.2.1.07.16h0c.44,0,0,.13.06.19s-.13.16,0,.24,0,0,0,0c-.32,0,0,.06,0,.07.29.06.08.16.09.23s.09.19-.05.28a0,0,0,0,0,0,0c.36,0,.06,0,0,.06s.17.07.07.12,0,.21.12.26.16.08,0,.13h0c.26.07-.15.16,0,.21s-.08.21.2.28c0,0-.08.08-.11.12s.14.13-.16.16c0,0,0,0,0,0,.35,0,.13.11.13.18s-.07,0,0,0c.26.08.06.08-.14.08l-.1,0,.08,0c.27,0,.29,0,.25.08s.13.1-.11.14c0,0-.05,0,0,0h.09c.21,0,.2,0,.19,0s.11.14,0,.22,0,.1.21.07a.12.12,0,0,1,.09,0s0,0-.05,0c-.36,0-.08.09-.18.13s.27.13-.17.14h0c.31,0,0,.11.15.16s.15.11.09.18.09.11.11.16,0,.18,0,.26.11.19,0,.29,0,.06.07.06c.25,0,.11,0,.09,0s.06.11,0,.17-.09.13-.06.18.1.16,0,.24h0c.16,0,.22,0,.16,0a.76.76,0,0,1-.31,0s-.1,0-.12,0h.1c.12,0,.28,0,.18.08s.08,0,.11.07.12,0,0,0-.2.08,0,.11,0,0,0,0-.14.09-.09.13-.11,0-.19.06.24,0,.27,0-.09.07-.1.11-.07.1,0,.15.09.1,0,.16-.11.21.16.29c0,0,0,.06,0,.07s0,.1-.14.14,0,0,.07,0,.09,0,.09,0-.2,0-.15,0,.18,0,.24,0l0,0H301a.29.29,0,0,0-.16,0s0,0,.07,0,.14,0,0,.06c.07,0-.1.07.11.06l0,0c-.2,0-.13.14-.33.2s0,0,.07,0,.2,0,.19.06-.13.18.09.26c0,0,0,0,0,0-.19.09-.2.12-.08.22s-.07,0-.09,0,.06.09.09.12-.13.18-.06.27.09.07-.1.09c0,0,0,0,.09,0s.08,0,.09,0c-.28,0,0,.08-.15.12s0,.1,0,.11c.19,0,.11,0,.09.09s-.05.06,0,.06.16.1-.16.09v.06s0,0,.06,0,.15-.06.2,0-.11.05-.19.06c.14,0,.15,0,.16.08s-.18.1,0,.15c.05,0-.1,0-.17,0s-.13,0-.14,0,.06,0,.11,0,.12,0,0,.06-.16.09-.18.13,0,0,0,0,.29,0,.23.06-.23,0-.29,0-.16.06,0,0,.08,0,.1,0a.52.52,0,0,1,0,.35c0,.11,0,.21-.07.31s.09.13,0,.2,0,0,0,0,.13.07,0,.12c.2,0-.11.1.13.11-.24,0-.1,0,0,.08-.27,0,.09.14-.26.17h0c.15,0,.25,0,.22.08s0,.16,0,.24,0,.08,0,.11-.13.1-.11.16,0,0,0,.06.08,0-.05.07-.07.07,0,.09h.1c.06.05-.1.06-.18.09s.32,0,.15,0-.07.1-.26.11c0,0-.05,0,0,0s.15,0,.06.06a0,0,0,0,0,0,0,.19.19,0,0,0,.13,0,.16.16,0,0,1,.12,0l-.05,0c-.09,0-.22.1,0,.13s.19,0,0,.08-.11,0-.1,0,0,.24.06.36-.16.11.13.12a.36.36,0,0,0-.12.08c-.06.11.05.22-.19.32,0,0,0,0,0,0s.14.09.06.15,0,.19.09.28,0,0,0,.06a.34.34,0,0,0-.1.3c0,.08.07.18,0,.24s.13.13.13.2,0,.06-.06.08-.23.07.06.07c.12,0,0,0,0,0-.35,0-.14.09-.12.13s.06.06,0,.1,0,.07,0,.11.14.12-.09.18c0,0,0,0,0,0,.23,0,.26.1,0,.17s-.1,0,0,0,.3.06,0,.11c-.05,0,0,0,0,0s.13.11.12.17a1.24,1.24,0,0,0,.05.38s0,0,0,.06-.09,0,0,0,.15,0,.16,0l-.15,0s0,.08,0,.11-.1.17,0,.25-.23.1.11.07c.05,0,0,0,.05,0s-.33,0,0,.07h-.06c-.05,0-.38,0-.05.06-.1,0-.05.07,0,.1s.27.09,0,.14c.28.07-.06.18.15.25,0,0,0,0-.05,0s-.14,0-.16,0H301c.06,0,.12,0,.08,0-.32.11-.07.21,0,.3s-.2.12,0,.16l0,0-.1,0a.43.43,0,0,0-.2,0,.52.52,0,0,0,.15.06c.3.06.12.16.13.24s-.06,0,.06,0c.29,0,.11,0,.07.05s0,.11-.07.14.24.18-.14.25c.15,0,0,.1.12.15s.23,0,0,.08c-.06,0,0,0,0,0s.16.11-.18.13h-.1l.06,0a.83.83,0,0,1,.28,0c.1,0-.16,0-.13,0s0,.14.1.19h0c.12,0-.1.06-.16.09.11,0,.24,0,0,.08,0,0,0,0,0,0,.44,0,0,.07,0,.09s-.22.1.1.06c0,0,.05,0,.07,0s0,0-.07,0c-.25,0-.23.07,0,.11s.12,0,.11,0-.11,0-.17,0l-.12,0s.07,0,.11,0,.11,0,0,0,0,.08,0,.11.11,0-.07,0l.12.1s.2,0,.17,0a1,1,0,0,1-.23.06h-.1s.07,0,.1,0,.35,0,.06.06c0,0-.07,0,0,0s.08.09-.16.1c0,0,0,0,0,0a.13.13,0,0,0,.11,0,.22.22,0,0,1,.19,0c-.12,0,0,.07-.16.07h-.11l.09,0H301c-.15,0,.15.12-.17.15h0a.93.93,0,0,1,.27,0c-.18,0,.09.11-.17.14,0,0,0,.08,0,.1a.59.59,0,0,1,.07.31c0,.1-.21.21.07.3-.31.05.13.13-.15.18-.11,0,0,0,0,0,.21,0,.17.06.11.1s-.14.07.06.09c0,0,.06,0,0,0-.45,0,0,.11-.07.16s0,.29-.05.43a1.06,1.06,0,0,0,0,.5c0,.12,0,.25,0,.36s.1.2,0,.26c-.29.12.16.2,0,.31s.17.08-.09.1c.11,0,0,.08,0,.11s.17.06-.08.07c0,0,.18,0,.18.07s.08.15.06.23.16.15-.08.22c.26,0-.07.12,0,.19s0,.1.08.16-.09,0-.11.05-.13.11.17.1c-.06.06.11.11,0,.16s-.06.08.12.11.22,0,.21.06c-.18,0-.19.09-.4.07h-.11c-.05,0,.07,0,.07,0s.29.13.21.22,0,.15-.33.17a.09.09,0,0,0-.05,0l.05,0c.43,0,.34.07.31.22h0s.25,0,0,0c.08,0-.17,0,.08,0s.06.06.06.09-.09.1.17.1h.06c-.31,0,0,.11-.24.14,0,0,0,.06,0,.07.34,0,.17.13.26.19s0,.1.2.13c0,0,.1,0,0,0-.34.07-.12.16-.17.24s0,.25,0,.38.06.1-.2.12c.18.06-.08.11-.13.16s.27,0,.19,0,.06.07-.09.1c.08,0-.18.08.09.08.06,0,.07,0,0,0-.2,0-.09.07-.15.1s-.17,0-.18,0,.15,0,.15,0-.05.07-.13.07-.12.08-.12.08C301.48,115.55,301.07,115.62,301.3,115.67ZM296.4,4.46c.07,0,.14,0,.14,0s0,0-.1,0,.07.05-.09.05S296.37,4.46,296.4,4.46ZM295.22,7c.11,0,.13,0,.16,0s0-.1-.24-.07l.05.06S295.1,7,295.22,7Zm.23.62a.08.08,0,0,0,0,0s-.05,0-.08,0l-.09,0S295.33,7.64,295.45,7.63Zm-.12,2.6s.11,0,.08,0-.17,0-.27,0-.11,0-.09,0A.62.62,0,0,0,295.33,10.23Zm-.08.55h.09s-.07,0-.11,0h-.1Zm.16.54c.06,0,.12,0,.12,0s0,0-.11,0-.12,0-.13,0S295.35,11.32,295.41,11.32Zm1.57,1s.1,0,.12,0,0,0-.07,0a.37.37,0,0,0-.16,0Zm-1.13,1.55s0,0,0,0-.11,0-.18,0-.08,0-.08,0S295.8,13.88,295.85,13.91ZM295.74,15l.17,0s-.07,0-.09,0l-.17,0S295.7,15,295.74,15Zm.3.83s.09,0,.06,0a.15.15,0,0,0-.1,0c-.05,0-.05,0-.05,0S296,15.87,296,15.86Zm-.29.89a.71.71,0,0,0-.19-.06c-.05,0-.06,0-.08,0s.11,0,.19,0S295.78,16.76,295.75,16.75Zm-.11,2a.18.18,0,0,0,.13-.05s0,0-.06,0-.12,0-.14,0Zm1.93,8.34,0,0s0,0-.07,0,0,0,0,0S297.49,27.13,297.57,27.13ZM295.79,29s.09,0,.08,0-.06,0-.11,0-.09,0-.08,0S295.74,29,295.79,29Zm1,.64a.2.2,0,0,0,.14,0s0,0-.06,0-.12,0-.13,0Zm.73,4.74h-.06a.2.2,0,0,0-.09,0S297.44,34.4,297.49,34.4Zm-1.85,8s-.11,0-.14-.06-.18,0,0,.06Zm2.36.82c.05,0,.07,0,.07,0s0,0-.06,0-.05,0-.07.05S297.94,43.22,298,43.22Zm-2.46.9.06,0s-.1,0-.18-.05S295.42,44.11,295.54,44.12Zm2.33.08a.75.75,0,0,1,.22,0,.4.4,0,0,0-.2,0c-.08,0-.09-.06-.18,0s-.06.08,0,.09S297.81,44.2,297.87,44.2Zm-2.38,10s.06,0,0,0-.12,0-.15,0S295.39,54.21,295.49,54.2Zm-.29.33c.06,0,.19,0,.13-.05a.38.38,0,0,0-.15,0C295.07,54.49,295.17,54.51,295.2,54.53Zm1.89,5.17s.09,0,.05,0l-.23,0-.05,0A.55.55,0,0,0,297.09,59.7ZM296,62.35c.08,0,.1,0,.07,0s-.08-.18-.35-.23c0,0,.05,0,0,0a.07.07,0,0,0-.05,0s.09.06,0,.1S295.69,62.35,296,62.35Zm2,5.34s-.05,0-.08,0-.09,0-.09,0,.09,0,.11,0S298,67.71,298,67.69Zm-.73,10.87h.09l-.18,0s0,0,0,0S297.16,78.56,297.24,78.56Zm-.25.23c.12,0,.33,0,.3-.06s.1-.12-.11-.11a.31.31,0,0,0-.25.13S296.88,78.81,297,78.79Zm.14.1c.05,0,.13,0,.12,0s-.07,0-.13,0-.13,0-.11,0S297.05,78.9,297.13,78.89ZM297,86.1c.07,0,.18,0,.2,0s-.06,0-.1,0-.2,0-.23,0S296.94,86.11,297,86.1Zm.35,1.74c.05,0,.08,0,.08,0s0,0-.1,0-.06,0-.06,0S297.31,87.84,297.36,87.84Zm2.52,1.25c.05,0,.13,0,.14,0s0,0-.1,0l-.16,0S299.83,89.09,299.88,89.09Zm-2,1.78c.11,0,.12,0,.11-.05s0,0,0,0-.14,0-.14,0Zm.42,1.63h.06a.53.53,0,0,1,.37-.12c.05,0,0,0,0,0-.36,0-.26-.09-.34-.15s.06,0,0,0-.19,0-.16.07,0,.12,0,.18S298.22,92.49,298.33,92.5Zm.37.34c.08,0,0,0,.05,0s0-.11,0-.16,0-.07-.13-.07-.11,0-.13,0-.08.16,0,.23A.26.26,0,0,0,298.7,92.84Zm1.88,2.7c.38,0,.18-.08.21-.13h-.08s.11.11-.2.12Zm-.45,3a.47.47,0,0,0,.23,0s0,0,0,0a.45.45,0,0,0-.18,0S300.13,98.54,300.13,98.54Zm-1.4,5.68.06,0s-.07,0-.12,0-.1,0-.08,0A.3.3,0,0,0,298.73,104.22ZM298.2,106s.17,0,.21,0-.06,0-.08,0a.37.37,0,0,0-.2,0S298.14,106.05,298.2,106Zm.31,6c.07,0,0,0,0-.06s-.09,0-.09,0S298.47,112,298.51,112Zm0,.22c.06,0,.11,0,.1,0s.08-.12-.06-.17-.3.07-.26.07.1.07.1.11S298.38,112.26,298.47,112.25Zm1.1.82s.08,0,.06,0-.05,0-.15,0-.09,0-.05,0Zm1.57.12a.89.89,0,0,0,.23,0,.72.72,0,0,0-.26,0S301.1,113.18,301.14,113.19Z"/><path d="M106.64,6.21l-13-.09L79.8,5.84c-9.69-.21-19.37-.48-29.07-.63-5-.08-9.92-.22-14.87-.38-10.55-.35-21.12-.35-31.7-.17-1.22,0-2.46,0-3.67-.1A.7.7,0,0,1,0,4.28s.27-.14.47-.16C1.05,4.06,1.66,4,2.27,4l14.55-.17,9.3-.22,14.16-.21,12.31,0,21.65-.15L88,3.12l13.43,0,17.91.14c1.73,0,3.47-.09,5.21-.09h21.6L169,3.14l13.81,0,19.79.06L210,3.3l24.25.27,22.35.32c5.59.06,11.2,0,16.79,0h10.46l15.68,0,4.84,0a3,3,0,0,1,.75.2,2.62,2.62,0,0,1-.7.23c-4.78.26-9.54.54-14.35.74-3.07.12-6.21.18-9.31.14-7-.07-13.92.17-20.87.3l-17.15.27-11.9.3-7.45.12-17.89.19L185,6.56c-.62,0-1.25,0-1.87,0-6.09-.16-12.18,0-18.27,0l-20.53-.12-13.43,0h-6l-13.43,0c-1.62,0-3.23-.08-4.85-.11Z"/><path d="M307.32,107.2c-1.41.27-3.25-.16-4.36.56.52.5.52.5.17.95.57.15,1.31,0,1.82.15a1.56,1.56,0,0,1-1.2.53c-.15,0-.12-.17-.33-.22a2,2,0,0,0-1.68.18c-.52.41-.85.84-.38,1.32,0,0-.07.11-.14.14a.81.81,0,0,1-.35.07c-1.7-.16-3.42,0-5.13,0a10.06,10.06,0,0,1-1.56-.09,3.89,3.89,0,0,0-1.18,0,19.72,19.72,0,0,1-3.17,0c-1.91-.07-3.84-.1-5.76-.14a13.78,13.78,0,0,0-2.69.27,20.94,20.94,0,0,1-4,.36c-2.66,0-5.32,0-8,0a7.56,7.56,0,0,0-2.3.22,3.92,3.92,0,0,1-.95.08l-4.58.14c-.93,0-1.85,0-2.77-.07-2.92-.17-5.84-.08-8.76,0-.53,0-1.05,0-1.58,0a8.54,8.54,0,0,0-2,.07,16,16,0,0,1-4.69-.09,37,37,0,0,0-4.73-.25c-1.19,0-2.38.05-3.57.1a16.26,16.26,0,0,0-1.74.18,10.45,10.45,0,0,1-1.14.13,10.16,10.16,0,0,1-3.45-.22,9.17,9.17,0,0,0-2.51-.2c-1.33,0-2.69-.07-4,0-1.59.12-3.17,0-4.75.09a7.86,7.86,0,0,1-1.37-.06,39.44,39.44,0,0,0-4.36-.17l-8.38,0c-3,0-6,0-9,0-.9,0-1.81.13-2.72.2a3.65,3.65,0,0,0-1.45-.19h-3c-1.4,0-2.78,0-4.17-.11a18.38,18.38,0,0,0-3,0,32.31,32.31,0,0,1-3.94,0c-1.81-.06-3.58.18-5.37.08a2.68,2.68,0,0,0-.56.07,3.16,3.16,0,0,1-2.13-.08,21.49,21.49,0,0,0-2.78,0c-.91.08-1.83.16-2.76.18a20.16,20.16,0,0,1-3.72-.17,23.54,23.54,0,0,0-4-.17c-2.13,0-4.24-.08-6.35-.18a7.08,7.08,0,0,0-1.38,0,46.43,46.43,0,0,1-10.42.31c-.87-.06-1.72-.1-2.58-.09l-9.75.11c-1,0-2,.06-3,.16-1.15.13-2.37.1-3.5.29a5.28,5.28,0,0,1-1.19,0,42.17,42.17,0,0,0-8.85.2,9.68,9.68,0,0,1-2.69.06c0-.09.06-.19-.35-.27-1.13,0-2.46-.09-3.78-.07-5.53.09-11-.07-16.56-.1l-7.57,0a5.13,5.13,0,0,0-1.35.11,9.31,9.31,0,0,1-2.7.22l-3.79,0c-.42,0-.85,0-1.34-.06l.37-.19a1,1,0,0,0-.21-.07c-1.19-.08-2.39-.06-3.59,0a2.61,2.61,0,0,0-.75.07,5.22,5.22,0,0,1-2.25.23c-1.39,0-2.78.07-4.16.08-2.19,0-4.38-.09-6.57-.14-.12,0-.24,0-.46-.08,1.43-.15,2.82,0,4.3-.1a5.35,5.35,0,0,0-1.84-.12c-3.66-.09-7.31,0-11,0-.66,0-1.33,0-2,0a100.42,100.42,0,0,0-10.7.16,17.17,17.17,0,0,0-3.46.22,13,13,0,0,0-2.89-.21c-.83-.1-1.69-.15-2.55-.19a17.24,17.24,0,0,0-3,0,44.11,44.11,0,0,1-5.56.25c-.37-.18-1-.22-1.35-.47.12,0,.25,0,.36,0s.25,0,.17,0l-.17,0H8.65L7,110.88c0-.27.37-.38.85-.43l1.41-.1c-.46-.36-1.38-.3-1.87-.55,0-.22.72-.13.69-.35s0-.29,0-.47l-.85,0c-.38,0-.7-.13-.63-.29.13-.31-.58-.18-.72-.33s0-.11,0-.17.6-.27.69-.4,0-.52.06-.8l-4.72-.29a2.8,2.8,0,0,0,1.58-.45,1.15,1.15,0,0,1,1-.07,2.4,2.4,0,0,0,2.37-.2,12.92,12.92,0,0,0-2.77-.61c0-.2.58-.34.08-.51l.54-.09c0-.06,0-.13-.08-.15-.39-.09-.93,0-1.18-.27a2,2,0,0,0-1-.25,2.5,2.5,0,0,1-1.22-.42c-.15-.3.63-.29.76-.48a.7.7,0,0,1,.56-.43l-.73-.56a.84.84,0,0,1,.29-.08c1.41,0,2.77-.16,4.16-.17l7.38-.06c2.59,0,5.17-.08,7.75-.16,3.51-.12,7-.3,10.54-.21,1.79,0,3.59,0,5.38-.06,3.13,0,6.26-.09,9.38,0,2.19.09,4.38.15,6.58.13,2.47,0,4.91.08,7.37.16,2.11.07,4.25.06,6.38,0l9.34-.19a36.36,36.36,0,0,1,3.76.15c1.55.13,3.17.1,4.76.12,2.25,0,4.5,0,6.75.13a29.83,29.83,0,0,0,3,0,22.47,22.47,0,0,1,3.31-.11c1.07.1,2.26-.07,3.36,0s2.38,0,3.57.06a40.21,40.21,0,0,0,5.16-.16,15.49,15.49,0,0,1,2.55,0c2.35.15,4.72.27,7.11.26a6.93,6.93,0,0,0,2.06-.26,11.91,11.91,0,0,1,3.19-.42c5.65-.18,11.29-.09,17,0l7.76,0,4.59,0,9.57.06h7.59c2.32,0,4.64-.11,7-.06l7.77.13c.26,0,.53,0,.8,0,3.44-.11,6.91,0,10.35-.21.46,0,.93,0,1.4,0l8,.1,7.38,0,8.57,0a79.36,79.36,0,0,1,9.13.29c.32,0,.66,0,1,0,3.39,0,6.79.1,10.17,0,4.18-.09,8.37-.11,12.56-.12l4.39.06,25.14.16c2.8,0,5.59.12,8.37.23,2.26.09,4.52.07,6.78.06a10.87,10.87,0,0,1,3.09.22,8,8,0,0,0,1.55,0c.21.09.38.21.19.32-.46.27-.34.55-.2.82.39.33,1.3.15,1.72.41h-.14l-.49.1a2.59,2.59,0,0,0,.33.19,1.23,1.23,0,0,0,.29.08l.05,0v0h0a2.13,2.13,0,0,1-.95.3l-.63-.17c-.21,0-.21.08-.29.12-1.26.55-1.43,1.22-1.06,2,.06.11,0,.24.34.38a19,19,0,0,1,2.61.12c.62-.18-.09-.34.17-.49C307.59,106.6,307.3,106.93,307.32,107.2Zm-246.5,4.33a5.54,5.54,0,0,0-1.91,0A5.08,5.08,0,0,0,60.82,111.53Zm119.2-.67c-.06,0-.1-.1-.18-.11a1.45,1.45,0,0,0-.36,0c-.15,0-.14.09,0,.12A.84.84,0,0,0,180,110.86Zm17.46,0-.16,0c-.17,0-.18.06,0,.1a.37.37,0,0,0,.15,0S197.47,110.93,197.48,110.9Zm9.39-.12-.35,0,.15,0h.18S206.86,110.8,206.87,110.78Z"/><path d="M306.4,108.35a3.25,3.25,0,0,0-2.29-.08l.84.59C305.32,108.62,306.18,108.69,306.4,108.35Z"/><path d="M308.65,104.45a.78.78,0,0,0-.43-.13c-.29,0-.4.13-.4.26s.12.16.36.17S308.78,104.56,308.65,104.45Z"/><path d="M44.77,111.61h.77A1.42,1.42,0,0,0,44.77,111.61Z"/><path d="M301.46,110.65h-.09A.1.1,0,0,0,301.46,110.65Z"/><path d="M302,110.6a.89.89,0,0,0-.55.05C301.65,110.66,301.86,110.72,302,110.6Z"/><polygon points="200.6 111.48 200.71 111.47 200.57 111.45 200.6 111.48"/><path d="M306.51,104v0h-.05Z"/><path d="M306.51,104v.29C306.62,104.16,306.59,104.06,306.51,104Z"/><path d="M5.24,105.71l-.17,0s0,.06,0,.06l.16,0Z"/><path d="M302.18,109.35c-.14,0-.12.08,0,.09s.1,0,.15,0,0,0,0-.06A.46.46,0,0,0,302.18,109.35Z"/><path d="M300.78,111.42s0,0,0,.07h.12l0-.07Z"/><path d="M190.08,111.38h0Z"/><path d="M189.75,111.4l.33,0C190,111.37,189.84,111.31,189.75,111.4Z"/><polygon points="9.89 110.98 9.89 110.98 9.88 110.98 9.89 110.98"/><polygon points="6.31 76.28 6.32 76.28 6.3 76.28 6.31 76.28"/><polygon points="16.36 114.94 16.35 114.94 16.36 114.94 16.36 114.94"/><polygon points="6.5 70.02 6.52 70.02 6.51 70.02 6.5 70.02"/><path d="M16.8,114.9l-.44,0a1.19,1.19,0,0,1-.16-.08.64.64,0,0,0-.4,0c-.34.06-.59.06-.59,0s-.19,0-.42,0-.66.06-.53,0,.19-.11-.14-.13c0,0-.07,0,0,0,.69-.14-.24-.07-.37-.1s-.48-.06-.44-.14.05-.08-.43,0c-.29,0-.58,0-.5-.06s.17-.11-.24-.11c-.24,0-.1-.07,0-.11s-.25-.13-.09-.21-.08,0-.18,0c-.49.06-.62,0-.64,0s0-.05-.19-.05-.26,0-.16-.06.08-.1,0-.14.06-.08-.33-.05c-.06,0,0,0,.1,0s.06-.07.06-.07c-.61-.06-.36-.21-.61-.31-.09,0,0-.1-.26-.13h0c.65-.08.07-.13.34-.21s0,0-.05-.07-.3,0,.08-.11c.16,0-.14-.08,0-.13-.75,0-.22-.1-.24-.14a2.59,2.59,0,0,0-.37-.37c-.09-.09.34-.18.42-.27s.42-.11-.2-.06c-.2,0-.28,0-.16-.05a5.21,5.21,0,0,1,1.08-.27c.09,0,.23,0,.14,0-.61,0-.13-.05,0-.09s-.12,0-.18,0a.49.49,0,0,0-.22,0,.46.46,0,0,1-.27.06c-.28,0-.21,0-.32-.06s0,0,.1-.06l.42-.08c.23,0,.17-.08.06-.1a3.65,3.65,0,0,0-.55,0l0,0c.61-.06.46-.13.5-.19s-.19-.07-.46-.08a1.48,1.48,0,0,1-.39,0s-.17,0,0-.07a.6.6,0,0,1,.33,0s.08,0,.29,0,.44,0,.3-.07-.21-.17-.49-.24c0,0-.07,0-.06,0s-.06-.07-.08-.16-.56-.2-.28-.37.12-.18,0-.27-.17-.12-.1-.15,0-.15,0-.22-.11-.05.15-.1-.21-.13.3-.22c-.71,0-.37-.08-.16-.15s-.35,0-.29-.1,0-.23.07-.35.13-.25,0-.36.26-.15.19-.22.05,0,0,0c-.38-.06-.34-.17-.39-.26s-.22-.23.14-.32.06-.11,0-.17a.34.34,0,0,1,0-.46c.05-.06-.07-.13-.14-.19s.19-.19,0-.27c0,0,0,0,0,0,.65-.15.12-.22,0-.32s-.28-.09.33-.13l.11,0H9.73c-.37,0-.37,0-.3-.09.27-.2.49-.41.5-.6s-.11-.16-.19-.24,0,0,0,0c.52-.16.13-.24,0-.35s-.08,0,0-.06c.69-.13.09-.18.23-.26s-.34,0-.24-.07-.17,0,0,0a1.87,1.87,0,0,1,.33,0,.84.84,0,0,0,.55-.1c.11,0-.15,0-.38,0a1,1,0,0,0-.26,0c-.14,0-.14.09-.34.06s-.16-.1.15-.14c.63-.1.38-.16.49-.24s-.07,0,.08-.06c.38-.06.09-.07,0-.09s-.64,0-.25-.14c.07,0,.08,0,0,0-.76,0-.34-.12-.68-.16.6-.12,0-.17.16-.25s.2-.09-.22-.08c-.15,0-.1,0,0,0s.29-.06.19-.06c-.46,0-.29-.09-.47-.12s0-.12-.16-.17,0-.05-.09-.07c-.27,0-.23-.13-.07-.17.46-.14-.09-.19.06-.29s-.29-.28,0-.46.07-.23-.17-.31c-.05,0,0,0,.11,0s.26,0,.15,0c-.38-.07-.28-.16.11-.28.1,0-.06-.09-.12-.13-.22-.13-.11-.28.45-.45.05,0,.2,0,.06,0-.71,0-.45-.17-.45-.27a1.42,1.42,0,0,0,0-.41c-.06-.14,0-.29.08-.43.62-.07.13-.14.55-.22.16,0-.14-.06,0-.11s-.2,0-.42,0-.3,0-.14-.05.39-.14.19-.2,0-.21,0-.32-.34-.1,0-.18c0,0-.14,0,0,0s.29,0,.27,0a1.44,1.44,0,0,0-.3,0c-.15,0-.29,0-.27,0s0-.07.15-.1.09,0,.12,0a.59.59,0,0,0,.35,0c.24,0,.1,0,.08-.07s-.11-.1-.5-.09c-.19,0-.24,0-.09-.07.63-.12.13-.16.15-.24s-.66-.06.16-.13c.17,0,0-.06,0-.06-.86,0-.09-.18-.27-.25s.6-.2.41-.28.07-.06.22-.08.35,0,0,0,.34,0,.2-.08.12-.17-.56-.17c-.18,0-.21,0,.17-.08a1,1,0,0,0,.36-.06s0,0-.06,0a1,1,0,0,0-.37,0s-.14,0-.16,0-.06-.06,0-.1.12,0,.23,0h.1c.31,0,.76,0,.83,0s.2-.18,0-.24-.92-.18-.53-.36c.17-.08,0-.17-.16-.23s0-.08-.08-.12c-.35-.24-.43-.52-.29-.81,0,0-.06,0-.13,0s-.11,0,.11,0a1.2,1.2,0,0,0,.56-.09c.16-.06-.15,0-.34,0s-.23,0-.14,0a.55.55,0,0,1,.31,0,.64.64,0,0,0,.19,0c.08,0,.05,0,0,0s0,0,0-.07.42-.15-.37-.07c-.09,0-.1-.19,0-.21.28,0,.48-.06,0,0-.1,0-.13-.08.05-.13s.2-.07.06-.1c-.38-.09-.33-.22-.48-.34s.14-.1,0-.15,0,0,.25,0,.26,0,.19-.06-.29,0,0,0a1.06,1.06,0,0,1,.35,0,.74.74,0,0,0,.26,0,.07.07,0,0,0,0-.11.72.72,0,0,0-.24,0,.61.61,0,0,1-.27,0c-.09,0,0,0,0,0s0-.06-.23,0c0,0,.15,0,0-.06-.38,0-.24-.12-.22-.2a.29.29,0,0,1,.14,0c.12,0,.13,0,.13,0s0,.08.23.06.25-.07.22-.09.38-.11.72-.14.35,0,.25-.08-.14,0,0-.07,0-.08-.22-.06c-.57.06-.67,0-.29,0,.11,0,.05,0,0-.05l-.22,0c-.06-.09.18-.21-.45-.24l.07,0c.57,0,.39-.11.62-.16s.27-.09,0-.11-.21,0-.13-.07,0-.09-.4,0a1.67,1.67,0,0,1-.57,0c-.08,0-.08-.11.15-.15s.07,0,.05-.05-.24-.09.13-.19a.33.33,0,0,0,.26-.21.38.38,0,0,0-.16,0,.29.29,0,0,0-.21.05c-.06,0,0,0-.2,0s-.07,0,0,0c.31-.12.11-.19,0-.27s0-.11,0-.17a.87.87,0,0,0-.24-.07c-.12,0-.37-.07.2-.13h0c-.89.09-.4-.09-.81-.09.28-.08-.19-.1-.14-.16s-.16-.08.14-.13-.27,0-.13-.06-.31-.06.25-.1c.24,0,0,0,0,0s-.88,0-.18-.12c-.36,0-.14-.09-.11-.14s-.52-.11-.26-.21,0-.18-.24-.25c-.1,0-.11-.08.28-.12-.2-.06,0-.15-.12-.21s0-.09-.24-.12c0,0,0,0,0,0,.35-.06.33-.06.08-.1-.06,0,0,0,0-.07s.21,0,.12,0c-.34,0-.25-.12,0-.21.08,0-.39,0-.23-.08l.24,0a3.24,3.24,0,0,1,.55,0,.62.62,0,0,0,.28,0c.06,0,0,0,0-.05s-.2,0-.07-.06c.54-.1,0-.08-.19-.09-.43,0-.45-.13-.07-.22.1,0,.37-.08-.09,0s-.46,0-.51-.08.47-.16.55-.24.12-.1.07-.14.09-.08-.19-.06-.21.06-.24.09-.09,0-.07.06.22,0,0,.08H7.55s-.16-.06-.08-.08c.33-.1,0-.13-.25-.16s0-.06,0-.1a1.54,1.54,0,0,1,.34,0c.21,0,0,0,0,0s0,0,.1,0L8,86c.13,0,0,0,0,0s0-.16-.69-.13c-.06,0-.15,0-.09-.06.65-.13-.34-.12,0-.22.06,0-.2,0,.2-.08.22,0,.11,0,.1-.06s-.09-.22-.21-.33a.22.22,0,0,1-.1-.21c0-.07-.27-.12-.13-.2s0,0-.14,0-.32-.06-.12-.1,0-.13.57-.1c.09,0,.14,0,.15,0s0,0-.17,0c-.7,0-.61,0-.27-.14s.79-.2.45-.28c-.08,0,.09-.07.08-.11s-.47-.19-.21-.32c0,0-.07,0,.13-.07.45-.07.28-.11,0-.14s-.34-.07-.11-.16.08-.19-.06-.27-.22-.05.23-.1.2,0,0-.09a1.74,1.74,0,0,1-.54-.23,3.07,3.07,0,0,0-.66-.27c-.19,0,.13-.11,0-.15s-.35-.12,0-.22c.18-.05-.36,0-.16-.06s-.11-.11.22-.19c.1,0,.09,0,0-.06s-.14-.07-.09-.13.22-.16-.06-.21,0-.11,0-.16-.15-.18-.16-.27,0-.43,0-.64S6,80,6.06,79.92s.31-.15.11-.2.48-.19.39-.27.23-.22.19-.33.56-.25.29-.34.13-.3-.18-.41c-.07,0-.08-.07.12-.11s.44-.07,0-.06H6.89c.76-.09,0-.07,0-.09-.37-.11-.08-.29-.69-.37.6-.09-.4-.11.24-.2a.11.11,0,0,0-.06,0c-.1,0-.35,0-.16,0a1.61,1.61,0,0,1,.49,0,1.31,1.31,0,0,1,.42,0s.14.06.42,0,.17-.06.16-.09A3,3,0,0,1,7.58,77c0-.11.11-.22-.31-.28-.13,0,0,0,.11-.06a.93.93,0,0,0,.38-.16c.06,0-.07-.06-.22-.06s-.08,0-.1.06a1.05,1.05,0,0,1-.38,0c-.16,0-.35,0-.17-.07s.35-.08.26-.09c-.36,0-.24-.14-.83-.11.58-.12,1-.23.56-.33-.06,0,0,0,0-.07.51-.11.16-.12-.25-.11s-.07-.09-.36-.09c.13,0,.08-.06-.16-.05s-.14,0-.15,0-.48-.31-.27-.5-.4-.19.46-.33c0,0,.24,0,.06,0-.47,0-.27-.06-.26-.11s.19-.12-.32-.11c-.15,0-.17,0,0-.06.46-.11.4-.18,0-.23s-.14-.15-.27-.22,0,0,0-.05,0,0,.12,0,.17,0,.18,0,0,0,.17,0,.13,0,.11-.06c-.2,0,.15-.16-.52-.16-.2,0-.18-.09-.14-.11.34-.13,0-.19-.14-.27s-.48-.16-.17-.28c0,0,0,0,0,0-.36,0-.11-.09.21-.14.11,0,.24,0,.17-.06a.83.83,0,0,0-.27,0,.58.58,0,0,1-.24,0c-.11,0,0,0,.08,0,.37,0,.3-.07.18-.08-.42-.06-.41-.09.15-.21,0,0,.07,0,0,0-.5-.08-.07-.26-.37-.37,0,0,0,0,.08-.09.25-.13.36-.25.19-.36s-.2,0,.17-.1c.12,0,.15,0,0,0-.41,0-.24-.06-.09-.09.69-.12.48-.2.3-.28s-.21,0-.11-.07a4.91,4.91,0,0,1,.59,0c.06,0-.25.1.13.07s.08-.06.18-.09c.35-.12-.18-.17,0-.28s-.09,0-.14,0a2,2,0,0,1-.63,0c-.06,0,0-.09.22-.13.61-.15.74-.32.29-.4-.21,0-.2,0,.18-.08s.57-.1.57-.16,0-.11-.26-.13c.13,0,.3,0,.32,0-.67.08.81-.18-.23,0-.14,0-.29,0-.25,0,.29-.06-.38-.06,0-.14h0c-1,0,.43-.2-.14-.23-.07,0-.06,0,0,0l.32-.07c-.38,0-.27,0-.55,0s-.2,0-.16,0c.26-.1-.13-.13-.19-.2s.1-.25.56-.38a1.64,1.64,0,0,0-.4,0c-.12-.06-.37-.12-.31-.19s-.24-.2-.07-.34,0-.17,0-.26-.08,0-.05,0c.33-.12.25-.21,0-.27s-.22-.09.06-.16c.11,0,.08-.07-.09-.07s-.24.05-.2.07-.06,0-.18,0c-.29,0-.07-.1-.24-.14s.2-.05.37-.07.22,0,.21,0c-.11-.2.41-.45-.19-.61-.09,0-.23-.08,0-.14-.56,0-.31-.06-.47-.09s.32-.14-.11-.18c-.26,0-.14-.13-.21-.19l-.23-.21s0,0,0,0c.3-.09.09-.13.19-.2s-.3,0-.26-.08a2.85,2.85,0,0,1,.43-.16c.16-.06.08-.07-.14-.06-.46,0-.23,0-.06-.06l.27-.07c.11-.09-.13-.17.21-.27.12,0-.09,0-.17-.06-.24,0-.38-.09-.12-.17,0,0,0,0,0,0-.66-.06.1-.25-.21-.34,0,0-.08,0,0,0,.86-.1.37-.15.3-.22s-.17-.06,0-.11-.13,0-.23,0S4,64.07,4,64s-.2-.11.41-.16c.08,0,.22,0,.18,0-.29-.05.19-.18-.41-.19-.16,0-.16,0,.32-.12.14,0,.18,0,0,0-.39,0-.33-.24.07-.31,0,0,.19,0,.13,0-.63,0,0,0,0-.06s-.41,0-.24-.06.32,0,.09,0a1.23,1.23,0,0,0-.38,0c-.16,0-.23,0-.15,0s.18-.14.11-.21-.31-.29-.24-.45.09-.16-.19-.21.3-.07.3-.11,0-.07,0-.11,0-.1.48-.09a1.94,1.94,0,0,0,.34,0c.12,0,0,0,0,0s-.33-.22-.12-.36,0-.29,0-.43.07-.11-.46-.07a.1.1,0,0,1-.08,0l.07,0c.89,0,.41-.1.52-.15.29-.12-.21-.19.09-.32,0,0,0,0-.12,0a1,1,0,0,1-.34,0c-.06,0,.09,0,.2-.07s.64-.12-.08-.08c0,0-.08,0-.08-.05S4.27,60,4,60c0,0,0,0,0,0,.69-.11,0-.15.17-.24s-.35-.1-.29-.17-.24-.26.44-.42c0,0,0,0,0,0-.34-.06.13-.2-.2-.27s-.1-.12-.1-.18-.18-.14-.2-.21-.53-.07-.06-.18c.12,0-.1-.08,0-.11.4-.13,0-.19,0-.28s-.62-.13.24-.25c-.14,0,.53-.12-.13-.08-.06,0-.19,0-.15,0,.26-.13-.15-.2-.19-.31s.49-.14-.18-.11a.43.43,0,0,1,.12,0c.68-.06.41-.12.3-.15s.26-.16-.2-.18c.46-.06.06-.06,0-.09s.35-.06.47-.07c.45,0,.46,0,.23-.06s0-.11-.54,0c-.2,0,0-.06-.1-.08H4c.18,0,.44,0,.37-.05a3,3,0,0,0-.62,0l-.16,0,.16,0,.26,0H3.72a1.91,1.91,0,0,1-.32,0c-.09,0,.11,0,.18,0,.29-.07-.16-.09,0-.16s0-.06,0-.09.23-.11-.18-.1c.36,0-.68-.05.17-.1,0,0,.06-.07,0-.1s.08-.14-.14-.18.18,0,.33-.06.33,0,.29-.07-.15,0-.35,0a1.66,1.66,0,0,1-.42,0s0-.09.13-.12.22,0,.24,0a.31.31,0,0,0,.22,0c.13,0,0,0,0-.05a1.27,1.27,0,0,1-.11-.13c.15,0,.28,0,.44,0s0,0,0,0c-.18,0-.25-.05-.47,0-.22-.12,0-.27.2-.42s.05-.21-.32-.27a.93.93,0,0,1-.37,0c-.13,0,0,0,.14-.07.6-.11.54-.18.35-.26s.05,0,.11,0c-.29,0-.44,0-.3,0s-.12-.09.2-.15c.13,0-.17,0-.26,0-.31,0,.07,0,.11,0s.22-.06.06-.06-.1,0-.05-.05c.22-.12.11-.25-.21-.27s-.06-.06,0-.1,0,0,0-.06-.19-.19.09-.32c-.55,0,.36-.13-.15-.13.33-.06.14-.1.1-.13-.21-.15-.26-.32,0-.51s0-.18.27-.29h0c.43-.08.19-.14.31-.22L4,51.59c-.39,0-.22-.12,0-.16.47-.09.07-.08-.09-.1l-.13,0a2,2,0,0,1,.24,0c.09,0,.17,0,.16,0s0,0-.21,0-.25,0-.19,0a1.43,1.43,0,0,1,.26,0l.15,0H4.06c-.37,0-.49-.07-.17-.13s.22-.09.11-.12c-.62-.18-.7-.41-.6-.66,0-.09.62-.19.57-.29s-.16-.08-.16-.14.64-.22.43-.31c0,0,.1,0,0,0a.34.34,0,0,0-.21.05c-.07,0,0,0-.17.06s0,0-.1,0-.21-.08,0-.15-.14-.08-.19-.12-.46-.35-.43-.55-.06-.24.23-.38c.13-.06.27-.1-.2-.09-.19,0-.09-.08,0-.12.35-.11.4-.19.05-.24-.17,0-.21-.06,0-.11s.15,0,.07-.05c-.25-.06-.5-.3-.25-.39s.11-.14,0-.19-.11-.21,0-.32.14-.09,0-.12,0-.06.18-.09c.56-.12.63-.24.17-.3-.18,0,.51-.08.22-.11.2,0,.08,0-.07,0s-.42,0,0-.07c0,0,0,0,0,0-.6-.07-.43-.2-.29-.33s.06-.1,0-.11c-.63,0-.1-.19-.08-.28s0-.1,0-.14-.12,0,.23-.09.14-.11.08-.13c-.24-.06.39-.08.37-.1s-.58.05-.45,0,.11-.09-.09-.12.15,0,.27,0l.28,0a1.07,1.07,0,0,0-.27,0c-.53,0-.53,0-.39-.14s.09-.21,0-.29,0-.06,0-.09S3.46,44,3.4,44s.32-.06.57-.07,0-.2,0-.3-.19-.18-.06-.3-.06,0-.1,0c-.46,0-.2-.12.08-.2.05,0,.18,0,.16-.06-.24-.12-.27-.25-.2-.39a.41.41,0,0,0,0-.34s0-.08.32-.11c-.06,0,.36-.07-.07-.06-.23,0-.44,0-.13-.08.14,0,.16-.07.13-.1s-.36-.27,0-.44c0,0,0,0-.11,0s-.22,0-.17,0c.47-.07,0-.07-.06-.08-.34,0,.1-.11-.09-.14s0-.12.2-.19.18,0,0,0c-.07,0-.23,0-.14,0,.61-.14.22-.22.25-.33s.09-.26-.11-.35.18-.17.21-.25-.1-.34-.1-.51,0-.24,0-.37A1.3,1.3,0,0,1,4,39c0-.05.09-.11,0-.16s-.15-.29-.11-.45-.12-.33-.08-.51.07-.11.15-.17-.11-.1,0-.17-.09-.05,0-.06c.44-.11,0-.15,0-.22s-.23-.11-.34-.17,0,0,.09,0c.6,0,.39-.11.81-.12,0,0-.25,0-.39,0a.93.93,0,0,1-.22,0c0-.05.16,0,.24,0s.42-.06.41-.07-.23,0-.34,0H4.16c.7-.11-.49,0-.15-.08s-.15-.08,0-.15-.06-.11.13-.18-.43-.05,0-.12c.17,0,.35,0,.32,0s-.21,0-.45,0S3.84,36,4,36s.22-.14.14-.16-.06-.13-.16-.19-.3-.09.13-.16c-.55-.06.19-.21.09-.28s-.35-.14-.25-.23-.14-.31,0-.47-.25-.29.26-.48c.12,0-.29,0-.19,0s-.48-.19.18-.35c.4-.09.22-.15.17-.22S4,33.2,4.22,33.1,4.05,33,3.84,33s-.17,0-.08-.05c.58-.12,0-.15-.08-.22s0-.06.21-.1c.5-.08.45-.15.17-.19s-.36,0-.12-.1c0,0,0,0,0,0-.25-.09-.1-.22-.24-.33s-.27-.15.07-.26c.15-.05.1-.09-.09-.11-.37-.05,0-.16,0-.23s0-.29-.1-.43,0-.08.11-.13,0-.11,0-.16,0-.12,0-.17,0-.17,0-.25,0,0,0-.07a.46.46,0,0,0-.19-.34c-.07,0,.08-.09.11-.13s-.16-.16,0-.27,0-.07.28-.1c.07,0,.16,0,.07,0-.52-.06-.15-.19-.14-.3s.17-.16-.12-.22c-.13,0-.34-.09.09-.18.09,0-.08-.08-.12-.12s-.34-.12.27-.21c-.2,0-.16-.11-.24-.16s0-.19.15-.29,0,0,0,0c-.34-.1-.33-.24-.29-.37s-.29-.2-.06-.33-.23-.09-.17-.11c.22-.08,0-.12,0-.17s0-.05,0-.08,0-.26,0-.39a.36.36,0,0,1,0-.24c0-.09,0-.19-.12-.28s-.15-.13,0-.22.27-.15,0-.19c-.11,0,0,0,.1-.05l.12,0c-.6,0-.31,0-.21-.08a.94.94,0,0,0,.18-.14s0,0,0,0c-.24-.15-.16-.32-.24-.48s.16-.28,0-.4.18-.16.11-.23,0-.17-.09-.25.21-.18-.14-.24c-.07,0,0-.09.41-.13,0,0,.16,0,0,0-.63,0-.27-.08-.21-.13s.23-.22,0-.31l0,0c1.19-.08,0,0,0-.08s0-.18.13-.29.3-.16-.15-.19c-.15,0,.09-.05.16-.08s.32-.07,0-.08,0-.08.12-.12c.47-.23.17-.4.16-.6s0-.21-.06-.3.08-.28,0-.4a.23.23,0,0,1,0-.25c0-.06-.19-.12-.19-.19s0-.06.1-.09.41-.17-.1-.2c-.32,0,.15,0,.09-.08s.22-.29-.28-.38c0,0-.05,0,0,0,.37-.11-.11-.15,0-.24s-.39-.22.21-.37l.06,0c-.83,0-.15-.13-.36-.18s0-.06.13-.08.13-.06.05-.08-.17-.09,0-.16.13,0,.11,0c-.2-.1.08-.24,0-.33s-.13-.18,0-.29.28-.09-.21,0c-.25,0-.06,0,0,0s.29-.16.2-.22-.06-.12-.11-.17,0-.16.06-.22-.34-.29.2-.48c-.47-.05-.17-.17-.17-.25s-.34-.13.3-.23c.11,0,0,0,0,0-.67,0-.26-.08-.24-.1.28-.15.15-.28.4-.44s-.4,0-.24-.09-.09-.16-.11-.25,0,0,.14,0l.12,0c-.57,0,.07-.11-.29-.12-.2,0-.07-.05,0-.08a5.77,5.77,0,0,1,1.32-.19l.17,0s-.09,0-.15,0a1.81,1.81,0,0,0-.74,0,1.5,1.5,0,0,1-.37,0c-.05,0,.2,0,.34,0s.39,0,.32-.06-.18,0-.31,0c-.28,0-.26,0-.25,0s.21-.11-.06-.16,0-.12-.32-.15l.05,0c.57-.06.42-.07.13-.11S3.2,14,3.18,14s-.2-.17,0-.26-.05-.06-.14-.08,0,0,.11-.05.3-.06-.07,0c-.18,0-.47,0,0-.11.2,0,.21,0,0,0s-.37-.06-.24-.13,0-.1,0-.15S2.67,13,3,13s.13-.07.09-.09-.15-.24-.18-.36A.21.21,0,0,1,3,12.22c.06,0-.37-.06.17-.11,0,0-.33,0-.31,0s.1-.15.44-.22c.1,0,.11,0,0,0-.47,0-.3,0-.26-.07s.53-.16,0-.18c-.06,0,0-.11,0-.17s-.37-.09.14-.16c-.62,0,.18-.13-.29-.12,0,0-.07,0,0,0,.44-.07.14-.08,0-.1s.13-.06.33-.08l.26,0s-.16,0-.22,0c-.35-.05-.68-.08-.56-.19s.19-.14-.14-.19c-.11,0,0-.09-.08-.14s-.37-.05.18-.09c0,0,0,0,0-.05-.34,0-.23-.07.14-.12.07,0,0,0,0,0-.66,0-.28-.06-.28-.1s-.1-.12.29-.2c.18,0-.28,0-.28,0s.34-.15.13-.2.18,0,.32-.05.26,0,.27,0,0,0-.22,0-.28,0-.22,0c.29-.09.06-.12-.13-.16s0,0,.07,0c.73-.07,0,0,0,0s-.18,0-.12,0c.53-.05-.1-.1.39-.16C2.6,9.06,3.11,9,2.6,9c-.1,0-.2,0-.1,0,.69-.13-.18-.18.33-.3-.6,0,.26-.13-.26-.12.18-.09-.1-.14-.06-.21s-.12-.07-.07-.09,0-.09.28-.11.31-.05.12-.07S2.4,8,3,7.92c.06,0,.14,0,.13,0a1.1,1.1,0,0,0-.25,0,1.31,1.31,0,0,1-.32,0c-.11,0,.09,0,.19-.06s.46-.09,0-.08q-.17,0-.09,0c.28-.1-.06-.18.12-.26s-.31-.06,0-.12.15-.1.15-.15-.55,0-.24-.09C3.1,7,2.7,7,2.7,6.88s-.05-.09.17-.1h0s0-.17-.09-.22.26-.13.31-.18-.05,0-.19,0c-.41,0-.5,0-.35-.06s-.16-.12.4-.19c-.35,0-.41-.06-.08-.13H2.79c-.78,0-.56-.06-.16-.17.17,0,0-.1-.17-.11-.35,0-.11-.06-.13-.08a2.44,2.44,0,0,1,.42,0,1,1,0,0,0,.29,0H2.77c-.39,0-.52,0-.28-.06s-.24-.1.32-.17c.08,0-.09,0-.16,0-.43,0-.35-.08,0-.15.13,0,.26,0,0,0S2.36,5,2.34,4.94s.27-.11.42-.17.08,0,.06,0c-.71,0-.08-.16-.29-.23s.07,0,.15,0c.27,0,.23,0,.09,0s-.53,0,0-.1c.14,0,0,0,0,0-.56,0-.63,0,0,0a.69.69,0,0,0,.17,0H2.65c-.28,0-.14,0-.19,0-.2-.09.2-.21.2-.31s.12-.05.28-.06c0,0,.27,0,0,0-.46,0-.28,0-.23-.07s-.22-.08.32-.11h.09s-.1,0-.17,0c-.56,0-.49,0-.38-.1s0-.12.09-.2,0-.09.11-.14-.25,0-.22,0c.32-.09,0-.1-.29-.12,0,0,.07,0,.13,0s.55-.1-.1,0H2.26c.16-.08-.08-.15.26-.24l.17,0c-.13,0-.1-.1-.17-.15s-.37,0,0-.1c0,0,0,0,0,0-.44-.08-.41-.08-.09-.23.11-.06-.12-.1-.19-.14S2,2,2.11,1.87s.05-.13.47-.2c.11,0,.09,0,0,0-.36,0,0-.15-.18-.21,0,0,.1,0,.23-.05s.25,0,.15,0c-.38,0,0-.13-.65-.08L2,1.25l.14,0c.63-.1.62-.13.13-.17C2,1,2.41,1,2.51,1s.26,0,.14,0c-.78,0,.05-.16-.32-.2-.12,0,.13,0,.27-.06s.29,0,.11-.06,0-.12,0-.13,0-.06,0-.08S2.8.24,3.19.17c.13,0,.26-.05.06-.05-.5,0,0,0,.09-.08a.89.89,0,0,1,.41,0c.28,0,.9,0,.75.1s0,0,.06,0c1.06,0,.48.14.55.21s0,.18-.15.28.46.09-.13.19h0c.45,0,.12.13.27.18a.3.3,0,0,0,.11,0c.08,0,.27,0,.17,0a.93.93,0,0,1-.35,0c-.08,0-.24,0-.29,0s.11,0,.26,0l.33,0s-.16,0-.26,0c-.27,0-.16.06,0,.07a3,3,0,0,1,.3,0c.18,0,.51,0,0,.11.05,0-.72.07,0,.05.13,0,.16,0,.09,0l-.14,0c.56,0,.08.09.2.12s.27.06-.23.1c-.26,0,0,0,0,.05s.24.07-.22.12a.57.57,0,0,0-.18,0h.19l.56,0c.06,0,.2,0,0,0C5.31,2,5.28,2,5.47,2c.35.08.28.2,0,.33,0,0-.18,0-.09,0,1,.06.54.26.58.41s.59,0,.26.11.1.11-.08.18-.21.08.17.07c.16,0,.07,0,0,0H6.13c.13,0,.21,0,.12.09.47,0,.22.05.15.1s-.26.06-.21.06c.58,0-.16.2.08.29s.25.13.13.21.43.23.13.36.25.14-.31.23c-.07,0,0,0,.07,0l.18,0c-.59.11.27.1.09.15s0,.12,0,.19,0,0,.15,0,.16,0,.11,0c-.82.13-.08.18-.26.27-.34.16.18.25.1.37s.14.24.06.37.26.27.12.42.18.23.13.35.13.35.08.54H7c.13,0-.77.12,0,.11-.18.07.24.1.16.14s.24.16-.36.27c-.09,0,0,0,0,0,.35.09.25.22.33.34a.55.55,0,0,1,0,.5c-.05.15.12.29-.11.46a.22.22,0,0,0-.07.3c.08.17,0,.35-.13.54,0,0,0,.06.11.08s.13.07,0,.09c-.48.06,0,0,0,.05s.22,0,.11,0c-.62.06-.1.08-.16.1-.23.11.6.11.17.22-.05,0,.13.09.21.13.26.13.3.28.15.44s0,.06,0,.07c.44.06.09.19,0,.29s.31.14-.07.24c-.07,0,.06,0,.2,0s.19,0,.08,0c-.39.08-.37.13-.16.18s0,.12,0,.18.14.19,0,.3-.08.18.25.23c0,0,0,0,0,0-.75.12.32.16-.28.27.36,0,.12.06.2.09s.09.06-.32.1a.59.59,0,0,0-.2,0h.06c.71,0,.29.09.28.14A.69.69,0,0,0,8,14c.06,0,.07,0,0,0s-.23.12,0,.16c.06,0,.06.05,0,.07s-.22.18,0,.24.16.09.11.15.1.18,0,.28.14.09.21.14,0,0,0,0c-.19.07,0,.11.09.16s.1,0-.05.06c-.48.07-.17.12-.11.12.33,0,.08.05-.11.08-.46.06-.29.1-.21.14s.42.21,0,.37c-.16.06-.55.15-.12.2.17,0-.29.08-.13.1a1.62,1.62,0,0,0,.5.11c.13,0,.05,0,0,0s-.23.1,0,.13,0,.06-.25.09c-.39,0-.39.07,0,.07-.23.06.51.07-.16.17-.37.05,0,.09.23.09s.31,0,.08.06c-.38.08-.33.14-.16.19s.3.19.2.3.18.13,0,.21.11.2.11.3-.32.17-.08.23c.06,0-.1,0-.21.05s-.23,0-.17,0a.57.57,0,0,0,.19,0c.12,0,.28,0,.29,0s-.19,0-.31,0-.28,0-.27,0a1.69,1.69,0,0,0,.3,0c.09,0,.27,0,.23,0-.2.1,0,.17-.14.26s-.2.12-.23.18-.12.14.13.21.62.18,0,.33c-.17,0,.09,0,0,.07.54,0,.33.08.31.13s.09.28-.27.45c0,0,0,0,0,0,.63,0,.27.11.44.16s0,.13.2.17c-.65.1,0,.12-.14.19s-.34.11-.19.15,0,.05.1.05.31,0,.22.05c-.38.12,0,.17,0,.26s-.33.13.28.1v0c-.74.09-.2.14-.29.21s0,0-.06.05c-.5.05-.39.1-.38.14s0,.06.33,0,.24,0,.21,0,0,0-.16.06-.33.13-.05.13.15,0,.11.08l-.46.37s0,0,0,0c.3,0,.13.11.06.18a.6.6,0,0,0-.14.24c0,.08.1.15.21.22s.07.08-.08.11c-.4.09-.27.15-.28.22s-.09.13.51.11c.31,0,.08.07,0,.1s-.05.08-.06.12-.23.26-.49.4c-.1,0-.08.29.13.31s.26.06.13.1c-.47.12-.24.19,0,.24s.09.13,0,.19-.11.1,0,.12c.22.05,0,.08-.37.11-.06,0-.19,0-.15,0h.21c.25,0,.43,0,.35,0s.35.14,0,.26c-.12,0,.18.08.19.13s-.15.21-.18.31-.24.17.25.19c.14,0-.06.05-.05.07s-.33.12.16.12c.05,0,0,.08-.39.12-.08,0-.24,0-.2,0s.13,0,.21,0c.26,0,.29,0,.29,0s.15.14-.05.24-.32.09.11.08c.27,0-.15.05-.14.07a.44.44,0,0,1,.08.26c0,.07.35.13-.34.22a.15.15,0,0,0-.08,0h.16c.36,0,.76-.08.49.05s-.58.25,0,.31c-.4.11.32.12.22.2s-.16.15.06.21-.4.06-.37.11.51.08-.15.17c.38.07-.21.24.41.3.3,0,.05.16,0,.25s-.61.18.08.18c-.42.14,0,.22,0,.32s-.12,0,0,0c.39,0-.09.18.2.25.07,0,0,0-.12.06s-.36.06,0,.06c.14,0,.53,0,0,.07.12,0-.55.13.06.13.11,0,.06.1-.05.15-.28.11-.09.18-.1.26a.21.21,0,0,1-.08.18c-.06.06-.5.16.18.15.09,0,.06.07,0,.11s-.11.11.16.15-.07.09-.1.14,0,.23.22.33-.21.13,0,.17c-.77.1-.31.16-.43.24s0,.14.45.16c.17,0,.29,0,0,0S9,32.3,9,32.37s-.07.28.07.4-.13.28.08.39c.05,0,.05.06,0,.1s-.09.07.21.06c.11,0,.26,0,.19,0l-.26,0c-.15,0-.45,0-.43.05s0,.09.29.1.4.11.05.17-.19.15.08.16c.49,0,.33.11.19.19s-.31.09.12.09c.23,0,.06,0,0,.06-.43.13,0,.21,0,.32s.35.14-.32.24c0,0,0,0,0,0,.5,0-.06.09-.06.13s.12,0,.23,0c.47-.05.26,0,.2,0l-.11,0c.26,0,0,.08-.08.13l-.07,0c.7,0,.22.1.21.16s.38.15,0,.27-.08.14.08.19-.1.11-.28.16a1.37,1.37,0,0,0-.56.29c0,.06,0,.06.25,0a1.63,1.63,0,0,1,.49,0c.13,0,0,0-.15.07s-.09,0,0,0,.18,0,0,0c-.76.11-.12.16-.3.24s.19.07-.08.13c-.06,0,0,0,0,0,.5,0,1,.2.59.27-.71.12,0,.1-.05.15s.12.15,0,.24,0,.19,0,.28.34.09-.28.16a.24.24,0,0,0-.09,0c.49,0,.11.1.07.14-.19.16.55.26,0,.45-.1,0,.5,0,.24.09-.09,0,0,.06-.27.08s-.19.05-.19.06.18,0,.29,0,.34,0,.24,0c-.29.12,0,.21,0,.32s-.17.23-.34.35-.19.16,0,.22-.12,0-.15.07-.44.19.32.18c.09,0,.31,0,.16,0-.49.13-.6.27-.47.36s-.23.22.25.28.07.17.09.26-.12.15-.11.22a.6.6,0,0,1-.14.57c-.06.07,0,.15.07.22s0,.13-.48.21c-.25,0,.19,0,.15,0s-.29.11,0,.13-.1.14.46,0c.09,0,.17,0,.13,0-.22.1,0,.17-.21.26s-.09.12,0,.17.05.11-.08.15-.46.13-.31.15c.39.06.27.17,0,.26s.3.2-.1.33c-.11,0,.1,0,.18,0,.23,0,.37,0,.06.05s0,0,0,0c.24,0,.17,0,0,.06h0c.12,0,.12.06,0,.1s-.23.14-.12.21,0,.12-.3.19.14,0,.16.06c.13.23-.06.48-.26.73.63.07-.49.27,0,.35.11,0,.24.08-.17.14.17,0,.11.09-.06.14s.16.25.27.3.38.1.17.18c-.05,0,0,0-.21,0-.45,0-.13.06-.11.06.8,0,.29.1.31.16s-.56.25-.15.35c.14,0,0,.14-.12.22s-.55.2.23.2c.17,0,.05.11.06.17s0,.31,0,.46.23.26,0,.4-.07.33,0,.48-.17.3.06.43-.19.2-.33.3,0,0,0,.07c.37.1.2.24-.12.39-.15.07-.07.09.3.06s.32,0,.26,0,.37.14-.48.23c.07,0-.2.1.17.09s.2,0,.25,0,0,.2.05.29a.78.78,0,0,1-.07.47s0,.07.07.1-.22.21-.15.3.28.08.12.14.09,0-.21.06c-.05,0-.14,0-.09,0,.57.11.56.15.09.4-.08,0,0,.08.16.11.4.07.24.18.28.28s0,.21.13.31S9.39,53,9.5,53s-.1.32.05.47-.26.27-.17.4.15.17-.23.29c-.09,0,0,.06.06.09s-.09.23,0,.33-.14.1.24.12,0,.11,0,.17c0,.33.11.63-.16,1-.08.11.35.18.23.3s-.25.14-.12.21.28.17.24.27-.26.21-.1.29-.17.26,0,.34-.09.26,0,.37-.26.14-.09.19h0c1.18,0,.35.17.44.26s.1.43.13.64.16.32-.28.51c0,0,0,.06.08.07.39.07,0,.22.18.3s-.39.24.2.3c.3,0-.08.15-.12.23s-.14.19,0,.28,0,0,0,0c-.66.1-.22.13,0,.17s.22,0,0,.08c-.61.13-.49.26-.36.34s.27.23.24.36.21.26,0,.42.09.17.16.25.09.23-.09.35.18.13-.28.22c.26,0,.24.08.37.12.31.09.22.21.2.32s.15.21,0,.32-.1.26.15.36c.1,0,.09.11,0,.16s.26.17-.07.28c0,0,0,0,0,0,.25.08.23.1,0,.24s-.08.11-.06.16.19.32.25.49-.05.64.15,1c.09.14.08.29.23.43s.2.36.27.55a.63.63,0,0,1,.08.29c0,.07.25.1.12.18s.09.14,0,.22.48.35.28.56.19.12-.1.19l0,0c.91,0,.13.08.13.12s.08.29.05.44.1.33,0,.51-.26.29-.13.42-.07.11-.09.17,0,0-.19,0l-.28,0h.27c-.09.06.59,0,.17.13s-.11.14-.23.22h0c.44,0,.35.09-.34.19l-.13,0c.49,0,0,.08.37.06.57,0,.65,0,.24.12s-.44.14,0,.21c.19,0,.18.12.05.18-.35.18,0,.31-.08.46s-.21.36-.16.53.18.12-.17.2c-.05,0,0,0,0,0,.84,0,0,.23.19.33s-.11.21.25.28c.08,0,0,0-.07,0-.38.08-.47.14-.12.17.17,0,.17,0,.1.11s-.06.13.05.18-.07.21,0,.3.07.22.11.32.08.13-.22.23c0,0-.11,0,0,0,.56,0,.28,0,.27.07s.1.33.09.51,0,.17.07.23,0,.2.34.26h.09c-.63.1.14.11-.09.19s-.09.16.14.22-.11.17,0,.25.38.21.15.35t0,0c.33.11.24.27.15.4s.26.42,0,.65c-.08.08.07.15.08.23s-.2.28-.13.4-.21.35-.12.51-.12.17-.2.26-.17.08,0,.1c-.19,0,.64,0-.2.1-.16,0,.24,0,.18.05s.16.18,0,.31.2.23.06.37.23.15-.23.25c0,0,0,0,0,0,.46,0,0,.14.24.18s0,.06-.12.09H12c.48,0,0,.12.12.12.57,0,.07.16.6.17.06,0-.15,0-.21,0l-.14,0c.54,0,0,.14.23.19s-.14.2-.09.29-.08.14.18.19c.09,0,.23,0,0,.07s-.07,0,.1,0,.25,0,.14,0-.42.26-.26.33.05,0-.06.07-.22.08.05.09-.08.07,0,.1-.07.19.53.21l-.09,0c-.29.06-.32.11-.26.14s0,.23,0,.34,0,.39.31.57c.08,0-.21.15.23.17l-.18,0-.38.05h.32c-.61.12.33.15-.15.26,0,0-.1,0,0,0,.55,0,.27.12.42.18s-.21.2,0,.25c.36.09-.23.24.26.3,0,0,0,0,0,0-.54.1,0,.13-.11.19s.22.11-.18.18c-.12,0-.06,0,0,0,.24,0,.41.07.14.15l0,0c.9,0,0,.13.14.18s-.25.17,0,.23c0,0,0,0-.07,0-.62.07,0,.06.06.06.56,0,.16.15.18.23s.18.17-.1.28c0,0,0,0,0,0,.71,0,.11,0,.06.05s.34,0,.14.12.07.2.23.24.33.07-.05.14H14c.52,0-.28.18-.05.22s-.16.22.41.25c.05,0-.17.09-.23.14s.28.11-.32.18h.05c.69,0,.25.1.26.17s-.13,0-.07,0c.53,0,.13.06-.27.09l-.19,0a.39.39,0,0,0,.15,0c.54,0,.57,0,.5.06s.26.08-.21.14c0,0-.1,0-.09,0a.61.61,0,0,0,.18,0c.43-.06.41,0,.39,0-.18.08.22.13,0,.22-.08,0-.08.1.42,0,.07,0,.17,0,.18,0l-.09,0c-.72,0-.17.1-.37.16s.55.09-.33.15h0c.63,0,.06.11.3.13s.31.1.18.17.18.1.23.16-.05.18.08.25.24.18,0,.29c0,0,0,.06.15,0,.5,0,.22,0,.17,0s.13.1.05.17-.18.13-.11.18.19.15,0,.24c0,0,.05,0,.05,0,.32,0,.43,0,.33,0a2.51,2.51,0,0,1-.63.09.51.51,0,0,0-.23,0H15c.24,0,.57,0,.36.06s.17,0,.22.06.25,0,0,0c-.39,0-.4.1,0,.11.17,0,0,0,0,0s-.28.1-.16.14-.24,0-.4.08c.12,0,.48,0,.54,0s-.17.08-.19.12-.13.1,0,.15.17.09,0,.16-.22.22.33.27c.08,0,.06,0,0,.07-.35.06,0,.1-.29.16-.09,0,.05,0,.14,0h.19s-.4,0-.31.06.36,0,.48,0h0l-.22,0a.77.77,0,0,0-.31,0c-.09,0,.05,0,.14,0s.27,0,.07.06c.14,0-.18.08.23,0,0,0,.09,0,.07,0-.4.08-.28.16-.67.24s0,0,.14,0c.36,0,.4,0,.38,0s-.25.2.19.25c.08,0,0,0,0,0-.37.11-.39.14-.17.23.05,0-.12,0-.16,0-.26.08.1.1.18.12.26.08-.27.2-.12.28s.18.06-.21.1a1,1,0,0,0,.2,0,1.21,1.21,0,0,1,.18,0c-.57.06.06.09-.3.15s-.06.1,0,.1c.38,0,.23,0,.19.09s-.1.06-.08.06.32.08-.32.11c0,0,0,0,0,.06a.26.26,0,0,0,.13,0,.85.85,0,0,1,.41,0c.08,0-.22.06-.39.08.28,0,.29,0,.32.06s-.36.13.07.15c.12,0-.19,0-.33.05a.91.91,0,0,0-.27,0s.12,0,.21,0c.31,0,.24,0,0,.06s-.31.1-.35.15,0,0,0,0,.59,0,.45,0-.46,0-.58.08-.3.07.1,0c.2,0,.16,0,.18,0s0,.24,0,.36.05.2-.14.32.19.11,0,.2c0,0,0,0-.08,0-.34.07.26.06.1.12.38,0-.24.11.26.09-.5.06-.22.07,0,.07-.56.07.18.14-.52.21H15c.3,0,.5,0,.42,0-.25.1,0,.16,0,.24s0,.08.05.11-.26.12-.22.17,0,0,.06.06.17,0-.1.07c-.12,0-.13.08.08.09h.21c.11,0-.21.07-.35.11s.63,0,.29,0a1.35,1.35,0,0,1-.52.15c-.05,0-.09,0,0,0,.38,0,.3,0,.13,0s0,0,0,.05a1.19,1.19,0,0,0,.25,0,.63.63,0,0,1,.24,0l-.1,0c-.18.06-.44.12.09.12.32,0,.38,0,0,.08-.1,0-.22,0-.2,0,.21.1,0,.24.12.35s-.32.13.26.1a1.08,1.08,0,0,0-.24.1c-.12.11.11.21-.38.34-.07,0,0,0,.08,0,.29,0,.27.08.12.15s.06.19.16.27,0,0,0,.06-.22.21-.18.31.13.18,0,.24.28.12.27.2-.07,0-.11.08-.46.09.12.07c.23,0,0,0,0,0-.71.07-.28.11-.24.15s.11,0,0,.1.06.07.07.11.27.1-.17.18c-.09,0-.08,0,0,0,.45,0,.51.07.08.17-.16,0-.21,0,0,0s.59,0,.08.1c-.1,0-.07,0,0,0,.37,0,.25.1.24.16a.56.56,0,0,0,.1.37s.05,0,0,.07-.18,0,0,0,.29-.05.32,0l-.3,0s-.09.09,0,.11c.33.07-.18.19,0,.26.05,0-.47.12.21,0,.11,0,.08,0,.11,0s-.67.08,0,.07l-.11,0c-.09,0-.75.06-.1.06-.2,0-.09.08,0,.1s.54.06,0,.14c.55,0-.13.19.3.23.09,0,0,0-.09,0a1.53,1.53,0,0,0-.33,0l.34,0c.13,0,.24,0,.15,0-.63.14-.12.21-.07.3s-.39.15,0,.17l-.08,0h-.19a1.21,1.21,0,0,0-.4,0l.29,0c.61,0,.26.14.27.22s-.12,0,.11,0c.58,0,.22,0,.15,0s-.07.12-.13.15.48.15-.28.27c.3,0,.1.09.24.13s.46,0-.05.09c-.1,0,0,0,.06,0s.32.1-.36.15l-.21,0h.12a3.82,3.82,0,0,1,.56,0c.2,0-.32,0-.25.06.31,0-.07.14.2.19h.05c.25,0-.19.07-.31.1.22,0,.47,0,.09.08,0,0,0,0-.06,0,.89,0,0,.08.09.09s-.44.13.2,0l.14,0s-.07,0-.14,0c-.49.06-.45.1-.07.11.09,0,.23,0,.21,0s-.22,0-.33,0l-.25,0s.14,0,.22,0,.23,0,.11,0c-.43.07-.09.08,0,.11s.21,0-.14,0l.25.09c.06,0,.39,0,.33,0a2.7,2.7,0,0,1-.45.08l-.21,0s.15,0,.19,0,.71,0,.13,0c-.06,0-.13,0-.1,0,.34,0,.16.07-.31.11-.08,0-.09,0-.05,0a.62.62,0,0,0,.23,0,.88.88,0,0,1,.37,0c-.23,0,.08.07-.32.09l-.21,0h.29c-.29.06.31.11-.33.17l-.17,0h.21a4.53,4.53,0,0,1,.54,0c-.36.06.17.1-.34.17-.08,0,0,.07,0,.09a.35.35,0,0,1,.15.31c0,.1-.41.23.14.29-.61.08.26.11-.29.2-.23,0,0,0,.05,0,.44,0,.35,0,.24.08s-.3.09.1.08c.05,0,.13,0,.06,0-.91.1,0,.1-.16.17-.38.17,0,.29-.09.44s0,.33,0,.5-.08.25.09.35.2.19-.05.26c-.57.16.33.19,0,.31-.1,0,.33.07-.2.12.24,0,0,.08.07.1s.34,0-.16.09c0,0,.36,0,.36,0s.17.14.12.22.34.13-.15.23c.52,0-.13.13.11.18s.06.11.16.15-.18,0-.23.07-.24.13.35.09c-.11.06.22.09,0,.15s-.12.09.23.1c.13,0,.44,0,.42,0a7.59,7.59,0,0,1-.8.12H16.4c-.1,0,.14,0,.13,0s.58.1.44.2,0,.15-.66.21l-.12,0,.11,0c.87,0,.68,0,.63.18h0c.06,0,.5,0,0,0,.16,0-.35.07.15.05.24,0,.13,0,.13.08s-.17.11.34.08h.12c-.63,0-.08.12-.48.17,0,0,0,.06.06.06.69,0,.35.11.53.16s0,.11.4.11c.06,0,.19,0,.08,0-.67.11-.24.18-.35.27s.08.24,0,.37.13.1-.39.15c.36,0-.16.12-.25.18s.53-.08.37,0,.12.06-.17.1c.16,0-.36.11.18.08.11,0,.14,0,.06,0-.41,0-.19.07-.3.11a3,3,0,0,0-.35.07s.29,0,.3,0-.11.07-.27.08c-.37,0-.24.09-.23.09C17.17,114.75,16.35,114.87,16.8,114.9ZM5.34,4.13a.82.82,0,0,0,.29,0s-.07,0-.21,0c-.37,0,.13,0-.18.06C5.16,4.13,5.27,4.14,5.34,4.13ZM3,6.83c.21,0,.25,0,.3-.06s0-.1-.46,0L3,6.79S2.79,6.84,3,6.83Zm.45.6a.31.31,0,0,0,.09,0s-.1,0-.16,0l-.18,0S3.24,7.44,3.48,7.43ZM3.29,10s.21,0,.17,0a2.47,2.47,0,0,0-.55,0c-.1,0-.22,0-.17,0A1.88,1.88,0,0,0,3.29,10Zm-.16.56.19,0s-.13,0-.21,0l-.22,0Zm.34.52c.12,0,.24,0,.23,0s-.1,0-.22,0a.74.74,0,0,0-.25,0S3.35,11.13,3.47,11.12ZM6.62,12a.7.7,0,0,0,.24,0s-.07,0-.15,0a1.23,1.23,0,0,0-.31,0ZM4.38,13.66c.11,0,.1,0,.08,0a1.15,1.15,0,0,0-.36,0c-.09,0-.15,0-.15,0S4.28,13.64,4.38,13.66ZM4.19,14.8l.32-.06a.57.57,0,0,0-.18,0A1.78,1.78,0,0,0,4,14.8C3.94,14.82,4.11,14.81,4.19,14.8Zm.61.79c.08,0,.17,0,.12,0a.6.6,0,0,0-.2,0c-.11,0-.11,0-.11,0A.3.3,0,0,0,4.8,15.59Zm-.57.93a1.87,1.87,0,0,0-.39,0,.2.2,0,0,0-.15.05,1.38,1.38,0,0,0,.38,0C4.14,16.54,4.28,16.53,4.23,16.52ZM4,18.57a.76.76,0,0,0,.27-.06s0,0-.11,0a.68.68,0,0,0-.3.07ZM8,26.7s.08,0,.08,0,0,0-.13,0-.08,0-.07,0S7.85,26.7,8,26.7ZM4.49,28.79c.08,0,.18,0,.17,0s-.12,0-.22,0-.18,0-.17,0A.75.75,0,0,0,4.49,28.79Zm2,.54a.72.72,0,0,0,.27,0s0,0-.11,0a.88.88,0,0,0-.27,0S6.42,29.32,6.45,29.33ZM8,34l.3,0H7.85l-.18,0A1.6,1.6,0,0,0,8,34ZM4.41,42.21c.07,0-.24,0-.29,0s-.36.06,0,.06Zm4.71.54c.1,0,.14,0,.14,0s0,0-.11,0-.12,0-.15.06S9,42.76,9.12,42.75Zm-4.9,1.19c.07,0,.11,0,.11,0s-.19,0-.36,0C4,43.92,4,44,4.22,43.94Zm4.65-.2.43,0a2.17,2.17,0,0,0-.38,0c-.16,0-.19,0-.36,0s-.11.08,0,.09A.85.85,0,0,0,8.87,43.74ZM4.27,54.05s.12,0,0,0S4,54,4,54C4.13,54,4.07,54.07,4.27,54.05Zm-.57.36c.12,0,.38,0,.26-.07h-.3C3.45,54.39,3.65,54.39,3.7,54.41Zm3.86,5s.18,0,.09,0l-.47,0-.09,0A1.51,1.51,0,0,0,7.56,59.36ZM5.32,62.15c.17,0,.2,0,.15,0-.33-.05-.17-.17-.71-.18-.06,0,.09,0-.09,0l-.1,0c-.05,0,.18,0,.09.1S4.8,62.19,5.32,62.15Zm4.12,5.1-.18,0-.17,0c-.05,0,.17,0,.23,0S9.49,67.27,9.44,67.25Zm-1.3,11,.18,0H8l-.11,0S8,78.24,8.14,78.22Zm-.49.27c.22,0,.65-.06.6-.11s.18-.12-.24-.08a.85.85,0,0,0-.49.15C7.57,78.47,7.42,78.52,7.65,78.49Zm.26.08c.12,0,.27,0,.26,0a1,1,0,0,0-.27,0c-.14,0-.25,0-.21,0S7.76,78.59,7.91,78.57ZM7.79,85.8c.14,0,.37,0,.4-.06s-.12,0-.2,0a2.67,2.67,0,0,0-.45.07S7.65,85.82,7.79,85.8Zm.73,1.7c.09,0,.15,0,.15,0s-.07,0-.19,0l-.12,0S8.41,87.51,8.52,87.5Zm5,1a1,1,0,0,0,.3,0h-.21a1.32,1.32,0,0,0-.32,0Zm-3.89,2c.21,0,.22,0,.2,0s0,0-.07,0-.29,0-.28,0S9.62,90.46,9.67,90.46Zm.85,1.6.12,0a1.91,1.91,0,0,1,.75-.16c.09,0,0,0-.06,0-.71,0-.52-.05-.67-.1s.11-.06-.1,0-.38.06-.31.08,0,.13-.06.2S10.3,92.06,10.52,92.06Zm.74.29c.17,0,.07,0,.11,0s0-.11,0-.16,0-.07-.27-.06a.62.62,0,0,0-.26,0c-.18.09-.15.17.06.23A.92.92,0,0,0,11.26,92.35Zm3.81,2.48c.75,0,.36-.1.42-.15h-.16c-.11,0,.21.1-.41.14Zm-.87,3a1.35,1.35,0,0,0,.47-.06s0,0-.08,0a2.37,2.37,0,0,0-.37,0S14.2,97.88,14.2,97.88Zm-2.7,5.86s.12,0,.12,0-.14,0-.25,0-.18,0-.14,0A.76.76,0,0,0,11.5,103.74Zm-1,1.89c.07,0,.33,0,.4-.06s-.1,0-.15,0a1.7,1.7,0,0,0-.4.06C10.28,105.64,10.35,105.64,10.48,105.63Zm.71,6c.13,0,.08-.06-.06-.07l-.2,0C10.86,111.58,11.1,111.57,11.19,111.59Zm-.1.22c.14,0,.23,0,.2-.06s.16-.13-.1-.16c-.41,0-.6.1-.52.1.38,0,.2.06.19.1S10.92,111.83,11.09,111.81Zm2.23.69s.16,0,.11,0-.09,0-.3,0-.18,0-.1,0A1.39,1.39,0,0,0,13.32,112.5Zm3.13-.07a2.15,2.15,0,0,0,.46-.08,2.89,2.89,0,0,0-.53.05C16.33,112.42,16.36,112.43,16.45,112.43Z"/></svg>