<svg id="Layer_1" data-name="Layer 1" xmlns="http://www.w3.org/2000/svg" viewBox="0 0 308.68 115.72"><path d="M295.8,40.63c0-1.65-.07-3.3-.06-4.94s.08-3.49.12-5.23c.11-3.68.26-7.35.31-11,0-1.88.1-3.76.21-5.64a90.82,90.82,0,0,0-.19-12,8.09,8.09,0,0,1,.06-1.39c0-.08.17-.16.27-.19s.15.09.17.17a3.16,3.16,0,0,1,.14.68l.34,5.5c.08,1.17.24,2.34.33,3.52.13,1.78.27,3.56.37,5.35.08,1.55.1,3.11.17,4.66l.4,8.19.24,5.22c.07,1.7.11,3.39.13,5.09l.07,6.78c0,.66.12,1.32.15,2l.23,8.18.32,8.62.12,5.23.18,7.49c0,.94,0,1.89,0,2.83v9.19c0,2.82-.05,5.65-.08,8.47,0,2.12.1,4.24.16,6.36l.14,4,.12,5.93.09,1.83c0,.1-.12.2-.19.3-.08-.09-.22-.16-.23-.26-.32-1.8-.65-3.6-.9-5.41a25.94,25.94,0,0,1-.26-3.52c0-2.65-.32-5.27-.53-7.9-.15-2.16-.31-4.32-.46-6.48-.12-1.5-.3-3-.44-4.5-.08-.93-.14-1.87-.2-2.81l-.39-6.77-.38-7.77c0-.24,0-.47,0-.71.09-2.31-.13-4.61-.18-6.92L296,54.9c0-1.7-.11-3.39-.17-5.09l-.07-2.26-.1-5.08c0-.62,0-1.23.05-1.84Z"/><path d="M13.06,7l.38,0c1.49,0,3-.07,4.47,0h6c.58,0,1.16,0,1.72,0a5.73,5.73,0,0,0,1.1,0,.72.72,0,0,1,.23,0c.19.19,1,.12,1.52.13,1.41,0,2.82,0,4.23,0,.51,0,1.07,0,1.59,0a7.48,7.48,0,0,1,1.65.06,8.85,8.85,0,0,0,1.1,0h1.6c1.27,0,2.55,0,3.8,0s2.32,0,3.48,0a19.44,19.44,0,0,1,2.29,0c.53,0,1.14.06,1.71.06H53a8,8,0,0,1,.86,0c.89.07,1.82.06,2.74.06l8.62,0h2.48l6.26,0,4.94-.09c1.26,0,2.54,0,3.78-.06H83c.73,0,1.45,0,2.17,0l1.31,0,5.68-.06,2.62,0h1.46c1.63-.05,3.27-.09,4.93-.11L106.66,7c.87,0,1.81,0,2.61,0,1-.06,1.91,0,2.88,0l1.89,0c.29,0,.58,0,.86,0,1.12,0,2.24,0,3.35,0A17.81,17.81,0,0,1,120.8,7a5.31,5.31,0,0,0,.71,0c.17,0,.32,0,.48-.06l-.33-.11.46,0,4.08,0c.72,0,1.43,0,2.15.06a2.08,2.08,0,0,1,.36,0h0a15.74,15.74,0,0,0,2.83,0c.34,0,.75,0,1.13,0h.87l5.23-.1a28,28,0,0,1,3.43,0h.44l4.81,0c2.48,0,5-.09,7.44,0l1.3,0c1.4,0,2.78-.07,4.21,0,1,0,2,0,3.06,0l2-.06c.86,0,1.76-.06,2.58,0s1.55,0,2.32,0c2.87,0,5.74,0,8.58-.12a17.56,17.56,0,0,1,2.41,0,2.91,2.91,0,0,0,1.15-.05,5,5,0,0,1,1.33-.08l-.48.1a11.18,11.18,0,0,0,3-.06h0c0,.06,0,.14.42.13,1.11,0,2.23,0,3.31,0a10.15,10.15,0,0,1,1.56,0,27,27,0,0,0,3.71,0,8.54,8.54,0,0,1,2,0,2.62,2.62,0,0,0,.42,0h4.64l2.76,0,3.35,0c.57,0,1.14,0,1.71,0s1.15,0,1.72,0c.31,0,.66,0,1,0,.49,0,.4.06.32.12h0l1.14-.14a.85.85,0,0,0,.27.13,1.56,1.56,0,0,0,.44.06,4.64,4.64,0,0,0,1.37-.16l-.24-.09s0,0,.07,0l.15,0s0,.06,0,.09a22.75,22.75,0,0,1,2.35-.06h0a1.77,1.77,0,0,1-.35.12l-.52,0c-.06,0-.12,0-.11,0a.32.32,0,0,0,.17,0h1.39l.28,0c.84.1,1.79,0,2.65,0a2.89,2.89,0,0,0,.4,0l2-.16a8.05,8.05,0,0,1,.83,0h0l1,0c.68,0,1.37,0,2,0a7.48,7.48,0,0,0,2.71-.23,2.65,2.65,0,0,1,1.22-.07,10.26,10.26,0,0,0,1.13,0,.78.78,0,0,0,.46-.09.66.66,0,0,1,.56,0c.47.15,1.45.19,1.78.37a4.09,4.09,0,0,0,1.21,0l-.6-.09c.54,0,1,0,1.49,0a4.18,4.18,0,0,1,.75.08c.14,0,.06.11.08.15,1.5.08,3,0,4.39,0l.43,0c.39,0,.53-.07.43-.15s-.11,0-.12-.06,0-.07,0-.11l.52,0c.18,0,.42,0,.47,0s.49-.1.73-.06a5.09,5.09,0,0,0,.87.1c.27,0,.52,0,.29-.08s0-.08.22-.08a2.27,2.27,0,0,1,.51,0,1.77,1.77,0,0,0,.83.05l.69,0c.33,0,.62,0,.54.09s.1.12.45.12h2.19a5.41,5.41,0,0,0,.66-.05,4,4,0,0,1,1.15-.07,4.25,4.25,0,0,1,1.06.13h0c.83.09.83.09.82-.09,0,0,0,0,.09,0l1.09.06c.46,0-.14.07.07.12a9.46,9.46,0,0,0,1.07,0,14.1,14.1,0,0,1,1.84,0h0l-.54.11c.51,0,.84,0,1.14,0s.66.07,1,.11a3.25,3.25,0,0,1,1-.16l.1.23a11.9,11.9,0,0,0,2.88.06,6.41,6.41,0,0,0-1.85-.14c-.12-.09.21-.08.38-.1l.17,0h-.18c.27,0,.55,0,.81,0l1.36,0c.24.09-.11.09-.24.13s-.31.09-.47.14h.6l.1,0h-.11c.06,0,.09.1.18.1s.47,0,.71,0,.53,0,.41-.12,0-.06,0-.08a9.14,9.14,0,0,1,.94-.19c.2,0,.54,0,.82,0a.59.59,0,0,0-.06.14l.1.06.92.06c.09-.08-.12-.16.51-.18.82,0,1.63,0,2.45,0a15.13,15.13,0,0,1,1.81.09l-.37.18h.07a4.48,4.48,0,0,0,1.17,0,.61.61,0,0,0,.18-.07l-.36,0h-.14c.08-.13.47-.17,1-.17l6.12.08,8.31.1a9.65,9.65,0,0,0,2-.1,5,5,0,0,1,.71,0h1.61q.5,0,1-.06c.1,0,.22,0,.21-.07a.67.67,0,0,0-.27,0c-.78,0-1.55,0-2.33-.06-1.25,0-2.46-.13-3.74,0a5.42,5.42,0,0,1-.57,0,6.6,6.6,0,0,0-1.26,0c-.28,0-.67,0-1,0l-3.63-.08c-.58,0-1.27,0-1.72,0a17.78,17.78,0,0,0-1.79,0,2.34,2.34,0,0,1-.48,0A3.35,3.35,0,0,0,279.28,6l-8-.14c-1.33,0-2.56-.06-3.79-.15h0l.82-.11-.42,0a13.56,13.56,0,0,1-1.8,0,3.27,3.27,0,0,0-1.25.08h0a13.46,13.46,0,0,0-2.3-.16,16.13,16.13,0,0,1-2.09,0,1.43,1.43,0,0,0-.29,0,4.55,4.55,0,0,1-1.32,0,2.29,2.29,0,0,0-.64,0,3.07,3.07,0,0,1-1,0,2.53,2.53,0,0,0-.79,0,5,5,0,0,1-.54,0,17.69,17.69,0,0,0-1.94,0,8.74,8.74,0,0,0-1.55-.05,22.44,22.44,0,0,1-2.36-.1c.44,0,.87,0,1.29,0l4.52.06c1.5,0,3,0,4.49.06.23,0,.49,0,.73,0l1.6,0,2.62,0c.26,0,.53,0,.79-.06h0l2.26.1c.22-.2.22-.2,1.4-.17.13.17.2.2.85.22l1.31,0,1.88,0,4.52.08c.33,0,.68,0,1,0s.52,0,.41-.1c-.77,0-1.61-.07-1.67-.29a5,5,0,0,1,1.27.08,8.48,8.48,0,0,0,2.18.09l.54,0a14.41,14.41,0,0,1,1.86,0c.33,0,.74,0,1.12,0,.21,0,.14,0,0,0h-.12s0,0,0,0l2.59.08a3.17,3.17,0,0,1,.55.08h0a9.58,9.58,0,0,1,1.36-.06c1,0,2,.07,3.05.08l7.59.06c.24,0,.49,0,.73,0,1.12,0,2.23,0,3.35,0h.73c.18,0,.4,0,.34-.07l-2.53-.11-3.7-.18a6.55,6.55,0,0,0-1.26,0h0c-.54,0-1,0-1.53-.07s-1,0-1.57,0l-3.78-.08-4.64-.09L281,5l-6.39-.12L271,4.76l-.16,0,2.43-.06a2,2,0,0,1,.43,0,21.69,21.69,0,0,0,2.43,0h2l1.6,0,.11,0-.11,0a8.57,8.57,0,0,0,1.45.13l2,.06,5,.15c.24,0,.5,0,.73,0,1-.05,1.92,0,2.89,0l2.17,0c.16,0,.33,0,.76-.06L293,5c-1.82,0-3.6,0-5.36-.12,1.79,0,3.59,0,5.35.12l2.62,0c.29,0,.72,0,.78.1a1.06,1.06,0,0,0,.33,0c1.35.06,2.7.1,4.07,0l1.2,0c.07,0,.1.09.16.09.88,0,1.69,0,2.54-.08L301.15,5l-1.56-.07-4.45-.15c-1.76-.09-3.53-.14-5.33-.16l-1.31,0-4.61-.15-6.82-.15-7.71-.16-8-.14h-.15c-2-.06-3.95-.12-5.95-.12h-.88c-3.14-.1-6.3-.12-9.47-.15l-1.31,0-7.87-.11-7.31-.06-8.61-.1-10.52-.06-13.59,0-3.65,0-6.14,0-9.21,0c-1.17,0-2.34,0-3.48-.07l-.68,0-4.09,0h-6l-9.77.1h-6l-.13,0c.24,0,.44,0,.65,0h1.9l2.48,0,4.67,0,5.41,0,11.54-.06,1.58,0,11.4-.05c4.24,0,8.49-.06,12.72,0h1.32a2.43,2.43,0,0,0,.33,0L200,3.05l2,0a.79.79,0,0,0-.25-.06c-.89-.05-1.79-.08-2.73-.08-.56,0-1.14,0-1.7-.05-.1,0-.18-.07-.17-.1s.19,0,.27-.07c.23-.06.15-.11-.24-.12h-.87c-1.41,0-2.83,0-4.22,0-.32,0-.68,0-1,0l-3.79,0H182l-9,0c-3.07,0-6.13.06-9.19,0-1.7.07-3.41,0-5.11,0l-8,.1-9.49.07-5.7,0L129.34,3,120.88,3l-2.48,0c-1.41,0-2.82.07-4.22.06l-5.37,0-7,.05-1,0c-1.3.06-2.6.09-3.92.09l-1.46,0-2.33,0-2,0-5.67.1-5.83.09-2.62,0L74,3.69l-1.46,0-5.1.09L62,3.89c-1.4,0-2.82,0-4.2.07a8.48,8.48,0,0,1-.86,0,19.13,19.13,0,0,0-2,0c-.3,0-.66,0-1,0l-.84,0c-.52,0-1,.06-1.57.06-.82,0-1.66,0-2.46,0s-1.62.05-2.45.05l-1.76,0c-2.18,0-4.35.1-6.55.1l-2.77,0c-1,0-2.05.07-3.05.05s-1.93,0-2.9,0-1.86.1-2.8.15c-.06,0-.15,0-.13,0a.65.65,0,0,0,.25.06h.57l3.19-.05a.82.82,0,0,1,.31.08s-.13.06-.23.06c-.83,0-1.7,0-2.44.16a6.12,6.12,0,0,1-.86,0L26.28,4.8h-.55a1.38,1.38,0,0,1-.95,0h-.3c-.1.18,0,.22.65.23h1.59c.21,0,.49,0,.61,0l-3.19,0A1.71,1.71,0,0,1,23.3,5c-.14-.12-.21-.11-.83,0a4.79,4.79,0,0,1-.67,0c-.77,0-1.56-.06-2.31,0-1.34,0-2.73,0-4,.08-1.83,0-3.53.1-5.31.15a1.52,1.52,0,0,0-.54.08c-.06,0,.25.08.49.08l2.46,0h.72c-.76.06-1.53.08-2.3.1-1.39,0-2.75.12-4.18.11-.72,0-1.44,0-2.16,0l-2,.08a1.67,1.67,0,0,0-.73.1l1.48.08.39,0h.14l-.11,0H3.4l-.82.07-.7,0A2.46,2.46,0,0,0,1.15,6l.77,0,1.9,0a6.53,6.53,0,0,1,1.65.15,4.61,4.61,0,0,0,.89.09l3,.1,4.74.07c-.84,0-1.66,0-2.49,0s-1.62.13-2.51.05l-.25,0a2.83,2.83,0,0,1-1,.08l-2.48,0c-.3,0-.71,0-.76.1l.38,0c1,.07,2.12.06,3.19.07a7.21,7.21,0,0,1,1.32.07A9.88,9.88,0,0,0,7.91,7H9.36a5.61,5.61,0,0,0,1.39-.12,1.18,1.18,0,0,1,.56,0h0a14.93,14.93,0,0,1,1.77,0Zm226.61-.72h0Zm-84-3.31h.88l.23,0h-1.11Zm26.9-.17a3.34,3.34,0,0,1-.84,0h.84Zm60.8,3.71c0-.09.32-.12.43-.18l-.23,0h.11l.1,0C243.89,6.4,243.89,6.4,243.35,6.46Zm-1.77-.36.21.27-.31,0-.34-.13-.36,0-.07,0h.21l.21.08ZM177,2.88a.83.83,0,0,1-.24,0s-.06,0,0-.05a5.71,5.71,0,0,1,1.21-.07,2.86,2.86,0,0,1,.57.07l1.13-.06a1.8,1.8,0,0,1-1.13.06Zm-1.62-.12.51,0-.88,0a3,3,0,0,1-.43.06c-1.26,0-2.5,0-3.89,0a1.2,1.2,0,0,1,.32-.08,38.26,38.26,0,0,1,4,0Zm68.79,2.47h-.58c-2.78,0-5.52-.06-8.28-.08l-3.08,0a1.31,1.31,0,0,1,.6-.07l4.07,0,5.08.07,5.82.08.7,0h0C247,5.31,245.56,5.27,244.12,5.23ZM46.19,4.35c.63,0,1.28,0,1.89,0,1.25,0,2.49-.07,3.76,0,.48,0,1,0,1.68,0-2.61.09-8.21.13-10.05.07C44.49,4.35,45.33,4.34,46.19,4.35Zm115-1.45c-.23,0-.46,0-.68,0,0,0-.07,0-.06,0l.12,0h.13l3.74,0,1.27,0a2.57,2.57,0,0,1,.4.07,1.45,1.45,0,0,1-.3,0h-4.62ZM32.42,4.7h-.15c-.2,0-.41,0-.37-.06a.57.57,0,0,1,.26-.06l1.16,0c1.23,0,2.43,0,3.64,0h.58l.05,0ZM145.13,3.47,144,3.5l-4.64,0,6.07-.09.08,0A2.09,2.09,0,0,1,145.13,3.47Zm43.81-.69-1.15,0a1.46,1.46,0,0,1-.82-.11,31,31,0,0,1,3.23.07ZM42.79,4.44,41,4.5a8,8,0,0,1-1.39,0A26.71,26.71,0,0,1,42.79,4.44ZM151.48,3a13.35,13.35,0,0,0-1.81.06.62.62,0,0,1-.21,0,.14.14,0,0,1,.12-.07L151,2.9c.27,0,.54,0,1,0A4.13,4.13,0,0,1,151.48,3Zm2.66-.1a.48.48,0,0,1,.18,0s0,0,0,0a5.31,5.31,0,0,1-1.56,0A6.77,6.77,0,0,1,154.14,2.89Zm14.33-.08h.9a10.12,10.12,0,0,1-2.15,0Zm83.89,3.41s0,0,0,0a4.57,4.57,0,0,1-1.27,0A5.2,5.2,0,0,1,252.36,6.22Zm20.57-.85a4.49,4.49,0,0,1-1,0s0,0,0,0a4.21,4.21,0,0,1,1.24,0Zm13.32-.58,0,0-1.14,0V4.74ZM148.1,3l.6-.05.05,0c-.06.07-.31.07-.55.07h-.12S148.08,3,148.1,3Zm82.31,3.26a1.91,1.91,0,0,1-.32,0l.19,0h.51A2,2,0,0,1,230.41,6.25ZM299.94,5.1v0h-.82v0ZM146.93,3a1.26,1.26,0,0,1-.28,0,2.53,2.53,0,0,1-.38,0l.25,0Zm73.71,3.28s-.14,0-.13,0a.26.26,0,0,1,.16,0l.26,0ZM136.7,3.07s-.15,0-.15,0a.89.89,0,0,1,.17,0l.16,0Zm91.1,3.17h.13l-.18,0-.57,0Zm48.82-.87-.1,0h.33Zm-53.41.73a1.77,1.77,0,0,1-.22,0,.76.76,0,0,1-.16,0l.24,0Zm60.32.39h.24ZM184.67,2.73l-.11,0h.21ZM287.26,6.55h.13l.11,0h-.13ZM15.4,5.3h0Zm250.53-.07h0Zm-247.27,0-.05,0h.05Zm278.92-.18h0l.24,0Zm-14-.29-.12,0h.13l.09,0ZM138.91,3.09l0,0-.15,0,.1,0ZM141.33,3l-.1,0h.1ZM269.42,4.68v0h0Zm-73.2-1.93h.11l0,0Zm-60.59.38h0ZM145.25,3h0Z"/><path d="M70.8,3.43A10.84,10.84,0,0,1,69,3.59l-6.68.11-6.85.11-3.33.06-3.06,0a1.55,1.55,0,0,1-.44-.06c-.11,0,.11-.09.33-.11l.7,0,8.87-.18,6-.1c2,0,4-.06,6,0Z"/><path d="M31.41,4.13l.66,0L36,4l6.51-.15,3.33-.07H46c.6,0,1.2.06,1.83,0a.82.82,0,0,1,.28.05s0,.06-.14.08a3.89,3.89,0,0,1-.39,0c-2.22.05-4.43.11-6.67.13l-5.53.08-.58,0c-.77,0-1.53,0-2.3,0h-1Z"/><path d="M168.19,2.22c1.6,0,3.21,0,4.79,0,1.85,0,3.69,0,5.54,0h3.21l.42,0s0,0,0,0a.58.58,0,0,1-.23,0c-1.52-.06-3,0-4.48,0h-1.17c-1.65,0-3.3,0-4.95,0h-.58c-1-.06-1.92,0-2.89,0H166.7a.28.28,0,0,1-.16,0s0,0,.09-.05a4.55,4.55,0,0,1,.53,0h1Z"/><path d="M204.54,2.74c-.93-.06-1.84-.09-2.84-.06s-1.82,0-2.73,0a.34.34,0,0,1-.15,0s.08,0,.13,0h3.3c1.31,0,2.61,0,3.92,0l4.07,0a1.44,1.44,0,0,1,.34,0c.11.05-.08.08-.27.09l-.57,0h-1.16l-4.05.06Z"/><path d="M190.48,2.14a12.77,12.77,0,0,1,2.31.06,2.9,2.9,0,0,1-.38.07c-1.19,0-2.36.08-3.6,0-.78,0-1.64,0-2.46,0a10.86,10.86,0,0,1-1.41,0c-.11,0-.24,0-.23-.07a.73.73,0,0,1,.28-.05h3.93a13.54,13.54,0,0,0,1.57,0Z"/><path d="M216,2.32c-.94.06-1.9.05-2.86,0l-5.64-.1h0V2.2H215a2.46,2.46,0,0,1,1,.13Z"/><path d="M231.77,2.44l-1.07-.08c.26,0,.37,0,.49,0h3.34l4.49.06c.12,0,.24,0,.38,0a8.43,8.43,0,0,1-1.74.07l-1.45,0L233,2.4a8.7,8.7,0,0,0-1.27,0Z"/><path d="M252.56,2.57a2.55,2.55,0,0,1,.39,0c1.23,0,2.5-.07,3.71.05.24,0,.57,0,.86,0a21.35,21.35,0,0,1,2.71.1,13.53,13.53,0,0,1-2.36,0,15.51,15.51,0,0,0-1.69-.05c-1.22,0-2.38,0-3.56-.09C252.6,2.6,252.59,2.59,252.56,2.57Z"/><path d="M223.86,2.38c-.14,0-.29-.06-.09-.1l.27,0c1.1,0,2.2,0,3.3,0,.56,0,1.15,0,1.72,0a4.21,4.21,0,0,1,.5,0,13.76,13.76,0,0,1-2.05.07,29.69,29.69,0,0,0-3.13,0,5.29,5.29,0,0,1-.53,0l.12,0Z"/><path d="M256.72,6.61a2.29,2.29,0,0,1-.92.09,26.91,26.91,0,0,0-2.84,0l-.4,0a.22.22,0,0,1-.15-.08s.09,0,.16,0c.91,0,1.81,0,2.72,0Z"/><path d="M151.55,2.4c2-.06,3.83,0,5.65-.07.1,0,.21,0,.31,0l-.08,0-.27,0-5.33,0Z"/><path d="M233.47,6.38l1.13-.12a1.94,1.94,0,0,1,.91.09.38.38,0,0,1,.1.29,1.11,1.11,0,0,1-.3.05c-.07,0-.22,0-.2-.06s-.13-.14-.58-.17Z"/><path d="M292.38,4.18c.22,0,.46,0,.66,0l3.48.18a.2.2,0,0,1,.16.07.74.74,0,0,1-.22,0,36.92,36.92,0,0,1-4.09-.24Z"/><path d="M160.67,2.38c.05,0,.06,0,.09,0l4.45-.06h.14l.18,0s-.08,0-.14,0c-.42,0-.85,0-1.28,0Z"/><path d="M207.18,2.26a19.24,19.24,0,0,1-3.13,0,1.4,1.4,0,0,1-.24-.06l.33-.05h1.45l1.58.05h0v.06Z"/><path d="M136,2.62l-2.32,0a1.27,1.27,0,0,1-.35,0c-.06-.05.16-.06.35-.06l3.65-.05c.19,0,.37,0,.56,0,0,0,.1,0,.09,0a.24.24,0,0,1-.09,0l-1.88,0Z"/><path d="M244.65,2.56l-.19-.05c-.14,0-.19-.09,0-.09l2.9,0c.2,0,.38,0,.87.09-1,0-1.67,0-2.35,0-.42,0-.86,0-1.28,0Z"/><path d="M285.35,6.83l-2.46,0a1.2,1.2,0,0,1-.36,0c-.06,0,0-.07,0-.07a16.16,16.16,0,0,1,2.41,0,3.19,3.19,0,0,1,.41.09Z"/><path d="M95.18,3.09l-3.32.05s-.16,0-.16,0,0,0,.12,0A4.77,4.77,0,0,1,92.48,3l2.44,0A1.07,1.07,0,0,1,95.18,3.09Z"/><path d="M24.48,4.78c-.52,0-1,0-1.56,0a.83.83,0,0,1-.23,0l.17-.07H23l2.72,0a.36.36,0,0,1,.2,0s0,0-.06,0l-1.07.08h-.3Z"/><path d="M116.68,2.77a20.26,20.26,0,0,1,2.37-.11.54.54,0,0,1,.26.06s-.12.06-.22.06A21.53,21.53,0,0,1,116.68,2.77Z"/><path d="M216.47,2.3a1.77,1.77,0,0,1,.4-.08c.79,0,1.59,0,2.44,0a13.71,13.71,0,0,1-2.72.08Z"/><path d="M236.52,2.83a14.43,14.43,0,0,1,2.71,0l.05,0a.29.29,0,0,1-.14.05C238.34,2.9,237.55,2.88,236.52,2.83Z"/><path d="M144.55,2.57l-.66,0s0,0,0,0a7.48,7.48,0,0,1,1.64,0s.06,0,.05,0a.44.44,0,0,1-.15,0Z"/><path d="M256.52,3.05H259a.35.35,0,0,1,.16,0s-.07,0-.14.05A13.19,13.19,0,0,1,256.52,3.05Z"/><path d="M213.9,2.62h2.31a.48.48,0,0,1,.22.06.91.91,0,0,1-.2,0,13.23,13.23,0,0,1-2.32-.1Z"/><path d="M240.17,2.85a6.73,6.73,0,0,1,1.67,0c.06,0,.11,0,.1,0l-.18,0A9.16,9.16,0,0,1,240.17,2.85Z"/><path d="M285.35,6.89V6.83h0l.21,0a3.41,3.41,0,0,1,1.17,0c.27,0-.1.12-.8.19l-.28,0h0l-.32-.07Z"/><path d="M250.57,6.64a3,3,0,0,1-.34,0s.09-.08.21-.09.45,0,.67,0a.63.63,0,0,1,.29.06s-.08,0-.18.06Z"/><path d="M201.9,2.2s0,.1-.33.1l-1.23,0c-.05-.09.25-.09.45-.09l1.12,0Z"/><path d="M129.28,2.67a5.07,5.07,0,0,1,1.27-.09,3.8,3.8,0,0,1,.62,0c.14,0-.23.08-.64.07Z"/><path d="M239.07,6.68l-.63,0a1.58,1.58,0,0,1-.6,0c-.09-.06.26-.16.53-.15S238.75,6.62,239.07,6.68Z"/><path d="M290.61,4.18a7,7,0,0,1,1.77,0h0a1.66,1.66,0,0,1-.87.09l-.88-.09Z"/><path d="M139.17,2.55a14.79,14.79,0,0,1,2.4,0l-2,0Z"/><path d="M220.87,2.29a4.2,4.2,0,0,1,1.38,0s0,0,0,0A4.34,4.34,0,0,1,220.87,2.29Z"/><path d="M292.38,5.74H291a.94.94,0,0,1-.24-.06l.35,0,1.25.05Z"/><path d="M225.61,6.4a2.23,2.23,0,0,1,.27.14s0,.07-.06.07a3,3,0,0,1-.52,0c-.12,0-.22-.06-.2-.09s.2-.11.53-.12Z"/><path d="M240.87,2.37l.72.09s0,0,0,0a2.43,2.43,0,0,1-.36,0c-.23,0-.43-.06-.64-.09Z"/><path d="M78.68,3.24l.4,0s.06,0,.06,0,0,0,0,0a3.78,3.78,0,0,1-1,0l-.07,0s0,0,0,0Z"/><path d="M257.67,6.68l-.26,0s0-.06,0-.08a1.9,1.9,0,0,1,.37,0l.38,0a.69.69,0,0,1-.19.07Z"/><path d="M120.34,2.71a11.1,11.1,0,0,1,1.54,0A6.14,6.14,0,0,1,120.34,2.71Z"/><path d="M106.78,7.12l-1,0-.19,0s.07,0,.13,0l1,0Z"/><path d="M245.72,6.53a5.76,5.76,0,0,1,1.2-.07,1.38,1.38,0,0,1,.2,0,2.44,2.44,0,0,1-.26.06Z"/><path d="M265.44,2.74c.62,0,1.19,0,1.78.08a5.34,5.34,0,0,1-1.79-.08Z"/><path d="M105.74,2.87h1.66a13.34,13.34,0,0,1-1.68.06Z"/><path d="M114.58,2.75l.81,0a.34.34,0,0,1,.15,0s-.09,0-.14,0l-.81,0Z"/><path d="M231.77,6.41s-.1-.07,0-.08a1.47,1.47,0,0,1,.38,0,1.71,1.71,0,0,1,.42.06c0,.06-.26.08-.53.06a2,2,0,0,1-.24,0Z"/><path d="M220.05,2.62l1.12.07c0,.1-.39.07-.62.07l-.69,0,.2-.1Z"/><path d="M128.18,2.68c-.17,0-.35,0-.53,0a3.49,3.49,0,0,1-.5,0c-.15,0,.08-.07.48-.07l.56,0Z"/><path d="M218.05,2.65a2.31,2.31,0,0,1-.39.06c-.15,0-.27,0-.41-.06a1.4,1.4,0,0,1,.24-.06Z"/><path d="M250.78,2.51h.14l.37.06-.38,0a.65.65,0,0,1-.14,0l-.22-.06Z"/><path d="M248.13,2.93a1,1,0,0,1-.22,0,2.12,2.12,0,0,1-.64,0s0,0,0,0l.52,0A2.15,2.15,0,0,1,248.13,2.93Z"/><path d="M244.63,3H244a.18.18,0,0,1-.1,0l.61,0A.57.57,0,0,1,244.63,3Z"/><path d="M224.72,2.74a3.87,3.87,0,0,1,1.41,0Z"/><path d="M255.71,3.13l-.43,0c-.05,0-.07,0,0-.05l.22,0,.39,0c.06,0,.11,0,.1.05A.9.9,0,0,1,255.71,3.13Z"/><path d="M227.89,2.72l-.4,0s-.11,0-.12-.06a.77.77,0,0,1,.2,0Z"/><path d="M125.63,2.68c-.14,0-.31,0-.48,0a.78.78,0,0,1-.22,0s0,0,0,0l.64,0S125.65,2.68,125.63,2.68Z"/><path d="M146.73,2.47l.45,0h1.09A11.31,11.31,0,0,1,146.73,2.47Z"/><path d="M288,5.63h1a1.81,1.81,0,0,1,.23,0c-.05.06-.32.06-.54.06a1.57,1.57,0,0,1-.66-.09Z"/><path d="M270.7,5.68h1.56a3.83,3.83,0,0,1-1.55,0Z"/><path d="M159.48,2.38l-.63,0a.7.7,0,0,1-.17-.06l.63,0A1.2,1.2,0,0,1,159.48,2.38Z"/><path d="M232.45,2.81a1.67,1.67,0,0,1,.65-.07.47.47,0,0,1,.16,0l-.09,0Z"/><path d="M285.82,4.1a1.79,1.79,0,0,1-.19,0,.41.41,0,0,1,.19,0l.23,0Z"/><path d="M.21,6a1.37,1.37,0,0,1,.25.09s-.08,0-.13,0L0,6Z"/><polygon points="287.97 5.56 287.97 5.63 287.99 5.62 286.46 5.61 286.46 5.58 287.99 5.57 287.97 5.56"/><path d="M280.05,6.83l-.28,0s-.14,0-.12,0l.25-.05Z"/><path d="M285.58,5.7l.28,0a2,2,0,0,1-.28.06l-.22,0Z"/><path d="M265.14,2.74a4.57,4.57,0,0,1-1.33,0Z"/><path d="M103.92,3l-.38,0a.65.65,0,0,1-.13,0l.35,0Z"/><path d="M109.46,2.86s0,0,0,0l.53,0s0,0,0,0Z"/><path d="M1,6.71.69,6.64l.3,0c.05,0,.18,0,.17,0A1.22,1.22,0,0,1,1,6.71Z"/><path d="M251.12,3a.87.87,0,0,1-.21,0l-.49,0a.42.42,0,0,1,.15,0Z"/><path d="M123.58,2.72h-.39s0,0-.07,0h.25A1,1,0,0,1,123.58,2.72Z"/><path d="M222.4,2.77l-.31-.06c.11,0,.21,0,.32,0a1,1,0,0,1,.23,0Z"/><path d="M231.17,2.74l.16,0-.2,0-.2-.05Z"/><path d="M96.81,3,97.18,3l.19,0a.14.14,0,0,1-.07,0l-.51,0Z"/><path d="M101.65,2.91l.27,0-.39,0-.19,0Z"/><path d="M249.19,2.93l.18,0-.18,0A.53.53,0,0,1,249,3Z"/><path d="M75.61,3.37a1.22,1.22,0,0,1-.27,0s0,0-.06,0h.27S75.59,3.36,75.61,3.37Z"/><path d="M240.89,6.72l-.19,0a.7.7,0,0,1-.14,0l.19,0A.74.74,0,0,1,240.89,6.72Z"/><path d="M277.51,6.87s-.08,0-.07-.07l.2,0,.15.07Z"/><path d="M285.64,7h-.48l.19-.08h0l.32.07Z"/><path d="M258.12,7l-.26,0a.12.12,0,0,1-.07,0,1.31,1.31,0,0,1,.2,0,.33.33,0,0,1,.12,0Z"/><path d="M132.32,2.62l-.16,0-.07,0,.17,0Z"/><path d="M295.59,5.86h-.39a.21.21,0,0,1-.12,0h.23a1.81,1.81,0,0,1,.27.06Z"/><path d="M274.56,5.73l-.05,0-.2,0,.05,0Z"/><path d="M281,5.61l0,0h-.1s0,0-.05,0Z"/><path d="M83.5,3.24h0Z"/><path d="M80.39,3.3l-.22,0-.06,0h.23Z"/><path d="M260.16,3.14h.1s0,0-.05,0h-.1Z"/><path d="M252.59,3.05h-.12l.06,0h.09S252.6,3.05,252.59,3.05Z"/><path d="M213.32,6.46l-.22,0H213l.09,0h.25Z"/><polygon points="218.88 2.69 218.96 2.67 218.99 2.7 218.88 2.69"/><path d="M249.41,2.55l-.08,0,.17,0,.05,0Z"/><path d="M295.58,5.87h.27a.24.24,0,0,1,.09,0h-.13l-.22,0Z"/><path d="M112,2.82l0,0-.22,0,0,0Z"/><path d="M270.71,5.68h-.28a.24.24,0,0,1-.09,0h.13l.23,0Z"/><path d="M275.42,6.77l-.22,0H275a.42.42,0,0,1,.13,0h.33Z"/><polygon points="270.48 3.64 270.41 3.63 270.49 3.62 270.48 3.64"/><path d="M272.87,6.79l.06,0-.16,0-.06,0Z"/><polygon points="82.24 3.25 82.36 3.24 82.34 3.26 82.24 3.25"/><path d="M259,6.81l-.06,0h-.12a.11.11,0,0,1,.06,0A.26.26,0,0,1,259,6.81Z"/><polygon points="262.9 3.21 262.8 3.22 262.84 3.2 262.9 3.21"/><path d="M253.93,3.06s0,0,0,0h-.11s0,0,0,0Z"/><path d="M230,6.61s.05,0,0,0h-.12s0,0,0,0Z"/><path d="M86.85,3.16a.83.83,0,0,1,.58,0h-.58Z"/><path d="M216,2.32l.52,0,.12,0a1.88,1.88,0,0,1-.63,0Z"/><polygon points="223.59 2.72 223.59 2.7 223.69 2.71 223.59 2.72"/><polygon points="235.63 2.83 235.53 2.84 235.54 2.82 235.63 2.83"/><polygon points="89.18 3.1 89.15 3.13 89.19 3.1 89.18 3.1"/><path d="M89.48,3.1l.2,0h-.11l-.09,0Z"/><path d="M86.84,3.16l-.17,0h.17Z"/><polygon points="261.26 3.19 261.35 3.18 261.34 3.2 261.26 3.19"/><path d="M128.71,6.89l-.18,0,.06,0Z"/><polygon points="265.14 2.74 265.44 2.74 265.43 2.74 265.29 2.74 265.14 2.74 265.14 2.74"/><path d="M204.53,2.74h0Z"/><polygon points="89.19 3.1 89.48 3.1 89.48 3.1 89.18 3.1 89.19 3.1"/><path d="M96.79,3h0Z"/><polygon points="207.46 2.26 207.18 2.26 207.17 2.26 207.47 2.26 207.46 2.26"/><polygon points="87.42 3.16 87.45 3.22 87.41 3.21 87.44 3.16 87.42 3.16"/><polygon points="87.45 3.22 87.36 3.23 87.41 3.21 87.45 3.22"/><path d="M290.62,4.18h0Z"/><path d="M231.76,2.44h0Z"/><path d="M213.91,2.62h0Z"/><path d="M220.06,2.62h0Z"/><path d="M244.65,2.56Z"/><path d="M219.46,6.53h0Z"/><path d="M11.3,7h0Z"/><path d="M258.11,7h0Z"/><path d="M108.65,108l-13.15-.09-13.9-.28c-9.77-.22-19.52-.48-29.29-.64-5-.07-10-.21-15-.37-10.63-.36-21.28-.36-31.94-.18-1.23,0-2.48,0-3.71-.09a.74.74,0,0,1-.49-.28s.27-.14.47-.16c.59-.06,1.21-.12,1.82-.13l14.66-.17,9.37-.22,14.27-.21,12.41,0L76,105l13.9-.09,13.54,0,18,.14c1.74,0,3.5-.09,5.25-.09H148.5l22.94-.06,13.92,0,19.94.05,7.52.09,24.44.26,22.52.33c5.64,0,11.28,0,16.92,0l10.54,0,15.8.06,4.88,0a3.05,3.05,0,0,1,.76.2,2.69,2.69,0,0,1-.71.23c-4.81.26-9.62.54-14.46.73-3.1.13-6.26.19-9.38.15-7.05-.08-14,.17-21,.3l-17.27.27-12,.3-7.5.12-18,.18-20.68.15c-.63,0-1.26,0-1.88,0-6.14-.16-12.29,0-18.42,0l-20.69-.12-13.54,0h-6l-13.54-.06c-1.62,0-3.25-.07-4.88-.11Z"/><polygon points="9.89 110.98 9.89 110.98 9.88 110.98 9.89 110.98"/><polygon points="6.31 76.28 6.32 76.28 6.3 76.28 6.31 76.28"/><polygon points="16.36 114.94 16.35 114.94 16.36 114.94 16.36 114.94"/><polygon points="6.5 70.02 6.52 70.02 6.51 70.02 6.5 70.02"/><path d="M16.8,114.9l-.45,0-.15-.08a.64.64,0,0,0-.4,0c-.34.06-.59.06-.59,0s-.19,0-.42,0-.66.06-.53,0,.19-.11-.14-.13c0,0-.07,0,0,0,.69-.14-.24-.07-.37-.1s-.48-.06-.44-.14.05-.08-.43,0c-.29,0-.58,0-.5-.06s.17-.11-.24-.11c-.24,0-.1-.07,0-.11s-.26-.13-.09-.21c0,0-.08,0-.18,0-.49.06-.62,0-.64,0s0-.05-.19-.05-.26,0-.16-.06.08-.1,0-.14.06-.08-.34-.05c-.05,0,0,0,.11,0s.06-.07.05-.07c-.6-.06-.35-.21-.6-.31-.1,0,0-.1-.26-.13h0c.65-.08.07-.13.34-.21s0,0-.05-.07-.3,0,.08-.11c.16,0-.14-.08,0-.13-.75,0-.22-.1-.25-.14a2.08,2.08,0,0,0-.36-.37c-.09-.09.34-.18.42-.27s.42-.11-.2-.06c-.2,0-.28,0-.16-.05a5.21,5.21,0,0,1,1.08-.27c.09,0,.23,0,.14,0-.61,0-.13-.05,0-.09s-.12,0-.18,0a.49.49,0,0,0-.22,0,.46.46,0,0,1-.27.06c-.28,0-.21,0-.32-.06s0,0,.1-.06l.42-.08c.23,0,.17-.08.06-.1a3.65,3.65,0,0,0-.55,0l0,0c.61-.06.46-.13.5-.19s-.19-.07-.46-.08a1.48,1.48,0,0,1-.39,0s-.17,0,0-.07a.6.6,0,0,1,.33,0s.08,0,.29,0,.44,0,.3-.07-.21-.17-.5-.24c0,0-.06,0-.05,0s-.06-.07-.08-.16-.56-.2-.28-.37.12-.18,0-.27-.18-.12-.1-.15,0-.15,0-.22-.11-.05.15-.1-.21-.13.3-.22c-.71,0-.37-.08-.16-.15s-.35,0-.29-.1,0-.23.07-.35.13-.25,0-.36.26-.15.19-.22.05,0,0,0c-.38-.06-.34-.17-.39-.26s-.22-.23.14-.32.06-.11,0-.17a.34.34,0,0,1,0-.46c.05-.06-.07-.13-.14-.19s.19-.19,0-.27c0,0,0,0,0,0,.65-.15.12-.22,0-.32s-.28-.09.33-.13l.11,0H9.73c-.37,0-.37,0-.3-.09.27-.2.49-.41.5-.6s-.11-.16-.19-.24,0,0,0,0c.52-.16.13-.24,0-.35s-.08,0,0-.06c.69-.13.09-.18.23-.26s-.34,0-.24-.07-.17,0,0,0a1.87,1.87,0,0,1,.33,0,.84.84,0,0,0,.55-.1c.11,0-.15,0-.38,0a1,1,0,0,0-.26,0c-.15,0-.14.09-.34.06s-.16-.1.15-.14c.63-.1.38-.16.49-.24s-.07,0,.08-.06c.38-.06.09-.07,0-.09s-.64,0-.25-.14c.07,0,.08,0,0,0-.76,0-.34-.12-.68-.16.6-.12,0-.17.16-.25s.2-.09-.22-.08c-.15,0-.1,0,0,0s.29-.06.19-.06c-.46,0-.29-.09-.47-.12s0-.12-.16-.17,0-.05-.09-.07c-.27,0-.23-.13-.07-.17.46-.14-.09-.19.06-.29s-.29-.28,0-.46.07-.23-.17-.31c-.05,0,0,0,.11,0s.26,0,.15,0c-.38-.07-.28-.16.1-.28.11,0-.06-.09-.11-.13-.22-.13-.11-.28.45-.45.05,0,.2,0,.06,0-.71,0-.45-.17-.45-.27a1.9,1.9,0,0,0,0-.41c-.06-.14,0-.29.08-.43.62-.07.13-.14.54-.22.17,0-.13-.06,0-.11s-.2,0-.42,0-.3,0-.14-.05.39-.14.19-.2,0-.21,0-.32-.34-.1,0-.18c0,0-.14,0,0,0s.29,0,.27,0a1.53,1.53,0,0,0-.31,0c-.14,0-.28,0-.26,0s0-.07.15-.1.09,0,.12,0a.59.59,0,0,0,.35,0c.24,0,.1,0,.08-.07s-.11-.1-.5-.09c-.19,0-.24,0-.09-.07.63-.12.13-.16.15-.24s-.66-.06.16-.13c.17,0,0-.06,0-.06-.86,0-.09-.18-.27-.25s.6-.2.41-.28.07-.06.22-.08.35,0,0,0,.33,0,.2-.08.12-.17-.56-.17c-.18,0-.21,0,.17-.08a1,1,0,0,0,.36-.06s0,0-.06,0a1,1,0,0,0-.37,0s-.14,0-.16,0-.06-.06,0-.1.12,0,.22,0h.11c.31,0,.76,0,.83,0s.2-.18,0-.24-.92-.18-.53-.36c.17-.08,0-.17-.16-.23s0-.08-.08-.12c-.35-.24-.43-.52-.29-.81,0,0-.06,0-.13,0s-.11,0,.11,0a1.2,1.2,0,0,0,.56-.09c.16-.06-.15,0-.34,0s-.23,0-.14,0a.55.55,0,0,1,.31,0,.64.64,0,0,0,.19,0c.07,0,.05,0,0,0s0,0,0-.07.42-.15-.37-.07c-.09,0-.1-.19,0-.21.28,0,.48-.06,0,0-.1,0-.13-.08.05-.13s.2-.07.06-.1c-.38-.09-.33-.22-.48-.34s.14-.1,0-.15,0,0,.25,0,.26,0,.19-.06-.29,0,0,0a1.06,1.06,0,0,1,.35,0,.75.75,0,0,0,.26,0,.07.07,0,0,0,0-.11.72.72,0,0,0-.24,0,.61.61,0,0,1-.27,0c-.09,0-.05,0,0,0s0-.06-.23,0c0,0,.15,0,0-.06-.38,0-.24-.12-.22-.2a.29.29,0,0,1,.14,0c.12,0,.13,0,.13,0s0,.08.23.06.25-.07.22-.09.38-.11.72-.14.35,0,.25-.08-.14,0,0-.07,0-.08-.22-.06c-.57.06-.67,0-.29,0,.1,0,.05,0,0-.05l-.22,0c-.06-.09.18-.21-.45-.24l.07,0c.57,0,.39-.11.62-.16s.27-.09,0-.11-.21,0-.13-.07,0-.09-.4,0a1.67,1.67,0,0,1-.57,0c-.08,0-.08-.11.15-.15s.07,0,.05-.05-.24-.09.13-.19a.33.33,0,0,0,.26-.21.38.38,0,0,0-.16,0,.29.29,0,0,0-.21.05c-.06,0,0,0-.2,0s-.08,0,0,0c.32-.12.12-.19,0-.27s0-.11,0-.17a.85.85,0,0,0-.25-.07c-.12,0-.36-.07.2-.13h0c-.9.09-.41-.09-.81-.09.28-.08-.19-.1-.14-.16s-.16-.08.13-.13-.26,0-.12-.06-.31-.06.25-.1c.24,0,0,0,0,0s-.88,0-.18-.12c-.36,0-.15-.09-.11-.14s-.52-.11-.26-.21,0-.18-.24-.25c-.1,0-.11-.08.28-.12-.2-.06,0-.15-.12-.21s0-.09-.24-.12c0,0,0,0,0,0,.34-.06.33-.06.08-.1-.06,0,0,0,0-.07s.21,0,.12,0c-.34,0-.25-.12,0-.21.08,0-.39,0-.23-.08l.23,0a3.43,3.43,0,0,1,.56,0,.62.62,0,0,0,.28,0c.06,0,0,0,0-.05s-.2,0-.07-.06c.54-.1,0-.08-.19-.09-.43,0-.45-.13-.07-.22.1,0,.37-.08-.09,0s-.46,0-.51-.08.47-.16.55-.24.12-.1.07-.14.09-.08-.19-.06-.21.06-.24.09-.09,0-.07.06.21,0,0,.08H7.55s-.16-.06-.08-.08c.33-.1,0-.13-.25-.16s0-.06,0-.1a1.54,1.54,0,0,1,.34,0c.21,0,0,0,0,0s0,0,.1,0L8,86c.13,0,0,0,0,0s0-.16-.69-.13c-.06,0-.15,0-.09-.06.65-.13-.34-.12,0-.22.06,0-.2,0,.2-.08.22,0,.11,0,.1-.06s-.09-.22-.21-.33a.22.22,0,0,1-.1-.21c0-.07-.27-.12-.13-.2s0,0-.14,0-.32-.06-.12-.1,0-.13.57-.1c.09,0,.14,0,.15,0s0,0-.17,0c-.7,0-.61,0-.27-.14s.79-.2.45-.28c-.08,0,.09-.07.08-.11s-.47-.19-.21-.32c0,0-.07,0,.13-.07.45-.07.28-.11,0-.14s-.34-.07-.11-.16.08-.19-.06-.27-.23-.05.23-.1.2,0,0-.09a1.74,1.74,0,0,1-.54-.23,3.07,3.07,0,0,0-.66-.27c-.19,0,.13-.11,0-.15s-.35-.12,0-.22c.18-.05-.36,0-.16-.06s-.11-.11.22-.19c.1,0,.09,0,0-.06s-.14-.07-.09-.13.22-.16-.06-.21,0-.11,0-.16-.15-.18-.16-.27,0-.43,0-.64S6,80,6.06,79.92s.31-.15.11-.2.48-.19.39-.27.23-.22.19-.33.56-.25.29-.34.13-.3-.18-.41c-.07,0-.08-.07.12-.11s.44-.07,0-.06H6.89c.76-.09,0-.07,0-.09-.37-.11-.08-.29-.7-.37.61-.09-.4-.11.25-.2a.11.11,0,0,0-.06,0c-.1,0-.35,0-.16,0a1.61,1.61,0,0,1,.49,0,1.31,1.31,0,0,1,.42,0s.14.06.42,0,.17-.06.16-.09A3,3,0,0,1,7.58,77c0-.11.11-.22-.31-.28-.13,0,0,0,.11-.06a.8.8,0,0,0,.37-.16c.07,0-.06-.06-.21-.06s-.08,0-.1.06a1.05,1.05,0,0,1-.38,0c-.16,0-.35,0-.17-.07s.35-.08.26-.09c-.36,0-.24-.14-.83-.11.58-.12,1-.23.56-.33-.06,0,0,0,0-.07.51-.11.16-.12-.25-.11s-.07-.09-.36-.09c.13,0,.08-.06-.16-.05s-.14,0-.15,0-.48-.31-.27-.5-.4-.19.46-.33c0,0,.24,0,.06,0-.47,0-.27-.06-.26-.11s.19-.12-.32-.11c-.15,0-.17,0,0-.06.47-.11.41-.18,0-.23s-.14-.15-.27-.22,0,0,0-.05,0,0,.12,0,.17,0,.18,0,0,0,.17,0,.13,0,.11-.06c-.2,0,.15-.16-.52-.16-.2,0-.18-.09-.14-.11.34-.13,0-.19-.14-.27s-.48-.16-.17-.28c0,0,0,0,0,0-.35,0-.1-.09.22-.14.11,0,.24,0,.17-.06a.83.83,0,0,0-.27,0,.61.61,0,0,1-.24,0c-.11,0,0,0,.08,0,.37,0,.3-.07.18-.08-.42-.06-.41-.09.15-.21,0,0,.07,0,0,0-.5-.08-.07-.26-.37-.37,0,0,0,0,.08-.09.25-.13.36-.25.19-.36s-.2,0,.17-.1c.12,0,.14,0,0,0-.41,0-.24-.06-.09-.09.69-.12.48-.2.3-.28s-.21,0-.11-.07a5,5,0,0,1,.59,0c.06,0-.25.1.13.07s.08-.06.18-.09c.35-.12-.19-.17,0-.28s-.09,0-.14,0a2,2,0,0,1-.63,0c-.06,0,0-.09.22-.13.61-.15.74-.32.29-.4-.21,0-.2,0,.18-.08s.57-.1.57-.16,0-.11-.26-.13c.13,0,.3,0,.32,0-.67.08.81-.18-.24,0-.13,0-.28,0-.24,0,.29-.06-.38-.06,0-.14h0c-1,0,.43-.2-.14-.23-.07,0-.06,0,0,0l.32-.07c-.38,0-.27,0-.55,0s-.2,0-.16,0c.26-.1-.13-.13-.19-.2s.1-.25.56-.38a1.66,1.66,0,0,0-.4,0c-.12-.06-.37-.12-.31-.19s-.24-.2-.07-.34,0-.17,0-.26-.08,0-.05,0c.33-.12.24-.21,0-.27s-.22-.09.06-.16c.11,0,.08-.07-.09-.07s-.24.05-.21.07,0,0-.17,0c-.29,0-.07-.1-.24-.14s.2-.05.37-.07.22,0,.21,0c-.11-.2.41-.45-.19-.61-.09,0-.23-.08,0-.14-.56,0-.31-.06-.47-.09s.32-.14-.11-.18c-.26,0-.14-.13-.21-.19l-.23-.21s0,0,0,0c.31-.09.1-.13.2-.2s-.3,0-.26-.08a2.85,2.85,0,0,1,.43-.16c.16-.06.08-.07-.14-.06-.46,0-.23,0-.06-.06l.27-.07c.11-.09-.13-.17.21-.27.12,0-.09,0-.17-.06-.24,0-.38-.09-.12-.17,0,0,0,0,0,0-.66-.06.1-.25-.21-.34,0,0-.08,0,0,0,.86-.1.37-.15.3-.22s-.17-.06,0-.11-.13,0-.23,0S4,64.07,4,64s-.2-.11.41-.16c.08,0,.22,0,.18,0-.29-.05.19-.18-.41-.19-.16,0-.16,0,.32-.12.14,0,.18,0,0,0-.39,0-.33-.24.06-.31,0,0,.2,0,.14,0-.63,0,0,0,0-.06s-.41,0-.24-.06.32,0,.08,0a1.17,1.17,0,0,0-.37,0c-.16,0-.23,0-.15,0s.18-.14.11-.21-.31-.29-.24-.45.09-.16-.19-.21.3-.07.3-.11,0-.07,0-.11,0-.1.48-.09a1.94,1.94,0,0,0,.34,0c.12,0,0,0,0,0s-.33-.22-.12-.36,0-.29,0-.43.07-.11-.46-.07a.1.1,0,0,1-.08,0l.07,0c.89,0,.41-.1.52-.15.29-.12-.21-.19.09-.32,0,0,0,0-.12,0a1,1,0,0,1-.34,0c-.06,0,.09,0,.2-.07s.64-.12-.09-.08a.07.07,0,0,1-.07-.05c0-.1-.17-.18-.46-.24,0,0,0,0,0,0,.69-.11,0-.15.17-.24s-.35-.1-.29-.17-.24-.26.44-.42c0,0,0,0,0,0-.34-.06.13-.2-.2-.27s-.1-.12-.1-.18-.18-.14-.2-.21-.53-.07-.07-.18c.13,0-.09-.08,0-.11.4-.13,0-.19,0-.28s-.62-.13.24-.25c-.14,0,.53-.12-.13-.08-.07,0-.19,0-.15,0,.26-.13-.15-.2-.19-.31s.49-.14-.19-.11l.13,0c.68-.06.41-.12.3-.15s.26-.16-.2-.18c.46-.06.06-.06,0-.09s.35-.06.47-.07c.45,0,.46,0,.23-.06s0-.11-.54,0c-.2,0,0-.06-.1-.08H4c.18,0,.44,0,.37-.05a3,3,0,0,0-.62,0l-.16,0,.16,0,.26,0H3.72a1.91,1.91,0,0,1-.32,0c-.09,0,.11,0,.18,0,.29-.07-.16-.09,0-.16s0-.06,0-.09.23-.11-.18-.1c.36,0-.68-.05.17-.1,0,0,.06-.07,0-.1s.08-.14-.14-.18.18,0,.33-.06.33,0,.29-.07-.15,0-.35,0a1.66,1.66,0,0,1-.42,0s0-.09.13-.12.22,0,.24,0a.31.31,0,0,0,.22,0c.13,0,0,0,0-.05a1.27,1.27,0,0,1-.11-.13c.15,0,.28,0,.44,0s0,0,0,0c-.18,0-.25-.05-.47,0-.22-.12,0-.27.2-.42s.05-.21-.32-.27a.93.93,0,0,1-.37,0c-.13,0,0,0,.14-.07.6-.11.54-.18.35-.26s.05,0,.11,0c-.29,0-.44,0-.3,0s-.13-.09.2-.15c.13,0-.17,0-.26,0-.31,0,.07,0,.11,0s.22-.06.06-.06-.1,0-.05-.05c.22-.12.11-.25-.21-.27s-.06-.06,0-.1,0,0,0-.06-.19-.19.09-.32c-.55,0,.36-.13-.15-.13.33-.06.14-.1.1-.13-.21-.15-.26-.32,0-.51s0-.18.27-.29h0c.43-.08.19-.14.3-.22L4,51.59c-.39,0-.22-.12,0-.16.47-.09.07-.08-.09-.1l-.13,0a2,2,0,0,1,.24,0c.09,0,.17,0,.16,0s0,0-.21,0-.26,0-.19,0a1.43,1.43,0,0,1,.26,0l.15,0H4.06c-.37,0-.49-.07-.17-.13s.22-.09.11-.12c-.62-.18-.7-.41-.6-.66,0-.09.62-.19.57-.29s-.16-.08-.16-.14.64-.22.43-.31c0,0,.1,0,0,0a.34.34,0,0,0-.21.05c-.07,0,0,0-.17.06s0,0-.1,0-.21-.08,0-.15-.14-.08-.19-.12-.46-.35-.43-.55-.06-.24.22-.38.28-.1-.19-.09c-.19,0-.09-.08,0-.12.35-.11.4-.19.05-.24-.17,0-.21-.06,0-.11s.15,0,.07-.05c-.25-.06-.5-.3-.25-.39s.11-.14,0-.19-.11-.21,0-.32.14-.09,0-.12,0-.06.18-.09c.56-.12.63-.24.17-.3-.18,0,.51-.08.22-.11.2,0,.08,0-.07,0s-.42,0,0-.07c0,0,0,0,0,0-.6-.07-.43-.2-.3-.33s.07-.1,0-.11c-.63,0-.1-.19-.08-.28s0-.1,0-.14-.12,0,.23-.09.14-.11.08-.13c-.24-.06.39-.08.37-.1s-.58.05-.45,0,.11-.09-.09-.12.15,0,.27,0l.28,0a1.07,1.07,0,0,0-.27,0c-.53,0-.53,0-.39-.14s.09-.21,0-.29,0-.06,0-.09S3.46,44,3.4,44s.32-.06.57-.07,0-.2,0-.3-.2-.18-.06-.3H3.8c-.46,0-.21-.12.08-.2.05,0,.18,0,.16-.06-.24-.12-.27-.25-.2-.39a.41.41,0,0,0,0-.34s0-.08.32-.11c-.06,0,.36-.07-.07-.06-.23,0-.44,0-.14-.08s.17-.07.13-.1-.35-.27,0-.44c0,0,0,0-.11,0s-.22,0-.17,0c.47-.07,0-.07-.06-.08-.34,0,.1-.11-.09-.14s0-.12.2-.19.18,0,0,0c-.07,0-.23,0-.14,0,.61-.14.22-.22.25-.33s.09-.26-.11-.35.18-.17.21-.25-.1-.34-.1-.51,0-.24,0-.37A1.3,1.3,0,0,1,4,39c0-.05.08-.11,0-.16s-.16-.29-.11-.45-.12-.33-.08-.51.07-.11.15-.17-.11-.1,0-.17-.09-.05,0-.06c.44-.11,0-.15,0-.22s-.23-.11-.34-.17,0,0,.09,0c.6,0,.38-.11.81-.12,0,0-.26,0-.4,0a.88.88,0,0,1-.21,0c0-.05.16,0,.24,0s.42-.06.41-.07-.23,0-.34,0H4.16c.7-.11-.49,0-.15-.08s-.15-.08,0-.15-.06-.11.13-.18-.43-.05,0-.12c.17,0,.35,0,.32,0s-.21,0-.45,0S3.84,36,4,36s.22-.14.14-.16-.06-.13-.16-.19-.3-.09.13-.16c-.56-.06.19-.21.09-.28s-.35-.14-.25-.23-.14-.31,0-.47-.26-.29.26-.48c.12,0-.29,0-.19,0s-.48-.19.18-.35c.4-.09.22-.15.17-.22S4,33.2,4.22,33.1,4.05,33,3.83,33s-.16,0-.07-.05c.58-.12,0-.15-.08-.22s0-.06.21-.1c.5-.08.45-.15.17-.19s-.36,0-.12-.1c0,0,0,0,0,0-.25-.09-.1-.22-.24-.33s-.27-.15.07-.26c.15-.05.1-.09-.09-.11-.37-.05,0-.16,0-.23s0-.29-.1-.43,0-.08.11-.13,0-.11,0-.16,0-.12,0-.17,0-.17,0-.25,0,0,0-.07a.46.46,0,0,0-.19-.34c-.07,0,.08-.09.11-.13s-.16-.16,0-.27,0-.07.28-.1c.07,0,.16,0,.07,0-.52-.06-.15-.19-.14-.3s.17-.16-.12-.22c-.13,0-.34-.09.08-.18.1,0-.07-.08-.11-.12s-.34-.12.27-.21c-.21,0-.16-.11-.24-.16s0-.19.15-.29,0,0,0,0c-.34-.1-.33-.24-.29-.37s-.29-.2-.06-.33-.23-.09-.17-.11c.22-.08,0-.12,0-.17s0-.05,0-.08,0-.26,0-.39a.36.36,0,0,1,0-.24c0-.09,0-.19-.12-.28s-.15-.13,0-.22.27-.15,0-.19c-.11,0,0,0,.1-.05l.12,0c-.6,0-.31,0-.21-.08a.94.94,0,0,0,.18-.14s0,0,0,0c-.24-.15-.16-.32-.24-.48s.16-.28,0-.4.18-.16.1-.23,0-.17-.08-.25.21-.18-.14-.24c-.07,0,0-.09.41-.13,0,0,.16,0,0,0-.63,0-.27-.08-.21-.13s.23-.22,0-.31l0,0c1.19-.08,0,0,0-.08s0-.18.13-.29.3-.16-.15-.19c-.15,0,.09-.05.16-.08s.32-.07,0-.08,0-.08.12-.12c.47-.23.17-.4.16-.6s0-.21-.06-.3.08-.28,0-.4a.23.23,0,0,1,0-.25c0-.06-.19-.12-.19-.19s0-.06.1-.09.41-.17-.1-.2c-.32,0,.15,0,.09-.08s.22-.29-.28-.38c0,0-.05,0,0,0,.37-.11-.11-.15,0-.24s-.39-.22.21-.37l.06,0c-.83,0-.15-.13-.36-.18s0-.06.13-.08.13-.06.05-.08-.17-.09,0-.16.13,0,.11,0c-.2-.1.08-.24,0-.33s-.13-.18,0-.29.28-.09-.21,0c-.25,0-.06,0,0,0s.29-.16.2-.22-.06-.12-.11-.17,0-.16.06-.22-.34-.29.2-.48c-.47-.05-.17-.17-.17-.25s-.34-.13.3-.23c.11,0,0,0,0,0-.67,0-.26-.08-.24-.1.28-.15.15-.28.4-.44s-.4,0-.24-.09-.09-.16-.11-.25,0,0,.14,0l.12,0c-.57,0,.07-.11-.29-.12-.2,0-.07-.05,0-.08a5.77,5.77,0,0,1,1.32-.19l.17,0s-.09,0-.15,0a1.81,1.81,0,0,0-.74,0,1.5,1.5,0,0,1-.37,0c-.05,0,.2,0,.34,0s.39,0,.32-.06-.18,0-.31,0c-.28,0-.26,0-.25,0s.21-.11-.06-.16,0-.12-.32-.15l.05,0c.57-.06.42-.07.13-.11S3.2,14,3.18,14s-.2-.17,0-.26-.05-.06-.14-.08,0,0,.11-.05.3-.06-.07,0c-.18,0-.47,0,0-.11.2,0,.21,0,0,0s-.37-.06-.24-.13,0-.1,0-.15S2.67,13,3,13s.13-.07.09-.09-.15-.24-.18-.36A.21.21,0,0,1,3,12.22s-.37-.06.17-.11c0,0-.33,0-.31,0s.1-.15.44-.22c.1,0,.11,0,0,0-.47,0-.3,0-.26-.07s.52-.16,0-.18c-.05,0,0-.11,0-.17s-.37-.09.14-.16c-.62,0,.18-.13-.29-.12,0,0-.07,0,0,0,.44-.07.14-.08,0-.1s.13-.06.33-.08l.26,0s-.16,0-.22,0c-.35-.05-.68-.08-.56-.19s.19-.14-.14-.19c-.11,0,0-.09-.08-.14s-.37-.05.18-.09c0,0,0,0,0-.05-.34,0-.23-.07.14-.12.07,0,0,0,0,0-.66,0-.28-.06-.28-.1s-.1-.12.29-.2c.18,0-.28,0-.28,0s.34-.15.13-.2.18,0,.32-.05.26,0,.27,0,0,0-.22,0-.28,0-.22,0c.29-.09.06-.12-.13-.16s0,0,.07,0c.73-.07,0,0,0,0s-.18,0-.12,0c.53-.05-.1-.1.39-.16C2.6,9.06,3.11,9,2.6,9c-.1,0-.2,0-.1,0,.69-.13-.18-.18.32-.3-.59,0,.27-.13-.25-.12.18-.09-.1-.14-.06-.21s-.12-.07-.07-.09,0-.09.28-.11.31-.05.12-.07S2.4,8,3,7.92c.06,0,.14,0,.13,0a1.1,1.1,0,0,0-.25,0,1.31,1.31,0,0,1-.32,0c-.11,0,.09,0,.19-.06s.46-.09,0-.08q-.17,0-.09,0c.28-.1-.06-.18.12-.26s-.31-.06,0-.12.15-.1.15-.15-.55,0-.24-.09C3.1,7,2.7,7,2.7,6.88s-.05-.09.17-.1h0s0-.17-.09-.22.26-.13.31-.18-.05,0-.19,0c-.41,0-.5,0-.35-.06s-.16-.12.4-.19c-.35,0-.41-.06-.08-.13H2.79c-.78,0-.56-.06-.16-.17.17,0,0-.1-.17-.11-.35,0-.11-.06-.13-.08a2.44,2.44,0,0,1,.42,0,1,1,0,0,0,.29,0H2.77c-.39,0-.52,0-.28-.06s-.24-.1.32-.17c.08,0-.09,0-.16,0-.43,0-.35-.08,0-.15.13,0,.26,0,0,0S2.36,5,2.34,4.94s.27-.11.42-.17.08,0,.06,0c-.71,0-.08-.16-.29-.23s.07,0,.15,0c.27,0,.23,0,.09,0s-.53,0,0-.1c.14,0,0,0,0,0-.56,0-.63,0,0,0a.84.84,0,0,0,.17,0H2.65c-.28,0-.14,0-.19,0-.2-.09.2-.21.2-.31s.12-.05.28-.06c0,0,.27,0,0,0-.46,0-.29,0-.23-.07s-.22-.08.32-.11h.09s-.1,0-.17,0c-.56,0-.49,0-.38-.1s0-.12.09-.2,0-.09.11-.14-.25,0-.22,0c.32-.09,0-.1-.29-.12,0,0,.07,0,.12,0s.56-.1-.09,0H2.26c.16-.08-.08-.15.26-.24l.17,0c-.13,0-.1-.1-.17-.15s-.37,0,0-.1c0,0,0,0,0,0-.44-.08-.41-.08-.09-.23.11-.06-.12-.1-.19-.14S2,2,2.11,1.87s.05-.13.47-.2c.11,0,.09,0,0,0-.37,0,0-.15-.18-.21,0,0,.1,0,.23-.05s.25,0,.15,0c-.38,0,0-.13-.65-.08L2,1.25l.14,0c.63-.1.62-.13.13-.17C2,1,2.41,1,2.51,1s.26,0,.14,0c-.78,0,.05-.16-.32-.2C2.2.7,2.46.67,2.6.65s.29,0,.11-.06,0-.12,0-.13,0-.06,0-.08S2.8.24,3.19.17c.13,0,.26-.05.06-.05-.5,0,0,0,.09-.08a.89.89,0,0,1,.41,0c.28,0,.9,0,.75.1s0,0,.06,0c1.05,0,.48.14.54.21S5.15.52,5,.62s.46.09-.13.19h0c.45,0,.12.13.27.18a.3.3,0,0,0,.11,0c.08,0,.27,0,.17,0a.93.93,0,0,1-.35,0c-.08,0-.24,0-.29,0s.11,0,.26,0l.33,0s-.17,0-.26,0c-.27,0-.16.06,0,.07a3,3,0,0,1,.3,0c.18,0,.51,0,0,.11.05,0-.72.07,0,.05.13,0,.16,0,.09,0l-.14,0c.56,0,.08.09.2.12s.27.06-.23.1c-.26,0,0,0,0,.05s.24.07-.22.12a.57.57,0,0,0-.18,0h.19l.56,0c.06,0,.2,0,0,0C5.31,2,5.28,2,5.47,2c.35.08.28.2,0,.33,0,0-.18,0-.09,0,1,.06.54.26.58.41s.59,0,.26.11.1.11-.08.18-.22.08.17.07c.16,0,.07,0,0,0H6.13c.13,0,.21,0,.12.09.47,0,.22.05.15.1s-.26.06-.21.06c.58,0-.16.2.08.29s.25.13.13.21.43.23.13.36.25.14-.31.23c-.07,0,0,0,.07,0l.18,0c-.59.11.27.1.09.15s0,.12,0,.19,0,0,.15,0,.16,0,.11,0c-.82.13-.08.18-.26.27-.34.16.18.25.1.37s.14.24.06.37.26.27.12.42.18.23.13.35.13.35.08.54H7c.13,0-.77.12,0,.11-.18.07.24.1.16.14s.24.16-.36.27c-.09,0,0,0,0,0,.35.09.25.22.33.34a.55.55,0,0,1,0,.5c-.05.15.12.29-.11.46s-.11.2-.07.3,0,.35-.13.54c0,0,0,.06.11.08s.13.07,0,.09c-.48.06,0,0,0,.05s.22,0,.11,0c-.62.06-.1.08-.16.1-.23.11.6.11.17.22-.05,0,.13.09.21.13.26.13.3.28.15.44s0,.06,0,.07c.44.06.09.19,0,.29s.31.14-.07.24c-.07,0,.06,0,.19,0s.2,0,.08,0c-.38.08-.36.13-.15.18s0,.12,0,.18.14.19,0,.3-.08.18.24.23c0,0,0,0,0,0-.75.12.32.16-.28.27.36,0,.12.06.2.09s.09.06-.32.1a.59.59,0,0,0-.2,0h.06c.71,0,.29.09.28.14A.69.69,0,0,0,8,14c.06,0,.07,0,0,0s-.23.12,0,.16c.06,0,.06.05,0,.07s-.22.18,0,.24.16.09.11.15.1.18,0,.28.13.09.21.14,0,0,0,0c-.19.07,0,.11.09.16s.1,0-.05.06c-.48.07-.17.12-.11.12.33,0,.08.05-.11.08-.46.06-.29.1-.21.14s.42.21,0,.37c-.15.06-.54.15-.11.2.17,0-.29.08-.14.1a1.78,1.78,0,0,0,.51.11c.12,0,.05,0,0,0s-.23.1,0,.13,0,.06-.25.09c-.4,0-.39.07,0,.07-.23.06.51.07-.17.17-.36.05,0,.09.23.09s.32,0,.09.06c-.38.08-.33.14-.16.19s.3.19.2.3.18.13,0,.21.12.2.12.3-.32.17-.08.23c.06,0-.1,0-.21.05s-.23,0-.17,0a.57.57,0,0,0,.19,0c.12,0,.28,0,.29,0s-.19,0-.31,0-.28,0-.27,0a1.69,1.69,0,0,0,.3,0c.08,0,.27,0,.23,0-.2.1,0,.17-.14.26s-.2.12-.23.18-.12.14.13.21.62.18,0,.33c-.17,0,.09,0,0,.07.54,0,.33.08.31.13s.09.28-.27.45c0,0,0,0,0,0,.63,0,.27.11.43.16s0,.13.21.17c-.65.1,0,.12-.14.19s-.34.11-.19.15,0,.05.1.05.31,0,.22.05c-.38.12,0,.17,0,.26s-.33.13.28.1c0,0,0,0,0,0-.73.09-.19.14-.28.21s0,0-.06.05c-.5.05-.39.1-.38.14s0,.06.33,0,.24,0,.21,0,0,0-.16.06-.33.13-.05.13.15,0,.11.08l-.46.37s0,0,0,0c.3,0,.13.11.06.18a.6.6,0,0,0-.14.24c0,.08.1.15.21.22s.07.08-.08.11c-.4.09-.27.15-.28.22s-.09.13.51.11c.31,0,.08.07,0,.1s-.05.08-.06.12-.23.26-.49.4c-.1,0-.08.29.13.31s.26.06.13.1c-.47.12-.24.19,0,.24s.09.13,0,.19-.11.1,0,.12c.22.05,0,.08-.37.11-.06,0-.19,0-.15,0h.21c.25,0,.43,0,.35,0s.35.14,0,.26c-.12,0,.18.08.19.13s-.15.21-.18.31-.24.17.25.19c.14,0-.06.05-.05.07s-.33.12.16.12c.05,0,0,.08-.39.12-.08,0-.24,0-.2,0s.13,0,.21,0c.25,0,.29,0,.29,0s.15.14-.06.24-.31.09.12.08c.27,0-.15.05-.14.07a.44.44,0,0,1,.08.26c0,.07.34.13-.34.22a.15.15,0,0,0-.08,0h.16c.36,0,.76-.08.49.05s-.58.25,0,.31c-.4.11.32.12.22.2s-.16.15.05.21-.39.06-.36.11.51.08-.15.17c.38.07-.21.24.41.3.3,0,.05.16,0,.25s-.61.18.08.18c-.43.14,0,.22,0,.32s-.12,0,0,0c.39,0-.09.18.2.25.07,0,0,0-.12.06s-.36.06,0,.06c.14,0,.53,0,0,.07.12,0-.55.13.06.13.11,0,.06.1-.05.15-.28.11-.09.18-.1.26a.24.24,0,0,1-.08.18c-.06.06-.51.16.18.15.09,0,.06.07,0,.11s-.11.11.16.15-.07.09-.1.14,0,.23.22.33-.21.13,0,.17c-.77.1-.31.16-.43.24s0,.14.45.16c.16,0,.29,0,0,0S9,32.3,9,32.37s-.07.28.07.4-.13.28.08.39c.05,0,.05.06,0,.1s-.09.07.21.06c.11,0,.26,0,.19,0l-.26,0c-.15,0-.45,0-.43.05s0,.09.29.1.4.11,0,.17-.18.15.09.16c.49,0,.33.11.19.19s-.31.09.12.09c.23,0,.06,0,0,.06-.43.13,0,.21,0,.32s.35.14-.32.24c0,0,0,0,0,0,.51,0-.05.09-.05.13s.12,0,.23,0c.47-.05.26,0,.2,0l-.11,0c.26,0,0,.08-.08.13l-.07,0c.7,0,.22.1.2.16s.39.15,0,.27-.08.14.08.19-.1.11-.28.16a1.37,1.37,0,0,0-.56.29c0,.06,0,.06.25,0a1.6,1.6,0,0,1,.49,0c.13,0,0,0-.15.07s-.09,0,0,0,.18,0,0,0c-.76.11-.12.16-.3.24s.19.07-.08.13c-.06,0,0,0,0,0,.51,0,1,.2.6.27-.71.12,0,.1-.05.15s.12.15,0,.24,0,.19,0,.28.34.09-.28.16a.24.24,0,0,0-.09,0c.49,0,.11.1.07.14-.19.16.55.26,0,.45-.1,0,.5,0,.24.09-.09,0,0,.06-.27.08s-.19.05-.19.06.18,0,.29,0,.34,0,.24,0c-.29.12,0,.21,0,.32s-.17.23-.34.35-.19.16,0,.22-.12,0-.15.07-.44.19.32.18c.09,0,.31,0,.16,0-.49.13-.6.27-.47.36s-.23.22.25.28.07.17.09.26-.12.15-.12.22a.57.57,0,0,1-.13.57c-.07.07,0,.15.07.22s0,.13-.48.21c-.25,0,.19,0,.15,0s-.29.11,0,.13-.1.14.46,0c.09,0,.17,0,.13,0-.22.1,0,.17-.21.26s-.09.12,0,.17.05.11-.08.15-.46.13-.31.15c.39.06.27.17,0,.26s.3.2-.1.33c-.11,0,.1,0,.18,0,.23,0,.37,0,.06.05s0,0,0,0c.24,0,.17,0,0,.06h0c.12,0,.12.06,0,.1s-.24.14-.12.21,0,.12-.3.19.14,0,.16.06c.13.23-.06.48-.26.73.63.07-.49.27,0,.35.11,0,.24.08-.17.14.17,0,.11.09-.06.14s.16.25.27.3.38.1.17.18c-.05,0,0,0-.21,0-.45,0-.13.06-.11.06.8,0,.29.1.31.16s-.56.25-.15.35c.14,0,0,.14-.12.22s-.55.2.23.2c.17,0,.05.11.06.17s0,.31,0,.46.23.26,0,.4-.07.33,0,.48-.17.3.06.43-.19.2-.33.3,0,0,0,.07c.37.1.2.24-.12.39-.15.07-.07.09.3.06s.32,0,.26,0,.37.14-.48.23c.07,0-.2.1.17.09s.2,0,.25,0,0,.2.05.29a.78.78,0,0,1-.07.47s0,.07.07.1-.22.21-.15.3.28.08.12.14.09,0-.22.06c0,0-.13,0-.08,0,.57.11.56.15.09.4-.08,0,0,.08.16.11.4.07.24.18.28.28s0,.21.13.31S9.39,53,9.5,53s-.1.32.05.47-.26.27-.17.4.15.17-.23.29c-.09,0,0,.06.06.09s-.09.23,0,.33-.13.1.25.12,0,.11,0,.17c0,.33.11.63-.16,1-.08.11.35.18.23.3s-.25.14-.12.21.28.17.24.27-.27.21-.1.29-.17.26,0,.34-.09.26,0,.37-.26.14-.09.19h0c1.17,0,.35.17.44.26s.1.43.13.64.16.32-.28.51c0,0,0,.06.08.07.39.07,0,.22.18.3s-.39.24.2.3c.3,0-.08.15-.12.23s-.14.19,0,.28,0,0,0,0c-.65.1-.21.13,0,.17s.22,0,0,.08c-.61.13-.49.26-.36.34s.27.23.24.36.21.26,0,.42.09.17.16.25.09.23-.09.35.18.13-.28.22c.26,0,.24.08.37.12.31.09.22.21.2.32s.15.21,0,.32-.1.26.14.36.1.11,0,.16.26.17-.07.28c0,0,0,0,0,0,.25.08.23.1,0,.24s-.08.11-.06.16.19.32.25.49-.05.64.15,1c.09.14.08.29.23.43s.2.36.27.55a.63.63,0,0,1,.08.29c0,.07.25.1.12.18s.09.14,0,.22.48.35.28.56.19.12-.1.19l0,0c.91,0,.13.08.13.12s.08.29.05.44.1.33,0,.51-.26.29-.13.42-.07.11-.09.17,0,0-.19,0l-.28,0h.27c-.09.06.59,0,.17.13s-.11.14-.23.22h0c.44,0,.35.09-.34.19l-.13,0c.49,0,0,.08.37.06.57,0,.65,0,.24.12s-.44.14,0,.21c.19,0,.18.12.05.18-.35.18,0,.31-.09.46s-.2.36-.15.53.18.12-.17.2c-.05,0,0,0,0,0,.84,0,0,.23.19.33s-.11.21.25.28c.08,0,0,0-.07,0-.38.08-.47.14-.12.17.17,0,.17,0,.1.11s-.06.13.05.18-.07.21,0,.3.07.22.11.32.08.13-.22.23c0,0-.11,0,0,0,.56,0,.28,0,.27.07s.1.33.09.51,0,.17.07.23,0,.2.34.26h.09c-.63.1.14.11-.09.19s-.09.16.14.22-.11.17,0,.25.38.21.15.35t0,0c.33.11.24.27.15.4s.26.42,0,.65c-.08.08.07.15.08.23s-.2.28-.13.4-.21.35-.12.51-.12.17-.2.26-.17.08,0,.1c-.19,0,.64,0-.2.1-.16,0,.24,0,.18.05s.16.18,0,.31.2.23.06.37.23.15-.23.25c0,0,0,0,0,0,.46,0,0,.14.24.18s0,.06-.13.09h0c.48,0,0,.12.12.12.57,0,.07.16.6.17.06,0-.15,0-.22,0l-.13,0c.54,0,0,.14.23.19s-.14.2-.09.29-.08.14.18.19c.09,0,.23,0,0,.07s-.07,0,.1,0,.25,0,.14,0-.43.26-.26.33.05,0-.06.07-.22.08,0,.09-.07.07,0,.1-.07.19.53.21l-.09,0c-.29.06-.32.11-.26.14s0,.23,0,.34,0,.39.31.57c.08,0-.21.15.23.17l-.18,0-.38.05h.32c-.61.12.33.15-.15.26,0,0-.1,0,0,0,.55,0,.27.12.42.18s-.21.2,0,.25c.36.09-.23.24.26.3,0,0,0,0,0,0-.54.1,0,.13-.11.19s.22.11-.18.18c-.12,0-.06,0,0,0,.24,0,.41.07.14.15l0,0c.9,0,0,.13.14.18s-.25.17,0,.23c0,0,0,0-.07,0-.62.07,0,.06.06.06.56,0,.15.15.17.23s.19.17-.1.28c0,0,0,0,0,0,.7,0,.11,0,.06.05s.33,0,.14.12.07.2.22.24.34.07,0,.14H14c.52,0-.28.18-.06.22s-.15.22.42.25c.05,0-.17.09-.23.14s.28.11-.32.18h.05c.69,0,.25.1.26.17s-.13,0-.07,0c.52,0,.13.06-.27.09l-.19,0a.39.39,0,0,0,.15,0c.54,0,.57,0,.5.06s.26.08-.21.14c0,0-.1,0-.09,0a.61.61,0,0,0,.18,0c.43-.06.41,0,.39,0-.18.08.21.13,0,.22-.08,0-.08.1.42,0,.07,0,.17,0,.18,0l-.09,0c-.72,0-.17.1-.38.16s.56.09-.32.15h0c.63,0,.06.11.3.13s.31.1.18.17.18.1.23.16-.05.18.08.25.24.18,0,.29c0,0,0,.06.14,0,.51,0,.23,0,.18,0s.13.1.05.17-.18.13-.12.18.2.15,0,.24c0,0,0,0,.05,0,.32,0,.43,0,.32,0a2.34,2.34,0,0,1-.62.09.51.51,0,0,0-.23,0H15c.24,0,.57,0,.36.06s.17,0,.22.06.25,0,0,0c-.39,0-.4.1,0,.11.17,0,0,0,0,0s-.28.1-.16.14-.24,0-.4.08c.12,0,.48,0,.54,0s-.17.08-.2.12-.12.1,0,.15.17.09,0,.16-.22.22.33.27c.08,0,.06,0,0,.07-.35.06,0,.1-.29.16-.09,0,.05,0,.14,0h.19s-.4,0-.31.06.36,0,.48,0h0l-.22,0a.77.77,0,0,0-.31,0c-.09,0,.05,0,.14,0s.27,0,.07.06c.14,0-.18.08.23,0,0,0,.09,0,.07,0-.4.08-.28.16-.67.24s0,0,.14,0c.36,0,.4,0,.38,0s-.25.2.19.25c.08,0,0,0,0,0-.37.11-.39.14-.17.23.05,0-.12,0-.16,0-.26.08.1.1.18.12.26.08-.27.2-.12.28s.18.06-.21.1a1,1,0,0,0,.2,0,1.21,1.21,0,0,1,.18,0c-.57.06.06.09-.3.15s-.06.1,0,.1c.38,0,.23,0,.19.09s-.1.06-.08.06.32.08-.32.11c0,0,0,0,0,.06a.26.26,0,0,0,.13,0,.85.85,0,0,1,.41,0c.08,0-.22.06-.39.08.28,0,.29,0,.32.06s-.36.13.07.15c.12,0-.19,0-.33.05a.91.91,0,0,0-.27,0s.12,0,.21,0c.31,0,.24,0,0,.06s-.31.1-.36.15,0,0,0,0,.59,0,.45,0-.46,0-.58.08-.31.07.1,0c.2,0,.16,0,.18,0s0,.24,0,.36.05.2-.14.32.19.11,0,.2c0,0,0,0-.08,0-.34.07.26.06.1.12.38,0-.24.11.26.09-.5.06-.22.07,0,.07-.55.07.19.14-.51.21H15c.3,0,.5,0,.42,0-.25.1,0,.16,0,.24s0,.08.05.11-.26.12-.22.17,0,0,.06.06.17,0-.1.07c-.12,0-.13.08.08.09h.21c.11,0-.22.07-.36.11s.63,0,.3,0a1.35,1.35,0,0,1-.52.15c-.05,0-.09,0,0,0,.38,0,.3,0,.13,0s0,0,0,.05a1.19,1.19,0,0,0,.25,0,.63.63,0,0,1,.24,0l-.1,0c-.18.06-.44.12.09.12.32,0,.38,0,0,.08-.1,0-.23,0-.2,0,.21.1,0,.24.11.35s-.31.13.27.1a1.08,1.08,0,0,0-.24.1c-.12.11.11.21-.38.34-.07,0,0,0,.08,0,.29,0,.27.08.12.15s.06.19.16.27,0,0,0,.06-.22.21-.18.31.13.18,0,.24.28.12.27.2-.07,0-.11.08-.46.09.12.07c.23,0,0,0,0,0-.71.07-.28.11-.24.15s.11,0,0,.1.06.07.07.11.27.1-.17.18c-.09,0-.08,0,0,0,.45,0,.51.07.08.17-.16,0-.21,0,0,0s.59,0,.08.1c-.1,0-.07,0,0,0,.37,0,.25.1.24.16a.56.56,0,0,0,.1.37s.05,0,0,.07-.18,0,0,0,.29-.05.32,0l-.3,0s-.09.09,0,.11c.33.07-.18.19,0,.26.05,0-.47.12.21,0,.11,0,.08,0,.11,0s-.67.08,0,.07l-.11,0c-.09,0-.75.06-.1.06-.2,0-.1.08,0,.1s.54.06,0,.14c.55,0-.13.19.3.23.09,0,0,0-.09,0a1.53,1.53,0,0,0-.33,0l.34,0c.12,0,.23,0,.15,0-.63.14-.12.21-.07.3s-.39.15,0,.17l-.08,0h-.19a1.25,1.25,0,0,0-.41,0l.3,0c.61,0,.25.14.27.22s-.12,0,.11,0c.58,0,.22,0,.15,0s-.07.12-.13.15.48.15-.28.27c.3,0,.1.09.24.13s.46,0-.05.09c-.1,0,0,0,.06,0s.32.1-.36.15l-.21,0h.12a3.78,3.78,0,0,1,.56,0c.2,0-.32,0-.25.06.31,0-.07.14.2.19h.05c.25,0-.19.07-.31.1.22,0,.47,0,.09.08,0,0,0,0-.06,0,.89,0,0,.08.09.09s-.44.13.2,0l.13,0s-.06,0-.13,0c-.49.06-.45.1-.07.11.09,0,.22,0,.21,0s-.22,0-.33,0l-.25,0s.14,0,.22,0,.23,0,.11,0c-.43.07-.09.08,0,.11s.21,0-.14,0l.25.09c.06,0,.39,0,.33,0a2.7,2.7,0,0,1-.45.08l-.21,0s.15,0,.19,0,.71,0,.13,0c-.06,0-.13,0-.1,0,.34,0,.16.07-.31.11-.08,0-.09,0-.05,0a.62.62,0,0,0,.23,0,.88.88,0,0,1,.37,0c-.23,0,.08.07-.32.09l-.21,0h.29c-.29.06.31.11-.33.17l-.17,0h.21a4.53,4.53,0,0,1,.54,0c-.37.06.17.1-.34.17-.08,0,0,.07,0,.09a.35.35,0,0,1,.15.31c0,.1-.41.23.14.29-.61.08.26.11-.29.2-.23,0,0,0,.05,0,.44,0,.34,0,.24.08s-.3.09.1.08c.05,0,.13,0,.06,0-.91.1,0,.1-.16.17-.38.17,0,.29-.09.44s0,.33,0,.5-.08.25.09.35.2.19-.05.26c-.57.16.33.19,0,.31-.1,0,.33.07-.2.12.24,0,0,.08.07.1s.34,0-.16.09c0,0,.36,0,.36,0s.17.14.12.22.34.13-.15.23c.52,0-.13.13.11.18s.06.11.16.15-.18,0-.23.07-.24.13.35.09c-.11.06.22.09,0,.15s-.13.09.23.1c.13,0,.44,0,.42,0a7.59,7.59,0,0,1-.8.12h-.22c-.09,0,.15,0,.14,0s.58.1.43.2,0,.15-.65.21l-.12,0,.11,0c.87,0,.68,0,.63.18h0c.06,0,.5,0,0,0,.16,0-.35.07.15.05.24,0,.12,0,.13.08s-.18.11.34.08h.12c-.63,0-.08.12-.48.17,0,0,0,.06.06.06.69,0,.35.11.53.16s0,.11.4.11c.06,0,.19,0,.08,0-.67.11-.24.18-.35.27s.08.24,0,.37.13.1-.39.15c.36,0-.16.12-.25.18s.53-.08.37,0,.12.06-.17.1c.16,0-.37.11.18.08.11,0,.14,0,.06,0-.41,0-.19.07-.3.11a2.64,2.64,0,0,0-.35.07s.29,0,.3,0-.11.07-.27.08c-.37,0-.24.09-.23.09C17.17,114.75,16.35,114.87,16.8,114.9ZM5.34,4.13a.82.82,0,0,0,.29,0s-.08,0-.21,0c-.37,0,.13,0-.18.06C5.16,4.13,5.27,4.14,5.34,4.13ZM3,6.83c.21,0,.25,0,.3-.06s0-.1-.46,0L3,6.79S2.79,6.84,3,6.83Zm.45.6a.31.31,0,0,0,.09,0s-.1,0-.16,0l-.18,0S3.24,7.44,3.48,7.43ZM3.29,10s.21,0,.17,0a2.47,2.47,0,0,0-.55,0c-.1,0-.22,0-.17,0A1.88,1.88,0,0,0,3.29,10Zm-.16.56.19,0s-.13,0-.22,0l-.21,0Zm.34.52c.12,0,.24,0,.23,0s-.1,0-.22,0a.74.74,0,0,0-.25,0S3.35,11.13,3.47,11.12ZM6.62,12a.74.74,0,0,0,.24,0s-.07,0-.15,0a1.23,1.23,0,0,0-.31,0ZM4.38,13.66c.11,0,.1,0,.08,0a1.15,1.15,0,0,0-.36,0c-.09,0-.15,0-.15,0S4.28,13.64,4.38,13.66ZM4.19,14.8l.32-.06a.57.57,0,0,0-.18,0A1.78,1.78,0,0,0,4,14.8C3.94,14.82,4.11,14.81,4.19,14.8Zm.61.79c.08,0,.17,0,.12,0a.6.6,0,0,0-.2,0c-.11,0-.11,0-.11,0A.3.3,0,0,0,4.8,15.59Zm-.57.93a2,2,0,0,0-.39,0,.2.2,0,0,0-.15.05,1.38,1.38,0,0,0,.38,0C4.14,16.54,4.28,16.53,4.23,16.52ZM4,18.57a.76.76,0,0,0,.27-.06s0,0-.11,0a.68.68,0,0,0-.3.07ZM8,26.7s.08,0,.08,0,0,0-.13,0-.08,0-.07,0S7.85,26.7,8,26.7ZM4.49,28.79c.08,0,.18,0,.17,0s-.13,0-.22,0-.18,0-.17,0A.75.75,0,0,0,4.49,28.79Zm2,.54a.72.72,0,0,0,.27,0s0,0-.11,0a.88.88,0,0,0-.27,0S6.42,29.32,6.45,29.33ZM8,34l.3,0H7.85l-.18,0A1.6,1.6,0,0,0,8,34ZM4.41,42.21c.07,0-.24,0-.3,0s-.35.06,0,.06Zm4.71.54c.1,0,.14,0,.14,0s0,0-.11,0-.12,0-.15.06S9,42.76,9.12,42.75Zm-4.9,1.19c.07,0,.11,0,.11,0s-.19,0-.36,0C4,43.92,4,44,4.22,43.94Zm4.65-.2.43,0a2.17,2.17,0,0,0-.38,0c-.16,0-.19,0-.36,0s-.12.08,0,.09A.85.85,0,0,0,8.87,43.74ZM4.27,54.05s.12,0,0,0S4,54,4,54C4.13,54,4.07,54.07,4.27,54.05Zm-.57.36c.12,0,.38,0,.26-.07h-.3C3.45,54.39,3.65,54.39,3.7,54.41Zm3.86,5s.18,0,.09,0l-.47,0-.09,0A1.51,1.51,0,0,0,7.56,59.36ZM5.32,62.15c.17,0,.2,0,.15,0-.34-.05-.17-.17-.71-.18-.06,0,.09,0-.09,0l-.1,0c-.05,0,.18,0,.09.1S4.8,62.19,5.32,62.15Zm4.12,5.1-.18,0-.17,0c-.05,0,.17,0,.23,0S9.49,67.27,9.44,67.25Zm-1.3,11,.18,0H8l-.11,0S8,78.24,8.14,78.22Zm-.49.27c.22,0,.65-.06.6-.11s.18-.12-.24-.08a.85.85,0,0,0-.49.15C7.57,78.47,7.42,78.52,7.65,78.49Zm.26.08c.12,0,.27,0,.26,0a1,1,0,0,0-.27,0c-.14,0-.25,0-.22,0S7.76,78.59,7.91,78.57ZM7.79,85.8c.14,0,.37,0,.4-.06s-.12,0-.2,0a2.67,2.67,0,0,0-.45.07S7.65,85.82,7.79,85.8Zm.73,1.7c.09,0,.15,0,.15,0s-.08,0-.2,0l-.12,0S8.41,87.51,8.52,87.5Zm5,1c.1,0,.27,0,.29,0h-.2a1.32,1.32,0,0,0-.32,0Zm-3.89,2c.21,0,.22,0,.2,0s0,0-.07,0-.29,0-.28,0S9.62,90.46,9.67,90.46Zm.85,1.6.12,0a1.89,1.89,0,0,1,.74-.16c.09,0,0,0-.05,0-.71,0-.52-.05-.67-.1s.11-.06-.11,0-.37.06-.3.08,0,.13-.06.2S10.3,92.06,10.52,92.06Zm.74.29c.17,0,.07,0,.1,0s0-.11,0-.16,0-.07-.28-.06c-.14,0-.21,0-.25,0s-.15.17.06.23A.92.92,0,0,0,11.26,92.35Zm3.81,2.48c.75,0,.36-.1.42-.15h-.16c-.11,0,.21.1-.41.14Zm-.87,3a1.35,1.35,0,0,0,.47-.06s0,0-.08,0a2.37,2.37,0,0,0-.37,0S14.2,97.88,14.2,97.88Zm-2.71,5.86s.13,0,.13,0-.14,0-.25,0-.18,0-.14,0A.72.72,0,0,0,11.49,103.74Zm-1,1.89c.07,0,.33,0,.4-.06s-.1,0-.16,0a1.69,1.69,0,0,0-.39.06C10.27,105.64,10.35,105.64,10.48,105.63Zm.71,6c.13,0,.08-.06-.06-.07l-.2,0C10.86,111.58,11.1,111.57,11.19,111.59Zm-.1.22c.14,0,.23,0,.2-.06s.16-.13-.1-.16c-.41,0-.6.1-.52.1.38,0,.2.06.19.1S10.92,111.83,11.09,111.81Zm2.23.69s.16,0,.11,0-.09,0-.3,0-.18,0-.1,0A1.38,1.38,0,0,0,13.32,112.5Zm3.13-.07a2.15,2.15,0,0,0,.46-.08,2.89,2.89,0,0,0-.53.05C16.33,112.42,16.36,112.43,16.45,112.43Z"/></svg>