<svg id="Layer_1" data-name="Layer 1" xmlns="http://www.w3.org/2000/svg" viewBox="0 0 308.61 115.76"><defs><style>.cls-1{fill:#202020;}.cls-2{fill:#161616;}.cls-3{fill:#010101;}</style></defs><path d="M295.8,40.67c0-1.65-.07-3.29-.06-4.94s.07-3.49.12-5.23c.11-3.68.26-7.35.31-11,0-1.88.1-3.76.21-5.64a90.7,90.7,0,0,0-.19-12,8.2,8.2,0,0,1,.06-1.4c0-.08.17-.16.27-.19s.15.1.17.17a3.16,3.16,0,0,1,.14.68l.34,5.5c.08,1.18.24,2.34.33,3.52.13,1.78.27,3.57.37,5.35.08,1.55.1,3.11.17,4.66l.4,8.19.24,5.23c.07,1.69.11,3.39.13,5.08l.07,6.79c0,.65.12,1.31.15,2l.23,8.17.32,8.62.12,5.23.18,7.49c0,1,0,1.89,0,2.83v9.19c0,2.82-.05,5.65-.08,8.47,0,2.12.1,4.24.16,6.36l.14,4,.12,5.94.09,1.83c0,.09-.12.19-.19.29-.08-.09-.22-.16-.23-.26-.32-1.8-.65-3.6-.9-5.41a25.94,25.94,0,0,1-.26-3.52c0-2.65-.32-5.27-.53-7.9-.15-2.16-.31-4.32-.46-6.48-.12-1.5-.3-3-.44-4.5-.08-.93-.14-1.87-.2-2.81l-.39-6.77-.38-7.77c0-.23,0-.47,0-.7.09-2.32-.13-4.62-.18-6.93L296,54.94c0-1.7-.11-3.39-.17-5.09l-.07-2.26-.1-5.08c0-.61,0-1.23.05-1.84Z"/><path class="cls-1" d="M43.77,4.88c-1-.28-.37-.9-.58-1.35l-.74.22A18.25,18.25,0,0,0,40.56,5a3.18,3.18,0,0,1-4.34-.61,1.24,1.24,0,0,1-1.33-.46c-.87.36-2.15-.4-2.82.47-.18.58-.94,1.1-.31,1.74a1.34,1.34,0,0,0,1.7.23,1.05,1.05,0,0,1,1.5.25h.58c.71.29,1.67-1.36,2.22.13a4.83,4.83,0,0,1,.64-.07c.56,1.29,1.87.7,3,.55l0-.35c-.32-.15-.25-.24.1-.28a.35.35,0,0,0,.18,0l0-.5c-.19,0-.47,0-.47-.19,0,0,.14-.14.21-.14.33,0,.24.2.27.33l1.12.24a1.32,1.32,0,0,0,.28,0c-.14-.28-1.06-.52-.25-.84a.89.89,0,0,1,1.33.61c.16.48.53.57,1.1.25.06-.7.89-.47,1.46-.54l0-.22c-.54-.37-.12-.43.34-.48.63-.46.69.24,1.09.24l.08-.09-.09.09c0,.4-.2.91,1,.74.71-.11,1.32,0,1.2.68l.71,0,.62-.8c-.39,0-.56-.17-.59-.41-.46-.23-.5-.48,0-.73q.93-.07.6-.66c-.1-.18-.24-.42.16-.46.24,0,.76.14.75.21-.07,1.05,1.56,1.06,2.19,1.66A1.88,1.88,0,0,1,55,6.1l.11.3c1.46,0,3-.32,4.29.45.33.2.79,0,1.12-.21a1,1,0,0,1,1.31.22l2.8-.44.05-.31c.08-.44.53-.64,1.1-.6s.29.38.32.6c1.56.16,3.11.32,4.74.4l-.06.09c0,.12-.11.28.2.31.09.17.12.38.52.35-.14-.65.64-.82,1.27-.94,1.36-.26,3-.65,4.14-.27a5.74,5.74,0,0,0,2.19.27c.49,0,.21.44.26.69L84,7V6.55c-.31-.28-.23-.55-.08-.87.26-.54-.14-.79-1-.76l-.74-.24c-.44,0-1,.08-1.17-.34l.81-.14c.11-.24.58-.48,0-.7a.68.68,0,0,1-1,0H79.69A5.47,5.47,0,0,1,77.23,5.4c-.73-.53-1.8-.89-2-1.71a8.85,8.85,0,0,1-3.08,0c0,.27.09.61-.11.81s.81.67-.17.7c-.67,0-.54-.38-.46-.7,0-.15,0-.66-.41-.17-.8.91-.63-.34-1.33-.18-.1.13-.18.35-.32.37-.4.06-.4-.22-.51-.38-1.31.08-2.58-.34-4,.09-.72.23-1.11-.51-1.32-1l-6.42.08c0,.16.07.33,0,.47C57,4.23,58,5,56.9,5s-.13-.68-.28-1c0-.1-.36-.15-.56-.23a18.07,18.07,0,0,0-5.64-.4c-.55,0-1.43-.63-1.87.16S44.81,5.17,43.77,4.88ZM50,3.8l.2.23c-.09,0-.2.09-.27.07s-.11-.11-.16-.17Zm10.66.74.15,0C60.79,4.61,60.74,4.61,60.65,4.54Z"/><path class="cls-1" d="M279,7c2.4.29,4.76-.13,7.14-.15.32-1.33,1.86-.56,2.86-.73.2-.4.17-.88,1.24-.48a8.61,8.61,0,0,0,2.4.2c.66-.16-1.38-1.66,1.05-1,.36,0,.86.14.91-.33a.59.59,0,0,1,.69-.43,1.27,1.27,0,0,1,.73.62c.19.4-.43.2-.63.31a6.82,6.82,0,0,0-1,.79c.19.32,1.07.16,1,.65.53-.72,2.42.28,2.41-.72,0-.49-.76-1.07-1.08-1.67s-1.79-.77-2.94-.68c-.51,0-1,.25-1.52.27s-1.11.43-1.48,0,1-.22.74-.71A3.37,3.37,0,0,0,289,2.85c-.07.77-.31,1.34-1.69.66-1-.51-2.31.57-3.3-.23l-.38,0-.72.24a3.57,3.57,0,0,1-3.92.23,3,3,0,0,1-3,.47l-.52,0c.07.07.1.16.19.2.69.29,1.15.62.44,1.14-.19.13-.7.28-.61,0,.21-.55-2.06-.78-.4-1.53-.44-.09-1.1,0-1.09-.51l-.78,0c0,.28.6.57.07.82A1.2,1.2,0,0,1,272,4.17l-.49,0c-1,.08-1.06.61-1.21,1.12A.8.8,0,0,1,269,5.6c-.16-.29.23-.36.54-.48,1.1-.43-.89-1,.07-1.39-.24-.49-.86-.45-1.44-.46V3.6c0,.33.87.79,0,.95-.68.13-1.16-.28-1-.84h-.89L265,4.19c-.34.38-.52.77-.22,1.21.13.2.1.4-.29.43s-.54-.21-.62-.45l-.66.24v.75c1.12-.07,2.38.25,3.13-.7a.42.42,0,0,1,.77.22c0,.26,0,.56.43.72a10.78,10.78,0,0,0,6,.26C274.78,5.92,277.39,6,279,7Zm12.76-2.17a1,1,0,0,1-.39-.16c.11-.07.21-.19.33-.2a1.75,1.75,0,0,1,.51.16C292,4.76,291.83,4.86,291.71,4.86Z"/><path class="cls-2" d="M161.7,4a1.9,1.9,0,0,0-1.85.67c-.24.21-.08.78-.82.57s-.47-.58-.35-.94.16-.69.24-1l-2.2-.12c0,.37.25.86-.75.8-.75,0-1.1.18-1.07.68.08.29,1,.34.53.76a1.19,1.19,0,0,1-.73.29c-.77-.06-.26-.5-.43-.76a1.66,1.66,0,0,0-.3-.41c-.28-.22-1.09-.34-.78-.65s.92.2,1.45.13V3.29a22.67,22.67,0,0,0-6.11.44c.33.76.54,1.61,2.26,1,.28-.1.74,0,.86.24s-.23.4-.62.46a9.22,9.22,0,0,0-.34,1.2l.57.21-.46.32a4.72,4.72,0,0,0,3.83-.26c.31-.47.92-1,1.55-.55,1.19.88,3.35-.47,4.15.94a13.82,13.82,0,0,1,3.58-.17c0-.84.87-1,1.63-.71a2,2,0,0,0,1.6-.08c-.18-.75-1.38-.22-1.86-.67-.19-.17-.8.56-1.07,0-.16-.33.44-.62.81-.87a1,1,0,0,1,1.19,0c.66.34,1.42.58,2-.19.35-.46,1-.12,1.36.05.65.3.12.5-.26.71-.6.32-1.19.67-1.08,1.27l.38.23c.67-1,2-.59,3.07-.69.43,0,1.42.31,1.13-.6-.07-.22,1.26.13,1.3.37.08.5.44.47.93.46h.35c.67.19,1.46.53,1.18-.43-.33-.54-.32-.52.25-.69.25-.08.58-.21.63-.36.19-.52-.81-.37-1-.71-1-.1-2.08-.63-2.95.27-.22.23-.86-.11-.82-.19.17-.34-1.23-.48-.24-.87,0-.23-.15-.27-.56-.24-1.32.12-2.65.51-4,.07-.19,1.79-1.71.36-2.59.48s-1.77-.66-2.85-.5C162.73,3.67,163.5,4.37,161.7,4Zm-4.22.79.2.22c-.09,0-.19.08-.27.06s-.1-.1-.16-.15Z"/><path class="cls-3" d="M9.3,7.11c-1.28-.39-2.83.33-4-.45-1,1-2.63.2-3.87.53a.88.88,0,0,1-.74-.08c-.77-.38-1-2.4-.11-2.66A1.83,1.83,0,0,0,2,3.23C2.2,2.65,2.64,2.06,3.5,3a.84.84,0,0,0,.6.18c1.47-.37,2.88.11,4.34.1,3.33,0,6.67.13,10,.21V4c-.28,0-.51,0-.57.25a8.91,8.91,0,0,0-1.5-.22c-1,0-2.2-.51-3,.25-.47.46-3.87,1.32-4.56,1-.12,0-.24-.18-.22-.27.17-.74-.47-.37-.77-.22A7.64,7.64,0,0,0,7,5.59c-.17.13-.71-.06-.66.21s.34.34.76.4C8,6.32,9.19,6.13,9.3,7.11Z"/><path class="cls-2" d="M198.73,7.25c-.87-.15-1.91,0-2.48-.68.25-.08.57-.27.75-.22.67.19,1.3.46,1.8-.15s-.17-.78-.58-1.11c-.73-.6-1.28-.33-1.87.08a1.34,1.34,0,0,1-1.29.16c-1-.7-1.49,0-2.1.31-.39,0-.88-.06-1,.33,0,.07.16.25.24.25.51,0,.53-.37.75-.58l1.1,1.25c-.72,1-1.67.36-2.55.15,0-.34,0-.65-.68-.7a2.09,2.09,0,0,1,0-.71c.28-.66-.78-.56-1.1-.88-.08-.09-.3-.17-.37,0-.13.37.23.52.62.73.23.12.06.57.07.87-.35-.34-1.35.2-1.45-.48.13-.08.48-.13.14-.31l-.13.32c-.51.15-.2.77-.83.75-.23,0-.41-.49-.61-.76a.45.45,0,0,0-.37-.48l.06-.23.33,0c.56-.38,2.3-.8-.07-1.12-.16,0-.23-.31-.34-.48,1,0,2.1.37,3-.35.11-.09,1.49.5,2.4.53a1.42,1.42,0,0,0,1.12.38c1.61.11,3.29-.52,4.83.2.62-.74,1.73.1,2.39-.31a1.74,1.74,0,0,1,1.94-.16c1.08.49,1.55.13,1.58-.63l1.77.08c-.08.47.41.77.77,1.11-.82.62-1.66,1.23.06,1.82.22.08.08.28-.14.38-.7-.48-1.72.2-2.31-.21-1.35-.95-1.08,0-1.26.44h-.38c0-.28-.24-.44-.66-.44-.06-.36-.34-.47-.76-.5l0-.39c-.41,0-.35.23-.35.41C200.08,6.29,198.86,6.38,198.73,7.25Z"/><path class="cls-3" d="M29.51,6.12a1.39,1.39,0,0,1-1-.39c-.51-.48-1.14-1-.19-1.53,1.5-.91,1.57.43,2.35.65l1.43-.44c.67-.87,2-.11,2.82-.47V3.31c-.83.08-1.79-.61-2.41-.07a2.75,2.75,0,0,1-2.5.38,47.26,47.26,0,0,0-10.83-.15.56.56,0,0,0,.39.75h.7L20.61,4a.18.18,0,0,1,.32,0c2.29.13,2.61.4,1.74,1.47a.27.27,0,0,0-.05.11c-2-.65-2.56,1.47-4.54,1.07-.82-.17-1.91-.21-2.13.69.54,0,1.15.74,1.32.35.35-.73.91-.36,1.46-.38,2,0,3.88-.16,5.9,0,2.87.17,5.83-.19,8.77-.07.59,0,1.52.23,1.56-.54a1.05,1.05,0,0,0-1.5-.25,1.34,1.34,0,0,1-1.7-.23A2.28,2.28,0,0,1,29.51,6.12Zm-3.6-1.66a.62.62,0,0,1-.81.59c-.56-.14-1.4-.48-1.43-.77-.06-.57.68,0,.94-.15C25.13,4.2,26,3.67,25.91,4.46ZM24.23,6.64c-.37,0-1,0-1.06-.43,0-.25.23-.5.62-.48A10.17,10.17,0,0,1,25.18,6C24.77,6.29,24.52,6.63,24.23,6.64Zm2.18-1.73.22,0,0,.1C26.44,5,26.43,4.94,26.41,4.91Z"/><path class="cls-2" d="M259.59,7.12a5.1,5.1,0,0,0-2.59.09,19,19,0,0,1-4.94,0c-.83,0-1.72.27-2.49-.15V6.37c.18-.32.65-.83.09-1-1.66-.35-1.44-1.61-2.58-2.17a3.75,3.75,0,0,1,1.63.42.25.25,0,0,1,.16.06c.06.32-.2.73.46.89s.9,0,1-.42l.09-.09-.08.1c-.77.22-.8-.54-1.44-.49a.12.12,0,0,1,0-.12c.73-.74,1.62,0,2.42-.12a2.75,2.75,0,0,0,3.18.08c.32-.18.54-.43.9,0,.56.66,1.37.43,2.15.21,1.12.52.61,1.16.34,1.79-.08.17-.31.39.08.5a.56.56,0,0,0,.67-.27l.4,0C258.75,6.33,259.81,6.59,259.59,7.12Z"/><path class="cls-1" d="M134.85,6.69a2.76,2.76,0,0,1-2.42.39,4.21,4.21,0,0,0-3.88-.22,2.31,2.31,0,0,0-1.19-.5l-.73.2a5.15,5.15,0,0,1,.26-.65c1.33.14,2.23-.74,3.51-.66.94,0,1.79,0,2-.76,0,0,.1,0,.15,0l.53.25c-.15.86.79.76,1.51.69,2.36-.23,4.74.22,7.14-.23,1.45-.27,1.53,0,.84-1a8.68,8.68,0,0,1-.52-.87c1.37.17,3-.29,4.08.64a4.28,4.28,0,0,1-.78.21c-.44,0-1.08-.47-1.27.06-.08.22.62.61,1.06.84a2.91,2.91,0,0,0,1,.09c.29,0,.61,0,.75.22s-.12.43-.42.56c-.47.21-.6.71-1.34.69a4.41,4.41,0,0,1-3.17.54,9.46,9.46,0,0,0-4.67-.66c0-.2-.05-.45-.35-.44-.52,0-.19.35-.31.53C136,5.91,135.29,5.05,134.85,6.69Z"/><path class="cls-1" d="M20.25,4.21,20.61,4h.32c2.29.13,2.61.4,1.74,1.47a.27.27,0,0,0-.05.11c-2-.65-2.56,1.47-4.54,1.07-.82-.17-1.91-.21-2.13.69-.59-.38-1.66-.15-2.11-.72a.71.71,0,0,0-.28-1.21c-.88,0-.35.66-.47,1a.65.65,0,0,0,0,.24c-.67.69-1.81-.07-2.56.37a1,1,0,0,0-1.22.11c-.12-1-1.36-.79-2.24-.91-.42-.06-.73-.23-.76-.4s.49-.08.66-.21a7.64,7.64,0,0,1,.87-.73c.3-.15.94-.52.77.22,0,.09.1.22.22.27.69.28,4.09-.58,4.56-1,.78-.76,2-.25,3-.25a8.91,8.91,0,0,1,1.5.22c.48.22.5,0,.57-.25V3.5l.71,0a.56.56,0,0,0,.39.75c.09.12.15.33.27.34C20.2,4.61,20.2,4.38,20.25,4.21Z"/><path class="cls-1" d="M243.86,3.41l0,.28A16.24,16.24,0,0,1,243,5.33a2.21,2.21,0,0,1-3.36.29c-.15-.12-.22-.3-.4-.37a.71.71,0,0,1,0-1.36c.27-.13.27-.13.43.4.07.25,0,.57.55.59.15,0,.32-.29.49-.44.94-.19.88-.77,1.09-1.24a7.56,7.56,0,0,0-3.28-.11c.45.77-.63,1-1.15,1.34L236.73,4l-1.13-.23a.41.41,0,0,0,0,.19c.69.86-.38,1.61-.35,2.43l.68,0s0-.09,0-.11c.48-.26.39-1.07,1-.93.87.21-.11.8.06,1.23l.41.53a25.66,25.66,0,0,0,5-.25h.7l0-.49L243,6.24l.19.1h.44c.23,0,.55-.26.54.13l.71.24-.1-.08-.11.08c.49-.54,1.71-.46,2.06-1.34.16-.42,1.69.36,2.53.73a1.46,1.46,0,0,1,.34.26c.18-.32.65-.83.09-1-1.66-.35-1.44-1.61-2.58-2.17A4.77,4.77,0,0,0,243.86,3.41ZM239.14,6a1.84,1.84,0,0,1-.17.38c-.05-.06-.13-.13-.13-.2a1.39,1.39,0,0,1,.08-.36C239,5.9,239.15,6,239.14,6Z"/><path class="cls-3" d="M190.83,6.34c.64,0,.7.36.68.7l-.6.07-.46,0a8.53,8.53,0,0,1-3.49.07,3.1,3.1,0,0,0-1.82.09,5,5,0,0,1-2.1.23c-2.21-.82-4.36-.4-6.49,0-.78.16-1.27-.22-1.91-.22l-9.81,0c-.35,0-.71.1-.92-.19,0-.84.87-1,1.63-.71a2,2,0,0,0,1.6-.08c.24.31.7.24,1.1.28l.38.23c.67-1,2-.59,3.07-.69.43,0,1.42.31,1.13-.6-.07-.22,1.26.13,1.3.37.08.5.44.47.93.46.11.22.24.21.36,0,.66.2,1.45.54,1.17-.42l.54,0a1.67,1.67,0,0,0,1.93.23c.65.56,1.28,1.31,2.11.1l1,0c.22.58.91.37,1.47.39.82,0,.67-.38.73-.7a2.14,2.14,0,0,0,2.83,0c.2.27.38.75.61.76.63,0,.32-.6.83-.75.09.67,1.09.13,1.44.47Z"/><path class="cls-1" d="M229.16,6.82a1.39,1.39,0,0,1-1.82.22c.43-.38.85-.8.35-1.27s-.71.27-1.14.12c-.56.78-.88.31-1.26-.1s-.84-.57-1.13.07c-1-.14-.86-.74-1-1.21.15-.54,1-.73,1.37-1.14a2.83,2.83,0,0,1,2.43-.39,4,4,0,0,0,1.82.07c.62.29,0,1.16,1.06,1.18.81,0,.68-.54.8-.91l.72.06a6.3,6.3,0,0,0-.14,1.05c0,.22.34.31.65.31s.47-.14.32-.31-.86-.47-.2-.72c.17-.06.76.38,1.15.59.12.08.19.3.44.08l-.45-.07c.27-1,1.17-.78,2.11-.51.29.8-1.14,1.19-1,1.94-1.55-.44-1.53.2-1.41.91-.62-.13-1.13.38-1.77.14a1.39,1.39,0,0,0-1.67-1.46c-1.48.14.48.74,0,1.13C229.21,6.66,229.2,6.75,229.16,6.82Z"/><path class="cls-1" d="M95.79,6.37h-.58l-1.13-.25-.42,0,0-.2c.24-.09.37-.21.16-.38a.32.32,0,0,0-.17,0c-.32.14,0,.27,0,.41a1.38,1.38,0,0,1-1.3-.46,1.33,1.33,0,0,0-2.22.07c.09.89-.85.85-1.52,1.09-.85-.3-1.7-.61-2.56-.89-.38-.13-1.11,0-.9-.5s1-.11,1.16-.23c.62-.39,1.58.76,1.93-.24.47-.07,1-.06,1.1-.51.4,0,.82,0,1.07-.24.88-.08,1.76-.13,2.62-.24,1.71-.2,3.19.76,4.92.41V4.7c-.43,0-.87-.07-1.09.27,0,.31,0,.63.69.65l-.31.71Z"/><path class="cls-1" d="M206.57,6.6c.22-.1.36-.3.14-.38-1.72-.59-.88-1.2-.06-1.82l.66.06v.7l-.09.1.08-.1c.61-.25,1.92.29,1.81-.73,1,.09,1.91-.8,3-.1.16.1.85-.18.89-.57l1-.1c.46.59,1.79.82,1.54,1.7,0,0,.23.11.35.17.78-1.4,1.11.35,1.73.11v.24c-1.81,1.28-2.24.1-2.87-.72l-.14,0,.14,0c-.36.11-1,.21-1,.33-.18,1.76-1.49.65-2.56.55s-2.4-.45-3.38.31c-.48.2-.41.81-1.25.75Z"/><path class="cls-3" d="M263.88,5.38l-.66.24c-1.62.16-1.59.92-1.43,1.73-.53.28-.5-.18-.76-.26.48-1.08-.32-2-1.78-2.17a1.49,1.49,0,0,0,0-1.68c.37-.58.68-.18,1,0-.21.13-.27.32,0,.34s.33-.23.37-.4c.86-.8,2.12-.26,3-.23,1.49,0,3.12-.34,4.53.3V3.6l-1,.12c-.33-.43-.62-.21-.92,0L265,4.19c-.09-.32-.16-.66-.83-.61a1.24,1.24,0,0,0-.91.51C262.77,4.67,263.45,5,263.88,5.38Z"/><path class="cls-2" d="M88.3,4.72C88,5.72,87,4.57,86.37,5c-.2.12-1-.17-1.16.23s.52.37.9.5c.86.28,1.71.59,2.56.89L88.36,7l-.42,0c-1.15-.71-2.61-.29-3.91-.48-.31-.28-.23-.55-.08-.87.26-.54-.14-.79-1-.76l0-.25c0-.33-.26-.49-.77-.43a1.65,1.65,0,0,1-.31,0c.11-.24.58-.48,0-.7l0-.25A24.73,24.73,0,0,1,88,3.19C87.69,3.74,87.09,4.3,88.3,4.72Z"/><path class="cls-1" d="M117.67,6.85c-.43,0-.39,1-1.14.23-.57-.55-1.1.22-1.66,0-.16-.94-.93-.75-1.73-.4a1.77,1.77,0,0,1-1.75-.17c-.53-.33-.77-.7-.2-1.13a6.73,6.73,0,0,1,2.25-.18c2.53.61,2.81.6,4.83-.15a.36.36,0,0,1,.16,0c1,.89,2.59-.39,3.64.4-.1.43-.11.88-.82,1.1,0-.31-.19-.35-.68-.3A12.86,12.86,0,0,0,117.67,6.85Z"/><path class="cls-3" d="M88.3,4.72c-1.21-.42-.61-1-.28-1.53.8-.26,1.33-.75,2.47,0,.83.51,2.47,0,3.79,0A24.57,24.57,0,0,0,99.7,3.1c.78-.14,1.3-.1,1.22.56s-.72.64-1.43.52L98,4.14c-1.73.35-3.21-.61-4.92-.41-.86.11-1.74.16-2.62.24-.21-.12-.44-.34-.62-.32-.4,0-.44.32-.45.56C89.32,4.66,88.77,4.65,88.3,4.72Z"/><path class="cls-3" d="M214.82,5.16c.63.82,1.06,2,2.87.72l1.44.32c.39.17.78.35.69.73-.68.62-1.57.15-2.31.14C214.68,7,211.85,7.33,209,7a1.53,1.53,0,0,1-1.16-.6c1-.76,2.26-.42,3.38-.31s2.38,1.21,2.56-.55C213.8,5.37,214.46,5.27,214.82,5.16Z"/><path class="cls-2" d="M142.1,3.32a8.68,8.68,0,0,0,.52.87c.69.92.61.7-.84,1-2.4.45-4.78,0-7.14.23-.72.07-1.66.17-1.51-.69a5,5,0,0,1,4.42-.34c1,.3,1.84.11,1.64-.82C140.23,3.92,141.1,3.25,142.1,3.32Z"/><path class="cls-2" d="M122.07,5.45c-1-.79-2.61.49-3.64-.4a.36.36,0,0,0-.16,0c-2,.75-2.3.76-4.83.15a6.73,6.73,0,0,0-2.25.18,2.75,2.75,0,0,1,1.91-1.93L114,4c.34.5.85.46,1.58.38.89-.11,2,0,2.74-.1,1.56-.12,3,.69,4.43.18l-.39,1A1.53,1.53,0,0,0,122.07,5.45Z"/><path class="cls-2" d="M103.86,4.09c.47.76.85,1.46-1,1.55-.6,0-.22.34-.18.54A3,3,0,0,0,105.25,6c1.67-.8,2-.12,2.41.75l.34,0c1.09-.43,2.89-.65,1.18-1.9-.3-.22-.3-.64-.43-1-1,0-1.9-.05-2.84,0-.61,0-1.07,0-1.13-.5l-1,.07A1.58,1.58,0,0,0,103.86,4.09Zm3,.68s.1,0,.19.06A.18.18,0,0,1,106.87,4.77Z"/><path class="cls-3" d="M295.39,6.53c.53-.72,2.42.28,2.41-.72,0-.49-.76-1.07-1.08-1.67s-1.79-.77-2.94-.68c-.51,0-1,.25-1.52.27s-1.11.43-1.48,0,1-.22.74-.71c1.69-.8,3.79.16,5.55-.59.55-.23.43.47.87.57.43.28-1.5.66.09.89.53.74,1.92,1.18,1.71,2.18a3.12,3.12,0,0,0-1,.2c-.54.36-.52,1.59-1.87.45a2.71,2.71,0,0,0-.29.15,2.27,2.27,0,0,1-.5.2,3.5,3.5,0,0,1-2.46-.28C293.91,5.88,294.89,6.84,295.39,6.53Z"/><path class="cls-3" d="M300.11,3.26a1.31,1.31,0,0,0,1-.44,2.17,2.17,0,0,1,2.5-.65A2.6,2.6,0,0,1,305.12,4c.15,1.47-.8,1.93-2.92,1.64a5.53,5.53,0,0,0-1.74.45c-.64-.59-.4-1.2.3-1.59a1.48,1.48,0,0,1,1.85.39c.18.19,1,.49.95-.07s.43-.92.12-1.38c-.19-.29-.29-.65-.86-.69a.76.76,0,0,0-.92.58c-.08.35-.16.64-.83.6S300.1,3.69,300.11,3.26Z"/><path class="cls-3" d="M122.76,4.42c-1.48.51-2.87-.3-4.43-.18-.77.06-1.85,0-2.74.1-.73.08-1.24.12-1.58-.38,1.25-1.2,3.12-.53,4.67-.58,2.3-.09,4.66.45,6.9-.32l.19.32c-.34.36-1.51.79.28,1,.58,0,.91.45-.09.6C124.9,4.74,124.12,3.75,122.76,4.42Z"/><path class="cls-3" d="M204.11,3.21c0,.76-.5,1.12-1.58.63a1.74,1.74,0,0,0-1.94.16c-.66.41-1.77-.43-2.39.31-1.54-.72-3.22-.09-4.83-.2a1.42,1.42,0,0,1-1.12-.38,10,10,0,0,1,4.82-.57A11.38,11.38,0,0,0,200.49,3,13.78,13.78,0,0,1,204.11,3.21Z"/><path class="cls-3" d="M274,3.51l-.78,0L272,4.17l-.49,0L270,3.69c.94-1.21,2.81-.81,4.15-.85,2.68-.08,5.38.24,8.07.4l.71.25a3.57,3.57,0,0,1-3.92.23c-1.15-.25-2.36-.68-3,.47l-.52,0-.37-.06a1.71,1.71,0,0,1,0-.33l.11-.18-.25.09Z"/><path class="cls-3" d="M75.28,3.69a8.85,8.85,0,0,1-3.08,0,3.55,3.55,0,0,0-2.2.46H68.89c-1.31.08-2.58-.34-4,.09-.72.23-1.11-.51-1.32-1a84.78,84.78,0,0,1,11.82,0Z"/><path class="cls-3" d="M102.66,6.18A3,3,0,0,0,105.25,6c1.67-.8,2-.12,2.41.75-2.75.25-5.49.71-8.23,0-.66-.17-1.08.35-1.62.28-.74-.11-1.88.2-2-.7l1.52,0,2.5-.2Z"/><path class="cls-3" d="M48.19,5.4c0,.4-.2.91,1,.74.71-.11,1.32,0,1.2.68-2.94.5-5.88,1-8.93.41V6.88l.11-.28a.35.35,0,0,0,.18,0c.51.16,1,.31,1.16-.26a1.32,1.32,0,0,0,.28,0l1.08-.23c.16.48.53.57,1.1.25.64-.07,1.3.5,1.87,0,.2-.16-.09-.43-.41-.56l0-.22.34-.48C47.74,4.7,47.8,5.4,48.19,5.4Z"/><path class="cls-3" d="M108,6.84c1.09-.43,2.89-.65,1.18-1.9-.3-.22-.3-.64-.43-1,.52-.07.34-.34.38-.54l.7.06c-.22.52.69.73.71,1.19l-.47.11.1.09.38-.19c.62-.33.24-.79.37-1.18a1.51,1.51,0,0,1,2.18,0,2.75,2.75,0,0,0-1.91,1.93c-.57.43-.33.8.2,1.13a1.77,1.77,0,0,0,1.75.17c.8-.35,1.57-.54,1.73.4-1.81.14-3.65-.28-5.44.15A1.42,1.42,0,0,1,108,6.84Z"/><path class="cls-2" d="M126,4.93c1-.15.67-.55.09-.6-1.79-.16-.62-.59-.28-1,.3.46.86.11,1.29.18,0,.31.28.73.55.61,1.3-.62,2.22.35,3.36.26.61.38.64.06.69-.25.61-.39.76,0,.94.27,0,0-.15,0-.15,0-.26.78-1.11.81-2,.76-1.28-.08-2.18.8-3.51.66a5.15,5.15,0,0,0-.26.65L125.24,7l-.74.27-.08-.67C126,6.49,126.09,5.75,126,4.93Z"/><path class="cls-2" d="M145.2,6.63c.74,0,.87-.48,1.34-.69.3-.13.61-.27.42-.56s-.46-.2-.75-.22a2.91,2.91,0,0,1-1-.09c-.44-.23-1.14-.62-1.06-.84.19-.53.83,0,1.27-.06a4.28,4.28,0,0,0,.78-.21c.34-.38.65,0,1,0,.54.19,1.11.47.95.87-.62,1.58,1.05,1.58,2.55,1.72-.19.34-1,.2-1,.63-1.23-.26-2.39.2-3.63.13C145.11,7.28,145.3,6.94,145.2,6.63Z"/><path class="cls-3" d="M131,4.43c-1.14.09-2.06-.88-3.36-.26-.27.12-.6-.3-.55-.61,2.28-.08,4.54,0,6.82.11a17.57,17.57,0,0,0,3.47-.25,4.87,4.87,0,0,1,1.84.12c.2.93-.6,1.12-1.64.82a5,5,0,0,0-4.42.34l-.53-.25c-.18-.31-.33-.66-.94-.27Z"/><path class="cls-1" d="M102.66,6.18l-2.85,0,0-.5c.39,0,.73-.09.67-.4s-.45-.3-.81-.3a1.65,1.65,0,0,1-.15-.75c.71.12,1.34.14,1.43-.52a6.48,6.48,0,0,1,2.81-.14,1.58,1.58,0,0,0,.13.57c.47.76.85,1.46-1,1.55C102.24,5.67,102.62,6,102.66,6.18Z"/><path class="cls-2" d="M219.13,6.2l-1.44-.32V5.64l.08-.1-.07.1c-.62.24-.95-1.51-1.73-.11-.12-.06-.36-.13-.35-.17.25-.88-1.08-1.11-1.54-1.7.08-.27.4-.23.69-.24.38.39,1,.27,1.51.3.4-.15.64.84.85.16s.88-.25,1.25-.42c.63.48.91.2,1.12-.23.38-.1.82-.57,1,.09l.16.38c-.43.17-.65.56-1.27.54-.42.17-.26.44-.29.68C217.22,5.34,219.39,5.77,219.13,6.2Z"/><path class="cls-3" d="M42.45,3.75A18.25,18.25,0,0,0,40.56,5a3.18,3.18,0,0,1-4.34-.61c.88,0,1.86.06,1.24-.88A10.25,10.25,0,0,1,42.45,3.75Z"/><path class="cls-1" d="M219.14,4.92c-1.92.42.25.85,0,1.28.39.17.78.35.69.73,1.09.07,2.24.75,3.23-.15a.17.17,0,0,0,0-.16,2.61,2.61,0,0,1-1.48-2.9l-.92,0c-.43.17-.65.56-1.27.54A.54.54,0,0,1,219.14,4.92Zm1.14.79c-.23.12-.45-.09-.38-.23s-.58-.81.52-.79c.55.12.5.3.1.51C220.45,5.37,220.45,5.62,220.28,5.71Z"/><path class="cls-1" d="M194.06,6.89c.34,0,.61-.48,1-.09.85.88.92.11,1.2-.23.25-.08.57-.27.75-.22.67.19,1.3.46,1.8-.15s-.17-.78-.58-1.11c-.73-.6-1.28-.33-1.87.08a1.34,1.34,0,0,1-1.29.16c-1-.7-1.49,0-2.1.31Zm4-.94a.27.27,0,0,1-.13,0,.41.41,0,0,1,0-.19l.28.1A1.07,1.07,0,0,1,198.06,6Z"/><path class="cls-3" d="M55.11,6.4c1.46,0,3-.32,4.29.45.33.2.79,0,1.12-.21a1,1,0,0,1,1.31.22c-1.22.81-2.71.51-4.1.37-1.8-.18-3.49.74-5.3.19-.27-.08-.59-.07-.71-.29a1.26,1.26,0,0,1,1.71-.37A1.22,1.22,0,0,0,55.11,6.4Z"/><path class="cls-2" d="M300.11,3.26c0,.43.32.66,1,.69s.75-.25.83-.6a.76.76,0,0,1,.92-.58c.57,0,.67.4.86.69.31.46-.18.9-.12,1.38s-.77.26-.95.07a1.48,1.48,0,0,0-1.85-.39c-.7.39-.94,1-.3,1.59-.24.16-.48.25-.72,0,.21-1-1.18-1.44-1.71-2.18.37-.21.72-.44.74-.8Z"/><path class="cls-1" d="M187.22,5.88a2.14,2.14,0,0,1-2.83,0c-.55-.72-2.26-.54-2.56-1.46l.13-.8a1.69,1.69,0,0,1,1.69.14c.08.14-.15.36.23.44l.11-.44a.57.57,0,0,1,.34,0c1.47.14,1.17,1.46,2.52,1.68A.45.45,0,0,1,187.22,5.88Z"/><path class="cls-3" d="M88.36,7l.31-.43c.67-.24,1.61-.2,1.52-1.09a1.33,1.33,0,0,1,2.22-.07,1.38,1.38,0,0,0,1.3.46,1.17,1.17,0,0,0,0,.2l0,.73C91.93,7.11,90.2,7.65,88.36,7Z"/><path class="cls-3" d="M71.5,7.26c-.14-.65.64-.82,1.27-.94,1.36-.26,3-.65,4.14-.27a5.74,5.74,0,0,0,2.19.27c.49,0,.21.44.26.69a15.34,15.34,0,0,1-5.2.13A10.56,10.56,0,0,0,71.5,7.26Z"/><path class="cls-3" d="M207.31,4.46l-.66-.06c-.36-.34-.85-.64-.77-1.11,1.79-.35,3.71.26,5.52-.44.73-.28,1,.67,1.62.91,0,.39-.73.67-.89.57-1.12-.7-2,.19-3,.1C208.46,3,207.91,4.65,207.31,4.46Z"/><path class="cls-1" d="M177.12,5.91l-.54,0c-.33-.54-.32-.52.25-.69.25-.08.58-.21.63-.36.19-.52-.81-.37-1-.71l.76-.49,1.18-.16,2.39.89c-1.63.73-1.59.92.35,1.83-.83,1.21-1.46.46-2.11-.1C178.41,6,178.1,4.75,177.12,5.91Z"/><path class="cls-1" d="M150.65,6.57c-1.5-.14-3.17-.14-2.55-1.72.16-.4-.41-.68-.95-.87.17-.81.93-.15,1.38-.25.33.76.54,1.61,2.26,1,.28-.1.74,0,.86.24s-.23.4-.61.44l-.16,0,.15.07Z"/><path class="cls-3" d="M223.05,6.78a.14.14,0,0,0,0-.16c.16-.37,1.28-.15,1.07-.76.29-.64.7-.53,1.13-.07s.7.88,1.26.1c.43.15.74-.49,1.14-.12s.08.89-.35,1.27C225.89,7.12,224.35,7.83,223.05,6.78Z"/><path class="cls-3" d="M244.63,6.72c.49-.54,1.71-.46,2.06-1.34.16-.42,1.69.36,2.53.73a1.46,1.46,0,0,1,.34.26v.69c-1.29.52-2.49-.38-3.76-.11l-.94-.1A.25.25,0,0,1,244.63,6.72Z"/><path class="cls-3" d="M48.55,3.48c-.5.72-3.74,1.69-4.78,1.4s-.37-.9-.58-1.35c.66.11,1.31.4,1.94-.08a1.34,1.34,0,0,1,.61-.16C46.58,4.13,47.63,3.36,48.55,3.48Z"/><path class="cls-2" d="M295.39,6.53c-.5.31-1.48-.65-1.73.3-.52.41-1,.17-1.53,0-.85-.67-2.19-.31-3.18-.67.2-.4.17-.88,1.24-.48a9.31,9.31,0,0,0,2.38.22l.44.3.14-.14-.56-.18c.66-.16-1.38-1.66,1.05-1,.09.37-.23.88.73,1C294.56,6.2,295.44,6,295.39,6.53Z"/><path class="cls-3" d="M70.78,6.6c0,.12-.11.28.2.31-2.18.15-4.47,1-6.35-.49l.05-.31H66.1Z"/><path class="cls-3" d="M289,6.15c1,.36,2.33,0,3.18.67-.11.77-.9.15-1.31.22a16.35,16.35,0,0,1-4.73-.16C286.41,5.55,288,6.32,289,6.15Z"/><path class="cls-3" d="M263.21,6.37c1.12-.07,2.38.25,3.13-.7a.42.42,0,0,1,.77.22c0,.26,0,.56.43.72.15.75-.79.54-1.29.57-1.12.08-2.25.06-3.38.08C263,7,262.67,6.59,263.21,6.37Z"/><path class="cls-3" d="M257.47,3.76c-.78.22-1.59.45-2.15-.21-.36-.42-.58-.17-.9,0a2.75,2.75,0,0,1-3.18-.08A5.62,5.62,0,0,1,254.75,3c.91,0,1.81.15,2.71.23Z"/><path class="cls-1" d="M162.47,3.19c.26.48,1,1.18-.77.81a1.9,1.9,0,0,0-1.85.67c-.24.21-.08.78-.82.57s-.47-.58-.35-.94.16-.69.24-1Z"/><path class="cls-3" d="M232.75,6.79c-.12-.71-.14-1.35,1.41-.91l1.08.47.68,0a1.54,1.54,0,0,0,1.09.19l.41.53c0,.49-.45.35-.83.29Z"/><path class="cls-3" d="M177.24,3.68l-.76.49c-1-.1-2.08-.63-2.95.27-.22.23-.86-.11-.82-.19.17-.34-1.23-.48-.24-.87C174.05,3.54,175.78,2.67,177.24,3.68Z"/><path class="cls-3" d="M233.1,4.44c-.39-.21-1-.65-1.15-.59-.66.25,0,.48.2.72s-.05.3-.32.31-.64-.09-.65-.31a6.3,6.3,0,0,1,.14-1.05,7.78,7.78,0,0,1,4.24-.4l0,.61a.41.41,0,0,0,0,.19l-.39,0C234.26,3.67,233.36,3.48,233.1,4.44Z"/><path class="cls-3" d="M186.85,5.4c-1.35-.22-1-1.54-2.52-1.68.75-.6,1.52-1.11,2.5-.17.11.17.18.46.34.48,2.37.32.63.74.07,1.12-.06-.16,0-.39-.42-.37l.09.39Z"/><path class="cls-3" d="M154.63,6.88c.31-.47.92-1,1.55-.55,1.19.88,3.35-.47,4.15.94A22.55,22.55,0,0,1,154.63,6.88Z"/><path class="cls-3" d="M125.24,7l1.39-.45.73-.2c0,.58.6.53,1.19.5a4.21,4.21,0,0,1,3.88.22.77.77,0,0,1-.74.43C129.61,6.89,127.27,7.85,125.24,7Z"/><path class="cls-3" d="M289,2.85c-.07.77-.31,1.34-1.69.66-1-.51-2.31.57-3.3-.23C285.48,2.23,287.28,2.82,289,2.85Z"/><path class="cls-3" d="M79.69,3.52A5.47,5.47,0,0,1,77.23,5.4c.21-.82-.33-1.48-1-2.1.73-.43,1.38-.07,2,.08C78.6,4,79.18,3.59,79.69,3.52Z"/><path class="cls-3" d="M273.53,6.87c1.25-1,3.86-.87,5.42.16-1.54.44-3.1,0-4.64,0C274.27,6.58,273.89,6.75,273.53,6.87Z"/><path class="cls-3" d="M201.2,5.88c.42,0,.7.14.69.46l-.45.17-.1.26.34-.09.28-.3c.42,0,.63.16.66.44-1.3.1-2.44.89-3.89.43.13-.87,1.35-1,2.15-1.35Z"/><path class="cls-3" d="M137.36,6.51a9.46,9.46,0,0,1,4.67.66,1.52,1.52,0,0,1-1.89.18c-1-.53-2.34,0-3.5-.22l.07-.53Z"/><path class="cls-1" d="M259.25,4.92C260.71,5,261.51,6,261,7.09l-1.44,0c.22-.53-.84-.79-.63-1.32C259.38,5.56,259.2,5.22,259.25,4.92Z"/><path class="cls-3" d="M180.81,4.41l-2.39-.89c1.21-.41,2.41-.71,3.54.1l-.13.8Z"/><path class="cls-3" d="M221.62,3.72l-.92,0-.16-.38c1.34-.16,2.71-.54,4,.19-.4.41-1.22.6-1.37,1.14l-.7-.25C222.36,4.06,222.33,3.72,221.62,3.72Z"/><path class="cls-1" d="M257.47,3.76V3.23h1.79a1.49,1.49,0,0,1,0,1.68c-.87,0-.67.5-.69.86a.56.56,0,0,1-.67.27c-.39-.11-.16-.33-.08-.5C258.08,4.92,258.59,4.28,257.47,3.76Z"/><path class="cls-3" d="M206.57,6.6l0,.5c-1.22,0-2.56.77-3.59-.27.18-.45-.09-1.39,1.26-.44C204.85,6.8,205.87,6.12,206.57,6.6Z"/><path class="cls-3" d="M124.42,6.61l.08.67c-1.38.47-2.64,0-3.92-.25l.67-.48c.71-.22.72-.67.82-1.1a1.53,1.53,0,0,1,.3,0C122.37,6.34,122.58,7.1,124.42,6.61Z"/><path class="cls-3" d="M108.75,4c-1,0-1.9-.05-2.84,0-.61,0-1.07,0-1.13-.5,1.26-.62,2.66,0,4-.2Q108.77,3.6,108.75,4Z"/><path class="cls-2" d="M121.25,6.55l-.67.48c-1,.3-2.08.88-2.91-.18a12.86,12.86,0,0,1,2.9-.6C121.06,6.2,121.23,6.24,121.25,6.55Z"/><path class="cls-2" d="M229.16,6.82c0-.07.05-.16.12-.22.51-.39-1.45-1,0-1.13A1.39,1.39,0,0,1,231,6.93C230.35,7.05,229.68,7.46,229.16,6.82Z"/><path class="cls-2" d="M55.11,6.4a1.22,1.22,0,0,1-1.68.36,1.26,1.26,0,0,0-1.71.37c-.25,0-.58,0-.67-.26l.62-.8A17.64,17.64,0,0,1,55,6.1Z"/><path class="cls-2" d="M37.46,3.52c.62.94-.36.88-1.24.88a1.24,1.24,0,0,1-1.33-.46V3.31A8.13,8.13,0,0,0,37.46,3.52Z"/><path class="cls-3" d="M84,6.55c1.3.19,2.76-.23,3.91.48-1.3.6-2.6,0-3.9,0Z"/><path class="cls-3" d="M167.91,3.21c-.19,1.79-1.71.36-2.59.48.06-.35-.2-.86.87-.62A12,12,0,0,0,167.91,3.21Z"/><path class="cls-3" d="M230.6,3.46c-.12.37,0,.93-.8.91-1.09,0-.44-.89-1.06-1.18C229.61,2.52,230,3.36,230.6,3.46Z"/><path class="cls-2" d="M270,3.69l1.59.5c-1,.08-1.06.61-1.21,1.12A.8.8,0,0,1,269,5.6c-.16-.29.23-.36.54-.48,1.1-.43-.89-1,.07-1.39A1.12,1.12,0,0,1,270,3.69Z"/><path class="cls-3" d="M35.54,6.62c.71.29,1.67-1.36,2.22.13C37.46,7.63,37.46,7.63,35.54,6.62Z"/><path class="cls-3" d="M240.63,4.44c.94-.19.88-.77,1.09-1.24.73,0,1.54-.38,2.14.21l0,.28c-.53.12-1.46-.11-1.54.36C242.11,5.11,241.35,4.66,240.63,4.44Z"/><path class="cls-3" d="M238.44,3.09c.45.77-.63,1-1.15,1.34L236.73,4l-.44-1C237,2.84,237.67,3.43,238.44,3.09Z"/><path class="cls-3" d="M154.64,4V3.29a3.35,3.35,0,0,1,2.08-.15c0,.37.25.86-.75.8-.75,0-1.1.18-1.07.68C154.57,4.45,154.67,4.2,154.64,4Z"/><path class="cls-2" d="M76.19,3.3c.71.62,1.25,1.28,1,2.1-.73-.53-1.8-.89-2-1.71l.14-.43Z"/><path class="cls-2" d="M263.21,6.37c-.54.22-.25.59-.34.89l-1.08.09c-.16-.81-.19-1.57,1.43-1.73Z"/><path class="cls-2" d="M136.71,6.6l-.07.53a3.1,3.1,0,0,1-1.79-.44C135.29,5.05,136,5.91,136.71,6.6Z"/><path class="cls-2" d="M57.18,3.35c0,.16.07.33,0,.47C57,4.23,58,5,56.9,5s-.13-.68-.28-1c0-.1-.36-.15-.56-.23C56.3,3.42,56.52,3.09,57.18,3.35Z"/><path class="cls-2" d="M79.69,3.52c-.51.07-1.09.51-1.45-.14L79,3.25A.72.72,0,0,0,79.71,3l1.45.22-.3.26Z"/><path class="cls-3" d="M13.09,6.63a.65.65,0,0,1,0-.24c.12-.36-.41-1,.47-1a.71.71,0,0,1,.28,1.21Z"/><path class="cls-2" d="M110.54,4.68c0-.46-.93-.67-.71-1.19l1.09,0C110.79,3.9,111.17,4.36,110.54,4.68Z"/><polygon class="cls-2" points="282.89 3.49 282.18 3.24 283.36 2.68 283.61 3.25 282.89 3.49"/><path class="cls-1" d="M298.77,3.13c0,.36-.37.59-.74.8-1.59-.23.34-.61-.09-.89a.3.3,0,0,1,.28-.07l.47,0C298.79,3,298.82,3.07,298.77,3.13Z"/><path class="cls-3" d="M244.13,6.48l.71.24c-.31.53-1.18.36-1.72.61l0-.47,0-.49a2,2,0,0,1,.48,0C243.65,6.62,243.89,6.54,244.13,6.48Z"/><path class="cls-1" d="M149.63,7.2c.06-.43.83-.29,1.06-.59l.57.21-.46.32A1.8,1.8,0,0,1,149.63,7.2Z"/><polygon class="cls-2" points="236.29 2.98 236.73 3.96 235.6 3.73 235.56 3.12 236.29 2.98"/><path class="cls-3" d="M219.49,3.23c-.21.43-.49.71-1.12.23C218.67,3.22,218.79,2.58,219.49,3.23Z"/><path class="cls-3" d="M94.08,6.12l1.13.25c.05.65-.57.5-1.13.43Z"/><path class="cls-1" d="M216.27,3.72c-.53,0-1.13.09-1.51-.3A.94.94,0,0,1,216.27,3.72Z"/><path class="cls-3" d="M9.31,7.11A1,1,0,0,1,10.53,7C10.14,7.11,9.91,8,9.31,7.11Z"/><path class="cls-3" d="M80.86,3.51l.3-.26h.72l0,.25A.68.68,0,0,1,80.86,3.51Z"/><path class="cls-1" d="M248.82,3.6a.12.12,0,0,0,0,.12.3.3,0,0,0-.16-.05l-.1-.53Z"/><path class="cls-3" d="M79.71,3a.72.72,0,0,1-.69.22C79,2.84,79.25,2.78,79.71,3Z"/><path class="cls-1" d="M260.64,3.2c0,.17,0,.44-.37.4s-.23-.21,0-.34Z"/><path class="cls-2" d="M243.08,6.86l0,.47a1,1,0,0,1-.74-.48Z"/><path class="cls-2" d="M244.87,6.85l.94.1C245.41,7.26,245.1,7.24,244.87,6.85Z"/><path class="cls-2" d="M108.76,4V3.25c.24,0,.36,0,.38.18S109.27,3.9,108.76,4Z"/><path class="cls-3" d="M184,3.76l-.11.44c-.38-.08-.15-.3-.23-.44A.4.4,0,0,1,184,3.76Z"/><polygon class="cls-2" points="94.08 6.12 94.08 6.8 93.69 6.81 93.67 6.08 94.08 6.12"/><path class="cls-1" d="M273.54,6.87c.35-.12.73-.29.77.18C274,7.12,273.66,7.18,273.54,6.87Z"/><polygon class="cls-2" points="298.69 3 298.22 2.98 298.51 2.7 298.69 3"/><polygon class="cls-1" points="190.45 7.08 190.91 7.11 190.73 7.27 190.45 7.08"/><path class="cls-3" d="M55,6.1a17.64,17.64,0,0,0-3.33,0c-.39,0-.56-.17-.59-.41l0-.73q.93-.07.6-.66c-.1-.18-.24-.42.16-.46.24,0,.76.14.75.21-.07,1.05,1.56,1.06,2.19,1.66A1.88,1.88,0,0,1,55,6.1Z"/><path class="cls-2" d="M31.76,6.15a2.28,2.28,0,0,1-2.25,0c1.27-.07.23-1,1.13-1.27l1.43-.44C31.89,5,31.13,5.51,31.76,6.15Z"/><path class="cls-2" d="M70,4.19a3.55,3.55,0,0,1,2.2-.46c0,.27.09.61-.11.81s.81.67-.17.7c-.67,0-.54-.38-.46-.7,0-.15,0-.66-.41-.17C70.25,5.28,70.42,4,70,4.19Z"/><path class="cls-2" d="M44.23,6.15l-1.08.23c-.14-.28-1.06-.52-.25-.84A.89.89,0,0,1,44.23,6.15Z"/><path class="cls-2" d="M46.79,5.86c.32.13.61.4.41.56-.57.48-1.23-.09-1.87,0C45.39,5.7,46.22,5.93,46.79,5.86Z"/><path class="cls-2" d="M66.1,6.11H64.68c.08-.44.53-.64,1.1-.6S66.07,5.89,66.1,6.11Z"/><path class="cls-3" d="M81.88,4.2a1.65,1.65,0,0,0,.31,0l0,.45c-.43,0-1,.07-1.16-.35Z"/><path class="cls-2" d="M42.87,6.36c-.15.57-.65.42-1.16.26l0-.5Z"/><path class="cls-3" d="M49.76,3.93,50,3.8l.2.23c-.09,0-.2.09-.27.07S49.81,4,49.76,3.93Z"/><path class="cls-2" d="M68.89,4.18h.83c-.1.13-.18.35-.32.37C69,4.62,69,4.34,68.89,4.18Z"/><path class="cls-2" d="M47.11,5.16l-.34.48C46.23,5.27,46.65,5.21,47.11,5.16Z"/><path class="cls-2" d="M41.74,6.12c-.19,0-.47,0-.47-.19,0,0,.14-.14.21-.14C41.81,5.8,41.72,6,41.74,6.12Z"/><path class="cls-2" d="M51,4.93l0,.73C50.62,5.43,50.58,5.18,51,4.93Z"/><path class="cls-3" d="M60.8,4.5c0,.11-.06.11-.11.12S60.75,4.51,60.8,4.5Z"/><path class="cls-3" d="M83,4.67l0,.25-.74-.24Z"/><path class="cls-3" d="M48.2,5.4l.08-.09Z"/><path class="cls-2" d="M41.53,6.6l-.11.28C41.11,6.73,41.18,6.64,41.53,6.6Z"/><path class="cls-2" d="M263.88,5.38c-.43-.38-1.11-.71-.61-1.29a1.24,1.24,0,0,1,.91-.51c.67-.05.74.29.83.61-.34.38-.52.77-.22,1.21.13.2.1.4-.29.43S264,5.62,263.88,5.38Z"/><path class="cls-3" d="M294.37,5.88c-1-.08-.64-.59-.73-1,.36,0,.86.14.91-.33a.59.59,0,0,1,.69-.43,1.27,1.27,0,0,1,.73.62c.19.4-.43.2-.63.31A6.82,6.82,0,0,0,294.37,5.88Z"/><path class="cls-2" d="M276,4.19c.65-1.15,1.86-.72,3-.47A3,3,0,0,1,276,4.19Z"/><path class="cls-2" d="M275.07,4.11l.37.06c.07.07.1.16.19.2.69.29,1.15.62.44,1.14-.19.13-.7.28-.61,0C275.67,5,273.4,4.77,275.07,4.11Z"/><path class="cls-2" d="M267.16,3.72l1-.12c0,.33.87.79,0,.95C267.47,4.68,267,4.27,267.16,3.72Z"/><path class="cls-2" d="M272,4.17l1.15-.64c0,.28.6.57.07.82A1.2,1.2,0,0,1,272,4.17Z"/><path class="cls-2" d="M292.16,4.66c-.21.1-.33.2-.45.2a1,1,0,0,1-.39-.16c.11-.07.21-.19.33-.2A1.75,1.75,0,0,1,292.16,4.66Z"/><path class="cls-2" d="M274,3.51l1,.18.14.09-.05.24C274.62,3.93,274,4,274,3.51Z"/><path class="cls-2" d="M266.24,3.72c.3-.21.59-.43.89,0Z"/><path class="cls-3" d="M290,3.47a.16.16,0,0,1-.2,0S289.87,3.41,290,3.47Z"/><path class="cls-1" d="M168.24,6.59c-.4,0-.86,0-1.1-.28-.18-.75-1.38-.22-1.86-.67-.19-.17-.8.56-1.07,0-.16-.33.44-.62.81-.87a1,1,0,0,1,1.19,0c.66.34,1.42.58,2-.19.35-.46,1-.12,1.36.05.65.3.12.5-.26.71C168.72,5.64,168.13,6,168.24,6.59Z"/><path class="cls-1" d="M154.64,4c0,.22-.07.47.26.64.08.29,1,.34.53.76a1.19,1.19,0,0,1-.73.29c-.77-.06-.26-.5-.43-.76a1.66,1.66,0,0,0-.3-.41c-.28-.22-1.09-.34-.78-.65S154.11,4.05,154.64,4Z"/><path class="cls-1" d="M157.25,4.92l.23-.13.2.22c-.09,0-.19.08-.27.06S157.31,5,157.25,4.92Z"/><path class="cls-3" d="M175.05,6.36h.35A2,2,0,0,0,175.05,6.36Z"/><path class="cls-2" d="M18.44,4c-.07.21-.09.47-.57.25C17.93,4.07,18.16,4,18.44,4Z"/><path class="cls-1" d="M190.83,6.34l-.73,0c0-.3.16-.75-.07-.87-.39-.21-.75-.36-.62-.73.07-.18.29-.1.37,0,.32.32,1.38.22,1.1.88A2.09,2.09,0,0,0,190.83,6.34Z"/><path class="cls-1" d="M193,5.64c-.22.21-.24.55-.75.58-.08,0-.26-.18-.24-.25C192.08,5.58,192.57,5.67,193,5.64Z"/><path class="cls-1" d="M201.2,5.88l-.32,0c0-.18-.06-.38.35-.41Z"/><path class="cls-1" d="M186.91,5.17l-.09-.39c.43,0,.36.21.42.37Z"/><path class="cls-1" d="M188.66,5.89l.13-.32C189.13,5.75,188.78,5.8,188.66,5.89Z"/><path class="cls-1" d="M30.64,4.85c-.9.22.14,1.2-1.13,1.27a1.39,1.39,0,0,1-1-.39c-.51-.48-1.14-1-.19-1.53C29.79,3.29,29.86,4.63,30.64,4.85Z"/><path class="cls-1" d="M24.61,4.13c.52.07,1.34-.46,1.3.33a.62.62,0,0,1-.81.59c-.56-.14-1.4-.48-1.43-.77C23.61,3.71,24.35,4.28,24.61,4.13Z"/><path class="cls-1" d="M25.18,6c-.41.29-.66.63-.95.64s-1,0-1.06-.43c0-.25.23-.5.62-.48A10.17,10.17,0,0,1,25.18,6Z"/><path class="cls-2" d="M20.25,4.21c-.05.17-.05.4-.43.35-.12,0-.18-.22-.27-.34Z"/><path class="cls-1" d="M26.6,5c-.12-.08,0-.09,0-.1Z"/><path class="cls-2" d="M20.93,4h-.32A.18.18,0,0,1,20.93,4Z"/><path class="cls-1" d="M250.29,4.2c-.07.4-.45.54-1,.42s-.4-.57-.46-.89C249.5,3.67,249.53,4.43,250.29,4.2Z"/><path class="cls-3" d="M258.56,5.78c0-.36-.18-.81.7-.86-.06.3.12.64-.3.88Z"/><path class="cls-1" d="M250.3,4.21l.08-.1A.39.39,0,0,0,250.3,4.21Z"/><path class="cls-2" d="M137.36,6.51l-.66.09c.12-.18-.21-.51.31-.53C137.31,6.06,137.38,6.31,137.36,6.51Z"/><path class="cls-2" d="M128.55,6.86c-.59,0-1.19.08-1.19-.5A2.31,2.31,0,0,1,128.55,6.86Z"/><path class="cls-2" d="M240.63,4.44c.72.22,1.48.67,1.67-.39.08-.47,1-.24,1.54-.36A16.24,16.24,0,0,1,243,5.33a2.21,2.21,0,0,1-3.36.29c-.15-.12-.22-.3-.4-.37a.71.71,0,0,1,0-1.36c.27-.13.27-.13.43.4.07.25,0,.57.55.59C240.29,4.88,240.46,4.59,240.63,4.44Z"/><path class="cls-2" d="M235.2,3.94l.39,0c.69.86-.38,1.61-.35,2.43l-1.08-.47C234.06,5.13,235.49,4.74,235.2,3.94Z"/><path class="cls-2" d="M237,6.57a1.54,1.54,0,0,1-1.09-.19s0-.09,0-.11c.48-.26.39-1.07,1-.93C237.82,5.55,236.84,6.14,237,6.57Z"/><path class="cls-2" d="M238.92,5.82c.11.08.23.14.22.18a1.84,1.84,0,0,1-.17.38c-.05-.06-.13-.13-.13-.2A1.39,1.39,0,0,1,238.92,5.82Z"/><path class="cls-2" d="M244.13,6.48c-.24.06-.48.14-.54-.13C243.82,6.3,244.14,6.09,244.13,6.48Z"/><path class="cls-3" d="M243.11,6.37,243,6.24C243,6.27,243.09,6.3,243.11,6.37Z"/><path class="cls-2" d="M180.81,4.41h1c.3.92,2,.74,2.56,1.46-.06.32.09.74-.73.7.35-.45-.25-.68-.62-.82s-.68.18-.85.43l-1,0C179.22,5.33,179.18,5.14,180.81,4.41Z"/><path class="cls-1" d="M182.19,6.19c.17-.25.39-.59.85-.43s1,.37.62.82C183.1,6.56,182.41,6.77,182.19,6.19Z"/><path class="cls-2" d="M177.12,5.91c1-1.16,1.29.13,1.93.23A1.67,1.67,0,0,1,177.12,5.91Z"/><path class="cls-2" d="M175,6.35h.37C175.29,6.57,175.16,6.58,175,6.35Z"/><path class="cls-2" d="M221.62,3.72c.71,0,.74.34.8.68-.11.48.26.37.66.24.22.48.06,1.08,1.08,1.22.21.61-.91.39-1.07.76A2.61,2.61,0,0,1,221.62,3.72Z"/><path class="cls-3" d="M233.09,4.45l.45.07C233.29,4.74,233.22,4.52,233.09,4.45Z"/><path class="cls-3" d="M99.52,5a1.4,1.4,0,0,1,.26.68H97.62C97,5.6,97,5.28,96.93,5c.38,0,.86,0,1.09-.28Z"/><polygon class="cls-2" points="97.62 5.62 99.78 5.63 99.81 6.13 97.31 6.33 97.62 5.62"/><polygon class="cls-2" points="99.52 4.95 98.02 4.7 98.02 4.14 99.49 4.18 99.52 4.95"/><path class="cls-2" d="M89.4,4.21c0-.24,0-.52.45-.56.18,0,.41.2.62.32C90.22,4.25,89.8,4.21,89.4,4.21Z"/><path class="cls-2" d="M98,4.69c-.23.33-.71.23-1.09.28C97.15,4.63,97.59,4.67,98,4.69Z"/><path class="cls-3" d="M93.71,5.88c0-.14-.34-.27,0-.41a.32.32,0,0,1,.17,0C94.07,5.67,93.94,5.79,93.71,5.88Z"/><path class="cls-2" d="M207.31,4.46c.6.19,1.15-1.46,1.79,0,.11,1-1.2.48-1.81.73C207.3,4.93,207.3,4.69,207.31,4.46Z"/><path class="cls-3" d="M214.82,5.16l-.14,0Z"/><path class="cls-2" d="M207.29,5.16l-.08.1Z"/><path class="cls-1" d="M83,4.67l-.73,0,0-.45C82.7,4.18,83,4.34,83,4.67Z"/><path class="cls-1" d="M124.42,6.61c-1.84.49-2-.27-2-1.19l.39-1c1.36-.67,2.14.32,3.2.51C126.09,5.75,126,6.49,124.42,6.61Z"/><path class="cls-3" d="M107.06,4.83l-.16,0C106.91,4.75,107,4.75,107.06,4.83Z"/><polygon class="cls-2" points="274.97 3.69 275.22 3.6 275.11 3.78 274.97 3.69"/><path class="cls-2" d="M110.55,4.69l-.38.19-.1-.09A3.71,3.71,0,0,1,110.55,4.69Z"/><path class="cls-1" d="M131,4.43l.69-.25C131.61,4.49,131.58,4.81,131,4.43Z"/><path class="cls-2" d="M99.78,5.63l-.14-.7c.36,0,.75,0,.81.3S100.17,5.62,99.78,5.63Z"/><path class="cls-3" d="M219.43,4.24a.54.54,0,0,1-.29.68C219.17,4.68,219,4.41,219.43,4.24Z"/><path class="cls-1" d="M217.69,5.64l.07-.1A.86.86,0,0,1,217.69,5.64Z"/><path class="cls-3" d="M220.52,5.2c-.07.17-.07.42-.24.51s-.45-.09-.38-.23-.58-.81.52-.79Z"/><path class="cls-2" d="M220.52,5.2l-.1-.51C221,4.81,220.92,5,220.52,5.2Z"/><path class="cls-2" d="M198.22,5.81a1.07,1.07,0,0,1-.16.14.27.27,0,0,1-.13,0,.41.41,0,0,1,0-.19Z"/><path class="cls-2" d="M151,5.41l-.15-.07A.52.52,0,0,1,151,5.41Z"/><path class="cls-1" d="M292.59,5.87l.56.18-.14.14A2.73,2.73,0,0,1,292.59,5.87Z"/><polygon class="cls-2" points="201.68 6.68 201.34 6.77 201.44 6.51 201.68 6.68"/><path class="cls-2" d="M201.44,6.51l.45-.17a.75.75,0,0,1-.21.34Z"/><path class="cls-1" d="M223.08,4.64c-.4.13-.77.24-.66-.24Z"/><path d="M276.3,103.52h0Z"/><path d="M307.31,102.49h0l.31.2c-.94.06-1.85.07-2.73.07-.28.17.39.23.7.32l-.7.07c-.09.07.31.06.31.13-.17.11-1,.14-1,.28-.68,0-1.23,0-1.69,0a8,8,0,0,0-1.49.18c-.24,0-.31.11-.21.16a1.93,1.93,0,0,0,.91.23c.29,0,.51.08.75.12,0,.19-.48.35-.88.49a7.74,7.74,0,0,1-2.36.28c-3.82,0-7.66,0-11.51.17l-1.54.07a33.85,33.85,0,0,1-3.76,0c-1.05,0-2.14,0-3.22,0-2.3.07-4.6,0-6.9.16l-.69,0c-2.31.17-4.57.12-6.84.1-1.77,0-3.55,0-5.34.08-1.5,0-3,.09-4.48.09-.23,0-.48,0-.69,0a32.22,32.22,0,0,0-3.54.07c-.8,0-1.58.08-2.39.06-.32,0-.69,0-1,0s-.46,0-.67,0c-1.38,0-2.71.07-4.06.15-2.11.11-4.23.12-6.35.13-1.67,0-3.3.11-4.94.21-.56,0-1.13.07-1.67.12-1.42.15-2.94.18-4.4.28a20.82,20.82,0,0,1-2.37,0,47.75,47.75,0,0,0-5.6.09c-.33,0-.7,0-1,.08a9.65,9.65,0,0,1-1.62,0,14.79,14.79,0,0,0-3,.1,3.73,3.73,0,0,1-.82,0,19.63,19.63,0,0,0-2,0l-3.79,0a4.8,4.8,0,0,1-.67,0,7.63,7.63,0,0,0-2.24.06,17.63,17.63,0,0,0-2.32.34,10.21,10.21,0,0,1-2,.15,20.86,20.86,0,0,1-2.64-.07,12.7,12.7,0,0,0-3.09.07,25.93,25.93,0,0,1-3.8.24c-1.31,0-2.62,0-3.91,0a21.3,21.3,0,0,0-2.87.14,12.83,12.83,0,0,1-2.77,0,2.23,2.23,0,0,0-.63,0,6.58,6.58,0,0,1-1.47,0,18.76,18.76,0,0,0-2.52.12c-.55.06-1.09.08-1.68.1l-4,.16c-1.89.1-3.77.16-5.68.16-1,0-2.07,0-3.09.1-1.79.09-3.57.11-5.35.13-2.35,0-4.68,0-7.05.12-1.07,0-2.18.07-3.27.06l-1.89,0c-3.29.1-6.56.11-9.84.16q-6.37.11-12.77.29l-1.21,0c-2.46,0-4.94,0-7.41.08l-5.88.09-1.37,0c-1.85,0-3.68.09-5.53.09-1.48,0-3,0-4.48.06-1.79.05-3.56.09-5.34.09-1.94,0-3.88,0-5.85.08-2.47.08-5,.1-7.43.16l-6.39.16c-3.8.1-7.6.19-11.4.24l-9.15.21-5.86.14-9.15.28-6,.14c-1.39,0-2.77.06-4.14.13-2.64.14-5.29.15-7.93.24L10,112,5.32,112c-1.18,0-2.16-.1-3.2-.14-.47-.17,0-.4-.87-.53.24-.1.83,0,1.14-.14A10.48,10.48,0,0,1,3.53,111a1.61,1.61,0,0,0,.54-.14,3.4,3.4,0,0,1,1.09-.22c.13-.1-.24-.11-.39-.15-.43-.12-.86-.23-.22-.4.1,0,.19-.08.13-.1-.35-.13.15-.23.36-.34a7.9,7.9,0,0,0-1.46-.2l.62-.19c.09-.1-.6-.06-.66-.16s0-.16.11-.24,0-.17,0-.24l.18,0a40.45,40.45,0,0,1,4.44-.32l8.29-.22,6.56-.2c2.13-.07,4.25-.1,6.38-.12l2.91,0c.73,0,1.47,0,2.23-.07,1.93-.11,3.89-.17,5.85-.17.34,0,.66,0,1,0,2.14-.16,4.35-.15,6.51-.26a20.86,20.86,0,0,1,3.59.1,9.09,9.09,0,0,0,1.76,0,4.71,4.71,0,0,1,1.39.08l.33-.15a6.64,6.64,0,0,1,1.17,0,26.78,26.78,0,0,0,2.68,0,17.79,17.79,0,0,1,2.74,0c.07.09-.4.1-.49.17l1.79,0-.55-.12c0-.07.2-.1.41-.12s.48,0,.63-.07a25.78,25.78,0,0,1,4.73-.26l.5,0a8.07,8.07,0,0,0,1.4.14,15.38,15.38,0,0,1,1.67,0,23.86,23.86,0,0,0,2.55-.09,3.18,3.18,0,0,0,.44,0,4.76,4.76,0,0,1,1.47-.19,21.83,21.83,0,0,1,3.16,0,17.13,17.13,0,0,0,3.44,0,2.63,2.63,0,0,0,.59-.07,10,10,0,0,1,3.32-.29l.81,0,.41.15a3.31,3.31,0,0,0,1.12.11l1.87,0c-.35.09-1.12,0-1.12.16a.49.49,0,0,0,.21,0l5-.06a2.43,2.43,0,0,0,.4-.05c0-.07-.34,0-.38-.11.34-.09,1.13-.08,1.22-.23.53,0,.88,0,1.33,0s.28-.07.3-.12a12.25,12.25,0,0,1,1.44-.11,11.94,11.94,0,0,1,1.34,0c.51,0,.23.14.4.21a2.36,2.36,0,0,1,.37.11c.06,0,0,.09,0,.15,1.13,0,2.26,0,3.41,0-.38-.34.19-.54,1.79-.6.85,0,1.72,0,2.59,0,1.21,0,2.41,0,3.62-.1.39,0,.81,0,1.19,0,1.2,0,2.4,0,3.61,0,.7,0,1.35,0,2,0,.09.08-.42.14-.21.23.45.09,1.27,0,1.79.06a27.69,27.69,0,0,1,3.41-.09c.93,0,1.79-.07,2.7-.11-.56-.08-1.28,0-1.87,0,2.17-.18,4.42-.24,6.63-.35,1,0,1.95,0,2.93,0l8.77,0c2.58,0,5.17-.07,7.74-.23,1.31-.08,2.63-.08,3.95-.09,3.26,0,6.52,0,9.8-.2,1.83-.07,3.66-.16,5.46-.27.28,0,.58,0,.86,0,2,0,4-.08,6,0a7.76,7.76,0,0,0,1.18,0c2.62-.24,5.33-.28,8-.31s5.41-.12,8.08-.27c.76,0,1.49-.06,2.23-.06h2.57c.62,0,1.3,0,1.88,0,1.08-.1,2.16-.12,3.25-.15l4.8-.15c1.09,0,2.17,0,3.32-.06l.12.12a18.47,18.47,0,0,1,3.68-.36,9,9,0,0,0,2.08-.15,6.79,6.79,0,0,1,.8-.07l1.72-.06c1.15,0,2.29-.07,3.43-.13l3.24-.13c1.36,0,2.71-.13,4.1-.13s2.76-.07,4.14-.11c1,0,2.07,0,3.1-.08a1.52,1.52,0,0,1,.92.14c2.08,0,2.87,0,5.13-.18l.27-.15c1.45-.09,2.93-.1,4.41-.11a14.06,14.06,0,0,1,2.32.23l.35,0a9.27,9.27,0,0,0,2.37-.28c.18.21,1,.22,1.44.33a2.22,2.22,0,0,0,1.15-.16l1.27-.07c.22-.07-.23-.08,0-.16a13.49,13.49,0,0,1,2.91,0c.46.07,1.06.11,1.62.17l.6-.2a4,4,0,0,0-1.39-.21,13.17,13.17,0,0,1,2.12-.13c.79,0,1.59,0,2.39-.07.2,0,.45,0,.66,0a53.47,53.47,0,0,0,5.8-.12c1-.07,2.06-.06,3.07,0,2.17,0,4.35,0,6.53-.11.92,0,1.82-.07,2.74,0s2.06,0,3.09,0l4.12-.15a39.67,39.67,0,0,1,4.23,0h.15c1.71,0,3.31.09,5,.11l3.53.06a14.56,14.56,0,0,1,2,.22l0,.18c-.79,0-1.58.07-2.38.05a.83.83,0,0,0-.26,0c-.07,0,0,.07.2.07.43,0,.91,0,1.29,0,.17.11-.3.19-.27.29Zm-273.2,7.22h0Zm7.93-1Zm-4.41.17a12.76,12.76,0,0,1,1.95.11,15.8,15.8,0,0,1,1.82-.18,1.76,1.76,0,0,0,.52-.1h0l-3,0c-.2,0-.42,0-.62.06S37.74,108.76,37.63,108.88Zm5.8.73c-.76-.07-1.7,0-2.57,0,.33-.1.84,0,1.11-.11-1.84,0-3.11,0-4.51.11.47.06,1.06,0,1.72,0l-1.15.06c-.17,0-.3,0-.24.08a.83.83,0,0,0,.51,0,2.32,2.32,0,0,0,.7.08c1.36-.06,2.74,0,4.08-.15C43.28,109.7,43.53,109.69,43.43,109.61Zm.22-.14s0,0,0,0h-.16c-.14,0-.12,0,0,0Zm1.31-.82a2.09,2.09,0,0,0-.25,0,.82.82,0,0,0-.27,0s.08,0,.23,0Zm9-.75c.52,0,.81-.1,1.5-.12a2.87,2.87,0,0,0,1,.13l-.16-.13a3.28,3.28,0,0,0,.83-.13c-.84,0-1.63.07-2.43.07a4.07,4.07,0,0,0-.5,0C54,107.79,53.8,107.83,54,107.9Zm-.14,1.91c0-.07.14-.15-.33-.17-.23,0-.46,0-.51.08Zm1.74-.14a1.88,1.88,0,0,0-.91,0c-.31.05-.55.12-.83.18C54.43,109.77,54.93,109.66,55.59,109.67Zm.3,0-.26,0h.15C56,109.66,56,109.65,55.89,109.65Zm.85-.6a15.67,15.67,0,0,0-1.81,0l-2.86.15c-.18,0-.21,0-.1,0a5.89,5.89,0,0,1,1.21,0,6.34,6.34,0,0,1-1.1.1,5.54,5.54,0,0,0,.71.12,25.59,25.59,0,0,0,3.82-.11l.39-.08C57,109.23,57.14,109.13,56.74,109.05Zm.57-.74-.35-.07a5.13,5.13,0,0,0-2.35,0,8.5,8.5,0,0,1-1.29.11c-.64,0-1.24.06-1.87.06-.22,0-.42,0-.3.14a20.76,20.76,0,0,1,2.25.13,1.51,1.51,0,0,0,.59,0c.13-.06-.24-.06-.22-.11,1.09,0,.52.21.81.33.54,0,1.09,0,1.53-.08C56.87,108.64,56.82,108.44,57.31,108.31Zm3.62-.54h-.1v0Zm.44-.16a4.55,4.55,0,0,0,1.16.14C62.38,107.62,62.07,107.58,61.37,107.61ZM62.59,109l.45,0a1.07,1.07,0,0,0-.42,0,.33.33,0,0,0-.15,0Zm.92.12c.05,0-.12,0-.27-.05s-.36,0-.34.07.22,0,.38,0A.66.66,0,0,0,63.51,109.12Zm.61-.9s-.09-.11-.32-.1a16.81,16.81,0,0,0-2.46.08c.33.08.81.11,1.13.19a3.75,3.75,0,0,0,1.12,0C64,108.37,64.09,108.3,64.12,108.22Zm18.22-1a4.71,4.71,0,0,0,1.53-.07A5.76,5.76,0,0,0,82.34,107.2Zm-1.87-.31c.78.07,1.61,0,2.37,0,.14,0,.34,0,.28-.09Zm1.53.32c-.21,0-.44,0-.44.08s0,0,.08,0a1.29,1.29,0,0,0,.51-.06l.11-.06ZM76,108h.26a2.65,2.65,0,0,1,.39,0c.08,0-.14.07-.31.1a4.74,4.74,0,0,0,1.47-.07,7.34,7.34,0,0,0,1.79.11,5.71,5.71,0,0,0,1.62-.25,4.51,4.51,0,0,0-.87-.06c-.37,0-.2.11-.57.12-.58,0-.79-.14-1.45-.12l-2,.06A1,1,0,0,0,76,108Zm1.63.51h.1v0ZM74.74,108c.52,0,1,.07,1.54.08L76,108A3.28,3.28,0,0,0,74.74,108Zm-3.58-.43a3.78,3.78,0,0,0,1.2,0c-.41,0,.16-.13-.34-.16A1.76,1.76,0,0,0,71.16,107.59Zm-1.68-.1,0,0h-.14C69.28,107.48,69.31,107.49,69.48,107.49Zm-1,.62a1.91,1.91,0,0,1,.43.19,2.9,2.9,0,0,0,.78,0,6.43,6.43,0,0,1,2,.09c.27.08.92,0,1.26.06a3.8,3.8,0,0,0,1.19.07,2.14,2.14,0,0,0-.75-.23c-.36,0-.12-.19-.48-.27a6.77,6.77,0,0,0-1.76-.22c-.2,0-.27-.08-.23-.08a4.85,4.85,0,0,1-.78.16c-.39,0-.8,0-1.18.06S68.32,108.06,68.45,108.11Zm3,.68c-.84,0-1.42,0-2,0a6,6,0,0,0-1.89.24,3.57,3.57,0,0,0,1.29,0,3.78,3.78,0,0,1,1.27-.16A8.37,8.37,0,0,0,71.48,108.79Zm7.64.43a2.21,2.21,0,0,0-.81,0s-.07,0-.07,0,0,0,.06,0Zm1.88-.57a8.47,8.47,0,0,0-1.27-.05l-6.18.12a1.79,1.79,0,0,0-.6.06c0,.06.36,0,.4.07a15.09,15.09,0,0,0-1.86.1,18,18,0,0,0,1.8,0,19.85,19.85,0,0,1,2.8,0,7.49,7.49,0,0,0,1.49,0,.68.68,0,0,0,.21,0s-.08-.07-.19-.09-.4,0-.73-.06l2.61,0c-.17.09-1,0-1,.13a18.5,18.5,0,0,0,2.58,0C81.23,108.75,81.1,108.7,81,108.65Zm.35,0h-.09l-.21,0A.71.71,0,0,0,81.35,108.62Zm1,.48a.26.26,0,0,0-.12,0c-.15,0-.18,0-.08,0h.14Zm2-.78a2.29,2.29,0,0,0,.64,0,1.24,1.24,0,0,0,.48-.1c.16-.14.42-.27-.25-.36-.3,0,.13-.12-.07-.15-.42-.07-1,0-1.38,0s-.33-.17-.82-.2a6,6,0,0,0-1.14.16c-.15.09-.52.17-.49.27l3.11.22a.47.47,0,0,1,.17,0C84.58,108.22,84.06,108.25,84.31,108.32Zm1.48.72a1.86,1.86,0,0,0-1.21,0A3.51,3.51,0,0,0,85.79,109Zm.54-.33c-.35-.26-.35-.26-1.63-.25.12.06.27.1.23.11-.21.06-.7.09-.43.17a3.37,3.37,0,0,0,1.31.06C86,108.78,86.17,108.74,86.33,108.71Zm10.41-2,.09,0,.12,0Zm-2.63.25,1.42.21.52,0c.14,0,.25,0,.42-.08A8.27,8.27,0,0,0,94.11,106.92Zm-5.54.13h-.26l-.07,0A.73.73,0,0,0,88.57,107.05Zm4.71,1.89-.17,0-.13,0s0,0,0,0A.62.62,0,0,0,93.28,108.94Zm3.61-.07-1.79-.08h-.34c-.42,0-.55,0-.46.18l1.34-.08Zm.69-.41a1.63,1.63,0,0,1-.36-.06,3.29,3.29,0,0,0-1.48-.13,7.31,7.31,0,0,0-1.06.13,8.16,8.16,0,0,1-2.1,0,5.06,5.06,0,0,0-1.37,0c0,.1.28.14.47.21.42,0,.9,0,1.27.07a3.85,3.85,0,0,0,1.08,0,2.43,2.43,0,0,0,.61,0,16.36,16.36,0,0,1,2-.09A4.12,4.12,0,0,0,97.58,108.46ZM93,108.14s0,0,0,0,0,0,0-.05l-.12,0C92.92,108.14,92.94,108.15,93,108.14Zm12.17.52a28.23,28.23,0,0,0-3.69.14,29,29,0,0,0,3.86,0C105.48,108.69,105.38,108.67,105.21,108.66Zm.69-.84a.5.5,0,0,0,.13-.07c.26-.17.41-.33-.36-.44-.48-.08-.45-.21-.14-.32.11,0,.35-.07.29-.13a1,1,0,0,0-.56-.1c-.33,0-.66,0-1,0l-5.86.12c-.32,0-.51.06-.3.13,2.6,0,2-.09,3.13.15a6.68,6.68,0,0,1-1,.09,19.45,19.45,0,0,0-3,.36c-.09-.07,0-.16-.23-.23a8.39,8.39,0,0,0-1.44,0,12.11,12.11,0,0,1-1.6.18c-.42.09-1.24,0-1.2-.12s.11-.16-.18-.22-.07-.17-.54-.21a31.27,31.27,0,0,0-3.48.11c-.19.09-.22.16.19.21s.63.14.55.26-.25,0-.15.08a8.58,8.58,0,0,0,2.49.4c-.1,0-.36.06-.2.09a9.66,9.66,0,0,0,1.62,0,6,6,0,0,0,1.39-.19h1.71a27.88,27.88,0,0,0,3.48-.16c.51.09.13.25.43.36a8,8,0,0,1,1.12,0c-.16.13-.25.26.16.38a20.5,20.5,0,0,0,4.69-.12C105.52,108.19,105.29,108,105.9,107.82Zm83.73-3h.09l0,0Zm-2.89.58h.11l.13,0h-.12Zm-2.36.83c0,.08.3.15.6.12a1.68,1.68,0,0,0,.28-.08c0-.08-.24-.11-.55-.11S184.39,106.15,184.38,106.19Zm-20.23-.34s.09.07.28.07.33,0,.34-.07-.14,0-.3-.06S164.14,105.81,164.15,105.85Zm-15.67.29a.56.56,0,0,0,.41.1c.58,0,1.13,0,1.69,0,.2,0,.31,0,.26-.08A11,11,0,0,0,148.48,106.14Zm.45.37-.23,0c-.14,0-.22,0-.17,0a1.29,1.29,0,0,0,.24,0C148.89,106.56,149,106.54,148.93,106.51Zm-2.39-.9H147s0,0-.18,0Zm-3.94.69,3.12-.06A15.51,15.51,0,0,0,142.6,106.3Zm-1,.56h0Zm-.19.72.2,0,.2,0h-.27Zm-22.73-1.28c.09,0,.13.07.19.07,2.31,0,4.66,0,7-.06.79,0,1.59,0,2.55-.1a21,21,0,0,0-3,0c-1.15,0-2.28,0-3.43,0a3,3,0,0,1-.7,0A23.18,23.18,0,0,0,118.64,106.3Zm7.67.48a.15.15,0,0,0,.08-.08l-.08.08c0,.07.14.11.49.08a1.14,1.14,0,0,0,.26,0s-.1-.06-.27-.06Zm-4.2-.22a19.06,19.06,0,0,0,2.76-.06A24.12,24.12,0,0,0,122.11,106.56Zm-8.91,2-2.16,0a7.82,7.82,0,0,0,2.41,0C113.53,108.56,113.47,108.51,113.2,108.52Zm1.34-.37c0-.06,0-.13-.3-.15-.66,0-.71-.15-.61-.28a4.23,4.23,0,0,0,.25-.46c-.19-.08-.79-.06-.73-.17s-.56-.13-.78-.2c.36-.12.34-.17-.08-.18a5.07,5.07,0,0,0-1.68.14c.49.06.61.15.25.27l-.61.18a3,3,0,0,0,1.38.39c-.09,0-.56,0-.49.13s.19.11-.1.18l-.91.08c-.08.08.12.14.27.21.35,0,.82,0,1.08.06a6.42,6.42,0,0,0,2.44-.07C114.13,108.24,114.48,108.23,114.54,108.15Zm11.54,0a9,9,0,0,0,1.44-.1c0-.09-.35-.09-.49-.13a2.27,2.27,0,0,0-.73-.05c-.31,0-.09.13-.71.14h-.94c-.05-.07.39-.06.28-.14l-1.44,0c-.14,0-.31,0-.13-.09l.93,0c.1-.1,0-.2.61-.28.74.06,1.57,0,2.38-.07.07,0,.08.07.15.08.59.11,1.48,0,2.13.11a14.53,14.53,0,0,1,2.12-.11l.42-.13c0-.1-.49-.11-.42-.19s.54,0,.73-.09c-1.85-.06-2-.08-2.29-.41a5.59,5.59,0,0,1,1.55-.11,6.78,6.78,0,0,1,1.87.17,1.76,1.76,0,0,0,.82,0c-.13-.1.66-.18.37-.32-2.1-.14-4.34.11-6.45,0a10.43,10.43,0,0,0-1.89.1,12.78,12.78,0,0,1,2.85.21,2.24,2.24,0,0,1-.29.12A9.73,9.73,0,0,1,127,107a6.62,6.62,0,0,0-1.8.16c-.9,0-1.64-.11-2.51-.11-.6,0-1-.09-1.08-.23s-.2-.23-.72-.31c-.9,0-1.85,0-2.8.07.06.13.38.17.8.17s1,0,1.4.06a9.09,9.09,0,0,0-2.86.43c.17,0,.46.06.35.14s0,.11.21.12c.78,0,.9.22,1.63.26.25,0,.25.1,0,.15s-.43,0-.46.1.25.11.52.12.28.08.33.14.56,0,.39.12a5.43,5.43,0,0,0-1.44.19c1.05,0,1.9,0,2.66,0,.64-.13-.19-.18.09-.29.55,0,1.21-.06,1.76,0-.08.11-.68,0-.78.16a7.48,7.48,0,0,0,2.26,0s-.2-.09-.13-.12a2.21,2.21,0,0,1,.6-.14C125.6,108.13,125.86,108.14,126.08,108.13Zm7.37-.81-.11,0s0,0,.13,0a.15.15,0,0,0,.07,0Zm-1.15-.53a1.8,1.8,0,0,0-.42,0c-.32,0-.45.07-.48.14a2.16,2.16,0,0,0,.76,0C132.31,106.86,132.43,106.82,132.3,106.79Zm-1.88,1.55c-.83,0-1.67,0-2.48,0-.2,0-.46,0-.68,0s-.48,0-.39.1C128,108.48,129.21,108.38,130.42,108.34Zm5-.32c.45,0,.86,0,1.35,0a12.6,12.6,0,0,0,1.45-.13,8.18,8.18,0,0,0,1.23-.13,2.82,2.82,0,0,1-1.84-.2,11.68,11.68,0,0,0-2.36.21,3.68,3.68,0,0,1-.46,0,3,3,0,0,0-1.12-.09c-.75,0-1.21,0-1.35-.18a1.21,1.21,0,0,0-.62-.09c-.64.12-.64.12-.43.24a10.2,10.2,0,0,0-2,.32h.7Zm-1.41-.87s0,0,0,0h-.15C133.78,107.15,133.83,107.16,134,107.15Zm1.54.33.25,0a.71.71,0,0,0-.17,0l-.24,0Zm3.34.15h0Zm1.69.49c-2.43,0-4.88,0-7.32.18,2.31,0,4.62,0,7-.08C140.34,108.22,140.66,108.21,140.55,108.12Zm.71-1.07c-.13-.07-.63,0-.8-.09l.13-.13-1.16,0c-1.73,0-3.53.08-5.22,0a1.82,1.82,0,0,0-.33,0,1,1,0,0,0-.25.05c-.09,0,0,.07.1.09.3,0,.66,0,1,0a9,9,0,0,1,1.28,0c-.08.12-.79.06-.89.16a3.72,3.72,0,0,0,.89.07c1.48-.08,3-.13,4.44-.1A1.66,1.66,0,0,0,141.26,107.05Zm3.29.66c-1.15.07-2.19,0-3.34,0,.13,0-.24,0-.05,0A19.21,19.21,0,0,0,144.55,107.71Zm.73.36a4,4,0,0,0-1.24,0A2.9,2.9,0,0,0,145.28,108.07Zm3.27-.06a13.86,13.86,0,0,0-2.05.07A16,16,0,0,0,148.55,108Zm19-.43h-2.66a2.65,2.65,0,0,1,.93-.13,3.83,3.83,0,0,0,1.76-.33c.06,0,.07-.07.12-.11-.21,0-.55,0-.38-.06.33-.11.16-.17-.08-.24h0l.13-.11c.2-.19.11-.23-.72-.27h-.34c-.43,0-.46,0-.23-.19.07,0,0-.07-.11-.09a11.75,11.75,0,0,0-1.46,0c-.59,0-.76.08-.8.19h0c-.12,0-.21.06-.36.08a32.4,32.4,0,0,1-4.65.19,4.54,4.54,0,0,0-1.44.1,24,24,0,0,1,2.67.24c.21,0,.49,0,.75.06a5.34,5.34,0,0,1,.8,0c-.21.12.16.16.52.2-.42.08-1,.07-1.45.12.41.1-.53.18-.2.27s1.22,0,1.36.12a2.72,2.72,0,0,1-.76.08l-2.75.08c-.22,0-.45,0-.66,0-.06,0-.08,0-.12-.06.17-.06.69,0,.76-.17l-.73-.34c-.77,0-1.54,0-2.22.1-.86.07-1.69.06-2.53.08-.57,0-1.13,0-1.78,0-.09-.09-.64-.11-.65-.23a11,11,0,0,1,2.32-.23,7.46,7.46,0,0,1,1.9.29,2.91,2.91,0,0,1,1.37-.22,4.92,4.92,0,0,0,.64-.06c.47-.05.59-.15.29-.24l-.44-.08a14.23,14.23,0,0,1-1.45.17c-.18,0-.6,0-.88-.08a5,5,0,0,0-1.82,0l-.84-.12c.18,0,.5,0,.53-.1a8.17,8.17,0,0,0-1.43,0c-.35,0-.22.15-.71.19a9.91,9.91,0,0,1-1.72,0c-.58-.08-1.2.11-1.81,0a2.84,2.84,0,0,0-.62,0l-1.15.16c.17.07.65,0,.84.09.41.12,1.18.15,1.68.26a5.75,5.75,0,0,0,1.72,0c.84-.07,1.13,0,1,.19s.44.3,1,.29a11.42,11.42,0,0,1,1.18,0,34,34,0,0,0,3.51,0c.16,0,.21,0,.13,0-1.09.1-2.23.12-3.37.12a7.64,7.64,0,0,0-1.79.13l4.37,0c3,0,6-.26,8.94-.21.16,0,.34,0,.51,0Zm1.12-.58h-1A2.8,2.8,0,0,0,168.66,107Zm.05.58,0,0-.12,0Zm23.63-.3a.76.76,0,0,0-.38,0,1.11,1.11,0,0,0-.25,0,.87.87,0,0,0,.38,0Zm3-1c-.49-.13-1.39-.06-2-.15a.53.53,0,0,1-.15-.05,6.79,6.79,0,0,0,1-.12c.07-.09-.45-.1-.47-.19s.49-.11.41-.14c-.32-.11-.08-.25-.26-.37a2,2,0,0,0-1,0,4,4,0,0,1-.71.1,12.35,12.35,0,0,1-2.7-.08,2.82,2.82,0,0,0-.79,0,4,4,0,0,1-.61.2c-.87.16-1.82.34-1.71.61-.63.14.34.2.23.32-1,.17-2.26.06-3.32.18,0,.12.3.21.13.33l1.31.06c.17,0,.25,0,.22.08s-.22.06-.38.07l-.51,0c-2.3,0-4.6.12-7,.1a11.42,11.42,0,0,0,2.38-.21l-.59-.26a2.1,2.1,0,0,0-.7-.07l-.86,0a16.33,16.33,0,0,1-2.44,0c.13-.19,1-.21,1.46-.33-.27-.19-.27-.19-1.41-.26l.18-.15c-.28,0-.56-.07-.87-.08s-.3-.14-.76-.1.08.15-.26.2c-.6.12-1.55.13-2,.29h0c-.35.12-.57.23.07.34.43.07.36.22-.12.27a7.5,7.5,0,0,0-1.79.42l1.48,0c.14,0,.29,0,.22.08-.33.06-.82,0-1.1.1a1.44,1.44,0,0,0,.68.06c1.89,0,3.79-.06,5.67-.13,3.21-.13,6.42-.24,9.64-.29,1.14,0,2.29,0,3.44-.1a8.49,8.49,0,0,1,1,0,37,37,0,0,0,4.09-.11,1.15,1.15,0,0,0,.55-.12s-.46-.05-.15-.09c.47,0,.7-.13.53-.2S195.72,106.35,195.36,106.3Zm18.62-.92h.11l0,0Zm-1-1.3h.11l0,0Zm-.23-.32s0,.06.23,0c0,0,.05,0,.07,0Zm-.37,0a.71.71,0,0,0,.32,0s0-.06-.22-.05Zm-.94,1.9a1.9,1.9,0,0,0-.25,0c-.15.07-.5.13-.37.21H211a2.31,2.31,0,0,0,.86,0C211.94,105.68,211.61,105.66,211.43,105.63Zm-9.08-1.14.09,0a.12.12,0,0,0-.07,0,.28.28,0,0,0-.13,0C202.18,104.48,202.22,104.49,202.35,104.49Zm-.74-.25s.06,0,.09,0l.12,0s0,0,0,0S201.61,104.21,201.61,104.24Zm-1.69.25,1,0a.76.76,0,0,0,.25,0s0,0-.11,0A4,4,0,0,0,199.92,104.49Zm-.36-.2s.2,0,.37,0,.3,0,.28-.08a.91.91,0,0,0-.4,0C199.63,104.22,199.54,104.25,199.56,104.29Zm-1.31.84,0,0h-.14c-.09,0,0,0,.09,0Zm5.23,1.82a6.89,6.89,0,0,0-1.37,0l-1.23,0A14.32,14.32,0,0,0,203.48,107Zm10.88-.87a6.55,6.55,0,0,0-2.34-.14l-1.7.09c-.21,0-.46,0-.49-.06.17-.09.76-.07.94-.15l-1.41-.15a1.5,1.5,0,0,1,.51-.07h1.29c.24-.12.18-.16-.22-.18a7.12,7.12,0,0,1-1.05,0c-.21-.07.23-.13-.1-.19l-2.27,0c.17,0,.58,0,.65-.12a13.67,13.67,0,0,0-1.92-.34c-1,.07-1.92,0-2.89,0l0,.19c-.69,0-.95-.14-1.56-.15a3.53,3.53,0,0,1-.78.08l-.21-.13c-1.43.08-1.52.11-1.36.36,0,.06,0,.12.24.17.89.15,2,.22,3.1.3l-.27.16h.84a4.38,4.38,0,0,1,.77.06c.18.12.13.25,0,.37-1.32.13-1.32.13-.9.36l-1.94.06c-.45-.06-.14-.16-.54-.21a14.81,14.81,0,0,0-1.6.06c-.06.09,0,.19-.33.27a12.09,12.09,0,0,0,2.88,0c.33,0,.68,0,1,0a33.09,33.09,0,0,1,3.31-.09h.16a7,7,0,0,1,1.68,0l1-.12c.36,0,.26-.15.83-.15a5.58,5.58,0,0,0,2.4-.09,3.19,3.19,0,0,1,.49,0l.83,0A1.91,1.91,0,0,0,214.36,106.08Zm-11.47,0a7.93,7.93,0,0,0-1.57,0A7,7,0,0,0,202.89,106.13Zm-.9.22-.11,0s0,0,0,0,.16,0,.17,0S202,106.36,202,106.35Zm14.13-.66h0Zm-1.05-.64h0Zm2,.82a9.2,9.2,0,0,0-1.3.07c-.22,0-.38.06-.39.11s.18.11.46.13a4.52,4.52,0,0,0,1.08-.08Zm.62-1.44h-.12c-.14,0-.19,0-.13,0h.14Zm.55-.5s0,0,0,0h-.13c-.08,0-.06,0,.06,0Zm23.92.11s.16,0,.32,0,.33,0,.28-.07a.71.71,0,0,0-.23,0A1.63,1.63,0,0,0,242.13,104Zm-.21-.84H242l-.09,0Zm-5.84.69.21,0h-.12C236,103.87,236,103.88,236.08,103.89Zm-8.42-.29.12,0,.06,0-.07,0Zm-3.93.14a.34.34,0,0,0,.2,0Zm-.14.07h.07l0,0Zm-3.65,1.73h-.11l0,0Zm10.31.16s0,0-.08,0a4.13,4.13,0,0,0-.94,0,3.58,3.58,0,0,0,.93,0S230.25,105.71,230.25,105.7Zm18.05-1.42a12.45,12.45,0,0,0-1.5,0c-.15,0-.21,0-.19,0s.5-.08.5-.15a5.49,5.49,0,0,0-1.09-.14,7.72,7.72,0,0,0-1.12-.17c-.51.14-1.62.18-1.74.41a6.6,6.6,0,0,0,1.63.07c.19,0,.47,0,.4.11-.72-.08-1.4.08-2.14,0s-1.55.15-2.29,0c0-.13.72-.1,1-.18a5.65,5.65,0,0,1-1.28-.13c-.17-.14.31-.26.37-.38a4,4,0,0,0-1.34,0,12.22,12.22,0,0,1-1.52.18c-.55,0-.88.15-.56.23s-.17.21.19.29a11.57,11.57,0,0,1,1.63,0c-1.16.12-2.38.07-3.56.12a.65.65,0,0,1-.19,0c0-.08.44-.08.53-.15-.24-.08-.7-.15-.6-.26a3.53,3.53,0,0,1,.79-.16c.19,0,.19-.09.14-.14a10.78,10.78,0,0,1-1.5.16A5.69,5.69,0,0,0,233,104c-.07.08,0,.18-.22.22a11.57,11.57,0,0,0-1.25.3,8.88,8.88,0,0,1-1.55.11c-.31.06-.14.16-.6.19a4.84,4.84,0,0,0-1.35-.51c.07-.08.51-.11.37-.18a8.61,8.61,0,0,0-1.14,0l-1.09,0a4,4,0,0,1-1.19.13l-.08,0,0,0H225a11.55,11.55,0,0,0-2.59-.06c-.47,0-1,.09-.93.24s-.06.12-.37.15-.48,0-.45.1-.48.22-.87.3c.12.12.87.09,1.07.19a5.11,5.11,0,0,1-1,.06c-.31,0-.65,0-.64.16l1.68,0c-.61.21-.21.38-.06.58a9.13,9.13,0,0,1,1.76.06,5,5,0,0,0,.8,0c.83,0,1.47-.22,2.4-.18a2.73,2.73,0,0,0,.53-.1,5.87,5.87,0,0,1,.84-.12c.16,0,.47,0,.7,0a16.79,16.79,0,0,0,2.84,0,11.56,11.56,0,0,1,1.58,0,2.19,2.19,0,0,0,.31,0,3.47,3.47,0,0,1,1.44-.13l.83,0a4.54,4.54,0,0,1,.74,0c-.34.06-.81,0-1.1.08a12,12,0,0,0,1.78,0,7.92,7.92,0,0,1,1.63-.08,1.15,1.15,0,0,0,.43,0,5.72,5.72,0,0,1,1.65-.15c.51,0,1,0,1.51,0,1.85.06,3.71,0,5.78-.08l-.88-.08c.09-.09.67-.12.68-.22s.7-.12.87-.19-.47-.14-.32-.24S248.28,104.37,248.3,104.28Zm14.92-1.66h.08l0,0Zm-3.67-.18.06,0,.08,0Zm-.16.26.09,0a.71.71,0,0,0,.39,0s-.11,0-.16,0C259.5,102.63,259.4,102.66,259.39,102.7Zm-.12.71s.06-.1-.22-.13S259.2,103.37,259.27,103.41Zm-1.54.64a1.9,1.9,0,0,0,.82,0A2.27,2.27,0,0,0,257.73,104.05ZM256,102.79a2.5,2.5,0,0,0,.4,0,1.84,1.84,0,0,0,.4-.07c.07,0-.14,0-.31,0S256,102.72,256,102.79Zm-5.15.78c.48.11.05.29.26.44,1.21,0,2.3.07,3.45,0,.36-.19.33-.22-.33-.27l-.93,0c-.1-.05.13-.13-.2-.17h-1A4.48,4.48,0,0,0,250.89,103.57Zm9.14,1.06a12.13,12.13,0,0,0-1.44-.12c.1-.1.67-.05.81-.16-1.42.06-2.5-.14-3.83-.1-.23-.06.07-.14-.22-.17-1.45-.06-2.82.08-4.25.14.19.11,1.06.1.91.26s-.79,0-1,.12c.13.09.68,0,.82.07-.31.06-1,0-1,.17a4.17,4.17,0,0,0,1.06.07c.49,0,.18.16.84.17.46,0,1.09,0,1.71,0A3.3,3.3,0,0,0,255,105a2.84,2.84,0,0,1,1.35-.15,5.49,5.49,0,0,1,1.65.1,2.37,2.37,0,0,0,.48,0c.56,0,1.15,0,1.61-.07C260.32,104.75,260.2,104.69,260,104.63Zm1,.2h0Zm2.63-.86a20.34,20.34,0,0,0-3.49.06c.51,0,1,0,1.54,0Zm1.12.31a13.33,13.33,0,0,0-1.73,0A11.58,11.58,0,0,0,264.78,104.28Zm1.12-.6s-.07-.18,0-.21-.38-.06-.55-.13c0,0,.32-.14-.14-.23l-1.83-.06c-.68,0-1.26.15-2,.11-.61.12-1.44.17-2.11.27-.16.06-.66.06-.66.15a2,2,0,0,0,1.13.22c.5,0,1,0,1.52,0,1.2,0,2.4-.09,3.59,0A2.92,2.92,0,0,0,265.9,103.68Zm5.62-1.2c.76,0,1.53,0,2.3,0a1.47,1.47,0,0,0,.21-.09A14.72,14.72,0,0,0,271.52,102.48Zm-.71.25h0Zm-.07.17a.28.28,0,0,0,.22,0l-.08,0h-.15S270.72,102.89,270.74,102.9Zm-.84-.37H270s0,0-.14,0S269.89,102.53,269.9,102.53Zm-.32,1.08a.75.75,0,0,0,.15,0c.13,0,.18,0,.15,0h-.26C269.49,103.58,269.48,103.6,269.58,103.61Zm-.24.21c0,.09.22.14.5.16a8.25,8.25,0,0,0,1,0c.47,0,.47-.09.38-.21C270.53,103.78,269.93,103.75,269.34,103.82Zm2.45.36a5.87,5.87,0,0,0-2.43,0l-.46.32a5.9,5.9,0,0,0,1.63-.06C270.88,104.32,271.47,104.28,271.79,104.18Zm.84-.4-.24,0a.76.76,0,0,0-.14,0l.16,0Zm2.26.15,2.13-.09c.19-.06.48-.1.45-.18a4.58,4.58,0,0,1-1.17-.14c.12-.18-.28-.32-.28-.48a4.1,4.1,0,0,0-1.11-.07,10.4,10.4,0,0,1-1.47,0,20.29,20.29,0,0,0-2.62.12c-.07,0-.09,0-.17.07l1.35.08c0,.35,0,.35,1.52.33l.32,0c0,.08-.79.16-.29.25s0,.17,0,.25a8.16,8.16,0,0,1,.9.12,6.36,6.36,0,0,0,2.71,0c0-.06-.36,0-.47-.08l.27,0a1.27,1.27,0,0,0,.41-.06A10.7,10.7,0,0,0,274.89,103.93Zm5.31-1.64s-.06,0-.18,0l.05,0Zm9.8-.48h.11l-.05,0Zm-5.29,1.32h.23C284.86,103.11,284.79,103.08,284.71,103.13ZM282,102l.06,0,.07,0Zm-.06.27a17.62,17.62,0,0,0,2,0A11.21,11.21,0,0,0,282,102.3Zm-.37.67a.88.88,0,0,0,.22,0,1.64,1.64,0,0,0,.26,0s-.13,0-.27,0S281.58,102.94,281.61,103Zm0,.35.17,0a.44.44,0,0,0-.27,0Zm4.7.62s0,0,0,0a13.29,13.29,0,0,0-2.69.06c.72.1,1.66,0,2.47.1Zm2,.11h0Zm2.88-.41a30.84,30.84,0,0,0-3.15,0l.78,0c0,.07-.61,0-.45.12a4.63,4.63,0,0,0,2.18-.08C290.5,103.68,291.18,103.72,291.2,103.64Zm.39-.15a5.19,5.19,0,0,0-1.63-.06c-1,0-1.92,0-2.88,0-1.13,0-2.27,0-3.76.1a13.58,13.58,0,0,0,2.75.13c1-.08,2-.1,3.06-.12l1.19,0C290.73,103.53,291.18,103.54,291.59,103.49Zm.22-.47-.63-.09.53-.14a8.31,8.31,0,0,0-1.57-.08,13.84,13.84,0,0,1-2.13.05,11.61,11.61,0,0,0-2.29.11c0,.06.08.1.08.15s-.08.11-.83.11a2.56,2.56,0,0,1-1.74-.11c-.33,0-.26.1-.52.14a4.21,4.21,0,0,0-.83.12,26.61,26.61,0,0,0,3.32.13q1.82,0,3.54-.18a7.22,7.22,0,0,1,1.47,0,5.82,5.82,0,0,0,.59,0A2.43,2.43,0,0,0,291.81,103Zm4.58-.13a1.4,1.4,0,0,0-.46,0c-.08,0-.16.05-.13.06a.81.81,0,0,0,.42,0A.56.56,0,0,0,296.39,102.89Zm10.19-.4s-.06,0-.1,0a.49.49,0,0,0-.26,0l.1,0A.44.44,0,0,0,306.58,102.49Z"/><path d="M162,107.09h0Z"/><path d="M120.38,106.81h0Z"/><path d="M94.19,106.6c-.58-.06-1,0-1.45,0-.14,0-.22,0-.25.06A11.19,11.19,0,0,0,94.19,106.6Z"/><path d="M307.9,102.14s.06,0,.13,0,.48-.06.47-.1l-.25,0C308.06,102.07,307.91,102.1,307.9,102.14Z"/><polygon points="261.21 101.95 261.19 101.96 261.36 101.96 261.21 101.95"/><path d="M307.88,102.4l-.53.09H308s.15,0,.13,0A.73.73,0,0,0,307.88,102.4Z"/><polygon points="104.02 106.31 103.88 106.31 103.9 106.33 104.02 106.31"/><path d="M308.48,101.89l.13,0-.35,0h-.1A.6.6,0,0,0,308.48,101.89Z"/><path d="M308.17,102.72s0,0,.06,0,.09,0,.09,0,0,0-.06,0S308.17,102.71,308.17,102.72Z"/><polygon points="305.38 103.5 305.48 103.5 305.44 103.47 305.38 103.5"/><path d="M306.8,103.48l.12,0,.13,0h-.25Z"/><path d="M301.85,103.93c-.12,0-.12,0,0,0H302s0,0,0,0A.66.66,0,0,0,301.85,103.93Z"/><path d="M224.94,104.19Z"/><path d="M224.94,104.19Z"/><path d="M223.46,105l3.2,0a.42.42,0,0,1,.17.05c-.25.11-.86,0-1.2.12a7.48,7.48,0,0,1,1.16.3,21.85,21.85,0,0,0,2.29,0l1.45-.34c-.81,0-1.73,0-2.48-.14a10.42,10.42,0,0,1,1.35-.16A29.66,29.66,0,0,0,223.46,105Z"/><path d="M230.55,105.09h0Z"/><path d="M240.6,104.7l1,.12a2.91,2.91,0,0,0,.82-.19A11.48,11.48,0,0,0,240.6,104.7Z"/><path d="M238.6,104.68l-.5,0c-.21,0-.43.06-.32.11a1.65,1.65,0,0,0,.39,0c.46,0,.73,0,.73-.09S238.8,104.68,238.6,104.68Z"/><path d="M233.55,105.23c1.63,0,1.63,0,2-.21l-1.11.15A5,5,0,0,0,233.55,105.23Z"/><path d="M231.8,104.62c-.18,0-.37,0-.36.07s.27.06.49,0,.35,0,.34-.06S232,104.63,231.8,104.62Z"/><path d="M225.38,104.66c.16,0,.31,0,.35,0a.63.63,0,0,0-.32,0c-.17,0-.31,0-.25.07A.57.57,0,0,0,225.38,104.66Z"/><path d="M231.37,105a3.05,3.05,0,0,0-.8,0l0,.08C230.86,105.07,231.25,105.11,231.37,105Z"/><polygon points="230.54 105.09 230.59 105.1 230.59 105.08 230.54 105.09"/><path d="M236.6,104.79a.76.76,0,0,0-.25,0s0,0,.15,0a1.17,1.17,0,0,0,.26,0S236.73,104.78,236.6,104.79Z"/><polygon points="234.01 104.87 233.92 104.86 233.94 104.88 234.01 104.87"/><polygon points="242.42 104.91 242.49 104.89 242.35 104.89 242.42 104.91"/><path d="M223.46,105.17l-.13,0,.07,0h.15C223.65,105.18,223.61,105.17,223.46,105.17Z"/><path d="M189.71,106.34c1.49,0,1.49,0,1.78-.24A17.18,17.18,0,0,0,189.71,106.34Z"/><path d="M172.19,106.69a11.6,11.6,0,0,0,1.28-.07C172.48,106.56,172.48,106.56,172.19,106.69Z"/><path d="M189.56,106.82c-.18,0-.29,0-.21.08l.29,0c.17,0,.34,0,.33-.06S189.74,106.8,189.56,106.82Z"/><polygon points="173.78 107.31 173.8 107.28 173.68 107.3 173.78 107.31"/><path d="M189.31,105.66Z"/><path d="M189.49,105.65s0,0,0,0h0Z"/><path d="M171.26,106.38l-.07-.14C171.1,106.28,171,106.32,171.26,106.38Z"/><path d="M189.67,105.54a.48.48,0,0,0-.2,0s0,0,0,0l.22,0C189.8,105.57,189.78,105.54,189.67,105.54Z"/><polygon points="175.65 106.21 175.54 106.22 175.63 106.23 175.65 106.21"/><polygon points="188.63 106.21 188.74 106.19 188.63 106.19 188.63 106.21"/><path d="M163.52,107c.12,0,.2,0,.18,0l-.61-.08c0-.06.35-.11.17-.18a3.26,3.26,0,0,0-.82-.15c-.59,0-1.08.08-1.65.14.49,0,1,0,1.3.06,0,.12,0,.22,0,.33C162.55,107.07,163,107,163.52,107Z"/><polygon points="162.01 107.09 162.06 107.1 162.06 107.08 162.01 107.09"/><path d="M165.67,106.82a6.08,6.08,0,0,0,1.28,0c.21,0,.23-.07.25-.12A9.31,9.31,0,0,0,165.67,106.82Z"/><path d="M148.85,107h-.14l.08,0H149C149.05,107,149,107,148.85,107Z"/><path d="M163.59,106.5h-.12l.06,0a.55.55,0,0,0,.13,0C163.75,106.51,163.72,106.5,163.59,106.5Z"/><polygon points="149.42 106.79 149.46 106.77 149.33 106.78 149.42 106.79"/><path d="M151.87,106.72h0Z"/><polygon points="152.69 106.77 152.68 106.8 152.8 106.78 152.69 106.77"/><path d="M101,108h.15l.36,0h-.34C101,107.94,100.94,108,101,108Z"/><path d="M91.66,107.26s0,0,.14,0l0,0-.08,0Z"/><path d="M89.47,107.51h0Z"/><path d="M89.69,107.5h-.22C89.54,107.52,89.62,107.55,89.69,107.5Z"/><path d="M97.54,107.58a.73.73,0,0,0-.2,0h.11C97.6,107.6,97.64,107.59,97.54,107.58Z"/><path d="M97.34,107.59h0Z"/><path d="M94.08,107.89h0l.43,0Z"/><path d="M121.65,107.8h.29a.32.32,0,0,0,.09,0h-.29Z"/><path d="M122,107.65a.57.57,0,0,0,.26,0l-.13,0Z"/><path d="M207,105.42a.67.67,0,0,0,.2.16c.15.08-.62.11-.22.2a6.6,6.6,0,0,0,1.07,0l-.27-.23A4.15,4.15,0,0,0,207,105.42Z"/><path d="M207.73,105.52h0Z"/><path d="M208,105.45a.32.32,0,0,0-.22,0,.06.06,0,0,0,0,.05l.2,0S208,105.45,208,105.45Z"/><polygon points="207.73 105.52 207.77 105.53 207.78 105.51 207.73 105.52"/><path d="M209.36,105.73v0S209.35,105.71,209.36,105.73Z"/><path d="M255.54,104.59h0Z"/><path d="M276.21,103.52l-.94.06A1.5,1.5,0,0,0,276.21,103.52Z"/><path d="M276.29,103.52h0Z"/><path d="M111.53,107.11s0,0,0,0h.12l0,0Z"/><polygon points="111.32 107.43 111.32 107.4 111.19 107.42 111.32 107.43"/><path d="M290.08,102.9s0,0,0,0l.15,0S290.21,102.87,290.08,102.9Z"/><path d="M133.11,107.82a1.23,1.23,0,0,0,.2,0l.26,0-.12,0C133.3,107.77,133.13,107.77,133.11,107.82Z"/><path d="M136.53,107.74l0,0h-.13l0,0Z"/><path d="M138.53,107a.86.86,0,0,0,.22,0,.9.9,0,0,0,.19,0l-.23,0Z"/><path d="M38.39,109.79h0Z"/><path d="M38.46,109.78h0Z"/><path d="M96,108.42l.12,0,.13,0-.13,0Z"/><path d="M93.79,108.62h0Z"/><path class="cls-1" d="M5.65,16.51c.11-.4.44-.17.65-.27L6.17,16a7.2,7.2,0,0,0-.68-.67,1,1,0,0,1,.18-1.66.43.43,0,0,1,.2-.52c-.21-.31.14-.83-.32-1-.29,0-.57-.31-.87-.05a.42.42,0,0,0-.07.65c.17.22.17.43-.08.58l0,.22c-.13.27.72.58,0,.84a1.44,1.44,0,0,1,0,.24c-.63.26-.3.73-.19,1.16h.17c.07-.12.12-.1.15,0a.15.15,0,0,0,0,.07H5c0-.07,0-.18.08-.18s.08,0,.08.07-.09.1-.15.11l-.1.44v.1c.14-.06.23-.42.41-.12s0,.44-.26.52-.27.22-.1.43c.35,0,.26.32.32.53l.1,0c.17-.22.22-.06.25.11.25.23-.09.27-.09.42l0,0,0,0c-.2,0-.47,0-.35.39.08.26,0,.5-.3.47v.27l.42.21a.21.21,0,0,1,.19-.24c.1-.18.22-.21.36,0s.16.3.34.2.21-.11.24,0,0,.29-.09.29c-.52,0-.48.63-.76.89a2.12,2.12,0,0,1-.2.12l-.15.05c0,.55.25,1.12-.1,1.64-.09.13,0,.29.13.41a.32.32,0,0,1-.07.51l.3,1h.16a.36.36,0,0,1,.33.4c0,.16-.18.12-.29.14,0,.6-.07,1.19-.07,1.81l0,0c-.06,0-.15,0-.15.08s-.19.06-.16.21c.32-.07.42.21.5.45A2.63,2.63,0,0,1,6,29.07a1.74,1.74,0,0,0-.07.84c0,.18-.21.1-.34.12l.12,1.77.25,0c.13-.13.26-.11.43-.06s.39-.08.35-.4l.1-.29c0-.16-.07-.36.13-.45l.1.3c.12,0,.25.2.34,0-.14-.11-.17-.23,0-.37l0-.44a2.26,2.26,0,0,1-1-.86c.24-.3.39-.71.8-.8A2.4,2.4,0,0,1,7,27.21c-.14,0-.31.05-.41,0s-.31.33-.36,0,.18-.22.34-.2.33,0,.07-.16c-.47-.27.16-.26.06-.51-.07,0-.18-.06-.2-.11s.1-.16.18-.21c-.08-.49.1-1-.16-1.49-.13-.27.22-.44.46-.54l-.22-2.42a.62.62,0,0,1-.23,0c-.21-.06-.55.35-.6-.07s.34-.07.51-.14.07-.14.11-.22a5.15,5.15,0,0,0,0-2.14c0-.21.28-.57-.13-.71A2.41,2.41,0,0,1,5.65,16.51Zm.71,2.31-.11.08s0-.07,0-.1,0,0,.08-.06ZM6.3,22.88s0,0,0,.05S6.26,22.91,6.3,22.88Z"/><path class="cls-1" d="M11.23,105.42a15.15,15.15,0,0,0,.28,2.69c.67.07.33.69.45,1,.2.07.44,0,.27.46a2.28,2.28,0,0,0,0,.91c.1.25.79-.58.5.36,0,.14,0,.33.19.33s.27.12.23.25a.58.58,0,0,1-.28.3c-.2.08-.12-.16-.18-.23a2.31,2.31,0,0,0-.42-.34c-.15.09-.05.41-.29.41.37.18-.07.93.42.89.25,0,.52-.33.81-.47s.33-.71.25-1.14c0-.19-.15-.37-.18-.57s-.24-.4-.06-.55.14.36.38.25a1,1,0,0,0,0-1c-.39,0-.68-.06-.38-.61.23-.4-.34-.85,0-1.25V107l-.14-.26a1.1,1.1,0,0,1-.23-1.48.91.91,0,0,1-.32-1.11V104s-.08,0-.09.08c-.13.27-.28.46-.56.21-.07-.07-.16-.26,0-.23.28.06.33-.81.75-.21,0-.17,0-.41.23-.43l0-.29c-.15,0-.27.24-.41,0a.36.36,0,0,1,.05-.46l0-.19c-.07-.37-.34-.38-.59-.41a.3.3,0,0,1-.28-.29.25.25,0,0,1,.09-.2c.15-.07.19.07.26.19.24.4.45-.38.69,0,.24-.11.2-.34.19-.56h-.16c-.17,0-.37.36-.48,0s.11-.45.39-.42l0-.33-.28-.45a.54.54,0,0,0-.61,0c-.09.06-.19.06-.22-.09s.09-.21.21-.25l-.14-.24-.37,0c.06.42-.06.91.43,1.16.19.09.1.26-.08.3s-.29,0-.35.19a3.12,3.12,0,0,0,0,2.27A1.6,1.6,0,0,1,11.23,105.42Zm1.44,4.74s.05-.1.07-.15.1.07.11.11,0,.11-.06.2C12.73,110.25,12.68,110.21,12.67,110.16Z"/><path class="cls-2" d="M9.43,61c.07-.36-.17-.51-.39-.67s-.39,0-.31-.29.28-.2.46-.17a4.53,4.53,0,0,0,.53,0v-.83c-.18,0-.42.12-.42-.25s-.12-.41-.37-.38-.14.37-.36.22a.38.38,0,0,1-.17-.26c0-.29.25-.12.37-.19A.64.64,0,0,0,9,58.12c.11-.11.15-.42.31-.32s-.07.36,0,.56l.34,0A6.56,6.56,0,0,0,9.19,56c-.37.15-.79.26-.43.89a.23.23,0,0,1-.09.33c-.16.06-.21-.07-.25-.22L7.81,57l-.08.22L7.55,57a1.42,1.42,0,0,0,.24,1.44c.24.1.52.31.32.56-.41.49.33,1.25-.35,1.61A4,4,0,0,1,7.94,62c.42,0,.51.29.4.59a.57.57,0,0,0,.09.6c.37-.09.07-.53.28-.73s-.3-.28-.05-.4.32.14.46.27a.31.31,0,0,1,.06.45c-.15.26-.25.56.15.75.24.12.09.37,0,.52S9.1,64.08,9,64s-.37-.43-.66-.36l-.1.15c.49.22.34.72.42,1.14,0,.16-.11.54.34.4.11,0,0,.48-.15.5s-.22.19-.2.37v.14c-.08.25-.23.57.25.43.25-.15.25-.15.35.06s.12.21.19.23c.26,0,.16-.32.33-.4,0-.38.26-.81-.22-1.1-.12-.08,0-.33.07-.32s.2-.48.43-.12c.11,0,.13-.07.1-.22A2.89,2.89,0,0,1,10,63.34c-.89,0-.22-.64-.31-1s.28-.7.17-1.1C9.62,61.4,9.29,61.71,9.43,61Zm-.52-1.56-.1.08s-.05-.07,0-.1.05,0,.07-.06Z"/><path class="cls-3" d="M3.56,3.58c.16-.5-.24-1.06.11-1.54-.54-.35-.17-1-.37-1.44a.24.24,0,0,1,0-.28C3.48,0,4.49-.14,4.64.17a.82.82,0,0,0,.65.49c.3.07.6.21.15.57a.29.29,0,0,0-.07.23,4.81,4.81,0,0,1,.07,1.65c.1,1.26.13,2.52.18,3.79H5.35c0-.1,0-.19-.14-.2a2.54,2.54,0,0,0,.07-.58c0-.37.2-.85-.21-1.12a2.87,2.87,0,0,1-.64-1.68s.08-.1.12-.09c.38,0,.18-.2.09-.3a2.25,2.25,0,0,0-.39-.3c-.07-.06,0-.27-.12-.24S4,2.54,4,2.7C3.92,3,4.05,3.5,3.56,3.58Z"/><path class="cls-2" d="M8.85,75.13c.05-.34,0-.72.27-1,.05.09.15.2.13.27-.07.26-.19.51.13.68s.38-.1.54-.26.12-.5-.1-.71-.21-.36-.11-.48c.31-.41,0-.56-.22-.78,0-.15,0-.34-.19-.36,0,0-.12.07-.12.1,0,.19.2.18.31.26l-.59.46c-.51-.23-.23-.61-.15-1,.17,0,.32,0,.33-.28a2.17,2.17,0,0,1,.36,0c.34.09.26-.31.41-.44s.07-.12,0-.14-.25.1-.35.26-.28,0-.43.06c.16-.15-.14-.51.2-.57.05,0,.08.18.16,0l-.16,0c-.1-.18-.4,0-.4-.28,0-.09.23-.17.36-.26a.22.22,0,0,0,.23-.16l.11,0,0,.12c.21.2.47.84.56-.07,0-.06.15-.09.23-.14,0,.38-.13.8.26,1.12.05,0-.21.58-.2.93-.14.11-.15.23-.16.44,0,.61.36,1.22,0,1.83.39.21,0,.66.23.89a.54.54,0,0,1,.13.73c-.22.42,0,.59.36.57v.67c-.24,0-.37.19-.53.33-.34-.28-.66-.58-.91.1,0,.08-.14,0-.19,0,.22-.29-.15-.64,0-.88.43-.55,0-.41-.26-.46v-.15a.22.22,0,0,0,.2-.26c.17,0,.22-.15.23-.31H9.8c0-.16-.12-.12-.22-.12C9.37,75.6,9.29,75.15,8.85,75.13Z"/><path class="cls-3" d="M4.63,11.17a.45.45,0,0,1,.16-.4c.23-.21.45-.47.76-.13.49.53-.17.61-.26.91l.26.52c.46.22.11.74.32,1l.31,0c-.06-.31.25-.7,0-.91s-.3-.58-.26-.93a13.77,13.77,0,0,0-.23-4.1c-.15,0-.29,0-.37.18l0,.26.13.13c.06,0,.07.07,0,.12,0,.87-.13,1-.68.71H4.72c.27-.79-.81-.92-.66-1.68.06-.31.05-.73-.41-.78,0,.21-.33.46-.13.52.37.1.2.33.23.53a18.13,18.13,0,0,1,.18,2.23c0,1.09.26,2.2.28,3.31,0,.22-.07.58.32.57s.25-.36.08-.58A.42.42,0,0,1,4.68,12C4.54,11.75,4.37,11.47,4.63,11.17Zm.72-1.42c-.13,0-.37-.06-.31-.28s.2-.55.34-.57,0,.25.1.35S5.75,9.74,5.35,9.75ZM4.22,9.2c0-.14,0-.39.18-.42A.23.23,0,0,1,4.66,9a3.21,3.21,0,0,1-.1.53C4.41,9.39,4.23,9.31,4.22,9.2Zm.92.76,0,.08h0C5.11,10,5.13,10,5.14,10Z"/><path class="cls-2" d="M10.64,98.11a1.46,1.46,0,0,0-.12-1,5.72,5.72,0,0,1-.14-1.87c0-.31-.18-.64,0-1l.34,0c.17.06.43.22.47,0,.14-.64.77-.61,1-1.06a1.14,1.14,0,0,1-.16.63.14.14,0,0,1,0,.06c-.16,0-.37-.05-.43.21s0,.34.23.35l.05,0-.05,0c-.13-.28.24-.32.2-.56l.06,0c.39.25.05.61.13.91a.85.85,0,0,0,0,1.21c.1.11.23.18,0,.34s-.18.53-.05.82c-.22.44-.56.27-.88.19-.08,0-.2-.1-.25.05s.06.2.16.25v.15C11,97.77,10.91,98.18,10.64,98.11Z"/><path class="cls-1" d="M7.32,51a.84.84,0,0,1-.26-.9,1.25,1.25,0,0,0,0-1.47c.15-.11.17-.3.22-.47l-.12-.27.33.07c0,.51.43.82.43,1.31s0,.67.43.74c0,0,0,0,0,.06l-.11.21c-.44,0-.36.32-.3.59a22.39,22.39,0,0,0,.31,2.69c.18.54.07.58.51.28.13-.09.28-.15.42-.23-.05.53.23,1.11-.2,1.57a1.23,1.23,0,0,1-.13-.29c0-.16.2-.42-.07-.48-.11,0-.28.26-.39.43a1.05,1.05,0,0,0,0,.4c0,.11,0,.23-.09.29s-.22,0-.29-.14-.37-.2-.38-.48a1.33,1.33,0,0,1-.36-1.18,2.81,2.81,0,0,0,.19-1.79c.1,0,.23,0,.21-.15s-.18-.06-.27-.09C7.75,51.39,8.15,51.09,7.32,51Z"/><path class="cls-1" d="M5.32,7.6l.13.13v.12c0,.87-.13,1-.68.71H4.72c.27-.79-.81-.92-.66-1.68.06-.31.05-.73-.41-.78.18-.24,0-.63.31-.82.26.2.6,0,.59-.15C4.5,4.79,4.21,5,4,5a.25.25,0,0,0-.12,0c-.36-.23,0-.69-.26-1a.31.31,0,0,0-.09-.46C4.05,3.5,3.92,3,4,2.7c0-.16.1-.29.18-.3s0,.18.12.24a2.25,2.25,0,0,1,.39.3c.09.1.29.33-.09.3,0,0-.1,0-.12.09A2.87,2.87,0,0,0,5.07,5c.41.27.19.75.21,1.12a2.39,2.39,0,0,1-.07.57c-.09.2,0,.19.14.21h.27l0,.26c-.15,0-.29,0-.37.18s-.16.07-.16.11S5.23,7.59,5.32,7.6Z"/><path class="cls-1" d="M12,92H11.9a8.27,8.27,0,0,1-.84-.28.72.72,0,0,1-.24-1.25c.06-.06.15-.1.17-.17a.41.41,0,0,1,.68-.07c.07.1.07.1-.19.18s-.28,0-.27.23.15.11.23.17c.12.35.41.3.65.37a2.22,2.22,0,0,0,0-1.25c-.37.2-.49-.2-.7-.38l.22-.23.08-.44h-.09c-.41.29-.82-.09-1.23,0v.26s0,0,.06,0c.14.17.54.1.49.33s-.41,0-.62.07l-.25.18a7.27,7.27,0,0,0,.27,1.86v.27h.25l.06-.06,0,.08V92c0,.09.14.2-.05.21l-.1.28,0,0,0,0c.28.16.28.63.72.72.22,0-.13.66-.29,1,0,0-.08.09-.12.13.17.06.43.22.47,0,.14-.64.77-.61,1-1.06A1.4,1.4,0,0,0,12,92Zm-1.42-1.68-.2,0s.07-.06.1-.06a.62.62,0,0,1,.18,0S10.64,90.35,10.62,90.35Z"/><path class="cls-3" d="M9.08,72.11c0,.25-.16.28-.33.28l-.05-.22V72a2.41,2.41,0,0,1-.13-1.31.88.88,0,0,0-.1-.68,1.51,1.51,0,0,1-.17-.79,3.39,3.39,0,0,0-.2-2.45c-.09-.29.08-.49.06-.73l-.29-3.7c0-.14-.07-.27.07-.36.42,0,.51.29.4.59a.57.57,0,0,0,.09.6c-.15.11-.11.28-.11.43l-.1.15c.49.22.34.72.42,1.14,0,.16-.11.54.34.4.11,0,0,.48-.15.5s-.22.19-.2.37-.1.1,0,.14c-.08.25-.23.57.25.43l0,.2c-.17.23-.3.46-.06.73-.26.27-.62.54,0,.8l.05.39c-.28.11-.16.36-.15.57s.21.24.37.25c-.39.39-.24.74.08,1.07-.13.09-.36.17-.36.26,0,.24.3.1.4.28-.34.06,0,.42-.2.57Z"/><path class="cls-1" d="M9.93,86.61c-.23-.18-.37-.38-.17-.68.21.15.43.29.65.08s-.15-.25-.09-.42c-.41-.19-.18-.33,0-.48s.26-.34-.07-.43c.05-.39.35-.35.58-.44s.39.34.61.48a.86.86,0,0,1,.26.9,1.08,1.08,0,0,0,0,.69c-.13.25-.58,0-.56.45s.29.23.47.27v.27a3,3,0,0,0-.52,0c-.11,0-.15.14-.14.25s.08.18.16.11.21-.34.36-.1c0,.06-.17.3-.26.46s-.15.08,0,.17l0-.18c.49.07.42.41.31.78-.39.14-.62-.39-1-.32.17-.6-.14-.57-.5-.5.05-.24-.22-.41-.11-.66.41,0,.75-.28.67-.68-.11-.56-.35.2-.56,0A.21.21,0,0,0,9.93,86.61Z"/><path class="cls-1" d="M6.38,36.22l0-.22.09-.44V35.4h.1c.06.09.12.13.2,0s0-.05,0-.06-.14,0-.21,0a.47.47,0,0,1,.2-.51.44.44,0,0,0-.1-.83c-.44.06-.45-.29-.59-.54l.37-1c0-.14,0-.42.23-.36s.08.36.15.43-.34.63.17.72c0,.18.06.39.28.4,0,.15,0,.31.16.4.06.32.11.65.19,1,.15.64-.29,1.23-.07,1.87l-.27,0c0-.16,0-.33-.17-.4s-.32,0-.31.29l-.36-.09Z"/><path class="cls-1" d="M9.4,78.07c0,.07.16.12.19,0,.25-.68.57-.38.91-.1v.26l-.35,0-.06,0,.06,0c.14.21-.1.73.41.65,0,.38.46.69.14,1.14,0,.06.11.32.31.32l.07.39c-.27.2-.35.71-.8.64,0,0,0,.09-.07.14.72.25-.14.44,0,.66h-.12c-.69-.64-.11-.84.28-1.11l0-.06,0,.06c-.06-.13-.13-.38-.2-.38-.88,0-.36-.54-.34-1s.16-.92-.25-1.26c-.11-.18-.42-.13-.41-.45Z"/><path class="cls-3" d="M11.63,99.67l-.14-.24c-.12-.61-.5-.57-.9-.48-.16-.19.07-.19.1-.29a.78.78,0,0,0,1-.76.94.94,0,0,0,.85-.06c.29.12.1.25,0,.38-.07-.08-.16-.09-.17,0s.13.12.22.12c.42.3.18.79.19,1.14,0,.56.26,1.16,0,1.72h-.16l-.09-.39c.2-.14.09-.24,0-.34l-.28-.45c.16,0,.33-.09.29-.34a.47.47,0,0,0-.28-.32C12,99.22,11.81,99.49,11.63,99.67Z"/><path class="cls-2" d="M7,33.32c-.51-.09,0-.5-.17-.72s0-.38-.15-.43-.18.22-.23.36l-.37,1-.22-.1,0-.15c.32-.47.07-1,.13-1.5.13-.13.26-.11.43-.06s.39-.08.35-.4h.12c.17,0,.24-.12.2-.31a.25.25,0,0,1,0-.12c.12,0,.25.2.34,0h.13a7,7,0,0,1,.2,2.32C7.46,33.06,7.16,32.85,7,33.32Z"/><path class="cls-1" d="M6.76,44.5c0-.16-.49-.11-.15-.43s-.14-.4-.06-.62c.46-.1.35-.38.15-.67a.54.54,0,0,1,0-.67c.15-.21.33-.31.56-.12,0,.29.23.54.16.85a1.74,1.74,0,0,0,.21,1.82l0,.06c-.42.42.26,1-.1,1.39-.21,0-.44,0-.57-.27.15,0,.17-.09.13-.27A3.89,3.89,0,0,0,6.76,44.5Z"/><path class="cls-3" d="M7,33.32c.17-.47.47-.26.75-.16.16.29.42.48.1.93s.09.93.1,1.43a7.06,7.06,0,0,0,.18,2c.09.29.09.49-.25.48s-.33-.25-.29-.52l0-.56c-.22-.64.22-1.23.07-1.87-.08-.33-.13-.66-.19-1,.05-.09.15-.18.14-.25s-.18-.15-.3-.15S7,33.5,7,33.32Z"/><path class="cls-3" d="M10.35,81.13c-.39.27-1,.47-.28,1.11L10,82.8c-.08.15-.16.31-.35.28-.33-.23-.12-.58-.14-.86A21.58,21.58,0,0,1,9.29,79a.57.57,0,0,1,.27-.46c.41.34.27.84.25,1.26s-.54,1,.34,1C10.22,80.75,10.29,81,10.35,81.13Z"/><path class="cls-2" d="M9.21,53.59c-.14.08-.29.14-.42.23-.44.3-.33.26-.51-.28A22.39,22.39,0,0,1,8,50.85c-.06-.27-.14-.62.3-.59a1.49,1.49,0,0,1,.29,1.65c-.12.41,0,.7.46.59C8.86,52.91,9.22,53.21,9.21,53.59Z"/><path class="cls-2" d="M7.58,46.11c.36-.43-.32-1,.1-1.39l0-.06a1.74,1.74,0,0,1-.21-1.82c.07-.31-.11-.56-.16-.85a1.32,1.32,0,0,1,1,.65L8.09,43c-.24.14-.2.34-.14.61s.08.74.13,1c.1.58-.26,1.14,0,1.68l-.51-.11A.36.36,0,0,0,7.58,46.11Z"/><path class="cls-2" d="M7.74,39.18c-.36.2-.7.37-.8-.33,0-.23-.18-.07-.27-.05a.88.88,0,0,0,.14,1c.45.6.12.76-.31.93v.13c.25.4.4,1.07,1,.38.1-.12.31-.14.47-.2,0-.36,0-.72-.07-1.07s0-.41.22-.45L8,39.11A1,1,0,0,0,7.74,39.18Zm-.25,1.16s0,0,0,.07S7.45,40.38,7.49,40.34Z"/><path class="cls-3" d="M12,111.61c.37.18-.07.93.42.89.25,0,.52-.33.81-.47s.33-.71.25-1.14c0-.19-.15-.37-.18-.57s-.24-.4-.06-.55.14.36.38.25c.45.61,0,1.44.45,2.07.13.21-.22.18-.26.36s-.37-.55-.44.06c-.36.23-.54.77-1,.73,0-.12,0-.28-.13-.36s-.8-.13-.27-.69a1.19,1.19,0,0,1-.2-.28,1,1,0,0,1,.07-.94C12.23,111,11.78,111.44,12,111.61Z"/><path class="cls-3" d="M13.71,113.27a.48.48,0,0,0,.25.36.72.72,0,0,1,.4.92,1.28,1.28,0,0,1-.88.64c-.73.12-1-.23-.91-1,0-.19-.17-.42-.27-.64a.52.52,0,0,1,.8,0c.22.26.09.51-.14.72s-.21.4.06.36.47.12.69,0,.32-.13.32-.35-.15-.31-.32-.33-.32,0-.32-.29S13.5,113.29,13.71,113.27Z"/><path class="cls-3" d="M8.11,46.33c-.29-.54.07-1.1,0-1.68C8,44.36,8,44,8,43.62s-.1-.47.14-.61c.64.42.36,1.16.43,1.74a6.66,6.66,0,0,0,.35,2.59l-.15.09c-.19-.12-.44-.54-.47.14,0,.22-.2.36-.3,0C8,47.15,8.48,46.82,8.11,46.33Z"/><path class="cls-3" d="M11,77c-.38,0-.58-.15-.36-.57a.54.54,0,0,0-.13-.73c-.23-.23.16-.68-.23-.89.32-.61-.05-1.22,0-1.83,0-.21,0-.33.16-.44a3,3,0,0,1,.43,1.8A3.19,3.19,0,0,0,11,75.63,4,4,0,0,1,11,77Z"/><path class="cls-3" d="M12.85,103.41l0-.29-.36-.41,0-.19.21-.62c.62.31.48,1,.54,1.54a28.38,28.38,0,0,1,0,3.06l-.1.28a1.1,1.1,0,0,1-.23-1.48c.09-.44.27-.91-.32-1.11V104l0-.14h.16l.1,0-.05-.1Z"/><path class="cls-3" d="M7.14,28.37A2.4,2.4,0,0,1,7,27.21a1.1,1.1,0,0,0-.3-.82l0-.42c-.08-.49.1-1-.16-1.49-.13-.27.22-.44.46-.54a24.79,24.79,0,0,1,.34,4.47Z"/><path class="cls-3" d="M6.67,38.8a.88.88,0,0,0,.14,1c.45.6.12.76-.31.93a6.92,6.92,0,0,1-.23-3.1c.07-.26-.21-.4-.18-.6s-.16-.71.29-.79l.06.57.17.93Z"/><path class="cls-3" d="M5.52,18.2c-.2,0-.47,0-.35.39.08.26,0,.5-.3.47a7.08,7.08,0,0,1-.46-3.35h.18l.14,0a.15.15,0,0,0,0,.07c-.06.2-.12.39.16.43v.1l.15.4c-.23.08-.27.22-.1.43s-.21.51.05.71c.08.06.21-.06.27-.18l.1,0,.25.11C5.85,18,5.51,18.05,5.52,18.2Z"/><path class="cls-3" d="M6.49,40.84c.25.4.4,1.07,1,.38.1-.12.31-.14.47-.2,0,.19.18.12.28.12v.27c-.26-.06-.35.29-.57.31l-.07-.17,0,0,.1.14c.18.22.4.06.6.09.32.25.38.52.08.82a1.32,1.32,0,0,0-1-.65c-.23-.19-.41-.09-.56.12a.54.54,0,0,0,0,.67c.2.29.31.57-.15.67a10.06,10.06,0,0,0-.23-2.05A.47.47,0,0,1,6.49,40.84Z"/><path class="cls-2" d="M8,47.56c.1.37.29.23.3,0,0-.68.28-.26.47-.14-.22.13,0,.33-.05.49-.16,0-.36.13-.29.23.34.47-.11.85,0,1.28-.17.24,0,.24.14.25.22.22,0,.29-.1.37s0-.06,0-.06c-.39-.07-.43-.39-.43-.74s-.47-.8-.43-1.31l-.33-.07-.27-.51-.15-.27L7.07,47C7.18,47.63,7.54,47.64,8,47.56Z"/><path class="cls-2" d="M7.65,54.89c0,.28.26.31.38.48s.15.22.29.14.09-.18.09-.29a1.05,1.05,0,0,1,0-.4c.11-.17.28-.45.39-.43.27.06,0,.32.07.48a1.23,1.23,0,0,0,.13.29c.2.11,0,.24,0,.36s-.2.44-.41.4c-.8-.18-.75.45-.78,1-.17,0-.12-.35-.34-.36.09-.47-.17-.89-.17-1.36S7.49,54.94,7.65,54.89Z"/><path class="cls-3" d="M8.34,49.43c-.07-.43.38-.81,0-1.28-.07-.1.13-.23.29-.23A20.27,20.27,0,0,1,8.8,50.5,5.28,5.28,0,0,0,9,51.8a1.38,1.38,0,0,1,0,.7c-.46.11-.58-.18-.46-.59a1.49,1.49,0,0,0-.29-1.65l.11-.21c.15-.08.32-.15.1-.37Z"/><path class="cls-1" d="M6.67,38.8l-.06-1.08.25,0c0,.15.06.28.22.24s.13-.18.12-.31a1,1,0,0,1,.38-.09c0,.27,0,.51.29.52A1.75,1.75,0,0,1,8,39.11a1,1,0,0,0-.28.07c-.36.2-.7.37-.8-.33C6.91,38.62,6.76,38.78,6.67,38.8Z"/><path class="cls-2" d="M10,82.8l.11-.56h.12l.05,0-.05,0c-.13-.22.73-.41,0-.66,0,0,.05-.14.07-.14.45.07.53-.44.8-.64.14,0,.13.14.14.25-.18.16-.1.38-.1.58s-.4.28-.06.33.15.32.25.46c-.22.25-.08.35.15.41.05.14.3.29,0,.4l-.18.08c-.1-.16-.3-.23-.31-.46s-.23-.08-.35-.09C10.33,82,10.17,82.88,10,82.8Z"/><path class="cls-3" d="M6.17,16a7.2,7.2,0,0,0-.68-.67,1,1,0,0,1,.18-1.66c0,.33,0,.71.48.44A2.91,2.91,0,0,1,6.17,16Z"/><path class="cls-1" d="M10.59,82.75c-.26-.71-.42.13-.63,0-.08.15-.16.31-.35.28,0,.42-.31.88.17,1.22a.11.11,0,0,0,.08,0,1.47,1.47,0,0,1,1.4-.67l0-.34c-.09-.16-.29-.23-.3-.46C10.81,82.86,10.69,82.88,10.59,82.75Zm-.36.46a.1.1,0,0,1,.1-.15c.14,0,.39-.25.41.17,0,.21-.13.2-.25,0S10.28,83.27,10.23,83.21Z"/><path class="cls-1" d="M8.9,73.35c0,.13.26.22.07.37-.41.36,0,.36.15.45s.15.2.13.27c-.07.26-.19.51.13.68s.38-.1.54-.26.12-.5-.1-.71-.21-.36-.11-.48c.31-.41,0-.56-.22-.78Zm.58,1.48s0,0,0,0h.1l0,.11Z"/><path class="cls-3" d="M5.21,20.85c0,.55.25,1.12-.1,1.64-.09.13,0,.29.13.41a.32.32,0,0,1-.07.51c-.44-.44-.33-1-.3-1.54,0-.69-.46-1.29-.24-2,0-.11,0-.23.12-.28a.41.41,0,0,1,.23.63C4.81,20.57,5,20.72,5.21,20.85Z"/><path class="cls-2" d="M13.71,113.27c-.21,0-.32.15-.32.39s.15.28.32.29.33.1.32.33-.18.27-.32.35-.45,0-.69,0-.15-.29-.06-.36.36-.46.14-.72a.52.52,0,0,0-.8,0c-.09-.08-.14-.17,0-.27.5,0,.68-.5,1-.73a.53.53,0,0,0,.42.25Z"/><path class="cls-1" d="M9.21,70.73c-.32-.33-.47-.68-.08-1.07.34-.23.21-.87.65-1l.41,0a.52.52,0,0,1,0,.64c-.07,0-.19,0-.22.11l.23,0a.19.19,0,0,1,0,.13c0,.56-.69.5-.76,1A.22.22,0,0,1,9.21,70.73Z"/><path class="cls-3" d="M5.85,33.43l.22.1c.14.25.15.6.59.54a.44.44,0,0,1,.1.83.47.47,0,0,0-.2.51h-.1l-.36,0A3,3,0,0,1,5.85,33.43Z"/><path class="cls-3" d="M5.25,27.07c.32-.07.42.21.5.45A2.63,2.63,0,0,1,6,29.07a1.74,1.74,0,0,0-.07.84c0,.18-.21.1-.34.12a4.42,4.42,0,0,1-.21-2A3,3,0,0,0,5.25,27.07Z"/><path class="cls-3" d="M10.49,78.27V78c.16-.14.29-.34.53-.33.22.67,0,1.41.37,2.07.17.27-.3.39-.4.65-.2,0-.36-.26-.31-.32.32-.45-.15-.76-.14-1.14C11.25,78.65,10.41,78.5,10.49,78.27Z"/><path class="cls-1" d="M8.91,66.92l0-.2c.25-.15.25-.15.35.06s.12.21.19.23c.26,0,.16-.32.33-.4l.27.27.11.44-.38.94c-.41-.59-.5-.57-.9.19-.63-.26-.27-.53,0-.8C8.88,67.41,9.52,67.24,8.91,66.92Z"/><path class="cls-1" d="M7.83,56.94c0-.57,0-1.2.78-1,.21,0,.34-.19.41-.4.41,0,.11.35.17.52-.37.15-.79.26-.43.89a.23.23,0,0,1-.09.33c-.16.06-.21-.07-.24-.21l0-.06,0,0Z"/><path class="cls-3" d="M9.78,84.3a.11.11,0,0,0,.08,0c.19,0,.11.47.4.37.33.09.29.25.07.43s-.42.29,0,.48c-.06.17.26.26.09.42s-.44.07-.65-.08C9.69,85.38,9.29,84.83,9.78,84.3Z"/><path class="cls-3" d="M10.42,92.45c.28.16.28.63.72.72.22,0-.13.66-.29,1,0,0-.08.09-.12.13l-.34,0c-.3-.46.11-.95-.06-1.42l0-.36A.08.08,0,0,1,10.42,92.45Z"/><path class="cls-3" d="M6.48,18.26a2.41,2.41,0,0,1-.83-1.75c.11-.4.44-.17.65-.27,0,.25-.16.51.1.73a.53.53,0,0,1,.1.23C6.1,17.54,6.52,17.91,6.48,18.26Z"/><path class="cls-2" d="M12,111.61c-.17-.17.28-.58-.2-.64-.22-.18-.11-.38,0-.58.31-.34.09-.84.25-1.23.2.07.44,0,.27.46a2.43,2.43,0,0,0,0,.9l-.14.18.07,0,.08-.22c.1.25.79-.58.5.36-.18,0-.45,0-.46.31C12.09,111.29,12.19,111.61,12,111.61Z"/><path class="cls-3" d="M5.56,26.78c-.06,0-.15,0-.15.08-.14-.81-.64-1.64.06-2.41h.16l0,.54C5.63,25.59,5.59,26.18,5.56,26.78Z"/><path class="cls-3" d="M12,109.16c-.16.39.06.89-.25,1.23-.38,0-.1-.33-.15-.48a4.73,4.73,0,0,1-.05-1.8C12.18,108.18,11.84,108.8,12,109.16Z"/><path class="cls-3" d="M11.12,99.45c.06.42-.06.91.43,1.16.19.09.1.26-.08.3s-.29,0-.35.19c-.37.08-.29-.28-.32-.47-.07-.42-.09-.85-.14-1.28C10.82,99.38,11,99.26,11.12,99.45Z"/><path class="cls-3" d="M12.25,97.19c-.13-.29-.27-.59.05-.82s.07-.23,0-.34a.85.85,0,0,1,0-1.21,1.69,1.69,0,0,1,.34,1.31c0,.34,0,.69,0,1Z"/><path class="cls-1" d="M9.85,61.28c-.23.12-.56.43-.42-.26.07-.36-.17-.51-.39-.67s-.39,0-.31-.29.28-.2.46-.17a4.53,4.53,0,0,0,.53,0Z"/><path class="cls-3" d="M10,88c.36-.07.67-.1.5.5l-.21.43v.26c-.12.11-.08.27-.07.41l-.25.18c-.24,0-.19-.16-.17-.3Z"/><path class="cls-3" d="M10,66.88l-.27-.27c0-.38.26-.81-.22-1.1-.12-.08,0-.33.07-.32s.2-.48.43-.12C10,65.67,10.49,66.29,10,66.88Z"/><path class="cls-3" d="M11.23,88c.09-.16.29-.4.26-.46-.15-.24-.24,0-.36.1s-.15,0-.16-.11,0-.24.14-.25a3,3,0,0,1,.52,0A2.19,2.19,0,0,1,12,88.88l-.3,0h-.09l0-.15C11.64,88.41,11.71,88.07,11.23,88Z"/><path class="cls-3" d="M9.44,70.57c.07-.51.74-.45.76-1,.33.26.6.53.16.94-.08,0-.22.08-.23.14-.09.91-.35.27-.56.07.08,0,.2,0,.18-.17l-.2,0Z"/><path class="cls-3" d="M7.79,58.46c.24.1.52.31.32.56-.41.49.33,1.25-.35,1.61A6.58,6.58,0,0,1,7.79,58.46Z"/><path class="cls-3" d="M6.89,47.36l.27.51.12.27c-.29,0-.25.25-.22.47a1.25,1.25,0,0,1,0,1.47c-.13,0-.26-.16-.23-.26C7.07,49,6.53,48.16,6.89,47.36Z"/><path class="cls-3" d="M13.6,109.05c-.39,0-.68-.06-.38-.61.23-.4-.34-.85,0-1.25C13.81,107.71,13.57,108.41,13.6,109.05Z"/><path class="cls-3" d="M7.35,30a2.26,2.26,0,0,1-1-.86,1.24,1.24,0,0,0,1-.47c.23.26.07.51,0,.77C7.06,29.63,7.29,29.84,7.35,30Z"/><path class="cls-3" d="M11.16,103.37a1.6,1.6,0,0,1,.07,2,4.71,4.71,0,0,1-.14-1.75C11.32,103.64,11.23,103.5,11.16,103.37Z"/><path class="cls-3" d="M9.61,76c0,.16-.06.27-.22.28l-.09-.17-.13,0,.05.12.16.1a.22.22,0,0,1-.2.26c-.09-.49-.52-.89-.33-1.45.44,0,.52.47.73.76Z"/><path class="cls-3" d="M7.48,51.92a2.81,2.81,0,0,1-.19,1.79A.48.48,0,0,1,7.14,53c.24-.41,0-.88,0-1.33h.27Z"/><path class="cls-1" d="M11.72,97.9a.78.78,0,0,1-1,.76l0-.55c.27.07.37-.34.64-.28S11.58,97.9,11.72,97.9Z"/><path class="cls-3" d="M9.76,68.26l.38-.94c.24.44.42.88,0,1.34l-.41,0Z"/><path class="cls-3" d="M11.26,83.64l0-.34.19-.08c.12.5.34,1,0,1.5-.22-.14-.34-.44-.61-.48l.1-.27C11.11,83.94,11.28,83.91,11.26,83.64Z"/><path class="cls-1" d="M12.25,97.19l.27,0,.05.68a.94.94,0,0,1-.85.06c0-.33-.26-.23-.44-.22s-.19-.12-.16-.25.17-.07.25-.05C11.69,97.46,12,97.63,12.25,97.19Z"/><path class="cls-3" d="M9.4,78.07l-.25,0c-.06-.46-.46-.93,0-1.36.23,0,.69-.09.26.46C9.25,77.43,9.62,77.78,9.4,78.07Z"/><path class="cls-3" d="M7.07,47l-.33.05a2.07,2.07,0,0,1,0-1.49l.26.24c.13.26.36.25.57.27a.36.36,0,0,1,0,.11C7.14,46.25,6.77,46.36,7.07,47Z"/><path class="cls-3" d="M7.94,41c0-.36,0-.72-.07-1.07s0-.41.22-.45c.34.46.08,1,.21,1.5Z"/><path class="cls-2" d="M7,45.84l-.26-.24c-.18-.37-.5-.75,0-1.1a3.89,3.89,0,0,1,.38,1.07C7.18,45.75,7.16,45.82,7,45.84Z"/><path class="cls-2" d="M9.93,86.61a.21.21,0,0,1,.11,0c.21.17.45-.59.56,0,.08.4-.26.68-.67.68C9.85,87.07,9.63,86.83,9.93,86.61Z"/><path class="cls-2" d="M5.21,20.85c-.23-.13-.4-.28-.23-.62a.41.41,0,0,0-.23-.63c0-.1,0-.22.11-.27l.42.21a5.31,5.31,0,0,1,.08,1.26Z"/><path class="cls-2" d="M6.15,14.08c-.45.27-.45-.11-.48-.44a.43.43,0,0,1,.2-.52l.31,0A2.49,2.49,0,0,0,6.15,14.08Z"/><path class="cls-3" d="M6,31.78c-.06.5.19,1-.13,1.5-.34-.47-.06-1-.12-1.48Z"/><path class="cls-3" d="M10,63.34c-.89,0-.22-.64-.31-1,.18,0,.42-.11.33.3A4.8,4.8,0,0,0,10,63.34Z"/><path class="cls-3" d="M11.64,87c-.18,0-.46,0-.47-.27s.43-.2.56-.45C12.08,86.62,11.67,86.79,11.64,87Z"/><path class="cls-2" d="M12.65,101.9l-.21.62c-.07-.37-.34-.38-.59-.41a.3.3,0,0,1-.28-.29.25.25,0,0,1,.09-.2c.15-.07.19.07.26.19.24.4.45-.38.69,0A.56.56,0,0,1,12.65,101.9Z"/><path class="cls-3" d="M4.55,13.47c-.13.27.72.58,0,.84C4.1,14.23,4.1,14.23,4.55,13.47Z"/><path class="cls-3" d="M11.44,90.85c.12.35.41.3.65.37,0,.27.23.57-.05.81H11.9c-.07-.2,0-.56-.22-.57C11.15,91.43,11.35,91.13,11.44,90.85Z"/><path class="cls-3" d="M12.05,90c-.37.2-.49-.2-.7-.38l.22-.23.48-.2C12.13,89.43,11.86,89.7,12.05,90Z"/><path class="cls-3" d="M9.24,58.36l.34,0a1,1,0,0,1,.13.78c-.18,0-.42.12-.42-.25s-.12-.41-.37-.38C9,58.34,9.12,58.37,9.24,58.36Z"/><path class="cls-2" d="M7.36,28.7a1.24,1.24,0,0,1-1,.47c.24-.3.39-.71.8-.8l.21,0Z"/><path class="cls-2" d="M11.12,99.45c-.13-.19-.3-.07-.46-.1l-.07-.4c.4-.09.78-.13.9.48Z"/><path class="cls-2" d="M7.42,51.68H7.15A1,1,0,0,1,7.32,51C8.15,51.09,7.75,51.39,7.42,51.68Z"/><path class="cls-2" d="M6.79,21.52a.62.62,0,0,1-.23,0c-.21-.06-.55.35-.6-.07s.34-.07.51-.14.07-.14.11-.22C6.73,21.19,6.9,21.26,6.79,21.52Z"/><path class="cls-2" d="M7.35,30c-.06-.19-.29-.4,0-.56l.09.29c0,.12,0,.21.13.26l-.07.55-.14-.1Z"/><path class="cls-3" d="M3.91,5A.25.25,0,0,1,4,5c.18,0,.47-.19.52.14,0,.11-.33.35-.59.15Z"/><path class="cls-2" d="M7.64,41.72c.22,0,.31-.37.57-.31l0,.41C8,41.79,7.81,42,7.64,41.72Z"/><polygon class="cls-2" points="13.11 106.78 13.21 106.5 13.53 106.92 13.25 107.04 13.11 106.78"/><path class="cls-1" d="M13.74,112.76a.53.53,0,0,1-.42-.25c.07-.61.31.11.44-.06,0,0,.05,0,0,.1v.18S13.77,112.78,13.74,112.76Z"/><path class="cls-3" d="M10.52,92.25l-.1.28c-.27-.1-.21-.44-.35-.63l.23,0h.25a.62.62,0,0,1,0,.18C10.44,92.07,10.48,92.16,10.52,92.25Z"/><path class="cls-1" d="M7.49,56.58c.22,0,.17.31.32.38l-.08.22L7.55,57A.52.52,0,0,1,7.49,56.58Z"/><polygon class="cls-2" points="12.05 89.16 11.57 89.36 11.65 88.92 11.95 88.89 12.05 89.16"/><path class="cls-3" d="M11.45,82.82c-.23-.06-.37-.16-.15-.41C11.43,82.51,11.75,82.53,11.45,82.82Z"/><path class="cls-3" d="M6.45,35.56,6.36,36c-.32,0-.26-.2-.24-.41Z"/><path class="cls-1" d="M11.11,81.62c0-.2-.08-.42.1-.58C11.49,81.31,11.34,81.48,11.11,81.62Z"/><path class="cls-3" d="M3.56,3.58A.31.31,0,0,1,3.65,4C3.59,3.89,3.12,3.84,3.56,3.58Z"/><path class="cls-3" d="M7.38,30.47l.14.1,0,.27H7.41C7.27,30.73,7.24,30.61,7.38,30.47Z"/><path class="cls-1" d="M12.09,93.91l-.06,0a.14.14,0,0,0,0-.06l.26-.06Z"/><path class="cls-3" d="M7.59,30c-.11-.05-.13-.14-.13-.26C7.66,29.75,7.7,29.83,7.59,30Z"/><path class="cls-1" d="M12.63,98.36c-.09,0-.23,0-.22-.12s.1-.1.17,0Z"/><path class="cls-2" d="M10.3,91.87l-.23,0a.39.39,0,0,1,.22-.3Z"/><path class="cls-2" d="M10.36,92.54l0,.36C10.17,92.76,10.17,92.64,10.36,92.54Z"/><path class="cls-2" d="M8,41l.35,0c0,.08,0,.13-.08.14S8,41.21,8,41Z"/><path class="cls-3" d="M10.18,69.43l-.23,0c0-.15.15-.07.22-.11A.15.15,0,0,1,10.18,69.43Z"/><polygon class="cls-2" points="6.46 35.56 6.12 35.59 6.1 35.44 6.46 35.4 6.46 35.56"/><path class="cls-1" d="M11.16,103.37c.07.13.16.27-.07.3C11.05,103.55,11,103.43,11.16,103.37Z"/><polygon class="cls-2" points="13.8 112.73 13.8 112.55 13.95 112.65 13.8 112.73"/><polygon class="cls-1" points="8.7 72 8.7 72.17 8.61 72.11 8.7 72"/><path class="cls-3" d="M5.36,20.8a5.31,5.31,0,0,0-.08-1.26.21.21,0,0,1,.19-.24l.36,0c0,.23.16.3.34.2s.21-.11.24,0,0,.29-.09.29c-.52,0-.48.63-.76.89A2.12,2.12,0,0,1,5.36,20.8Z"/><path class="cls-2" d="M4.68,12c-.14-.27-.31-.55,0-.85.07.48.53.05.66.38l.26.52C5.26,12,5,11.76,4.68,12Z"/><path class="cls-2" d="M6.73,26.39a1.1,1.1,0,0,1,.3.82c-.14,0-.31.05-.41,0s-.31.33-.36,0,.18-.22.34-.2.33,0,.07-.16C6.2,26.53,6.83,26.54,6.73,26.39Z"/><path class="cls-2" d="M5,16.73l-.15-.4c.14-.06.23-.42.41-.12S5.26,16.65,5,16.73Z"/><path class="cls-2" d="M5.25,17.69c-.06.12-.19.24-.27.18-.26-.2,0-.47-.05-.71C5.28,17.15,5.19,17.48,5.25,17.69Z"/><path class="cls-2" d="M5.67,25l0-.54a.36.36,0,0,1,.33.4C6,25,5.78,25,5.67,25Z"/><path class="cls-3" d="M7.07,30.88a.25.25,0,0,0,0,.12l-.23,0c0-.16-.06-.36.14-.45Z"/><path class="cls-2" d="M4.88,16.23c-.28,0-.22-.23-.16-.43H5Z"/><path class="cls-3" d="M6.29,18.74l.07.08-.11.08s0-.07,0-.1S6.26,18.76,6.29,18.74Z"/><path class="cls-2" d="M6.71,26l0,.32c-.07,0-.18-.06-.2-.11S6.63,26,6.71,26Z"/><path class="cls-2" d="M5.6,17.78l-.25-.11C5.52,17.45,5.57,17.61,5.6,17.78Z"/><path class="cls-2" d="M5,15.79c0-.07,0-.18.08-.18s.08,0,.08.07S5,15.78,5,15.79Z"/><path class="cls-2" d="M5.83,19.26l-.36,0C5.57,19.12,5.69,19.09,5.83,19.26Z"/><path class="cls-3" d="M6.32,22.93c-.05,0-.06,0-.06,0S6.31,22.91,6.32,22.93Z"/><path class="cls-3" d="M6.86,31.31H6.74l.1-.29Z"/><path class="cls-3" d="M5.51,18.2l0,0Z"/><path class="cls-2" d="M4.73,15.73l-.14,0C4.65,15.58,4.7,15.6,4.73,15.73Z"/><path class="cls-2" d="M11.63,99.67c.18-.18.32-.45.63-.28a.47.47,0,0,1,.28.32c0,.25-.13.29-.29.34a.54.54,0,0,0-.61,0c-.09.06-.19.06-.22-.09S11.51,99.71,11.63,99.67Z"/><path class="cls-3" d="M12.24,111.2c0-.36.28-.26.46-.31,0,.14,0,.33.19.33s.27.12.23.25a.58.58,0,0,1-.28.3c-.2.08-.12-.16-.18-.23A2.31,2.31,0,0,0,12.24,111.2Z"/><path class="cls-2" d="M12.56,104.19c.59.2.41.67.32,1.11A.91.91,0,0,1,12.56,104.19Z"/><path class="cls-2" d="M12.58,103.85l0,.14s-.08,0-.09.08c-.13.27-.28.46-.56.21-.07-.07-.16-.26,0-.23C12.15,104.11,12.2,103.24,12.58,103.85Z"/><path class="cls-2" d="M12.55,100.84l.09.39c-.17,0-.37.36-.48,0S12.27,100.8,12.55,100.84Z"/><path class="cls-2" d="M12.46,102.71l.36.41c-.15,0-.27.24-.41,0A.36.36,0,0,1,12.46,102.71Z"/><path class="cls-2" d="M12.79,110.32c-.06-.07-.11-.11-.12-.16s.05-.1.07-.15.1.07.11.11S12.82,110.23,12.79,110.32Z"/><path class="cls-2" d="M12.85,103.41l-.06.38,0,.06h-.12C12.66,103.67,12.58,103.43,12.85,103.41Z"/><path class="cls-2" d="M12.53,100.5c.11.1.22.2,0,.33Z"/><path class="cls-3" d="M13.32,109.46s0-.06,0-.08S13.35,109.41,13.32,109.46Z"/><path class="cls-1" d="M8.32,63.59c0-.15,0-.32.11-.43.37-.09.07-.53.28-.73s-.3-.28-.05-.4.32.14.46.27a.31.31,0,0,1,.06.45c-.15.26-.25.56.15.75.24.12.09.37,0,.52S9.1,64.08,9,64,8.61,63.52,8.32,63.59Z"/><path class="cls-1" d="M9.24,58.36c-.12,0-.24,0-.32.12s-.14.37-.36.22a.38.38,0,0,1-.17-.26c0-.29.25-.12.37-.19A.64.64,0,0,0,9,58.12c.11-.11.15-.42.31-.32S9.19,58.16,9.24,58.36Z"/><path class="cls-1" d="M8.84,59.38l.07.08-.1.08s-.05-.07,0-.1S8.82,59.4,8.84,59.38Z"/><path class="cls-3" d="M8.63,66.15v0Z"/><path class="cls-2" d="M5.35,6.91c-.1,0-.23,0-.14-.21C5.32,6.72,5.35,6.81,5.35,6.91Z"/><path class="cls-1" d="M9.08,72.11l0-.27c.15,0,.38,0,.43-.06s.16-.3.35-.26.06.1,0,.14-.07.53-.41.44A2.17,2.17,0,0,0,9.08,72.11Z"/><path class="cls-1" d="M9.49,72.89c-.11-.08-.28-.07-.31-.26,0,0,.08-.1.12-.1C9.5,72.55,9.47,72.74,9.49,72.89Z"/><path class="cls-1" d="M9.61,76l0-.12c.1,0,.2,0,.22.12Z"/><path class="cls-1" d="M9.55,70.59l.2,0c0,.16-.1.14-.18.17Z"/><path class="cls-1" d="M9.25,71.27l.16,0C9.33,71.45,9.3,71.32,9.25,71.27Z"/><path class="cls-1" d="M5.29,11.55c-.13-.33-.59.1-.66-.38a.45.45,0,0,1,.16-.4c.23-.21.45-.47.76-.13C6,11.17,5.38,11.25,5.29,11.55Z"/><path class="cls-1" d="M5.48,9.25c0,.19.27.49-.13.5-.13,0-.37-.06-.31-.28s.2-.55.34-.57S5.4,9.15,5.48,9.25Z"/><path class="cls-1" d="M4.56,9.53c-.15-.14-.33-.22-.34-.33s0-.39.18-.42A.23.23,0,0,1,4.66,9,3.21,3.21,0,0,1,4.56,9.53Z"/><path class="cls-2" d="M5.32,7.6c-.09,0-.2,0-.19-.15s.1-.07.16-.11Z"/><path class="cls-1" d="M5.11,10s0,0,0,0Z"/><path class="cls-2" d="M5.46,7.85V7.73C5.51,7.76,5.52,7.8,5.46,7.85Z"/><path class="cls-1" d="M11.83,94.49c-.2,0-.28-.15-.23-.35s.27-.17.43-.21C12.07,94.17,11.7,94.21,11.83,94.49Z"/><path class="cls-3" d="M11.28,97.68c.18,0,.4-.11.45.22-.15,0-.32.07-.45-.07Z"/><path class="cls-1" d="M11.83,94.49l.05,0Z"/><path class="cls-2" d="M7.48,51.92l-.06-.24c.09,0,.25-.1.27.09S7.58,51.92,7.48,51.92Z"/><path class="cls-2" d="M7.06,48.61c0-.22-.07-.45.22-.47C7.23,48.31,7.21,48.5,7.06,48.61Z"/><path class="cls-2" d="M11.44,90.85c-.09.28-.29.58.24.62.24,0,.15.37.22.57a8.27,8.27,0,0,1-.84-.28.72.72,0,0,1-.24-1.25c.06-.06.15-.1.17-.17a.41.41,0,0,1,.68-.07c.07.1.07.1-.19.18s-.28,0-.27.23S11.36,90.79,11.44,90.85Z"/><path class="cls-2" d="M11.53,88.78l0,.15c-.41.29-.82-.09-1.23,0l.21-.43C10.91,88.39,11.14,88.92,11.53,88.78Z"/><path class="cls-2" d="M10.27,89.56c0-.14,0-.3.07-.41s0,0,.06,0c.14.17.54.1.49.33S10.48,89.48,10.27,89.56Z"/><path class="cls-2" d="M10.7,90.26s-.06.09-.08.09l-.2,0s.07-.06.1-.06A.62.62,0,0,1,10.7,90.26Z"/><path class="cls-2" d="M10.52,92.25c0-.09-.08-.18.05-.21S10.71,92.24,10.52,92.25Z"/><path class="cls-3" d="M10.55,91.86l.06-.06S10.58,91.85,10.55,91.86Z"/><path class="cls-2" d="M9.76,68.26l0,.38c-.44.15-.31.79-.65,1-.16,0-.37.06-.37-.25.23.12.33-.12.39-.26s-.11-.25-.24-.31l-.05-.39C9.26,67.69,9.35,67.67,9.76,68.26Z"/><path class="cls-1" d="M8.91,68.84c.13.06.31.13.24.31s-.16.38-.39.26C8.75,69.2,8.63,69,8.91,68.84Z"/><path class="cls-2" d="M8.91,66.92c.61.32,0,.49-.06.73C8.61,67.38,8.74,67.15,8.91,66.92Z"/><path class="cls-2" d="M8.63,66.15v.14C8.53,66.25,8.52,66.2,8.63,66.15Z"/><path class="cls-2" d="M11.26,83.64c0,.27-.15.3-.32.33s-.17.11-.1.26c-.23.1-.53.06-.58.45-.29.1-.21-.33-.4-.37A1.47,1.47,0,0,1,11.26,83.64Z"/><path class="cls-3" d="M11.22,88l0,.18C11.08,88.09,11.19,88.06,11.22,88Z"/><path class="cls-3" d="M7.19,37.57a1,1,0,0,1-.33.13l-.06-.82c0-.25.15-.27.31-.29,0,.15,0,.33.17.4Z"/><polygon class="cls-2" points="6.8 36.88 6.86 37.69 6.61 37.72 6.44 36.79 6.8 36.88"/><polygon class="cls-2" points="7.19 37.57 7.28 36.99 7.55 36.97 7.58 37.53 7.19 37.57"/><path class="cls-2" d="M7.27,33.72c.12,0,.26,0,.3.15s-.09.16-.14.25C7.28,34,7.29,33.87,7.27,33.72Z"/><path class="cls-2" d="M7.28,37c-.17-.07-.13-.25-.17-.4C7.28,36.66,7.27,36.83,7.28,37Z"/><path class="cls-3" d="M6.56,35.41c.07,0,.13-.14.21,0s0,0,0,.06S6.62,35.5,6.56,35.41Z"/><path class="cls-2" d="M10.49,78.27c-.08.23.76.38.06.67-.51.08-.27-.44-.41-.65Z"/><path class="cls-3" d="M10.35,81.13l0-.06S10.36,81.11,10.35,81.13Z"/><path class="cls-2" d="M10.14,78.29l-.06,0Z"/><path class="cls-1" d="M6.86,31.31l0-.28.23,0C7.1,31.19,7,31.29,6.86,31.31Z"/><path class="cls-1" d="M7.07,47c-.3-.68.07-.79.53-.82l.51.11c.37.49-.1.82-.16,1.23C7.54,47.64,7.18,47.63,7.07,47Z"/><path class="cls-3" d="M7.46,40.41l0,0C7.5,40.35,7.5,40.38,7.46,40.41Z"/><polygon class="cls-2" points="12.79 103.79 12.84 103.89 12.74 103.85 12.79 103.79"/><path class="cls-2" d="M7.63,41.73l-.1-.14,0,0Z"/><path class="cls-1" d="M8.34,49.43l.14.25C8.33,49.67,8.17,49.67,8.34,49.43Z"/><path class="cls-2" d="M6.86,37.7l.34-.08c0,.13,0,.28-.12.31S6.88,37.84,6.86,37.7Z"/><path class="cls-3" d="M10.94,82.84c-.13,0-.25,0-.35-.09C10.71,82.76,10.84,82.68,10.94,82.84Z"/><path class="cls-1" d="M10.19,82.23l.05,0Z"/><path class="cls-3" d="M10.49,83.28c-.09,0-.21,0-.26-.07a.1.1,0,0,1,.1-.15c.14,0,.39-.25.41.17Z"/><path class="cls-2" d="M10.49,83.28l.25,0C10.7,83.44,10.61,83.43,10.49,83.28Z"/><path class="cls-2" d="M9.56,74.88l-.08,0s0,0,0,0h.1Z"/><path class="cls-2" d="M8.42,57l0,0S8.44,57,8.42,57Z"/><path class="cls-1" d="M12.2,110.53l-.08.22-.07,0A.8.8,0,0,1,12.2,110.53Z"/><polygon class="cls-2" points="9.22 76.22 9.17 76.1 9.3 76.12 9.22 76.22"/><path class="cls-2" d="M9.3,76.12l.09.17a.44.44,0,0,1-.17-.07Z"/><path class="cls-1" d="M10.84,84.23c-.07-.15-.14-.28.1-.26Z"/></svg>