<?xml version="1.0" encoding="UTF-8" standalone="no"?>
<svg
   xmlns:dc="http://purl.org/dc/elements/1.1/"
   xmlns:cc="http://creativecommons.org/ns#"
   xmlns:rdf="http://www.w3.org/1999/02/22-rdf-syntax-ns#"
   xmlns:svg="http://www.w3.org/2000/svg"
   xmlns="http://www.w3.org/2000/svg"
   xmlns:sodipodi="http://sodipodi.sourceforge.net/DTD/sodipodi-0.dtd"
   xmlns:inkscape="http://www.inkscape.org/namespaces/inkscape"
   id="Layer_1"
   data-name="Layer 1"
   viewBox="0 0 127.1 148.78"
   version="1.1"
   sodipodi:docname="triangle.svg"
   inkscape:version="0.92.1 r15371">
  <metadata
     id="metadata13">
    <rdf:RDF>
      <cc:Work
         rdf:about="">
        <dc:format>image/svg+xml</dc:format>
        <dc:type
           rdf:resource="http://purl.org/dc/dcmitype/StillImage" />
        <dc:title />
      </cc:Work>
    </rdf:RDF>
  </metadata>
  <sodipodi:namedview
     pagecolor="#ffffff"
     bordercolor="#666666"
     borderopacity="1"
     objecttolerance="10"
     gridtolerance="10"
     guidetolerance="10"
     inkscape:pageopacity="0"
     inkscape:pageshadow="2"
     inkscape:window-width="2256"
     inkscape:window-height="1410"
     id="namedview11"
     showgrid="false"
     inkscape:zoom="1.5862347"
     inkscape:cx="-59.067416"
     inkscape:cy="74.389998"
     inkscape:window-x="-11"
     inkscape:window-y="-11"
     inkscape:window-maximized="1"
     inkscape:current-layer="Layer_1" />
  <defs
     id="defs4">
    <style
       id="style2">.cls-1{fill:#faf200;}</style>
  </defs>
  <polygon
     class="cls-1"
     points="125.07,2.53 0.54,74.43 125.07,146.33 "
     id="polygon6"
     style="fill:#ff0000"
     transform="rotate(-29.835657,110.04028,123.51193)" />
  <path
     d="m 5.242509,134.79368 c 2.297103,-0.0148 4.527233,-0.0258 6.507076,0.12985 0.899349,0.0606 2.293148,-0.1624 3.166601,-0.006 0.538461,0.0947 1.054599,0.19059 1.646383,0.27771 a 9.75,9.75 0 0 0 3.04605,-0.15614 6.33,6.33 0 0 1 2.130627,-0.18447 17.23,17.23 0 0 0 3.188925,-0.008 c 1.101287,-0.0898 2.232426,-0.12758 3.42301,-0.22249 2.293148,-0.1624 3.848066,0.31764 6.472123,-0.0115 a 49.82,49.82 0 0 1 5.918735,-0.13217 l 6.728915,0.0141 a 10.83,10.83 0 0 1 1.476208,0.1217 15.7,15.7 0 0 0 3.219924,-0.0138 l 6.678398,-0.55633 c 0.958667,-0.0772 1.263936,0.0129 1.047327,0.2985 -0.216608,0.28563 0.393801,0.38513 1.390866,0.2744 1.357953,-0.14479 2.775479,-0.26611 4.045283,-0.4641 a 18.11,18.11 0 0 1 5.528252,0.0111 c 0.677383,0.0957 1.456436,0.16762 2.247863,0.22094 a 3.92,3.92 0 0 0 1.3355,-0.22414 3.65,3.65 0 0 1 2.067482,-0.11367 18.81,18.81 0 0 0 5.228855,0.49406 52.86,52.86 0 0 0 5.87638,-0.24622 6,6 0 0 1 2.23893,0.0647 l 2.95446,0.74945 a 4.2,4.2 0 0 0 1.58273,0.026 l 3.16226,-0.39572 a 3.7,3.7 0 0 1 2.496108,0.33218 1.5,1.5 0 0 0 1.17566,-0.12094 7.64,7.64 0 0 1 1.36344,-0.59753 12.37,12.37 0 0 1 4.67074,-0.25795 c 0.71833,0.10678 1.47264,0.21597 2.07692,0.3651 a 15.41,15.41 0 0 0 3.81222,0.39583 l 9.31241,-0.0842 a 41,41 0 0 1 5.79525,0.21532 18.44,18.44 0 0 0 5.63605,-0.0623 l 0.51958,-0.079 -0.85228,1.46868 c -0.83021,-1.04554 -1.65302,-2.11838 -2.478,-2.994 -1.2971,-1.37721 -1.32083,-1.47888 -1.89973,-3.61384 a 1.92,1.92 0 0 0 -0.65672,-1.14505 5.12,5.12 0 0 1 -0.80993,-0.76897 c -0.82447,-2.12093 -2.3179,-4.50376 -2.87308,-6.53705 a 3.32,3.32 0 0 0 -1.5016,-2.05536 2.42,2.42 0 0 1 -0.77714,-1.21431 4.71,4.71 0 0 0 -0.79105,-1.37926 c -1.46141,-1.74409 -2.68223,-4.2948 -4.13013,-6.11582 -0.62087,-1.22324 -1.18969,-2.47633 -1.86389,-3.69204 a 46.79,46.79 0 0 1 -3.04325,-5.90916 9.82,9.82 0 0 0 -1.29686,-1.999873 c -0.73695,-0.903047 -0.92716,-1.958282 -1.62189,-2.827907 a 7.46,7.46 0 0 1 -1.23345,-2.693324 6.46,6.46 0 0 0 -1.09109,-2.083297 33,33 0 0 1 -2.18983,-3.516641 38.32,38.32 0 0 0 -1.95306,-3.606321 c -1.13841,-1.422117 -2.1115,-3.400172 -3.24595,-4.674694 a 5.27,5.27 0 0 1 -1.255648,-2.611426 10.61,10.61 0 0 0 -1.91288,-4.078957 36.31,36.31 0 0 1 -2.98215,-4.91822 18,18 0 0 0 -1.3452,-1.983668 c -0.45504,-0.672788 -0.94234,-1.36165 -1.35031,-2.072964 -0.85074,-1.48335 -1.20781,-2.950117 -2.17885,-4.422113 -0.97105,-1.471996 -1.83863,-2.622905 -2.73263,-4.000757 -0.60301,-0.910701 -1.17643,-1.9306 -1.73862,-2.910825 A 38.27,38.27 0 0 1 81.208216,45.885425 15.41,15.41 0 0 0 79.458626,43.096171 10.49,10.49 0 0 1 77.407976,39.741796 3.78,3.78 0 0 0 77.062013,39.01798 17.77,17.77 0 0 1 74.62917,34.77612 29.73,29.73 0 0 1 72.636435,31.181025 C 72.065186,29.963908 71.049112,29.036496 70.488834,27.697807 A 12.55,12.55 0 0 0 68.819866,24.908426 16.71,16.71 0 0 1 67.16812,22.028472 17.22,17.22 0 0 0 66.013632,19.854729 72,72 0 0 1 61.234566,12.024536 l 3.453116,-0.0092 c -0.613723,0.939917 -1.237398,1.862484 -1.875997,2.759028 a 24.3,24.3 0 0 0 -2.472627,4.311649 4.58,4.58 0 0 1 -1.604025,2.188036 1.6,1.6 0 0 0 -0.519196,1.104733 4.14,4.14 0 0 1 -1.460384,2.820387 3.85,3.85 0 0 0 -1.265081,1.613217 20.05,20.05 0 0 1 -2.403229,4.271848 10.34,10.34 0 0 0 -1.276817,2.034955 15.62,15.62 0 0 1 -1.971671,3.43641 21.32,21.32 0 0 0 -2.744599,4.88264 27.17,27.17 0 0 1 -2.254359,4.290218 46.54,46.54 0 0 0 -3.342504,5.629037 5.29,5.29 0 0 1 -0.425563,0.705193 34.94,34.94 0 0 0 -4.479124,7.687337 12.17,12.17 0 0 1 -1.232039,2.113025 30.65,30.65 0 0 0 -3.708621,6.27708 8.19,8.19 0 0 1 -0.806477,1.407834 106.61,106.61 0 0 0 -6.098968,10.068892 c -1.541261,2.659269 -3.130999,5.254117 -4.799955,7.952039 a 22.23,22.23 0 0 0 -1.24199,2.095677 39.22,39.22 0 0 1 -3.393276,5.681213 24.55,24.55 0 0 0 -2.10179,3.511036 38.59,38.59 0 0 1 -3.359854,5.63899 c -0.628649,0.91389 -1.315469,1.90726 -1.816296,2.86312 -1.399024,2.40477 -3.048463,4.89553 -4.30372,7.22937 -1.255256,2.33385 -2.97409199,4.8644 -4.27272099,7.22312 -0.78045301,1.39291 -1.32796901,2.62916 -2.34263601,4.1564 -1.014666,1.52724 -1.718324,2.85304 -2.516126,4.25591 -0.734785,1.25143 -1.568945,2.41 -2.38078,3.56729 -0.8118352,1.15729 -1.9415685,2.0819 -1.6426802,1.27644 a 6.94,6.94 0 0 1 0.3872928,-0.59102 c 0.1447884,-0.20985 0.2797542,-0.35642 0.4134443,-0.52532 0.4097451,-0.51167 0.7685901,-1.0518 0.6420431,-1.07144 -0.5914009,0.15474 0.143,-1.33856 1.446733,-3.60799 0.717435,-1.24148 1.395197,-2.47174 2.220554,-3.70596 a 19.5,19.5 0 0 0 1.586931,-2.80074 28.58,28.58 0 0 1 1.90329501,-3.53553 C 1.736029,115.21287 3.930177,111.27997 6.239645,107.32704 l 2.198231,-3.70468 c 0.28205,-0.47302 0.676869,-1.01072 0.890799,-1.42161 2.411138,-4.76056 5.49532,-9.814907 8.145646,-14.701119 0.793975,-1.469831 1.512431,-2.850238 2.166338,-4.262791 a 43,43 0 0 1 4.235471,-7.247867 c 0.64855,-0.879195 1.289446,-1.892335 1.93672,-2.793854 a 13.75,13.75 0 0 0 1.279112,-2.151551 c 1.542663,-3.340223 3.691525,-6.889785 5.501952,-10.325939 a 29.67,29.67 0 0 1 4.59483,-6.681597 1.54,1.54 0 0 0 0.49432,-1.148106 4.35,4.35 0 0 1 0.853292,-2.391504 c 0.722411,-1.232811 1.495721,-2.437175 2.275282,-3.61054 l 1.846147,-2.811067 a 17,17 0 0 0 1.81387,-3.611048 12.79,12.79 0 0 1 1.916945,-3.53183 28.89,28.89 0 0 0 3.73439,-6.45325 31.59,31.59 0 0 1 3.745487,-6.494199 25.87,25.87 0 0 0 3.239302,-5.78888 20.4,20.4 0 0 1 2.503625,-4.3179 14.8,14.8 0 0 0 1.32644,-2.028831 c 0.249648,-0.569716 0.462174,-1.083557 0.686053,-1.477102 l 1.219538,-2.175024 1.258711,2.194664 c 0.303483,0.529148 0.444318,0.955605 0.207937,1.287153 -0.08662,0.130373 0.01454,0.568056 0.02245,0.863247 0.240848,0.138537 0.487946,0.308074 0.722542,0.415612 0.234596,0.107539 0.400689,0.03534 0.665264,0.275544 a 5.16,5.16 0 0 1 0.889911,1.149634 c 0.686569,1.197089 1.181022,2.481307 1.866316,3.656072 0.685293,1.174765 1.544078,2.250028 2.28397,3.43959 a 19.77,19.77 0 0 1 1.594724,2.901131 c 0.691418,1.909041 1.988524,3.286254 2.870655,5.005221 0.720503,1.477354 1.563853,2.988003 2.404651,4.454004 a 33.3,33.3 0 0 0 3.154364,4.796393 17.3,17.3 0 0 1 1.726119,2.848827 c 0.63682,1.110344 0.82536,1.901388 0.65736,2.332055 -0.16801,0.430667 -0.27338,0.468045 -0.39699,0.734915 a 0.78,0.78 0 0 0 0.0355,0.463835 c 0.11839,0.34711 0.36817,0.641917 0.61373,0.627884 0.24557,-0.01403 0.65965,-0.136243 1.04656,-0.185229 a 3,3 0 0 1 1.22414,1.511286 46.51,46.51 0 0 0 3.90383,7.329238 c 0.69154,1.205764 1.55403,2.267377 2.26292,3.46319 0.54229,0.945527 0.95944,1.974356 1.503,2.942207 0.37314,0.650592 1.07119,1.264699 1.11941,1.951776 a 5.07,5.07 0 0 0 1.1823,2.503632 22.85,22.85 0 0 1 2.71515,3.930085 c 0.55007,1.160095 1.3989,2.218008 2.029851,3.53922 a 38.57,38.57 0 0 0 2.4095,4.382056 c 1.11532,1.723559 1.66514,3.506309 2.74424,5.066199 a 32.29,32.29 0 0 1 2.36612,4.406932 54,54 0 0 0 4.763,7.862467 42.38,42.38 0 0 1 4.63032,7.892449 57.28,57.28 0 0 0 3.1735,5.91516 69.71,69.71 0 0 1 4.45581,8.13087 14.2,14.2 0 0 0 1.21891,2.12526 85.31,85.31 0 0 1 6.15961,10.98098 34.5,34.5 0 0 0 2.09453,3.65199 c 0.40299,0.70264 0.86172,1.36178 1.31178,2.02589 l 1.37505,2.03572 -2.66399,0.17911 -1.74499,0.11315 c -2.95012,-0.35999 -6.28995,-0.093 -9.21903,-0.47657 a 5.93,5.93 0 0 0 -1.60875,-0.0111 17.53,17.53 0 0 1 -2.40591,0.22708 c -3.95306,-0.0384 -8.05689,0.26331 -11.93238,-0.14234 -1.66693,0.0684 -3.35362,0.18268 -5.03177,0.21139 -2.872551,0.0566 -5.770121,-0.0107 -8.625201,0.11661 -1.74256,0.0772 -3.30667,0.0635 -5.01096,0.0266 -4.56589,-0.10192 -9.183696,-0.0934 -13.796654,-0.15675 l -13.795373,-0.13443 c -1.407832,-0.0226 -2.792191,-0.10473 -4.154227,-0.18816 a 23,23 0 0 0 -3.387419,-0.0169 c -2.336521,0.18727 -4.612575,0.17847 -6.924603,0.16725 l -19.921406,-0.1024 c -2.312028,-0.0112 -4.272099,-0.21277 -6.675848,-0.18291 a 53.14,53.14 0 0 1 -5.717052,-0.17948 l -16.263799,-0.21734 -5.173489,0.004 a 7.49,7.49 0 0 1 -1.8744725,-0.19301 4,4 0 0 1 -0.9966835,-0.4313 c -0.044776,-0.0781 0.2862604,-0.16418 0.6545469,-0.22554 2.6465091,-0.24978 5.5114131,-0.44038 8.37886811,-0.58632 1.97448499,-0.0949 4.01364699,-0.0771 6.02295799,-0.11125 z"
     id="path8"
     inkscape:connector-curvature="0" />
</svg>
