<svg id="Layer_1" data-name="Layer 1" xmlns="http://www.w3.org/2000/svg" viewBox="0 0 127.1 148.78"><defs><style>.cls-1{fill:#ddd;}</style></defs><polygon class="cls-1" points="126.57 74.35 2.03 2.45 2.03 146.25 126.57 74.35"/><path d="M113.58,67.62c-2-1.13-3.94-2.24-5.58-3.35-.75-.51-2.07-1-2.74-1.58-.42-.34-.82-.69-1.3-1.06a10,10,0,0,0-2.71-1.37,6.63,6.63,0,0,1-1.94-.91,17.69,17.69,0,0,0-2.78-1.6c-1-.46-2-1-3.07-1.51-2.08-1-3.19-2.18-5.63-3.21a49.87,49.87,0,0,1-5.2-2.82L76.8,46.85A14.08,14.08,0,0,1,75.59,46a15.22,15.22,0,0,0-2.81-1.6l-6.07-2.84c-.87-.4-1.09-.64-.75-.78s-.16-.53-1.08-.93c-1.25-.55-2.54-1.14-3.74-1.61a18,18,0,0,1-4.78-2.75c-.55-.43-1.19-.88-1.85-1.31a3.65,3.65,0,0,0-1.27-.48,3.57,3.57,0,0,1-1.84-.92,19.38,19.38,0,0,0-4.24-3,56.38,56.38,0,0,0-5.23-2.7A6.07,6.07,0,0,1,40,25.9l-2.24-2.14A4.46,4.46,0,0,0,36.42,23l-2.94-1.22a3.89,3.89,0,0,1-2-1.53,1.48,1.48,0,0,0-1.08-.48,8.52,8.52,0,0,1-1.48-.16,13,13,0,0,1-4.18-2.1c-.57-.45-1.16-.92-1.61-1.36A15.11,15.11,0,0,0,20,13.87L11.88,9.3A40.71,40.71,0,0,1,7,6.23,18.68,18.68,0,0,0,2,3.49L1.54,3.3,3,2.45c.2,1.31.38,2.65.66,3.83.44,1.84.42,1.93-.14,4.07a1.9,1.9,0,0,0,.05,1.33,4.82,4.82,0,0,1,.31,1.07c-.34,2.24-.23,5.05-.75,7.1a3.29,3.29,0,0,0,.27,2.53,2.49,2.49,0,0,1,.08,1.44,4.19,4.19,0,0,0,0,1.58c.4,2.25.18,5.06.54,7.36-.08,1.38-.2,2.75-.22,4.13a48.15,48.15,0,0,1-.31,6.64,9.91,9.91,0,0,0,.14,2.39c.19,1.15-.18,2.16,0,3.26a7.46,7.46,0,0,1-.28,3,6.46,6.46,0,0,0-.09,2.35,33,33,0,0,1,.16,4.14,33.72,33.72,0,0,0-.1,4.1c.27,1.79.13,4,.48,5.66a5.16,5.16,0,0,1-.21,2.89,11,11,0,0,0-.44,4.49,35.22,35.22,0,0,1,.14,5.75,18.28,18.28,0,0,0,.19,2.4c.06.81.13,1.64.13,2.46,0,1.71-.41,3.17-.31,4.93s.29,3.19.39,4.82c.07,1.1,0,2.26,0,3.4a39.1,39.1,0,0,1-.33,7.42,15.31,15.31,0,0,0,.12,3.28,10.5,10.5,0,0,1,.12,3.93,3.88,3.88,0,0,0-.07.8,17.78,17.78,0,0,1,.06,4.89A31.5,31.5,0,0,1,3.63,124c-.12,1.34.3,2.65.12,4.09a12.13,12.13,0,0,0,.07,3.25,16.71,16.71,0,0,1,0,3.32,17.13,17.13,0,0,0-.08,2.46A70.23,70.23,0,0,1,4,146.25l-3-1.72c1-.5,2-1,3-1.46a23.82,23.82,0,0,0,4.28-2.5,4.6,4.6,0,0,1,2.43-1.09,1.66,1.66,0,0,0,1-.7,4.08,4.08,0,0,1,2.68-1.72,4.06,4.06,0,0,0,1.9-.78,19.29,19.29,0,0,1,4.22-2.45,10.85,10.85,0,0,0,2.12-1.13,15.89,15.89,0,0,1,3.43-2,20.66,20.66,0,0,0,4.8-2.93,27.69,27.69,0,0,1,4.09-2.6,49.33,49.33,0,0,0,5.7-3.22,3.86,3.86,0,0,1,.73-.4,35.12,35.12,0,0,0,7.7-4.45,11.89,11.89,0,0,1,2.13-1.21,30.93,30.93,0,0,0,6.34-3.61,8.78,8.78,0,0,1,1.39-.82,104.43,104.43,0,0,0,10.3-5.62c2.67-1.54,5.33-3.06,8.13-4.52a17.63,17.63,0,0,0,2.11-1.2,40.69,40.69,0,0,1,5.77-3.23,24,24,0,0,0,3.57-2,39.64,39.64,0,0,1,5.72-3.23c1-.47,2.1-1,3-1.57,2.41-1.39,5.09-2.73,7.34-4.13s5-2.74,7.3-4.14c1.37-.82,2.45-1.62,4.09-2.44s2.92-1.62,4.3-2.44,2.56-1.32,3.82-1.92,2.67-.85,2-.3a6.49,6.49,0,0,1-.63.33c-.23.11-.41.17-.62.25-.61.24-1.19.57-1,.61.6.15-.78,1.09-3,2.4-1.24.72-2.45,1.45-3.77,2.12A18.1,18.1,0,0,0,114.56,82a28.6,28.6,0,0,1-3.43,2.11c-4.22,2.22-8.08,4.53-12.06,6.82l-3.74,2.11c-.49.28-1.1.54-1.48.8-4.46,2.93-9.65,5.78-14.39,8.7-1.42.88-2.72,1.72-4,2.62a43.14,43.14,0,0,1-7.29,4.18c-1,.43-2,1-3.06,1.45A13.32,13.32,0,0,0,62.92,112c-3.05,2.13-6.63,4.14-9.92,6.23a30.53,30.53,0,0,1-7.3,3.55,1.56,1.56,0,0,0-1,.74,4.24,4.24,0,0,1-1.93,1.66c-1.23.7-2.51,1.37-3.77,2l-3,1.52A16.4,16.4,0,0,0,32.63,130a12.62,12.62,0,0,1-3.43,2.12,29,29,0,0,0-6.44,3.71,32.13,32.13,0,0,1-6.49,3.77,26.15,26.15,0,0,0-5.68,3.4,20.76,20.76,0,0,1-4.33,2.51,12.91,12.91,0,0,0-2.17,1.06c-.5.37-.95.71-1.34.94L.64,148.78l-.05-2.53c0-.62.09-1.05.45-1.22.15-.07.28-.5.41-.76a8,8,0,0,0-.41-.72c-.15-.21-.33-.24-.44-.58a4.75,4.75,0,0,1-.2-1.43c0-1.38.21-2.75.19-4.11s-.21-2.72-.26-4.11A18.88,18.88,0,0,1,.39,130c.34-2-.1-3.84,0-5.77.11-1.63.12-3.36.13-5a33.21,33.21,0,0,0-.36-5.73,18.23,18.23,0,0,1-.07-3.33c.05-1.28.22-2.06.58-2.35s.48-.27.71-.45a.68.68,0,0,0,.2-.41c.08-.37,0-.75-.21-.86s-.65-.21-1-.36a3,3,0,0,1-.34-1.89,46.57,46.57,0,0,0,.26-8.3c0-1.39-.22-2.75-.24-4.14,0-1.08.14-2.19.16-3.29,0-.75-.31-1.64,0-2.26a5,5,0,0,0,.22-2.75,22.2,22.2,0,0,1-.33-4.79C.22,77,0,75.66.14,74.19a36.73,36.73,0,0,0,.09-5c-.11-2.06.31-3.88.14-5.77a35,35,0,0,1,.14-5,52.91,52.91,0,0,0-.22-9.18A43.11,43.11,0,0,1,.2,40.08a57.15,57.15,0,0,0,.2-6.7,71.42,71.42,0,0,1,.17-9.27,15.43,15.43,0,0,0,0-2.46A84,84,0,0,1,.65,9.06a36.48,36.48,0,0,0,0-4.2c0-.81-.08-1.62-.14-2.41L.38,0,2.77,1.17l1.57.77c2.38,1.78,5.41,3.21,7.77,5a6.24,6.24,0,0,0,1.38.81,16.89,16.89,0,0,1,2.2,1c3.41,2,7.12,3.77,10.28,6.06,1.49.77,3,1.51,4.47,2.32C33,18.52,35.46,20,38,21.32c1.55.81,2.9,1.59,4.36,2.48,3.91,2.35,7.93,4.65,11.9,7l11.89,7c1.22.72,2.38,1.48,3.51,2.22a22,22,0,0,0,2.93,1.71c2.12,1,4.09,2.13,6.09,3.29L95.9,55c2,1.16,3.59,2.3,5.7,3.48a52.92,52.92,0,0,1,4.86,3l14.06,8.28,4.4,2.61a7.55,7.55,0,0,1,1.54,1.1,3.68,3.68,0,0,1,.64.87c0,.09-.32,0-.67-.14-2.42-1.09-5-2.35-7.57-3.66C117.1,69.61,115.34,68.59,113.58,67.62Z"/></svg>