<svg id="Layer_1" data-name="Layer 1" xmlns="http://www.w3.org/2000/svg" viewBox="0 0 154.79 151.93"><defs><style>.cls-1{fill:red;}.cls-2{fill:#ff4900;}.cls-3{fill:#00ce00;}</style></defs><circle class="cls-1" cx="36.92" cy="78.7" r="36"/><path d="M73.1,78.45a2.68,2.68,0,0,0,.11-.63,5.47,5.47,0,0,1,.24-1.5c.17-.63-.26-1.12-.4-1.67,0-.14-.07-.28-.09-.43l-.2-1.5a4,4,0,0,1,0-1.3c.07-.52-.52-.88-.53-1.4a3.59,3.59,0,0,0,0-.87c-.09-.34-.35-.63-.45-1-.36-1-.79-2-1.14-3-.28-.86-.75-1.64-1.11-2.47l-.57-1.23-.67-1.17a5.27,5.27,0,0,0-1.1-1.83,1.91,1.91,0,0,1-.42-.74,1.12,1.12,0,0,0-.33-.55,10.92,10.92,0,0,1-1.72-1.94L62.62,53c-.75-.67-1.51-1.34-2.25-2-.94-.84-2-1.54-3-2.3s-2.17-1.3-3.25-1.94a9,9,0,0,1-2.44-1.41.61.61,0,0,0-.36-.19,5.52,5.52,0,0,1-2.26-.69,2.15,2.15,0,0,0-1.27-.14.4.4,0,0,1-.37-.16,1.31,1.31,0,0,0-.51-.37l-2.32-.55a8.32,8.32,0,0,1-2.7-.76c-.73,0-1.39-.46-2.13-.36-1.08.12-2.19-.39-3.24.16a.51.51,0,0,1-.42,0,2.13,2.13,0,0,0-1.49-.06c-.48.11-1-.21-1.49.1-.09.08-.27,0-.42,0-.5,0-1,0-1.52.11s-1.16.18-1.72.31a15.41,15.41,0,0,0-1.66.56c-.55.23-1.17,0-1.71.26l-.77.41c-.12.07-.24.2-.37.22a12.63,12.63,0,0,0-2.42.69c-.76.36-1.5.76-2.27,1.09a2.15,2.15,0,0,0-1.07.73.49.49,0,0,1-.36.21,6.28,6.28,0,0,0-2,.94c-.83.47-1.52,1.14-2.3,1.68l-1,.77-1,.86c-.63.58-1.29,1.13-1.89,1.74l-1.75,1.9a24,24,0,0,0-1.6,2c-.18.23-.33.49-.52.71A1.74,1.74,0,0,0,6.47,59c-.4-.19-.81-.19-1,.19-.28.58-.94,1-.88,1.72a3.7,3.7,0,0,1-1.07,1.89.54.54,0,0,0-.19.38,1.3,1.3,0,0,1-.52.93,1.3,1.3,0,0,0-.38,1A5,5,0,0,1,2,67.26c-.32.85-.48,1.76-.74,2.64L.86,71.22c-.08.45-.14.9-.22,1.35a10,10,0,0,1-.58,2.58c-.07.19.07.44,0,.64a4.33,4.33,0,0,0,0,1.72,8.18,8.18,0,0,1,0,1.31,2.56,2.56,0,0,0,.35,1.27.2.2,0,0,1,0,.2c-.54,1.12,0,2.32-.21,3.47,0,.12.12.26.19.4a.76.76,0,0,1,.15.62,4.15,4.15,0,0,0,.11,2c.05.42.37.82.4,1.24a3.05,3.05,0,0,0,.57,1.62,5.47,5.47,0,0,0,.69.85.4.4,0,0,1,0,.59.83.83,0,0,0-.19.84c.19.52.33,1.06.56,1.56L3.43,95a1.9,1.9,0,0,0,.26.37.79.79,0,0,0,.6.22c.35,0,.38.07.19.4s-.24.44-.13.63L5.4,98.4a13.68,13.68,0,0,0,1.14,1.77c.19.26.52.25.85.2s.3.06.21.26a1,1,0,0,0,.08,1.06,17.83,17.83,0,0,0,1.86,2.21c.36.37.67.79,1,1.17a3.86,3.86,0,0,0,1.3.87,7.5,7.5,0,0,0,2,2,3.27,3.27,0,0,0,1,.51.6.6,0,0,1,.3.29c.22.45.77.38,1.06.75a6,6,0,0,0,1.05.81,17,17,0,0,0,2.09,1.26c.74.33,1.49.66,2.21,1a6.41,6.41,0,0,0,2.51.86c.25,0,.38.21.57.29.48.18.93.47,1.42.61a3.24,3.24,0,0,0,1.55.13c.37.31.89.08,1.25.29a4,4,0,0,0,2.76.54,1.91,1.91,0,0,0,1.29.14,1.47,1.47,0,0,1,.86,0c.49.26,1,0,1.5.18a7.52,7.52,0,0,0,1.76.23l2.22-.1a20.57,20.57,0,0,0,2.21-.18,6.33,6.33,0,0,0,2.35-.56c.67.11,1.17-.5,1.9-.36a2.67,2.67,0,0,0,1.88-.53c.17-.11.42-.27.59-.24.56.15.9-.52,1.45-.34a3.07,3.07,0,0,1,1.43-.47c.31,0,.51-.26.71-.5a.78.78,0,0,1,.77-.32,1.53,1.53,0,0,0,.87-.17c.52-.27,1.08-.5,1.58-.82a4.68,4.68,0,0,1,1.21-.53,3.84,3.84,0,0,0,2.38-1.58,1,1,0,0,1,.72-.47,1.48,1.48,0,0,0,.63-.22c.34-.24.69-.46,1-.71a3.39,3.39,0,0,0,.76-1,1.08,1.08,0,0,1,.61-.61c.36-.13.43-.57.86-.66s.34-.44.61-.61a3.62,3.62,0,0,0,.83-.74c.5-.55,1-1.09,1.51-1.66l1.35-1.8a9.27,9.27,0,0,0,1.78-3.09,2.21,2.21,0,0,1,.62-.9,2.93,2.93,0,0,0,.46-1c.13-.34.47-.58.63-.91a38.11,38.11,0,0,0,1.88-4.59c.18-.42-.09-.93.18-1.31a4.09,4.09,0,0,0,.5-1.25,29.65,29.65,0,0,0,.86-4.19A10.4,10.4,0,0,1,74.72,82a1.3,1.3,0,0,0,0-.65A4.37,4.37,0,0,0,74,79.24a2.39,2.39,0,0,0-.76-.5c-.26-.13-.75.08-.77.31l-.14,2a14.9,14.9,0,0,1-.21,2c-.16,1-.28,2-.46,2.92l-.53,2a13.85,13.85,0,0,1-.61,2l-.82,2.18c-.44,1-1,2-1.46,3a6.5,6.5,0,0,0-.47,1.17c-.13.54-.67.72-.92,1.14l-.49.81c-.18.26-.38.51-.57.76-.39.5-.78,1-1.13,1.53a32,32,0,0,1-4.52,4.72,2.34,2.34,0,0,1-1.26.74,1.31,1.31,0,0,0-1,.75.86.86,0,0,1-.62.51,1.23,1.23,0,0,0-.84.57,1.82,1.82,0,0,1-.57.6,10.11,10.11,0,0,1-3.38,1.68,13.31,13.31,0,0,0-1.29.59c-.21.08,0,.66-.43.63a2.39,2.39,0,0,0-.84.1c-1.29.31-2.43,1.19-3.83,1-.06,0-.12.06-.17.1a1.42,1.42,0,0,1-1.17.41,2.63,2.63,0,0,0-1.8.36.46.46,0,0,1-.41.06,1.22,1.22,0,0,0-1.19.17,1.48,1.48,0,0,1-1.44.12,1.44,1.44,0,0,0-1.41.08A3.29,3.29,0,0,0,37,114a1.71,1.71,0,0,0-1.61-.09c-.27.07-.52-.27-.81-.13a.86.86,0,0,1-1-.07c-.48.17-.91-.35-1.4-.08a2.66,2.66,0,0,0-.8-.22,1.6,1.6,0,0,1-1-.12.64.64,0,0,0-.39-.07c-.28,0-.56,0-.84,0a3.3,3.3,0,0,0-.83,0c-.42.09-.6-.35-.93-.4a7.05,7.05,0,0,1-1.22-.32,3.19,3.19,0,0,0-1.23-.26.41.41,0,0,1-.35-.19,5.63,5.63,0,0,0-1.12-.83c-.32-.13-.72,0-1-.34-.13-.17-.26-.35-.51-.33s-.43-.34-.7-.41a.82.82,0,0,0-.41,0,1.81,1.81,0,0,0-.4.19l-.08-.44a.61.61,0,0,0-.4-.45c-.33-.1-.73,0-1-.23s-.72-.67-1.07-1a1.92,1.92,0,0,1-1.33-.58c-.15-.14-.22-.39-.38-.5a9.5,9.5,0,0,1-1.28-1,3.43,3.43,0,0,0-.75-.36c-.12-.06-.23-.15-.36-.21a2.72,2.72,0,0,1-.57-.27c-.19-.14,0-.4,0-.61-.56-.32-.72-1-1.16-1.39a1.48,1.48,0,0,0-.54-.29c-.16-.06-.25-.15-.18-.34s.17-.41-.09-.55c-.43-.23-.85-.49-1.27-.74-.1-.42-.61-.53-.69-1a1.71,1.71,0,0,0-1-1.27,1.07,1.07,0,0,1-.65-1,.78.78,0,0,0-.4-.7,1.34,1.34,0,0,1-.74-1.19A1.82,1.82,0,0,0,5.82,95a1.4,1.4,0,0,1-.64-1.26c0-.25-.17-.37-.34-.5a.86.86,0,0,1-.41-.71,1.44,1.44,0,0,0-.26-1.2c-.09-.11,0-.26.09-.38a.56.56,0,0,0,.1-.78,6.38,6.38,0,0,1-.82-1.2c-.12-.39-.55-.67-.48-1.12s-.41-.86-.58-1.32a1.22,1.22,0,0,1-.1-1,1.48,1.48,0,0,0,0-1.43,2.37,2.37,0,0,1-.21-1.18c-.11-1.32-.08-2.65-.16-4a2.15,2.15,0,0,0-.08-.81A2.64,2.64,0,0,1,2,75.64,3.5,3.5,0,0,0,2.27,74a1.77,1.77,0,0,1,.08-1c.14-.28,0-.7.08-1a1,1,0,0,0-.13-.79c-.09-.19-.19-.36,0-.58.32-.4.58-.82.85-1.23s.35-1,.76-1.47,0-.8,0-1.21a6.63,6.63,0,0,1,.19-1.25c.08-.39.34-.57.8-.6s.4-.14.32-.4-.26-.69.12-1a1.73,1.73,0,0,0,.54-1.11c.06-.26,0-.58.31-.72s.1-.55.42-.67c.17-.07.18-.21.06-.37s-.25-.29-.22-.38c.08-.24.33-.1.54-.08a3.42,3.42,0,0,0,.45,0c.18,0,.32-.09.27-.2a1.25,1.25,0,0,0-.32-.33,1.13,1.13,0,0,0-.22-.11c.2-.2.35-.46.59-.58a.91.91,0,0,0,.46-.64c.13-.4.73-.45.75-1,0-.09.23-.14.34-.22s.29-.17.29-.27c0-.81.73-1.19.84-1.93a.29.29,0,0,1,.31-.24c.22,0,.45,0,.66-.06a.9.9,0,0,0,.73-.68,1.13,1.13,0,0,1,.81-.86c.3-.1.26-.65.69-.72a2.52,2.52,0,0,0,1.53-1,8.68,8.68,0,0,0,.84-.88,1.34,1.34,0,0,1,1-.71,2.74,2.74,0,0,0,1.32-.59c.38-.26.53-.88,1.14-.81.17-.23.34-.46.52-.68s.43-.06.56.1c.3.39.39.43.61.23s.19-.39.46-.36A1.52,1.52,0,0,0,23.06,47a1.12,1.12,0,0,1,1.27-.52,1.9,1.9,0,0,1,1.15-.28.79.79,0,0,0,.54-.26,8.61,8.61,0,0,1,.9-.91,2.57,2.57,0,0,1,.73-.39.77.77,0,0,1,1,.29c.15.2.25.19.29-.06s.07-.51.34-.44a3.63,3.63,0,0,0,1.23,0,6,6,0,0,1,2.07-.14c.37.09.46-.14.54-.47a.29.29,0,0,1,.15-.16c.13,0,.29-.11.4,0,.31.19.59.45.9.65a.4.4,0,0,0,.56-.08c.16-.19.36-.11.57-.09s.26-.29.4-.43a.24.24,0,0,1,.17-.08c.39.17.76.37,1.14.58a.47.47,0,0,0,.58,0l.51-.42c.27-.23.52.15.79,0a.75.75,0,0,1,.8,0,7.82,7.82,0,0,1,.72.45.68.68,0,0,0,.77.08,2.43,2.43,0,0,1,1-.27c.33,0,.61.33.93.44a2.53,2.53,0,0,0,1.84.11c.18-.07.4.06.47.32l.06.23a.68.68,0,0,0,1.18.3c.23-.18.26-.19.47.29a.4.4,0,0,0,.3.28c.26.06.56-.1.78.15s.64-.15,1-.15c.16,0,.26,0,.28.23s-.06.49.28.45a6.07,6.07,0,0,1,.85,0c.25,0,.32.17.39.41.15.59.18.59.72.36.38-.16.51-.1.55.29a2.46,2.46,0,0,1,0,.47c0,.17,0,.3.19.31a2.66,2.66,0,0,1,2,1.23c0,.06.27,0,.41-.06a.44.44,0,0,0,.2-.13c.53-.51.54-.52.91-.15.12.12,0,.23-.1.38s-.33.66-.15.78a1.82,1.82,0,0,1,.74.64c.22.41.6.51,1.1.24.16-.08.28,0,.33.16l.1.41c.08.3.17.33.43.13.59-.45.61-.46.79,0a.91.91,0,0,0,.73.67c.34,0,.47.22.46.58a1.17,1.17,0,0,0,.11.62,3.6,3.6,0,0,0,1.46,1.41c.24.12.61.06.83.21s.35.62.64.76a1.23,1.23,0,0,1,.73.93c.1.56.63.92.64,1.53,0,.11.15.22.28.28.3.13.35.4.4.68s.13.21.32.19a2.26,2.26,0,0,1,.45,0s.1.09.14.15,0,.24-.12.33c-.61.39-.68.62-.3,1a2.08,2.08,0,0,1,.32.27,1,1,0,0,0,1.21.26c.34-.11.41,0,.26.28A2.42,2.42,0,0,0,68,63.82a6.39,6.39,0,0,0,.66,1.49.83.83,0,0,0,.67.48c.34,0,.56.2.53.54a8.09,8.09,0,0,1-.13,2.09c-.3.66.06,1.06.48,1.46.25.24.59.42.87.65a.67.67,0,0,1,.23.35c.09.33-.05.66.07,1,.07.18-.3.28-.5.38a2.43,2.43,0,0,0-.32.24l.2.1a5,5,0,0,1,.8.4.9.9,0,0,1,.29.77.56.56,0,0,1-.36.51c-.22.11-.21.2,0,.29s.37.16.36.24c0,.64.39,1.17.36,1.82a13.64,13.64,0,0,0,.1,1.68.42.42,0,0,0,.48.37C72.94,78.68,73.07,78.62,73.1,78.45Z"/><circle class="cls-2" cx="108.92" cy="36.7" r="36"/><path d="M145.1,36.45a2.68,2.68,0,0,0,.11-.63,5.47,5.47,0,0,1,.24-1.5c.17-.63-.26-1.12-.4-1.67,0-.14-.07-.28-.09-.43l-.2-1.5a4,4,0,0,1,0-1.3c.07-.52-.52-.88-.53-1.4a3.59,3.59,0,0,0,0-.87c-.09-.34-.35-.63-.45-1-.36-1-.79-2-1.14-3-.28-.86-.75-1.64-1.11-2.47l-.57-1.23-.67-1.17a5.27,5.27,0,0,0-1.1-1.83,1.91,1.91,0,0,1-.42-.74,1.12,1.12,0,0,0-.33-.55,10.92,10.92,0,0,1-1.72-1.94L134.62,11c-.75-.67-1.51-1.34-2.25-2-.94-.84-2-1.54-3-2.3s-2.17-1.3-3.25-1.94a9,9,0,0,1-2.44-1.41.61.61,0,0,0-.36-.19,5.52,5.52,0,0,1-2.26-.69,2.15,2.15,0,0,0-1.27-.14.4.4,0,0,1-.37-.16,1.31,1.31,0,0,0-.51-.37l-2.32-.55a8.32,8.32,0,0,1-2.7-.76c-.73,0-1.39-.46-2.13-.36-1.08.12-2.19-.39-3.24.16a.51.51,0,0,1-.42,0,2.13,2.13,0,0,0-1.49-.06c-.48.11-1-.21-1.49.1-.09.08-.27,0-.42,0-.5,0-1,0-1.52.11S102,.6,101.46.73a15.41,15.41,0,0,0-1.66.56c-.55.23-1.17,0-1.71.26L97.32,2c-.12.07-.24.2-.37.22a12.63,12.63,0,0,0-2.42.69c-.76.36-1.5.76-2.27,1.09a2.15,2.15,0,0,0-1.07.73.49.49,0,0,1-.36.21,6.28,6.28,0,0,0-2,.94C88,6.31,87.34,7,86.56,7.52l-1,.77-1,.86c-.63.58-1.29,1.13-1.89,1.74l-1.75,1.9a24,24,0,0,0-1.6,2c-.18.23-.33.49-.52.71A1.74,1.74,0,0,0,78.47,17c-.4-.19-.81-.19-1,.19-.28.58-.94,1-.88,1.72a3.7,3.7,0,0,1-1.07,1.89.54.54,0,0,0-.19.38,1.3,1.3,0,0,1-.52.93,1.3,1.3,0,0,0-.38,1A5,5,0,0,1,74,25.26c-.32.85-.48,1.76-.74,2.64l-.36,1.32c-.08.45-.14.9-.22,1.35a10,10,0,0,1-.58,2.58c-.07.19.07.44,0,.64a4.33,4.33,0,0,0,0,1.72,8.18,8.18,0,0,1,0,1.31,2.56,2.56,0,0,0,.35,1.27.2.2,0,0,1,0,.2c-.54,1.12,0,2.32-.21,3.47,0,.12.12.26.19.4a.76.76,0,0,1,.15.62,4.15,4.15,0,0,0,.11,1.95c0,.42.37.82.4,1.24a3.05,3.05,0,0,0,.57,1.62,5.47,5.47,0,0,0,.69.85.4.4,0,0,1,0,.59.83.83,0,0,0-.19.84c.19.52.33,1.06.56,1.56L75.43,53a1.9,1.9,0,0,0,.26.37.79.79,0,0,0,.6.22c.35,0,.38.07.19.4s-.24.44-.13.63L77.4,56.4a13.68,13.68,0,0,0,1.14,1.77c.19.26.52.25.85.2s.3.06.21.26a1,1,0,0,0,.08,1.06,17.83,17.83,0,0,0,1.86,2.21c.36.37.67.79,1,1.17a3.86,3.86,0,0,0,1.3.87,7.5,7.5,0,0,0,2,2,3.27,3.27,0,0,0,1,.51.6.6,0,0,1,.3.29c.22.45.77.38,1.06.75a6,6,0,0,0,1,.81,17,17,0,0,0,2.09,1.26c.74.33,1.49.66,2.21,1a6.41,6.41,0,0,0,2.51.86c.25,0,.38.21.57.29.48.18.93.47,1.42.61a3.24,3.24,0,0,0,1.55.13c.37.31.89.08,1.25.29a4,4,0,0,0,2.76.54,1.91,1.91,0,0,0,1.29.14,1.47,1.47,0,0,1,.86,0c.49.26,1,0,1.5.18a7.52,7.52,0,0,0,1.76.23l2.22-.1a20.57,20.57,0,0,0,2.21-.18,6.33,6.33,0,0,0,2.35-.56c.67.11,1.17-.5,1.9-.36a2.67,2.67,0,0,0,1.88-.53c.17-.11.42-.27.59-.24.56.15.9-.52,1.45-.34a3.07,3.07,0,0,1,1.43-.47c.31,0,.51-.26.71-.5a.78.78,0,0,1,.77-.32,1.53,1.53,0,0,0,.87-.17c.52-.27,1.08-.5,1.58-.82a4.68,4.68,0,0,1,1.21-.53,3.84,3.84,0,0,0,2.38-1.58,1,1,0,0,1,.72-.47,1.48,1.48,0,0,0,.63-.22c.34-.24.69-.46,1-.71a3.39,3.39,0,0,0,.76-1,1.08,1.08,0,0,1,.61-.61c.36-.13.43-.57.86-.66.28-.06.34-.44.61-.61a3.62,3.62,0,0,0,.83-.74c.5-.55,1-1.09,1.51-1.66l1.35-1.8a9.27,9.27,0,0,0,1.78-3.09,2.21,2.21,0,0,1,.62-.9,2.93,2.93,0,0,0,.46-1c.13-.34.47-.58.63-.91a38.11,38.11,0,0,0,1.88-4.59c.18-.42-.09-.93.18-1.31a4.09,4.09,0,0,0,.5-1.25,29.65,29.65,0,0,0,.86-4.19,10.4,10.4,0,0,1,.32-1.55,1.3,1.3,0,0,0,.05-.65,4.37,4.37,0,0,0-.82-2.08,2.39,2.39,0,0,0-.76-.5c-.26-.13-.75.08-.77.31l-.14,2a14.9,14.9,0,0,1-.21,2c-.16,1-.28,1.95-.46,2.92L143.08,46a13.85,13.85,0,0,1-.61,2l-.82,2.18c-.44,1-1,2-1.46,3a6.5,6.5,0,0,0-.47,1.17c-.13.54-.67.72-.92,1.14l-.49.81c-.18.26-.38.51-.57.76-.39.5-.78,1-1.13,1.53a32,32,0,0,1-4.52,4.72,2.34,2.34,0,0,1-1.26.74,1.31,1.31,0,0,0-1,.75.86.86,0,0,1-.62.51,1.23,1.23,0,0,0-.84.57,1.82,1.82,0,0,1-.57.6,10.11,10.11,0,0,1-3.38,1.68,13.31,13.31,0,0,0-1.29.59c-.21.08,0,.66-.43.63a2.39,2.39,0,0,0-.84.1c-1.29.31-2.43,1.19-3.83,1-.06,0-.12.06-.17.1a1.42,1.42,0,0,1-1.17.41,2.63,2.63,0,0,0-1.8.36.46.46,0,0,1-.41.06,1.22,1.22,0,0,0-1.19.17,1.48,1.48,0,0,1-1.44.12,1.44,1.44,0,0,0-1.41.08A3.29,3.29,0,0,0,109,72a1.71,1.71,0,0,0-1.61-.09c-.27.07-.52-.27-.81-.13a.86.86,0,0,1-1-.07c-.48.17-.91-.35-1.4-.08a2.66,2.66,0,0,0-.8-.22,1.6,1.6,0,0,1-1-.12.64.64,0,0,0-.39-.07c-.28,0-.56,0-.84,0a3.3,3.3,0,0,0-.83,0c-.42.09-.6-.35-.93-.4a7.05,7.05,0,0,1-1.22-.32A3.19,3.19,0,0,0,97,70.19a.41.41,0,0,1-.35-.19,5.63,5.63,0,0,0-1.12-.83c-.32-.13-.72,0-1-.34-.13-.17-.26-.35-.51-.33s-.43-.34-.7-.41a.82.82,0,0,0-.41,0,1.81,1.81,0,0,0-.4.19l-.08-.44a.61.61,0,0,0-.4-.45c-.33-.1-.73,0-1-.23s-.72-.67-1.07-1a1.92,1.92,0,0,1-1.33-.58c-.15-.14-.22-.39-.38-.5a9.5,9.5,0,0,1-1.28-1,3.43,3.43,0,0,0-.75-.36c-.12-.06-.23-.15-.36-.21a2.72,2.72,0,0,1-.57-.27c-.19-.14,0-.4,0-.61-.56-.32-.72-1-1.16-1.39a1.48,1.48,0,0,0-.54-.29c-.16-.06-.25-.15-.18-.34s.17-.41-.09-.55c-.43-.23-.85-.49-1.27-.74-.1-.42-.61-.53-.69-1a1.71,1.71,0,0,0-1-1.27,1.07,1.07,0,0,1-.65-1,.78.78,0,0,0-.4-.7,1.34,1.34,0,0,1-.74-1.19A1.82,1.82,0,0,0,77.82,53a1.4,1.4,0,0,1-.64-1.26c0-.25-.17-.37-.34-.5a.86.86,0,0,1-.41-.71,1.44,1.44,0,0,0-.26-1.2c-.09-.11,0-.26.09-.38a.56.56,0,0,0,.1-.78,6.38,6.38,0,0,1-.82-1.2c-.12-.39-.55-.67-.48-1.12s-.41-.86-.58-1.32a1.22,1.22,0,0,1-.1-1,1.48,1.48,0,0,0,0-1.43,2.37,2.37,0,0,1-.21-1.18c-.11-1.32-.08-2.65-.16-4a2.15,2.15,0,0,0-.08-.81,2.64,2.64,0,0,1,0-2.43A3.5,3.5,0,0,0,74.27,32a1.77,1.77,0,0,1,.08-1c.14-.28,0-.7.08-1a1,1,0,0,0-.13-.79c-.09-.19-.19-.36,0-.58.32-.4.58-.82.85-1.23s.35-1,.76-1.47,0-.8,0-1.21a6.63,6.63,0,0,1,.19-1.25c.08-.39.34-.57.8-.6s.4-.14.32-.4-.26-.69.12-.95a1.73,1.73,0,0,0,.54-1.11c.06-.26,0-.58.31-.72s.1-.55.42-.67.18-.21.06-.37-.25-.29-.22-.38c.08-.24.33-.1.54-.08a3.42,3.42,0,0,0,.45,0c.18,0,.32-.09.27-.2a1.25,1.25,0,0,0-.32-.33,1.13,1.13,0,0,0-.22-.11c.2-.2.35-.46.59-.58a.91.91,0,0,0,.46-.64c.13-.4.73-.45.75-1,0-.09.23-.14.34-.22s.29-.17.29-.27c0-.81.73-1.19.84-1.93a.29.29,0,0,1,.31-.24c.22,0,.45,0,.66-.06a.9.9,0,0,0,.73-.68,1.13,1.13,0,0,1,.81-.86c.3-.1.26-.65.69-.72a2.52,2.52,0,0,0,1.53-1A8.68,8.68,0,0,0,88,8.46a1.34,1.34,0,0,1,1-.71,2.74,2.74,0,0,0,1.32-.59c.38-.26.53-.88,1.14-.81.17-.23.34-.46.52-.68s.43-.06.56.1c.3.39.39.43.61.23s.19-.39.46-.36A1.52,1.52,0,0,0,95.06,5a1.12,1.12,0,0,1,1.27-.52,1.9,1.9,0,0,1,1.15-.28A.79.79,0,0,0,98,3.94a8.61,8.61,0,0,1,.9-.91,2.57,2.57,0,0,1,.73-.39.77.77,0,0,1,1,.29c.15.2.25.19.29-.06s.07-.51.34-.44a3.63,3.63,0,0,0,1.23,0,6,6,0,0,1,2.07-.14c.37.09.46-.14.54-.47a.29.29,0,0,1,.15-.16c.13-.05.29-.11.4-.05.31.19.59.45.9.65a.4.4,0,0,0,.56-.08c.16-.19.36-.11.57-.09s.26-.29.4-.43a.24.24,0,0,1,.17-.08c.39.17.76.37,1.14.58a.47.47,0,0,0,.58,0l.51-.42c.27-.23.52.15.79,0a.75.75,0,0,1,.8,0,7.82,7.82,0,0,1,.72.45.68.68,0,0,0,.77.08,2.43,2.43,0,0,1,1-.27c.33,0,.61.33.93.44a2.53,2.53,0,0,0,1.84.11c.18-.07.4.06.47.32l.06.23a.68.68,0,0,0,1.18.3c.23-.18.26-.19.47.29a.4.4,0,0,0,.3.28c.26.06.56-.1.78.15s.64-.15,1-.15c.16,0,.26,0,.28.23s-.06.49.28.45a6.07,6.07,0,0,1,.85,0c.25,0,.32.17.39.41.15.59.18.59.72.36.38-.16.51-.1.55.29a2.46,2.46,0,0,1,0,.47c0,.17.05.3.19.31a2.66,2.66,0,0,1,2,1.23c.05.06.27,0,.41-.06a.44.44,0,0,0,.2-.13c.53-.51.54-.52.91-.15.12.12,0,.23-.1.38s-.33.66-.15.78a1.82,1.82,0,0,1,.74.64c.22.41.6.51,1.1.24.16-.08.28,0,.33.16l.1.41c.08.3.17.33.43.13.59-.45.61-.46.79,0a.91.91,0,0,0,.73.67c.34,0,.47.22.46.58a1.17,1.17,0,0,0,.11.62,3.6,3.6,0,0,0,1.46,1.41c.24.12.61.06.83.21s.35.62.64.76a1.23,1.23,0,0,1,.73.93c.1.56.63.92.64,1.53,0,.11.15.22.28.28.3.13.35.4.4.68s.13.21.32.19a2.26,2.26,0,0,1,.45,0c.05,0,.1.09.14.15s0,.24-.12.33c-.61.39-.68.62-.3,1a2.08,2.08,0,0,1,.32.27,1,1,0,0,0,1.21.26c.34-.11.41,0,.26.28a2.42,2.42,0,0,0-.19,1.69,6.39,6.39,0,0,0,.66,1.49.83.83,0,0,0,.67.48c.34,0,.56.2.53.54a8.09,8.09,0,0,1-.13,2.09c-.3.66.06,1.06.48,1.46.25.24.59.42.87.65a.67.67,0,0,1,.23.35c.09.33,0,.66.07,1,.07.18-.3.28-.5.38a2.43,2.43,0,0,0-.32.24l.2.1a5,5,0,0,1,.8.4.9.9,0,0,1,.29.77.56.56,0,0,1-.36.51c-.22.11-.21.2,0,.29s.37.16.36.24c-.05.64.39,1.17.36,1.82a13.64,13.64,0,0,0,.1,1.68.42.42,0,0,0,.48.37C144.94,36.68,145.07,36.62,145.1,36.45Z"/><circle class="cls-3" cx="116.92" cy="114.7" r="36"/><path d="M153.1,114.45a2.68,2.68,0,0,0,.11-.63,5.47,5.47,0,0,1,.24-1.5c.17-.63-.26-1.12-.4-1.67,0-.14-.07-.28-.09-.43l-.2-1.5a4,4,0,0,1,0-1.3c.07-.52-.52-.88-.53-1.4a3.59,3.59,0,0,0,0-.87c-.09-.34-.35-.63-.45-1-.36-1-.79-2-1.14-3-.28-.86-.75-1.64-1.11-2.47l-.57-1.23-.67-1.17a5.27,5.27,0,0,0-1.1-1.83,1.91,1.91,0,0,1-.42-.74,1.12,1.12,0,0,0-.33-.55,10.92,10.92,0,0,1-1.72-1.94L142.62,89c-.75-.67-1.51-1.34-2.25-2-.94-.84-2-1.54-3-2.3s-2.17-1.3-3.25-1.94a9,9,0,0,1-2.44-1.41.61.61,0,0,0-.36-.19,5.52,5.52,0,0,1-2.26-.69,2.15,2.15,0,0,0-1.27-.14.4.4,0,0,1-.37-.16,1.31,1.31,0,0,0-.51-.37l-2.32-.55a8.32,8.32,0,0,1-2.7-.76c-.73,0-1.39-.46-2.13-.36-1.08.12-2.19-.39-3.24.16a.51.51,0,0,1-.42,0,2.13,2.13,0,0,0-1.49-.06c-.48.11-1-.21-1.49.1-.09.08-.27,0-.42,0-.5,0-1,0-1.52.11s-1.16.18-1.72.31a15.41,15.41,0,0,0-1.66.56c-.55.23-1.17,0-1.71.26l-.77.41c-.12.07-.24.2-.37.22a12.63,12.63,0,0,0-2.42.69c-.76.36-1.5.76-2.27,1.09a2.15,2.15,0,0,0-1.07.73.49.49,0,0,1-.36.21,6.28,6.28,0,0,0-2,.94c-.83.47-1.52,1.14-2.3,1.68l-1,.77-1,.86c-.63.58-1.29,1.13-1.89,1.74l-1.75,1.9a24,24,0,0,0-1.6,2c-.18.23-.33.49-.52.71A1.74,1.74,0,0,0,86.47,95c-.4-.19-.81-.19-1,.19-.28.58-.94,1-.88,1.72a3.7,3.7,0,0,1-1.07,1.89.54.54,0,0,0-.19.38,1.3,1.3,0,0,1-.52.93,1.3,1.3,0,0,0-.38,1,5,5,0,0,1-.48,2.14c-.32.85-.48,1.76-.74,2.64l-.36,1.32c-.08.45-.14.9-.22,1.35a10,10,0,0,1-.58,2.58c-.07.19.07.44,0,.64a4.33,4.33,0,0,0,0,1.72,8.18,8.18,0,0,1,0,1.31,2.56,2.56,0,0,0,.35,1.27.2.2,0,0,1,0,.2c-.54,1.12,0,2.32-.21,3.47,0,.12.12.26.19.4a.76.76,0,0,1,.15.62,4.15,4.15,0,0,0,.11,2c0,.42.37.82.4,1.24a3.05,3.05,0,0,0,.57,1.62,5.47,5.47,0,0,0,.69.85.4.4,0,0,1,0,.59.83.83,0,0,0-.19.84c.19.52.33,1.06.56,1.56l.68,1.52a1.9,1.9,0,0,0,.26.37.79.79,0,0,0,.6.22c.35,0,.38.07.19.4s-.24.44-.13.63l1.05,1.83a13.68,13.68,0,0,0,1.14,1.77c.19.26.52.25.85.2s.3.06.21.26a1,1,0,0,0,.08,1.06,17.83,17.83,0,0,0,1.86,2.21c.36.37.67.79,1,1.17a3.86,3.86,0,0,0,1.3.87,7.5,7.5,0,0,0,2,2,3.27,3.27,0,0,0,1,.51.6.6,0,0,1,.3.29c.22.45.77.38,1.06.75a6,6,0,0,0,1,.81,17,17,0,0,0,2.09,1.26c.74.33,1.49.66,2.21,1a6.41,6.41,0,0,0,2.51.86c.25,0,.38.21.57.29.48.18.93.47,1.42.61a3.24,3.24,0,0,0,1.55.13c.37.31.89.08,1.25.29a4,4,0,0,0,2.76.54,1.91,1.91,0,0,0,1.29.14,1.47,1.47,0,0,1,.86.05c.49.26,1,0,1.5.18a7.52,7.52,0,0,0,1.76.23l2.22-.1a20.57,20.57,0,0,0,2.21-.18,6.33,6.33,0,0,0,2.35-.56c.67.11,1.17-.5,1.9-.36a2.67,2.67,0,0,0,1.88-.53c.17-.11.42-.27.59-.24.56.15.9-.52,1.45-.34a3.07,3.07,0,0,1,1.43-.47c.31,0,.51-.26.71-.5a.78.78,0,0,1,.77-.32,1.53,1.53,0,0,0,.87-.17c.52-.27,1.08-.5,1.58-.82a4.68,4.68,0,0,1,1.21-.53,3.84,3.84,0,0,0,2.38-1.58,1,1,0,0,1,.72-.47,1.48,1.48,0,0,0,.63-.22c.34-.24.69-.46,1-.71a3.39,3.39,0,0,0,.76-1,1.08,1.08,0,0,1,.61-.61c.36-.13.43-.57.86-.66.28-.06.34-.44.61-.61a3.62,3.62,0,0,0,.83-.74c.5-.55,1-1.09,1.51-1.66l1.35-1.8a9.27,9.27,0,0,0,1.78-3.09,2.21,2.21,0,0,1,.62-.9,2.93,2.93,0,0,0,.46-1c.13-.34.47-.58.63-.91a38.11,38.11,0,0,0,1.88-4.59c.18-.42-.09-.93.18-1.31a4.09,4.09,0,0,0,.5-1.25,29.65,29.65,0,0,0,.86-4.19,10.4,10.4,0,0,1,.32-1.55,1.3,1.3,0,0,0,.05-.65,4.37,4.37,0,0,0-.82-2.08,2.39,2.39,0,0,0-.76-.5c-.26-.13-.75.08-.77.31l-.14,2a14.9,14.9,0,0,1-.21,2c-.16,1-.28,2-.46,2.92l-.53,2a13.85,13.85,0,0,1-.61,2l-.82,2.18c-.44,1-1,2-1.46,3a6.5,6.5,0,0,0-.47,1.17c-.13.54-.67.72-.92,1.14l-.49.81c-.18.26-.38.51-.57.76-.39.5-.78,1-1.13,1.53a32,32,0,0,1-4.52,4.72,2.34,2.34,0,0,1-1.26.74,1.31,1.31,0,0,0-1,.75.86.86,0,0,1-.62.51,1.23,1.23,0,0,0-.84.57,1.82,1.82,0,0,1-.57.6,10.11,10.11,0,0,1-3.38,1.68,13.31,13.31,0,0,0-1.29.59c-.21.08,0,.66-.43.63a2.39,2.39,0,0,0-.84.1c-1.29.31-2.43,1.19-3.83,1-.06,0-.12.06-.17.1a1.42,1.42,0,0,1-1.17.41,2.63,2.63,0,0,0-1.8.36.46.46,0,0,1-.41.06,1.22,1.22,0,0,0-1.19.17,1.48,1.48,0,0,1-1.44.12,1.44,1.44,0,0,0-1.41.08A3.29,3.29,0,0,0,117,150a1.71,1.71,0,0,0-1.61-.09c-.27.07-.52-.27-.81-.13a.86.86,0,0,1-1-.07c-.48.17-.91-.35-1.4-.08a2.66,2.66,0,0,0-.8-.22,1.6,1.6,0,0,1-1-.12.64.64,0,0,0-.39-.07c-.28,0-.56,0-.84,0a3.3,3.3,0,0,0-.83,0c-.42.09-.6-.35-.93-.4a7.05,7.05,0,0,1-1.22-.32,3.19,3.19,0,0,0-1.23-.26.41.41,0,0,1-.35-.19,5.63,5.63,0,0,0-1.12-.83c-.32-.13-.72,0-1-.34-.13-.17-.26-.35-.51-.33s-.43-.34-.7-.41a.82.82,0,0,0-.41,0,1.81,1.81,0,0,0-.4.19l-.08-.44a.61.61,0,0,0-.4-.45c-.33-.1-.73,0-1-.23s-.72-.67-1.07-1a1.92,1.92,0,0,1-1.33-.58c-.15-.14-.22-.39-.38-.5a9.5,9.5,0,0,1-1.28-1,3.43,3.43,0,0,0-.75-.36c-.12-.06-.23-.15-.36-.21a2.72,2.72,0,0,1-.57-.27c-.19-.14,0-.4,0-.61-.56-.32-.72-1-1.16-1.39a1.48,1.48,0,0,0-.54-.29c-.16-.06-.25-.15-.18-.34s.17-.41-.09-.55c-.43-.23-.85-.49-1.27-.74-.1-.42-.61-.53-.69-1a1.71,1.71,0,0,0-1-1.27,1.07,1.07,0,0,1-.65-1,.78.78,0,0,0-.4-.7,1.34,1.34,0,0,1-.74-1.19,1.82,1.82,0,0,0-.69-1.25,1.4,1.4,0,0,1-.64-1.26c0-.25-.17-.37-.34-.5a.86.86,0,0,1-.41-.71,1.44,1.44,0,0,0-.26-1.2c-.09-.11,0-.26.09-.38a.56.56,0,0,0,.1-.78,6.38,6.38,0,0,1-.82-1.2c-.12-.39-.55-.67-.48-1.12s-.41-.86-.58-1.32a1.22,1.22,0,0,1-.1-1,1.48,1.48,0,0,0,0-1.43,2.37,2.37,0,0,1-.21-1.18c-.11-1.32-.08-2.65-.16-4a2.15,2.15,0,0,0-.08-.81,2.64,2.64,0,0,1,0-2.43,3.5,3.5,0,0,0,.29-1.63,1.77,1.77,0,0,1,.08-1c.14-.28,0-.7.08-1a1,1,0,0,0-.13-.79c-.09-.19-.19-.36,0-.58.32-.4.58-.82.85-1.23s.35-1,.76-1.47,0-.8,0-1.21a6.63,6.63,0,0,1,.19-1.25c.08-.39.34-.57.8-.6s.4-.14.32-.4-.26-.69.12-1a1.73,1.73,0,0,0,.54-1.11c.06-.26,0-.58.31-.72s.1-.55.42-.67.18-.21.06-.37-.25-.29-.22-.38.33-.1.54-.08a3.42,3.42,0,0,0,.45,0c.18,0,.32-.09.27-.2a1.25,1.25,0,0,0-.32-.33,1.13,1.13,0,0,0-.22-.11c.2-.2.35-.46.59-.58a.91.91,0,0,0,.46-.64c.13-.4.73-.45.75-1,0-.09.23-.14.34-.22s.29-.17.29-.27c0-.81.73-1.19.84-1.93a.29.29,0,0,1,.31-.24c.22,0,.45,0,.66-.06a.9.9,0,0,0,.73-.68,1.13,1.13,0,0,1,.81-.86c.3-.1.26-.65.69-.72a2.52,2.52,0,0,0,1.53-1,8.68,8.68,0,0,0,.84-.88,1.34,1.34,0,0,1,1-.71,2.74,2.74,0,0,0,1.32-.59c.38-.26.53-.88,1.14-.81.17-.23.34-.46.52-.68s.43-.06.56.1c.3.39.39.43.61.23s.19-.39.46-.36a1.52,1.52,0,0,0,1.46-.64,1.12,1.12,0,0,1,1.27-.52,1.9,1.9,0,0,1,1.15-.28.79.79,0,0,0,.54-.26,8.61,8.61,0,0,1,.9-.91,2.57,2.57,0,0,1,.73-.39.77.77,0,0,1,1,.29c.15.2.25.19.29-.06s.07-.51.34-.44a3.63,3.63,0,0,0,1.23,0,6,6,0,0,1,2.07-.14c.37.09.46-.14.54-.47a.29.29,0,0,1,.15-.16c.13-.05.29-.11.4-.05.31.19.59.45.9.65a.4.4,0,0,0,.56-.08c.16-.19.36-.11.57-.09s.26-.29.4-.43a.24.24,0,0,1,.17-.08c.39.17.76.37,1.14.58a.47.47,0,0,0,.58,0l.51-.42c.27-.23.52.15.79,0a.75.75,0,0,1,.8,0,7.82,7.82,0,0,1,.72.45.68.68,0,0,0,.77.08,2.43,2.43,0,0,1,1-.27c.33,0,.61.33.93.44a2.53,2.53,0,0,0,1.84.11c.18-.07.4.06.47.32l.06.23a.68.68,0,0,0,1.18.3c.23-.18.26-.19.47.29a.4.4,0,0,0,.3.28c.26.06.56-.1.78.15s.64-.15,1-.15c.16,0,.26,0,.28.23s-.06.49.28.45a6.07,6.07,0,0,1,.85,0c.25,0,.32.17.39.41.15.59.18.59.72.36.38-.16.51-.1.55.29a2.46,2.46,0,0,1,0,.47c0,.17.05.3.19.31a2.66,2.66,0,0,1,2,1.23c.05.06.27,0,.41-.06a.44.44,0,0,0,.2-.13c.53-.51.54-.52.91-.15.12.12,0,.23-.1.38s-.33.66-.15.78a1.82,1.82,0,0,1,.74.64c.22.41.6.51,1.1.24.16-.08.28,0,.33.16l.1.41c.08.3.17.33.43.13.59-.45.61-.46.79,0a.91.91,0,0,0,.73.67c.34,0,.47.22.46.58a1.17,1.17,0,0,0,.11.62,3.6,3.6,0,0,0,1.46,1.41c.24.12.61.06.83.21s.35.62.64.76a1.23,1.23,0,0,1,.73.93c.1.56.63.92.64,1.53,0,.11.15.22.28.28.3.13.35.4.4.68s.13.21.32.19a2.26,2.26,0,0,1,.45,0c.05,0,.1.09.14.15s0,.24-.12.33c-.61.39-.68.62-.3,1a2.08,2.08,0,0,1,.32.27,1,1,0,0,0,1.21.26c.34-.11.41,0,.26.28a2.42,2.42,0,0,0-.19,1.69,6.39,6.39,0,0,0,.66,1.49.83.83,0,0,0,.67.48c.34,0,.56.2.53.54a8.09,8.09,0,0,1-.13,2.09c-.3.66.06,1.06.48,1.46.25.24.59.42.87.65a.67.67,0,0,1,.23.35c.09.33,0,.66.07,1,.07.18-.3.28-.5.38a2.43,2.43,0,0,0-.32.24l.2.1a5,5,0,0,1,.8.4.9.9,0,0,1,.29.77.56.56,0,0,1-.36.51c-.22.11-.21.2,0,.29s.37.16.36.24c-.05.64.39,1.17.36,1.82a13.64,13.64,0,0,0,.1,1.68.42.42,0,0,0,.48.37C152.94,114.68,153.07,114.62,153.1,114.45Z"/></svg>