<?xml version="1.0" encoding="UTF-8" standalone="no"?>
<svg
   xmlns:dc="http://purl.org/dc/elements/1.1/"
   xmlns:cc="http://creativecommons.org/ns#"
   xmlns:rdf="http://www.w3.org/1999/02/22-rdf-syntax-ns#"
   xmlns:svg="http://www.w3.org/2000/svg"
   xmlns="http://www.w3.org/2000/svg"
   xmlns:sodipodi="http://sodipodi.sourceforge.net/DTD/sodipodi-0.dtd"
   xmlns:inkscape="http://www.inkscape.org/namespaces/inkscape"
   id="Layer_1"
   data-name="Layer 1"
   viewBox="0 0 127.1 148.78"
   version="1.1"
   sodipodi:docname="back-on.svg"
   inkscape:version="0.92.1 r15371">
  <metadata
     id="metadata13">
    <rdf:RDF>
      <cc:Work
         rdf:about="">
        <dc:format>image/svg+xml</dc:format>
        <dc:type
           rdf:resource="http://purl.org/dc/dcmitype/StillImage" />
        <dc:title></dc:title>
      </cc:Work>
    </rdf:RDF>
  </metadata>
  <sodipodi:namedview
     pagecolor="#ffffff"
     bordercolor="#666666"
     borderopacity="1"
     objecttolerance="10"
     gridtolerance="10"
     guidetolerance="10"
     inkscape:pageopacity="0"
     inkscape:pageshadow="2"
     inkscape:window-width="2256"
     inkscape:window-height="1410"
     id="namedview11"
     showgrid="false"
     inkscape:zoom="1.5862347"
     inkscape:cx="63.549999"
     inkscape:cy="74.389999"
     inkscape:window-x="-11"
     inkscape:window-y="-11"
     inkscape:window-maximized="1"
     inkscape:current-layer="Layer_1" />
  <defs
     id="defs4">
    <style
       id="style2">.cls-1{fill:#faf200;}</style>
  </defs>
  <polygon
     class="cls-1"
     points="0.54 74.43 125.07 146.33 125.07 2.53 0.54 74.43"
     id="polygon6"
     style="fill:#ff0000" />
  <path
     d="M13.52,81.16c2,1.13,3.94,2.23,5.58,3.35.75.5,2.07,1,2.75,1.57.42.35.82.69,1.29,1.06a9.75,9.75,0,0,0,2.72,1.38,6.33,6.33,0,0,1,1.94.9A17.23,17.23,0,0,0,30.57,91c1,.47,2,1,3.08,1.51,2.07,1,3.18,2.19,5.62,3.21a49.82,49.82,0,0,1,5.2,2.83l5.83,3.36a10.83,10.83,0,0,1,1.22.84,15.7,15.7,0,0,0,2.8,1.59l6.07,2.84c.87.41,1.09.64.76.78s.15.53,1.07.93c1.25.55,2.54,1.15,3.74,1.61a18.11,18.11,0,0,1,4.79,2.76c.54.42,1.18.87,1.84,1.31a3.92,3.92,0,0,0,1.27.47,3.65,3.65,0,0,1,1.85.93A18.81,18.81,0,0,0,80,119a52.86,52.86,0,0,0,5.22,2.71,6,6,0,0,1,1.91,1.17L89.32,125a4.2,4.2,0,0,0,1.36.81l2.94,1.23a3.7,3.7,0,0,1,2,1.53,1.5,1.5,0,0,0,1.08.48,7.64,7.64,0,0,1,1.48.16,12.37,12.37,0,0,1,4.18,2.1c.57.45,1.17.92,1.62,1.35a15.41,15.41,0,0,0,3.11,2.24l8.12,4.56a41,41,0,0,1,4.92,3.07,18.44,18.44,0,0,0,4.92,2.75l.49.19-1.47.85c-.2-1.32-.38-2.66-.66-3.83-.44-1.84-.41-1.94.15-4.08a1.92,1.92,0,0,0,0-1.32,5.12,5.12,0,0,1-.32-1.07c.34-2.25.23-5.06.76-7.1a3.32,3.32,0,0,0-.28-2.53,2.42,2.42,0,0,1-.07-1.44,4.71,4.71,0,0,0,0-1.59c-.4-2.24-.19-5.06-.54-7.36.07-1.37.2-2.74.22-4.13a46.79,46.79,0,0,1,.3-6.64,9.82,9.82,0,0,0-.13-2.38c-.19-1.15.17-2.16,0-3.26a7.46,7.46,0,0,1,.27-2.95,6.46,6.46,0,0,0,.09-2.35,33,33,0,0,1-.15-4.14,38.32,38.32,0,0,0,.1-4.1c-.28-1.8-.14-4-.49-5.67a5.27,5.27,0,0,1,.21-2.89A10.61,10.61,0,0,0,123.9,73a36.31,36.31,0,0,1-.14-5.75,18,18,0,0,0-.18-2.39c-.06-.81-.14-1.65-.14-2.47,0-1.71.42-3.16.31-4.92s-.29-3.19-.38-4.83c-.07-1.09-.06-2.26-.06-3.39a38.27,38.27,0,0,1,.34-7.42,15.41,15.41,0,0,0-.13-3.29,10.49,10.49,0,0,1-.11-3.93,3.78,3.78,0,0,0,.06-.8,17.77,17.77,0,0,1,0-4.89,29.73,29.73,0,0,1,.06-4.11c.11-1.34-.31-2.65-.13-4.09a12.55,12.55,0,0,0-.06-3.25,16.71,16.71,0,0,1,0-3.32,17.22,17.22,0,0,0,.08-2.46,72,72,0,0,1-.25-9.17l3,1.71c-1,.51-2,1-3,1.46a24.3,24.3,0,0,0-4.29,2.51A4.58,4.58,0,0,1,116.4,9.3a1.6,1.6,0,0,0-1,.7,4.14,4.14,0,0,1-2.67,1.72,3.85,3.85,0,0,0-1.9.77A20.05,20.05,0,0,1,106.62,15a10.34,10.34,0,0,0-2.12,1.13,15.62,15.62,0,0,1-3.42,2A21.32,21.32,0,0,0,96.27,21a27.17,27.17,0,0,1-4.09,2.6,46.54,46.54,0,0,0-5.7,3.22,5.29,5.29,0,0,1-.72.4,34.94,34.94,0,0,0-7.71,4.44,12.17,12.17,0,0,1-2.12,1.22,30.65,30.65,0,0,0-6.34,3.6,8.19,8.19,0,0,1-1.4.82A106.61,106.61,0,0,0,57.89,43c-2.66,1.54-5.33,3-8.12,4.51a22.23,22.23,0,0,0-2.12,1.2,39.22,39.22,0,0,1-5.77,3.24,24.55,24.55,0,0,0-3.57,2,38.59,38.59,0,0,1-5.72,3.22c-1,.48-2.09,1-3,1.58-2.41,1.39-5.08,2.73-7.33,4.13s-5,2.74-7.3,4.14c-1.37.82-2.46,1.62-4.1,2.44s-2.91,1.62-4.3,2.44C5.3,72.62,4,73.21,2.72,73.81S0,74.65.66,74.1a6.94,6.94,0,0,1,.63-.32c.23-.11.42-.17.62-.25C2.52,73.29,3.1,73,3,72.92c-.59-.16.79-1.09,3.05-2.41,1.24-.72,2.44-1.45,3.77-2.11a19.5,19.5,0,0,0,2.77-1.64A28.58,28.58,0,0,1,16,64.64c4.22-2.21,8.08-4.53,12.05-6.81l3.75-2.12c.48-.27,1.09-.54,1.48-.79,4.46-2.93,9.65-5.78,14.38-8.7,1.42-.88,2.73-1.72,4-2.62a43,43,0,0,1,7.28-4.18c1-.44,2.06-1,3.07-1.46a13.75,13.75,0,0,0,2.18-1.23c3-2.13,6.63-4.14,9.91-6.22A29.67,29.67,0,0,1,81.41,27a1.54,1.54,0,0,0,1-.75,4.35,4.35,0,0,1,1.93-1.65c1.24-.71,2.51-1.37,3.77-2l3-1.52a17,17,0,0,0,3.37-2.23,12.79,12.79,0,0,1,3.42-2.11A28.89,28.89,0,0,0,104.35,13a31.59,31.59,0,0,1,6.48-3.77,25.87,25.87,0,0,0,5.69-3.41,20.4,20.4,0,0,1,4.32-2.5A14.8,14.8,0,0,0,123,2.22c.5-.37.94-.71,1.33-.94L126.47,0l0,2.53c0,.61-.09,1.05-.46,1.22-.14.07-.27.5-.41.76.14.24.27.51.42.72s.33.23.44.57a5.16,5.16,0,0,1,.2,1.44c0,1.38-.21,2.74-.2,4.1s.22,2.72.27,4.12a19.77,19.77,0,0,1-.06,3.31c-.35,2,.09,3.84,0,5.77-.11,1.64-.13,3.37-.13,5.06a33.3,33.3,0,0,0,.35,5.73,17.3,17.3,0,0,1,.08,3.33c0,1.28-.23,2.06-.59,2.35s-.47.27-.71.44a.78.78,0,0,0-.2.42c-.07.36,0,.74.22.85s.64.21,1,.36A3,3,0,0,1,127,45a46.51,46.51,0,0,0-.26,8.3c0,1.39.22,2.74.24,4.13,0,1.09-.15,2.19-.16,3.3,0,.75.3,1.63,0,2.25a5.07,5.07,0,0,0-.22,2.76A22.85,22.85,0,0,1,127,70.5c-.1,1.28.11,2.62,0,4.08a38.57,38.57,0,0,0-.09,5c.11,2.05-.3,3.87-.14,5.76a32.29,32.29,0,0,1-.14,5,54,54,0,0,0,.22,9.19,42.38,42.38,0,0,1,.09,9.15,57.28,57.28,0,0,0-.19,6.71,69.71,69.71,0,0,1-.18,9.27,14.2,14.2,0,0,0,0,2.45,85.31,85.31,0,0,1-.12,12.59,34.5,34.5,0,0,0,0,4.21c0,.81.07,1.61.13,2.41l.18,2.45-2.4-1.17-1.57-.77c-2.38-1.78-5.41-3.21-7.76-5a5.93,5.93,0,0,0-1.39-.81,17.53,17.53,0,0,1-2.2-1c-3.41-2-7.12-3.78-10.28-6.06-1.48-.77-3-1.51-4.47-2.32-2.52-1.38-5-2.88-7.54-4.19-1.55-.8-2.9-1.59-4.36-2.47-3.91-2.36-7.92-4.65-11.89-7L61,111c-1.21-.72-2.37-1.48-3.51-2.23a23,23,0,0,0-2.93-1.7c-2.12-1-4.09-2.14-6.09-3.3l-17.23-10c-2-1.16-3.6-2.31-5.7-3.48a53.14,53.14,0,0,1-4.87-3l-14-8.28L2.18,76.44a7.49,7.49,0,0,1-1.53-1.1A4,4,0,0,1,0,74.47c0-.09.33,0,.68.13,2.42,1.1,5,2.36,7.56,3.66C10,79.16,11.76,80.19,13.52,81.16Z"
     id="path8" />
</svg>
