<?xml version="1.0" encoding="UTF-8" standalone="no"?>
<!-- Created with Inkscape (http://www.inkscape.org/) -->

<svg
   xmlns:dc="http://purl.org/dc/elements/1.1/"
   xmlns:cc="http://creativecommons.org/ns#"
   xmlns:rdf="http://www.w3.org/1999/02/22-rdf-syntax-ns#"
   xmlns:svg="http://www.w3.org/2000/svg"
   xmlns="http://www.w3.org/2000/svg"
   xmlns:sodipodi="http://sodipodi.sourceforge.net/DTD/sodipodi-0.dtd"
   xmlns:inkscape="http://www.inkscape.org/namespaces/inkscape"
   width="1000"
   height="1000"
   viewBox="0 0 264.58333 264.58334"
   version="1.1"
   id="svg4845"
   inkscape:version="0.92.1 r15371"
   sodipodi:docname="sm2.svg">
  <defs
     id="defs4839">
    <clipPath
       clipPathUnits="userSpaceOnUse"
       id="clipPath4829">
      <rect
         style="opacity:1;fill:#1a1a1a;fill-opacity:1;stroke:none;stroke-width:3.77952766;stroke-miterlimit:4;stroke-dasharray:none;stroke-opacity:1"
         id="rect4831"
         width="393.9595"
         height="124.24876"
         x="-384.95291"
         y="362.28638" />
    </clipPath>
  </defs>
  <sodipodi:namedview
     id="base"
     pagecolor="#ffffff"
     bordercolor="#666666"
     borderopacity="1.0"
     inkscape:pageopacity="0.0"
     inkscape:pageshadow="2"
     inkscape:zoom="0.35"
     inkscape:cx="-155.71429"
     inkscape:cy="560"
     inkscape:document-units="mm"
     inkscape:current-layer="layer1"
     showgrid="false"
     units="px"
     inkscape:window-width="2256"
     inkscape:window-height="1410"
     inkscape:window-x="-11"
     inkscape:window-y="-11"
     inkscape:window-maximized="1" />
  <metadata
     id="metadata4842">
    <rdf:RDF>
      <cc:Work
         rdf:about="">
        <dc:format>image/svg+xml</dc:format>
        <dc:type
           rdf:resource="http://purl.org/dc/dcmitype/StillImage" />
        <dc:title></dc:title>
      </cc:Work>
    </rdf:RDF>
  </metadata>
  <g
     inkscape:label="Layer 1"
     inkscape:groupmode="layer"
     id="layer1"
     transform="translate(0,-32.41663)">
    <g
       id="g4558"
       transform="matrix(0.57518116,0,0,0.57518116,26.458333,58.874963)">
      <g
         id="g4497">
        <g
           id="g4495">
          <g
             id="g4493">
            <path
               id="path4485"
               d="M 184,0 C 82.544,0 0,82.544 0,184 0,285.456 82.544,368 184,368 285.464,368 368,285.456 368,184 368,82.544 285.464,0 184,0 Z m 0,352 C 91.36,352 16,276.64 16,184 16,91.36 91.36,16 184,16 c 92.632,0 168,75.36 168,168 0,92.64 -75.368,168 -168,168 z"
               inkscape:connector-curvature="0" />
            <path
               id="path4487"
               d="m 144,152 c 0,-13.232 -10.768,-24 -24,-24 -13.232,0 -24,10.768 -24,24 0,13.232 10.768,24 24,24 13.232,0 24,-10.768 24,-24 z m -32,0 c 0,-4.408 3.592,-8 8,-8 4.408,0 8,3.592 8,8 0,4.408 -3.592,8 -8,8 -4.408,0 -8,-3.592 -8,-8 z"
               inkscape:connector-curvature="0" />
            <path
               id="path4489"
               d="m 248,128 c -13.232,0 -24,10.768 -24,24 0,13.232 10.768,24 24,24 13.232,0 24,-10.768 24,-24 0,-13.232 -10.768,-24 -24,-24 z m 0,32 c -4.416,0 -8,-3.592 -8,-8 0,-4.408 3.584,-8 8,-8 4.416,0 8,3.592 8,8 0,4.408 -3.584,8 -8,8 z"
               inkscape:connector-curvature="0" />
            <path
               id="path4491"
               d="m 184,224 c -29.824,0 -58.24,12.632 -77.96,34.664 -2.944,3.296 -2.664,8.352 0.624,11.296 3.296,2.952 8.352,2.664 11.296,-0.624 C 134.648,250.688 158.72,240 184,240 c 25.28,0 49.352,10.688 66.04,29.336 1.576,1.768 3.768,2.664 5.96,2.664 1.896,0 3.816,-0.672 5.336,-2.04 3.288,-2.944 3.568,-8 0.624,-11.296 C 242.24,236.64 213.832,224 184,224 Z"
               inkscape:connector-curvature="0" />
          </g>
        </g>
      </g>
      <g
         id="g4499" />
      <g
         id="g4501" />
      <g
         id="g4503" />
      <g
         id="g4505" />
      <g
         id="g4507" />
      <g
         id="g4509" />
      <g
         id="g4511" />
      <g
         id="g4513" />
      <g
         id="g4515" />
      <g
         id="g4517" />
      <g
         id="g4519" />
      <g
         id="g4521" />
      <g
         id="g4523" />
      <g
         id="g4525" />
      <g
         id="g4527" />
    </g>
  </g>
</svg>
