<?xml version="1.0" encoding="UTF-8" standalone="no"?>
<!-- Created with Inkscape (http://www.inkscape.org/) -->

<svg
   xmlns:dc="http://purl.org/dc/elements/1.1/"
   xmlns:cc="http://creativecommons.org/ns#"
   xmlns:rdf="http://www.w3.org/1999/02/22-rdf-syntax-ns#"
   xmlns:svg="http://www.w3.org/2000/svg"
   xmlns="http://www.w3.org/2000/svg"
   xmlns:sodipodi="http://sodipodi.sourceforge.net/DTD/sodipodi-0.dtd"
   xmlns:inkscape="http://www.inkscape.org/namespaces/inkscape"
   width="1000"
   height="1000"
   viewBox="0 0 264.58333 264.58334"
   version="1.1"
   id="svg4845"
   inkscape:version="0.92.1 r15371"
   sodipodi:docname="sm5.svg">
  <defs
     id="defs4839">
    <clipPath
       clipPathUnits="userSpaceOnUse"
       id="clipPath4829">
      <rect
         style="opacity:1;fill:#1a1a1a;fill-opacity:1;stroke:none;stroke-width:3.77952766;stroke-miterlimit:4;stroke-dasharray:none;stroke-opacity:1"
         id="rect4831"
         width="393.9595"
         height="124.24876"
         x="-384.95291"
         y="362.28638" />
    </clipPath>
  </defs>
  <sodipodi:namedview
     id="base"
     pagecolor="#ffffff"
     bordercolor="#666666"
     borderopacity="1.0"
     inkscape:pageopacity="0.0"
     inkscape:pageshadow="2"
     inkscape:zoom="0.35"
     inkscape:cx="-711.42858"
     inkscape:cy="560"
     inkscape:document-units="mm"
     inkscape:current-layer="g4837"
     showgrid="false"
     units="px"
     inkscape:window-width="2256"
     inkscape:window-height="1410"
     inkscape:window-x="-11"
     inkscape:window-y="-11"
     inkscape:window-maximized="1" />
  <metadata
     id="metadata4842">
    <rdf:RDF>
      <cc:Work
         rdf:about="">
        <dc:format>image/svg+xml</dc:format>
        <dc:type
           rdf:resource="http://purl.org/dc/dcmitype/StillImage" />
        <dc:title />
      </cc:Work>
    </rdf:RDF>
  </metadata>
  <g
     inkscape:label="Layer 1"
     inkscape:groupmode="layer"
     id="layer1"
     transform="translate(0,-32.41663)">
    <g
       id="g4837"
       transform="matrix(0.57518116,0,0,0.57518116,26.458333,58.874963)">
      <g
         id="g4508">
        <g
           id="g4501">
          <path
             inkscape:connector-curvature="0"
             d="M 184,0 C 82.544,0 0,82.544 0,184 0,285.456 82.544,368 184,368 285.464,368 368,285.456 368,184 368,82.544 285.464,0 184,0 Z m 0,352 C 91.36,352 16,276.64 16,184 16,91.36 91.36,16 184,16 c 92.632,0 168,75.36 168,168 0,92.64 -75.368,168 -168,168 z"
             id="path4560" />
          <path
             inkscape:connector-curvature="0"
             d="m 144,152 c 0,-13.232 -10.768,-24 -24,-24 -13.232,0 -24,10.768 -24,24 0,13.232 10.768,24 24,24 13.232,0 24,-10.768 24,-24 z m -32,0 c 0,-4.408 3.592,-8 8,-8 4.408,0 8,3.592 8,8 0,4.408 -3.592,8 -8,8 -4.408,0 -8,-3.592 -8,-8 z"
             id="path4562" />
          <path
             inkscape:connector-curvature="0"
             d="m 248,128 c -13.232,0 -24,10.768 -24,24 0,13.232 10.768,24 24,24 13.232,0 24,-10.768 24,-24 0,-13.232 -10.768,-24 -24,-24 z m 0,32 c -4.416,0 -8,-3.592 -8,-8 0,-4.408 3.584,-8 8,-8 4.416,0 8,3.592 8,8 0,4.408 -3.584,8 -8,8 z"
             id="path4564" />
        </g>
        <path
           inkscape:connector-curvature="0"
           id="path4489"
           d="M 307.04326,169.673 A 130.77142,130.77142 0 0 1 182.68605,260.22832 130.77142,130.77142 0 0 1 59.642307,173.3557 130.77142,130.77142 0 0 0 53.228387,213.57156 130.77142,130.77142 0 0 0 183.99954,344.34273 130.77142,130.77142 0 0 0 314.77161,213.57156 130.77142,130.77142 0 0 0 307.04326,169.673 Z"
           style="opacity:1;fill:#1a1a1a;fill-opacity:1;stroke:none;stroke-width:1.73858273;stroke-miterlimit:4;stroke-dasharray:none;stroke-opacity:1" />
      </g>
    </g>
  </g>
</svg>
