<svg id="Layer_1" data-name="Layer 1" xmlns="http://www.w3.org/2000/svg" viewBox="0 0 67 82"><defs><style>.cls-1{fill:#faf200;}</style></defs><path d="M4.35,62.86a27.38,27.38,0,0,1-1.87-5,50.28,50.28,0,0,1-1.15-5.08,69.48,69.48,0,0,1-1-10.87A31.8,31.8,0,0,1,7.79,20.56,40.62,40.62,0,0,1,16.6,13c6.9-4.48,14.45-7.76,22-11.1.87-.38,1.79-.69,2.68-1a.55.55,0,0,1,.46.12s-.14.21-.27.29A13.35,13.35,0,0,1,40.19,2c-3.47,1.49-6.93,3-10.28,4.66-1.08.52-2.14,1.08-3.18,1.67s-2.09,1.16-3.1,1.78c-1.58.89-3.07,1.9-4.58,2.88S16.12,15,14.79,16.21c-1.24.95-2.29,2.07-3.42,3.11a35,35,0,0,0-2.94,3.53c-.38.55-.79,1.08-1.14,1.65l-1,1.74-.49.88L5.44,28l-.77,1.84c-.22.63-.37,1.28-.57,1.91a16.2,16.2,0,0,0-.49,1.94l-.32,2-.17,1-.07,1A59.72,59.72,0,0,0,3.64,48,64.08,64.08,0,0,0,5.71,58a25.49,25.49,0,0,0,1.15,3,9.55,9.55,0,0,0,.72,1.35,11,11,0,0,0,.92,1.32,39.68,39.68,0,0,0,4.47,5c.48.43,1,.86,1.49,1.27s1,.78,1.55,1.19c4.26,3.25,9.19,5.88,14.34,6.57,5.4.88,10.64-1.7,15.28-5a66.42,66.42,0,0,0,8-6.75c.88-.88,1.8-1.79,2.62-2.69a22.79,22.79,0,0,0,2.19-2.84,29.39,29.39,0,0,0,3.22-6.53A29,29,0,0,0,63.1,48.6a21,21,0,0,0-.23-8.79A49.94,49.94,0,0,0,60,31.11a48.52,48.52,0,0,0-9.23-14.2A36.86,36.86,0,0,0,40.37,9.55a63.52,63.52,0,0,0-7.43-3C29.14,5.18,25.23,4,21.35,2.74c-1.2-.39-2.41-.76-3.6-1.18-.19-.06-.33-.25-.49-.38a1.68,1.68,0,0,1,.59,0c3.61,1,7.25,1.8,10.87,2.74a58.68,58.68,0,0,1,6.93,2.2A50.4,50.4,0,0,1,50,14a45.91,45.91,0,0,1,8.84,10.27,58,58,0,0,1,4.51,8.31,45.59,45.59,0,0,1,2,5.61,29.41,29.41,0,0,1,.83,3.56c.09.62.15,1.24.21,1.86s.06,1.24,0,1.85a30.48,30.48,0,0,1-1,7.26,34.78,34.78,0,0,1-3.09,7.78A30.3,30.3,0,0,1,60,64c-.42.58-.89,1.12-1.37,1.66s-.93,1-1.4,1.5-.68.72-1,1a71.42,71.42,0,0,1-11.42,9.12A28.42,28.42,0,0,1,37,80.63a20,20,0,0,1-8.62,0,32.82,32.82,0,0,1-10.17-4.07,43.1,43.1,0,0,1-4-2.7A45,45,0,0,1,6.49,66.3c-.4-.51-.78-1-1.16-1.58a15.92,15.92,0,0,1-1-1.84Z"/><path class="cls-1" d="M31,6C13,15.93,4.23,18.47,1.9,38.3,1.14,44.83,3.14,59.66,7,65c5.82,8,17,14.43,27,14,8.56-.37,18.12-7.81,24-14,5.53-5.82,8.75-17.19,7-25S60,25,54,19c-9-9-9-8-22-13"/><circle cx="24" cy="32" r="3.5"/><path d="M23.24,30a2.65,2.65,0,0,0-.66.4c-.11.07-.29.1-.39.21a.31.31,0,0,0-.13.3.37.37,0,0,1-.15.46c-.06,0-.11.1-.05.17s.11.26-.11.39,0,.38-.07.56a1,1,0,0,0,.08.56c.07.16.25.26.36.38s.19.22.31.31a2,2,0,0,0,.32.18,2.18,2.18,0,0,0,1.34.3.34.34,0,0,0,.22-.14c.09-.1.16-.15.3,0s.09.06.11,0c.22-.25.72-.14.74-.62,0-.24.24-.2.54-.22a.79.79,0,0,0,.69-.46,5.84,5.84,0,0,0,.26-.67.29.29,0,0,1,.11-.11.58.58,0,0,1,.17,0l.21,0c.23.12.61.26.61.44a3.23,3.23,0,0,1-.1,1.19,4.26,4.26,0,0,1-1.36,1.81,8,8,0,0,1-.82.68,3.62,3.62,0,0,1-2.65.64,6.17,6.17,0,0,1-1.6-.45,4.72,4.72,0,0,1-2.3-2.91,5,5,0,0,1,1.27-4.56,3.94,3.94,0,0,1,2.6-1.14,3.45,3.45,0,0,1,1.66.08,4.74,4.74,0,0,1,2.1,1.33,2.89,2.89,0,0,1,.47,1.3,3.67,3.67,0,0,1,0,1.19c0,.13-.06.26-.39.35a1.15,1.15,0,0,1-.49,0l-.18-.1c-.2-.18-.28-.31-.2-.52a1.17,1.17,0,0,0-.07-.76c0-.06-.14-.05-.21-.07a1.85,1.85,0,0,1-.38-.05,2,2,0,0,1-.63-.54c-.13-.18-.35-.14-.53-.13a1.9,1.9,0,0,0-1,.35Z"/><circle cx="41" cy="31" r="3.5"/><path d="M40.24,29a2.65,2.65,0,0,0-.66.4c-.11.07-.29.1-.39.21a.31.31,0,0,0-.13.3.37.37,0,0,1-.15.46c-.06,0-.11.1,0,.17s.11.26-.11.39,0,.38-.07.56a1,1,0,0,0,.08.56c.07.16.25.26.36.38s.19.22.31.31a2,2,0,0,0,.32.18,2.18,2.18,0,0,0,1.34.3.34.34,0,0,0,.22-.14c.09-.1.16-.15.3,0s.09.06.11,0c.22-.25.72-.14.74-.62,0-.24.24-.2.54-.22a.79.79,0,0,0,.69-.46,5.84,5.84,0,0,0,.26-.67.29.29,0,0,1,.11-.11.58.58,0,0,1,.17,0l.21,0c.23.12.61.26.61.44a3.23,3.23,0,0,1-.1,1.19,4.26,4.26,0,0,1-1.36,1.81,8,8,0,0,1-.82.68,3.62,3.62,0,0,1-2.65.64,6.17,6.17,0,0,1-1.6-.45,4.72,4.72,0,0,1-2.3-2.91,5,5,0,0,1,1.27-4.56,3.94,3.94,0,0,1,2.6-1.14,3.45,3.45,0,0,1,1.66.08,4.74,4.74,0,0,1,2.1,1.33,2.89,2.89,0,0,1,.47,1.3,3.67,3.67,0,0,1,0,1.19c0,.13-.06.26-.39.35a1.15,1.15,0,0,1-.49,0l-.18-.1c-.2-.18-.28-.31-.2-.52a1.17,1.17,0,0,0-.07-.76c0-.06-.14-.05-.21-.07a1.85,1.85,0,0,1-.38-.05,2,2,0,0,1-.63-.54c-.13-.18-.35-.14-.53-.13a1.9,1.9,0,0,0-1,.35Z"/><path d="M51.38,51.81a.17.17,0,0,0,0-.07c-.12-.2-.33-.34-.4-.57a8.38,8.38,0,0,0-.59-.72,1,1,0,0,1-.15-.24c0-.05,0-.11-.1-.13a.08.08,0,0,1,0,0c.1-.13,0-.18-.09-.24a5.23,5.23,0,0,1-.45-.49.74.74,0,0,0-.19-.16c-.08,0-.16-.08-.17-.2s-.06-.1-.1-.14l-.19-.17-.44-.39a1.59,1.59,0,0,0-.44-.33.6.6,0,0,1-.27-.23.81.81,0,0,0-.19-.18c-.13-.1-.27-.18-.4-.27a.23.23,0,0,1-.11-.08.8.8,0,0,0-.34-.26,13.08,13.08,0,0,0-1.17-.62l-.35-.17-.87-.39c-.24-.09-.49-.14-.73-.21a1.76,1.76,0,0,0-.55-.17l0,0a.66.66,0,0,0-.31-.09l-.19,0a8.41,8.41,0,0,0-.83-.21l-.39-.09-.21-.05a6.23,6.23,0,0,1-.74-.09c-.27-.06-.54-.08-.81-.13a1.34,1.34,0,0,0-.39-.07,1.46,1.46,0,0,1-.42,0l-.28,0h-.13a1.61,1.61,0,0,0-.49-.06.52.52,0,0,1-.36-.11.2.2,0,0,0-.11,0l-.07,0,0,.1h-.07l-.6,0a1.7,1.7,0,0,1-.31-.06l-.05,0h0a.45.45,0,0,0-.42,0,.44.44,0,0,1-.16,0h-.13l-.77.07a1,1,0,0,1-.51,0h-.06a5.67,5.67,0,0,0-.71.06c-.36,0-.72.11-1.08.12a1.08,1.08,0,0,0-.19,0,2.52,2.52,0,0,1-.61.11,2.13,2.13,0,0,0-.44.07c-.1,0-.19.06-.29.09a1,1,0,0,1-.37.08,2.09,2.09,0,0,0-.34,0,5.2,5.2,0,0,0-1.2.37.44.44,0,0,1-.35.07.1.1,0,0,0-.15.08c0,.09-.08.11-.16.13l0-.11a.36.36,0,0,0-.41.18l0,0h0l0,0s0-.1-.09-.08a1.51,1.51,0,0,0-.45.2.26.26,0,0,1-.21.08.65.65,0,0,0-.52.16c-.09.07-.16.14-.28.09a.09.09,0,0,0-.07,0l-.63.25-.36.19-.42.24a1.27,1.27,0,0,1-.22.13.6.6,0,0,0-.21.14.54.54,0,0,1-.12.09c-.06,0-.07,0-.09-.06h0l-.1.18a.18.18,0,0,0-.08-.07s-.07,0-.08,0-.13.1-.11.21l.07,0v0s0,0,0,0l0-.06a.9.9,0,0,1-.27.21h0s0-.08,0-.11l.06-.06a.06.06,0,0,0,0,0l0,0-.17.11h0s0,0,0,0-.21.15-.36.16,0,0,0,0-.12.18-.19.26-.07,0-.11.05h0l-.13.07a2.2,2.2,0,0,1-.26.15.29.29,0,0,0-.22.37c0,.08,0,.15-.11.15s-.1.05-.14.08a.08.08,0,0,0,0,.1c0,.07,0,.09-.05.06s-.27,0-.39-.09-.11,0-.13.13h.11a.52.52,0,0,1-.17.13.15.15,0,0,1-.13,0s-.06-.06-.08-.09c-.21.09-.33.29-.52.39l0,0s0,.1,0,.14l0,0,.06.08-.07,0s-.07,0,0,0,0,.1-.06.1-.1,0-.14,0-.06,0,0,.07,0,0,0,.07a.07.07,0,0,1-.07,0c-.06,0-.1,0-.12.05a.26.26,0,0,1-.05.09s-.07.06-.11,0-.08-.06-.11,0a2.39,2.39,0,0,0-.23.22.12.12,0,0,0-.05.09.15.15,0,0,1-.08.16.23.23,0,0,1-.18,0h0c-.13,0-.13,0,0,.14v0l-.15.08c-.06,0,0-.06-.08-.06a.27.27,0,0,0-.09.12.44.44,0,0,1-.17.21h0v-.11a.63.63,0,0,1-.13.11l-.16.05s.06.12,0,.19l-.15-.12c-.26.12-.26.12-.32.29a.26.26,0,0,0,.27-.13c.07,0,0,.07,0,.1v0h0a.26.26,0,0,0-.1.07,1.62,1.62,0,0,0-.1.18c-.08,0-.05-.06-.06-.09l0-.13-.05.07v0s-.07,0-.08,0,0,0-.06.08,0,.08,0,.11S18,52,18,52a1.62,1.62,0,0,1,0,.2s-.05.07-.07.1l-.08-.08-.05,0-.13.07c.05.06.11.07.07.16a2,2,0,0,1-.2.3.45.45,0,0,1-.22.16l-.08-.13h0c-.06,0-.13,0-.13.12l0,.06.06,0h0a.13.13,0,0,1,0,.2c-.2.22-.39.45-.58.7a8.24,8.24,0,0,0-.74,1.11c-.06.1-.15.21-.09.35s0,.07,0,.11-.07.17-.1.26a1,1,0,0,0,0,.17.08.08,0,0,0,0,.06l.05,0,.19-.35c.08-.2.26-.33.29-.54,0,0,0-.06.05-.08a.22.22,0,0,0,.1-.17.27.27,0,0,1,.07-.14c.11-.16.23-.3.35-.45s.09-.16.17-.19.08-.16.14-.22a.15.15,0,0,1,.08,0,.15.15,0,0,0,.18-.08l.79-.84a1.62,1.62,0,0,1,.44-.34h0v.14l.05,0c.05-.07.07-.16.18-.19a.12.12,0,0,0,.07-.17h0A.37.37,0,0,0,19.2,52a.39.39,0,0,1,.22-.2.05.05,0,0,0,0,0c0-.12,0-.12.13-.13a.07.07,0,0,0,.06-.07.11.11,0,0,1,.12-.1.07.07,0,0,0,.09-.06s0-.06,0-.07a.46.46,0,0,0,.23-.16.22.22,0,0,0,.18-.12.59.59,0,0,1,.3-.16.49.49,0,0,1-.12.13l-.49.4a2.41,2.41,0,0,1-.48.42.46.46,0,0,0-.07.07l-.17.15-.26.26s0,.08,0,.12h0l-.27.19c.11.13.11.13,0,.24-.12-.08-.14-.08-.21,0l-.14.13-.2.18-.44.47-.08.12s0,.07,0,.1.18-.15.33-.05a.15.15,0,0,1-.16.1.27.27,0,0,0-.24.21s0,.06,0,.08a.43.43,0,0,1-.17.21.32.32,0,0,0-.12.11s0,0,0,0h0l0,0-.25.29s-.07,0-.1,0h0a.29.29,0,0,1-.05.2,1.68,1.68,0,0,0-.27.37,5.37,5.37,0,0,0-.45,1.07.45.45,0,0,0,0,.11,3.26,3.26,0,0,1-.09.53l0,.11s0,.07.06.06a2.46,2.46,0,0,1,.14-.38,4.06,4.06,0,0,1,.26-.51.19.19,0,0,0,0-.19h0a1.27,1.27,0,0,1,.13-.19c.05-.06.05-.15.09-.22s.18-.31.28-.46.26-.36.4-.53.32-.36.48-.53l.6-.65.37-.35h0l-.17.29a.09.09,0,0,1-.05,0,.51.51,0,0,0-.23.25,1.77,1.77,0,0,1-.16.22l-.15.17v0a.32.32,0,0,0-.2.1l-.19.2c-.17.17-.33.35-.48.53a.16.16,0,0,0-.06.08,1.08,1.08,0,0,1-.22.35c-.05.09-.1.18-.14.27s0,.05,0,.12l.19-.2a2,2,0,0,1,.43-.61,4.28,4.28,0,0,1-.44.61L16.9,56s0,.1-.11.08,0,0-.05,0a1,1,0,0,0-.2.56.88.88,0,0,1,0,.17h-.08a.82.82,0,0,0,0,.38c.08-.16.15-.32.23-.47l.11-.2a4,4,0,0,1,.31-.54,6,6,0,0,0,.43-.6.69.69,0,0,1,.11-.13l.43-.47c.2-.22.41-.45.63-.67s.49-.49.74-.73.53-.48.79-.72h0a7.37,7.37,0,0,0,.61-.5l.1-.07c.35-.24.67-.5,1-.75l.14-.1.86-.57c.27-.17.53-.35.81-.51s.66-.35,1-.53.8-.43,1.22-.61,1.07-.47,1.61-.69a3.36,3.36,0,0,1,.45-.14l.75-.24c.38-.12.76-.24,1.14-.33a1.16,1.16,0,0,1,.45,0l.08,0,.51-.14.76-.14c.42-.08.83-.16,1.26-.22.25,0,.51,0,.77-.05l0,0s-.05,0-.08,0l-.25,0-.32.05-.6.07c-.23,0-.46,0-.69.1-.5.07-1,.19-1.46.3l-.19.08c-.47.13-.94.25-1.4.42s-1,.39-1.54.53l-.16.06s0,0,0,.05l.08,0-.22.12L27,49a1.31,1.31,0,0,0,.34-.09l.22,0s0,0,.05.07a.14.14,0,0,1,0,.06c0,.06,0,.09.07.08l.1,0a1.12,1.12,0,0,1,.51-.15.22.22,0,0,0,.11,0c.15-.06.29-.14.44-.19l.63-.18c.36-.11.72-.22,1.09-.31a10.27,10.27,0,0,1,1.13-.23,3.34,3.34,0,0,1,.63-.12c.33-.07.67-.13,1-.18l1.21-.1c.24,0,.49,0,.73,0s.52,0,.79,0,.73,0,1.09,0h.32a5.07,5.07,0,0,1,.55,0c.23,0,.46,0,.69.08l.89.15h.14a1.67,1.67,0,0,1,.5.06l.19,0,.3.07.26.06.72.15c.25.06.5.12.74.2l.33.09c.12,0,.25.06.37.11l.18.06c.21.07.43.13.64.22a6.69,6.69,0,0,0,.67.27,3.32,3.32,0,0,0,.51.23s.06,0,.09.07a.42.42,0,0,0,.24.12.31.31,0,0,1,.12,0l.1.05a1.67,1.67,0,0,1,.2.08c.09,0,.16.15.26.19a1.3,1.3,0,0,1,.29.14,1.13,1.13,0,0,0,.2.13,5.11,5.11,0,0,1,.73.48,3.3,3.3,0,0,0,.3.22,1.57,1.57,0,0,1,.32.24,3.4,3.4,0,0,0,.29.26,2.42,2.42,0,0,0,.36.18h0a.21.21,0,0,0,0-.06s0,0-.06-.06l-.34-.27s0-.06,0-.08,0,0,.06,0a.84.84,0,0,0,.32.14s.06.06.08.09,0,.1.08.14,0,.06,0,.06.09,0,.07.11h0v0h0c.11-.09.13-.12.08-.2a1.14,1.14,0,0,0-.16-.15s-.06,0,0-.09l.33.3s.05.09,0,.16,0,.08.06.1a.13.13,0,0,1,.07.06,2.93,2.93,0,0,0,.18.26c.14.13.2.33.39.41s.36.35.52.54a.12.12,0,0,0,.1,0s0-.06,0-.09l-.17-.31,0-.09a1,1,0,0,1,.24.23,2.81,2.81,0,0,1,.4.45,1.7,1.7,0,0,0,.18.26c.06.08.13.15.19.22s0,.08.13.06l0-.22-.06,0v0h0l0,.05.11.08.08.07s0,.08.09.08a.28.28,0,0,0,0-.11l-.12-.26a.31.31,0,0,1,0-.28.26.26,0,0,0,0-.15,3.25,3.25,0,0,0-.18-.43c-.11-.21-.22-.42-.35-.63a1.14,1.14,0,0,1,.23.3c.07.11.23.15.25.3l0,0c.08,0,.1,0,.13.1l.18.33s0,.1.13.07v-.07a1.43,1.43,0,0,0-.21-.45.26.26,0,0,1-.07-.21c.1.13.1.13.21.17l-.13-.19c-.05-.07-.09-.13-.2-.13s0-.06,0-.09h0c-.05-.08-.15-.13-.15-.23ZM21.22,49.37Zm11.42-1.83h-.11l0,0h.14Zm-3.32.76s.06,0,.1,0h0Zm-8.63,1.26s0,.1,0,.15h0l0,0C20.66,49.65,20.66,49.65,20.69,49.56Zm.38.06-.16-.14s0,0,.05,0l.1,0h.08l0,0-.06,0ZM30,48s0,0,0,0,0,0,0,0-.08.08-.13.1l-.09,0-.12.08c0-.12,0-.12.12-.08Zm.22,0h-.07l.11,0s0-.06,0-.07a2.41,2.41,0,0,1,.48-.08s0,.06,0,.07a.86.86,0,0,1-.5.07Zm-9,2.33.06,0a5.93,5.93,0,0,1,.95-.65l.37-.23c0,.07,0,.08,0,.09l-.48.3-.59.39c-.22.15-.43.33-.65.48l-.1.05h0A2,2,0,0,1,21.24,50.39Zm25.32-.51a.6.6,0,0,0-.21-.14,1.31,1.31,0,0,1-.44-.26.7.7,0,0,0-.18-.13,4,4,0,0,1,1.13.73A1.12,1.12,0,0,1,46.56,49.88ZM32,47.63l.09,0h0a.08.08,0,0,0,0,0h0l-.47,0-.16.05-.06,0s0-.05,0-.05l.3,0h0Zm16.22,3.22v0s0,0,0,.07,0,0,0,0l-.13-.1a2.72,2.72,0,0,0-.38-.31l-.06,0,0,0C47.77,50.59,48,50.71,48.17,50.85ZM34,47l.15,0a4.16,4.16,0,0,1,.61,0l-.8.08v0Zm-5.43,1.51.13-.07s.08,0,.13.05c-.14,0-.25.13-.4.08A.59.59,0,0,0,28.54,48.51ZM47,50.1l.22.11a.18.18,0,0,1,.14.13A.74.74,0,0,1,47,50.1ZM33.17,47.44a.33.33,0,0,0,.23-.07l0,0s0,.06,0,.06l-.17,0a.31.31,0,0,1-.13,0S33.15,47.44,33.17,47.44Zm-.34.1,0,0v0a.15.15,0,0,1,.2,0A.18.18,0,0,1,32.83,47.54ZM31,47.85l-.11,0c.08-.09.08-.09.26-.09ZM19.83,50.58s0,0,0,0,.07-.1.15-.11A.15.15,0,0,1,19.83,50.58ZM18.34,53.2s.05-.1.12-.09l0,0s0,.06-.15.11ZM17.64,55l0,0,.1-.12,0,0Zm16-7.56-.07,0v0s0,0,.07,0h0ZM22.29,48.55h.05v0l-.06,0S22.28,48.56,22.29,48.55ZM16.63,56.6h0l0-.11h0Zm17.12-9.2s0,0,0,0,0,0,0,0l0,0Zm-10.28.37h0s0,0,0,0h0Zm11.59-.45a.08.08,0,0,1,0,0l0,0,0,0Zm-12.45,1h0a0,0,0,0,1,0,0l.08,0ZM18,53.61h0l0,0h0S18,53.62,18,53.61Zm5.2-5.52s0,0,0,0,0,0,0,0l0,0Zm-6.53,5.8v0l0,0v0Zm12.37-5.5,0,0h0Zm-12.72,6v0h0v0ZM50.1,52.3v0h0v0Zm-31,.22h0v0ZM49.78,52v0Zm-33,4.33h0l0,0Zm1.1-1.61h0v0h0ZM34.78,47.3v0l0,0h0Zm-.31.06h0ZM19.08,53.17h0Zm8.61-4.32h0v0Zm7.51-1.58h0ZM34,47.38h0Z"/><path d="M43.39,48.89a.33.33,0,0,1,.27,0c.28.09.55.21.82.31a8.67,8.67,0,0,1,.82.38l.39.19A3.24,3.24,0,0,1,46,50a.12.12,0,0,1,0,.07.1.1,0,0,1-.09,0,.14.14,0,0,1-.09,0c-.35-.18-.7-.33-1.05-.49a6.29,6.29,0,0,0-.71-.3,5.6,5.6,0,0,1-.7-.33S43.41,48.91,43.39,48.89Z"/><path d="M47.94,51.28l-.08,0L47.43,51c-.24-.15-.48-.31-.73-.45l-.38-.21h0c-.06-.06-.09-.14-.19-.15a.11.11,0,0,1,0-.06l0,0h.06a7.23,7.23,0,0,1,.76.45l.6.42s.05,0,.06,0a.91.91,0,0,0,.24.2l.09.09Z"/><path d="M31.16,48.31a3.5,3.5,0,0,0-.58.11c-.22.08-.44.12-.66.19l-.38.1h-.05s0,0,0,0,0,0,0,0a1.66,1.66,0,0,0,.53-.18l.14,0a3,3,0,0,0,.59-.15l.07,0a.64.64,0,0,0,.36-.06.32.32,0,0,1,.14,0s0,0,0,0a0,0,0,0,1,0,0s0,0-.06,0l-.12,0Z"/><path d="M26.73,49.27a.71.71,0,0,0,.35-.1.88.88,0,0,1,.32-.12,0,0,0,0,1,0,0,0,0,0,0,1,0,0l-.24.11-.14.05a3.55,3.55,0,0,1-.44.21,3.88,3.88,0,0,0-.45.24h-.05a.05.05,0,0,1,0-.08s0,0,.05,0l.13-.06.44-.26Z"/><path d="M28.53,49.07a.28.28,0,0,1-.28,0s0-.06,0-.06a.82.82,0,0,1,.41-.17,1.15,1.15,0,0,0,.29-.11.2.2,0,0,1,.17,0,.07.07,0,0,1,0,0s0,.05,0,.05L28.7,49c-.06,0-.13,0-.17.09Z"/><path d="M25.62,50.22a.59.59,0,0,1,.29-.2l.66-.25h0l0,0h0c-.27.14-.55.27-.81.43a.12.12,0,0,1-.16,0Z"/><path d="M23.9,51.18l.15,0s0,.06,0,.07l-.33.24-.48.3s0,0-.05,0,.05-.14.13-.18l.16-.08.34-.21a.15.15,0,0,0,.11-.11Z"/><path d="M21.83,52.74s0,0,0,0-.2.25-.36.3-.05.05-.08.08a.51.51,0,0,1-.3.18c.05-.12.07-.21.19-.24a.28.28,0,0,0,.18-.12c.09-.13.24-.17.37-.26Z"/><path d="M24.75,50.67s.05,0,.05.06,0,0,0,0a1.15,1.15,0,0,1-.35.22,1.11,1.11,0,0,0-.19.09h-.07a.31.31,0,0,1,.18-.19.65.65,0,0,0,.33-.21h.07v0Z"/><path d="M19.15,50.79c0-.08,0-.12.05-.14a.87.87,0,0,0,.32-.28.05.05,0,0,1,.05,0l.06,0a0,0,0,0,1,0,0,.75.75,0,0,1-.29.27Z"/><path d="M33.19,47.91c-.24.06-.47.08-.7.12l0,0v0l0,0,.66-.08Z"/><path d="M21.87,48.73c0,.07-.05.13-.08.17a.09.09,0,0,1-.15,0,.9.9,0,0,1-.15-.18s0,0,0-.06.05,0,.06,0a.09.09,0,0,0,.14,0Z"/><path d="M17.68,55.92s0,.07,0,.09l-.3.35h-.06a0,0,0,0,1,0,0,.74.74,0,0,1,.38-.4Z"/><path d="M32.06,48v0l-.53.13h0l0,0a.06.06,0,0,1,0,0l.15,0Z"/><path d="M26.6,49.76a.38.38,0,0,1,.35-.17l0,0s0,.05,0,.06l-.16.07-.19,0h0l0,0Z"/><path d="M35.15,47.69l.3,0,0,0c0,.05,0,.05-.05.06l-.46,0-.07,0v-.06l.24,0Z"/><path d="M22.57,52.08l.05,0s.06,0,0,.06l-.29.21s-.06,0-.13,0a1,1,0,0,1,.22-.2,1.06,1.06,0,0,0,.12-.1Z"/><path d="M16.32,54c.07-.11.13-.24.19-.34l.06,0s.05,0,.05,0a.47.47,0,0,1-.21.31.13.13,0,0,1-.09,0Z"/><path d="M40.36,48.06l.42.08a.1.1,0,0,1,0,0l0,0a.14.14,0,0,1-.09,0l-.3-.11A.18.18,0,0,0,40.36,48.06Z"/><path d="M49,51.59c0,.08.09.1.14.16s0,0,0,0l0,0h0l-.28-.25s0,0,0,0l0,0,.14.07h0l0,0Z"/><path d="M37.61,47.76a.44.44,0,0,1-.31.05s0,0,0-.05,0,0,0,0A.48.48,0,0,1,37.61,47.76Z"/><path d="M25.57,50.26s0,.07,0,.08a.9.9,0,0,1-.28.13c0-.12.06-.13.26-.23Z"/><path d="M23.23,51.27a.3.3,0,0,1-.26.22h0s0,0,0,0A.89.89,0,0,1,23.23,51.27Z"/><path d="M34.07,47.73l.08,0v0a.18.18,0,0,1-.21,0v-.05Z"/><path d="M21.2,52.8,21,53h0s0,0,0,0A.33.33,0,0,1,21.2,52.8Z"/><path d="M25.72,49.88l-.25.13s0,0,0,0,0,0,0,0a.28.28,0,0,1,.29-.07Z"/><path d="M22.86,51.55c0,.1-.07.15-.15.14l0,0s0,0,0,0A.21.21,0,0,1,22.86,51.55Z"/><path d="M16.28,54l0,0h0V54a.14.14,0,0,1-.06.18c-.05,0-.08-.07-.07-.2s0,0,0,0h.06Z"/><path d="M19.79,50.15h.07a.21.21,0,0,1,0,.07.24.24,0,0,1-.06.08.06.06,0,0,1-.06,0s0,0,0-.06Z"/><path d="M27.21,49.53s0-.08,0-.09a.9.9,0,0,1,.16,0c0,.07,0,.08,0,.09l-.14,0Z"/><path d="M36,47.68a.14.14,0,0,1-.16.07l-.08,0s0-.06.08-.05Z"/><path d="M21.07,49l.05-.08s0-.07.08,0,.05.13,0,.14A.42.42,0,0,1,21.07,49Z"/><path d="M17.78,55.72a.17.17,0,0,1-.1.2h0c-.06-.05-.07-.1,0-.13l.11-.07Z"/><path d="M34.75,47.74a.34.34,0,0,1-.31,0l.25,0Z"/><path d="M25.1,50.54c0,.06-.06.13-.15.08v0C25,50.51,25,50.53,25.1,50.54Z"/><path d="M16.55,55.37l.09-.19h.07s0,0,0,.06l-.12.15Z"/><path d="M22.8,48.06,22.71,48a.13.13,0,0,1,0-.05s0,0,.07,0a.07.07,0,0,1,.06,0,.1.1,0,0,1,0,.12Z"/><path d="M23,51.9h-.11s0,0,0,0,0,0,0,0H23Z"/><path d="M42.4,48.62l0,0v0h0a.09.09,0,0,1,.12,0v0Z"/><path d="M19,50.86l0,0s0,0,0,0,0,0,0,.06l0,0a.14.14,0,0,1,0-.06S19,50.87,19,50.86Z"/><path d="M37.14,47.75a.23.23,0,0,1-.2,0C37,47.7,37,47.7,37.14,47.75Z"/><path d="M39.53,44.53h.15s0,0,0,0l0,0h-.15Z"/><path d="M20.39,49.74a.2.2,0,0,1-.1.16h0s0,0,0-.06Z"/><path d="M20.61,53.8a.59.59,0,0,1-.2.12.15.15,0,0,1,.2-.12Z"/><path d="M39,47.92l-.21,0a.24.24,0,0,1,.22,0Z"/><path d="M37.87,47.82h-.1s0,0,0,0l0,0,.1,0Z"/><path d="M22.06,48.56l0,0a.07.07,0,0,1,0,0s-.07,0-.08,0a.05.05,0,0,1,0-.08Z"/><path d="M25.05,50.26l-.15,0c0-.07,0-.07,0-.08a.15.15,0,0,1,.09,0l0,.08Z"/><path d="M36.14,47.69l.07,0a.06.06,0,0,1,.06,0s0,0-.06,0l-.07,0Z"/><path d="M25.26,50.11s0-.07,0-.07l.07,0s0,0,0,0Z"/><path d="M22,52.62a0,0,0,0,1,0,0h-.07l0,0h0l.06,0Z"/><path d="M22.05,52.14a.06.06,0,0,1,0,0s0-.05.08,0l0,0,0,.06Z"/><path d="M22.37,51.84s0,0,.07-.05l0,0,0,.07Z"/><path d="M24.5,50.48c0,.07,0,.11-.16.09Z"/><path d="M21.23,52.69h.07l0,0s0,0,0,0l-.05,0s0,0,0,0Z"/><path d="M24.17,50.71l0-.05,0,0s0,0,0,0Z"/><path d="M36.46,47.71l.07,0,0,0v0h-.08Z"/><path d="M33.79,47.82l0,0H33.6C33.7,47.8,33.7,47.8,33.79,47.82Z"/><path d="M16.94,54.83l-.07.13,0,0s0-.07,0-.1.06-.05.11-.05Z"/><path d="M18.35,52.79,18.2,53c0-.14,0-.14.15-.16Z"/><path d="M32.21,48a.11.11,0,0,1,.07,0s0,0,0,0l-.08,0Z"/><path d="M23.66,51c0,.07,0,.08,0,.09s0,0,0,0h0Z"/><path d="M18.15,55.22h0s0,0,0,0h0Z"/><path d="M51.72,53.88l.05-.06h0a.25.25,0,0,1,0,.07Z"/><polygon points="16.98 54.86 16.94 54.83 16.94 54.83 17.06 54.65 17.09 54.66 16.98 54.86 16.98 54.86"/><path d="M16.78,53.31v-.06h0a.11.11,0,0,1,0,.05Z"/><path d="M17.07,54.5l0,0a.14.14,0,0,1,0-.06h0Z"/><path d="M20.64,53.77c0-.09,0-.09.11-.11l-.12.11Z"/><path d="M39.24,47.9h0s0,0,0,0l0,0Z"/><path d="M38.54,47.83v0h-.07v0Z"/><path d="M52.19,53.52l0,.06,0,0s0,0,0,0Z"/><path d="M21.73,52.36a.11.11,0,0,1,0,0l.06,0v0Z"/><path d="M36.73,47.7h.05v0s0,0,0,0S36.74,47.72,36.73,47.7Z"/><path d="M24.74,50.31l.05,0a.08.08,0,0,1,0,0s0,0,0,0Z"/><path d="M23.82,50.93h0v0l0,0Z"/><path d="M40.14,48l-.06.05,0,0,0,0h.06Z"/><path d="M39.52,48l0,0,.06,0v0Z"/><path d="M21.94,52.23h0s0,0,0,0h0Z"/><path d="M42.81,48.67h0v0h0Z"/><path d="M20.84,49.17s0,0,0,0h0a0,0,0,0,1,0,0Z"/><path d="M17,53,17,53s0,0,0,0H17Z"/><path d="M16.22,54v0l0-.06,0,.07h-.06Z"/><path d="M18.82,50.75h0s0,0,0,0,0,0,0,0l0,0Z"/><path d="M35.61,47.7l0,0v0l0,0Z"/><path d="M16.25,55.79l0-.06h0s0,0,0,0l-.06,0Z"/><path d="M18,53.2v0h0v0Z"/><path d="M17.51,54h0Z"/><path d="M41.82,48.4h0Z"/><path d="M42.21,48.49h0v0h0Z"/><path d="M20.82,53.09h0v0h0Z"/><path d="M21.56,52.46v0l0,0h0Z"/><path d="M24.33,47.11v0h0v0l0,0Z"/><polygon points="25.15 50.13 25.15 50.15 25.13 50.13 25.15 50.13"/><polygon points="22.13 52.48 22.15 52.48 22.14 52.51 22.12 52.49 22.13 52.48"/><path d="M16.25,55.78a.05.05,0,0,1,0,0h0s0,0,0,0l0,0Z"/><path d="M38.21,47.81v0l0,0v0Z"/><path d="M18.35,52.8s0,0,0,0,0,0,0,0v0h0Z"/><path d="M17.23,52.78v0s0,0,0,0a.08.08,0,0,1,0,0l0,0Z"/><polygon points="19.64 53.82 19.65 53.82 19.65 53.83 19.64 53.82"/><path d="M17.46,52.48h0v0h0Z"/><polygon points="41.98 48.45 41.96 48.45 41.97 48.43 41.98 48.45"/><path d="M18.8,50.93v0h0s0,0,0,0Z"/><polygon points="20.54 53.3 20.55 53.29 20.55 53.31 20.54 53.3"/><path d="M21.43,52.57h0Z"/><path d="M22.18,48.28l0,0h0Z"/><path d="M41.39,48.32s-.06,0-.07,0h0l.07,0Z"/><path d="M25.62,50.21l-.05,0,0,0s0,0,.08,0Z"/><polygon points="24.63 50.42 24.64 50.44 24.62 50.44 24.63 50.42"/><polygon points="23.33 51.21 23.33 51.2 23.34 51.21 23.33 51.21"/><polygon points="41.09 48.27 41.11 48.25 41.09 48.27 41.09 48.27"/><polygon points="41.06 48.26 41.04 48.23 41.05 48.24 41.06 48.26 41.06 48.26"/><polygon points="41.4 48.32 41.42 48.31 41.41 48.32 41.39 48.32 41.4 48.32"/><polygon points="20.7 53.16 20.69 53.18 20.68 53.16 20.7 53.16"/><path d="M36.3,44.3l0,0h0Z"/><polygon points="20.63 53.77 20.61 53.8 20.61 53.8 20.62 53.79 20.64 53.77 20.63 53.77"/><path d="M26.73,49.27Z"/><polygon points="41.09 48.27 41.06 48.26 41.06 48.26 41.09 48.27 41.09 48.27"/><path d="M40.14,48.05h0Z"/><polygon points="26.57 49.77 26.6 49.76 26.6 49.76 26.57 49.77 26.57 49.77"/><polygon points="41.32 48.3 41.34 48.24 41.34 48.25 41.32 48.3 41.32 48.3"/><polygon points="41.34 48.24 41.35 48.24 41.34 48.25 41.34 48.24"/><path d="M17.78,55.72Z"/><path d="M23.9,51.18Z"/><path d="M25.72,49.88Z"/><path d="M25.05,50.26Z"/><path d="M22.58,52.09h0Z"/><path d="M23.52,47.5h0Z"/><path d="M51.53,52Z"/><path d="M18.82,50.75Z"/></svg>