<svg id="Layer_1" data-name="Layer 1" xmlns="http://www.w3.org/2000/svg" viewBox="0 0 67 84"><defs><style>.cls-1{fill:#faf200;}</style></defs><path d="M4.35,64.86a27.38,27.38,0,0,1-1.87-5,50.28,50.28,0,0,1-1.15-5.08,69.48,69.48,0,0,1-1-10.87A31.8,31.8,0,0,1,7.79,22.56,40.62,40.62,0,0,1,16.6,15c6.9-4.48,14.45-7.76,22-11.1.87-.38,1.79-.69,2.68-1a.55.55,0,0,1,.46.12s-.14.21-.27.29A13.35,13.35,0,0,1,40.19,4c-3.47,1.49-6.93,3-10.28,4.66-1.08.52-2.14,1.08-3.18,1.67s-2.09,1.16-3.1,1.78c-1.58.89-3.07,1.9-4.58,2.88S16.12,17,14.79,18.21c-1.24.95-2.29,2.07-3.42,3.11a35,35,0,0,0-2.94,3.53c-.38.55-.79,1.08-1.14,1.65l-1,1.74-.49.88L5.44,30l-.77,1.84c-.22.63-.37,1.28-.57,1.91a16.2,16.2,0,0,0-.49,1.94l-.32,2-.17,1-.07,1A59.72,59.72,0,0,0,3.64,50,64.08,64.08,0,0,0,5.71,60a25.49,25.49,0,0,0,1.15,3,9.55,9.55,0,0,0,.72,1.35,11,11,0,0,0,.92,1.32,39.68,39.68,0,0,0,4.47,5c.48.43,1,.86,1.49,1.27s1,.78,1.55,1.19c4.26,3.25,9.19,5.88,14.34,6.57,5.4.88,10.64-1.7,15.28-5a66.42,66.42,0,0,0,8-6.75c.88-.88,1.8-1.79,2.62-2.69a22.79,22.79,0,0,0,2.19-2.84,29.39,29.39,0,0,0,3.22-6.53A29,29,0,0,0,63.1,50.6a21,21,0,0,0-.23-8.79A49.94,49.94,0,0,0,60,33.11a48.52,48.52,0,0,0-9.23-14.2,36.86,36.86,0,0,0-10.36-7.36,63.52,63.52,0,0,0-7.43-3C29.14,7.18,25.23,6,21.35,4.74c-1.2-.39-2.41-.76-3.6-1.18-.19-.06-.33-.25-.49-.38a1.68,1.68,0,0,1,.59,0c3.61,1,7.25,1.8,10.87,2.74a58.68,58.68,0,0,1,6.93,2.2A50.4,50.4,0,0,1,50,16a45.91,45.91,0,0,1,8.84,10.27,58,58,0,0,1,4.51,8.31,45.59,45.59,0,0,1,2,5.61,29.41,29.41,0,0,1,.83,3.56c.09.62.15,1.24.21,1.86s.06,1.24,0,1.85a30.48,30.48,0,0,1-1,7.26,34.78,34.78,0,0,1-3.09,7.78A30.3,30.3,0,0,1,60,66c-.42.58-.89,1.12-1.37,1.66s-.93,1-1.4,1.5-.68.72-1,1a71.42,71.42,0,0,1-11.42,9.12A28.42,28.42,0,0,1,37,82.63a20,20,0,0,1-8.62,0,32.82,32.82,0,0,1-10.17-4.07,43.1,43.1,0,0,1-4-2.7A45,45,0,0,1,6.49,68.3c-.4-.51-.78-1-1.16-1.58a15.92,15.92,0,0,1-1-1.84Z"/><path class="cls-1" d="M31,8C13,17.93,4.23,20.47,1.9,40.3,1.14,46.83,3.14,61.66,7,67c5.82,8,17,14.43,27,14,8.56-.37,18.12-7.81,24-14,5.53-5.82,8.75-17.19,7-25S60,27,54,21c-9-9-9-8-22-13"/><circle cx="24" cy="34" r="3.5"/><path d="M23.24,32a2.65,2.65,0,0,0-.66.4,1.86,1.86,0,0,0-.39.21.31.31,0,0,0-.13.3.37.37,0,0,1-.15.46c-.06,0-.11.1-.05.17s.11.26-.11.39,0,.38-.07.56a1,1,0,0,0,.08.56c.07.16.25.26.36.38s.19.22.31.31a2,2,0,0,0,.32.18,2.18,2.18,0,0,0,1.34.3.34.34,0,0,0,.22-.14c.09-.1.16-.15.3,0s.09.06.11,0c.22-.25.72-.14.74-.62,0-.24.24-.2.54-.22a.79.79,0,0,0,.69-.46,5.84,5.84,0,0,0,.26-.67.29.29,0,0,1,.11-.11.58.58,0,0,1,.17,0l.21,0c.23.12.61.26.61.44a3.23,3.23,0,0,1-.1,1.19,4.26,4.26,0,0,1-1.36,1.81,8,8,0,0,1-.82.68,3.62,3.62,0,0,1-2.65.64,6.17,6.17,0,0,1-1.6-.45,4.72,4.72,0,0,1-2.3-2.91,5,5,0,0,1,1.27-4.56,3.94,3.94,0,0,1,2.6-1.14,3.45,3.45,0,0,1,1.66.08,4.74,4.74,0,0,1,2.1,1.33,2.89,2.89,0,0,1,.47,1.3,3.67,3.67,0,0,1,0,1.19c0,.13-.06.26-.39.35a1.15,1.15,0,0,1-.49,0l-.18-.1c-.2-.18-.28-.31-.2-.52a1.17,1.17,0,0,0-.07-.76c0-.06-.14-.05-.21-.07a1.85,1.85,0,0,1-.38-.05,2,2,0,0,1-.63-.54c-.13-.18-.35-.14-.53-.13a1.9,1.9,0,0,0-1,.35Z"/><circle cx="41" cy="33" r="3.5"/><path d="M40.24,31a2.65,2.65,0,0,0-.66.4,1.86,1.86,0,0,0-.39.21.31.31,0,0,0-.13.3.37.37,0,0,1-.15.46c-.06,0-.11.1,0,.17s.11.26-.11.39,0,.38-.07.56a1,1,0,0,0,.08.56c.07.16.25.26.36.38s.19.22.31.31a2,2,0,0,0,.32.18,2.18,2.18,0,0,0,1.34.3.34.34,0,0,0,.22-.14c.09-.1.16-.15.3,0s.09.06.11,0c.22-.25.72-.14.74-.62,0-.24.24-.2.54-.22a.79.79,0,0,0,.69-.46,5.84,5.84,0,0,0,.26-.67.29.29,0,0,1,.11-.11.58.58,0,0,1,.17,0l.21,0c.23.12.61.26.61.44a3.23,3.23,0,0,1-.1,1.19,4.26,4.26,0,0,1-1.36,1.81,8,8,0,0,1-.82.68,3.62,3.62,0,0,1-2.65.64,6.17,6.17,0,0,1-1.6-.45,4.72,4.72,0,0,1-2.3-2.91,5,5,0,0,1,1.27-4.56,3.94,3.94,0,0,1,2.6-1.14,3.45,3.45,0,0,1,1.66.08,4.74,4.74,0,0,1,2.1,1.33,2.89,2.89,0,0,1,.47,1.3,3.67,3.67,0,0,1,0,1.19c0,.13-.06.26-.39.35a1.15,1.15,0,0,1-.49,0l-.18-.1c-.2-.18-.28-.31-.2-.52a1.17,1.17,0,0,0-.07-.76c0-.06-.14-.05-.21-.07a1.85,1.85,0,0,1-.38-.05,2,2,0,0,1-.63-.54c-.13-.18-.35-.14-.53-.13a1.9,1.9,0,0,0-1,.35Z"/><path d="M16.5,58.36s0,0,0,.06c.11.2.33.3.42.52a7.65,7.65,0,0,0,.65.62,1,1,0,0,1,.17.19s.05.11.12.12,0,0,0,0,.05.17.12.23.35.22.51.36a.63.63,0,0,0,.21.12c.08,0,.16.06.19.16a.26.26,0,0,0,.12.11l.21.11.49.26a1.08,1.08,0,0,0,.46.18.53.53,0,0,1,.29.14.61.61,0,0,0,.22.13c.13,0,.27.08.4.12a.22.22,0,0,1,.11,0,.78.78,0,0,0,.35.15c.37.08.75.18,1.12.24l.31.05c.27,0,.53.1.79.13s.42,0,.62,0a1.45,1.45,0,0,0,.46,0h0a.39.39,0,0,0,.26,0h.16l.68,0h.31l.17,0a3.77,3.77,0,0,1,.58,0l.64,0a.77.77,0,0,0,.3,0,.91.91,0,0,1,.33,0l.21,0a.34.34,0,0,1,.1,0,1.12,1.12,0,0,0,.38.06.37.37,0,0,1,.31.11s.06,0,.09,0,0,0,.06,0l0-.09h.06c.17,0,.34,0,.51,0a1.29,1.29,0,0,1,.26.08s0,0,0,0h0a.34.34,0,0,0,.36,0,.32.32,0,0,1,.14,0H31l.66,0c.15,0,.3-.06.43,0h.06c.2,0,.4,0,.6,0a7.44,7.44,0,0,1,.94,0l.16,0a1.91,1.91,0,0,1,.53,0,1.58,1.58,0,0,0,.38,0,1.83,1.83,0,0,0,.25-.06.93.93,0,0,1,.33,0,.94.94,0,0,0,.29,0,4.18,4.18,0,0,0,1.05-.22.37.37,0,0,1,.31,0c.05,0,.1,0,.13-.07s.08-.09.15-.09l0,.09a.25.25,0,0,0,.36-.11h0c0,.05,0,.11.07.1a1.11,1.11,0,0,0,.4-.13.26.26,0,0,1,.19,0,.5.5,0,0,0,.46-.08c.09,0,.15-.11.26,0h0l.57-.14.29-.1.36-.13a1.34,1.34,0,0,1,.18-.07.34.34,0,0,0,.19-.07.24.24,0,0,1,.1,0c.06,0,.06,0,.06.09h0l.1-.14,0,.1s.05,0,.06,0a.18.18,0,0,0,.13-.17L41,61.43v0s0,0,0,0l0,.06c.07-.07.16-.07.25-.1h0s0,.07,0,.1a.1.1,0,0,1,0,0,0,0,0,0,0,0,0,0,0,0,0,0,0,0l.16,0h0s0,0,0,0,.19-.07.31,0,0,0,0,0l.2-.17s.06,0,.1,0h.12a1.6,1.6,0,0,1,.23,0c.14,0,.25,0,.28-.25s.05-.12.13-.08.09,0,.13,0,0,0,0-.08,0-.08.06,0,.2.11.27.25.1,0,.14,0L43.42,61a.3.3,0,0,1,.17,0,.22.22,0,0,1,.11,0s0,.08,0,.12c.2,0,.35-.1.53-.1l.05,0s0-.07,0-.14,0,0,0,0l0-.09h.07s.06,0,0,0,0-.09.08-.07.08.06.12,0,.06,0,0-.07,0-.06,0-.06.06,0,.07,0,.07.06.11,0a.16.16,0,0,1,.08-.06s.07,0,.08,0,0,.09.08.08l.26-.08a.11.11,0,0,0,.07-.06.14.14,0,0,1,.13-.1.22.22,0,0,1,.15.06h0c.13,0,.13,0,.08-.1v0h.15c.07,0,0,.06,0,.09a.22.22,0,0,0,.13-.06c0-.08.13-.08.21-.1h0l0,.1.15,0,.16,0c0-.05,0-.14.07-.17l.08.17c.26,0,.26,0,.38-.1a.23.23,0,0,0-.28,0c0-.07,0-.08,0-.1v0h0s.07,0,.11,0l.15-.11c.05.06,0,.08,0,.11l0,.13.08,0v0h0s0,.07.05.07l.09-.05s.05-.06,0-.11a.11.11,0,0,1,0-.07c0-.06,0-.13,0-.19s.07,0,.1-.06l0,.11,0,0h.14c0-.07-.07-.11,0-.16l.28-.19a.49.49,0,0,1,.25-.06l0,.15h0c.06,0,.13,0,.15-.06s0,0,0-.06h-.08a.12.12,0,0,1,.06-.18c.25-.12.49-.28.74-.42a10.29,10.29,0,0,0,.94-.69c.07-.07.17-.12.15-.26s0-.06.05-.08l.15-.16a.38.38,0,0,0,.06-.13,0,0,0,0,0,0-.06h-.06a2.19,2.19,0,0,0-.25.2c-.12.12-.3.17-.38.33a.13.13,0,0,1-.07,0,.17.17,0,0,0-.13.1s-.06.08-.09.1-.27.19-.42.27-.13.11-.21.11-.12.1-.19.14a.12.12,0,0,1-.08,0c-.08-.07-.13,0-.19,0-.32.14-.64.29-1,.42a1.16,1.16,0,0,1-.49.1h0l.06-.12h-.06c-.07,0-.11.11-.21.08s-.12,0-.12.11h0a.34.34,0,0,0-.31,0,.29.29,0,0,1-.25.07l0,0c-.09.08-.09.08-.16.06s-.05,0-.07,0-.07.07-.13,0-.07,0-.09,0,0,0-.06,0a.39.39,0,0,0-.24,0c-.07-.05-.13,0-.19,0a.51.51,0,0,1-.3,0l.15-.06.53-.11a1.94,1.94,0,0,1,.54-.13l.08,0,.19,0,.31-.1a.31.31,0,0,0,.07-.09h0l.29-.05c0-.16,0-.16.09-.2.08.12.1.14.18.12l.16,0a1.27,1.27,0,0,0,.23-.08l.52-.23a.41.41,0,0,0,.11-.07s0,0,0-.1-.21.06-.3-.09.09-.05.17,0a.21.21,0,0,0,.26-.1l0-.07a.31.31,0,0,1,.21-.11.31.31,0,0,0,.13-.06s0,0,0,0h0l0,0c.11,0,.19-.11.29-.16s.07,0,.1,0h0c0-.06,0-.12.1-.15a1.67,1.67,0,0,0,.33-.21,7.27,7.27,0,0,0,.68-.68l.06-.07a1.23,1.23,0,0,1,.26-.33l.07-.07s0,0,0-.07l-.26.2-.4.27a.15.15,0,0,0-.08.13h0a.59.59,0,0,1-.17.1c-.06,0-.08.1-.13.14s-.24.2-.37.29l-.48.31c-.18.1-.37.18-.55.27a6.29,6.29,0,0,1-.7.32,2.83,2.83,0,0,1-.41.14l0,0,.23-.17a0,0,0,0,1,0,0c.11,0,.18-.06.26-.12a1.32,1.32,0,0,1,.2-.12.91.91,0,0,0,.17-.09v0a.23.23,0,0,0,.2,0l.22-.1a5.68,5.68,0,0,0,.55-.28l.07-.05c.06-.11.19-.14.28-.21l.2-.18s0,0,0-.1l-.21.1a1.65,1.65,0,0,1-.54.36,2.54,2.54,0,0,1,.54-.36,2.31,2.31,0,0,1,.24-.2s0-.07.12,0a0,0,0,0,0,0,0,.81.81,0,0,0,.35-.36s.05-.09.07-.13l.07,0a.56.56,0,0,0,.14-.29l-.38.24-.16.11a2.69,2.69,0,0,1-.44.31,4.79,4.79,0,0,0-.53.34l-.13.08c-.17.08-.32.17-.49.24a7.24,7.24,0,0,1-.7.32c-.27.12-.54.21-.81.3s-.58.16-.86.24h0a3.51,3.51,0,0,0-.66.13l-.1,0a9.87,9.87,0,0,0-1.07.16l-.14,0-.91.12-.85.13-1,.13c-.41.07-.83.17-1.25.25l-.81.19-.73.19-.4.07-.67.11c-.34.06-.67.13-1,.18a1,1,0,0,1-.39,0l-.07,0-.45.08-.67.05c-.36,0-.72.09-1.09.11-.22,0-.45,0-.67,0v0l.07,0H33l.28,0,.52,0c.2,0,.41,0,.6,0,.43,0,.86-.08,1.28-.15l.17-.05c.42-.07.83-.13,1.24-.22a11.1,11.1,0,0,1,1.37-.28l.14,0,0,0-.07,0,.2-.08s0,0,0,0a.76.76,0,0,0-.3,0,.61.61,0,0,1-.19,0,.29.29,0,0,1,0-.08s0,0,0-.06,0-.09,0-.08H38a1.15,1.15,0,0,1-.45.07s-.07,0-.11,0l-.39.12c-.18,0-.37,0-.56.09s-.64.12-1,.16a8.33,8.33,0,0,1-1,.11,2.57,2.57,0,0,1-.55.06c-.29,0-.58.07-.88.08l-1,0c-.21,0-.42,0-.63,0H30.8c-.31,0-.62,0-.93-.07h-.28a3.08,3.08,0,0,1-.51,0c-.21,0-.43,0-.65-.07l-.84-.09a.48.48,0,0,0-.12,0,1.49,1.49,0,0,1-.47,0h-.45l-.24,0h-.67l-.68,0h-.81a5.46,5.46,0,0,1-.58,0c-.21,0-.43,0-.63-.06a1.52,1.52,0,0,0-.47-.06.13.13,0,0,1-.09,0,.31.31,0,0,0-.23,0s-.07,0-.11,0H22a.53.53,0,0,1-.18,0,2.67,2.67,0,0,0-.26-.09,1.07,1.07,0,0,1-.27-.06l-.19-.06a2.85,2.85,0,0,1-.7-.22,1.45,1.45,0,0,0-.29-.11,1.4,1.4,0,0,1-.3-.15,2.69,2.69,0,0,0-.29-.16,1.87,1.87,0,0,0-.32-.08l0,0s0,.05,0,.06,0,0,0,0a3.41,3.41,0,0,0,.33.17s0,0,0,.07,0,0,0,0a.78.78,0,0,0-.31-.05s-.06,0-.08-.07L19,58.36s0,0-.05,0-.09,0-.08-.09h0c-.1.1-.11.14-.06.19a.76.76,0,0,0,.16.11s.06,0,0,.08l-.32-.21s-.06-.07,0-.14,0-.08-.06-.09a.11.11,0,0,1-.08,0,1,1,0,0,0-.17-.22c-.13-.1-.2-.26-.38-.31s-.32-.28-.49-.43a.1.1,0,0,0-.09,0s0,.06,0,.09l.16.26.05.08a1.06,1.06,0,0,1-.23-.19,1.52,1.52,0,0,1-.38-.38,1.18,1.18,0,0,0-.17-.22,1.62,1.62,0,0,0-.18-.19.09.09,0,0,0-.12-.05l0,.21.05,0h0l0,0-.1-.07-.07-.07s0-.07-.1-.06a1,1,0,0,0,0,.1l.11.23a.24.24,0,0,1,0,.25.14.14,0,0,0,0,.14,1.52,1.52,0,0,0,.16.4c.11.19.24.37.36.56a1,1,0,0,1-.24-.26c-.07-.1-.22-.12-.25-.26l0,0c-.08,0-.11,0-.14-.08s-.1-.21-.16-.31-.05-.09-.13-.05a.13.13,0,0,0,0,.06,1.07,1.07,0,0,0,.19.42.24.24,0,0,1,.07.19.36.36,0,0,0-.21-.15l.13.17c.05.07.09.13.2.11s0,.06,0,.09h0c0,.07.14.11.15.21Zm27.2,2.46Zm-10-.89h.1l0,0H33.7Zm2.91-.38s0,0-.09,0h.09Zm7.57,1.35c0-.06,0-.1,0-.15l0,0h0l0,0C44.24,60.84,44.24,60.84,44.18,60.9Zm-.27-.23.07.21h0l-.06-.09-.05,0,0,0h0a.1.1,0,0,0,0,.05ZM36,59.74s0,0,0,0a.06.06,0,0,1,0,0,.12.12,0,0,1,.12-.07s0,0,.07,0l.12-.07c0,.12,0,.12-.12.06Zm-.19-.07s0,0,.06,0l-.1,0s0,.06,0,.06a1.45,1.45,0,0,1-.42,0s0-.06,0-.06a.58.58,0,0,1,.43,0Zm8.2.25H44a5.29,5.29,0,0,1-1,.15l-.36.05c0-.08,0-.07,0-.07l.48-.07.6-.07.69-.11h.09A1.25,1.25,0,0,1,44,59.92Zm-22.91-.76a.68.68,0,0,0,.2.07,1,1,0,0,1,.42.11l.18.06a2.91,2.91,0,0,1-1.1-.34A.88.88,0,0,1,21.13,59.16Zm13.17.75-.07,0v-.06h.42a.58.58,0,0,0,.14,0s0,0,.05,0,0,0,0,0l-.27,0H34.3Zm-14.71-1.2h0s0,0,0-.07l.05,0a.34.34,0,0,1,.12.06,1.27,1.27,0,0,0,.37.18l.06,0v0A3.9,3.9,0,0,1,19.59,58.71Zm12.93,1.65-.13,0a4.8,4.8,0,0,1-.52-.05l.69,0v0S32.54,60.36,32.52,60.36Zm4.78-.91-.11.06s-.08,0-.11-.07c.12,0,.23-.09.36,0Zm-16.56-.37-.2,0c-.06,0-.11,0-.14-.09A.52.52,0,0,1,20.74,59.08Zm12.5.91a.21.21,0,0,0-.2,0l0,0S33,60,33,60a.42.42,0,0,1,.16,0s.06,0,.1,0S33.25,60,33.24,60Zm.29-.08s0,0,0,0v0s-.1.08-.17,0S33.48,59.89,33.53,59.91Zm1.57-.13h.1c-.08.08-.08.08-.23.06Zm10.12.65s0,0,0,0-.08.05-.16,0A.13.13,0,0,1,45.22,60.43Zm2.15-1.57s-.07.06-.13,0v0s0,0,.16,0Zm1.08-1.27,0,0-.12.06,0,0ZM32.87,60l.06,0v0c0,.05,0,.05-.06.05h0Zm9.75,1.09,0,0s0,0,0,0l.06,0S42.64,61.07,42.62,61.08Zm7.17-4.46h0l-.06.08h0ZM32.74,60s0,0,0,0l-.05,0,0,0Zm8.77,1.36,0,0s0,0,0,0h0ZM31.6,60s0,0,0,0l0,0,0,0Zm10.72,1.17h0l0,0h-.07Zm5.44-2.51h0l0,0h0Zm-6,2.5,0,0,0,0,0,0ZM49,58.88a0,0,0,0,1,0,0h0Zm-12.18.62,0,0h0Zm12.61-.9h0v0Zm-31.73-.84v0h0v0Zm28.82,1.36h0ZM18,58v0Zm31.54-1.2h0Zm-1.38.94h0ZM31.85,60a0,0,0,0,1,0,0h0l0,0Zm.27,0v0h0Zm14.62-1.43h0Zm-8.67.71h0v0ZM31.48,60h0Zm1.07,0h0Z"/><path d="M24,59.16a.28.28,0,0,1-.22.08c-.25,0-.51,0-.76-.06a6.63,6.63,0,0,1-.76-.11c-.12,0-.24,0-.37-.06l-.33-.08s0,0,0-.06,0-.07.07-.07h.08l1,.14c.22,0,.44.06.66.07a2.48,2.48,0,0,1,.66.12S24,59.14,24,59.16Z"/><path d="M19.74,58.26h.08c.14,0,.26.11.4.15l.68.21.36.07h0s.1.1.18.08a.2.2,0,0,1,0,.05.09.09,0,0,1,0,0h-.05a4.21,4.21,0,0,1-.72-.18l-.57-.21s-.05,0-.06,0a.48.48,0,0,0-.22-.12.33.33,0,0,1-.1-.06Z"/><path d="M35,59.31a2.85,2.85,0,0,0,.51,0,5.86,5.86,0,0,1,.58-.1l.34-.05h0s0,0,0,0,0,0,0,0a1.58,1.58,0,0,0-.47.1l-.12,0a1.82,1.82,0,0,0-.52.08.09.09,0,0,1-.07,0,.44.44,0,0,0-.3,0h-.13s0,0,0,0a.06.06,0,0,1,0,0l.05,0H35Z"/><path d="M39,59a.55.55,0,0,0-.34,0,1,1,0,0,1-.29,0s0,0,0,0a.06.06,0,0,1,0,0l.22-.06.12,0a3.22,3.22,0,0,1,.47-.13c.16,0,.32-.1.49-.14,0,0,0,0,.05,0s0,.06,0,.08l-.06,0-.14,0L39,59Z"/><path d="M37.36,58.91a.23.23,0,0,1,.25,0,.16.16,0,0,1,0,.06.59.59,0,0,1-.37.09.59.59,0,0,0-.25.07c-.05,0-.1,0-.15,0a.1.1,0,0,1,0,0,.13.13,0,0,1,0-.05l.41-.07s.11,0,.15-.06Z"/><path d="M40.27,58.34a.73.73,0,0,1-.34.12l-.71.09h0l0,0h0l.91-.23a.13.13,0,0,1,.15.08Z"/><path d="M42.14,58,42,58s0,0,0,0l.38-.08.51-.06.05,0c-.09.1-.09.1-.18.1a.43.43,0,0,0-.16,0l-.37,0a.16.16,0,0,0-.14.06Z"/><path d="M44.42,57.6s0,0,0,0,.24-.12.39-.07,0,0,.08,0a.32.32,0,0,1,.29,0c-.07.07-.12.14-.22.11a.19.19,0,0,0-.18,0c-.11.07-.25,0-.38.05Z"/><path d="M41.22,58.19s0,0,0-.08l0,0A1,1,0,0,1,41.6,58a1.47,1.47,0,0,0,.21,0s0,0,.07,0a.28.28,0,0,1-.23.11.53.53,0,0,0-.37.07s0,0-.07,0h0Z"/><path d="M45.84,60.57c0,.08-.05.11-.09.11a.56.56,0,0,0-.36.09h0l0,0,0,0a.62.62,0,0,1,.33-.08Z"/><path d="M33.25,59.51c.22,0,.42,0,.61,0l0,0v0l0,0-.58,0Z"/><path d="M43,61.11l.11-.13s.1,0,.13.05l.06.23s0,0,0,0,0,0,0,0,0-.11-.1-.12Z"/><path d="M48.65,56.76s0-.07,0-.08l.37-.18.05,0s0,0,0,0a.67.67,0,0,1-.45.2Z"/><path d="M34.23,59.48v0l.48-.08h0s0,0,0,0,0,0,0,0l-.14,0Z"/><path d="M39.19,58.56a.44.44,0,0,1-.38.11l0,0s0-.05,0-.05l.17,0,.21,0h0v.05Z"/><path d="M31.55,59.61H31.3a0,0,0,0,1,0,0c0-.05,0-.05,0-.05h.4l.05,0v0a.23.23,0,0,1,0,0h-.21Z"/><path d="M43.59,57.81l0,0s0-.06,0-.07l.31-.05.11.05a.9.9,0,0,1-.25.06l-.13,0Z"/><path d="M49.39,59l-.27.23h-.06a.14.14,0,0,1,0,0,.45.45,0,0,1,.28-.2l.09,0Z"/><path d="M26.82,59.31h-.39s0,0,0,0,0,0,0,0a.11.11,0,0,1,.08,0l.28.06S26.81,59.28,26.82,59.31Z"/><path d="M18.8,58.22c0-.07-.09-.08-.14-.12s0,0,0,0l.05,0h0l.27.16a0,0,0,0,1,0,0l0,0-.14,0h0l0,0Z"/><path d="M29.44,59.44a.41.41,0,0,1,.28,0,.11.11,0,0,1,0,.05s0,0,0,0A.36.36,0,0,1,29.44,59.44Z"/><path d="M40.33,58.32s0-.07,0-.08a.68.68,0,0,1,.29,0c-.06.1-.09.11-.3.14Z"/><path d="M42.75,58.23c.1-.12.2-.09.3-.07h0a.1.1,0,0,0,0,0A.72.72,0,0,1,42.75,58.23Z"/><path d="M32.49,59.63l-.07,0v0a.14.14,0,0,1,.18,0v0a.1.1,0,0,1,0,0Z"/><path d="M44.93,57.85l.25-.08,0,0s0,0,0,0S45.06,57.91,44.93,57.85Z"/><path d="M40.07,58.64l.28-.06,0,0s0,0,0,0a.28.28,0,0,1-.29,0Z"/><path d="M43.15,58.15c.07-.07.12-.1.19,0s0,0,0,0a.05.05,0,0,1,0,0S43.24,58.2,43.15,58.15Z"/><path d="M49.42,59l0,0h0v0c0-.08,0-.14.1-.14s0,.09,0,.19a.05.05,0,0,1,0,0h-.06Z"/><path d="M45.09,60.82l-.05,0a.08.08,0,0,1,0-.08l.07,0a.09.09,0,0,1,.05,0,.06.06,0,0,1,0,.06Z"/><path d="M38.54,58.68s0,.08,0,.09h-.14c0-.06,0-.07,0-.08Z"/><path d="M30.82,59.57a.14.14,0,0,1,.15-.06.12.12,0,0,1,.06.06s0,0-.07,0A.51.51,0,0,1,30.82,59.57Z"/><path d="M43.71,61.2l-.06,0s-.06,0-.08,0,0-.14,0-.13S43.66,61.15,43.71,61.2Z"/><path d="M48.51,56.89a.13.13,0,0,1,.14-.13h0c0,.06,0,.11,0,.12Z"/><path d="M31.91,59.58a.24.24,0,0,1,.26,0H32Z"/><path d="M40.85,58.19s.1-.1.16,0v0C41,58.27,40.91,58.22,40.85,58.19Z"/><path d="M49.52,57.66a.74.74,0,0,1-.13.12s0,0,0,0,0-.05,0-.05l.15-.08Z"/><path d="M42.1,61.32s0,.06,0,.09a.2.2,0,0,1,0,.07.07.07,0,0,1-.06,0s0,0,0-.06a.09.09,0,0,1,0-.11Z"/><path d="M43.15,57.76l.09.05s0,0,0,0l0,0a.24.24,0,0,1-.08-.06Z"/><path d="M24.9,59.16l.05,0v0s0,0,0,0-.08,0-.11,0v0Z"/><path d="M46,60.58h0a.11.11,0,0,1,0-.06.08.08,0,0,1,0,0h0v.07Z"/><path d="M29.85,59.47a.17.17,0,0,1,.17,0C30,59.52,30,59.52,29.85,59.47Z"/><path d="M27.71,62.72H27.6s0,0,0,0,0,0,0,0h.11Z"/><path d="M44.48,60.89a.13.13,0,0,1,.13-.09l0,0a.11.11,0,0,1,0,0Z"/><path d="M45.71,57.29h.19c0,.07-.11.09-.19,0Z"/><path d="M28.1,59.31l.2,0a.26.26,0,0,1-.21,0Z"/><path d="M29.18,59.38h.1s0,0,0,0,0,0,0,0l-.09,0Z"/><path d="M42.81,61.17a.19.19,0,0,1,0-.07l0,0s.06,0,.06,0,0,.07,0,.06Z"/><path d="M40.81,58.47l.14,0c0,.08,0,.06-.06.07H40.8v-.09Z"/><path d="M30.7,59.56l-.06,0a.07.07,0,0,1-.05,0s0,0,.06,0l.06,0Z"/><path d="M40.57,58.55s0,.06,0,.06l-.06,0s0,0,0,0Z"/><path d="M44.23,57.61h0l0,0,0,0h0l0,0Z"/><path d="M44,58l0,0s-.05,0-.08,0v0s0,0,.05,0Z"/><path d="M43.66,58.12h-.07l0,0,.06,0Z"/><path d="M41.38,58.45c0-.06.07-.09.16,0Z"/><path d="M44.87,57.94l0,0s0,0,0,0,0,0,0,0h0s0,0,0,0S44.88,57.92,44.87,57.94Z"/><path d="M41.74,58.36l0,0s0,0,0,0,0,0,0,0Z"/><path d="M30.43,59.53l-.06,0s0,0,0,0v0h.08Z"/><path d="M32.73,59.56l.05,0h.12C32.81,59.58,32.81,59.58,32.73,59.56Z"/><path d="M49,58l.1-.09h0s0,.07,0,.09A.11.11,0,0,1,49,58Z"/><path d="M47.23,59.21l.18-.08c-.06.11-.06.11-.18.08Z"/><path d="M34.11,59.49l-.07,0s0,0,0,0l.07,0Z"/><path d="M42.28,58.31c0-.06,0-.06.06-.06l0,0v0Z"/><path d="M48.07,57.19l0,0a.06.06,0,0,1,0,0s0,0,0,0Z"/><path d="M16.18,56.44l-.05.06h0a.25.25,0,0,1,0-.07Z"/><polygon points="49.01 57.93 49.04 57.97 49.04 57.97 48.89 58.09 48.87 58.06 49.01 57.93 49.01 57.93"/><path d="M48.78,59.39l0,0,0,0a.13.13,0,0,1,0-.06Z"/><path d="M48.85,58.22h0s0,0,0,.06h0Z"/><path d="M45.68,57.31c0,.06,0,.06-.12,0l.12,0Z"/><path d="M27.87,59.34h0s0,0,0,0l0,0Z"/><path d="M28.55,59.37v0h.07v0Z"/><path d="M15.71,56.79l0-.06s0,0,0,0,0,0,0,0Z"/><path d="M44.36,58v0H44.3v0Z"/><path d="M30.2,59.53h0v0h0S30.19,59.51,30.2,59.53Z"/><path d="M41.11,58.53l0,0,0,0h0Z"/><path d="M42.12,58.29l0,0,0,0,0,0Z"/><path d="M27,59.3l.05-.06,0,0v0H27Z"/><path d="M27.61,59.27l0,0-.06,0a0,0,0,0,1,0,0Z"/><path d="M44.15,58l0,0s0,0,0,0l0,0Z"/><path d="M24.54,59.21h0v0h0Z"/><path d="M43.94,61.18s0,0,0,0a0,0,0,0,1,0,0s0,0,0,0Z"/><path d="M48.49,59.61l0,0,0,0,.05,0Z"/><path d="M49.48,59s0,0,0,0l0,0,0-.07h.06Z"/><path d="M46.1,60.77h-.05s0,0,0,0l0,0Z"/><path d="M31.16,59.57l0,0v0l0,0Z"/><path d="M49.88,57.43s0,0,0,0h0a0,0,0,0,1,0,0Z"/><path d="M47.68,59v0h0v0Z"/><path d="M48.33,58.5h0Z"/><path d="M25.45,59.24h0v0h0Z"/><path d="M25.09,59.24h0v0h0Z"/><path d="M45.32,57.79h0v0h0Z"/><path d="M44.53,58h0v0h0Z"/><path d="M40.72,61.67l0,0h0v0h0Z"/><polygon points="40.68 58.56 40.69 58.55 40.7 58.56 40.68 58.56"/><path d="M44.09,57.68h0v0l0,0Z"/><path d="M49.88,57.43l0,0h0Z"/><path d="M28.86,59.39v0l0,0h0Z"/><path d="M47.23,59.21h0a0,0,0,0,1,0,0h0Z"/><path d="M48.2,59.69a.06.06,0,0,0,0,0h0v0l0,0Z"/><polygon points="46.48 57.74 46.47 57.74 46.48 57.73 46.48 57.74"/><path d="M47.89,59.87h0v0h0Z"/><polygon points="25.31 59.22 25.32 59.22 25.32 59.23 25.31 59.22"/><path d="M46.18,60.62v0h0v0Z"/><polygon points="45.61 57.75 45.6 57.75 45.6 57.74 45.61 57.75"/><path d="M44.67,57.94h0v0Z"/><path d="M42.63,61.38h0Z"/><path d="M25.85,59.23s0-.07.06,0h-.06Z"/><path d="M40.27,58.35l.06,0,0,0s-.05,0-.08,0Z"/><polygon points="41.24 58.46 41.24 58.44 41.25 58.45 41.24 58.46"/><polygon points="42.65 58.25 42.64 58.26 42.63 58.25 42.65 58.25"/><polygon points="26.12 59.22 26.12 59.24 26.13 59.22 26.12 59.22"/><polygon points="26.16 59.23 26.18 59.24 26.17 59.24 26.16 59.22 26.16 59.23"/><polygon points="25.85 59.23 25.82 59.24 25.83 59.23 25.85 59.23 25.85 59.23"/><polygon points="45.45 57.79 45.45 57.78 45.46 57.8 45.45 57.79"/><path d="M30.34,62.94h0Z"/><polygon points="45.68 57.31 45.71 57.29 45.71 57.3 45.7 57.3 45.68 57.31 45.68 57.31"/><path d="M39,59Z"/><polygon points="26.13 59.22 26.16 59.23 26.16 59.22 26.12 59.22 26.13 59.22"/><path d="M27,59.29h0Z"/><polygon points="39.22 58.55 39.19 58.56 39.19 58.56 39.23 58.55 39.22 58.55"/><polygon points="25.91 59.24 25.91 59.29 25.91 59.28 25.92 59.24 25.91 59.24"/><polygon points="25.91 59.29 25.9 59.3 25.91 59.28 25.91 59.29"/><path d="M48.51,56.89Z"/><path d="M42.14,58Z"/><path d="M40.08,58.64h0Z"/><path d="M40.81,58.47Z"/><path d="M43.59,57.81Z"/><path d="M41.42,61.56Z"/><path d="M16.35,58.15Z"/><path d="M46.1,60.77Z"/></svg>