<svg id="Layer_1" data-name="Layer 1" xmlns="http://www.w3.org/2000/svg" viewBox="0 0 67 82"><defs><style>.cls-1{fill:#faf200;}</style></defs><path d="M4.35,62.86a27.38,27.38,0,0,1-1.87-5,50.28,50.28,0,0,1-1.15-5.08,69.48,69.48,0,0,1-1-10.87A31.8,31.8,0,0,1,7.79,20.56,40.62,40.62,0,0,1,16.6,13c6.9-4.48,14.45-7.76,22-11.1.87-.38,1.79-.69,2.68-1a.55.55,0,0,1,.46.12s-.14.21-.27.29A13.35,13.35,0,0,1,40.19,2c-3.47,1.49-6.93,3-10.28,4.66-1.08.52-2.14,1.08-3.18,1.67s-2.09,1.16-3.1,1.78c-1.58.89-3.07,1.9-4.58,2.88S16.12,15,14.79,16.21c-1.24.95-2.29,2.07-3.42,3.11a35,35,0,0,0-2.94,3.53c-.38.55-.79,1.08-1.14,1.65l-1,1.74-.49.88L5.44,28l-.77,1.84c-.22.63-.37,1.28-.57,1.91a16.2,16.2,0,0,0-.49,1.94l-.32,2-.17,1-.07,1A59.72,59.72,0,0,0,3.64,48,64.08,64.08,0,0,0,5.71,58a25.49,25.49,0,0,0,1.15,3,9.55,9.55,0,0,0,.72,1.35,11,11,0,0,0,.92,1.32,39.68,39.68,0,0,0,4.47,5c.48.43,1,.86,1.49,1.27s1,.78,1.55,1.19c4.26,3.25,9.19,5.88,14.34,6.57,5.4.88,10.64-1.7,15.28-5a66.42,66.42,0,0,0,8-6.75c.88-.88,1.8-1.79,2.62-2.69a22.79,22.79,0,0,0,2.19-2.84,29.39,29.39,0,0,0,3.22-6.53A29,29,0,0,0,63.1,48.6a21,21,0,0,0-.23-8.79A49.94,49.94,0,0,0,60,31.11a48.52,48.52,0,0,0-9.23-14.2A36.86,36.86,0,0,0,40.37,9.55a63.52,63.52,0,0,0-7.43-3C29.14,5.18,25.23,4,21.35,2.74c-1.2-.39-2.41-.76-3.6-1.18-.19-.06-.33-.25-.49-.38a1.68,1.68,0,0,1,.59,0c3.61,1,7.25,1.8,10.87,2.74a58.68,58.68,0,0,1,6.93,2.2A50.4,50.4,0,0,1,50,14a45.91,45.91,0,0,1,8.84,10.27,58,58,0,0,1,4.51,8.31,45.59,45.59,0,0,1,2,5.61,29.41,29.41,0,0,1,.83,3.56c.09.62.15,1.24.21,1.86s.06,1.24,0,1.85a30.48,30.48,0,0,1-1,7.26,34.78,34.78,0,0,1-3.09,7.78A30.3,30.3,0,0,1,60,64c-.42.58-.89,1.12-1.37,1.66s-.93,1-1.4,1.5-.68.72-1,1a71.42,71.42,0,0,1-11.42,9.12A28.42,28.42,0,0,1,37,80.63a20,20,0,0,1-8.62,0,32.82,32.82,0,0,1-10.17-4.07,43.1,43.1,0,0,1-4-2.7A45,45,0,0,1,6.49,66.3c-.4-.51-.78-1-1.16-1.58a15.92,15.92,0,0,1-1-1.84Z"/><path class="cls-1" d="M31,6C13,15.93,4.23,18.47,1.9,38.3,1.14,44.83,3.14,59.66,7,65c5.82,8,17,14.43,27,14,8.56-.37,18.12-7.81,24-14,5.53-5.82,8.75-17.19,7-25S60,25,54,19c-9-9-9-8-22-13"/><circle cx="24" cy="32" r="3.5"/><path d="M23.24,30a2.65,2.65,0,0,0-.66.4c-.11.07-.29.1-.39.21a.31.31,0,0,0-.13.3.37.37,0,0,1-.15.46c-.06,0-.11.1-.05.17s.11.26-.11.39,0,.38-.07.56a1,1,0,0,0,.08.56c.07.16.25.26.36.38s.19.22.31.31a2,2,0,0,0,.32.18,2.18,2.18,0,0,0,1.34.3.34.34,0,0,0,.22-.14c.09-.1.16-.15.3,0s.08.06.11,0c.22-.25.72-.14.74-.62,0-.24.24-.2.54-.22a.79.79,0,0,0,.69-.46,5.84,5.84,0,0,0,.26-.67.29.29,0,0,1,.11-.11.58.58,0,0,1,.17,0l.21,0c.23.12.61.26.61.44a3.23,3.23,0,0,1-.1,1.19,4.26,4.26,0,0,1-1.36,1.81,8,8,0,0,1-.82.68,3.62,3.62,0,0,1-2.65.64,6.17,6.17,0,0,1-1.6-.45,4.75,4.75,0,0,1-2.3-2.91,5,5,0,0,1,1.27-4.56,3.94,3.94,0,0,1,2.6-1.14,3.45,3.45,0,0,1,1.66.08,4.74,4.74,0,0,1,2.1,1.33,2.89,2.89,0,0,1,.47,1.3,3.67,3.67,0,0,1,0,1.19c0,.13-.06.26-.39.35a1.15,1.15,0,0,1-.49,0l-.18-.1c-.2-.18-.28-.31-.2-.52a1.17,1.17,0,0,0-.07-.76c0-.06-.14-.05-.21-.07a1.85,1.85,0,0,1-.38-.05,2,2,0,0,1-.63-.54c-.13-.18-.35-.14-.53-.13a1.9,1.9,0,0,0-1,.35Z"/><circle cx="41" cy="31" r="3.5"/><path d="M40.24,29a2.65,2.65,0,0,0-.66.4c-.11.07-.29.1-.39.21a.31.31,0,0,0-.13.3.37.37,0,0,1-.15.46c-.06,0-.11.1,0,.17s.11.26-.11.39,0,.38-.07.56a1,1,0,0,0,.08.56c.07.16.25.26.36.38s.19.22.31.31a2,2,0,0,0,.32.18,2.18,2.18,0,0,0,1.34.3.34.34,0,0,0,.22-.14c.09-.1.16-.15.3,0s.08.06.11,0c.22-.25.72-.14.74-.62,0-.24.24-.2.54-.22a.79.79,0,0,0,.69-.46,5.84,5.84,0,0,0,.26-.67.29.29,0,0,1,.11-.11.58.58,0,0,1,.17,0l.21,0c.23.12.61.26.61.44a3.23,3.23,0,0,1-.1,1.19,4.26,4.26,0,0,1-1.36,1.81,8,8,0,0,1-.82.68,3.62,3.62,0,0,1-2.65.64,6.17,6.17,0,0,1-1.6-.45,4.75,4.75,0,0,1-2.3-2.91,5,5,0,0,1,1.27-4.56,3.94,3.94,0,0,1,2.6-1.14,3.45,3.45,0,0,1,1.66.08,4.74,4.74,0,0,1,2.1,1.33,2.89,2.89,0,0,1,.47,1.3,3.67,3.67,0,0,1,0,1.19c0,.13-.06.26-.39.35a1.15,1.15,0,0,1-.49,0l-.18-.1c-.2-.18-.28-.31-.2-.52a1.17,1.17,0,0,0-.07-.76c0-.06-.14-.05-.21-.07a1.85,1.85,0,0,1-.38-.05,2,2,0,0,1-.63-.54c-.13-.18-.35-.14-.53-.13a1.9,1.9,0,0,0-1,.35Z"/><path d="M16.24,51.44s0,.05,0,.07c.13.2.33.34.41.58s.39.48.59.72a.79.79,0,0,1,.14.23c0,.05,0,.12.11.14s0,0,0,0,0,.18.09.24.33.31.46.49a.49.49,0,0,0,.19.16c.08,0,.15.09.16.2a.44.44,0,0,0,.1.15l.19.16.45.4a1.92,1.92,0,0,0,.43.32.77.77,0,0,1,.28.23.85.85,0,0,0,.19.19l.4.26a.27.27,0,0,1,.1.08.94.94,0,0,0,.34.26c.39.23.78.44,1.18.63l.34.16c.29.13.58.27.88.39s.48.14.72.22a2.16,2.16,0,0,0,.55.16.05.05,0,0,1,0,0,.71.71,0,0,0,.32.1l.19,0c.27.08.55.14.83.21l.38.08.22.05c.25,0,.49,0,.73.09s.55.09.82.13a1.33,1.33,0,0,0,.38.07,1.23,1.23,0,0,1,.43,0l.28,0h.12a2.07,2.07,0,0,0,.49.07.5.5,0,0,1,.37.1.17.17,0,0,0,.1,0s.05,0,.08,0l0-.1h.07l.59,0a1.83,1.83,0,0,1,.32.07l.05,0h0a.46.46,0,0,0,.41,0,.47.47,0,0,1,.17,0H32l.77-.07c.17,0,.33-.08.5,0h.07c.23,0,.47,0,.7-.06a9.82,9.82,0,0,1,1.09-.12l.19,0a3.12,3.12,0,0,1,.61-.11,2.36,2.36,0,0,0,.44-.07,1.31,1.31,0,0,0,.28-.09,1.3,1.3,0,0,1,.37-.08,1.86,1.86,0,0,0,.34,0,4.92,4.92,0,0,0,1.2-.37.48.48,0,0,1,.35-.06.11.11,0,0,0,.15-.09.17.17,0,0,1,.17-.12l0,.1a.35.35,0,0,0,.41-.18h0s0,.1.09.08a1.39,1.39,0,0,0,.45-.19.29.29,0,0,1,.22-.08.68.68,0,0,0,.51-.17c.09-.07.16-.14.29-.09a.07.07,0,0,0,.06,0,5.9,5.9,0,0,0,.63-.25l.36-.19c.15-.07.29-.16.43-.24a2.39,2.39,0,0,1,.21-.13.46.46,0,0,0,.22-.14l.12-.09c.06,0,.07,0,.08.07h0l.09-.18.09.08s.06,0,.07,0,.14-.11.12-.22l-.07,0v0h0l0,.06c.06-.1.17-.14.27-.21h0a.4.4,0,0,1,0,.11s0,0,0,.07,0,0,0,0h0l.18-.1h0s0,0,0,0,.21-.16.35-.17,0,0,0,0l.18-.26s.08,0,.12-.05h0l.14-.06A1.28,1.28,0,0,1,45.2,55a.32.32,0,0,0,.23-.38c0-.08,0-.14.1-.15s.1-.05.15-.08,0-.06,0-.1,0-.09.05-.06.26,0,.39.09.11,0,.13-.13h-.11a.38.38,0,0,1,.17-.14.16.16,0,0,1,.12,0s.06.06.09.09c.21-.09.33-.28.52-.38a.12.12,0,0,0,0-.19l-.05,0,0-.07.06,0s.07,0,0-.06,0-.1,0-.1.11,0,.15,0,0,0,0-.08,0,0,0-.07a.11.11,0,0,1,.08,0c.06,0,.1,0,.12-.05a.41.41,0,0,1,.05-.09s.07-.06.11,0,.07.06.11,0l.23-.23a.15.15,0,0,0,0-.09.16.16,0,0,1,.08-.16.25.25,0,0,1,.19,0h0c.13,0,.13,0,0-.14s0,0,0,0l.14-.07c.07,0,0,0,.08.06s.09-.07.1-.12.1-.16.17-.22h0V52a1,1,0,0,1,.13-.11.85.85,0,0,1,.17-.06s-.07-.12,0-.19l.14.12c.26-.11.27-.12.32-.29a.25.25,0,0,0-.26.13c-.07,0,0-.07,0-.1v0h0l.1-.07a1.62,1.62,0,0,0,.1-.18c.07,0,0,.06,0,.1l0,.12.06-.06v0s.06,0,.07,0a.31.31,0,0,0,.07-.09s0-.08,0-.11a.07.07,0,0,1,0-.05.64.64,0,0,1,0-.2s0-.07.07-.1l.08.08.05,0,.12-.07c0-.05-.11-.07-.06-.15a1.57,1.57,0,0,1,.2-.3.47.47,0,0,1,.22-.17l.08.13h0c.06,0,.13,0,.13-.12s0,0,0-.06l0,0s0,0,0,0h0a.14.14,0,0,1,0-.2c.2-.23.4-.46.59-.71a9.31,9.31,0,0,0,.74-1.11c.06-.1.14-.21.08-.34s0-.08,0-.12.08-.17.11-.26a.91.91,0,0,0,0-.17s0,0,0,0-.05,0-.06,0-.13.23-.18.35-.26.32-.29.54l0,.07a.25.25,0,0,0-.11.17.32.32,0,0,1-.06.15c-.12.15-.23.3-.35.44s-.1.17-.17.2-.09.15-.15.22,0,0-.07,0-.14,0-.19.08l-.79.84a1.31,1.31,0,0,1-.44.34h0l0-.14-.05,0c-.06.07-.07.16-.18.19a.11.11,0,0,0-.07.17h0a.42.42,0,0,0-.32.16.41.41,0,0,1-.21.2s0,0,0,0-.05.13-.13.14,0,0-.06.06a.09.09,0,0,1-.11.1.1.1,0,0,0-.1.06.08.08,0,0,1,0,.07c-.09.05-.18.07-.23.16a.25.25,0,0,0-.19.12.64.64,0,0,1-.3.17.58.58,0,0,1,.13-.14l.49-.4a2.36,2.36,0,0,1,.47-.42s0,0,.08-.07l.17-.15a3.19,3.19,0,0,0,.26-.26s0-.08,0-.11h0l.26-.19c-.1-.13-.1-.13,0-.24.12.07.14.08.22,0l.14-.12.19-.19.45-.47L50,49.5s0-.07,0-.1-.18.15-.32.06c0-.08.07-.1.16-.11a.25.25,0,0,0,.23-.21s0,0,0-.08a.43.43,0,0,1,.17-.21.32.32,0,0,0,.12-.11s0,0,0,0h0l0,0,.25-.28s.07,0,.11,0h0c0-.08,0-.14.06-.2a2.51,2.51,0,0,0,.27-.37,6.13,6.13,0,0,0,.45-1.08.36.36,0,0,0,0-.11,4.35,4.35,0,0,1,.1-.52l0-.12s0-.06,0-.06-.09.26-.14.38-.17.35-.26.52a.17.17,0,0,0,0,.18h0a.5.5,0,0,1-.13.19c0,.06,0,.15-.08.22s-.19.31-.29.46a5.17,5.17,0,0,1-.39.53c-.16.19-.32.36-.48.53l-.61.65c-.11.12-.24.23-.36.35h0l.17-.29,0,0a.43.43,0,0,0,.22-.24,2,2,0,0,1,.17-.23l.14-.17v0a.25.25,0,0,0,.2-.1l.2-.2c.16-.17.32-.34.48-.53a.24.24,0,0,0,.06-.08c0-.14.14-.23.21-.35a1.43,1.43,0,0,0,.15-.27s0-.05,0-.12l-.19.2a2,2,0,0,1-.43.61,4.12,4.12,0,0,1,.43-.6l.18-.33s0-.09.11-.07a.09.09,0,0,0,.05,0,1.08,1.08,0,0,0,.2-.55.9.9,0,0,1,0-.18h.08a.71.71,0,0,0,0-.38,3.54,3.54,0,0,1-.23.48l-.11.19a2.61,2.61,0,0,1-.31.54,5.9,5.9,0,0,0-.42.6c0,.05-.08.09-.11.14l-.43.46-.63.67c-.24.25-.5.49-.75.73s-.52.49-.78.72l0,0a4.24,4.24,0,0,0-.62.5l-.09.06c-.35.24-.67.5-1,.75l-.13.11-.87.56c-.27.17-.53.36-.8.51s-.67.35-1,.53-.8.43-1.22.61-1.07.47-1.61.69a4,4,0,0,1-.45.15l-.76.23c-.37.12-.75.24-1.14.34a1.29,1.29,0,0,1-.44,0s-.05,0-.08,0-.34.11-.51.15l-.77.13c-.41.08-.83.17-1.25.22l-.78.06,0,0a.18.18,0,0,1,.09,0l.24,0,.32-.05.61-.07.69-.09c.49-.08,1-.19,1.46-.31l.19-.08c.47-.13.94-.25,1.4-.42s1-.39,1.53-.53a.76.76,0,0,0,.16-.06l0,0-.09,0,.23-.12,0,0a1.05,1.05,0,0,0-.35.08.71.71,0,0,1-.21,0s0,0,0-.07,0,0,0-.06,0-.09-.06-.08l-.11,0a1.45,1.45,0,0,1-.5.15s-.08,0-.12,0-.28.14-.43.19l-.63.18c-.36.11-.72.23-1.09.31a8.7,8.7,0,0,1-1.13.23,3.36,3.36,0,0,1-.63.13c-.34.06-.67.13-1,.17l-1.2.1c-.25,0-.49,0-.73,0s-.53,0-.79,0-.73,0-1.09,0h-.33a2.45,2.45,0,0,1-.54,0c-.23,0-.47,0-.7-.08l-.89-.15h-.13a1.77,1.77,0,0,1-.51-.05,1.08,1.08,0,0,0-.19,0l-.29-.07-.26-.06c-.25,0-.49-.09-.73-.15l-.74-.19-.33-.1-.36-.1-.18-.07c-.22-.07-.43-.13-.64-.22s-.45-.18-.68-.27a3.81,3.81,0,0,0-.5-.23s-.07,0-.09-.07a.44.44,0,0,0-.24-.11.52.52,0,0,1-.13-.06L22,53.66l-.2-.07a1.65,1.65,0,0,0-.27-.19,1.59,1.59,0,0,1-.29-.15L21,53.12a4.38,4.38,0,0,1-.73-.48l-.3-.22a1.33,1.33,0,0,1-.33-.24,1.8,1.8,0,0,0-.29-.26c-.09-.09-.24-.11-.36-.18l0,0s0,0,0,.06,0,0,.06,0l.33.28s0,.05,0,.07-.05,0-.06,0a.82.82,0,0,0-.33-.14s-.06-.05-.08-.09a.61.61,0,0,1-.07-.14s0-.06-.05,0-.09-.05-.08-.11h0v0h0c-.12.08-.14.12-.08.19s.1.1.15.16.07,0,0,.08l-.33-.3a.12.12,0,0,1,0-.16c.05-.07,0-.07-.06-.1a.16.16,0,0,1-.08-.06,2.4,2.4,0,0,0-.18-.26c-.13-.13-.2-.32-.38-.41a3.86,3.86,0,0,0-.53-.54s-.07,0-.09,0,0,.07,0,.1l.17.31,0,.09a1.84,1.84,0,0,1-.25-.23,4.4,4.4,0,0,1-.4-.46,1.45,1.45,0,0,0-.17-.26,2.09,2.09,0,0,0-.2-.22s0-.08-.12-.06l0,.23.05,0v0h0l0,0-.1-.09L16,49.58s0-.08-.1-.07a.49.49,0,0,1,0,.11l.12.25a.28.28,0,0,1,0,.28s0,.1,0,.15a3.25,3.25,0,0,0,.18.43c.11.21.22.43.35.63a1.17,1.17,0,0,1-.24-.3c-.07-.11-.23-.14-.25-.29a0,0,0,0,0,0,0c-.08,0-.1,0-.13-.09l-.19-.34s0-.1-.12-.06v.06a1.28,1.28,0,0,0,.21.46c0,.06.08.11.06.2-.09-.13-.09-.13-.2-.17l.12.19c.05.07.09.14.2.13s0,.06,0,.1h0c.05.08.14.13.15.24Zm30.15,2.44ZM35,55.72h.12l0,0H35ZM38.3,55s-.07,0-.11,0h0Zm8.63-1.26s0-.1,0-.15h0l0,0C47,53.6,47,53.6,46.93,53.69Zm-.38-.06.15.15,0,0-.1,0h-.08l0,0,.06,0Zm-8.91,1.61,0,0v0a.16.16,0,0,1,.14-.09s.05,0,.08,0l.13-.09c0,.12,0,.12-.13.08Zm-.22-.05h.06l-.1,0s0,.05,0,.06a1.86,1.86,0,0,1-.49.08s0-.06,0-.07a.85.85,0,0,1,.5-.07Zm9-2.33-.07,0a6.2,6.2,0,0,1-1,.66l-.36.22c0-.07,0-.07,0-.09l.48-.3L46.1,53c.23-.15.44-.32.66-.48l.09,0h0A1.91,1.91,0,0,1,46.38,52.86Zm-25.32.51a.62.62,0,0,0,.21.15,1.16,1.16,0,0,1,.43.25,1,1,0,0,0,.19.13,3.74,3.74,0,0,1-1.13-.73A1.74,1.74,0,0,1,21.06,53.37Zm14.61,2.25s-.06,0-.09,0v0s0,0,0,0h0l.47,0,.15-.05s0,0,.06.05,0,0,0,0l-.31,0h0ZM19.45,52.4h0a.05.05,0,0,1,0-.08h.06a.58.58,0,0,1,.12.1,2.31,2.31,0,0,0,.39.31.15.15,0,0,1,.05.06v0A6,6,0,0,1,19.45,52.4Zm14.2,3.85-.15,0a4.12,4.12,0,0,1-.61,0c.26,0,.53,0,.79-.08v0Zm5.42-1.51-.13.08s-.08,0-.12-.06c.14,0,.25-.13.4-.07ZM20.65,53.15l-.22-.1c-.06,0-.12-.06-.13-.14A.79.79,0,0,1,20.65,53.15Zm13.8,2.66a.4.4,0,0,0-.23.08l0,0s0,0,0-.06l.18,0a.31.31,0,0,1,.13,0Zm.33-.1,0,0v0a.13.13,0,0,1-.19,0A.17.17,0,0,1,34.78,55.71Zm1.8-.31.11,0c-.08.09-.08.09-.26.09Zm11.2-2.73,0,0c0,.07-.07.09-.16.11A.19.19,0,0,1,47.78,52.67Zm1.49-2.62s-.05.1-.12.09a0,0,0,0,1,0,0s0-.06.14-.11S49.28,50.05,49.27,50.05ZM50,48.28l0,0-.11.12,0,0ZM34,55.85l.07-.05v0s0,0-.07.06h0ZM45.33,54.7h-.06a.07.07,0,0,1,0-.05l.06,0S45.34,54.69,45.33,54.7ZM51,46.65h0l0,.12h0Zm-17.12,9.2a.1.1,0,0,1,0,0l0,0,0,0Zm10.27-.37h0a.06.06,0,0,1,0,0h0Zm-11.59.45,0,0s0,0,0,0l0,0Zm12.46-1h0l0,0-.07,0Zm4.58-5.27h0v0h0Zm-5.2,5.53s0,0,0,0l0,0,0,0Zm6.52-5.81s0,0,0,0l0,0v0Zm-12.36,5.5,0,0h0Zm12.71-6s0,0,0,0,0,0,0,0v0ZM17.52,51h0a0,0,0,0,1,0,0s0,0,0,0Zm31-.22h0Zm-30.71.56v0Zm33-4.33h0l0,0A0,0,0,0,1,50.86,47Zm-1.1,1.62h0v0h0S49.76,48.58,49.76,48.58ZM32.84,56v0l0,0h0Zm.31-.05,0,0h0Zm15.38-5.82h0ZM39.92,54.4h0v0ZM32.41,56h0Zm1.24-.11h0Z"/><path d="M24.22,54.37a.32.32,0,0,1-.27,0c-.27-.09-.54-.21-.81-.31a7.65,7.65,0,0,1-.82-.38l-.39-.19-.35-.2a.06.06,0,0,1,0-.07s.05-.06.09-.06l.09,0c.34.18.69.33,1,.49a6.44,6.44,0,0,0,.72.3,7.36,7.36,0,0,1,.7.33S24.21,54.34,24.22,54.37Z"/><path d="M19.67,52l.08,0,.44.29c.24.15.47.32.73.45l.38.22h0c.06.06.1.15.19.15s0,0,0,.06,0,0-.05,0H21.4c-.26-.14-.52-.28-.77-.44L20,52.34l-.07,0a.87.87,0,0,0-.23-.2s-.06-.06-.1-.09Z"/><path d="M36.46,55c.19,0,.39-.05.58-.11a5,5,0,0,1,.66-.19l.38-.1h.05s0,0,0,0,0,0,0,0a1.61,1.61,0,0,0-.52.18l-.14,0a2.54,2.54,0,0,0-.6.16.08.08,0,0,1-.07,0,.53.53,0,0,0-.35.07l-.14,0s0,0,0,0a.07.07,0,0,1,0,0,.09.09,0,0,1,.06,0l.12,0Z"/><path d="M40.88,54a.6.6,0,0,0-.34.11,1.17,1.17,0,0,1-.33.11l0,0s0,0,0,0l.24-.12.13-.05a4.39,4.39,0,0,1,.44-.21,3.88,3.88,0,0,0,.45-.24.07.07,0,0,1,.06,0s0,.05,0,.07l-.06,0-.13.07c-.14.09-.29.17-.44.25Z"/><path d="M39.08,54.19a.27.27,0,0,1,.29,0,.24.24,0,0,1,0,.07.82.82,0,0,1-.41.16.77.77,0,0,0-.28.12.22.22,0,0,1-.18,0l0,0a.11.11,0,0,1,0-.06l.46-.13a.27.27,0,0,0,.18-.1Z"/><path d="M42,53a.72.72,0,0,1-.29.2l-.66.24h0l0,0h0c.27-.15.55-.27.81-.43,0,0,.1,0,.16,0Z"/><path d="M43.71,52.07l-.14,0s0-.06,0-.07a4.15,4.15,0,0,1,.34-.24l.47-.3h.06c-.05.14-.05.14-.14.18l-.16.09-.34.2a.19.19,0,0,0-.11.12Z"/><path d="M45.79,50.52s0,0,0-.05.19-.25.36-.29,0-.06.07-.08a.54.54,0,0,1,.3-.19c0,.12-.07.22-.18.24a.29.29,0,0,0-.18.12,1.18,1.18,0,0,1-.37.26Z"/><path d="M42.87,52.58s-.06,0,0-.06,0,0,0,0a1.11,1.11,0,0,1,.34-.22,1.76,1.76,0,0,0,.2-.09h.07a.34.34,0,0,1-.18.19.61.61,0,0,0-.33.21s0,0-.07,0v0Z"/><path d="M48.46,52.46c0,.08,0,.13-.05.15a.74.74,0,0,0-.31.27.07.07,0,0,1-.05,0,.07.07,0,0,1-.06,0s0,0,0,0a.83.83,0,0,1,.3-.26Z"/><path d="M34.42,55.34c.25-.06.48-.07.7-.11,0,0,0,0,0,0v0l0,0c-.22,0-.44.06-.66.09Z"/><path d="M45.75,54.53l.07-.18a.09.09,0,0,1,.15,0,1.37,1.37,0,0,1,.16.18.21.21,0,0,1,0,.06l0,0c0-.08-.08-.09-.15-.06Z"/><path d="M49.94,47.34s0-.07,0-.09l.3-.35h.06v0a.8.8,0,0,1-.38.41Z"/><path d="M35.55,55.21v0L36.1,55h0l0,0s0,0,0,0l-.15,0Z"/><path d="M41,53.49a.38.38,0,0,1-.35.17s0,0-.05,0,0-.05,0-.05l.16-.08.2,0h0l0,0Z"/><path d="M32.46,55.57l-.29,0a.09.09,0,0,1-.05,0,0,0,0,0,1,.05-.05l.46,0,.07,0a0,0,0,0,1,0,0s0,0,0,0l-.24,0Z"/><path d="M45,51.17h0s-.06,0,0-.06a3.15,3.15,0,0,1,.29-.22l.13,0a1.24,1.24,0,0,1-.22.2.63.63,0,0,0-.12.11Z"/><path d="M51.29,49.27l-.18.34a.11.11,0,0,1-.06,0s-.06,0,0,0a.5.5,0,0,1,.2-.31s.06,0,.09,0Z"/><path d="M27.26,55.19l-.42-.07a.06.06,0,0,1,0,0l0,0s.07,0,.1,0l.29.11S27.25,55.16,27.26,55.19Z"/><path d="M18.65,51.67c0-.08-.1-.11-.14-.17a0,0,0,0,1,0,0l.06,0s0,0,0,0l.28.25a.06.06,0,0,1,0,0s0,0,0,0l-.15-.06h0l0,0Z"/><path d="M30,55.49a.49.49,0,0,1,.31-.05.13.13,0,0,1,0,.05s0,0,0,0A.44.44,0,0,1,30,55.49Z"/><path d="M42.05,53a.19.19,0,0,1,0-.08,1,1,0,0,1,.27-.13c0,.12,0,.14-.26.23Z"/><path d="M44.38,52a.32.32,0,0,1,.27-.22h0s0,0,0,0A.74.74,0,0,1,44.38,52Z"/><path d="M33.55,55.52l-.08,0s0,0,0,0a.16.16,0,0,1,.2,0v0s0,0,0,0Z"/><path d="M46.42,50.45l.21-.22h0s0,0,0,0A.31.31,0,0,1,46.42,50.45Z"/><path d="M41.89,53.37l.26-.13s0,0,.05,0,0,0,0,0a.27.27,0,0,1-.3.07Z"/><path d="M44.75,51.71c0-.1.07-.16.16-.15a0,0,0,0,1,0,0,0,0,0,0,1,0,0A.25.25,0,0,1,44.75,51.71Z"/><path d="M51.33,49.3l0,0h0v0a.14.14,0,0,1,.07-.18s.08.07.06.19v0h0l-.07,0Z"/><path d="M47.82,53.1h-.06s0-.06,0-.08a.16.16,0,0,1,.06-.08.06.06,0,0,1,.06,0,.11.11,0,0,1,0,.06A.41.41,0,0,1,47.82,53.1Z"/><path d="M40.4,53.72s0,.08,0,.09l-.15,0c0-.06,0-.08,0-.09l.14,0Z"/><path d="M31.61,55.57a.18.18,0,0,1,.17-.07l.08,0s0,.06-.09.05Z"/><path d="M46.55,54.22l0,.09s0,.06-.09,0,0-.12,0-.14A.5.5,0,0,1,46.55,54.22Z"/><path d="M49.84,47.54c0-.1,0-.17.1-.2h0c.05,0,.06.09,0,.13l-.11.06Z"/><path d="M32.87,55.52a.32.32,0,0,1,.3,0l-.25,0S32.89,55.52,32.87,55.52Z"/><path d="M42.51,52.71c0-.06.07-.12.16-.07v0C42.66,52.75,42.58,52.72,42.51,52.71Z"/><path d="M51.07,47.88a1.74,1.74,0,0,1-.1.19h-.06s0,0,0-.06l.12-.15Z"/><path d="M44.81,55.19a.31.31,0,0,1,.09.07s0,.05,0,.06a.07.07,0,0,1-.12,0s0-.09,0-.13Z"/><path d="M44.58,51.35h.11a0,0,0,0,1,0,0s0,0,0,0a.2.2,0,0,1-.11,0Z"/><path d="M25.21,54.63l.05,0v0l0,0a.09.09,0,0,1-.11-.05s0,0,0,0v0Z"/><path d="M48.6,52.4h0a.08.08,0,0,1,0-.11l.06,0s0,0,0,.06S48.6,52.38,48.6,52.4Z"/><path d="M30.48,55.5a.25.25,0,0,1,.19,0C30.59,55.56,30.59,55.56,30.48,55.5Z"/><path d="M28.08,58.72h-.14s0,0,0,0,0,0,0,0h.14Z"/><path d="M47.23,53.51a.21.21,0,0,1,.09-.16h0s0,0,0,.06Z"/><path d="M47,49.45a1,1,0,0,1,.2-.12c0,.1-.08.15-.2.12Z"/><path d="M28.62,55.33l.2,0a.28.28,0,0,1-.22,0Z"/><path d="M29.74,55.43h.11v0s0,0,0,0l-.1,0Z"/><path d="M45.56,54.69s0,0,0,0a.09.09,0,0,1,0,0h.08s0,.07,0,.09Z"/><path d="M42.56,53l.15,0c0,.07,0,.07,0,.09l-.09,0,0-.09Z"/><path d="M31.47,55.57s0,0-.07,0l-.06,0s0-.05.07-.05l.07,0Z"/><path d="M42.36,53.14s0,.07,0,.07l-.07,0s0,0,0,0Z"/><path d="M45.59,50.64l0,0h.07l0,0h0l0,0Z"/><path d="M45.57,51.11s0,0,0,0,0,.05-.08,0h0s0-.05,0-.06Z"/><path d="M45.24,51.41l-.06.05,0,0,0-.06Z"/><path d="M43.12,52.77c0-.07,0-.11.15-.09Z"/><path d="M46.39,50.57h-.07a0,0,0,0,1,0,0s0,0,0,0l.05,0,0,0S46.39,50.54,46.39,50.57Z"/><path d="M43.44,52.54l0,.05,0,0s0,0,0,0A.07.07,0,0,1,43.44,52.54Z"/><path d="M31.15,55.54l-.06,0s0,0,0,0v0h.09Z"/><path d="M33.82,55.43l.06,0H34A.19.19,0,0,1,33.82,55.43Z"/><path d="M50.68,48.42l.07-.13,0,0s0,.07,0,.1a.12.12,0,0,1-.11.05Z"/><path d="M49.27,50.46l.14-.17c0,.14,0,.14-.14.17Z"/><path d="M35.41,55.24l-.08,0,0,0,.07,0Z"/><path d="M44,52.27c0-.07,0-.07,0-.09s0,0,0,0v0Z"/><path d="M49.47,48h0a0,0,0,0,1,0,0l0,0Z"/><path d="M15.9,49.37l-.05.07h0l0-.07Z"/><polygon points="50.63 48.4 50.68 48.42 50.68 48.42 50.55 48.61 50.53 48.59 50.64 48.4 50.63 48.4"/><path d="M50.83,50v0h0v-.05Z"/><path d="M50.55,48.75l0,0a.14.14,0,0,1,0,.06l0,0Z"/><path d="M47,49.48c0,.09,0,.09-.12.12l.12-.12Z"/><path d="M28.37,55.35h-.05a0,0,0,0,0,0,0h.05Z"/><path d="M29.08,55.42v0h.06v0Z"/><path d="M15.43,49.73l0-.06s0,0,0,0,0,0,0,0S15.46,49.73,15.43,49.73Z"/><path d="M45.89,50.89s0,0,0,0l-.06,0s0,0,0,0Z"/><path d="M30.89,55.55s0,0-.05,0v0h0Z"/><path d="M42.88,52.94h-.06s0,0,0,0,0,0,0,0Z"/><path d="M43.79,52.32h0v0l0,0Z"/><path d="M27.47,55.21l.06-.05,0,0v0Z"/><path d="M28.1,55.26l0,0-.06,0s0,0,0,0Z"/><path d="M45.67,51h0v0h0Z"/><path d="M24.81,54.58h0v0h0Z"/><path d="M46.78,54.08s0,0,0,0h0s0,0,0,0Z"/><path d="M50.64,50.27l-.06,0v0h.07Z"/><path d="M51.4,49.28v0l0,.06-.05-.06h0l.07,0Z"/><path d="M48.8,52.5l0,0h0l0,0Z"/><path d="M32,55.55l0,0v0l0,0Z"/><path d="M51.36,47.47l0,.05h0v0l.06,0Z"/><path d="M49.64,50.05v0h0Z"/><path d="M50.11,49.26h0Z"/><path d="M25.79,54.86h0Z"/><path d="M25.4,54.76h0v0h0Z"/><path d="M46.79,50.17h0v0h0Z"/><path d="M46.06,50.8h0l0,0h0Z"/><path d="M43.29,56.14l0,0s0,0,0,0v0l0,0Z"/><polygon points="42.47 53.12 42.47 53.1 42.48 53.12 42.47 53.12"/><polygon points="45.49 50.77 45.47 50.77 45.47 50.74 45.5 50.76 45.49 50.77"/><path d="M51.36,47.47s0,0,0,0h0v0l0,0Z"/><path d="M29.41,55.44v0l0,0h0Z"/><path d="M49.27,50.46l0,0h0Z"/><path d="M50.38,50.47a.08.08,0,0,1,0,0l0,0s0,0,0,0a.05.05,0,0,1,0,0Z"/><polygon points="47.98 49.43 47.97 49.43 47.97 49.42 47.98 49.43"/><path d="M50.16,50.77h0v0h0Z"/><polygon points="25.64 54.8 25.66 54.8 25.65 54.82 25.64 54.8"/><path d="M48.81,52.33v0h0a0,0,0,0,1,0,0Z"/><polygon points="47.08 49.95 47.07 49.96 47.06 49.95 47.08 49.95"/><path d="M46.18,50.68h0Z"/><path d="M45.44,55h0Z"/><path d="M26.22,54.93s.07,0,.07,0h0l-.07,0Z"/><path d="M42,53l0,0,0,0s0,0-.07,0Z"/><polygon points="42.98 52.83 42.98 52.82 42.99 52.82 42.98 52.83"/><polygon points="44.29 52.05 44.28 52.06 44.27 52.04 44.29 52.05"/><polygon points="26.52 54.98 26.51 55 26.52 54.98 26.52 54.98"/><polygon points="26.56 54.99 26.58 55.02 26.56 55.01 26.56 54.99 26.56 54.99"/><polygon points="26.22 54.93 26.2 54.94 26.21 54.93 26.22 54.94 26.22 54.93"/><polygon points="46.92 50.09 46.92 50.08 46.93 50.09 46.92 50.09"/><path d="M31.32,59h0Z"/><polygon points="46.98 49.48 47.01 49.45 47.01 49.45 46.99 49.47 46.98 49.48 46.98 49.48"/><path d="M40.88,54Z"/><polygon points="26.52 54.98 26.56 54.99 26.56 54.99 26.52 54.98 26.52 54.98"/><path d="M27.47,55.21Z"/><polygon points="41.05 53.48 41.02 53.49 41.02 53.5 41.05 53.48 41.05 53.48"/><polygon points="26.29 54.96 26.28 55.01 26.27 55 26.29 54.96 26.29 54.96"/><polygon points="26.28 55.01 26.27 55.01 26.27 55 26.28 55.01"/><path d="M49.84,47.53h0Z"/><path d="M43.71,52.08h0Z"/><path d="M41.89,53.37Z"/><path d="M42.56,53Z"/><path d="M45,51.17Z"/><path d="M44.1,55.75Z"/><path d="M16.09,51.21h0Z"/><path d="M48.8,52.5Z"/></svg>