<?xml version="1.0" encoding="UTF-8" standalone="no"?>
<svg
   xmlns:osb="http://www.openswatchbook.org/uri/2009/osb"
   xmlns:dc="http://purl.org/dc/elements/1.1/"
   xmlns:cc="http://creativecommons.org/ns#"
   xmlns:rdf="http://www.w3.org/1999/02/22-rdf-syntax-ns#"
   xmlns:svg="http://www.w3.org/2000/svg"
   xmlns="http://www.w3.org/2000/svg"
   xmlns:sodipodi="http://sodipodi.sourceforge.net/DTD/sodipodi-0.dtd"
   xmlns:inkscape="http://www.inkscape.org/namespaces/inkscape"
   id="Layer_1"
   data-name="Layer 1"
   viewBox="0 0 127.1 148.78"
   version="1.1"
   sodipodi:docname="cross.svg"
   inkscape:version="0.92.1 r15371">
  <metadata
     id="metadata13">
    <rdf:RDF>
      <cc:Work
         rdf:about="">
        <dc:format>image/svg+xml</dc:format>
        <dc:type
           rdf:resource="http://purl.org/dc/dcmitype/StillImage" />
        <dc:title></dc:title>
      </cc:Work>
    </rdf:RDF>
  </metadata>
  <sodipodi:namedview
     pagecolor="#ffffff"
     bordercolor="#666666"
     borderopacity="1"
     objecttolerance="10"
     gridtolerance="10"
     guidetolerance="10"
     inkscape:pageopacity="0"
     inkscape:pageshadow="2"
     inkscape:window-width="2256"
     inkscape:window-height="1410"
     id="namedview11"
     showgrid="false"
     inkscape:zoom="4.4865493"
     inkscape:cx="-4.4128012"
     inkscape:cy="90.272617"
     inkscape:window-x="-11"
     inkscape:window-y="-11"
     inkscape:window-maximized="1"
     inkscape:current-layer="Layer_1" />
  <defs
     id="defs4">
    <linearGradient
       id="linearGradient4556"
       osb:paint="solid">
      <stop
         style="stop-color:#000000;stop-opacity:1;"
         offset="0"
         id="stop4554" />
    </linearGradient>
    <style
       id="style2">.cls-1{fill:#faf200;}</style>
    <clipPath
       clipPathUnits="userSpaceOnUse"
       id="clipPath4497">
      <g
         id="g4503"
         transform="matrix(0.48654252,0,0,0.48654252,0.88332751,-2.9107071)"
         style="fill:#00ff00;fill-opacity:1">
        <rect
           y="39.031242"
           x="79.374992"
           height="251.35417"
           width="105.83334"
           id="rect4499"
           style="opacity:1;fill:#00ff00;fill-opacity:1;stroke:none;stroke-width:2.25711417;stroke-miterlimit:4;stroke-dasharray:none;stroke-opacity:1" />
        <rect
           transform="rotate(90)"
           style="opacity:1;fill:#00ff00;fill-opacity:1;stroke:none;stroke-width:2.25711417;stroke-miterlimit:4;stroke-dasharray:none;stroke-opacity:1"
           id="rect4501"
           width="105.83334"
           height="251.35417"
           x="111.79166"
           y="-257.96875" />
      </g>
    </clipPath>
  </defs>
  <path
     d="m -320.14482,-19.185095 c 1.99685,1.135571 3.9338,2.240929 5.57067,3.365515 0.7486,0.502075 2.0672,1.005763 2.74558,1.577702 0.41904,0.35114 0.81807,0.692282 1.28704,1.06359 a 9.75,9.75 0 0 0 2.71614,1.38757 6.33,6.33 0 0 1 1.93749,0.905401 17.23,17.23 0 0 0 2.76557,1.5877482 c 0.99869,0.4727786 1.99721,1.0055623 3.07578,1.5185784 2.0672,1.0057499 3.17388,2.1988403 5.61103,3.2256274 a 49.82,49.82 0 0 1 5.1921,2.8444819 l 5.82059,3.3762623 a 10.83,10.83 0 0 1 1.21765,0.8433982 15.7,15.7 0 0 0 2.79558,1.5977795 l 6.06205,2.856903 c 0.86886,0.412431 1.08827,0.6429422 0.75783,0.7821222 -0.33039,0.13908 0.14852,0.530416 1.06741,0.932972 1.24845,0.553484 2.53678,1.157078 3.73549,1.6204149 a 18.11,18.11 0 0 1 4.78229,2.773349 c 0.53881,0.421536 1.17757,0.873287 1.83634,1.315127 a 3.92,3.92 0 0 0 1.26868,0.473535 3.65,3.65 0 0 1 1.84741,0.935156 18.81,18.81 0 0 0 4.28154,3.041937 52.86,52.86 0 0 0 5.21243,2.724545 6,6 0 0 1 1.90673,1.175303 l 2.18408,2.126097 a 4.2,4.2 0 0 0 1.35773,0.813807 l 2.93655,1.238184 a 3.7,3.7 0 0 1 1.99574,1.535567 1.5,1.5 0 0 0 1.07865,0.483009 7.64,7.64 0 0 1 1.47955,0.164125 12.37,12.37 0 0 1 4.17413,2.11164 c 0.56875,0.451592 1.16744,0.923259 1.61623,1.354507 a 15.41,15.41 0 0 0 3.10375,2.248659 l 8.10725,4.582613 a 41,41 0 0 1 4.91144,3.083695 18.44,18.44 0 0 0 4.91231,2.763701 l 0.48947,0.191365 -1.47236,0.845904 c -0.19632,-1.32055 -0.37259,-2.66105 -0.64932,-3.831828 -0.43487,-1.84122 -0.4046,-1.941134 0.16136,-4.079563 a 1.92,1.92 0 0 0 0.004,-1.320001 5.12,5.12 0 0 1 -0.31701,-1.070881 c 0.34626,-2.249049 0.2441,-5.059342 0.77977,-7.097858 a 3.32,3.32 0 0 0 -0.27294,-2.530772 2.42,2.42 0 0 1 -0.066,-1.440191 4.71,4.71 0 0 0 0.004,-1.589993 c -0.39375,-2.241105 -0.17589,-5.060504 -0.51949,-7.361472 0.0738,-1.369805 0.20763,-2.739429 0.23151,-4.129367 a 46.79,46.79 0 0 1 0.3185,-6.6391421 9.82,9.82 0 0 0 -0.12337,-2.380355 c -0.18679,-1.1505214 0.17602,-2.1595152 0.009,-3.259983 a 7.46,7.46 0 0 1 0.27822,-2.9492368 6.46,6.46 0 0 0 0.0966,-2.3497425 33,33 0 0 1 -0.13847,-4.1404019 38.32,38.32 0 0 0 0.11143,-4.0997047 c -0.27498,-1.800774 -0.12885,-4.000374 -0.4742,-5.671342 a 5.27,5.27 0 0 1 0.21806,-2.889404 10.61,10.61 0 0 0 0.38252,-4.488944 36.31,36.31 0 0 1 -0.12398,-5.750371 18,18 0 0 0 -0.17334,-2.390492 c -0.0577,-0.810164 -0.1354,-1.650381 -0.13311,-2.470378 0.005,-1.709994 0.42879,-3.158822 0.3237,-4.919119 -0.10509,-1.760298 -0.28111,-3.190799 -0.36654,-4.831043 -0.067,-1.090186 -0.0537,-2.260158 -0.0506,-3.39015 a 38.27,38.27 0 0 1 0.36072,-7.419103 15.41,15.41 0 0 0 -0.12083,-3.290351 10.49,10.49 0 0 1 -0.0991,-3.930293 3.78,3.78 0 0 0 0.0622,-0.799828 17.77,17.77 0 0 1 0.0136,-4.88998 29.73,29.73 0 0 1 0.0714,-4.109818 c 0.11373,-1.339688 -0.30261,-2.650854 -0.11861,-4.09035 a 12.55,12.55 0 0 0 -0.0509,-3.250145 16.71,16.71 0 0 1 0.009,-3.319998 17.22,17.22 0 0 0 0.0869,-2.45976 72,72 0 0 1 -0.22445,-9.170657 l 2.99525,1.718317 c -1.00142,0.50721 -2.00278,0.994411 -3.00406,1.451629 a 24.3,24.3 0 0 0 -4.29697,2.498033 4.58,4.58 0 0 1 -2.48307,1.093087 1.6,1.6 0 0 0 -1.00194,0.697211 4.14,4.14 0 0 1 -2.67479,1.712553 3.85,3.85 0 0 0 -1.90213,0.764703 20.05,20.05 0 0 1 -4.21698,2.498253 10.34,10.34 0 0 0 -2.12314,1.124091 15.62,15.62 0 0 1 -3.42556,1.990459 21.32,21.32 0 0 0 -4.81798,2.856588 27.17,27.17 0 0 1 -4.09723,2.58859 46.54,46.54 0 0 0 -5.70895,3.204105 5.29,5.29 0 0 1 -0.72111,0.39799 34.94,34.94 0 0 0 -7.72235,4.418497 12.17,12.17 0 0 1 -2.12339,1.214089 30.65,30.65 0 0 0 -6.35,3.582322 8.19,8.19 0 0 1 -1.40228,0.816094 106.61,106.61 0 0 0 -10.31584,5.67128 c -2.66428,1.532582 -5.33834,2.985134 -8.13253,4.487354 a 22.23,22.23 0 0 0 -2.12334,1.194085 39.22,39.22 0 0 1 -5.779,3.223911 24.55,24.55 0 0 0 -3.57556,1.990046 38.59,38.59 0 0 1 -5.72895,3.204048 c -1.00134,0.477212 -2.09279,0.994169 -3.0044,1.571626 -2.41386,1.383289 -5.08759,2.71584 -7.34148,4.109556 -2.25389,1.393729 -5.00761,2.726054 -7.31151,4.119643 -1.37227,0.816184 -2.4645,1.61314 -4.10678,2.428562 -1.64227,0.815427 -2.9145,1.611888 -4.30678,2.428012 -1.262,0.716492 -2.56364,1.30287 -3.84531,1.899297 -1.28166,0.596427 -2.72233,0.83242 -2.0608,0.28426 a 6.94,6.94 0 0 1 0.63089,-0.318251 c 0.23031,-0.10935 0.42047,-0.168826 0.62069,-0.248271 0.61067,-0.238293 1.19147,-0.526675 1.0917,-0.606956 -0.58955,-0.161648 0.79303,-1.087799 3.05671,-2.401494 1.242,-0.716537 2.44402,-1.443192 3.77586,-2.099485 a 19.5,19.5 0 0 0 2.77456,-1.632282 28.58,28.58 0 0 1 3.41589,-2.110484 c 4.22614,-2.198232 8.09259,-4.507461 12.06893,-6.776385 l 3.75589,-2.109548 c 0.48075,-0.268661 1.09151,-0.536958 1.4822,-0.785871 4.46815,-2.917558 9.66607,-5.753087 14.40419,-8.659892 1.42244,-0.876044 2.73478,-1.712388 4.00728,-2.608845 a 43,43 0 0 1 7.29162,-4.159698 c 1.00122,-0.437212 2.06278,-0.994256 3.07406,-1.451438 a 13.75,13.75 0 0 0 2.18342,-1.223917 c 3.00593,-2.121631 6.6415,-4.121516 9.92729,-6.192366 a 29.67,29.67 0 0 1 7.31975,-3.489616 1.54,1.54 0 0 0 1.00208,-0.747212 4.35,4.35 0 0 1 1.9346,-1.644614 c 1.24197,-0.706539 2.5138,-1.363001 3.77555,-1.989486 l 3.00423,-1.511634 a 17,17 0 0 0 3.3762,-2.220603 12.79,12.79 0 0 1 3.42587,-2.100457 28.89,28.89 0 0 0 6.46039,-3.722013 31.59,31.59 0 0 1 6.49049,-3.751931 25.87,25.87 0 0 0 5.69947,-3.394131 20.4,20.4 0 0 1 4.32695,-2.487945 14.8,14.8 0 0 0 2.16306,-1.093978 c 0.50103,-0.368608 0.94198,-0.707382 1.33261,-0.936293 l 2.14356,-1.274023 -0.007,2.529982 c -0.002,0.609999 -0.0929,1.049749 -0.4634,1.218714 -0.1402,0.06961 -0.27143,0.499231 -0.41211,0.758857 0.13932,0.240388 0.26857,0.510753 0.41799,0.721172 0.14942,0.210411 0.32935,0.230918 0.43841,0.571219 a 5.16,5.16 0 0 1 0.19598,1.440548 c -0.004,1.380001 -0.21763,2.739408 -0.21142,4.099427 0.006,1.360023 0.21241,2.720605 0.25852,4.120744 a 19.77,19.77 0 0 1 -0.0692,3.309822 c -0.35557,1.999017 0.0793,3.840232 -0.0161,5.769971 -0.11457,1.639686 -0.13939,3.369625 -0.1441,5.059619 a 33.3,33.3 0 0 0 0.33404,5.730955 17.3,17.3 0 0 1 0.0707,3.330209 c -0.004,1.279994 -0.23574,2.059352 -0.59655,2.348345 -0.36081,0.288994 -0.47075,0.268691 -0.71122,0.438022 a 0.78,0.78 0 0 0 -0.20116,0.41945 c -0.071,0.359802 -0.002,0.739995 0.21763,0.850609 0.21969,0.11061 0.63941,0.211782 0.999,0.362785 a 3,3 0 0 1 0.30464,1.920856 46.51,46.51 0 0 0 -0.28313,8.299242 c -0.004,1.389996 0.21237,2.740606 0.2285,4.130656 -0.003,1.089993 -0.1561,2.189574 -0.1692,3.299538 -0.002,0.749997 0.29545,1.63083 -0.006,2.249992 a 5.07,5.07 0 0 0 -0.22769,2.759376 22.85,22.85 0 0 1 0.38673,4.761096 c -0.10356,1.279719 0.1027,2.620298 -0.0114,4.079985 a 38.57,38.57 0 0 0 -0.10393,4.999728 c 0.10429,2.050304 -0.31078,3.869153 -0.15605,5.759592 a 32.29,32.29 0 0 1 -0.15393,4.9995886 54,54 0 0 0 0.19439,9.1905779 42.38,42.38 0 0 1 0.0645,9.1502136 57.28,57.28 0 0 0 -0.2087,6.7094419 69.71,69.71 0 0 1 -0.20583,9.26946 14.2,14.2 0 0 0 -0.007,2.449988 85.31,85.31 0 0 1 -0.15508,12.589619 34.5,34.5 0 0 0 -0.0117,4.209983 c -0.002,0.810004 0.0655,1.610197 0.12328,2.410361 l 0.17317,2.450492 -2.39673,-1.17669 -1.56784,-0.774368 c -2.37504,-1.786626 -5.40103,-3.225075 -7.74604,-5.021603 a 5.93,5.93 0 0 0 -1.38779,-0.813775 17.53,17.53 0 0 1 -2.19721,-1.006134 c -3.40419,-2.009871 -7.10944,-3.799825 -10.26306,-6.088641 -1.47785,-0.774124 -2.99579,-1.518352 -4.46352,-2.332439 -2.51615,-1.387021 -4.99193,-2.893964 -7.5283,-4.211005 -1.54775,-0.804324 -2.89553,-1.598104 -4.35308,-2.482158 -3.90341,-2.370906 -7.90692,-4.672217 -11.87046,-7.033085 l -11.88046,-7.013211 c -1.20823,-0.722971 -2.36587,-1.4865849 -3.50377,-2.2397699 a 23,23 0 0 0 -2.92526,-1.7081602 c -2.1172,-1.005902 -4.08401,-2.151393 -6.08077,-3.316958 l -17.20166,-10.047959 c -1.99675,-1.165582 -3.59355,-2.3200134 -5.69028,-3.4958679 a 53.14,53.14 0 0 1 -4.86162,-3.013555 l -13.97689,-8.318958 -4.48283,-2.582473 a 7.49,7.49 0 0 1 -1.52693,-1.104264 4,4 0 0 1 -0.64757,-0.871809 c 2.2e-4,-0.08996 0.32999,9.28e-4 0.67963,0.131902 2.41692,1.106731 4.9934,2.373919 7.54977,3.681045 1.75748,0.904901 3.5146,1.939803 5.2719,2.914704 z"
     id="path8"
     inkscape:connector-curvature="0" />
  <circle
     class="cls-1"
     cx="63.302841"
     cy="74.887222"
     r="64.5"
     id="circle6"
     style="fill:#00ff00;fill-opacity:1" />
  <path
     inkscape:connector-curvature="0"
     d="m 127.98285,74.447226 a 8.47,8.47 0 0 0 0.11,-1.14 c 0,-0.9 0.11,-1.79 0.2,-2.66 a 9.58,9.58 0 0 0 -0.53,-3 c 0,-0.26 -0.1,-0.51 -0.13,-0.77 -0.12,-0.89 -0.19,-1.78 -0.36,-2.67 a 13.42,13.42 0 0 1 -0.2,-2.28 c 0,-0.91 -0.67,-1.62 -0.76,-2.54 a 6.31,6.31 0 0 0 -0.19,-1.510003 c -0.18,-0.6 -0.52,-1.15 -0.7,-1.75 -0.62,-1.83 -1.25,-3.66 -2,-5.45 a 70.88,70.88 0 0 0 -4.21,-8.68 13.73,13.73 0 0 0 -2,-3.23 5.7,5.7 0 0 1 -0.79,-1.3 3.79,3.79 0 0 0 -0.61,-1 c -0.53,-0.55 -1.06,-1.11 -1.54,-1.71 -0.48,-0.6 -0.94,-1.24 -1.45,-1.81 a 65.53,65.53 0 0 0 -7.67,-7.6 62.27,62.27 0 0 0 -11.160007,-7.54 l -2.23,-1.12 a 19.24,19.24 0 0 1 -2.17,-1.23 2.15,2.15 0 0 0 -0.66,-0.33 19.46,19.46 0 0 1 -4,-1.38 6.56,6.56 0 0 0 -2.21,-0.43 1.17,1.17 0 0 1 -0.66,-0.25 3.46,3.46 0 0 0 -1,-0.51 c -1.35,-0.42 -2.75,-0.67 -4.13,-1 -0.81,-0.21 -1.65,-0.3 -2.46,-0.48 a 19.2,19.2 0 0 1 -2.33,-0.69 c -1.26,-0.07 -2.5,-0.5599999 -3.8,-0.5299999 -1,0 -1.93,-0.13 -2.9,-0.15 a 8.14,8.14 0 0 0 -2.87,0.24 1.54,1.54 0 0 1 -0.74,0 5.82,5.82 0 0 0 -2.66,0 c -0.85,0.1599999 -1.77,-0.12 -2.63,0.2399999 a 2.6,2.6 0 0 1 -0.75,0 c -0.9,0.08 -1.8,0.11 -2.7,0.24 -0.9,0.13 -2,0.37 -3.05,0.59 -1.05,0.22 -2,0.5 -3,0.82 -1,0.32 -2,0.27 -3,0.67 l -1.42,0.6 a 4.17,4.17 0 0 1 -0.68,0.32 14.19,14.19 0 0 0 -2.06,0.61 c -0.7,0.24 -1.4,0.5 -2.09,0.79 -1.36,0.62 -2.72,1.22 -4,1.9 a 6.81,6.81 0 0 0 -2,1.21 1.51,1.51 0 0 1 -0.65,0.37 10.25,10.25 0 0 0 -1.76,0.78 c -0.56,0.33 -1.1,0.69 -1.64,1 -0.72,0.44 -1.41,0.93 -2.09,1.43 -0.68,0.5 -1.37,1 -2,1.51 a 66,66 0 0 0 -12.840004,13 c -0.31,0.43 -0.58,0.87 -0.9000004,1.28 a 4.78,4.78 0 0 0 -1.03,2.38 1.05,1.05 0 0 0 -1.3,0.63 c -0.56,1 -1.43,1.87 -1.61,3 a 12,12 0 0 1 -1.83,3.37 1.71,1.71 0 0 0 -0.32,0.68 4,4 0 0 1 -0.83,1.7 3.79,3.79 0 0 0 -0.71,1.78 22.38,22.38 0 0 1 -1,3.72 65,65 0 0 0 -2.4,9.440003 c -0.15,0.77 -0.23,1.55 -0.35,2.31 -0.12,0.76 -0.28,1.53 -0.46,2.28 -0.09,0.34 0,0.78 0,1.14 a 10.33,10.33 0 0 0 -0.07,3 c 0.08,0.76 0,1.54 0,2.32 a 7.16,7.16 0 0 0 0.34,2.26 0.73,0.73 0 0 1 0,0.36 c -0.51,2 0.2,4.12 0,6.13 a 2.26,2.26 0 0 0 0.22,0.72 2.76,2.76 0 0 1 0.32,1.16 13.26,13.26 0 0 0 0.41000003,3.41 c 0.11,0.74 0.5,1.48 0.59,2.22 a 9.51,9.51 0 0 0 1,2.88 17.38,17.38 0 0 0 0.92999997,1.62 1.06,1.06 0 0 1 0.15,1 1.62,1.62 0 0 0 0,1.35 c 0.36,0.91 0.67,1.840004 1.06,2.740004 0.39,0.9 0.78,1.8 1.19,2.69 a 4,4 0 0 0 0.41,0.66 1.45,1.45 0 0 0 0.78,0.55 c 0.42,0.12 0.48,0.23 0.36,0.7 a 1.18,1.18 0 0 0 0.06,1 60.24,60.24 0 0 0 3.88,6.33 1.45,1.45 0 0 0 1.1400004,0.62 0.39,0.39 0 0 1 0.36,0.48 2,2 0 0 0 0.52,1.59 48.82,48.82 0 0 0 3.16,3.88 c 0.64,0.65 1.23,1.34 1.86,2 a 12.91,12.91 0 0 0 2.14,1.72 22.36,22.36 0 0 0 3.72,3.41 9.44,9.44 0 0 0 1.640004,1 1.67,1.67 0 0 1 0.56,0.46 c 0.5,0.64 1.32,0.75 1.89,1.31 a 20.21,20.21 0 0 0 1.9,1.38 57.71,57.71 0 0 0 7.6,4.06 20.81,20.81 0 0 0 4.39,1.65 7.74,7.74 0 0 1 1,0.44 c 0.85,0.3 1.68,0.7 2.55,1 a 9.31,9.31 0 0 0 2.66,0.48 c 0.7,0.39 1.55,0.22 2.21,0.48 a 12.56,12.56 0 0 0 2.4,0.75 9.07,9.07 0 0 0 2.5,0.21 5.71,5.71 0 0 0 2.29,0.23 4.68,4.68 0 0 1 1.51,0.12 13.67,13.67 0 0 0 2.66,0.28 21.84,21.84 0 0 0 3.12,0.23 70.44,70.44 0 0 0 7.82,-0.48 c 0.72,-0.09 1.44,-0.14 2.14,-0.27 a 11.15,11.15 0 0 0 2.05,-0.58 c 1.14,0 2.12,-0.69 3.35,-0.65 a 7.26,7.26 0 0 0 3.32,-0.95 3.13,3.13 0 0 1 1.05,-0.38 c 0.92,0 1.66,-0.75 2.56,-0.68 a 9.29,9.29 0 0 1 2.51,-0.94 2.92,2.92 0 0 0 1.32,-0.75 2.3,2.3 0 0 1 1.37,-0.57 3.55,3.55 0 0 0 1.45,-0.45 c 0.93,-0.49 1.88,-0.94 2.78,-1.47 a 15.61,15.61 0 0 1 2.1,-1 11.5,11.5 0 0 0 4.190007,-2.79 3,3 0 0 1 1.25,-0.83 4.23,4.23 0 0 0 1,-0.53 c 0.57,-0.44 1.17,-0.86 1.73,-1.31 a 9.92,9.92 0 0 0 1.47,-1.57 3.68,3.68 0 0 1 1.11,-1 c 0.54,-0.32 0.81,-1 1.43,-1.25 0.41,-0.19 0.64,-0.73 1.07,-1.07 a 11.87,11.87 0 0 0 1.43,-1.33 c 0.89,-1 1.75,-2 2.6,-3 0.85,-1 1.66,-2 2.4,-3.14 a 25.32,25.32 0 0 0 3.27,-5.35 7.3,7.3 0 0 1 1,-1.63 8,8 0 0 0 0.86,-1.73 c 0.26,-0.58 0.76,-1.06 1,-1.65 a 68.51,68.51 0 0 0 3.22,-8.070004 c 0.28,-0.76 0.11,-1.56 0.48,-2.26 a 9.2,9.2 0 0 0 0.77,-2.21 c 0.29,-1.22 0.62,-2.43 0.83,-3.67 0.21,-1.24 0.46,-2.47 0.61,-3.71 0.13,-0.92 0.22,-1.83 0.44,-2.73 a 4,4 0 0 0 0.1,-1.15 9.56,9.56 0 0 0 -0.78,-3.63 2.66,2.66 0 0 0 -0.75,-0.87 c -0.26,-0.24 -0.76,0.13 -0.77,0.56 a 67.25,67.25 0 0 1 -0.55,7.23 c -0.21,1.77 -0.53,3.52 -0.87,5.27 a 62.44,62.44 0 0 1 -2,7.35 c -0.42,1.34 -1,2.63 -1.48,3.93 -0.8,1.870004 -1.68,3.700004 -2.62,5.500004 a 21.12,21.12 0 0 0 -1,2.06 c -0.31,0.92 -1,1.39 -1.51,2.13 -0.6,1 -1.24,1.93 -1.93,2.84 -0.69,0.91 -1.35,1.84 -2,2.75 a 60.39,60.39 0 0 1 -8.16,8.53 7.7,7.7 0 0 1 -2.17,1.49 4.07,4.07 0 0 0 -1.73,1.38 2.82,2.82 0 0 1 -1.17,0.87 4,4 0 0 0 -1.520004,1 5.45,5.45 0 0 1 -1.110003,1 28.27,28.27 0 0 1 -6,3.18 c -0.76,0.28 -1.54,0.75 -2.35,1.07 -0.37,0.14 -0.13,0.72 -0.91,0.82 a 7.31,7.31 0 0 0 -1.45,0.36 l -3.37,1.23 a 13.54,13.54 0 0 1 -3.49,0.82 0.74,0.74 0 0 0 -0.32,0.16 4.18,4.18 0 0 1 -2.14,0.61 8.22,8.22 0 0 0 -3.26,0.66 1.47,1.47 0 0 1 -0.74,0.13 4,4 0 0 0 -2.15,0.29 4.85,4.85 0 0 1 -2.61,0.23 4.75,4.75 0 0 0 -2.54,0.18 10.78,10.78 0 0 0 -2.6,0.05 5.32,5.32 0 0 0 -2.91,-0.08 c -0.48,0.08 -0.94,-0.29 -1.46,-0.17 a 2.69,2.69 0 0 1 -1.79,-0.16 c -0.85,0.13 -1.69,-0.43 -2.54,-0.19 a 11.34,11.34 0 0 0 -1.45,-0.3 5,5 0 0 1 -1.82,-0.29 2.36,2.36 0 0 0 -0.72,-0.14 c -0.49,0 -1,-0.06 -1.47,-0.1 a 11.39,11.39 0 0 0 -1.48,-0.17 c -0.73,0 -1.13,-0.49 -1.71,-0.61 a 21,21 0 0 1 -2.19,-0.63 9.9,9.9 0 0 0 -2.19,-0.55 1.08,1.08 0 0 1 -0.65,-0.29 17.18,17.18 0 0 0 -2.13,-1.28 c -0.57,-0.24 -1.21,-0.22 -1.73,-0.66 a 1.67,1.67 0 0 0 -0.94,-0.51 c -0.55,0 -0.84,-0.52 -1.3,-0.7 a 2.3,2.3 0 0 0 -0.66,-0.14 2.89,2.89 0 0 0 -0.6,0.09 l -0.28,-0.55 a 1.67,1.67 0 0 0 -0.8,-0.67 7.6,7.6 0 0 1 -1.73,-0.61 c -0.73,-0.49 -1.38,-1.07 -2,-1.62 a 6,6 0 0 1 -2.29,-1.23 c -0.29,-0.24 -0.5,-0.57 -0.79,-0.77 a 19.31,19.31 0 0 1 -2.31,-1.8 8.45,8.45 0 0 0 -1.250004,-0.77 l -0.62,-0.43 c -0.31,-0.2 -0.66,-0.34 -0.95,-0.57 -0.29,-0.23 -0.19,-0.55 -0.29,-0.84 a 25.24,25.24 0 0 1 -2.2,-2.44 4.55,4.55 0 0 0 -0.88,-0.63 c -0.25,-0.14 -0.4,-0.3 -0.39,-0.54 a 0.75,0.75 0 0 0 -0.36,-0.82 c -0.68,-0.51 -1.33,-1.08 -2,-1.62 -0.29,-0.66 -1,-1 -1.3,-1.72 a 4.3,4.3 0 0 0 -0.78,-1.26 6.08,6.08 0 0 0 -1,-1 3.36,3.36 0 0 1 -1.2,-1.83 2.4,2.4 0 0 0 -0.7700004,-1.24 3.87,3.87 0 0 1 -1.33,-2.17 5.66,5.66 0 0 0 -1.37,-2.31 4.16,4.16 0 0 1 -1.17,-2.26 1.79,1.79 0 0 0 -0.53,-0.95 2.75,2.75 0 0 1 -0.66,-1.320004 4.31,4.31 0 0 0 -0.64,-2.11 0.58,0.58 0 0 1 0,-0.62 1.42,1.42 0 0 0 -0.09,-1.32 21.45,21.45 0 0 1 -1.15,-2.3 c -0.22,-0.72 -0.75,-1.3 -0.78,-2.06 a 9.37,9.37 0 0 0 -0.84,-2.44 3.93,3.93 0 0 1 -0.25999997,-1.84 4.52,4.52 0 0 0 -0.24,-2.56 7.69,7.69 0 0 1 -0.3,-2.15 c -0.21,-2.38 -0.34,-4.78 -0.34,-7.18 a 6.48,6.48 0 0 0 -0.09,-1.48 8,8 0 0 1 -0.28,-2.2 9,9 0 0 1 0.44,-2.19 11.39,11.39 0 0 0 0.42,-3 4.68,4.68 0 0 1 0.19,-1.8 c 0.19,-0.52 0.08,-1.23 0.24,-1.8 a 2.71,2.71 0 0 0 0,-1.39 1.35,1.35 0 0 1 0.08,-1 c 0.37999997,-0.76 0.70999997,-1.560003 1.11999997,-2.320003 0.41,-0.76 0.62,-1.89 1.16,-2.75 0.37,-0.62 0.18,-1.39 0.28,-2.11 a 19.29,19.29 0 0 1 0.57,-2.17 1.72,1.72 0 0 1 1.08,-1.24 0.65,0.65 0 0 0 0.47,-0.77 2,2 0 0 1 0.41,-1.64 5.48,5.48 0 0 0 1,-2 c 0.16,-0.45 0.17,-0.94 0.61,-1.29 0.44,-0.35 0.3,-0.91 0.72,-1.23 a 0.5,0.5 0 0 0 0.2,-0.62 c -0.06,-0.17 -0.21,-0.37 -0.15,-0.52 0.19,-0.42 0.46,-0.29 0.7,-0.33 a 2.91,2.91 0 0 0 0.58,-0.21 c 0.23,-0.09 0.4400004,-0.27 0.4100004,-0.42 -0.03,-0.15 -0.1700004,-0.28 -0.2700004,-0.39 a 0.6,0.6 0 0 0 -0.23,-0.1 9.83,9.83 0 0 1 1.0000004,-1.13 2.84,2.84 0 0 0 0.82,-1.16 c 0.3,-0.66 1.06,-1 1.32,-1.76 0,-0.14 0.36,-0.29 0.54,-0.46 0.18,-0.17 0.46,-0.36 0.5,-0.52 0.29,-1.19 1.44,-2.05 1.87,-3.18 a 0.75,0.75 0 0 1 0.51,-0.47 8.19,8.19 0 0 0 0.94,-0.35 2.65,2.65 0 0 0 1.31,-1.25 3.51,3.51 0 0 1 1.53,-1.53 c 0.46,-0.26 0.62,-1 1.28,-1.25 a 8.28,8.28 0 0 0 2.690004,-2 c 0.52,-0.53 1.11,-1 1.59,-1.5 a 4.22,4.22 0 0 1 1.8,-1.26 8.18,8.18 0 0 0 2.28,-1.24 c 0.69,-0.49 1.16,-1.28 2.11,-1.39 0.36,-0.33 0.72,-0.67 1.09,-1 a 0.8,0.8 0 0 1 0.88,-0.07 c 0.35,0.36 0.48,0.37 0.91,0.05 0.28,-0.2 0.44,-0.52 0.88,-0.58 a 5.19,5.19 0 0 0 2.65,-1.17 3.56,3.56 0 0 1 2.33,-1 4.94,4.94 0 0 1 2,-0.62 2.71,2.71 0 0 0 1,-0.41 c 0.61,-0.39 1.15,-0.84 1.79,-1.19 a 9.29,9.29 0 0 1 1.36,-0.59 1.62,1.62 0 0 1 1.63,0.12 c 0.22,0.19 0.4,0.16 0.52,-0.1 0.12,-0.26 0.22,-0.55 0.68,-0.52 a 11.06,11.06 0 0 0 2.21,-0.23 l 1.86,-0.34 a 8.37,8.37 0 0 1 1.87,-0.07 c 0.67,0.07 0.86,-0.17 1,-0.51 a 0.53,0.53 0 0 1 0.28,-0.18 1.71,1.71 0 0 1 0.72,-0.08 c 0.56,0.16 1,0.4 1.59,0.57 a 1.17,1.17 0 0 0 1,-0.13 1.59,1.59 0 0 1 1,-0.08 c 0.44,0 0.5,-0.29 0.75,-0.44 a 0.59,0.59 0 0 1 0.31,-0.07 c 0.7,0.17 1.38,0.37 2.07,0.58 a 1.49,1.49 0 0 0 1.06,0 l 0.9,-0.42 c 0.49,-0.24 1,0.18 1.44,0.07 a 2.23,2.23 0 0 1 1.44,0.06 c 0.43,0.19 0.91,0.31 1.34,0.52 a 2.14,2.14 0 0 0 1.41,0.14 5.4,5.4 0 0 1 1.79,-0.17 14.74,14.74 0 0 1 1.72,0.61 7.91,7.91 0 0 0 3.29,0.4 1,1 0 0 1 0.9,0.42 l 0.16,0.25 a 1.71,1.71 0 0 0 1.14,0.71 1.44,1.44 0 0 0 1,-0.1 c 0.37,-0.14 0.41,-0.14 0.9,0.42 a 1.09,1.09 0 0 0 0.59,0.37 c 0.46,0.12 1,0 1.4,0.34 0.67,0.48 1,0 1.62,0.1 a 0.6,0.6 0 0 1 0.54,0.35 c 0.1,0.24 0,0.53 0.6,0.58 a 13.73,13.73 0 0 1 1.52,0.3 1,1 0 0 1 0.78,0.57 c 0.44,0.71 0.51,0.72 1.33,0.62 0.57,-0.06 0.81,0.07 1,0.54 a 3,3 0 0 1 0.15,0.55 0.56,0.56 0 0 0 0.42,0.43 7.16,7.16 0 0 1 2,0.85 8.32,8.32 0 0 1 1.73,1.35 c 0.1,0.09 0.42,0.07 0.63,0.08 a 0.45,0.45 0 0 0 0.27,-0.07 c 0.64,-0.44 0.65,-0.44 1.370003,0.16 0.22,0.19 0.15,0.3 0,0.43 a 0.57,0.57 0 0 0 0.07,0.93 6.42,6.42 0 0 1 1.41,1.09 1.84,1.84 0 0 0 1.790004,0.75 0.56,0.56 0 0 1 0.55,0.35 l 0.31,0.59 c 0.25,0.44 0.39,0.5 0.7,0.35 0.7,-0.36 0.73,-0.36 1.15,0.26 a 2.85,2.85 0 0 0 1.38,1.17 1.25,1.25 0 0 1 0.87,1 2.61,2.61 0 0 0 0.42,0.92 11.38,11.38 0 0 0 2.64,2.59 9.89,9.89 0 0 1 1.21,0.65 c 0.43,0.4 0.72,1.06 1.15,1.39 a 3.84,3.84 0 0 1 1.36,1.67 17,17 0 0 1 1.42,2.55 1.33,1.33 0 0 0 0.45,0.54 2.39,2.39 0 0 1 0.78,1.23 0.56,0.56 0 0 0 0.47,0.41 2.6,2.6 0 0 1 0.56,0.18 0.78,0.78 0 0 1 0.23,0.27 c 0.17,0.27 0.14,0.4 0,0.49 -0.61,0.4 -0.58,0.73 0,1.42 0.15,0.19 0.33,0.36 0.47,0.57 0.47,0.71 1,1 1.53,0.86 0.37,-0.07 0.48,0.11 0.4,0.54 a 5.35,5.35 0 0 0 0.37,2.7 20.69,20.69 0 0 0 1.18,2.75 1.89,1.89 0 0 0 0.9,1 1.24,1.24 0 0 1 0.75,1.07 18.55,18.55 0 0 1 0.35,3.58 3.62,3.62 0 0 0 0.87,2.68 c 0.34,0.470003 0.69,0.870003 1,1.330003 a 2.07,2.07 0 0 1 0.29,0.66 c 0.15,0.6 0,1.17 0.23,1.82 0.1,0.34 -0.26,0.46 -0.45,0.61 a 2,2 0 0 0 -0.28,0.39 l 0.22,0.21 a 6.9,6.9 0 0 1 0.89,0.83 2.42,2.42 0 0 1 0.38,1.41 1,1 0 0 1 -0.33,0.87 c -0.21,0.18 -0.2,0.34 0,0.54 0.2,0.2 0.38,0.32 0.38,0.45 0,1.16 0.49,2.15 0.52,3.31 0,1 0.06,2 0.11,3 0,0.44 0.23,0.72 0.47,0.68 0.24,-0.04 0.32,-0.11 0.36,-0.41 z"
     id="path8-5" />
</svg>
