<svg id="Layer_1" data-name="Layer 1" xmlns="http://www.w3.org/2000/svg" viewBox="0 0 149.06 138.39"><defs><style>.cls-1{fill:#faf200;}</style></defs><polygon class="cls-1" points="74.97 0.43 96.84 44.74 145.75 51.85 110.36 86.34 118.71 135.05 74.97 112.05 31.23 135.05 39.58 86.34 4.2 51.85 53.1 44.74 74.97 0.43"/><path d="M82.27,13.36c1.22,2.4,2.46,4.73,3.5,7.23.46,1.13,1.25,2,1.67,3.33l.78,2.43a7.12,7.12,0,0,0,1.65,2.78A4,4,0,0,1,91.07,31a17.33,17.33,0,0,0,1.68,3.4c.63,1,1.28,2.13,1.92,3.19,1.29,2.1,1.77,4.47,3.25,6.66L97,43.55h.26a46.8,46.8,0,0,1,6.66.82l7.72,1.17a16,16,0,0,1,1.78.42,16.1,16.1,0,0,0,3.68.53l7.33.42c1.06.06,1.47.24,1.36.56s.66.55,1.74.58c1.49.05,3,.13,4.41.12a21.16,21.16,0,0,1,6.34.95c.83.23,1.75.45,2.68.64a3.86,3.86,0,0,0,1.45,0,4.14,4.14,0,0,1,2.32.21c.39.15.8.29,1.22.42l3.1,1-2.27,1.6A28.59,28.59,0,0,0,143,56.17c-1.6,1.61-3.27,3.21-4.61,4.86a8,8,0,0,1-1.93,1.78l-3.21,2a5.63,5.63,0,0,0-1.33,1.26l-2.22,2.75a5.44,5.44,0,0,1-2.37,1.86,1.77,1.77,0,0,0-.86,1,7.56,7.56,0,0,1-.59,1.44,16,16,0,0,1-3.64,3.92c-.69.52-1.41,1.06-2,1.46a20.67,20.67,0,0,0-3.47,2.85l-5.7,5.66.29-.89.48,2.66a54.43,54.43,0,0,1,.93,6.63,24.6,24.6,0,0,0,1.18,6.37c.52,1.64,1,3.35,1.57,4.8.79,2,.79,2.11.65,4.62a2.51,2.51,0,0,0,.3,1.49,5.81,5.81,0,0,1,.52,1.15c.1,2.59.76,5.75.63,8.14a4.32,4.32,0,0,0,.76,2.82,3.16,3.16,0,0,1,.36,1.61,5.57,5.57,0,0,0,.34,1.78c.65,1.94,1,4.33,1.5,6.49l.83,3.6-3.55-1.62q-.84-.39-1.65-.69c-1.36-.8-2.69-1.64-4.09-2.39a66.42,66.42,0,0,1-6.59-3.81,13,13,0,0,0-2.48-1.16c-1.25-.44-2.11-1.3-3.3-1.73a9.72,9.72,0,0,1-2.87-1.82,8.74,8.74,0,0,0-2.33-1.33,41.8,41.8,0,0,1-4.28-2.07,45.17,45.17,0,0,0-4.11-2.27c-2-.72-4.07-2-6-2.59a6.89,6.89,0,0,1-2.83-1.73,11,11,0,0,0-2.89-2.07h1c-.46.24-.93.5-1.42.79A45.71,45.71,0,0,1,68.32,117,23.37,23.37,0,0,0,66,118.47c-.8.49-1.61,1-2.44,1.44-1.74.9-3.4,1.31-5.14,2.34s-3.1,2-4.71,2.92c-1.08.64-2.27,1.25-3.42,1.86a51.83,51.83,0,0,1-7.68,3.66,19.66,19.66,0,0,0-3.27,1.86,13.82,13.82,0,0,1-3.93,2.2,5.17,5.17,0,0,0-.85.36c-.81.54-1.62,1.06-2.47,1.53l-3.16,1.75.55-3.64a16.69,16.69,0,0,1,.59-2.64,41.38,41.38,0,0,1,.86-4.63c.37-1.5.21-3,.67-4.64a16.71,16.71,0,0,0,.57-3.68,21.65,21.65,0,0,1,.61-3.76,19.24,19.24,0,0,0,.55-2.76A92.56,92.56,0,0,1,35.7,98.52a31.51,31.51,0,0,0,.94-5.67,6,6,0,0,1,.78-2.95,2.21,2.21,0,0,0,.12-1.4,5.59,5.59,0,0,1,0-2.5l.59,1.8a7.76,7.76,0,0,1-.72-1A5,5,0,0,0,36,85,26.44,26.44,0,0,1,31.92,81,14.65,14.65,0,0,0,30,79a20.9,20.9,0,0,1-3.33-3.19,27.36,27.36,0,0,0-4.81-4.46,38.35,38.35,0,0,1-4.23-3.8,61.89,61.89,0,0,0-5.41-5.33,4.8,4.8,0,0,1-.67-.68,44.44,44.44,0,0,0-7.45-7.19,12.25,12.25,0,0,1-1.27-1.14L0,50.4l3.91-.5c.41,0,.81-.09,1.15-.1a37,37,0,0,0,8.38-1.22,10.42,10.42,0,0,1,1.87-.3,118.41,118.41,0,0,0,13.37-1.72c3.55-.54,7.07-1.06,10.59-1.43a20.18,20.18,0,0,0,2.79-.41,41.23,41.23,0,0,1,7.55-1.06,24,24,0,0,0,3.28-.38l-1.11.81c.21-.46.4-.93.57-1.39a37.61,37.61,0,0,1,3.49-7c.64-1,1.32-2.21,1.9-3.38,1.48-3,3.14-5.79,4.54-8.84s3.09-5.78,4.56-8.8c.86-1.78,1.66-3.72,2.63-5.32s1.8-3.36,2.7-5.14C73,2.65,73.65,1.68,74.31.61s.88-.53.34.91a5.5,5.5,0,0,1-.33.61,3.63,3.63,0,0,1-.25.32,3.35,3.35,0,0,0-.61,1.25,22.83,22.83,0,0,1-2.19,5.84c-.68,1.44-1.35,2.94-2,4.13A21.22,21.22,0,0,0,67.7,17a32.06,32.06,0,0,1-1.91,4.34c-2.3,4.18-4.49,8.87-6.74,13.39L56.9,38.92c-.28.54-.66,1.07-.87,1.58-.66,1.57-1.35,3.12-2.07,4.67l-.2.43-.52.09c-4.67.78-9.42,1.39-14.07,2.19-1.91.33-3.7.68-5.54,1.1a46,46,0,0,1-9.39,1.27c-1.15,0-2.47.16-3.67.2a15.46,15.46,0,0,0-2.79.37c-4.31,1-8.89,1.56-13.31,2.37H4.39l.76-2.33A33.09,33.09,0,0,1,11,57.52a2.15,2.15,0,0,0,1.15.89,6.34,6.34,0,0,1,2.51,1.76c1.14,1.13,2.24,2.3,3.33,3.46l2.56,2.79a22.52,22.52,0,0,0,3.49,3.07,15.93,15.93,0,0,1,3.37,3.12,37.06,37.06,0,0,0,6,5.91,40.71,40.71,0,0,1,6.11,5.93l.87,1L41,86l-.13.55A33,33,0,0,0,40,92.71a25.48,25.48,0,0,1-1,5.59,18.08,18.08,0,0,0-.62,2.68c-.12,1.65-.17,2.91-.85,3.15-.16.05-.37.51-.56.79.09.29.17.62.27.88s.28.32.33.72a6.89,6.89,0,0,1-.08,1.66c-.31,1.55-.74,3.06-1,4.59s-.32,3.11-.53,4.69a25.73,25.73,0,0,1-.71,3.74c-.72,2.19-.65,4.35-1.15,6.51-.42,1.82-.77,3.78-1.1,5.68l-.32,1.91-2.17-1.57a36.71,36.71,0,0,0,3.94-2.46,21.87,21.87,0,0,1,3.34-1.84c1.32-.64,2.19-.9,2.65-.74s.5.28.79.39a.86.86,0,0,0,.51,0c.41-.13.76-.41.77-.65s-.09-.68-.08-1,1.06-1.07,1.75-1.32a61.25,61.25,0,0,0,8.54-4.19c1.4-.78,2.68-1.66,4.08-2.42,1.09-.6,2.29-1,3.42-1.62.76-.38,1.51-1.14,2.27-1.24a6.46,6.46,0,0,0,2.89-1.27,30.06,30.06,0,0,1,4.7-2.84c1.29-.56,2.51-1.42,4-2.08l1-.46.75.46.15.1a48.37,48.37,0,0,0,5.07,2.76c2.14,1,3.79,2.34,5.78,3.2a44.07,44.07,0,0,1,5,2.77,69.39,69.39,0,0,0,9.41,4.7,56,56,0,0,1,9.33,4.8c2.15,1.37,4.35,2.56,6.7,3.75l2.22,1.11-2.43,1.77a70.62,70.62,0,0,1-1.16-8.05,19.29,19.29,0,0,0-.52-2.76,109.72,109.72,0,0,1-2.32-14.24,46,46,0,0,0-.78-4.75c-.3-1.57-.69-3.09-1-4.63-.22-3.37-1.13-7.05-1.35-10.41a7.53,7.53,0,0,0-.3-1.8c-.19-.67-.42-1.4-.57-2.12l-.14-.67.53-.54.39-.38c3.27-3.12,6.3-6.56,9.78-9.4,1.29-1.37,2.55-2.76,3.88-4.12,2.27-2.31,4.67-4.59,6.84-6.91,1.33-1.42,2.59-2.65,4-4,3.45-3.26,6.84-6.62,10.25-10l1,2.94-1.31-.18-15.44-2.25c-1.58-.24-3.17-.55-4.72-.86a25,25,0,0,0-3.8-.54,72.86,72.86,0,0,1-7.61-.8L96.56,46.71l-1-.14-.48-1-2.69-5.34c-1.1-2.21-1.92-4.46-3.09-6.71a45.19,45.19,0,0,1-2.6-5.85c-2.53-5.36-5-10.78-7.5-16.26L76.82,6.24a25.69,25.69,0,0,1-1-2.54c-.3-.93-.59-1.84-.81-2.59-.09-.3,0-.41.14-.16,1.1,1.72,2.47,4,3.93,6.49C80.09,9.17,81.2,11.36,82.27,13.36Z"/></svg>