<?xml version="1.0" encoding="UTF-8" standalone="no"?>
<!-- Created with Inkscape (http://www.inkscape.org/) -->

<svg
   xmlns:dc="http://purl.org/dc/elements/1.1/"
   xmlns:cc="http://creativecommons.org/ns#"
   xmlns:rdf="http://www.w3.org/1999/02/22-rdf-syntax-ns#"
   xmlns:svg="http://www.w3.org/2000/svg"
   xmlns="http://www.w3.org/2000/svg"
   xmlns:sodipodi="http://sodipodi.sourceforge.net/DTD/sodipodi-0.dtd"
   xmlns:inkscape="http://www.inkscape.org/namespaces/inkscape"
   width="1000"
   height="1000"
   viewBox="0 0 264.58333 264.58334"
   version="1.1"
   id="svg4845"
   inkscape:version="0.92.1 r15371"
   sodipodi:docname="sm4.svg">
  <defs
     id="defs4839">
    <clipPath
       clipPathUnits="userSpaceOnUse"
       id="clipPath4829">
      <rect
         style="opacity:1;fill:#1a1a1a;fill-opacity:1;stroke:none;stroke-width:3.77952766;stroke-miterlimit:4;stroke-dasharray:none;stroke-opacity:1"
         id="rect4831"
         width="393.9595"
         height="124.24876"
         x="-384.95291"
         y="362.28638" />
    </clipPath>
  </defs>
  <sodipodi:namedview
     id="base"
     pagecolor="#ffffff"
     bordercolor="#666666"
     borderopacity="1.0"
     inkscape:pageopacity="0.0"
     inkscape:pageshadow="2"
     inkscape:zoom="0.35"
     inkscape:cx="-155.71429"
     inkscape:cy="560"
     inkscape:document-units="mm"
     inkscape:current-layer="layer1"
     showgrid="false"
     units="px"
     inkscape:window-width="2256"
     inkscape:window-height="1410"
     inkscape:window-x="-11"
     inkscape:window-y="-11"
     inkscape:window-maximized="1" />
  <metadata
     id="metadata4842">
    <rdf:RDF>
      <cc:Work
         rdf:about="">
        <dc:format>image/svg+xml</dc:format>
        <dc:type
           rdf:resource="http://purl.org/dc/dcmitype/StillImage" />
        <dc:title></dc:title>
      </cc:Work>
    </rdf:RDF>
  </metadata>
  <g
     inkscape:label="Layer 1"
     inkscape:groupmode="layer"
     id="layer1"
     transform="translate(0,-32.41663)">
    <g
       id="g4650"
       transform="matrix(0.57518116,0,0,0.57518116,26.458333,58.874963)">
      <path
         inkscape:connector-curvature="0"
         d="M 184,0 C 82.544,0 0,82.544 0,184 0,285.456 82.544,368 184,368 285.464,368 368,285.456 368,184 368,82.544 285.464,0 184,0 Z m 0,352 C 91.36,352 16,276.64 16,184 16,91.36 91.36,16 184,16 c 92.632,0 168,75.36 168,168 0,92.64 -75.368,168 -168,168 z"
         id="path4606" />
      <path
         inkscape:connector-curvature="0"
         d="m 144,152 c 0,-13.232 -10.768,-24 -24,-24 -13.232,0 -24,10.768 -24,24 0,13.232 10.768,24 24,24 13.232,0 24,-10.768 24,-24 z m -32,0 c 0,-4.408 3.592,-8 8,-8 4.408,0 8,3.592 8,8 0,4.408 -3.592,8 -8,8 -4.408,0 -8,-3.592 -8,-8 z"
         id="path4608" />
      <path
         inkscape:connector-curvature="0"
         d="m 248,128 c -13.232,0 -24,10.768 -24,24 0,13.232 10.768,24 24,24 13.232,0 24,-10.768 24,-24 0,-13.232 -10.768,-24 -24,-24 z m 0,32 c -4.416,0 -8,-3.592 -8,-8 0,-4.408 3.584,-8 8,-8 4.416,0 8,3.592 8,8 0,4.408 -3.584,8 -8,8 z"
         id="path4610" />
      <path
         inkscape:connector-curvature="0"
         d="m 184,306.34567 c -29.824,0 -58.24,-21.67042 -77.96,-59.4667 -2.944,-5.65435 -2.664,-14.328 0.624,-19.37849 3.296,-5.06421 8.352,-4.57014 11.296,1.07049 16.688,31.99097 40.76,50.32642 66.04,50.32642 25.28,0 49.352,-18.33545 66.04,-50.32642 1.576,-3.03304 3.768,-4.57014 5.96,-4.57014 1.896,0 3.816,1.15282 5.336,3.49965 3.288,5.05049 3.568,13.72414 0.624,19.37849 -19.72,37.78256 -48.128,59.4667 -77.96,59.4667 z"
         id="path4612"
         style="stroke-width:1.30977762" />
      <g
         id="g4620" />
      <g
         id="g4622" />
      <g
         id="g4624" />
      <g
         id="g4626" />
      <g
         id="g4628" />
      <g
         id="g4630" />
      <g
         id="g4632" />
      <g
         id="g4634" />
      <g
         id="g4636" />
      <g
         id="g4638" />
      <g
         id="g4640" />
      <g
         id="g4642" />
      <g
         id="g4644" />
      <g
         id="g4646" />
      <g
         id="g4648" />
    </g>
  </g>
</svg>
