<svg id="Layer_1" data-name="Layer 1" xmlns="http://www.w3.org/2000/svg" viewBox="0 0 67 82"><defs><style>.cls-1{fill:#faf200;}</style></defs><path d="M4.35,62.86a27.38,27.38,0,0,1-1.87-5,50.28,50.28,0,0,1-1.15-5.08,69.48,69.48,0,0,1-1-10.87A31.8,31.8,0,0,1,7.79,20.56,40.62,40.62,0,0,1,16.6,13c6.9-4.48,14.45-7.76,22-11.1.87-.38,1.79-.69,2.68-1a.55.55,0,0,1,.46.12s-.14.21-.27.29A13.35,13.35,0,0,1,40.19,2c-3.47,1.49-6.93,3-10.28,4.66-1.08.52-2.14,1.08-3.18,1.67s-2.09,1.16-3.1,1.78c-1.58.89-3.07,1.9-4.58,2.88S16.12,15,14.79,16.21c-1.24.95-2.29,2.07-3.42,3.11a35,35,0,0,0-2.94,3.53c-.38.55-.79,1.08-1.14,1.65l-1,1.74-.49.88L5.44,28l-.77,1.84c-.22.63-.37,1.28-.57,1.91a16.2,16.2,0,0,0-.49,1.94l-.32,2-.17,1-.07,1A59.72,59.72,0,0,0,3.64,48,64.08,64.08,0,0,0,5.71,58a25.49,25.49,0,0,0,1.15,3,9.55,9.55,0,0,0,.72,1.35,11,11,0,0,0,.92,1.32,39.68,39.68,0,0,0,4.47,5c.48.43,1,.86,1.49,1.27s1,.78,1.55,1.19c4.26,3.25,9.19,5.88,14.34,6.57,5.4.88,10.64-1.7,15.28-5a66.42,66.42,0,0,0,8-6.75c.88-.88,1.8-1.79,2.62-2.69a22.79,22.79,0,0,0,2.19-2.84,29.39,29.39,0,0,0,3.22-6.53A29,29,0,0,0,63.1,48.6a21,21,0,0,0-.23-8.79A49.94,49.94,0,0,0,60,31.11a48.52,48.52,0,0,0-9.23-14.2A36.86,36.86,0,0,0,40.37,9.55a63.52,63.52,0,0,0-7.43-3C29.14,5.18,25.23,4,21.35,2.74c-1.2-.39-2.41-.76-3.6-1.18-.19-.06-.33-.25-.49-.38a1.68,1.68,0,0,1,.59,0c3.61,1,7.25,1.8,10.87,2.74a58.68,58.68,0,0,1,6.93,2.2A50.4,50.4,0,0,1,50,14a45.91,45.91,0,0,1,8.84,10.27,58,58,0,0,1,4.51,8.31,45.59,45.59,0,0,1,2,5.61,29.41,29.41,0,0,1,.83,3.56c.09.62.15,1.24.21,1.86s.06,1.24,0,1.85a30.48,30.48,0,0,1-1,7.26,34.78,34.78,0,0,1-3.09,7.78A30.3,30.3,0,0,1,60,64c-.42.58-.89,1.12-1.37,1.66s-.93,1-1.4,1.5-.68.72-1,1a71.42,71.42,0,0,1-11.42,9.12A28.42,28.42,0,0,1,37,80.63a20,20,0,0,1-8.62,0,32.82,32.82,0,0,1-10.17-4.07,43.1,43.1,0,0,1-4-2.7A45,45,0,0,1,6.49,66.3c-.4-.51-.78-1-1.16-1.58a15.92,15.92,0,0,1-1-1.84Z"/><path class="cls-1" d="M31,6C13,15.93,4.23,18.47,1.9,38.3,1.14,44.83,3.14,59.66,7,65c5.82,8,17,14.43,27,14,8.56-.37,18.12-7.81,24-14,5.53-5.82,8.75-17.19,7-25S60,25,54,19c-9-9-9-8-22-13"/><circle cx="24" cy="32" r="3.5"/><path d="M23.24,30a2.65,2.65,0,0,0-.66.4c-.11.07-.29.1-.39.21a.31.31,0,0,0-.13.3.37.37,0,0,1-.15.46c-.06,0-.11.1-.05.17s.11.26-.11.39,0,.38-.07.56a1,1,0,0,0,.08.56c.07.16.25.26.36.38s.19.22.31.31a2,2,0,0,0,.32.18,2.18,2.18,0,0,0,1.34.3.34.34,0,0,0,.22-.14c.09-.1.16-.15.3,0s.09.06.11,0c.22-.25.72-.14.74-.62,0-.24.24-.2.54-.22a.79.79,0,0,0,.69-.46,5.84,5.84,0,0,0,.26-.67.29.29,0,0,1,.11-.11.58.58,0,0,1,.17,0l.21,0c.23.12.61.26.61.44a3.23,3.23,0,0,1-.1,1.19,4.26,4.26,0,0,1-1.36,1.81,8,8,0,0,1-.82.68,3.62,3.62,0,0,1-2.65.64,6.17,6.17,0,0,1-1.6-.45,4.72,4.72,0,0,1-2.3-2.91,5,5,0,0,1,1.27-4.56,3.94,3.94,0,0,1,2.6-1.14,3.45,3.45,0,0,1,1.66.08,4.74,4.74,0,0,1,2.1,1.33,2.89,2.89,0,0,1,.47,1.3,3.67,3.67,0,0,1,0,1.19c0,.13-.06.26-.39.35a1.15,1.15,0,0,1-.49,0l-.18-.1c-.2-.18-.28-.31-.2-.52a1.17,1.17,0,0,0-.07-.76c0-.06-.14-.05-.21-.07a1.85,1.85,0,0,1-.38-.05,2,2,0,0,1-.63-.54c-.13-.18-.35-.14-.53-.13a1.9,1.9,0,0,0-1,.35Z"/><circle cx="41" cy="31" r="3.5"/><path d="M40.24,29a2.65,2.65,0,0,0-.66.4c-.11.07-.29.1-.39.21a.31.31,0,0,0-.13.3.37.37,0,0,1-.15.46c-.06,0-.11.1,0,.17s.11.26-.11.39,0,.38-.07.56a1,1,0,0,0,.08.56c.07.16.25.26.36.38s.19.22.31.31a2,2,0,0,0,.32.18,2.18,2.18,0,0,0,1.34.3.34.34,0,0,0,.22-.14c.09-.1.16-.15.3,0s.09.06.11,0c.22-.25.72-.14.74-.62,0-.24.24-.2.54-.22a.79.79,0,0,0,.69-.46,5.84,5.84,0,0,0,.26-.67.29.29,0,0,1,.11-.11.58.58,0,0,1,.17,0l.21,0c.23.12.61.26.61.44a3.23,3.23,0,0,1-.1,1.19,4.26,4.26,0,0,1-1.36,1.81,8,8,0,0,1-.82.68,3.62,3.62,0,0,1-2.65.64,6.17,6.17,0,0,1-1.6-.45,4.72,4.72,0,0,1-2.3-2.91,5,5,0,0,1,1.27-4.56,3.94,3.94,0,0,1,2.6-1.14,3.45,3.45,0,0,1,1.66.08,4.74,4.74,0,0,1,2.1,1.33,2.89,2.89,0,0,1,.47,1.3,3.67,3.67,0,0,1,0,1.19c0,.13-.06.26-.39.35a1.15,1.15,0,0,1-.49,0l-.18-.1c-.2-.18-.28-.31-.2-.52a1.17,1.17,0,0,0-.07-.76c0-.06-.14-.05-.21-.07a1.85,1.85,0,0,1-.38-.05,2,2,0,0,1-.63-.54c-.13-.18-.35-.14-.53-.13a1.9,1.9,0,0,0-1,.35Z"/><path d="M56,54.28s0-.06,0-.08a4.1,4.1,0,0,1-.55-.71c-.26-.32-.53-.59-.79-.89a1.79,1.79,0,0,1-.2-.28c0-.07,0-.14-.13-.17l0,0c.09-.14-.06-.21-.13-.29a6.42,6.42,0,0,1-.56-.61,1,1,0,0,0-.24-.21c-.09-.07-.18-.13-.2-.25a.41.41,0,0,0-.12-.18c-.07-.08-.16-.15-.23-.22s-.36-.34-.53-.52a2.13,2.13,0,0,0-.5-.45,1,1,0,0,1-.32-.31,1.38,1.38,0,0,0-.22-.26l-.46-.39a.63.63,0,0,1-.12-.11,1.37,1.37,0,0,0-.38-.38c-.43-.35-.87-.69-1.33-1l-.39-.29c-.32-.24-.64-.49-1-.71s-.56-.33-.83-.5A4.06,4.06,0,0,0,46.1,45a.1.1,0,0,1-.05,0,1.2,1.2,0,0,0-.36-.22l-.22-.13c-.31-.19-.65-.37-1-.55L44,43.85c-.09-.05-.16-.11-.25-.15-.3-.12-.61-.25-.9-.4s-.67-.32-1-.47a2.56,2.56,0,0,0-.48-.22,2.66,2.66,0,0,1-.56-.2l-.39-.12a.84.84,0,0,1-.17,0,2.24,2.24,0,0,0-.69-.23A1.24,1.24,0,0,1,39,41.8a.34.34,0,0,0-.15-.06s-.08,0-.12,0l.06.11h-.11c-.3-.07-.54-.07-.82-.12s-.28-.07-.42-.1l-.06-.05h0a.8.8,0,0,0-.57-.07.54.54,0,0,1-.22,0l-.18,0h-1a1.61,1.61,0,0,1-.69,0h-.08q-.48,0-1,0c-.5,0-1,.1-1.48.12a1.09,1.09,0,0,0-.26,0,7.9,7.9,0,0,1-.83.12,4.28,4.28,0,0,0-.61.09c-.13,0-.25.08-.38.12a3.1,3.1,0,0,1-.51.11,2.34,2.34,0,0,0-.45.07,7.07,7.07,0,0,0-1.63.53,1,1,0,0,1-.47.11.17.17,0,0,0-.2.12c0,.09-.12.12-.23.15l.06-.11a.57.57,0,0,0-.55.25l-.05,0h0l.06,0s-.05-.09-.12-.06a3.28,3.28,0,0,0-.6.28.43.43,0,0,1-.28.13,1.33,1.33,0,0,0-.68.29.42.42,0,0,1-.37.16L24,44c-.28.13-.55.28-.82.43a4.53,4.53,0,0,0-.46.3l-.55.38c-.09.06-.18.15-.27.2a.82.82,0,0,0-.27.21s-.1.09-.15.14-.09,0-.11,0h0l-.11.22-.11-.05s-.08,0-.09,0-.17.16-.15.27l.09,0v0s0,0,0,0l0,0a1.44,1.44,0,0,1-.33.32h0a.4.4,0,0,1,0-.11s0-.06.06-.09,0,0,0,0h-.05l-.21.18h0l0,0c-.18,0-.27.24-.43.3a.13.13,0,0,0-.05.07c-.07.12-.14.24-.22.36a.48.48,0,0,1-.14.09h0l-.17.12c-.1.08-.19.18-.3.26s-.32.28-.26.5a.18.18,0,0,1-.13.22c-.06,0-.11.09-.17.15a.08.08,0,0,0,0,.11c0,.07,0,.1-.07.09s-.3.11-.46.06-.12.09-.14.19l.13-.05a.92.92,0,0,1-.2.23.3.3,0,0,1-.15.07s-.07-.05-.1-.07c-.24.19-.36.47-.58.66l-.05.07c0,.07,0,.12.05.15H17l.06.06a.46.46,0,0,1-.07.07s-.08.05-.05.08,0,.12,0,.14-.12,0-.16.1-.06.08,0,.08.05,0,0,.07a.13.13,0,0,1-.09.06c-.07,0-.12,0-.13.11a.69.69,0,0,1-.05.13c0,.06-.07.1-.12,0s-.09,0-.13,0L16,51.3a.15.15,0,0,0,0,.12.22.22,0,0,1-.08.21.26.26,0,0,1-.2.11h0c-.15.09-.15.09,0,.17s0,0,0,0l-.15.14c-.07.06,0,0-.09,0a.59.59,0,0,0-.1.17.73.73,0,0,1-.17.31h0v-.13a1.41,1.41,0,0,1-.14.17l-.17.11c0,.06.07.13,0,.22l-.17-.09c-.28.21-.28.21-.33.43A.36.36,0,0,0,14.6,53c.08,0,0,.07,0,.11v0h0v0l-.1.11-.11.24c-.08,0-.05-.06-.06-.09l0-.14-.06.09v0s-.07,0-.08,0a.24.24,0,0,0-.07.12s0,.1,0,.11a.12.12,0,0,1,0,.05,1.6,1.6,0,0,1,0,.23.46.46,0,0,1-.08.13l-.09-.07H14l-.14.12c.05,0,.12,0,.07.16a2.32,2.32,0,0,1-.22.41.64.64,0,0,1-.25.24l-.08-.13h0c-.06,0-.14.08-.14.17s0,0,0,.06l.06,0v0h0c.08.06.07.15,0,.23l-.67,1c-.31.44-.61.87-.89,1.33-.08.11-.18.23-.14.38s0,.09-.05.13a2.49,2.49,0,0,0-.15.28,1.39,1.39,0,0,0-.06.19s0,.06,0,.06.05,0,.07,0a3.62,3.62,0,0,0,.26-.38,2.54,2.54,0,0,0,.39-.61.24.24,0,0,1,.06-.09.26.26,0,0,0,.13-.2.4.4,0,0,1,.09-.17l.41-.56c.07-.08.12-.21.2-.26s.11-.2.18-.29.06-.06.08,0,.15-.06.21-.14c.3-.4.62-.8.9-1.21a2.53,2.53,0,0,1,.5-.53h0v.18l.06-.06c.06-.1.07-.21.19-.28a.18.18,0,0,0,.08-.23l0,0,0,0a.63.63,0,0,0,.34-.28.77.77,0,0,1,.24-.32.08.08,0,0,0,0-.05c0-.16,0-.17.14-.21a.09.09,0,0,0,.06-.1.15.15,0,0,1,.13-.15.14.14,0,0,0,.1-.11.23.23,0,0,1,0-.1.78.78,0,0,0,.24-.27.43.43,0,0,0,.2-.22,1,1,0,0,1,.32-.32,1.48,1.48,0,0,1-.13.21l-.52.67a4.09,4.09,0,0,1-.51.67s0,.08-.08.11l-.18.24c-.1.13-.2.26-.29.4a.37.37,0,0,0,0,.15h0l-.3.31c.12.13.12.13,0,.3-.13-.06-.15-.06-.24,0l-.15.19-.22.28-.52.68a1,1,0,0,0-.1.17s0,.08,0,.11.2-.23.36-.15a.24.24,0,0,1-.19.17.39.39,0,0,0-.27.31.38.38,0,0,0,0,.1.66.66,0,0,1-.2.29.57.57,0,0,0-.15.16s0,0,0,0l0,0,0,0-.31.39a.58.58,0,0,1-.11.05h0a.4.4,0,0,1-.09.24,4,4,0,0,0-.35.46c-.26.41-.5.82-.74,1.27l-.06.13c-.06.23-.18.4-.28.69l-.06.21s0,.11.05.1a2,2,0,0,1,.26-.59,7.35,7.35,0,0,1,.44-.61.34.34,0,0,0,.09-.22h0a1.37,1.37,0,0,1,.19-.23c.06-.06.07-.18.13-.26l.41-.59.52-.7.59-.76.73-1,.42-.54h0l-.2.41a.1.1,0,0,1,0,.06.85.85,0,0,0-.28.37c-.06.11-.13.21-.2.32l-.17.24v0a.52.52,0,0,0-.23.18l-.24.29-.6.74s-.07.07-.08.12a2.21,2.21,0,0,1-.3.45c-.08.11-.15.23-.22.34a.38.38,0,0,0,0,.15l.25-.26a4.36,4.36,0,0,1,.6-.81,6.78,6.78,0,0,1-.6.81l-.27.41s-.06.12-.14.09a.11.11,0,0,0-.06,0,1.9,1.9,0,0,0-.38.68L12,59.7s-.08,0-.09,0a1.22,1.22,0,0,0-.11.53,3.91,3.91,0,0,1,.39-.62l.18-.24a8.33,8.33,0,0,1,.5-.67,9.38,9.38,0,0,0,.61-.8l.15-.2.55-.67.78-1,.89-1.13.91-1.19,0,0a9.76,9.76,0,0,0,.69-.87l.1-.12c.4-.45.74-.9,1.1-1.33l.16-.18c.31-.34.64-.67,1-1s.62-.6.95-.88.8-.64,1.2-.94a15.93,15.93,0,0,1,1.53-1c.68-.41,1.37-.81,2.08-1.16a5,5,0,0,1,.59-.25c.33-.15.67-.27,1-.4.51-.19,1-.37,1.53-.53a2.08,2.08,0,0,1,.6-.09.34.34,0,0,1,.11-.07c.23-.07.46-.14.69-.19s.69-.13,1-.19c.56-.11,1.13-.2,1.71-.26.35,0,.7,0,1.06,0l0,0-.11,0-.34,0-.44,0-.82.07c-.31,0-.63.07-.94.13a18.82,18.82,0,0,0-2,.42L29,45c-.63.19-1.26.39-1.88.64s-1.33.62-2,.89l-.2.11a.09.09,0,0,0,0,.06h.11l-.29.18.06,0a1.85,1.85,0,0,0,.44-.18,1,1,0,0,1,.28-.09s.05,0,.06.06,0,0,0,.06,0,.1.08.07l.13-.06a2.3,2.3,0,0,1,.67-.27.55.55,0,0,0,.15-.08,6.11,6.11,0,0,1,.58-.27c.27-.13.56-.2.84-.31.48-.17,1-.33,1.46-.46A13.49,13.49,0,0,1,30.92,45a6.33,6.33,0,0,1,.87-.15c.45-.07.91-.14,1.37-.18s1.1,0,1.65-.06c.33,0,.66,0,1,0l1.07,0a11.12,11.12,0,0,1,1.42.19l.37.07a2.78,2.78,0,0,1,.67.18,7.44,7.44,0,0,1,.85.33c.37.17.75.31,1.12.51l.17.07a3,3,0,0,1,.64.28l.24.11.37.21.32.17.91.49.93.53.41.26.46.27.22.14c.27.16.54.33.79.51s.57.38.85.56a4.62,4.62,0,0,0,.64.45.29.29,0,0,1,.11.11.68.68,0,0,0,.31.22,1.3,1.3,0,0,1,.15.1l.13.09a1.75,1.75,0,0,1,.25.16c.11.09.21.22.33.3a3.52,3.52,0,0,1,.37.27l.26.2a11.55,11.55,0,0,1,.94.76c.13.12.27.22.4.33a3.81,3.81,0,0,1,.43.37,4.59,4.59,0,0,0,.39.37,2.35,2.35,0,0,0,.46.28s0,0,0,0,0,0,0-.07a.16.16,0,0,0-.07-.07L52.3,53a.11.11,0,0,1,0-.08s.06,0,.07,0a1.42,1.42,0,0,0,.41.24s.08.07.11.11a2,2,0,0,1,.12.19s.05.07.07.07.11.07.11.14h0v0l0,0h0c.12-.08.13-.12.06-.21a2.18,2.18,0,0,0-.21-.22s-.09,0,0-.1c.15.13.29.27.43.41a.13.13,0,0,1,0,.18c0,.09,0,.09.09.14a.35.35,0,0,1,.1.08,2.24,2.24,0,0,0,.27.34c.19.17.29.42.53.54.18.29.49.45.71.71,0,0,.09.06.11,0s0-.08,0-.12a3.3,3.3,0,0,0-.26-.39L55,55a1.38,1.38,0,0,1,.34.3,8.09,8.09,0,0,1,.54.61l.26.34.25.31s.06.1.14.09l-.08-.3-.07-.06v0h0l0,.07.13.12.1.11s0,.11.12.11l-.06-.15-.18-.35a.43.43,0,0,1-.07-.36.36.36,0,0,0,0-.19,5.61,5.61,0,0,0-.29-.54,6.4,6.4,0,0,0-.53-.79,1.86,1.86,0,0,1,.33.36c.1.15.29.21.34.39,0,0,0,0,0,0s.12,0,.17.13l.28.42c0,.06.08.14.15.1l0-.09a2.49,2.49,0,0,0-.33-.57.47.47,0,0,1-.11-.26c.13.17.13.17.26.23-.08-.1-.12-.17-.18-.25s-.13-.17-.25-.17,0-.08,0-.12h0c-.07-.11-.19-.16-.22-.28Zm-38.33-5h0Zm14.63-4.68h-.15l0,0h0l.06,0h.15Zm-4.5,1.08a.11.11,0,0,1,.14,0h0Zm-10.74,4c.05,0,0,.11.05.15h.06v0h0C17,49.86,17,49.86,17.05,49.75Zm.44-.09-.19-.1.05,0h.12l.07,0h0s0,0,0,0h-.07Zm11.19-4.35s0,0,0,0,0,0,0,0-.11.09-.18.11-.07,0-.11,0l-.17.1c0-.13,0-.13.17-.1Zm.29,0h-.09l.14-.06s0-.06.06-.07a3.22,3.22,0,0,1,.66-.13l0,.07a1.59,1.59,0,0,1-.68.13ZM17.73,50.48l.07-.08a10.72,10.72,0,0,1,1.08-1.15l.43-.39c0,.07,0,.09,0,.12l-.56.53c-.23.22-.46.45-.67.69s-.49.55-.72.83a.48.48,0,0,1-.11.09h0A3.55,3.55,0,0,1,17.73,50.48Zm32.35.7a1.49,1.49,0,0,0-.27-.23,2.49,2.49,0,0,1-.54-.43,1.87,1.87,0,0,0-.24-.21,9.7,9.7,0,0,1,1.45,1.18A2.64,2.64,0,0,1,50.08,51.18ZM31.34,44.74a.25.25,0,0,1,.12,0,0,0,0,0,1,0,0s0,0,0,0h0c-.21,0-.43,0-.64.08l-.21.05s-.06,0-.08,0l0,0,.42-.07h0Zm20.81,8,0,0s0,.06,0,.09a.09.09,0,0,1-.07,0,1.14,1.14,0,0,1-.16-.14,3.72,3.72,0,0,0-.51-.46l-.07-.08v0Zm-18-8.62.2,0c.28,0,.56,0,.83,0l-1.08.05v0Zm-7.36,2,.17-.1c.05,0,.11-.05.16,0-.18.06-.33.18-.53.15ZM50.6,51.55l.28.19a.37.37,0,0,1,.17.18A1.17,1.17,0,0,1,50.6,51.55ZM33,44.52a.55.55,0,0,0,.31-.07l0,0s0,.06,0,.06l-.24.06-.17,0S33,44.52,33,44.52Zm-.46.11,0,0v0a.24.24,0,0,1,.27,0A.29.29,0,0,1,32.55,44.63ZM30.11,45l-.15,0c.11-.1.11-.1.35-.11ZM16.16,51.29s0,0,0,0,.06-.14.15-.19A.26.26,0,0,1,16.16,51.29Zm-1.58,3.6s.05-.13.13-.13h0c0,.06,0,.08-.16.18C14.58,54.91,14.57,54.9,14.58,54.89Zm-.94,2.36,0,0,.13-.17,0,0Zm20-12.76-.11,0s0,0,0,0,0-.05.09-.06h0ZM18.89,48s.05,0,.07,0a.07.07,0,0,1,0,0s0,0-.07.07S18.88,48,18.89,48Zm-6.74,11.4h0l.07-.14h0ZM33.8,44.49s0,0,.05,0,0,0,.07,0l0,.05ZM20.32,46.66h0s0,0,0,.05H20.3ZM35.6,44.48s0,0,0,0l0,0,0,0ZM19.27,47.61h0s0,0,0,0l.09-.06Zm-5.06,7.87h0l0,.05h0A.06.06,0,0,1,14.21,55.48ZM20,47.09a.08.08,0,0,1,0,0h0l0,0Zm-7.29,9v0l0,0v0ZM27.46,45.83s0,0,0,0h0ZM12.33,56.68v0h0v0Zm42.34-1.93v0h0v0Zm-39.28-.89h0v0Zm38.84.45h0v0ZM12.39,59h0l0,0Zm1.52-2.14h0s0,0,0,0h0Zm21.3-12.4v0l0,0h0Zm-.43,0,0,0h0ZM15.4,54.64h0Zm10.23-8h0v0Zm10.16-2.15h0Zm-1.69,0h0Z"/><path d="M46.1,48.89a.52.52,0,0,1,.34.1l1,.68c.35.23.7.47,1,.73.16.13.34.23.5.35s.3.23.45.35a.16.16,0,0,1,0,.09c0,.05-.07.05-.11,0a.67.67,0,0,1-.12-.06c-.43-.33-.9-.62-1.34-.94-.29-.21-.59-.42-.9-.62a6.25,6.25,0,0,1-.88-.65A.16.16,0,0,1,46.1,48.89Z"/><path d="M52,53.19l-.11-.07c-.19-.15-.37-.31-.56-.45l-1-.73-.5-.36,0,0c-.08-.08-.13-.19-.25-.23s0,0,0-.07l.06,0a.15.15,0,0,1,.07,0,10.29,10.29,0,0,1,1,.75l.79.65s.07,0,.08.06a1.41,1.41,0,0,0,.31.29l.14.13Z"/><path d="M30.25,45.47a6.5,6.5,0,0,0-.79.17c-.29.11-.59.18-.88.28l-.51.16a.09.09,0,0,1-.07,0s0,0,0,0a0,0,0,0,1,0,0,3.46,3.46,0,0,0,.7-.26l.19,0a6.73,6.73,0,0,0,.8-.23s.07,0,.1,0a1.15,1.15,0,0,0,.48-.1l.19,0,0,0a0,0,0,0,1,0,.05l-.08,0a.86.86,0,0,1-.17,0Z"/><path d="M24.39,47.29a1.58,1.58,0,0,0,.44-.2,1.65,1.65,0,0,1,.42-.21s0,0,0,0v0l-.32.19a.91.91,0,0,0-.17.09l-.57.34a4.52,4.52,0,0,0-.58.39h-.07a.05.05,0,0,1,0-.08.27.27,0,0,1,.08-.07l.16-.11.57-.41Z"/><path d="M26.72,46.64a.51.51,0,0,1-.37.11.22.22,0,0,1,0-.08,1.25,1.25,0,0,1,.55-.25,1.41,1.41,0,0,0,.37-.18.35.35,0,0,1,.24-.06s.05,0,.05,0a.07.07,0,0,1,0,.06l-.61.23a.45.45,0,0,0-.23.13Z"/><path d="M23,48.65a1.26,1.26,0,0,1,.37-.32c.28-.16.55-.31.83-.45h0l0,0h0a11.79,11.79,0,0,0-1,.71.15.15,0,0,1-.2,0Z"/><path d="M20.88,50.32l.17-.09c0,.05,0,.08,0,.09a3.68,3.68,0,0,1-.39.4l-.54.53-.07,0c.06-.18.06-.17.16-.25l.18-.17c.12-.12.26-.24.4-.36a.33.33,0,0,0,.12-.17Z"/><path d="M18.56,53s0,0,0,.07a2.18,2.18,0,0,1-.42.54s-.05.09-.08.13a1.11,1.11,0,0,1-.35.37c.05-.17.08-.3.21-.38a.54.54,0,0,0,.21-.24,2.92,2.92,0,0,1,.43-.5Z"/><path d="M21.89,49.44s.07,0,.07.05l0,0a2.14,2.14,0,0,1-.42.37,1.7,1.7,0,0,0-.23.17.2.2,0,0,1-.08,0,.5.5,0,0,1,.21-.28,1.22,1.22,0,0,0,.4-.35s.06,0,.09,0v0Z"/><path d="M15.43,51.8a.14.14,0,0,1,0-.19,1.1,1.1,0,0,0,.31-.43.12.12,0,0,1,.06-.06h.07s0,0,0,0a1.54,1.54,0,0,1-.3.42Z"/><path d="M33,45c-.34.06-.65.08-1,.13l-.06,0v0l0,0L33,45Z"/><path d="M18.39,48.31a1.18,1.18,0,0,1-.08.23c0,.07-.12.12-.18.08a.62.62,0,0,1-.18-.14s0,0,0-.07H18c.05.07.1.06.18,0S18.31,48.36,18.39,48.31Z"/><path d="M13.48,58.48s0,.1,0,.12l-.44.49h-.07V59a1.61,1.61,0,0,1,.54-.56Z"/><path d="M31.48,45.15v0l-.74.17h0l0,0a.08.08,0,0,1,0,0,1.66,1.66,0,0,1,.21-.06Z"/><path d="M24.21,47.85a.68.68,0,0,1,.44-.28l.06,0s0,0,0,.06a.86.86,0,0,1-.2.13l-.25.11h0l0,0Z"/><path d="M35.7,44.85h.4l.06,0s0,0-.07,0l-.63,0-.09,0,0,0,0,0h.33Z"/><path d="M19.37,51.89h.05s.07,0,0,0-.21.26-.32.38l-.14.07a2.44,2.44,0,0,1,.23-.32,1.92,1.92,0,0,0,.13-.17Z"/><path d="M12.33,56.25c.08-.14.15-.29.22-.42a.08.08,0,0,1,.07,0l.05,0a.79.79,0,0,1-.24.4.38.38,0,0,1-.1,0Z"/><path d="M42.28,46.65l.53.27s0,0,0,0l0,0a.61.61,0,0,1-.13,0l-.36-.25S42.28,46.69,42.28,46.65Z"/><path d="M53.22,53.74c0,.1.13.15.2.22s0,0,0,0h-.09L53,53.67s0,0,0-.05,0,0,0,0l.19.1h0l0,0Z"/><path d="M38.85,45.27a.89.89,0,0,1-.37,0s0,0,0,0a.07.07,0,0,1,0,0A.54.54,0,0,1,38.85,45.27Z"/><path d="M22.9,48.71a.13.13,0,0,1,0,.09,1.4,1.4,0,0,1-.33.24c0-.14.06-.18.32-.34Z"/><path d="M20.1,50.69a.61.61,0,0,1-.31.35h0s0,0,0,0A1.46,1.46,0,0,1,20.1,50.69Z"/><path d="M34.22,44.83l.11,0s0,0,0,0a.28.28,0,0,1-.28,0s0,0,0,0,0,0,0,0Z"/><path d="M17.83,53.37l-.26.38h0s0,0,0,0A.65.65,0,0,1,17.83,53.37Z"/><path d="M23.1,48.24l-.32.23s0,0-.06,0,0,0,0-.05a.51.51,0,0,1,.37-.16Z"/><path d="M19.67,51.14c0,.14-.07.21-.17.24l0,0a.06.06,0,0,1,0,0A.41.41,0,0,1,19.67,51.14Z"/><path d="M12.29,56.22l0,0h0v0a.2.2,0,0,1-.08.21s-.08-.07-.06-.21a.08.08,0,0,1,0,0h0l.07,0Z"/><path d="M16.07,50.82s.06,0,.07,0a.13.13,0,0,1,0,.07.27.27,0,0,1-.06.12s-.05,0-.06,0a.07.07,0,0,1,0-.06S16.06,50.86,16.07,50.82Z"/><path d="M25,47.44s0-.08,0-.1a1.17,1.17,0,0,1,.2-.06s0,.08,0,.09l-.18.07Z"/><path d="M36.85,44.93a.26.26,0,0,1-.23,0,.18.18,0,0,1-.1-.06s0-.05.12,0Z"/><path d="M17.46,49l.06-.12s.05-.09.1-.07.06.12,0,.15S17.54,49,17.46,49Z"/><path d="M13.64,58.2a.3.3,0,0,1-.16.28h0a.12.12,0,0,1,0-.17l.14-.11Z"/><path d="M35.14,44.87a.58.58,0,0,1-.41,0h.34Z"/><path d="M22.32,49.17c0,.08-.08.16-.19.14v0C22.15,49.18,22.24,49.18,22.32,49.17Z"/><path d="M12.39,57.85l.14-.23h.07s0,.06,0,.07l-.16.19Z"/><path d="M19.51,47.22l-.12,0s0,0,0-.05a.18.18,0,0,1,.08-.07.07.07,0,0,1,.08,0,.12.12,0,0,1,0,.14Z"/><path d="M19.89,51.49l-.13,0s0,0,0,0,0-.06,0-.06l.13,0Z"/><path d="M44.84,48.17l-.05-.06v0s0,0,0,0a.15.15,0,0,1,.14.1v0h0Z"/><path d="M15.29,51.91s0,0,0,0a.07.07,0,0,1,.05,0,.19.19,0,0,1,0,.07s0,0-.06,0a.14.14,0,0,1,0-.06A.11.11,0,0,1,15.29,51.91Z"/><path d="M38.31,45.17a.34.34,0,0,1-.22,0C38.18,45.09,38.18,45.09,38.31,45.17Z"/><path d="M41.88,42.75l.2,0a.11.11,0,0,1,0,.05l0,0-.19-.07Z"/><path d="M16.71,50.09a.29.29,0,0,1-.1.22l0,0s0,0,0-.07S16.65,50.17,16.71,50.09Z"/><path d="M17.12,54.89a1.73,1.73,0,0,1-.24.23.28.28,0,0,1,.24-.24Z"/><path d="M40.56,45.92l-.26-.13a.47.47,0,0,1,.28.09Z"/><path d="M39.16,45.41l-.13,0a.07.07,0,0,1,0-.05l0,0,.12.06Z"/><path d="M18.62,48.06s.05,0,.05,0a.08.08,0,0,1,0,.06s-.09,0-.1,0,0-.08,0-.11l.05,0Z"/><path d="M22.26,48.88l-.18.07c0-.06,0-.08.05-.1a.22.22,0,0,1,.11-.05l0,.08Z"/><path d="M37,45s.07,0,.1,0a.12.12,0,0,1,.08,0s0,.05-.09,0L37,45Z"/><path d="M22.52,48.65s0-.08,0-.08h.08s0,.06,0,.06A.29.29,0,0,1,22.52,48.65Z"/><path d="M18.78,52.75l0,0-.08,0,0-.07,0,0h.06Z"/><path d="M18.77,52.18s0,0,0,0,0-.08.09-.07h0a.32.32,0,0,1,0,.09Z"/><path d="M19.12,51.69l.07-.09h0l-.05.1Z"/><path d="M21.59,49.32c0,.08-.05.14-.19.15Z"/><path d="M17.86,53.21l.08,0,0,0s0,0,0,0a.12.12,0,0,1-.05.05h-.05Z"/><path d="M21.2,49.69l0-.07.05,0v0Z"/><path d="M37.48,45l.09,0,0,0v0h-.12Z"/><path d="M33.84,44.91l-.07,0h-.19A.34.34,0,0,1,33.84,44.91Z"/><path d="M12.9,57.18l-.1.16,0,0s0-.08,0-.12a.15.15,0,0,1,.13-.07Z"/><path d="M14.59,54.4l-.16.25c0-.18,0-.18.16-.25Z"/><path d="M31.68,45.12l.1,0,0,0-.11,0Z"/><path d="M20.59,50.19c0,.07,0,.09,0,.12h0v0Z"/><path d="M14.16,57.47h.05a.06.06,0,0,1,0,0l0,0Z"/><path d="M56.81,56.91a.2.2,0,0,1,0-.08h0a.29.29,0,0,1,0,.09Z"/><polygon points="12.94 57.2 12.9 57.18 12.9 57.18 13.05 56.94 13.08 56.95 12.94 57.21 12.94 57.2"/><path d="M12.86,55.39v-.06h.05a.13.13,0,0,0,0,.06Z"/><path d="M13.08,56.76l-.05,0s0,0,0-.07l0,0Z"/><path d="M17.15,54.84c0-.12,0-.12.14-.2l-.14.2Z"/><path d="M40.87,46l.06,0a.06.06,0,0,1,0,0h-.06S40.87,46,40.87,46Z"/><path d="M40,45.64v0l-.09,0v0Z"/><path d="M57.25,56.51l0,.07-.06,0s0,0,0,0A.12.12,0,0,1,57.25,56.51Z"/><path d="M18.42,52.58a.35.35,0,0,0,0-.06l.07-.06a.08.08,0,0,1,0,0Z"/><path d="M37.84,45h.06v0h0S37.85,45.06,37.84,45Z"/><path d="M21.88,49h.06a.14.14,0,0,1,0,.06h0Z"/><path d="M20.78,50.07h0v0h.05Z"/><path d="M42,46.54l-.09,0a.07.07,0,0,1,0,0h0l.09,0Z"/><path d="M41.21,46.21l0,0h.08s0,0,0,0Z"/><path d="M18.66,52.33h0s0,0,0,0h0Z"/><path d="M45.36,48.41l0,0,0,0,0,0A.1.1,0,0,0,45.36,48.41Z"/><path d="M17.2,49.24a.07.07,0,0,1,0-.05h0s0,0,0,0Z"/><path d="M13.09,55l.06,0a.11.11,0,0,1,0,.05h-.06Z"/><path d="M12.22,56.25v0l0-.06,0,.06h0l-.07,0Z"/><path d="M15.06,51.86l0,0h0a.08.08,0,0,1,0,0Z"/><path d="M36.32,44.91h0l0,0Z"/><path d="M12,58.34l.05-.07h0s0,0,0,0l-.07,0Z"/><path d="M14.17,55h0l0,0v0Z"/><path d="M13.6,56.06h0v0h0Z"/><path d="M44.12,47.68l0,0v0l0,0Z"/><path d="M44.62,48h0v0h0Z"/><path d="M17.39,53.89h0v0h0Z"/><path d="M18.23,52.77v0l0,0h0Z"/><path d="M21.38,45.66l0,0,0,0s0,0,0,0l0,0Z"/><polygon points="22.38 48.71 22.38 48.73 22.37 48.72 22.38 48.71"/><polygon points="18.89 52.54 18.91 52.53 18.91 52.57 18.88 52.56 18.89 52.54"/><path d="M12,58.34l0,0h0l0,0,0,0Z"/><path d="M39.58,45.5h0l0,0h0Z"/><path d="M14.59,54.4s0,0,0,0h0l0,0-.05,0Z"/><path d="M13.37,54.67v-.05l0,0a0,0,0,0,1,0,0s0,0,0,.05Z"/><polygon points="16 55.27 16.01 55.26 16.01 55.28 16 55.27"/><path d="M13.63,54.26h0v0h0Z"/><polygon points="44.31 47.8 44.29 47.79 44.3 47.78 44.31 47.8"/><path d="M15.05,52.07s0,0,0,0l0,0v0S15.06,52.06,15.05,52.07Z"/><polygon points="17.06 54.28 17.07 54.27 17.07 54.28 17.06 54.28"/><path d="M18.09,53h0Z"/><path d="M18.75,47.69h0s0,0,0,0,0,0,0,0Z"/><path d="M43.58,47.39s-.1,0-.09,0h0l.09.06Z"/><path d="M23,48.64l-.06.07h0a.07.07,0,0,1,.09-.05Z"/><polygon points="21.75 49.2 21.76 49.22 21.74 49.22 21.75 49.2"/><polygon points="20.2 50.57 20.2 50.55 20.21 50.57 20.2 50.57"/><polygon points="43.2 47.21 43.22 47.19 43.2 47.21 43.2 47.21"/><path d="M43.15,47.18l0,0,0,0v0Z"/><path d="M43.58,47.4h0Z"/><polygon points="17.25 54.04 17.24 54.06 17.23 54.05 17.25 54.04"/><path d="M37.41,41.58h0Z"/><polygon points="17.15 54.84 17.12 54.89 17.12 54.88 17.13 54.86 17.15 54.84 17.15 54.84"/><path d="M24.39,47.28h0Z"/><polygon points="43.2 47.21 43.15 47.18 43.15 47.18 43.2 47.21 43.2 47.21"/><path d="M42,46.54Z"/><polygon points="24.16 47.88 24.21 47.85 24.21 47.85 24.16 47.88 24.16 47.88"/><polygon points="43.49 47.34 43.52 47.29 43.52 47.3 43.49 47.34 43.49 47.34"/><polygon points="43.52 47.29 43.53 47.29 43.52 47.3 43.52 47.29"/><path d="M13.64,58.2Z"/><path d="M23.1,48.25h0Z"/><path d="M22.26,48.88Z"/><path d="M19.37,51.89Z"/><path d="M20.38,46.35h0Z"/><path d="M56.21,54.56Z"/><path d="M15.06,51.86Z"/></svg>