<svg id="Layer_1" data-name="Layer 1" xmlns="http://www.w3.org/2000/svg" viewBox="0 0 67 81"><defs><style>.cls-1{fill:#faf200;}</style></defs><path d="M4.35,61.86a27.38,27.38,0,0,1-1.87-5,50.28,50.28,0,0,1-1.15-5.08,69.48,69.48,0,0,1-1-10.87A31.8,31.8,0,0,1,7.79,19.56,40.62,40.62,0,0,1,16.6,12c6.9-4.48,14.45-7.76,22-11.1.87-.38,1.79-.69,2.68-1a.55.55,0,0,1,.46.12s-.14.21-.27.29A13.35,13.35,0,0,1,40.19,1c-3.47,1.49-6.93,3-10.28,4.66-1.08.52-2.14,1.08-3.18,1.67s-2.09,1.16-3.1,1.78c-1.58.89-3.07,1.9-4.58,2.88S16.12,14,14.79,15.21c-1.24.95-2.29,2.07-3.42,3.11a35,35,0,0,0-2.94,3.53c-.38.55-.79,1.08-1.14,1.65l-1,1.74-.49.88L5.44,27l-.77,1.84c-.22.63-.37,1.28-.57,1.91a16.2,16.2,0,0,0-.49,1.94l-.32,2-.17,1-.07,1A59.72,59.72,0,0,0,3.64,47,64.08,64.08,0,0,0,5.71,57a25.49,25.49,0,0,0,1.15,3,9.55,9.55,0,0,0,.72,1.35,11,11,0,0,0,.92,1.32,39.68,39.68,0,0,0,4.47,5c.48.43,1,.86,1.49,1.27s1,.78,1.55,1.19c4.26,3.25,9.19,5.88,14.34,6.57,5.4.88,10.64-1.7,15.28-5a66.42,66.42,0,0,0,8-6.75c.88-.88,1.8-1.79,2.62-2.69a22.79,22.79,0,0,0,2.19-2.84,29.39,29.39,0,0,0,3.22-6.53A29,29,0,0,0,63.1,47.6a21,21,0,0,0-.23-8.79A49.94,49.94,0,0,0,60,30.11a48.52,48.52,0,0,0-9.23-14.2A36.86,36.86,0,0,0,40.37,8.55a63.52,63.52,0,0,0-7.43-3C29.14,4.18,25.23,3,21.35,1.74c-1.2-.39-2.41-.76-3.6-1.18-.19-.06-.33-.25-.49-.38a1.68,1.68,0,0,1,.59,0c3.61,1,7.25,1.8,10.87,2.74a58.68,58.68,0,0,1,6.93,2.2A50.4,50.4,0,0,1,50,13a45.91,45.91,0,0,1,8.84,10.27,58,58,0,0,1,4.51,8.31,45.59,45.59,0,0,1,2,5.61,29.41,29.41,0,0,1,.83,3.56c.09.62.15,1.24.21,1.86s.06,1.24,0,1.85a30.48,30.48,0,0,1-1,7.26,34.78,34.78,0,0,1-3.09,7.78A30.3,30.3,0,0,1,60,63c-.42.58-.89,1.12-1.37,1.66s-.93,1-1.4,1.5-.68.72-1,1a71.42,71.42,0,0,1-11.42,9.12A28.42,28.42,0,0,1,37,79.63a20,20,0,0,1-8.62,0,32.82,32.82,0,0,1-10.17-4.07,43.1,43.1,0,0,1-4-2.7A45,45,0,0,1,6.49,65.3c-.4-.51-.78-1-1.16-1.58a15.92,15.92,0,0,1-1-1.84Z"/><path class="cls-1" d="M31,5C13,14.93,4.23,17.47,1.9,37.3,1.14,43.83,3.14,58.66,7,64c5.82,8,17,14.43,27,14,8.56-.37,18.12-7.81,24-14,5.53-5.82,8.75-17.19,7-25S60,24,54,18c-9-9-9-8-22-13"/><circle cx="24" cy="31" r="3.5"/><path d="M23.24,29a2.65,2.65,0,0,0-.66.4c-.11.07-.29.1-.39.21a.31.31,0,0,0-.13.3.37.37,0,0,1-.15.46c-.06,0-.11.1-.05.17s.11.26-.11.39,0,.38-.07.56a1,1,0,0,0,.08.56c.07.16.25.26.36.38s.19.22.31.31a2,2,0,0,0,.32.18,2.18,2.18,0,0,0,1.34.3.34.34,0,0,0,.22-.14c.09-.1.16-.15.3,0s.09.06.11,0c.22-.25.72-.14.74-.62,0-.24.24-.2.54-.22a.79.79,0,0,0,.69-.46,5.84,5.84,0,0,0,.26-.67.29.29,0,0,1,.11-.11.58.58,0,0,1,.17,0l.21,0c.23.12.61.26.61.44a3.23,3.23,0,0,1-.1,1.19,4.26,4.26,0,0,1-1.36,1.81,8,8,0,0,1-.82.68,3.62,3.62,0,0,1-2.65.64,6.17,6.17,0,0,1-1.6-.45,4.72,4.72,0,0,1-2.3-2.91,5,5,0,0,1,1.27-4.56,3.94,3.94,0,0,1,2.6-1.14,3.45,3.45,0,0,1,1.66.08,4.74,4.74,0,0,1,2.1,1.33,2.89,2.89,0,0,1,.47,1.3,3.67,3.67,0,0,1,0,1.19c0,.13-.06.26-.39.35a1.15,1.15,0,0,1-.49,0l-.18-.1c-.2-.18-.28-.31-.2-.52a1.17,1.17,0,0,0-.07-.76c0-.06-.14-.05-.21-.07a1.85,1.85,0,0,1-.38-.05,2,2,0,0,1-.63-.54c-.13-.18-.35-.14-.53-.13a1.9,1.9,0,0,0-1,.35Z"/><circle cx="41" cy="30" r="3.5"/><path d="M40.24,28a2.65,2.65,0,0,0-.66.4c-.11.07-.29.1-.39.21a.31.31,0,0,0-.13.3.37.37,0,0,1-.15.46c-.06,0-.11.1,0,.17s.11.26-.11.39,0,.38-.07.56a1,1,0,0,0,.08.56c.07.16.25.26.36.38s.19.22.31.31a2,2,0,0,0,.32.18,2.18,2.18,0,0,0,1.34.3.34.34,0,0,0,.22-.14c.09-.1.16-.15.3,0s.09.06.11,0c.22-.25.72-.14.74-.62,0-.24.24-.2.54-.22a.79.79,0,0,0,.69-.46,5.84,5.84,0,0,0,.26-.67.29.29,0,0,1,.11-.11.58.58,0,0,1,.17,0l.21,0c.23.12.61.26.61.44a3.23,3.23,0,0,1-.1,1.19,4.26,4.26,0,0,1-1.36,1.81,8,8,0,0,1-.82.68,3.62,3.62,0,0,1-2.65.64,6.17,6.17,0,0,1-1.6-.45,4.72,4.72,0,0,1-2.3-2.91,5,5,0,0,1,1.27-4.56,3.94,3.94,0,0,1,2.6-1.14,3.45,3.45,0,0,1,1.66.08,4.74,4.74,0,0,1,2.1,1.33,2.89,2.89,0,0,1,.47,1.3,3.67,3.67,0,0,1,0,1.19c0,.13-.06.26-.39.35a1.15,1.15,0,0,1-.49,0l-.18-.1c-.2-.18-.28-.31-.2-.52a1.17,1.17,0,0,0-.07-.76c0-.06-.14-.05-.21-.07a1.85,1.85,0,0,1-.38-.05,2,2,0,0,1-.63-.54c-.13-.18-.35-.14-.53-.13a1.9,1.9,0,0,0-1,.35Z"/><path d="M12,48.08s0,.06,0,.08a3.82,3.82,0,0,1,.55.72c.26.31.53.58.79.88a2.43,2.43,0,0,1,.2.28c0,.07,0,.15.13.18s0,0,0,0,.06.2.13.28a7.92,7.92,0,0,1,.56.61,1,1,0,0,0,.24.21c.09.07.18.13.2.25a.44.44,0,0,0,.12.19l.23.21c.18.17.36.34.53.53a2.32,2.32,0,0,0,.5.44.89.89,0,0,1,.32.32,1.71,1.71,0,0,0,.22.25l.46.39a.63.63,0,0,1,.12.11,1.37,1.37,0,0,0,.38.38c.43.35.87.69,1.33,1l.39.29c.32.24.64.49,1,.71s.56.33.83.5a3.4,3.4,0,0,0,.63.38.1.1,0,0,1,.05,0,1,1,0,0,0,.36.22l.22.13c.31.2.65.37,1,.55l.46.25c.09,0,.16.1.25.14.3.13.61.25.9.4s.67.33,1,.47a2.56,2.56,0,0,0,.48.22,4.61,4.61,0,0,1,.56.2l.39.12.17,0a2.56,2.56,0,0,0,.69.24,1.22,1.22,0,0,1,.55.2.34.34,0,0,0,.15.06s.08,0,.12,0l-.06-.11h.11c.3.07.54.07.82.12s.28.07.42.1l.06.05h0a.75.75,0,0,0,.57.07.54.54,0,0,1,.22,0l.18,0h1a1.79,1.79,0,0,1,.69,0h.08c.32,0,.64,0,1,0,.5,0,1-.1,1.48-.12a2.06,2.06,0,0,0,.26,0,6,6,0,0,1,.83-.13,4.28,4.28,0,0,0,.61-.09l.38-.11a3.14,3.14,0,0,1,.51-.12,2.32,2.32,0,0,0,.45-.06,7.58,7.58,0,0,0,1.63-.53.89.89,0,0,1,.47-.12.17.17,0,0,0,.2-.12c0-.09.12-.12.23-.15l-.06.11a.57.57,0,0,0,.55-.25l.05,0h0l-.06,0s0,.1.12.06a3.28,3.28,0,0,0,.6-.28.49.49,0,0,1,.28-.13,1.26,1.26,0,0,0,.68-.29.42.42,0,0,1,.37-.16l.08,0c.28-.13.55-.28.82-.43a3.29,3.29,0,0,0,.46-.3l.55-.37.27-.21a.82.82,0,0,0,.27-.21s.1-.09.15-.14.09,0,.11.05h0l.11-.23.11.05s.08,0,.09,0,.17-.16.15-.27l-.09,0v0s0,0,0,0l0,0a1.44,1.44,0,0,1,.33-.32h0a.4.4,0,0,1,0,.11s0,.06-.06.09a.07.07,0,0,0,0,0h0l.21-.17h0l0,0c.18,0,.27-.23.43-.3s0,0,0-.07.14-.24.22-.35a.5.5,0,0,1,.14-.1h0a.88.88,0,0,0,.17-.12c.1-.08.19-.18.3-.26s.32-.28.26-.5a.18.18,0,0,1,.13-.22c.06,0,.11-.09.17-.14a.09.09,0,0,0,0-.12c0-.07,0-.1.07-.09s.3-.11.46,0,.12-.1.14-.2l-.13.05a.92.92,0,0,1,.2-.23.3.3,0,0,1,.15-.07s.07.05.1.08c.24-.19.36-.48.58-.67,0,0,0,0,0-.07s0-.12,0-.15H51L51,52.31l.07-.07s.08-.05.05-.08,0-.12,0-.14a.32.32,0,0,0,.16-.09s.06-.09,0-.09,0,0,0-.07a.13.13,0,0,1,.09-.06c.07,0,.12,0,.13-.11a.69.69,0,0,1,0-.13c0-.06.07-.1.12,0a.08.08,0,0,0,.13,0l.23-.35a.14.14,0,0,0,0-.12.22.22,0,0,1,.08-.21.29.29,0,0,1,.2-.11h0c.15-.09.15-.09,0-.17s0,0,0,0l.15-.14c.07-.06,0,0,.09,0a.59.59,0,0,0,.1-.17.73.73,0,0,1,.17-.31h0V50A1.41,1.41,0,0,1,53,49.8l.17-.11c0-.06-.07-.12,0-.22l.17.09c.28-.21.28-.21.33-.43a.36.36,0,0,0-.28.23c-.08,0,0-.07,0-.11v0h0v0l.1-.11.11-.24c.08,0,.05.06.06.09l0,.14.06-.09v0s.07,0,.08,0a.26.26,0,0,0,.07-.11c0-.06,0-.11,0-.12a.12.12,0,0,1-.05,0,1.6,1.6,0,0,1,0-.23.46.46,0,0,1,.08-.13l.09.07H54l.14-.12c-.05,0-.12,0-.07-.16a2.32,2.32,0,0,1,.22-.41.64.64,0,0,1,.25-.24l.08.13h0c.06,0,.14-.08.14-.17s0,0,0-.06l-.06,0v0h0c-.08-.06-.07-.14,0-.23l.67-.95c.31-.43.61-.87.89-1.33.08-.11.18-.23.14-.38s0-.09,0-.13a2.49,2.49,0,0,0,.15-.28,1.06,1.06,0,0,0,.06-.19.11.11,0,0,0,0-.06s-.05,0-.07,0-.18.25-.26.38-.32.36-.39.61a.24.24,0,0,1-.06.09.28.28,0,0,0-.13.2.4.4,0,0,1-.09.17l-.41.56c-.07.09-.12.21-.2.26s-.11.2-.18.29-.06.06-.08.06-.15.05-.21.13c-.3.41-.62.8-.9,1.21a2.53,2.53,0,0,1-.5.53h0v-.17l-.06,0c-.06.1-.07.21-.19.28a.18.18,0,0,0-.08.23l0,0,0,0a.61.61,0,0,0-.34.29.81.81,0,0,1-.24.31.08.08,0,0,0,0,.05c-.05.16-.05.17-.14.21a.09.09,0,0,0-.06.1.17.17,0,0,1-.13.16.12.12,0,0,0-.1.1.23.23,0,0,1,0,.1.73.73,0,0,0-.24.28c-.1,0-.15.13-.2.21A1,1,0,0,1,51,51a1.48,1.48,0,0,1,.13-.21l.52-.67a4.09,4.09,0,0,1,.51-.67s0-.08.08-.11l.18-.24c.1-.13.2-.26.29-.4a.37.37,0,0,0,0-.15h0l.3-.31c-.12-.13-.12-.13,0-.3.13.06.15.06.24,0l.15-.19.22-.28.52-.68a1.4,1.4,0,0,0,.1-.16s0-.09,0-.11-.2.22-.36.14a.25.25,0,0,1,.19-.17.39.39,0,0,0,.27-.31.38.38,0,0,0,0-.1.72.72,0,0,1,.2-.29.46.46,0,0,0,.15-.16s0,0,0,0l0,0,0,0,.31-.38s.07,0,.11-.05h0a.4.4,0,0,1,.09-.25,4,4,0,0,0,.35-.46c.26-.41.5-.82.74-1.27l.06-.13c.06-.23.18-.39.28-.69l.06-.2c0-.06,0-.12,0-.11a1.92,1.92,0,0,1-.26.59,7.35,7.35,0,0,1-.44.61.36.36,0,0,0-.09.22h0a1.37,1.37,0,0,1-.19.23c-.06.07-.07.18-.13.26l-.41.59-.52.71L54,46l-.73,1-.42.53h0l.2-.41A.1.1,0,0,1,53,47a.85.85,0,0,0,.28-.37c.06-.11.13-.21.2-.32l.17-.24v0a.41.41,0,0,0,.23-.18l.24-.29.6-.74s.07-.07.08-.11a2,2,0,0,1,.3-.46,4,4,0,0,0,.22-.34s0-.06,0-.15l-.25.26a4.36,4.36,0,0,1-.6.81,6.78,6.78,0,0,1,.6-.81l.27-.41s.06-.12.14-.09a.11.11,0,0,0,.06,0,1.9,1.9,0,0,0,.38-.68l.08-.22s.08,0,.09,0a1.22,1.22,0,0,0,.11-.53,3.91,3.91,0,0,1-.39.62l-.18.24c-.16.23-.32.46-.5.68a7.9,7.9,0,0,0-.61.79l-.15.2-.55.67-.78,1-.89,1.13-.91,1.19,0,0a9.76,9.76,0,0,0-.69.87l-.1.12c-.4.45-.74.9-1.1,1.33l-.16.18c-.31.34-.64.67-1,1s-.62.61-1,.88-.8.64-1.2.94a15.93,15.93,0,0,1-1.53,1c-.68.41-1.37.81-2.08,1.17-.19.1-.4.16-.59.25s-.67.26-1,.39c-.51.19-1,.38-1.53.53a2.51,2.51,0,0,1-.6.1.6.6,0,0,1-.11.06c-.23.07-.46.14-.69.19s-.69.13-1,.19c-.56.11-1.13.2-1.71.26-.35,0-.7,0-1.06.05l0,0,.11,0,.34,0,.44,0,.82-.07c.31,0,.63-.07.94-.12.67-.11,1.33-.26,2-.43a1.39,1.39,0,0,1,.26-.1c.63-.2,1.26-.4,1.88-.65s1.33-.62,2-.89l.2-.11a.1.1,0,0,0,0-.05h-.11l.29-.18-.06,0a1.85,1.85,0,0,0-.44.18,1,1,0,0,1-.28.09s0,0-.06-.05,0,0,0-.07,0-.09-.08-.07l-.13.06a2.3,2.3,0,0,1-.67.27.55.55,0,0,0-.15.08l-.58.28c-.27.12-.56.19-.84.3a14.56,14.56,0,0,1-1.46.46,11.63,11.63,0,0,1-1.53.34,6.33,6.33,0,0,1-.87.15,12.52,12.52,0,0,1-1.37.18c-.55,0-1.1,0-1.65.07-.33,0-.66,0-1,0s-.71,0-1.07,0a11.12,11.12,0,0,1-1.42-.19l-.37-.07a2.78,2.78,0,0,1-.67-.18c-.28-.11-.57-.18-.85-.32s-.75-.32-1.12-.52l-.17-.07a3.61,3.61,0,0,1-.64-.27l-.24-.12-.37-.21L25,55.54c-.31-.16-.61-.31-.91-.49l-.93-.53-.41-.25L22.25,54,22,53.85c-.27-.16-.54-.33-.79-.51s-.57-.38-.85-.56a4.62,4.62,0,0,0-.64-.45.29.29,0,0,1-.11-.11.77.77,0,0,0-.31-.22,1.3,1.3,0,0,1-.15-.1l-.13-.09c-.08-.05-.17-.09-.25-.15a3.19,3.19,0,0,0-.33-.31,2.51,2.51,0,0,1-.37-.27l-.26-.2a11.55,11.55,0,0,1-.94-.76c-.13-.12-.27-.22-.4-.33a3.81,3.81,0,0,1-.43-.37,4.59,4.59,0,0,0-.39-.37,3,3,0,0,0-.46-.28h0s0,0,0,.07,0,0,.07.08l.45.39a.11.11,0,0,1,0,.08s-.06,0-.07,0a1.42,1.42,0,0,0-.41-.24s-.08-.07-.11-.11a1.22,1.22,0,0,1-.12-.19s-.05-.07-.07-.07-.11-.07-.11-.14h0v0l0,0h0c-.12.08-.13.12-.06.22l.21.21s.09,0,.05.11l-.43-.42a.13.13,0,0,1,0-.18c.05-.08,0-.09-.09-.14a.24.24,0,0,1-.1-.08,2.88,2.88,0,0,0-.27-.34c-.19-.16-.29-.41-.53-.54-.18-.29-.49-.45-.71-.71,0,0-.09-.06-.11,0s0,.08,0,.12a3.3,3.3,0,0,0,.26.39l.08.11a1.38,1.38,0,0,1-.34-.3,8.09,8.09,0,0,1-.54-.61l-.26-.33-.25-.32s-.06-.1-.14-.08l.08.29.07.06v0h0l0-.07-.13-.12-.1-.11s0-.11-.12-.11l.06.15.18.35a.43.43,0,0,1,.07.36.36.36,0,0,0,0,.19c.09.18.18.37.29.55a6.28,6.28,0,0,0,.53.78,1.86,1.86,0,0,1-.33-.36c-.1-.14-.29-.21-.34-.39,0,0,0,0,0,0s-.12-.06-.17-.14-.18-.28-.28-.42-.08-.14-.15-.1l0,.09a2.49,2.49,0,0,0,.33.57.47.47,0,0,1,.11.26.54.54,0,0,0-.26-.23c.08.1.12.17.18.25s.13.17.25.18,0,.07,0,.12h0c.07.11.19.16.22.29Zm38.33,5ZM35.71,57.74h.15l0,0h0l-.06,0h-.15Zm4.5-1.07a.12.12,0,0,1-.14,0h0ZM51,52.61c-.05,0,0-.11-.05-.15h-.06v0h0C51,52.5,51,52.5,51,52.61Zm-.44.09.19.1-.05.05-.12,0-.07,0h0l0,0h.07ZM39.32,57.05s0,0,0,0,0,0,0,0,.11-.1.18-.12.07,0,.11,0l.17-.11c0,.13,0,.13-.17.1ZM39,57h.09l-.14,0s0,.06-.06.07a4,4,0,0,1-.66.14l0-.08a1.75,1.75,0,0,1,.68-.13Zm11.24-5.16L50.2,52a10.72,10.72,0,0,1-1.08,1.15l-.43.39c0-.07,0-.09,0-.12l.56-.53c.23-.22.46-.45.67-.69s.49-.55.72-.83a.48.48,0,0,1,.11-.09h0A3.55,3.55,0,0,1,50.27,51.88Zm-32.35-.7a1.18,1.18,0,0,0,.27.23,2.27,2.27,0,0,1,.54.44,1.93,1.93,0,0,0,.24.2,9.12,9.12,0,0,1-1.45-1.18A2.64,2.64,0,0,1,17.92,51.18Zm18.74,6.45-.12,0h0l0-.05h0l.64-.07.21-.06s.06,0,.08,0l0,0-.42.07h0Zm-20.81-8,0,0s0-.06,0-.09h.07a.77.77,0,0,1,.16.15,4.43,4.43,0,0,0,.51.45l.07.08v0Zm18,8.62-.2,0c-.28,0-.56,0-.83,0,.36,0,.72,0,1.08-.05v0Zm7.36-2-.17.11s-.11,0-.16,0c.18-.06.33-.19.53-.16ZM17.4,50.81l-.28-.18a.39.39,0,0,1-.17-.19A1.27,1.27,0,0,1,17.4,50.81Zm17.59,7a.55.55,0,0,0-.31.07l0,0s0-.06,0-.06l.24-.06.17,0S35,57.84,35,57.84Zm.46-.11,0,0v0a.22.22,0,0,1-.27,0A.38.38,0,0,1,35.45,57.73Zm2.44-.39.15,0c-.11.1-.11.1-.35.11Zm14-6.27a0,0,0,0,1,0,0c0,.09-.06.13-.15.18A.26.26,0,0,1,51.84,51.07Zm1.58-3.6c0,.05-.05.13-.13.14l0,0c0-.06,0-.08.16-.17C53.42,47.45,53.43,47.46,53.42,47.47Zm.94-2.36,0,0-.13.17,0,0Zm-20,12.76.11,0s0,0,0,0,0,.06-.09.06h0Zm14.71-3.46-.07,0a.11.11,0,0,1,0,0s0,0,.07-.07S49.12,54.39,49.11,54.41ZM55.85,43h0l-.07.14h0ZM34.2,57.87l-.05.05-.07,0,0,0ZM47.68,55.7h0s0,0,0-.05h.06ZM32.4,57.88s0,0,0,0,0,0,0,0l0,0Zm16.33-3.13h0s0,0,0,0,0,0-.09.06Zm5.06-7.86h0l0,0h0A.09.09,0,0,1,53.79,46.89ZM48,55.27l0,0h0l0-.05Zm7.29-9a0,0,0,0,1,0,0l0,0v0ZM40.54,56.53h0ZM55.67,45.69a0,0,0,0,1,0,0h0v0ZM13.33,47.61v0h0v0Zm39.28.9,0,0v0Zm-38.84-.45v0Zm41.84-4.68h0l0,0Zm-1.52,2.14h0s0,0,0,0h0Zm-21.3,12.4v0l0,0h0Zm.43,0h0ZM52.6,47.72h0Zm-10.23,8h0v0ZM32.21,57.92h0Zm1.69,0h0Z"/><path d="M21.9,53.47a.47.47,0,0,1-.34-.1l-1-.67c-.35-.24-.7-.48-1-.74-.16-.13-.34-.23-.5-.35s-.3-.23-.45-.35a.16.16,0,0,1,0-.09c0-.05.07-.05.11,0a.67.67,0,0,1,.12.06c.43.33.9.62,1.34.94.29.22.59.42.9.62a6.25,6.25,0,0,1,.88.65A.16.16,0,0,1,21.9,53.47Z"/><path d="M16.05,49.17l.11.07c.19.15.37.31.56.45l1,.73.5.37h0c.08.08.13.19.25.23s0,0,0,.07a.07.07,0,0,1-.06,0,.15.15,0,0,1-.07,0,12.14,12.14,0,0,1-1-.74l-.79-.65s-.07,0-.08-.07a1.41,1.41,0,0,0-.31-.29L16,49.22Z"/><path d="M37.75,56.89a6.5,6.5,0,0,0,.79-.17c.29-.11.59-.18.88-.28l.51-.16H40s0,0,0,0a0,0,0,0,1,0,0,3.46,3.46,0,0,0-.7.26l-.19.06a5.24,5.24,0,0,0-.8.22l-.1,0a1.32,1.32,0,0,0-.48.09.58.58,0,0,1-.19,0s0,0,0,0,0,0,0-.05l.08,0,.17,0Z"/><path d="M43.61,55.07a1.58,1.58,0,0,0-.44.2,1.65,1.65,0,0,1-.42.21s0,0,0,0v0l.32-.19.17-.08.57-.35a5.79,5.79,0,0,0,.58-.38.09.09,0,0,1,.07,0,.05.05,0,0,1,0,.08.27.27,0,0,1-.08.07l-.16.12-.57.4Z"/><path d="M41.28,55.73a.44.44,0,0,1,.37-.11.24.24,0,0,1,0,.07,1.4,1.4,0,0,1-.55.26,1.37,1.37,0,0,0-.37.17.35.35,0,0,1-.24.06s-.05,0-.05,0,0,0,0,0l.61-.24a.45.45,0,0,0,.23-.13Z"/><path d="M45,53.72a1.39,1.39,0,0,1-.37.31l-.83.46h0l0,0h0c.35-.23.7-.46,1-.72a.17.17,0,0,1,.2,0Z"/><path d="M47.12,52l-.17.09c0-.05,0-.07,0-.09s.25-.27.39-.4l.54-.52s0,0,.07,0c-.06.18-.06.18-.16.25l-.18.17c-.12.12-.26.24-.4.36a.32.32,0,0,0-.12.18Z"/><path d="M49.44,49.37s0,0,0-.07.22-.4.42-.54c0,0,0-.09.08-.13a1.11,1.11,0,0,1,.35-.37c0,.17-.08.3-.21.38a.54.54,0,0,0-.21.24,2.92,2.92,0,0,1-.43.5Z"/><path d="M46.11,52.92s-.07,0-.07-.05l0,0a2.14,2.14,0,0,1,.42-.37,1.7,1.7,0,0,0,.23-.17.11.11,0,0,1,.08,0,.58.58,0,0,1-.21.28,1.19,1.19,0,0,0-.4.34s-.06,0-.09,0v0Z"/><path d="M52.57,50.57a.13.13,0,0,1,0,.18,1.14,1.14,0,0,0-.31.44.15.15,0,0,1-.06.05h-.07s0,0,0,0a1.54,1.54,0,0,1,.3-.42Z"/><path d="M35,57.37c.34-.06.65-.08,1-.12,0,0,0,0,.06,0v0l0,0-.91.09Z"/><path d="M49.61,54.05a1.49,1.49,0,0,1,.08-.23.14.14,0,0,1,.18-.08.86.86,0,0,1,.18.14s0,0,0,.07H50c0-.07-.1-.06-.18,0S49.69,54,49.61,54.05Z"/><path d="M54.52,43.88a.42.42,0,0,1,0-.12l.44-.49s0,0,.07,0v0a1.53,1.53,0,0,1-.54.56Z"/><path d="M36.52,57.21v0l.74-.16s0,0,0,0l0,0s0,0,0,0a1.66,1.66,0,0,1-.21.06A5.41,5.41,0,0,1,36.52,57.21Z"/><path d="M43.79,54.51a.68.68,0,0,1-.44.28l-.06,0s0-.05,0-.06a1.37,1.37,0,0,1,.2-.13l.25-.11h0l0,0Z"/><path d="M32.3,57.51h-.4s-.06,0-.06,0,0,0,.07,0l.63,0,.09,0,0,0,0,0H32.3Z"/><path d="M48.63,50.48h-.05s-.07,0,0,0,.21-.25.32-.38L49,50a1.57,1.57,0,0,1-.23.32,1.18,1.18,0,0,0-.13.18Z"/><path d="M55.67,46.11c-.08.14-.15.29-.22.42a.08.08,0,0,1-.07,0l-.05,0a.72.72,0,0,1,.24-.39l.1,0Z"/><path d="M25.72,55.71l-.53-.27s0,0,0,0l0,0a.61.61,0,0,1,.13,0l.36.25S25.72,55.67,25.72,55.71Z"/><path d="M14.78,48.62c0-.1-.13-.15-.2-.22s0,0,0,0l.06,0h0l.37.35s0,0,0,0,0,0,0,0l-.19-.1h0l0,0Z"/><path d="M29.15,57.09a.89.89,0,0,1,.37,0s0,0,0,0a.12.12,0,0,1-.05.05A.55.55,0,0,1,29.15,57.09Z"/><path d="M45.1,53.65a.13.13,0,0,1,0-.09,1.14,1.14,0,0,1,.33-.23c0,.13-.06.17-.32.33Z"/><path d="M47.9,51.68a.6.6,0,0,1,.31-.36h0s0,0,0,0A1.74,1.74,0,0,1,47.9,51.68Z"/><path d="M33.78,57.53l-.11,0s0,0,0,0a.31.31,0,0,1,.28,0s0,0,0,0,0,0,0,0Z"/><path d="M50.17,49c.11-.16.18-.27.26-.37s0,0,0,0l0,0A.61.61,0,0,1,50.17,49Z"/><path d="M44.9,54.12l.32-.23s0,0,.06,0,0,0,0,0a.48.48,0,0,1-.37.17Z"/><path d="M48.33,51.22c0-.13.07-.21.17-.23s0,0,0,0a.06.06,0,0,1,0,0A.37.37,0,0,1,48.33,51.22Z"/><path d="M55.71,46.14l0,0h0v0a.2.2,0,0,1,.08-.21s.08.07.06.21a.14.14,0,0,1,0,.06h0l-.07,0Z"/><path d="M51.93,51.54s-.06,0-.07,0a.1.1,0,0,1,0-.07.34.34,0,0,1,.06-.12l.06,0a.07.07,0,0,1,0,.06S51.94,51.5,51.93,51.54Z"/><path d="M43,54.92s0,.08,0,.1a1.17,1.17,0,0,1-.2.06s0-.08,0-.09l.18-.07Z"/><path d="M31.15,57.43a.26.26,0,0,1,.23,0,.27.27,0,0,1,.1.06s-.05.05-.12,0Z"/><path d="M50.54,53.39l-.06.11s0,.09-.1.07-.06-.12,0-.15S50.46,53.4,50.54,53.39Z"/><path d="M54.36,44.16a.3.3,0,0,1,.16-.28h0a.13.13,0,0,1,0,.18l-.14.1Z"/><path d="M32.86,57.49a.58.58,0,0,1,.41,0h-.34Z"/><path d="M45.68,53.19c0-.08.08-.16.19-.14a0,0,0,0,0,0,0C45.85,53.18,45.76,53.18,45.68,53.19Z"/><path d="M55.61,44.51l-.14.23H55.4s0,0,0-.07l.16-.18Z"/><path d="M48.49,55.14l.12,0s0,0,0,.05,0,.07-.08.07a.08.08,0,0,1-.08,0,.14.14,0,0,1,0-.15Z"/><path d="M48.11,50.88l.13-.05s0,0,0,0,0,.06,0,.06l-.13,0Z"/><path d="M23.16,54.19l.05.06s0,0,0,0l0,0a.19.19,0,0,1-.14-.1v0h0Z"/><path d="M52.71,50.45l0,0-.05,0a.19.19,0,0,1,0-.08s0,0,.06,0a.14.14,0,0,1,0,.06A.11.11,0,0,1,52.71,50.45Z"/><path d="M29.69,57.2a.28.28,0,0,1,.22,0C29.82,57.27,29.82,57.27,29.69,57.2Z"/><path d="M26.12,59.61l-.2,0a.08.08,0,0,1,0-.05l0,0,.19.07Z"/><path d="M51.29,52.27a.29.29,0,0,1,.1-.22l0,0s0,0,0,.07A1.53,1.53,0,0,1,51.29,52.27Z"/><path d="M50.88,47.48a1.36,1.36,0,0,1,.24-.24.28.28,0,0,1-.24.24Z"/><path d="M27.44,56.44l.26.13a.54.54,0,0,1-.28-.08Z"/><path d="M28.84,57,29,57s0,0,0,0,0,0,0,0L28.83,57Z"/><path d="M49.38,54.3s-.05,0-.05,0a.08.08,0,0,1,0-.06s.09,0,.1,0,0,.07,0,.11Z"/><path d="M45.74,53.48l.18-.07c0,.06,0,.08-.05.11l-.11,0,0-.09Z"/><path d="M31,57.41l-.1,0-.08,0s0-.05.09,0l.09,0Z"/><path d="M45.48,53.72s0,.07,0,.08-.05,0-.08,0,0-.06,0-.06Z"/><path d="M49.22,49.61s0,0,0,0l.08,0,0,.07,0,0h-.06Z"/><path d="M49.23,50.18s0,0,0,0,0,.08-.09.07h0s0-.06,0-.08S49.2,50.19,49.23,50.18Z"/><path d="M48.88,50.67l-.07.09h0l0-.09Z"/><path d="M46.41,53c0-.08.05-.13.19-.15Z"/><path d="M50.14,49.15l-.08,0s0,0,0,0,0,0,0,0a.12.12,0,0,1,.05-.05h0Z"/><path d="M46.8,52.67l0,.07-.05,0v0Z"/><path d="M30.52,57.34l-.09,0,0,0v0h.12Z"/><path d="M34.16,57.45l.07,0h.19A.34.34,0,0,1,34.16,57.45Z"/><path d="M55.1,45.18l.1-.16s0,0,0,0,0,.08,0,.12a.15.15,0,0,1-.13.07Z"/><path d="M53.41,48l.16-.24c0,.17,0,.17-.16.24Z"/><path d="M36.32,57.25l-.1,0s0,0,0,0l.11,0Z"/><path d="M47.41,52.17c0-.06,0-.09,0-.11h0v0Z"/><path d="M53.84,44.89h-.05s0,0,0,0l0,0Z"/><path d="M11.19,45.45a.2.2,0,0,1,0,.08s0,0,0,0a.29.29,0,0,1,0-.09Z"/><polygon points="55.06 45.16 55.1 45.18 55.1 45.18 54.95 45.42 54.92 45.41 55.06 45.16 55.06 45.16"/><path d="M55.14,47V47h0a.15.15,0,0,0,0-.06Z"/><path d="M54.92,45.6l0,0s0,0,0,.07l0,0Z"/><path d="M50.85,47.52c0,.12,0,.12-.14.2l.14-.2Z"/><path d="M27.13,56.37l-.06,0s0,0,0,0h.06S27.13,56.35,27.13,56.37Z"/><path d="M28,56.72v0l.09,0v0Z"/><path d="M10.75,45.85l0-.07.06,0s0,0,0,0Z"/><path d="M49.58,49.78a.35.35,0,0,0,0,.06l-.07.06a.06.06,0,0,1,0,0Z"/><path d="M30.16,57.32H30.1v0h0Z"/><path d="M46.12,53.32h-.06a.14.14,0,0,1,0-.06h0Z"/><path d="M47.22,52.29h0v0s0,0,0,0Z"/><path d="M26,55.83l.09,0s0,0,0,0h0l-.09,0Z"/><path d="M26.79,56.15l0,0h-.08s0,0,0,0Z"/><path d="M49.34,50h0s0,0,0,0h0Z"/><path d="M22.64,54l-.05,0,0,0,0,0A.1.1,0,0,0,22.64,54Z"/><path d="M50.8,53.13a.06.06,0,0,1,0,0h0s0,0,0,0S50.79,53.13,50.8,53.13Z"/><path d="M54.91,47.4l-.06,0a.06.06,0,0,1,0,0h.06Z"/><path d="M55.78,46.12v0l0,.06,0-.06h0l.07,0Z"/><path d="M52.94,50.5l0,0h0s0,0,0,0Z"/><path d="M31.68,57.45h0l0,0Z"/><path d="M56,44l0,.07h0a.06.06,0,0,1,0,0L56,44Z"/><path d="M53.83,47.37v0l0,0v0Z"/><path d="M54.4,46.3h0v0h0Z"/><path d="M23.88,54.69h0v0l0,0Z"/><path d="M23.38,54.41h0v0h.05Z"/><path d="M50.61,48.47h0v0h0Z"/><path d="M49.77,49.59v0l0,0h0Z"/><path d="M46.62,56.71l0,0s0,0,0,0,0,0,0,0l0,0Z"/><polygon points="45.62 53.65 45.62 53.63 45.63 53.64 45.62 53.65"/><polygon points="49.11 49.83 49.09 49.83 49.09 49.79 49.12 49.8 49.11 49.83"/><path d="M56,44,56,44h0s0,0,0,0l0,0Z"/><path d="M28.42,56.86h0l0,0h0Z"/><path d="M53.41,48s0,0,0,0h0l0,0,0,0Z"/><path d="M54.63,47.69v.05l0,0a0,0,0,0,1,0,0s0,0,0-.05Z"/><polygon points="52 47.09 51.99 47.1 51.99 47.08 52 47.09"/><path d="M54.37,48.1h0v0h0Z"/><polygon points="23.69 54.56 23.71 54.57 23.7 54.58 23.69 54.56"/><path d="M53,50.29v0l0,0v0S52.94,50.3,53,50.29Z"/><polygon points="50.94 48.08 50.93 48.09 50.92 48.08 50.94 48.08"/><path d="M49.91,49.39h0Z"/><path d="M49.25,54.67h0v0s0,0,0,0Z"/><path d="M24.42,55s.1,0,.09.06h0L24.42,55Z"/><path d="M45,53.72l.06-.07h0c0,.05-.05.06-.09.06Z"/><polygon points="46.25 53.16 46.24 53.14 46.26 53.14 46.25 53.16"/><polygon points="47.8 51.79 47.8 51.81 47.78 51.8 47.8 51.79"/><polygon points="24.8 55.15 24.78 55.17 24.8 55.16 24.8 55.15"/><path d="M24.85,55.18l0,0h0v0Z"/><path d="M24.42,55h0Z"/><polygon points="50.76 48.32 50.76 48.3 50.77 48.31 50.76 48.32"/><path d="M30.59,60.78l0,0v0Z"/><polygon points="50.85 47.52 50.88 47.48 50.88 47.48 50.87 47.5 50.85 47.52 50.85 47.52"/><path d="M43.61,55.08h0Z"/><polygon points="24.8 55.16 24.85 55.18 24.85 55.18 24.8 55.15 24.8 55.16"/><path d="M26,55.82h0Z"/><polygon points="43.84 54.49 43.79 54.51 43.79 54.51 43.84 54.49 43.84 54.49"/><polygon points="24.51 55.03 24.48 55.07 24.48 55.06 24.51 55.03 24.51 55.03"/><polygon points="24.48 55.07 24.46 55.07 24.48 55.06 24.48 55.07"/><path d="M54.36,44.16Z"/><path d="M44.9,54.12Z"/><path d="M45.74,53.48Z"/><path d="M48.63,50.48Z"/><path d="M47.62,56Z"/><path d="M11.79,47.8h0Z"/><path d="M52.94,50.5Z"/></svg>